<?xml version="1.0" encoding="UTF-8" standalone="no"?>
<svg
   xmlns:dc="http://purl.org/dc/elements/1.1/"
   xmlns:cc="http://creativecommons.org/ns#"
   xmlns:rdf="http://www.w3.org/1999/02/22-rdf-syntax-ns#"
   xmlns:svg="http://www.w3.org/2000/svg"
   xmlns="http://www.w3.org/2000/svg"
   xmlns:sodipodi="http://sodipodi.sourceforge.net/DTD/sodipodi-0.dtd"
   xmlns:inkscape="http://www.inkscape.org/namespaces/inkscape"
   inkscape:version="1.0 (4035a4fb49, 2020-05-01)"
   height="24"
   width="24"
   sodipodi:docname="activity.svg"
   xml:space="preserve"
   viewBox="0 0 24 24"
   y="0px"
   x="0px"
   id="Capa_1"
   version="1.1"><metadata
   id="metadata57"><rdf:RDF><cc:Work
       rdf:about=""><dc:format>image/svg+xml</dc:format><dc:type
         rdf:resource="http://purl.org/dc/dcmitype/StillImage" /><dc:title></dc:title></cc:Work></rdf:RDF></metadata><defs
   id="defs55" /><sodipodi:namedview
   inkscape:current-layer="Capa_1"
   inkscape:window-maximized="1"
   inkscape:window-y="0"
   inkscape:window-x="0"
   inkscape:cy="23.227934"
   inkscape:cx="36.954512"
   inkscape:zoom="13.742962"
   showgrid="false"
   id="namedview53"
   inkscape:window-height="1417"
   inkscape:window-width="2560"
   inkscape:pageshadow="2"
   inkscape:pageopacity="0"
   guidetolerance="10"
   gridtolerance="10"
   objecttolerance="10"
   borderopacity="1"
   bordercolor="#666666"
   pagecolor="#ffffff" />
<g
   transform="matrix(0.04711793,0,0,0.04711793,-0.22910083,0.35192002)"
   id="g12">
	<path
   id="path2"
   d="M 200,152 127.96,112.704 C 118.12,107.336 112,97.024 112,85.816 V 64 L 104,48 90.416,66.112 C 83.48,75.36 75.904,84.096 67.728,92.272 l -0.416,0.416 c -2.12,2.12 -3.312,5 -3.312,8 0,6.248 5.064,11.312 11.312,11.312 v 0 c 8.12,0 15.912,3.224 21.656,8.968 l 36.72,36.72 c 6.824,6.824 14.712,12.504 23.344,16.824 12.472,6.24 26.224,9.488 40.168,9.488 h 2.8 l 7.336,-29.336 z"
   style="fill:#f9e0a6" />
	<path
   id="path4"
   d="m 120,80 h 24 l 36.336,12.112 c 7.728,2.576 15.816,3.888 23.96,3.888 h 1.816 c 11.768,0 23.368,2.736 33.888,8 10.52,5.264 22.128,8 33.888,8 H 288 V 91.312 C 288,84.144 285.168,77.28 280.144,72.176 278.664,72.096 277.184,72 275.704,72 H 241.888 C 230.128,72 218.52,69.264 208,64 197.48,58.736 185.872,56 174.112,56 H 144 l -24,-8 h -16 l 8,16 z"
   style="fill:#f9e0a6" />
	<path
   id="path6"
   d="m 304,396.648 v 14.704 c 0,8.376 -1.352,16.704 -4,24.648 -2.648,7.944 -4,16.272 -4,24.648 V 472 c 0,8.84 7.16,16 16,16 8.84,0 16,-7.16 16,-16 v -11.352 c 0,-8.376 1.352,-16.704 4,-24.648 l 8,-24 c 2.648,-7.952 4,-16.272 4,-24.648 V 352 h -32.184 c -0.408,6.8 -1.656,13.528 -3.816,20 -2.648,7.944 -4,16.272 -4,24.648 z"
   style="fill:#f9e0a6" />
	<path
   id="path8"
   d="m 336,72 v 0 C 322.744,72 312,61.256 312,48 V 32 C 312,18.744 322.744,8 336,8 v 0 c 13.256,0 24,10.744 24,24 v 16 c 0,13.256 -10.744,24 -24,24 z"
   style="fill:#f9e0a6" />
	<path
   id="path10"
   d="m 428.296,146.072 -30.728,-49.16 c -3.56,-5.688 -9.304,-9.664 -15.88,-10.976 L 356.848,80.968 368,120 l 32,40 -32,40 -8,40 24,-16 42.136,-49.16 C 429.92,170.424 432,164.8 432,158.984 c 0,-4.56 -1.28,-9.04 -3.704,-12.912 z"
   style="fill:#f9e0a6" />
</g>
<path
   id="path14"
   d="m 13.340862,9.0216185 -3.8007201,-1.382252 -0.3456574,1.382252 0.4500707,0.375059 c 1.2013188,1.0011615 2.5417288,1.8225215 3.9790138,2.4384475 0.304194,0.130422 0.552222,0.364504 0.700361,0.660404 0.09725,0.194503 0.147762,0.408607 0.147762,0.625727 v 3.59717 c 0,0.07313 -0.0045,0.146255 -0.0087,0.219005 h 1.516444 v -0.678875 c 0,-0.300424 0.03694,-0.599341 0.10969,-0.890718 l 0.464395,-1.8572 c 0.09047,-0.361866 0.146631,-0.730893 0.16887,-1.102936 -1.462917,-0.734286 -2.649535,-1.921658 -3.381559,-3.3860835 z"
   style="fill:#8c95a4;stroke-width:0.0471179" />
<path
   id="path16"
   d="m 15.414051,4.8752409 c 0.346411,0 0.66342,-0.1956336 0.818344,-0.505858 l 0.124014,-0.2480288 0.137208,-0.1372074 -1.644982,-0.6166794 -0.376943,0.7538868 0.124014,0.2480288 c 0.154924,0.3102244 0.471934,0.505858 0.818345,0.505858 z"
   style="fill:#f9e0a6;stroke-width:0.0471179" />
<path
   id="path18"
   d="m 16.733353,11.715257 c 0,-0.287231 0.02827,-0.573708 0.08481,-0.855662 l 0.292131,-1.4610335 v -3.080381 c 0,-0.682645 0.271022,-1.3373954 0.753887,-1.819883 L 16.493617,3.9841467 16.356409,4.1213541 16.232395,4.3693829 c -0.154924,0.3102244 -0.471933,0.505858 -0.818344,0.505858 -0.346411,0 -0.663421,-0.1956336 -0.818345,-0.505858 L 14.471692,4.1213541 13.890445,3.9276052 C 13.59266,3.8284691 13.283566,3.7711737 12.970703,3.7527035 c 0.236721,0.2408668 0.370159,0.5639073 0.370159,0.9016486 v 0.9747754 3.392491 c 0.732024,1.4644255 1.918642,2.6517975 3.381559,3.3864605 0.0072,-0.119491 0.01093,-0.239359 0.01093,-0.358851 z"
   style="fill:#39c3fc;stroke-width:0.0471179" />
<path
   style="stroke-width:0.0471179"
   id="path20"
   d="M 20.270966,7.0347495 18.823127,4.7184325 C 18.601484,4.3637287 18.239241,4.1134383 17.829127,4.0312646 L 16.733353,3.8122605 V 3.6004183 c 0.23182,-0.2653681 0.376943,-0.6080097 0.376943,-0.9868378 V 1.8596937 c 0,-0.8315372 -0.676237,-1.50777368 -1.507774,-1.50777368 -0.831537,0 -1.507773,0.67623648 -1.507773,1.50777368 v 0.7538868 c 0,0.3222866 0.103659,0.619695 0.276676,0.8650851 l -0.09084,0.1813098 -0.271023,-0.090466 C 13.60623,3.4356941 13.186315,3.3674673 12.7615,3.3674673 h -1.59334 c -0.493042,0 -0.986837,-0.1164755 -1.4282381,-0.3373643 C 9.1944845,2.7575729 8.5842131,2.6135805 7.9746956,2.6135805 H 6.6169454 L 5.4861152,2.2366371 H 4.4826919 L 3.7295589,3.2408143 C 3.4148112,3.6607293 3.0668924,4.0617971 2.6760021,4.4526874 2.5041158,4.6245736 2.409503,4.8530013 2.409503,5.0961298 c 0,0.5017117 0.4082298,0.9099417 0.9099415,0.9099417 0.2845923,0 0.552599,0.110821 0.7538868,0.312109 l 1.7305472,1.730547 c 0.3505574,0.350557 0.7535099,0.641181 1.1975492,0.863577 0.6355266,0.317387 1.3464419,0.48588 2.0566033,0.486634 l 0.3452801,0.287608 c 1.2307209,1.0252865 2.6005329,1.8651165 4.0721199,2.4957425 0.222019,0.09499 0.403706,0.266123 0.511512,0.482111 0.07049,0.1406 0.107806,0.298916 0.107806,0.456856 v 3.59717 c 0,0.354704 -0.05692,0.705639 -0.168871,1.042249 -0.137961,0.413507 -0.208073,0.844353 -0.208073,1.280477 v 0.692822 c 0,0.354704 -0.05692,0.705638 -0.16887,1.042248 -0.137962,0.413507 -0.208073,0.844354 -0.208073,1.280477 v 0.534883 c 0,0.623464 0.507366,1.13083 1.13083,1.13083 0.623464,0 1.13083,-0.507366 1.13083,-1.13083 v -0.534883 c 0,-0.354704 0.05692,-0.705638 0.168871,-1.042248 l 0.376943,-1.130831 c 0.137962,-0.413507 0.208073,-0.844353 0.208073,-1.280476 v -2.344588 c 0,-0.269138 0.03317,-0.538276 0.09838,-0.799497 l 0.46402,-1.856824 c 0.12703,-0.506612 0.191487,-1.029432 0.191487,-1.553384 v -0.186963 l 0.96309,-0.641935 2.062258,-2.3845445 c 0.23672,-0.275923 0.367143,-0.628365 0.367143,-0.992115 0,-0.286477 -0.08029,-0.566169 -0.231821,-0.808544 z m -2.785611,0.04373 0.650227,0.812313 -0.65362,0.817213 z M 14.966242,3.975477 c 0.193749,0.09122 0.40823,0.1458771 0.63628,0.1458771 0.123261,0 0.241244,-0.018847 0.355835,-0.047118 l -0.06333,0.126653 c -0.0916,0.1835714 -0.275922,0.2974083 -0.480979,0.2974083 -0.205058,0 -0.389383,-0.1138369 -0.48098,-0.2974083 l -0.03996,-0.079535 z M 14.848635,1.8596937 c 0,-0.4157686 0.338119,-0.7538869 0.753887,-0.7538869 0.415769,0 0.753887,0.3381183 0.753887,0.7538869 v 0.7538868 c 0,0.4157686 -0.338118,0.7538868 -0.753887,0.7538868 -0.415768,0 -0.753887,-0.3381182 -0.753887,-0.7538868 z m -0.644196,2.5700001 0.05428,0.1085597 c 0.220135,0.4402699 0.662667,0.7139309 1.155332,0.7139309 0.488895,0 0.928411,-0.2702685 1.150054,-0.7048842 l 0.664928,0.133061 c -0.322287,0.4809798 -0.49568,1.0460183 -0.49568,1.6381963 v 3.042687 l -0.28497,1.4244695 c -0.06106,0.305324 -0.09197,0.61781 -0.09197,0.929543 v 0.05616 C 15.239907,11.084249 14.318657,10.092511 13.717809,8.9251165 V 5.6291275 5.2521844 4.6543521 c 0,-0.1356996 -0.02111,-0.2668759 -0.0524,-0.3954136 0.03506,0.010177 0.07124,0.014701 0.105921,0.026009 z M 6.4948158,3.3674673 h 1.4798798 c 0.493042,0 0.9868379,0.1164755 1.4282386,0.3373643 0.5454374,0.2725301 1.1557088,0.4165225 1.7652258,0.4165225 h 1.59334 c 0.0098,0 0.01885,0.00226 0.02865,0.00226 0.111199,0.1537929 0.173771,0.3369874 0.173771,0.5307363 v 0.5978323 h -0.287984 c -0.493419,0 -0.987215,-0.1164756 -1.428238,-0.3373644 C 10.702258,4.6422899 10.091987,4.4982975 9.4824696,4.4982975 h -0.085567 c -0.3437724,0 -0.6833984,-0.055034 -1.0098314,-0.1639704 L 6.6169454,3.7444107 H 5.6580014 L 5.281058,2.9905239 h 0.082928 z M 9.3501621,7.1693185 5.9810419,5.3317194 C 5.6685558,5.161341 5.4638756,4.848101 5.4303276,4.4986745 H 6.4951927 L 8.1492204,5.0501427 C 8.551796,5.1839576 8.9720879,5.2521844 9.3969031,5.2521844 h 0.085567 c 0.4930419,0 0.9868379,0.1164755 1.4282389,0.3373641 0.545437,0.27253 1.155708,0.416523 1.765226,0.416523 h 0.287984 v 2.477272 z M 6.3368765,7.5157295 4.6063293,5.7851825 C 4.2629338,5.4414099 3.8057015,5.2521844 3.3194445,5.2521844 c -0.085943,0 -0.1560546,-0.070111 -0.1560546,-0.1560546 0,-0.041087 0.016586,-0.08142 0.065211,-0.1300455 0.3965447,-0.3961675 0.767834,-0.8247522 1.1040675,-1.2729379 l 0.2744148,-0.3656351 0.06408,0.1289146 v 0.939343 c 0,0.666436 0.3633734,1.2785916 0.9483896,1.5978636 l 3.3943754,1.851546 0.079158,0.02865 -0.1903564,0.761803 C 8.3614396,8.6126345 7.8235413,8.4803275 7.339169,8.2383305 6.9671259,8.0517435 6.6301385,7.8089915 6.3368765,7.5157295 Z m 9.0967755,12.1296625 -0.376944,1.13083 c -0.137961,0.413507 -0.208073,0.844354 -0.208073,1.280477 v 0.534883 c 0,0.208073 -0.16887,0.376943 -0.376943,0.376943 -0.208073,0 -0.376943,-0.16887 -0.376943,-0.376943 v -0.534883 c 0,-0.354704 0.05692,-0.705638 0.16887,-1.042248 0.137962,-0.413507 0.208073,-0.844354 0.208073,-1.280477 v -0.692822 c 0,-0.354704 0.05692,-0.705638 0.168871,-1.042249 0.07463,-0.223904 0.127784,-0.452709 0.162085,-0.684529 h 0.799874 v 1.28877 c 0,0.354703 -0.05692,0.705638 -0.16887,1.042248 z m 0.289869,-4.368774 c -0.08029,0.320779 -0.120999,0.651358 -0.120999,0.981938 v 0.301931 h -0.753887 v -3.439231 c 0,-0.274792 -0.06483,-0.549207 -0.18734,-0.79422 C 14.473577,11.9516 14.157698,11.654192 13.772085,11.489091 12.367971,10.887112 11.060355,10.08573 9.885799,9.1075615 l -0.2683837,-0.223527 0.1877178,-0.750495 3.2741299,1.19378 c 0.728632,1.3863985 1.868132,2.5405995 3.242467,3.2899625 -0.02714,0.270269 -0.06785,0.539029 -0.133815,0.802513 z m 3.839923,-6.9316125 -1.951813,2.2767385 -0.417277,0.278184 0.16774,-0.838322 1.738463,-2.1708175 -1.576377,-1.97066 c 0.06747,-0.369405 0.227674,-0.7143082 0.470048,-1.0053085 0.07388,0.056165 0.139469,0.1232605 0.189603,0.2031725 l 1.447839,2.316694 c 0.07652,0.122507 0.11723,0.263861 0.11723,0.408607 0,0.183571 -0.06596,0.361866 -0.185456,0.501712 z" />
<g
   id="g22">
</g>
<g
   id="g24">
</g>
<g
   id="g26">
</g>
<g
   id="g28">
</g>
<g
   id="g30">
</g>
<g
   id="g32">
</g>
<g
   id="g34">
</g>
<g
   id="g36">
</g>
<g
   id="g38">
</g>
<g
   id="g40">
</g>
<g
   id="g42">
</g>
<g
   id="g44">
</g>
<g
   id="g46">
</g>
<g
   id="g48">
</g>
<g
   id="g50">
</g>
</svg>
