<?xml version="1.0" encoding="UTF-8" standalone="no"?>
<!-- Generator: Adobe Illustrator 18.1.1, SVG Export Plug-In . SVG Version: 6.00 Build 0)  -->

<svg
   xmlns:dc="http://purl.org/dc/elements/1.1/"
   xmlns:cc="http://creativecommons.org/ns#"
   xmlns:rdf="http://www.w3.org/1999/02/22-rdf-syntax-ns#"
   xmlns:svg="http://www.w3.org/2000/svg"
   xmlns="http://www.w3.org/2000/svg"
   xmlns:sodipodi="http://sodipodi.sourceforge.net/DTD/sodipodi-0.dtd"
   xmlns:inkscape="http://www.inkscape.org/namespaces/inkscape"
   version="1.1"
   id="Capa_1"
   x="0px"
   y="0px"
   viewBox="0 0 15.379125 15.379125"
   xml:space="preserve"
   width="24"
   height="24"
   sodipodi:docname="activity.svg"
   inkscape:version="0.92.2 2405546, 2018-03-11"><metadata
   id="metadata49"><rdf:RDF><cc:Work
       rdf:about=""><dc:format>image/svg+xml</dc:format><dc:type
         rdf:resource="http://purl.org/dc/dcmitype/StillImage" /><dc:title></dc:title></cc:Work></rdf:RDF></metadata><defs
   id="defs47">
	

		
		
		
		
	</defs><sodipodi:namedview
   pagecolor="#ffffff"
   bordercolor="#666666"
   borderopacity="1"
   objecttolerance="10"
   gridtolerance="10"
   guidetolerance="10"
   inkscape:pageopacity="0"
   inkscape:pageshadow="2"
   inkscape:window-width="2560"
   inkscape:window-height="1347"
   id="namedview45"
   showgrid="false"
   inkscape:zoom="10.429825"
   inkscape:cx="28.289411"
   inkscape:cy="13.455422"
   inkscape:window-x="0"
   inkscape:window-y="0"
   inkscape:window-maximized="1"
   inkscape:current-layer="Capa_1" />

<g
   id="g14"
   transform="translate(0,-312.70887)">
</g>
<g
   id="g16"
   transform="translate(0,-312.70887)">
</g>
<g
   id="g18"
   transform="translate(0,-312.70887)">
</g>
<g
   id="g20"
   transform="translate(0,-312.70887)">
</g>
<g
   id="g22"
   transform="translate(0,-312.70887)">
</g>
<g
   id="g24"
   transform="translate(0,-312.70887)">
</g>
<g
   id="g26"
   transform="translate(0,-312.70887)">
</g>
<g
   id="g28"
   transform="translate(0,-312.70887)">
</g>
<g
   id="g30"
   transform="translate(0,-312.70887)">
</g>
<g
   id="g32"
   transform="translate(0,-312.70887)">
</g>
<g
   id="g34"
   transform="translate(0,-312.70887)">
</g>
<g
   id="g36"
   transform="translate(0,-312.70887)">
</g>
<g
   id="g38"
   transform="translate(0,-312.70887)">
</g>
<g
   id="g40"
   transform="translate(0,-312.70887)">
</g>
<g
   id="g42"
   transform="translate(0,-312.70887)">
</g>
<g
   transform="matrix(0.05200909,0,0,0.05200909,1.9459732,0.57040353)"
   id="g10"
   style="fill:#2780e3;fill-opacity:1"><path
     inkscape:connector-curvature="0"
     d="m 200.022,4.395 c -1.99,-3.943 -6.802,-5.526 -10.746,-3.534 -24.889,12.559 -39.803,26.336 -48.435,39.332 -8.647,12.979 -10.803,25.042 -10.78,33.271 0.002,2.682 0.219,4.956 0.492,6.77 L 25.349,203.626 c -4.432,5.197 -3.808,13 1.387,17.43 5.195,4.43 13,3.811 17.431,-1.387 l 54.227,-63.6 c 0.025,5.643 3.884,10.747 9.617,12.101 v -0.002 l 49.886,11.772 19.376,38.311 c 2.2,4.352 6.599,6.861 11.164,6.862 1.897,0 3.823,-0.434 5.632,-1.349 6.16,-3.114 8.628,-10.634 5.514,-16.794 l -22.002,-43.502 c -0.113,-0.223 -0.247,-0.431 -0.371,-0.645 0.726,-1.274 1.52,-2.692 2.333,-4.192 1.468,-2.708 2.995,-5.661 4.302,-8.529 1.304,-2.913 2.412,-5.567 3.035,-8.53 0.625,-3.131 0.91,-6.135 0.91,-8.985 0.006,-10.17 -3.617,-18.143 -7.179,-23.391 -2.594,-3.827 -5.147,-6.317 -6.537,-7.542 -0.152,-0.153 -0.308,-0.306 -0.475,-0.448 l -27.2,-23.191 c -0.174,-1.108 -0.338,-2.65 -0.337,-4.551 0.023,-5.594 1.323,-14.169 8.106,-24.419 6.8,-10.23 19.297,-22.273 42.319,-33.905 3.944,-1.99 5.528,-6.801 3.535,-10.745 z m -58.251,146.055 26.408,-30.973 c 1.927,3.252 3.605,7.557 3.611,13.11 0,1.791 -0.178,3.729 -0.599,5.846 -0.086,0.567 -0.831,2.723 -1.907,5.036 -1.61,3.543 -3.909,7.796 -5.775,11.083 -0.178,0.313 -0.347,0.609 -0.516,0.905 z"
     id="path2"
     style="fill:#2780e3;fill-opacity:1" /><circle
     r="22.5"
     transform="matrix(0.6488,-0.761,0.761,0.6488,11.0852,158.4484)"
     cx="177.19501"
     cy="67.214996"
     id="ellipse4"
     style="fill:#2780e3;fill-opacity:1" /><g
     id="g8"
     style="fill:#2780e3;fill-opacity:1"><path
       inkscape:connector-curvature="0"
       d="m 223.707,243.029 c -0.656,-0.412 -4.699,1.285 -4.705,0.564 -0.004,-0.719 2.893,-0.736 2.887,-1.455 -0.002,-0.44 -1.24,-0.104 -1.494,-0.475 -0.24,-0.354 0.25,-0.725 -0.164,-0.98 -0.379,-0.232 -0.533,-0.346 -1.016,-0.469 -0.443,-0.111 -0.672,0.863 -1.172,0.867 -0.727,0.002 -0.752,-3.652 -1.479,-3.648 -0.727,0.004 -0.734,-1.094 -1.461,-1.09 -0.727,0.004 -0.688,5.539 -1.414,5.545 -0.725,0.002 -0.736,-1.676 -1.461,-1.672 -0.725,0.004 -0.725,0.182 -1.449,0.186 -0.725,0.004 -0.719,0.842 -1.443,0.846 -0.723,0.006 -0.752,-4.162 -1.477,-4.158 -0.725,0.004 -0.727,-0.381 -1.451,-0.377 -0.723,0.004 -0.701,2.953 -1.424,2.959 -0.723,0.004 -0.732,-1.475 -1.455,-1.47 -0.725,0.005 -0.73,-0.956 -1.455,-0.952 -0.725,0.004 -0.711,1.967 -1.434,1.971 -0.725,0.004 -0.744,-2.789 -1.469,-2.785 -0.723,0.004 -0.715,0.971 -1.439,0.973 -0.723,0.006 -0.701,3.225 -1.426,3.231 -0.723,0.004 -0.748,-3.478 -1.471,-3.475 -0.723,0.006 -0.717,0.721 -1.439,0.725 -0.725,0.004 -0.707,2.307 -1.432,2.31 -0.723,0.004 -0.752,-4.066 -1.475,-4.063 -0.723,0.006 -0.707,2.07 -1.43,2.074 -0.723,0.004 -0.697,3.627 -1.42,3.633 -0.723,0.002 -0.736,-1.941 -1.459,-1.938 -0.723,0.004 -0.74,-2.52 -1.463,-2.516 -0.723,0.004 -0.717,1.111 -1.439,1.115 -0.721,0.004 -0.705,2.227 -1.426,2.23 -0.721,0.004 -0.73,-1.391 -1.453,-1.387 -0.721,0.004 -0.713,1.17 -1.434,1.174 -0.721,0.004 -0.734,-1.869 -1.455,-1.865 -0.723,0.006 -0.729,-0.996 -1.451,-0.992 -0.725,0.006 -0.697,3.721 -1.422,3.725 -0.721,0.004 -0.748,-3.635 -1.469,-3.631 -0.721,0.004 -0.705,2.279 -1.428,2.283 -0.719,0.004 -0.742,-3.24 -1.461,-3.236 -0.721,0.006 -0.699,2.861 -1.42,2.865 -0.719,0.004 -0.711,1.174 -1.43,1.178 -0.723,0.004 -0.727,-0.721 -1.449,-0.717 -0.723,0.004 -0.715,1.086 -1.438,1.09 -0.721,0.004 -0.73,-1.166 -1.451,-1.162 -0.723,0.004 -0.736,-2.102 -1.459,-2.1 -0.723,0.006 -0.693,4.279 -1.416,4.283 -0.723,0.006 -0.734,-1.625 -1.457,-1.621 -0.723,0.004 -0.732,-1.664 -1.455,-1.658 -0.723,0.004 -0.715,0.953 -1.438,0.959 -0.721,0.002 -0.736,-2.123 -1.457,-2.119 -0.723,0.004 -0.691,4.476 -1.414,4.481 -0.721,0.003 -0.717,0.554 -1.438,0.558 -0.723,0.004 -0.754,-4.408 -1.476,-4.404 -0.723,0.004 -0.732,-1.348 -1.455,-1.344 -0.721,0.004 -0.701,3.072 -1.422,3.076 -0.723,0.006 -0.713,1.492 -1.434,1.496 -0.721,0.004 -0.74,-2.717 -1.461,-2.713 -0.723,0.004 -0.719,0.342 -1.441,0.346 -0.721,0.004 -0.695,3.465 -1.418,3.469 -0.721,0.004 -0.734,-1.961 -1.455,-1.957 -0.723,0.004 -0.742,-2.924 -1.465,-2.92 -0.721,0.004 -0.721,0.09 -1.443,0.094 -0.721,0.004 -0.699,3.238 -1.422,3.242 -0.723,0.004 -0.75,-4.014 -1.473,-4.01 -0.721,0.004 -0.705,2.369 -1.426,2.373 -0.723,0.004 -0.717,0.736 -1.438,0.74 -0.723,0.004 -0.736,-1.992 -1.457,-1.988 -0.721,0.004 -0.727,-0.744 -1.447,-0.74 -0.721,0.004 -0.727,-1.033 -1.447,-1.029 -0.721,0.004 -0.688,4.883 -1.408,4.887 -0.721,0.004 -0.73,-1.346 -1.451,-1.341 -0.721,0.005 -0.734,-1.972 -1.455,-1.968 -0.721,0.004 -0.695,3.563 -1.418,3.566 -0.721,0.004 -0.732,-1.863 -1.455,-1.859 -0.721,0.004 -0.699,3.105 -1.42,3.109 -0.723,0.004 -0.766,-6.355 -1.488,-6.351 -0.723,0.003 -0.684,5.471 -1.406,5.475 -0.723,0.004 -0.723,-0.129 -1.445,-0.125 -0.721,0.004 -0.738,-2.529 -1.459,-2.525 -0.723,0.004 -0.742,-2.859 -1.463,-2.855 -0.721,0.004 -0.717,0.498 -1.438,0.5 -0.721,0.006 -0.693,3.877 -1.414,3.881 -0.721,0.004 -0.713,0.934 -1.432,0.939 -0.721,0.004 -0.729,-1.076 -1.449,-1.072 -0.719,0.006 -0.744,-3.479 -1.463,-3.475 -0.721,0.004 -0.709,1.66 -1.43,1.666 -0.719,0.004 -0.717,0.313 -1.438,0.316 -0.719,0.004 -0.711,1.291 -1.43,1.295 -0.721,0.004 -0.732,-1.549 -1.451,-1.545 -0.721,0.004 -0.732,-1.68 -1.453,-1.674 -0.721,0.002 -0.691,4.074 -1.412,4.078 -0.721,0.004 -0.742,-3.174 -1.463,-3.17 -0.723,0.004 -0.721,0.244 -1.441,0.248 -0.723,0.004 -0.734,-1.726 -1.457,-1.723 -0.721,0.004 -0.711,1.225 -1.434,1.229 -0.721,0.004 -0.689,4.598 -1.412,4.604 -0.721,0.004 -0.732,-1.637 -1.453,-1.635 -0.721,0.006 -0.73,-1.277 -1.451,-1.273 -0.719,0.004 -0.713,0.9 -1.434,0.906 -0.719,0.004 -0.719,0.086 -1.439,0.092 -0.719,0.004 -0.715,0.514 -1.436,0.52 -0.719,0.002 -0.707,1.811 -1.426,1.813 -0.719,0.006 -0.728,-1.277 -1.447,-1.273 -0.719,0.004 -0.727,-1.199 -1.447,-1.195 -0.719,0.004 -0.738,-3.064 -1.457,-3.06 -0.721,0.004 -0.703,2.504 -1.422,2.508 -0.719,0.004 -0.728,-1.383 -1.447,-1.379 -0.719,0.004 -0.707,1.662 -1.426,1.665 -0.719,0.005 -0.701,2.683 -1.42,2.686 -0.719,0.004 -0.74,-3.16 -1.459,-3.156 -0.719,0.006 -0.693,3.463 -1.412,3.467 -0.719,0.004 -0.756,-5.19 -1.475,-5.184 -0.719,0.004 -0.695,3.566 -1.414,3.57 -0.719,0.004 -0.711,1.27 -1.43,1.273 -0.719,0.004 -0.75,-4.416 -1.469,-4.412 -0.721,0.004 -0.711,1.318 -1.432,1.324 -0.719,0.004 -0.707,1.709 -1.428,1.713 -0.719,0.004 -0.721,-0.2 -1.441,-0.195 -0.721,0.004 -0.752,-4.561 -1.473,-4.555 -0.721,0.002 -0.717,0.531 -1.438,0.535 -0.723,0.004 -0.721,0.07 -1.443,0.074 -0.721,0.006 -0.688,4.877 -1.408,4.883 -0.721,0.002 -0.738,-2.58 -1.459,-2.576 -0.721,0.006 -0.707,1.973 -1.428,1.979 -0.719,0.004 -0.715,0.783 -1.436,0.787 -0.719,0.004 -0.715,0.637 -1.434,0.641 -0.721,0.004 -0.727,-1.018 -1.445,-1.012 -0.719,0.002 -0.754,-4.707 -1.473,-4.703 -0.719,0.004 -0.686,4.725 -1.404,4.729 -0.719,0.004 -0.754,-5.148 -1.473,-5.145 -0.719,0.004 -0.699,2.805 -1.418,2.809 -0.717,0.004 -0.699,2.621 -1.418,2.625 -0.721,0.004 -0.721,-0.355 -1.441,-0.35 -0.721,0.002 -0.754,-4.697 -1.475,-4.693 -0.721,0.006 -0.723,-0.453 -1.443,-0.448 -0.721,0.003 -0.709,1.895 -1.43,1.899 -0.721,0.004 -0.732,-1.662 -1.453,-1.658 -0.721,0.006 -0.705,2.316 -1.426,2.322 -0.721,0.004 -0.725,-0.645 -1.446,-0.641 -0.722,0.004 -0.712,1.41 -1.433,1.414 -0.721,0.004 -0.723,-0.258 -1.444,-0.254 -0.721,0.004 -0.711,1.426 -1.432,1.43 -0.721,0.004 -0.731,-1.477 -1.452,-1.473 -0.72,0.004 -0.717,0.48 -1.438,0.484 -0.72,0.004 -0.708,1.758 -1.429,1.764 -0.72,0.002 -0.714,0.82 -1.435,0.824 -0.72,0.004 -0.744,-3.42 -1.465,-3.416 -0.72,0.004 -0.706,2.041 -1.426,2.045 -0.721,0.004 -0.726,-0.721 -1.445,-0.715 -0.721,0.004 -0.744,-3.432 -1.465,-3.428 -0.72,0.004 -0.691,4.082 -1.411,4.086 -0.72,0.006 -0.716,0.563 -1.437,0.566 -0.721,0.003 -0.754,-4.789 -1.475,-4.787 -0.72,0.006 -0.688,4.477 -1.408,4.48 -0.72,0.004 -3.91,1.264 -3.91,4.383 0,3.119 -2.558,33.75 2.352,33.75 4.91,0 218.38,0 218.38,0 2.217,-10e-4 3.901,-36.089 2.317,-37.085 z"
       id="path6"
       style="fill:#2780e3;fill-opacity:1" /></g></g></svg>