<svg id="Layer_6" enable-background="new 0 0 64 64" height="512" viewBox="0 0 64 64" width="512" xmlns="http://www.w3.org/2000/svg"><g><g><g><path d="m45 50.99v11h-18-1v-4-8.47c0-1.35-.34-2.54-.92-3.56-1.47-2.53-4.49-3.97-7.72-3.97h7.64v-4c.62-.31 1.15-.67 1.6-1.06l.4.06s1 3 6 3 6-3 6-3l.31-.04c1.03.94 2.52 1.73 4.69 2.04l.15.09c-.55 1-1.25 2.01-2.15 2.91-1 1-.32 1.03 0 1 1.83-.13 5.54-.19 7 2 1.18 1.78 2.72 2.15 3.78 2.16l-6.78 4.84-.37.2c-.21-.38-.42-.78-.63-1.2z" fill="#75b1f2"/></g><g><path d="m47 9.99v8l-.1.12c-1.19-1.12-2.9-1.12-2.9-1.12v-4h-13s-2-2-5-2-4 2-4 2v4s-1.71 0-2.9 1.12l-.1-.12v-8s0-8 14-8 14 8 14 8z" fill="#656d78"/></g><g><path d="m55 28.81v1.18h-1c-1 0-1.65 1.2-1 2l2.16 2.88-.16.12s0 2-4 2c-3.95 0-1.07-5.86-3.9-5.99.87-2.03 2.23-4.45 3.9-5.01 3-1 5 1 5 1l.09.17c-.6.33-1.09 1.02-1.09 1.65z" fill="#ffeaa7"/></g><g><path d="m56 35.99-2.07 11.02c-.16.05-.59.14-1.15.14-1.06-.01-2.6-.38-3.78-2.16-1.46-2.19-5.17-2.13-7-2-.32.03-1 0 0-1 .9-.9 1.6-1.91 2.15-2.91 1.44-2.6 1.85-5.09 1.85-5.09s.39-1.37 1.1-2.99c2.83.13-.05 5.99 3.9 5.99 4 0 4-2 4-2l.16-.12z" fill="#fcd770"/></g><g><path d="m25 37.99v4h-7.64-7.62-6.74v-7h22z" fill="#fcd770"/></g><g><path d="m26 57.99v4h-24v-4h12z" fill="#ccd1d9"/></g><g><path d="m17.36 41.99c3.23 0 6.25 1.44 7.72 3.97l-.04.03h-11.04-11.04l-.18-.09c1.21-2.5 3.75-3.91 6.96-3.91z" fill="#ccd1d9"/></g><g><path d="m26 49.52v8.47h-12c3.31 0 6-2.68 6-6 0-3.31-2.69-6-6-6h11.04l.04-.03c.58 1.02.92 2.21.92 3.56z" fill="#e6e9ed"/></g><g><path d="m2.96 45.99h11.04c-3.31 0-6 2.69-6 6 0 3.32 2.69 6 6 6h-12v-8.47c0-1.38.27-2.59.78-3.62z" fill="#e6e9ed"/></g><g><circle cx="14" cy="51.99" fill="#ff826e" r="6"/></g><g><path d="m57 26.99 2.01.81c.6.12.88.59.99 1.19.49 2.82 2 11.25 2 21 0 12-7 11-7 11s-4.59 0-9.37-8.8l.37-.2 6.78-4.84c.56 0 .99-.09 1.15-.14l2.07-11.02-.84-1.12-2.16-2.88c-.65-.8 0-2 1-2h1v-1.18c0-.63.49-1.32 1.09-1.65.29-.16.61-.23.91-.17z" fill="#f0d0b4"/></g><g><path d="m43.7 24.91c.3-1.12.3-1.92.3-1.92v-6s1.71 0 2.9 1.12c.62.59 1.1 1.5 1.1 2.88 0 4-4 4-4 4z" fill="#f0d0b4"/></g><g><path d="m39.31 36.95-.31.04s-1 3-6 3-6-3-6-3l-.4-.06c2.4-2.09 2.4-4.94 2.4-4.94l.12-.46c1.11.3 2.4.46 3.88.46 1.5 0 2.79-.17 3.91-.46l.12.46c0 .07.01 2.88 2.28 4.96z" fill="#f0d0b4"/></g><g><path d="m22 24.99s-4 0-4-4c0-1.38.48-2.29 1.1-2.88 1.19-1.12 2.9-1.12 2.9-1.12v6s0 .8.3 1.92z" fill="#f0d0b4"/></g><g><path d="m31 12.99h13v4 6s0 .8-.3 1.92c-.54 2.13-2.14 5.43-6.79 6.62-1.12.29-2.41.46-3.91.46-1.48 0-2.77-.16-3.88-.46-4.67-1.18-6.28-4.48-6.82-6.62-.3-1.12-.3-1.92-.3-1.92v-6-4s1-2 4-2 5 2 5 2z" fill="#f0d0b4"/></g><g><path d="m58.12 14.87c1.17 1.17 1.17 3.07 0 4.24-1.17 1.18-3.07 1.18-4.24 0-1.17-1.17-1.17-3.07 0-4.24s3.07-1.17 4.24 0z" fill="#b4dd7f"/></g><g><circle cx="9" cy="13.99" fill="#b4dd7f" r="4"/></g><g><circle cx="13.5" cy="27.49" fill="#b4dd7f" r="2.5"/></g></g><g><path d="m15 48.994h-2v2h-2v2h2v2h2v-2h2v-2h-2z"/><path d="m61.005 28.936-.021-.116c-.247-1.399-1.114-1.843-1.675-1.982l-1.939-.773-.174-.052c-.258-.052-.526-.038-.794.009-.755-.6-2.855-1.929-5.719-.977-3.402 1.134-5.426 7.906-5.645 8.674l-.025.114c-.005.029-.331 1.932-1.375 4.073-4.861-.938-5.51-4.667-5.591-5.666 3.898-1.314 5.613-4.093 6.364-6.267 1.788-.153 4.59-1.318 4.59-4.98 0-1.384-.405-2.406-1-3.157v-7.842c0-.368-.17-9-15-9s-15 8.632-15 9v7.843c-.595.751-1 1.773-1 3.157 0 3.662 2.801 4.827 4.59 4.98.753 2.179 2.474 4.967 6.392 6.276-.066.65-.393 2.439-1.983 3.866v-2.122h-24v9h1.809c-1.773 1.502-2.809 3.767-2.809 6.529v13.471h26 19v-8.204c4.292 6.683 8.293 7.168 8.922 7.201.083.009.239.021.454.021.846 0 2.588-.196 4.208-1.602 2.267-1.965 3.416-5.47 3.416-10.416 0-9.711-1.501-18.251-1.995-21.058zm-9.689-1.994c1.436-.478 2.576-.109 3.263.264-.361.49-.58 1.057-.58 1.6v.187c-.871 0-1.65.497-2.035 1.297-.372.774-.275 1.667.235 2.303l1.789 2.385c-.091.373-.803 1.015-2.989 1.015-1.024 0-1.248-.381-1.404-2.399-.076-.981-.199-2.435-1.151-3.157.828-1.675 1.849-3.153 2.872-3.495zm-4.34 7.275c.135-.465.306-.987.508-1.532.043.252.082.59.119 1.063.123 1.588.328 4.246 3.397 4.246 1.881 0 3.052-.417 3.784-.94l-1.706 9.099c-.792.064-2.172-.102-3.246-1.713-1.1-1.65-3.244-2.487-6.428-2.496 2.683-3.165 3.471-7.153 3.572-7.727zm-2.054-10.355c.072-.522.078-.851.078-.868v-4.844c.89.262 2 .963 2 2.844 0 1.936-1.178 2.625-2.078 2.868zm-25.922-2.868c0-1.881 1.11-2.582 2-2.844v4.844c0 .018.006.346.078.868-.901-.244-2.078-.933-2.078-2.868zm4 2v-9.71c.287-.387 1.155-1.29 3-1.29 2.526 0 4.278 1.693 4.293 1.707l1.414-1.414c-.094-.094-2.332-2.293-5.707-2.293-3.577 0-4.842 2.449-4.895 2.553l-.105.211v3.34c-.323.063-.661.157-1 .29v-6.386c.005-.286.267-7.008 13-7.008s12.995 6.722 13 7v6.394c-.339-.133-.677-.227-1-.29v-3.104h-2v10c0 .327-.114 8-10 8-9.829 0-9.998-7.677-10-8zm10 10c1.139 0 2.169-.093 3.102-.258.136.95.552 2.653 1.821 4.19-.36.597-1.585 2.068-4.923 2.068-3.43 0-4.619-1.53-4.945-2.103 1.322-1.526 1.744-3.204 1.879-4.148.923.161 1.942.251 3.066.251zm-29 8v-5h20v5h-6.64-7.624zm13.36 2c2.085 0 4.18.68 5.649 2h-18.426c1.168-1.28 2.933-2 5.153-2zm-13.954 4h5.704c-1.3 1.272-2.11 3.042-2.11 5s.81 3.728 2.11 5h-6.11v-7.471c0-.93.143-1.774.406-2.529zm5.594 5c0-2.757 2.243-5 5-5s5 2.243 5 5-2.243 5-5 5-5-2.244-5-5zm12 0c0-1.958-.81-3.728-2.11-5h5.583c.331.744.527 1.584.527 2.529v7.471h-6.11c1.3-1.272 2.11-3.042 2.11-5zm-18 9v-2h22v2zm41 0h-17v-11.471c0-2.678-1.262-4.989-3.31-6.529h2.31v-4.417c.191-.112.371-.229.544-.349.762 1.093 2.564 2.765 6.456 2.765 3.807 0 5.609-1.598 6.4-2.691.834.597 1.877 1.099 3.177 1.426-.374.542-.796 1.071-1.283 1.558-.304.304-1.11 1.11-.712 1.983.136.299.511.789 1.49.722 3.161-.225 5.269.314 6.097 1.557.669 1.004 1.464 1.648 2.27 2.047l-4.43 3.164c-.003-.005-.005-.009-.007-.014v-4.752h-2v15.001zm14.308-2.124c-1.498 1.325-3.108 1.141-3.167 1.134l-.124-.01c-.041-.001-3.857-.244-8.047-7.464l5.671-4.051-.625 3.331 1.966.368 3.081-16.432-3.283-4.376c-.02-.025-.072-.09-.013-.212.013-.027.086-.164.232-.164h2v-2.187c0-.159.149-.445.398-.649.152-.125.285-.175.361-.184l1.882.75.174.052c.041.008.136.027.2.39l.021.116c.486 2.764 1.965 11.176 1.965 20.712 0 4.251-.931 7.32-2.692 8.876z"/><path d="m4.833 16.747-1.54 1.54 1.414 1.414 1.54-1.54c.524.347 1.116.602 1.753.732v2.101h2v-2.101c.637-.13 1.229-.384 1.753-.732l1.54 1.54 1.414-1.414-1.54-1.54c.348-.524.602-1.116.732-1.753h2.101v-2h-2.101c-.13-.637-.384-1.229-.732-1.753l1.54-1.54-1.414-1.414-1.54 1.54c-.524-.348-1.116-.602-1.753-.732v-2.101h-2v2.101c-.637.13-1.229.384-1.753.732l-1.54-1.54-1.414 1.414 1.54 1.54c-.348.524-.602 1.116-.732 1.753h-2.101v2h2.101c.13.637.384 1.228.732 1.753zm4.167-5.753c1.654 0 3 1.346 3 3s-1.346 3-3 3-3-1.346-3-3 1.346-3 3-3z"/><path d="m13.5 23.994c-1.93 0-3.5 1.57-3.5 3.5s1.57 3.5 3.5 3.5 3.5-1.57 3.5-3.5-1.57-3.5-3.5-3.5zm0 5c-.827 0-1.5-.673-1.5-1.5s.673-1.5 1.5-1.5 1.5.673 1.5 1.5-.673 1.5-1.5 1.5z"/><path d="m35.105 13.441 1.789-.895c-1.172-2.343-4.44-3.455-4.578-3.501l-.633 1.897c.726.242 2.754 1.162 3.422 2.499z"/><path d="m40.105 13.441 1.789-.895c-1.172-2.343-4.44-3.455-4.578-3.501l-.633 1.897c.726.242 2.754 1.162 3.422 2.499z"/><path d="m30.414 18.994-3.707-3.707-1.414 1.414 2.293 2.293-2.293 2.293 1.414 1.414z"/><path d="m39.293 15.287-3.707 3.707 3.707 3.707 1.414-1.414-2.293-2.293 2.293-2.293z"/><path d="m35.207 26.701c.248-.248.662-.662.776-.708.359.046 1.46.86 2.311 1.708l1.414-1.415c-.689-.689-2.431-2.293-3.707-2.293-.914 0-1.601.687-2.207 1.293-.248.248-.662.662-.75.711-.174-.05-.588-.464-.835-.711-.606-.606-1.293-1.293-2.207-1.293-1.276 0-3.018 1.604-3.707 2.293l1.414 1.415c.851-.849 1.952-1.663 2.251-1.712.174.05.588.464.835.711.606.606 1.293 1.293 2.207 1.293s1.599-.686 2.205-1.292z"/><path d="m52.464 21.943 1.514-1.514c.608.359 1.296.565 2.021.565s1.413-.206 2.021-.565l1.514 1.514 1.414-1.414-1.514-1.514c.36-.608.566-1.297.566-2.021s-.206-1.413-.565-2.022l1.514-1.514-1.414-1.414-1.515 1.515c-1.246-.732-2.795-.732-4.042 0l-1.515-1.515-1.414 1.414 1.514 1.514c-.357.608-.563 1.297-.563 2.022s.206 1.413.565 2.021l-1.514 1.514zm4.95-6.364c.378.378.586.88.586 1.415s-.208 1.036-.586 1.414c-.756.756-2.072.756-2.828 0-.378-.378-.586-.88-.586-1.414s.208-1.037.586-1.415c.39-.39.902-.584 1.414-.584s1.024.194 1.414.584z"/></g></g></svg>