<?xml version="1.0" encoding="UTF-8" standalone="no"?>
<!-- Generator: Adobe Illustrator 19.1.0, SVG Export Plug-In . SVG Version: 6.00 Build 0)  -->

<svg
   xmlns:dc="http://purl.org/dc/elements/1.1/"
   xmlns:cc="http://creativecommons.org/ns#"
   xmlns:rdf="http://www.w3.org/1999/02/22-rdf-syntax-ns#"
   xmlns:svg="http://www.w3.org/2000/svg"
   xmlns="http://www.w3.org/2000/svg"
   xmlns:sodipodi="http://sodipodi.sourceforge.net/DTD/sodipodi-0.dtd"
   xmlns:inkscape="http://www.inkscape.org/namespaces/inkscape"
   version="1.1"
   id="Capa_1"
   x="0px"
   y="0px"
   viewBox="0 0 488.9 488.9"
   style="enable-background:new 0 0 488.9 488.9;"
   xml:space="preserve"
   width="512px"
   height="512px"
   sodipodi:docname="allergy.svg"
   inkscape:version="0.92.2 2405546, 2018-03-11"><metadata
   id="metadata45"><rdf:RDF><cc:Work
       rdf:about=""><dc:format>image/svg+xml</dc:format><dc:type
         rdf:resource="http://purl.org/dc/dcmitype/StillImage" /></cc:Work></rdf:RDF></metadata><defs
   id="defs43" /><sodipodi:namedview
   pagecolor="#ffffff"
   bordercolor="#666666"
   borderopacity="1"
   objecttolerance="10"
   gridtolerance="10"
   guidetolerance="10"
   inkscape:pageopacity="0"
   inkscape:pageshadow="2"
   inkscape:window-width="2560"
   inkscape:window-height="1347"
   id="namedview41"
   showgrid="false"
   inkscape:zoom="0.92187498"
   inkscape:cx="956.69856"
   inkscape:cy="216.6082"
   inkscape:window-x="0"
   inkscape:window-y="0"
   inkscape:window-maximized="1"
   inkscape:current-layer="Capa_1" />

<g
   id="g10">
</g>
<g
   id="g12">
</g>
<g
   id="g14">
</g>
<g
   id="g16">
</g>
<g
   id="g18">
</g>
<g
   id="g20">
</g>
<g
   id="g22">
</g>
<g
   id="g24">
</g>
<g
   id="g26">
</g>
<g
   id="g28">
</g>
<g
   id="g30">
</g>
<g
   id="g32">
</g>
<g
   id="g34">
</g>
<g
   id="g36">
</g>
<g
   id="g38">
</g>
<g
   id="g851"><path
     style="fill:#2780e3;fill-opacity:1;stroke-width:3.83842278"
     id="path2"
     d="m 274.92376,192.22851 c 5.41601,-12.4173 7.66917,-17.44564 6.3334,-36.05814 C 279.08844,125.91976 266.34487,99.373222 250.65341,81.482334 211.04089,36.319443 105.05052,37.271372 59.258159,77.006727 36.761162,96.521276 13.074256,127.08664 12.264349,165.95066 c -1.02486,49.12031 20.942435,80.84103 41.117184,111.60598 6.460066,9.84172 15.215508,21.74851 16.781585,33.56317 3.26266,24.66571 -0.310912,44.80975 -10.651622,60.41678 -7.246943,10.93951 -30.146974,29.03383 -13.050638,29.03383 H 202.70766 c -8.07603,-14.88924 -10.92798,-39.43212 0.29941,-39.40524 16.62804,0.47979 28.48108,4.49095 45.06307,1.98061 12.52095,-1.90002 20.25152,-5.34692 22.65821,-16.78158 2.81357,-13.39226 -4.60993,-15.18096 -3.35861,-21.82143 1.71961,-9.16233 7.35826,-13.71085 10.21405,-24.3356 3.88064,-14.44399 -3.25499,-23.18024 2.86344,-26.13582 8.07605,-5.06672 15.11572,-4.75197 22.15924,-11.62658 11.65345,-10.91648 -34.01228,-54.0066 -27.68271,-70.21627 z"
     inkscape:connector-curvature="0" /><path
     style="fill:#2780e3;fill-opacity:1;stroke-width:6.52559805"
     id="path4-3"
     d="m 312.26019,341.13801 c -8.56157,0 -15.52439,6.94977 -15.52439,15.53094 0,8.56157 6.9563,15.53092 15.52439,15.53092 8.56811,0 15.53094,-6.96935 15.53094,-15.53092 0,-8.58117 -6.9563,-15.53094 -15.53094,-15.53094 z"
     inkscape:connector-curvature="0" /><circle
     r="15.524397"
     style="fill:#2780e3;fill-opacity:1;stroke-width:6.52559805"
     id="circle6"
     cy="304.10501"
     cx="312.26038" /><circle
     r="15.524397"
     style="fill:#2780e3;fill-opacity:1;stroke-width:6.52559805"
     id="circle8"
     cy="275.43808"
     cx="383.93094" /><circle
     r="15.524397"
     style="fill:#2780e3;fill-opacity:1;stroke-width:6.52559805"
     id="circle10"
     cy="351.87241"
     cx="366.00519" /><circle
     r="15.524397"
     style="fill:#2780e3;fill-opacity:1;stroke-width:6.52559805"
     id="circle12"
     cy="417.56564"
     cx="373.17032" /><circle
     r="15.524397"
     style="fill:#2780e3;fill-opacity:1;stroke-width:6.52559805"
     id="circle14"
     cy="402.04129"
     cx="444.83438" /><circle
     r="15.530924"
     style="fill:#2780e3;fill-opacity:1;stroke-width:6.52559805"
     id="circle16"
     cy="323.21198"
     cx="444.83438" /></g></svg>