<?xml version="1.0" encoding="UTF-8" standalone="no"?>
<svg
   xmlns:dc="http://purl.org/dc/elements/1.1/"
   xmlns:cc="http://creativecommons.org/ns#"
   xmlns:rdf="http://www.w3.org/1999/02/22-rdf-syntax-ns#"
   xmlns:svg="http://www.w3.org/2000/svg"
   xmlns="http://www.w3.org/2000/svg"
   xmlns:sodipodi="http://sodipodi.sourceforge.net/DTD/sodipodi-0.dtd"
   xmlns:inkscape="http://www.inkscape.org/namespaces/inkscape"
   inkscape:version="1.0 (4035a4fb49, 2020-05-01)"
   sodipodi:docname="allergy.svg"
   version="1.1"
   width="24"
   viewBox="0 0 3 3"
   height="24"
   enable-background="new 0 0 64 64"
   id="Layer_6">
  <metadata
     id="metadata105">
    <rdf:RDF>
      <cc:Work
         rdf:about="">
        <dc:format>image/svg+xml</dc:format>
        <dc:type
           rdf:resource="http://purl.org/dc/dcmitype/StillImage" />
        <dc:title></dc:title>
      </cc:Work>
    </rdf:RDF>
  </metadata>
  <defs
     id="defs103" />
  <sodipodi:namedview
     inkscape:current-layer="Layer_6"
     inkscape:window-maximized="1"
     inkscape:window-y="0"
     inkscape:window-x="0"
     inkscape:cy="13.748314"
     inkscape:cx="28.125533"
     inkscape:zoom="15.75"
     showgrid="false"
     id="namedview101"
     inkscape:window-height="1417"
     inkscape:window-width="2560"
     inkscape:pageshadow="2"
     inkscape:pageopacity="0"
     guidetolerance="10"
     gridtolerance="10"
     objecttolerance="10"
     borderopacity="1"
     bordercolor="#666666"
     pagecolor="#ffffff" />
  <g
     transform="matrix(0.04751104,0,0,0.04751104,-0.01706343,-0.00913811)"
     id="g98">
    <g
       id="g74">
      <g
         id="g4">
        <path
           id="path2"
           fill="#75b1f2"
           d="m 45,50.99 v 11 H 27 26 v -4 -8.47 c 0,-1.35 -0.34,-2.54 -0.92,-3.56 -1.47,-2.53 -4.49,-3.97 -7.72,-3.97 H 25 v -4 c 0.62,-0.31 1.15,-0.67 1.6,-1.06 l 0.4,0.06 c 0,0 1,3 6,3 5,0 6,-3 6,-3 l 0.31,-0.04 c 1.03,0.94 2.52,1.73 4.69,2.04 l 0.15,0.09 c -0.55,1 -1.25,2.01 -2.15,2.91 -1,1 -0.32,1.03 0,1 1.83,-0.13 5.54,-0.19 7,2 1.18,1.78 2.72,2.15 3.78,2.16 L 46,51.99 45.63,52.19 C 45.42,51.81 45.21,51.41 45,50.99 Z" />
      </g>
      <g
         id="g8">
        <path
           id="path6"
           fill="#656d78"
           d="m 47,9.99 v 8 l -0.1,0.12 C 45.71,16.99 44,16.99 44,16.99 v -4 H 31 c 0,0 -2,-2 -5,-2 -3,0 -4,2 -4,2 v 4 c 0,0 -1.71,0 -2.9,1.12 L 19,17.99 v -8 c 0,0 0,-8 14,-8 14,0 14,8 14,8 z" />
      </g>
      <g
         id="g12">
        <path
           id="path10"
           fill="#ffeaa7"
           d="m 55,28.81 v 1.18 h -1 c -1,0 -1.65,1.2 -1,2 l 2.16,2.88 -0.16,0.12 c 0,0 0,2 -4,2 -3.95,0 -1.07,-5.86 -3.9,-5.99 0.87,-2.03 2.23,-4.45 3.9,-5.01 3,-1 5,1 5,1 l 0.09,0.17 C 55.49,27.49 55,28.18 55,28.81 Z" />
      </g>
      <g
         id="g16">
        <path
           id="path14"
           fill="#fcd770"
           d="m 56,35.99 -2.07,11.02 c -0.16,0.05 -0.59,0.14 -1.15,0.14 -1.06,-0.01 -2.6,-0.38 -3.78,-2.16 -1.46,-2.19 -5.17,-2.13 -7,-2 -0.32,0.03 -1,0 0,-1 0.9,-0.9 1.6,-1.91 2.15,-2.91 1.44,-2.6 1.85,-5.09 1.85,-5.09 0,0 0.39,-1.37 1.1,-2.99 2.83,0.13 -0.05,5.99 3.9,5.99 4,0 4,-2 4,-2 l 0.16,-0.12 z" />
      </g>
      <g
         id="g20">
        <path
           id="path18"
           fill="#fcd770"
           d="m 25,37.99 v 4 H 17.36 9.74 3 v -7 h 22 z" />
      </g>
      <g
         id="g24">
        <path
           id="path22"
           fill="#ccd1d9"
           d="m 26,57.99 v 4 H 2 v -4 h 12 z" />
      </g>
      <g
         id="g28">
        <path
           id="path26"
           fill="#ccd1d9"
           d="m 17.36,41.99 c 3.23,0 6.25,1.44 7.72,3.97 l -0.04,0.03 H 14 2.96 L 2.78,45.9 c 1.21,-2.5 3.75,-3.91 6.96,-3.91 z" />
      </g>
      <g
         id="g32">
        <path
           id="path30"
           fill="#e6e9ed"
           d="m 26,49.52 v 8.47 H 14 c 3.31,0 6,-2.68 6,-6 0,-3.31 -2.69,-6 -6,-6 h 11.04 l 0.04,-0.03 c 0.58,1.02 0.92,2.21 0.92,3.56 z" />
      </g>
      <g
         id="g36">
        <path
           id="path34"
           fill="#e6e9ed"
           d="M 2.96,45.99 H 14 c -3.31,0 -6,2.69 -6,6 0,3.32 2.69,6 6,6 H 2 V 49.52 C 2,48.14 2.27,46.93 2.78,45.9 Z" />
      </g>
      <g
         id="g40">
        <circle
           id="circle38"
           r="6"
           fill="#ff826e"
           cy="51.990002"
           cx="14" />
      </g>
      <g
         id="g44">
        <path
           id="path42"
           fill="#f0d0b4"
           d="m 57,26.99 2.01,0.81 c 0.6,0.12 0.88,0.59 0.99,1.19 0.49,2.82 2,11.25 2,21 0,12 -7,11 -7,11 0,0 -4.59,0 -9.37,-8.8 l 0.37,-0.2 6.78,-4.84 c 0.56,0 0.99,-0.09 1.15,-0.14 L 56,35.99 55.16,34.87 53,31.99 c -0.65,-0.8 0,-2 1,-2 h 1 v -1.18 c 0,-0.63 0.49,-1.32 1.09,-1.65 C 56.38,27 56.7,26.93 57,26.99 Z" />
      </g>
      <g
         id="g48">
        <path
           id="path46"
           fill="#f0d0b4"
           d="M 43.7,24.91 C 44,23.79 44,22.99 44,22.99 v -6 c 0,0 1.71,0 2.9,1.12 0.62,0.59 1.1,1.5 1.1,2.88 0,4 -4,4 -4,4 z" />
      </g>
      <g
         id="g52">
        <path
           id="path50"
           fill="#f0d0b4"
           d="M 39.31,36.95 39,36.99 c 0,0 -1,3 -6,3 -5,0 -6,-3 -6,-3 L 26.6,36.93 C 29,34.84 29,31.99 29,31.99 l 0.12,-0.46 c 1.11,0.3 2.4,0.46 3.88,0.46 1.5,0 2.79,-0.17 3.91,-0.46 l 0.12,0.46 c 0,0.07 0.01,2.88 2.28,4.96 z" />
      </g>
      <g
         id="g56">
        <path
           id="path54"
           fill="#f0d0b4"
           d="m 22,24.99 c 0,0 -4,0 -4,-4 0,-1.38 0.48,-2.29 1.1,-2.88 1.19,-1.12 2.9,-1.12 2.9,-1.12 v 6 c 0,0 0,0.8 0.3,1.92 z" />
      </g>
      <g
         id="g60">
        <path
           id="path58"
           fill="#f0d0b4"
           d="m 31,12.99 h 13 v 4 6 c 0,0 0,0.8 -0.3,1.92 -0.54,2.13 -2.14,5.43 -6.79,6.62 -1.12,0.29 -2.41,0.46 -3.91,0.46 -1.48,0 -2.77,-0.16 -3.88,-0.46 C 24.45,30.35 22.84,27.05 22.3,24.91 22,23.79 22,22.99 22,22.99 v -6 -4 c 0,0 1,-2 4,-2 3,0 5,2 5,2 z" />
      </g>
      <g
         id="g64">
        <path
           id="path62"
           fill="#b4dd7f"
           d="m 58.12,14.87 c 1.17,1.17 1.17,3.07 0,4.24 -1.17,1.18 -3.07,1.18 -4.24,0 -1.17,-1.17 -1.17,-3.07 0,-4.24 1.17,-1.17 3.07,-1.17 4.24,0 z" />
      </g>
      <g
         id="g68">
        <circle
           id="circle66"
           r="4"
           fill="#b4dd7f"
           cy="13.99"
           cx="9" />
      </g>
      <g
         id="g72">
        <circle
           id="circle70"
           r="2.5"
           fill="#b4dd7f"
           cy="27.49"
           cx="13.5" />
      </g>
    </g>
    <g
       id="g96">
      <path
         id="path76"
         d="m 15,48.994 h -2 v 2 h -2 v 2 h 2 v 2 h 2 v -2 h 2 v -2 h -2 z" />
      <path
         id="path78"
         d="M 61.005,28.936 60.984,28.82 C 60.737,27.421 59.87,26.977 59.309,26.838 L 57.37,26.065 57.196,26.013 c -0.258,-0.052 -0.526,-0.038 -0.794,0.009 -0.755,-0.6 -2.855,-1.929 -5.719,-0.977 -3.402,1.134 -5.426,7.906 -5.645,8.674 l -0.025,0.114 c -0.005,0.029 -0.331,1.932 -1.375,4.073 -4.861,-0.938 -5.51,-4.667 -5.591,-5.666 3.898,-1.314 5.613,-4.093 6.364,-6.267 1.788,-0.153 4.59,-1.318 4.59,-4.98 0,-1.384 -0.405,-2.406 -1,-3.157 V 9.994 c 0,-0.368 -0.17,-9 -15,-9 -14.83,0 -15,8.632 -15,9 v 7.843 c -0.595,0.751 -1,1.773 -1,3.157 0,3.662 2.801,4.827 4.59,4.98 0.753,2.179 2.474,4.967 6.392,6.276 C 27.917,32.9 27.59,34.689 26,36.116 V 33.994 H 2 v 9 H 3.809 C 2.036,44.496 1,46.761 1,49.523 V 62.994 H 27 46 V 54.79 c 4.292,6.683 8.293,7.168 8.922,7.201 0.083,0.009 0.239,0.021 0.454,0.021 0.846,0 2.588,-0.196 4.208,-1.602 C 61.851,58.445 63,54.94 63,49.994 63,40.283 61.499,31.743 61.005,28.936 Z m -9.689,-1.994 c 1.436,-0.478 2.576,-0.109 3.263,0.264 -0.361,0.49 -0.58,1.057 -0.58,1.6 v 0.187 c -0.871,0 -1.65,0.497 -2.035,1.297 -0.372,0.774 -0.275,1.667 0.235,2.303 l 1.789,2.385 c -0.091,0.373 -0.803,1.015 -2.989,1.015 -1.024,0 -1.248,-0.381 -1.404,-2.399 -0.076,-0.981 -0.199,-2.435 -1.151,-3.157 0.828,-1.675 1.849,-3.153 2.872,-3.495 z m -4.34,7.275 c 0.135,-0.465 0.306,-0.987 0.508,-1.532 0.043,0.252 0.082,0.59 0.119,1.063 0.123,1.588 0.328,4.246 3.397,4.246 1.881,0 3.052,-0.417 3.784,-0.94 l -1.706,9.099 c -0.792,0.064 -2.172,-0.102 -3.246,-1.713 -1.1,-1.65 -3.244,-2.487 -6.428,-2.496 2.683,-3.165 3.471,-7.153 3.572,-7.727 z M 44.922,23.862 C 44.994,23.34 45,23.011 45,22.994 V 18.15 c 0.89,0.262 2,0.963 2,2.844 0,1.936 -1.178,2.625 -2.078,2.868 z M 19,20.994 c 0,-1.881 1.11,-2.582 2,-2.844 v 4.844 c 0,0.018 0.006,0.346 0.078,0.868 C 20.177,23.618 19,22.929 19,20.994 Z m 4,2 v -9.71 c 0.287,-0.387 1.155,-1.29 3,-1.29 2.526,0 4.278,1.693 4.293,1.707 l 1.414,-1.414 C 31.613,12.193 29.375,9.994 26,9.994 c -3.577,0 -4.842,2.449 -4.895,2.553 L 21,12.758 v 3.34 c -0.323,0.063 -0.661,0.157 -1,0.29 v -6.386 c 0.005,-0.286 0.267,-7.008 13,-7.008 12.733,0 12.995,6.722 13,7 v 6.394 c -0.339,-0.133 -0.677,-0.227 -1,-0.29 v -3.104 h -2 v 10 c 0,0.327 -0.114,8 -10,8 -9.829,0 -9.998,-7.677 -10,-8 z m 10,10 c 1.139,0 2.169,-0.093 3.102,-0.258 0.136,0.95 0.552,2.653 1.821,4.19 -0.36,0.597 -1.585,2.068 -4.923,2.068 -3.43,0 -4.619,-1.53 -4.945,-2.103 1.322,-1.526 1.744,-3.204 1.879,-4.148 0.923,0.161 1.942,0.251 3.066,0.251 z m -29,8 v -5 h 20 v 5 H 17.36 9.736 Z m 13.36,2 c 2.085,0 4.18,0.68 5.649,2 H 4.583 c 1.168,-1.28 2.933,-2 5.153,-2 z m -13.954,4 H 9.11 c -1.3,1.272 -2.11,3.042 -2.11,5 0,1.958 0.81,3.728 2.11,5 H 3 v -7.471 c 0,-0.93 0.143,-1.774 0.406,-2.529 z m 5.594,5 c 0,-2.757 2.243,-5 5,-5 2.757,0 5,2.243 5,5 0,2.757 -2.243,5 -5,5 -2.757,0 -5,-2.244 -5,-5 z m 12,0 c 0,-1.958 -0.81,-3.728 -2.11,-5 h 5.583 C 24.804,47.738 25,48.578 25,49.523 v 7.471 h -6.11 c 1.3,-1.272 2.11,-3.042 2.11,-5 z m -18,9 v -2 h 22 v 2 z m 41,0 H 27 V 49.523 c 0,-2.678 -1.262,-4.989 -3.31,-6.529 H 26 v -4.417 c 0.191,-0.112 0.371,-0.229 0.544,-0.349 0.762,1.093 2.564,2.765 6.456,2.765 3.807,0 5.609,-1.598 6.4,-2.691 0.834,0.597 1.877,1.099 3.177,1.426 -0.374,0.542 -0.796,1.071 -1.283,1.558 -0.304,0.304 -1.11,1.11 -0.712,1.983 0.136,0.299 0.511,0.789 1.49,0.722 3.161,-0.225 5.269,0.314 6.097,1.557 0.669,1.004 1.464,1.648 2.27,2.047 l -4.43,3.164 C 46.006,50.754 46.004,50.75 46.002,50.745 v -4.752 h -2 V 60.994 Z M 58.308,58.87 c -1.498,1.325 -3.108,1.141 -3.167,1.134 l -0.124,-0.01 C 54.976,59.993 51.16,59.75 46.97,52.53 l 5.671,-4.051 -0.625,3.331 1.966,0.368 3.081,-16.432 -3.283,-4.376 c -0.02,-0.025 -0.072,-0.09 -0.013,-0.212 0.013,-0.027 0.086,-0.164 0.232,-0.164 h 2 v -2.187 c 0,-0.159 0.149,-0.445 0.398,-0.649 0.152,-0.125 0.285,-0.175 0.361,-0.184 l 1.882,0.75 0.174,0.052 c 0.041,0.008 0.136,0.027 0.2,0.39 l 0.021,0.116 C 59.521,32.046 61,40.458 61,49.994 c 0,4.251 -0.931,7.32 -2.692,8.876 z" />
      <path
         id="path80"
         d="m 4.833,16.747 -1.54,1.54 1.414,1.414 1.54,-1.54 C 6.771,18.508 7.363,18.763 8,18.893 v 2.101 h 2 v -2.101 c 0.637,-0.13 1.229,-0.384 1.753,-0.732 l 1.54,1.54 1.414,-1.414 -1.54,-1.54 c 0.348,-0.524 0.602,-1.116 0.732,-1.753 H 16 v -2 h -2.101 c -0.13,-0.637 -0.384,-1.229 -0.732,-1.753 l 1.54,-1.54 -1.414,-1.414 -1.54,1.54 C 11.229,9.479 10.637,9.225 10,9.095 V 6.994 H 8 V 9.095 C 7.363,9.225 6.771,9.479 6.247,9.827 l -1.54,-1.54 -1.414,1.414 1.54,1.54 C 4.485,11.765 4.231,12.357 4.101,12.994 H 2 v 2 h 2.101 c 0.13,0.637 0.384,1.228 0.732,1.753 z M 9,10.994 c 1.654,0 3,1.346 3,3 0,1.654 -1.346,3 -3,3 -1.654,0 -3,-1.346 -3,-3 0,-1.654 1.346,-3 3,-3 z" />
      <path
         id="path82"
         d="m 13.5,23.994 c -1.93,0 -3.5,1.57 -3.5,3.5 0,1.93 1.57,3.5 3.5,3.5 1.93,0 3.5,-1.57 3.5,-3.5 0,-1.93 -1.57,-3.5 -3.5,-3.5 z m 0,5 c -0.827,0 -1.5,-0.673 -1.5,-1.5 0,-0.827 0.673,-1.5 1.5,-1.5 0.827,0 1.5,0.673 1.5,1.5 0,0.827 -0.673,1.5 -1.5,1.5 z" />
      <path
         id="path84"
         d="m 35.105,13.441 1.789,-0.895 C 35.722,10.203 32.454,9.091 32.316,9.045 l -0.633,1.897 c 0.726,0.242 2.754,1.162 3.422,2.499 z" />
      <path
         id="path86"
         d="m 40.105,13.441 1.789,-0.895 C 40.722,10.203 37.454,9.091 37.316,9.045 l -0.633,1.897 c 0.726,0.242 2.754,1.162 3.422,2.499 z" />
      <path
         id="path88"
         d="m 30.414,18.994 -3.707,-3.707 -1.414,1.414 2.293,2.293 -2.293,2.293 1.414,1.414 z" />
      <path
         id="path90"
         d="m 39.293,15.287 -3.707,3.707 3.707,3.707 1.414,-1.414 -2.293,-2.293 2.293,-2.293 z" />
      <path
         id="path92"
         d="m 35.207,26.701 c 0.248,-0.248 0.662,-0.662 0.776,-0.708 0.359,0.046 1.46,0.86 2.311,1.708 l 1.414,-1.415 c -0.689,-0.689 -2.431,-2.293 -3.707,-2.293 -0.914,0 -1.601,0.687 -2.207,1.293 -0.248,0.248 -0.662,0.662 -0.75,0.711 -0.174,-0.05 -0.588,-0.464 -0.835,-0.711 -0.606,-0.606 -1.293,-1.293 -2.207,-1.293 -1.276,0 -3.018,1.604 -3.707,2.293 l 1.414,1.415 c 0.851,-0.849 1.952,-1.663 2.251,-1.712 0.174,0.05 0.588,0.464 0.835,0.711 0.606,0.606 1.293,1.293 2.207,1.293 0.914,0 1.599,-0.686 2.205,-1.292 z" />
      <path
         id="path94"
         d="m 52.464,21.943 1.514,-1.514 c 0.608,0.359 1.296,0.565 2.021,0.565 0.725,0 1.413,-0.206 2.021,-0.565 l 1.514,1.514 1.414,-1.414 -1.514,-1.514 C 59.794,18.407 60,17.718 60,16.994 60,16.27 59.794,15.581 59.435,14.972 l 1.514,-1.514 -1.414,-1.414 -1.515,1.515 c -1.246,-0.732 -2.795,-0.732 -4.042,0 l -1.515,-1.515 -1.414,1.414 1.514,1.514 C 52.206,15.58 52,16.269 52,16.994 c 0,0.725 0.206,1.413 0.565,2.021 l -1.514,1.514 z m 4.95,-6.364 c 0.378,0.378 0.586,0.88 0.586,1.415 0,0.535 -0.208,1.036 -0.586,1.414 -0.756,0.756 -2.072,0.756 -2.828,0 C 54.208,18.03 54,17.528 54,16.994 c 0,-0.534 0.208,-1.037 0.586,-1.415 0.39,-0.39 0.902,-0.584 1.414,-0.584 0.512,0 1.024,0.194 1.414,0.584 z" />
    </g>
  </g>
</svg>
