<svg id="Layer_5" enable-background="new 0 0 64 64" height="512" viewBox="0 0 64 64" width="512" xmlns="http://www.w3.org/2000/svg"><g><g><g><path d="m62 28v32c0 1.1-.9 2-2 2h-46c.61 0 1.17-.35 1.45-.89l4.55-9.11v-20-4z" fill="#e6e9ed"/></g><g><path d="m62 22v6h-42v-3.6c.91-.53 1.75-1.17 2.49-1.91s1.38-1.58 1.91-2.49h35.6c1.1 0 2 .9 2 2z" fill="#b4dd7f"/></g><g><path d="m26 42h8v6h-8z" fill="#b4dd7f"/></g><g><path d="m38 32h8v6h-8z" fill="#fcd770"/></g><g><path d="m26 32h8v6h-8z" fill="#ff826e"/></g><g><path d="m38 52h8v6h-8z" fill="#fcd770"/></g><g><path d="m50 32h8v6h-8z" fill="#ff826e"/></g><g><path d="m38 42h8v6h-8z" fill="#ff826e"/></g><g><path d="m26 52h8v6h-8z" fill="#b4dd7f"/></g><g><path d="m8 32h12v20h-12z" fill="#fcd770"/></g><g><path d="m20 28v4h-12v-7.6c1.76 1.02 3.81 1.6 6 1.6s4.24-.58 6-1.6z" fill="#aab2bd"/></g><g><path d="m20 52-4.55 9.11c-.28.54-.84.89-1.45.89s-1.17-.35-1.45-.89l-4.55-9.11z" fill="#aab2bd"/></g><g><path d="m26 14c0 2.18-.58 4.23-1.6 6-.53.91-1.17 1.75-1.91 2.49s-1.58 1.38-2.49 1.91c-1.76 1.02-3.81 1.6-6 1.6s-4.24-.58-6-1.6c-.91-.53-1.75-1.17-2.49-1.91-2.17-2.17-3.51-5.17-3.51-8.49s1.34-6.32 3.51-8.49 5.17-3.51 8.49-3.51 6.32 1.34 8.49 3.51 3.51 5.17 3.51 8.49z" fill="#69d6f4"/></g><g><path d="m14 12c1.1 0 2 .9 2 2s-.9 2-2 2-2-.9-2-2c0-.55.22-1.05.59-1.41.36-.37.86-.59 1.41-.59z" fill="#e6e9ed"/></g></g><g><path d="m15 16.816c1.161-.414 2-1.514 2-2.816 0-1.654-1.346-3-3-3-.462 0-.894.113-1.285.301l-3.008-3.008-1.414 1.414 3.008 3.008c-.188.391-.301.823-.301 1.285 0 1.302.839 2.402 2 2.816v2.184h2zm-1-3.816c.552 0 1 .448 1 1s-.448 1-1 1-1-.448-1-1 .448-1 1-1z"/><path d="m13 35h2v2h-2z"/><path d="m13 47h2v2h-2z"/><path d="m13 43h2v2h-2z"/><path d="m13 39h2v2h-2z"/><path d="m60 19h-34.003c.644-1.54 1.003-3.229 1.003-5 0-7.168-5.832-13-13-13s-13 5.832-13 13c0 4.59 2.398 8.623 6 10.937v27.299l4.658 9.317c.447.892 1.345 1.447 2.342 1.447h46c1.654 0 3-1.346 3-3v-38c0-1.654-1.346-3-3-3zm0 2c.552 0 1 .448 1 1v5h-40v-2.063c1.579-1.014 2.922-2.358 3.937-3.937zm-41 30h-10v-18h10zm-6-28v1.949c-2.283-.207-4.366-1.111-6.034-2.501l1.377-1.377-1.414-1.414-1.377 1.377c-1.391-1.668-2.294-3.751-2.501-6.034h1.949v-2h-1.949c.207-2.283 1.111-4.366 2.501-6.034l1.377 1.377 1.414-1.414-1.377-1.377c1.668-1.391 3.751-2.294 6.034-2.501v1.949h2v-1.949c2.283.207 4.366 1.111 6.034 2.501l-1.377 1.377 1.414 1.414 1.377-1.377c1.391 1.667 2.294 3.751 2.501 6.034h-1.949v2h1.949c-.207 2.283-1.111 4.366-2.501 6.034l-1.377-1.377-1.414 1.414 1.377 1.377c-1.667 1.391-3.751 2.294-6.034 2.501v-1.949zm1 4c1.771 0 3.46-.359 5-1.003v5.003h-10v-5.003c1.54.644 3.229 1.003 5 1.003zm-.553 33.658-3.829-7.658h8.764l-3.829 7.657c-.211.424-.895.423-1.106.001zm46.553.342h-43.382l4.382-8.764v-23.236h40v31c0 .552-.448 1-1 1z"/><path d="m25 39h10v-8h-10zm2-6h6v4h-6z"/><path d="m37 39h10v-8h-10zm2-6h6v4h-6z"/><path d="m25 49h10v-8h-10zm2-6h6v4h-6z"/><path d="m37 49h10v-8h-10zm2-6h6v4h-6z"/><path d="m25 59h10v-8h-10zm2-6h6v4h-6z"/><path d="m37 59h10v-8h-10zm2-6h6v4h-6z"/><path d="m59 31h-10v8h10zm-2 6h-6v-4h6z"/><path d="m53 45.586-1.293-1.293-1.414 1.414 2.707 2.707 6.707-6.707-1.414-1.414z"/><path d="m53 56.586-1.293-1.293-1.414 1.414 2.707 2.707 6.707-6.707-1.414-1.414z"/></g></g></svg>