<?xml version="1.0" encoding="UTF-8" standalone="no"?>
<!-- Created with Inkscape (http://www.inkscape.org/) -->

<svg
   xmlns:dc="http://purl.org/dc/elements/1.1/"
   xmlns:cc="http://creativecommons.org/ns#"
   xmlns:rdf="http://www.w3.org/1999/02/22-rdf-syntax-ns#"
   xmlns:svg="http://www.w3.org/2000/svg"
   xmlns="http://www.w3.org/2000/svg"
   xmlns:sodipodi="http://sodipodi.sourceforge.net/DTD/sodipodi-0.dtd"
   xmlns:inkscape="http://www.inkscape.org/namespaces/inkscape"
   width="48px"
   height="48px"
   viewBox="0 0 48 48"
   id="svg4198"
   sodipodi:version="0.32"
   inkscape:version="0.92.2 2405546, 2018-03-11"
   sodipodi:docname="appointment.svg"
   inkscape:output_extension="org.inkscape.output.svg.inkscape"
   version="1.1">
  <defs
     id="defs4200">
    <inkscape:perspective
       sodipodi:type="inkscape:persp3d"
       inkscape:vp_x="0 : 24 : 1"
       inkscape:vp_y="0 : 1000 : 0"
       inkscape:vp_z="48 : 24 : 1"
       inkscape:persp3d-origin="24 : 16 : 1"
       id="perspective45" />
    <linearGradient
       id="linearGradient15218">
      <stop
         style="stop-color:#f0f0ef;stop-opacity:1.0000000;"
         offset="0.0000000"
         id="stop15220" />
      <stop
         id="stop2269"
         offset="0.59928656"
         style="stop-color:#e8e8e8;stop-opacity:1;" />
      <stop
         id="stop2267"
         offset="0.82758623"
         style="stop-color:#ffffff;stop-opacity:1;" />
      <stop
         style="stop-color:#d8d8d3;stop-opacity:1.0000000;"
         offset="1.0000000"
         id="stop15222" />
    </linearGradient>
    <linearGradient
       id="linearGradient2224">
      <stop
         style="stop-color:#7c7c7c;stop-opacity:1;"
         offset="0"
         id="stop2226" />
      <stop
         style="stop-color:#b8b8b8;stop-opacity:1;"
         offset="1"
         id="stop2228" />
    </linearGradient>
  </defs>
  <sodipodi:namedview
     id="base"
     pagecolor="#ffffff"
     bordercolor="#bebebe"
     borderopacity="1.0000000"
     inkscape:pageopacity="0.0"
     inkscape:pageshadow="2"
     inkscape:zoom="11.313709"
     inkscape:cx="5.3116281"
     inkscape:cy="19.822731"
     inkscape:current-layer="layer1"
     showgrid="false"
     inkscape:grid-bbox="true"
     inkscape:document-units="px"
     inkscape:window-width="2560"
     inkscape:window-height="1347"
     inkscape:window-x="0"
     inkscape:window-y="0"
     inkscape:showpageshadow="false"
     inkscape:window-maximized="1" />
  <metadata
     id="metadata4203">
    <rdf:RDF>
      <cc:Work
         rdf:about="">
        <dc:format>image/svg+xml</dc:format>
        <dc:type
           rdf:resource="http://purl.org/dc/dcmitype/StillImage" />
        <dc:title>Edit Copy</dc:title>
        <dc:date>2005-10-15</dc:date>
        <dc:creator>
          <cc:Agent>
            <dc:title>Andreas Nilsson</dc:title>
          </cc:Agent>
        </dc:creator>
        <dc:subject>
          <rdf:Bag>
            <rdf:li>edit</rdf:li>
            <rdf:li>copy</rdf:li>
          </rdf:Bag>
        </dc:subject>
        <cc:license
           rdf:resource="http://creativecommons.org/licenses/publicdomain/" />
        <dc:contributor>
          <cc:Agent>
            <dc:title>Jakub Steiner</dc:title>
          </cc:Agent>
        </dc:contributor>
      </cc:Work>
      <cc:License
         rdf:about="http://creativecommons.org/licenses/publicdomain/">
        <cc:permits
           rdf:resource="http://creativecommons.org/ns#Reproduction" />
        <cc:permits
           rdf:resource="http://creativecommons.org/ns#Distribution" />
        <cc:permits
           rdf:resource="http://creativecommons.org/ns#DerivativeWorks" />
      </cc:License>
    </rdf:RDF>
  </metadata>
  <g
     id="layer1"
     inkscape:label="Layer 1"
     inkscape:groupmode="layer">
    <g
       transform="matrix(0.9379401,0,0,0.9379401,1.5376737,0.78489558)"
       id="g12"
       style="fill:#2780e3;fill-opacity:1">
      <path
         inkscape:connector-curvature="0"
         d="m 28.9,39.4 c 0.9,0 1.5,-0.4 1.9,-1.2 0.5,-0.9 0.7,-2.1 0.7,-3.7 0,-1.5 -0.2,-2.7 -0.7,-3.7 -0.4,-0.8 -1,-1.2 -1.9,-1.2 -0.9,0 -1.5,0.4 -1.9,1.2 -0.5,0.9 -0.7,2.1 -0.7,3.7 0,1.5 0.2,2.7 0.7,3.7 0.4,0.9 1,1.2 1.9,1.2 z"
         id="path2-3"
         style="fill:#2780e3;fill-opacity:1" />
      <path
         inkscape:connector-curvature="0"
         d="m 0.7,43.2 c 0,2.4 2,4.3 4.4,4.3 H 43 c 2.4,0 4.4,-1.9 4.4,-4.3 V 18.9 H 0.7 Z M 23.5,28.3 c 1.2,-1.6 3,-2.5 5.4,-2.5 2.4,0 4.2,0.8 5.4,2.5 1.2,1.6 1.7,3.7 1.7,6.3 0,2.6 -0.6,4.7 -1.7,6.3 -1.2,1.6 -3,2.5 -5.4,2.5 -2.4,0 -4.2,-0.8 -5.4,-2.5 -1.2,-1.6 -1.7,-3.7 -1.7,-6.3 0,-2.6 0.6,-4.8 1.7,-6.3 z M 12,26.2 h 7.5 v 17 H 15 v -13 h -3 z"
         id="path4-6"
         style="fill:#2780e3;fill-opacity:1" />
      <path
         inkscape:connector-curvature="0"
         d="M 14.1,7.6 C 15.2,7.6 16,6.9 16,6.1 V 2 c 0,-0.8 -0.9,-1.5 -1.9,-1.5 -1,0 -1.9,0.7 -1.9,1.5 v 4.1 c 0,0.8 0.8,1.5 1.9,1.5 z"
         id="path6-7"
         style="fill:#2780e3;fill-opacity:1" />
      <path
         inkscape:connector-curvature="0"
         d="m 33.9,7.9 c 1.1,0 1.9,-0.7 1.9,-1.5 V 2.3 C 35.8,1.5 34.9,0.8 33.9,0.8 32.8,0.8 32,1.5 32,2.3 v 4.1 c -0.1,0.8 0.8,1.5 1.9,1.5 z"
         id="path8"
         style="fill:#2780e3;fill-opacity:1" />
      <path
         inkscape:connector-curvature="0"
         d="m 42.9,3.8 h -3.2 v 2.6 c 0,3 -2.6,5.4 -5.8,5.4 C 30.7,11.8 28,9.4 28,6.4 V 3.8 h -8 v 2.3 c 0,3 -2.6,5.4 -5.8,5.4 C 11,11.5 8.3,9.1 8.3,6.1 V 3.8 H 5.1 C 2.7,3.8 0.7,5.7 0.7,8.1 V 15 H 47.4 V 8.1 C 47.3,5.7 45.4,3.8 42.9,3.8 Z"
         id="path10"
         style="fill:#2780e3;fill-opacity:1" />
    </g>
  </g>
</svg>
