<?xml version="1.0" encoding="iso-8859-1"?>
<!-- Generator: Adobe Illustrator 19.0.0, SVG Export Plug-In . SVG Version: 6.00 Build 0)  -->
<svg version="1.1" id="Capa_1" xmlns="http://www.w3.org/2000/svg" xmlns:xlink="http://www.w3.org/1999/xlink" x="0px" y="0px"
	 viewBox="0 0 512 512" style="enable-background:new 0 0 512 512;" xml:space="preserve">
<path style="fill:#95ADC0;" d="M64,394.667c-29.455,0-53.333,23.878-53.333,53.333V64c0-29.455,23.878-53.333,53.333-53.333h10.667
	v384H64z"/>
<g>
	<path style="fill:#F2F2F2;" d="M138.667,160h234.667v42.667H138.667V160z"/>
	<path style="fill:#F2F2F2;" d="M138.667,74.667h234.667V128H138.667V74.667z"/>
</g>
<path style="fill:#D9EEF7;" d="M437.333,448v53.333H64c-29.455,0-53.333-23.878-53.333-53.333S34.545,394.667,64,394.667h373.333
	V448z"/>
<path style="fill:#AAC4DA;" d="M138.667,160v42.667h234.667V160H138.667z M373.333,128V74.667H138.667V128H373.333z M437.333,10.667
	v384H74.667v-384H437.333z"/>
<path style="fill:#F2F2F2;" d="M448,362.667V384c0,5.891-4.776,10.667-10.667,10.667h-42.667v42.667
	c0,5.891-4.776,10.667-10.667,10.667h-21.333c-5.891,0-10.667-4.776-10.667-10.667v-42.667h-42.667
	c-5.891,0-10.667-4.776-10.667-10.667v-21.333c0-5.891,4.776-10.667,10.667-10.667H352v-42.667c0-5.891,4.776-10.667,10.667-10.667
	H384c5.891,0,10.667,4.776,10.667,10.667V352h42.667C443.224,352,448,356.776,448,362.667z"/>
<path style="fill:#FF7260;" d="M373.333,245.333c70.692,0,128,57.308,128,128s-57.308,128-128,128s-128-57.308-128-128
	S302.641,245.333,373.333,245.333z M448,384v-21.333c0-5.891-4.776-10.667-10.667-10.667h-42.667v-42.667
	c0-5.891-4.776-10.667-10.667-10.667h-21.333c-5.891,0-10.667,4.776-10.667,10.667V352h-42.667c-5.891,0-10.667,4.776-10.667,10.667
	V384c0,5.891,4.776,10.667,10.667,10.667H352v42.667c0,5.891,4.776,10.667,10.667,10.667H384c5.891,0,10.667-4.776,10.667-10.667
	v-42.667h42.667C443.224,394.667,448,389.891,448,384z"/>
<g>
	<path style="fill:#4C5B66;" d="M373.333,234.667c-76.583,0-138.667,62.083-138.667,138.667S296.75,512,373.333,512
		S512,449.917,512,373.333C511.912,296.786,449.88,234.755,373.333,234.667z M373.333,490.667
		C308.532,490.667,256,438.135,256,373.333S308.532,256,373.333,256s117.333,52.532,117.333,117.333
		C490.59,438.103,438.103,490.59,373.333,490.667z"/>
	<path style="fill:#4C5B66;" d="M437.333,341.333h-32v-32c0-11.782-9.551-21.333-21.333-21.333h-21.333
		c-11.782,0-21.333,9.551-21.333,21.333v32h-32c-11.782,0-21.333,9.551-21.333,21.333V384c0,11.782,9.551,21.333,21.333,21.333h32
		v32c0,11.782,9.551,21.333,21.333,21.333H384c11.782,0,21.333-9.551,21.333-21.333v-32h32c11.782,0,21.333-9.551,21.333-21.333
		v-21.333C458.667,350.885,449.115,341.333,437.333,341.333z M437.333,384h-42.667c-5.891,0-10.667,4.776-10.667,10.667v42.667
		h-21.333v-42.667c0-5.891-4.776-10.667-10.667-10.667h-42.667v-21.333H352c5.891,0,10.667-4.776,10.667-10.667v-42.667H384V352
		c0,5.891,4.776,10.667,10.667,10.667h42.667V384z"/>
	<path style="fill:#4C5B66;" d="M21.333,448c0-23.564,19.103-42.667,42.667-42.667h138.667V384H85.333V21.333h341.333v192H448
		V10.667C448,4.776,443.224,0,437.333,0H64C28.668,0.035,0.035,28.668,0,64v384c0.035,35.332,28.668,63.965,64,64h192v-21.333H64
		C40.436,490.667,21.333,471.564,21.333,448z M64,21.333V384c-15.765,0.004-30.969,5.858-42.667,16.427V64
		C21.333,40.436,40.436,21.333,64,21.333z"/>
	<path style="fill:#4C5B66;" d="M384,128V74.667C384,68.776,379.224,64,373.333,64H138.667C132.776,64,128,68.776,128,74.667V128
		h21.333V85.333h213.333V128H384z"/>
	<path style="fill:#4C5B66;" d="M320,170.667v-21.333H128v53.333c0,5.891,4.776,10.667,10.667,10.667H320V192H149.333v-21.333H320z"
		/>
	<path style="fill:#4C5B66;" d="M128,245.333h21.333v21.333H128V245.333z"/>
	<path style="fill:#4C5B66;" d="M170.667,245.333H192v21.333h-21.333V245.333z"/>
	<path style="fill:#4C5B66;" d="M138.667,437.333h64v21.333h-64V437.333z"/>
	<path style="fill:#4C5B66;" d="M96,437.333h21.333v21.333H96V437.333z"/>
</g>
<g>
</g>
<g>
</g>
<g>
</g>
<g>
</g>
<g>
</g>
<g>
</g>
<g>
</g>
<g>
</g>
<g>
</g>
<g>
</g>
<g>
</g>
<g>
</g>
<g>
</g>
<g>
</g>
<g>
</g>
</svg>
