<?xml version="1.0" encoding="UTF-8" standalone="no"?>
<svg
   xmlns:dc="http://purl.org/dc/elements/1.1/"
   xmlns:cc="http://creativecommons.org/ns#"
   xmlns:rdf="http://www.w3.org/1999/02/22-rdf-syntax-ns#"
   xmlns:svg="http://www.w3.org/2000/svg"
   xmlns="http://www.w3.org/2000/svg"
   xmlns:sodipodi="http://sodipodi.sourceforge.net/DTD/sodipodi-0.dtd"
   xmlns:inkscape="http://www.inkscape.org/namespaces/inkscape"
   inkscape:version="1.0 (4035a4fb49, 2020-05-01)"
   height="24"
   width="24"
   sodipodi:docname="backgrounds.svg"
   xml:space="preserve"
   viewBox="0 0 24 24"
   y="0px"
   x="0px"
   id="Capa_1"
   version="1.1"><metadata
   id="metadata73"><rdf:RDF><cc:Work
       rdf:about=""><dc:format>image/svg+xml</dc:format><dc:type
         rdf:resource="http://purl.org/dc/dcmitype/StillImage" /><dc:title></dc:title></cc:Work></rdf:RDF></metadata><defs
   id="defs71" /><sodipodi:namedview
   inkscape:current-layer="Capa_1"
   inkscape:window-maximized="1"
   inkscape:window-y="0"
   inkscape:window-x="0"
   inkscape:cy="93.670062"
   inkscape:cx="88.542881"
   inkscape:zoom="5.5684659"
   showgrid="false"
   id="namedview69"
   inkscape:window-height="1417"
   inkscape:window-width="2560"
   inkscape:pageshadow="2"
   inkscape:pageopacity="0"
   guidetolerance="10"
   gridtolerance="10"
   objecttolerance="10"
   borderopacity="1"
   bordercolor="#666666"
   pagecolor="#ffffff" />
<path
   id="path2"
   d="M 3,18.500016 C 1.6192969,18.500016 0.50001563,19.619297 0.50001563,21 V 3 C 0.50001563,1.6192969 1.6192969,0.50001563 3,0.50001563 H 3.5000156 V 18.500016 Z"
   style="fill:#95adc0;stroke-width:0.046875" />
<g
   transform="scale(0.046875)"
   id="g8">
	<path
   id="path4"
   d="m 138.667,160 h 234.667 v 42.667 H 138.667 Z"
   style="fill:#f2f2f2" />
	<path
   id="path6"
   d="M 138.667,74.667 H 373.334 V 128 H 138.667 Z"
   style="fill:#f2f2f2" />
</g>
<path
   id="path10"
   d="m 20.499984,21 v 2.499984 H 3 C 1.6192969,23.499984 0.50001563,22.380703 0.50001563,21 0.50001563,19.619297 1.6192969,18.500016 3,18.500016 h 17.499984 z"
   style="fill:#d9eef7;stroke-width:0.046875" />
<path
   id="path12"
   d="M 6.5000156,7.5 V 9.5000156 H 17.500031 V 7.5 Z M 17.499984,6 V 3.5000156 H 6.5000156 V 6 Z m 3,-5.49998438 V 18.500016 H 3.5000156 V 0.50001562 Z"
   style="fill:#aac4da;stroke-width:0.046875" />
<path
   id="path14"
   d="M 21,17.000016 V 18 c 0,0.276141 -0.223875,0.500016 -0.500016,0.500016 h -2.000015 v 2.000015 c 0,0.276141 -0.223875,0.500016 -0.500016,0.500016 h -0.999984 c -0.276141,0 -0.500016,-0.223875 -0.500016,-0.500016 v -2.000015 h -2.000015 c -0.276141,0 -0.500016,-0.223875 -0.500016,-0.500016 V 17.000016 C 13.999922,16.723875 14.223797,16.5 14.499938,16.5 H 16.5 v -2.000016 c 0,-0.27614 0.223875,-0.500015 0.500016,-0.500015 H 18 c 0.276141,0 0.500016,0.223875 0.500016,0.500015 V 16.5 h 2.000015 C 20.776125,16.5 21,16.723875 21,17.000016 Z"
   style="fill:#f2f2f2;stroke-width:0.046875" />
<path
   id="path16"
   d="m 17.499984,11.499984 c 3.313688,0 6,2.686313 6,6 0,3.313688 -2.686312,6 -6,6 -3.313687,0 -6,-2.686312 -6,-6 0,-3.313687 2.686313,-6 6,-6 z M 21,18 V 17.000016 C 21,16.723875 20.776125,16.5 20.499984,16.5 h -2.000015 v -2.000016 c 0,-0.27614 -0.223875,-0.500015 -0.500016,-0.500015 h -0.999984 c -0.276141,0 -0.500016,0.223875 -0.500016,0.500015 V 16.5 h -2.000015 c -0.276141,0 -0.500016,0.223875 -0.500016,0.500016 V 18 c 0,0.276141 0.223875,0.500016 0.500016,0.500016 H 16.5 v 2.000015 c 0,0.276141 0.223875,0.500016 0.500016,0.500016 H 18 c 0.276141,0 0.500016,-0.223875 0.500016,-0.500016 v -2.000015 h 2.000015 C 20.776125,18.500016 21,18.276141 21,18 Z"
   style="fill:#ff7260;stroke-width:0.046875" />
<g
   transform="scale(0.046875)"
   id="g36">
	<path
   id="path18"
   d="m 373.333,234.667 c -76.583,0 -138.667,62.083 -138.667,138.667 C 234.666,449.918 296.75,512 373.333,512 449.916,512 512,449.917 512,373.333 511.912,296.786 449.88,234.755 373.333,234.667 Z m 0,256 C 308.532,490.667 256,438.135 256,373.333 256,308.531 308.532,256 373.333,256 c 64.801,0 117.333,52.532 117.333,117.333 -0.076,64.77 -52.563,117.257 -117.333,117.334 z"
   style="fill:#4c5b66" />
	<path
   id="path20"
   d="m 437.333,341.333 h -32 v -32 C 405.333,297.551 395.782,288 384,288 h -21.333 c -11.782,0 -21.333,9.551 -21.333,21.333 v 32 h -32 c -11.782,0 -21.333,9.551 -21.333,21.333 V 384 c 0,11.782 9.551,21.333 21.333,21.333 h 32 v 32 c 0,11.782 9.551,21.333 21.333,21.333 H 384 c 11.782,0 21.333,-9.551 21.333,-21.333 v -32 h 32 c 11.782,0 21.333,-9.551 21.333,-21.333 v -21.333 c 10e-4,-11.782 -9.551,-21.334 -21.333,-21.334 z m 0,42.667 h -42.667 c -5.891,0 -10.667,4.776 -10.667,10.667 v 42.667 H 362.666 V 394.667 C 362.666,388.776 357.89,384 351.999,384 H 309.332 V 362.667 H 352 c 5.891,0 10.667,-4.776 10.667,-10.667 V 309.333 H 384 V 352 c 0,5.891 4.776,10.667 10.667,10.667 h 42.667 V 384 Z"
   style="fill:#4c5b66" />
	<path
   id="path22"
   d="m 21.333,448 c 0,-23.564 19.103,-42.667 42.667,-42.667 H 202.667 V 384 H 85.333 V 21.333 h 341.333 v 192 H 448 V 10.667 C 448,4.776 443.224,0 437.333,0 H 64 C 28.668,0.035 0.035,28.668 0,64 v 384 c 0.035,35.332 28.668,63.965 64,64 H 256 V 490.667 H 64 C 40.436,490.667 21.333,471.564 21.333,448 Z M 64,21.333 V 384 c -15.765,0.004 -30.969,5.858 -42.667,16.427 V 64 C 21.333,40.436 40.436,21.333 64,21.333 Z"
   style="fill:#4c5b66" />
	<path
   id="path24"
   d="M 384,128 V 74.667 C 384,68.776 379.224,64 373.333,64 H 138.667 C 132.776,64 128,68.776 128,74.667 V 128 h 21.333 V 85.333 H 362.666 V 128 Z"
   style="fill:#4c5b66" />
	<path
   id="path26"
   d="M 320,170.667 V 149.334 H 128 v 53.333 c 0,5.891 4.776,10.667 10.667,10.667 H 320 V 192 H 149.333 v -21.333 z"
   style="fill:#4c5b66" />
	<path
   id="path28"
   d="m 128,245.333 h 21.333 v 21.333 H 128 Z"
   style="fill:#4c5b66" />
	<path
   id="path30"
   d="M 170.667,245.333 H 192 v 21.333 h -21.333 z"
   style="fill:#4c5b66" />
	<path
   id="path32"
   d="m 138.667,437.333 h 64 v 21.333 h -64 z"
   style="fill:#4c5b66" />
	<path
   id="path34"
   d="m 96,437.333 h 21.333 v 21.333 H 96 Z"
   style="fill:#4c5b66" />
</g>
<g
   id="g38">
</g>
<g
   id="g40">
</g>
<g
   id="g42">
</g>
<g
   id="g44">
</g>
<g
   id="g46">
</g>
<g
   id="g48">
</g>
<g
   id="g50">
</g>
<g
   id="g52">
</g>
<g
   id="g54">
</g>
<g
   id="g56">
</g>
<g
   id="g58">
</g>
<g
   id="g60">
</g>
<g
   id="g62">
</g>
<g
   id="g64">
</g>
<g
   id="g66">
</g>
</svg>
