<?xml version="1.0" encoding="iso-8859-1"?>
<!-- Generator: Adobe Illustrator 19.0.0, SVG Export Plug-In . SVG Version: 6.00 Build 0)  -->
<svg version="1.1" id="Capa_1" xmlns="http://www.w3.org/2000/svg" xmlns:xlink="http://www.w3.org/1999/xlink" x="0px" y="0px"
	 viewBox="0 0 496 496" style="enable-background:new 0 0 496 496;" xml:space="preserve">
<path style="fill:#B27946;" d="M416,9.172c0,92.784-75.216,168-168,168s-168-75.216-168-168H416z"/>
<g>
	<path style="fill:#FCD770;" d="M368,249.172v32c0,8.84,7.16,16,16,16s16-7.16,16-16v-32H368z"/>
	<path style="fill:#FCD770;" d="M232,329.172c0,8.84,7.16,16,16,16s16-7.16,16-16v-32h-32V329.172z"/>
</g>
<ellipse style="fill:#ECECEC;" cx="384" cy="217.172" rx="32" ry="48"/>
<path style="fill:#B6C1CE;" d="M384,249.172c-15.856,0-28.976-17.304-31.52-40c-0.296,2.608-0.48,5.272-0.48,8
	c0,26.512,14.328,48,32,48s32-21.488,32-48c0-2.728-0.184-5.392-0.48-8C412.976,231.868,399.856,249.172,384,249.172z"/>
<ellipse style="fill:#ECECEC;" cx="248" cy="265.172" rx="32" ry="48"/>
<path style="fill:#B6C1CE;" d="M248,297.172c-15.856,0-28.976-17.304-31.52-40c-0.296,2.608-0.48,5.272-0.48,8
	c0,26.512,14.328,48,32,48s32-21.488,32-48c0-2.728-0.184-5.392-0.48-8C276.976,279.868,263.856,297.172,248,297.172z"/>
<path style="fill:#FCD770;" d="M96,281.172c0,8.84,7.16,16,16,16s16-7.16,16-16v-32H96V281.172z"/>
<ellipse style="fill:#ECECEC;" cx="112" cy="217.172" rx="32" ry="48"/>
<path style="fill:#B6C1CE;" d="M112,249.172c-15.856,0-28.976-17.304-31.52-40c-0.296,2.608-0.48,5.272-0.48,8
	c0,26.512,14.328,48,32,48s32-21.488,32-48c0-2.728-0.184-5.392-0.48-8C140.976,231.868,127.856,249.172,112,249.172z"/>
<path style="fill:#EABD8C;" d="M384,9.172c0,75.112-60.888,136-136,136s-136-60.888-136-136H384z"/>
<path style="fill:#D3A06C;" d="M248,121.172c-66.904,0-122.408-48.352-133.76-112H112c0,75.112,60.888,136,136,136
	s136-60.888,136-136h-2.24C370.408,72.82,314.904,121.172,248,121.172z"/>
<path d="M248,209.172c-22.432,0-40,24.6-40,56c0,18.672,6.248,34.896,16,45.016v18.984c0,11.664,8.368,21.384,19.408,23.536
	l5.488,8.232c4.648,6.976,7.104,15.088,7.104,23.464c0,9.096-3,18.112-8.464,25.384l-5.368,7.168
	c-6.56,8.728-10.168,19.56-10.168,30.48c0,13.568,5.288,26.328,14.88,35.928l11.464,11.464l11.312-11.312L258.2,472.052
	c-6.576-6.576-10.2-15.32-10.2-24.616c0-7.488,2.472-14.896,6.968-20.88l5.368-7.168c7.52-10.024,11.664-22.44,11.664-34.984
	c0-11.544-3.384-22.728-9.792-32.344l-1.68-2.52c6.856-4.224,11.472-11.736,11.472-20.368v-18.984c9.752-10.12,16-26.336,16-45.016
	C288,233.772,270.432,209.172,248,209.172z M248,225.172c13.008,0,24,18.32,24,40s-10.992,40-24,40s-24-18.32-24-40
	S234.992,225.172,248,225.172z M240,320.084c2.576,0.712,5.248,1.088,8,1.088c2.752,0,5.424-0.376,8-1.088v9.088
	c0,4.416-3.592,8-8,8s-8-3.584-8-8V320.084z"/>
<path d="M384,161.172c-22.432,0-40,24.6-40,56c0,18.672,6.248,34.896,16,45.016v18.984c0,11.664,8.368,21.384,19.408,23.536
	l5.488,8.232c4.648,6.976,7.104,15.088,7.104,23.464c0,9.096-3,18.112-8.464,25.384l-5.368,7.168
	c-6.56,8.728-10.168,19.56-10.168,30.48c0,13.568,5.288,26.328,14.88,35.928l11.464,11.464l11.312-11.312L394.2,424.052
	c-6.576-6.576-10.2-15.32-10.2-24.616c0-7.488,2.472-14.896,6.968-20.88l5.368-7.168c7.52-10.024,11.664-22.44,11.664-34.984
	c0-11.544-3.384-22.728-9.792-32.344l-1.68-2.52c6.856-4.224,11.472-11.736,11.472-20.368v-18.984c9.752-10.12,16-26.336,16-45.016
	C424,185.772,406.432,161.172,384,161.172z M384,177.172c13.008,0,24,18.32,24,40s-10.992,40-24,40s-24-18.32-24-40
	S370.992,177.172,384,177.172z M376,272.084c2.576,0.712,5.248,1.088,8,1.088s5.424-0.376,8-1.088v9.088c0,4.416-3.592,8-8,8
	s-8-3.584-8-8V272.084z"/>
<path d="M112,161.172c-22.432,0-40,24.6-40,56c0,18.672,6.248,34.896,16,45.016v18.984c0,11.664,8.368,21.384,19.408,23.536
	l5.488,8.232c4.648,6.976,7.104,15.088,7.104,23.464c0,9.096-3,18.112-8.464,25.384l-5.368,7.168
	C99.608,377.684,96,388.516,96,399.436c0,13.568,5.288,26.328,14.88,35.928l11.464,11.464l11.312-11.312L122.2,424.052
	c-6.576-6.576-10.2-15.32-10.2-24.616c0-7.488,2.472-14.896,6.968-20.88l5.368-7.168c7.52-10.024,11.664-22.44,11.664-34.984
	c0-11.544-3.384-22.728-9.792-32.344l-1.68-2.52c6.856-4.224,11.472-11.736,11.472-20.368v-18.984c9.752-10.12,16-26.336,16-45.016
	C152,185.772,134.432,161.172,112,161.172z M112,177.172c13.008,0,24,18.32,24,40s-10.992,40-24,40s-24-18.32-24-40
	S98.992,177.172,112,177.172z M104,272.084c2.576,0.712,5.248,1.088,8,1.088s5.424-0.376,8-1.088v9.088c0,4.416-3.592,8-8,8
	s-8-3.584-8-8V272.084z"/>
<path d="M32,17.172h40.2c4.2,93.344,81.432,168,175.8,168s171.6-74.656,175.8-168H464v-16H32V17.172z M248,169.172
	c-85.52,0-155.384-67.504-159.592-152h16c4.184,75.672,66.888,136,143.592,136c63.664,0,118.984-40.848,137.672-101.648
	l-15.296-4.704c-16.608,54.04-65.784,90.352-122.376,90.352c-67.88,0-123.432-53.152-127.592-120h255.248
	c-0.304,4.912-0.784,9.8-1.632,14.6l15.752,2.8c1.008-5.72,1.552-11.552,1.872-17.4h15.944
	C403.384,101.668,333.52,169.172,248,169.172z"/>
<rect x="480" y="1.172" width="16" height="16"/>
<rect y="1.172" width="16" height="16"/>
<rect x="312" y="33.172" width="16" height="16"/>
<rect x="264" y="105.172" width="16" height="16"/>
<rect x="248" y="41.172" width="16" height="16"/>
<rect x="200" y="65.172" width="16" height="16"/>
<rect x="152" y="33.172" width="16" height="16"/>
<g>
</g>
<g>
</g>
<g>
</g>
<g>
</g>
<g>
</g>
<g>
</g>
<g>
</g>
<g>
</g>
<g>
</g>
<g>
</g>
<g>
</g>
<g>
</g>
<g>
</g>
<g>
</g>
<g>
</g>
</svg>
