<?xml version="1.0" encoding="UTF-8" standalone="no"?>
<svg
   xmlns:dc="http://purl.org/dc/elements/1.1/"
   xmlns:cc="http://creativecommons.org/ns#"
   xmlns:rdf="http://www.w3.org/1999/02/22-rdf-syntax-ns#"
   xmlns:svg="http://www.w3.org/2000/svg"
   xmlns="http://www.w3.org/2000/svg"
   xmlns:sodipodi="http://sodipodi.sourceforge.net/DTD/sodipodi-0.dtd"
   xmlns:inkscape="http://www.inkscape.org/namespaces/inkscape"
   inkscape:version="1.0 (4035a4fb49, 2020-05-01)"
   height="24"
   width="24"
   sodipodi:docname="contraceptive_method.svg"
   xml:space="preserve"
   viewBox="0 0 24 24"
   y="0px"
   x="0px"
   id="Capa_1"
   version="1.1"><metadata
   id="metadata85"><rdf:RDF><cc:Work
       rdf:about=""><dc:format>image/svg+xml</dc:format><dc:type
         rdf:resource="http://purl.org/dc/dcmitype/StillImage" /><dc:title></dc:title></cc:Work></rdf:RDF></metadata><defs
   id="defs83" /><sodipodi:namedview
   inkscape:current-layer="Capa_1"
   inkscape:window-maximized="1"
   inkscape:window-y="0"
   inkscape:window-x="0"
   inkscape:cy="31.269937"
   inkscape:cx="39.879475"
   inkscape:zoom="16.258064"
   showgrid="false"
   id="namedview81"
   inkscape:window-height="1417"
   inkscape:window-width="2560"
   inkscape:pageshadow="2"
   inkscape:pageopacity="0"
   guidetolerance="10"
   gridtolerance="10"
   objecttolerance="10"
   borderopacity="1"
   bordercolor="#666666"
   pagecolor="#ffffff" />
<path
   id="path2"
   d="m 20.129032,0.3870968 c 0,4.4895484 -3.639484,8.1290322 -8.129032,8.1290322 -4.4895484,0 -8.1290323,-3.6394838 -8.1290323,-8.1290322 z"
   style="fill:#b27946;stroke-width:0.0483871" />
<g
   transform="matrix(0.0483871,0,0,0.0483871,0,-0.0567097)"
   id="g8">
	<path
   id="path4"
   d="m 368,249.172 v 32 c 0,8.84 7.16,16 16,16 8.84,0 16,-7.16 16,-16 v -32 z"
   style="fill:#fcd770" />
	<path
   id="path6"
   d="m 232,329.172 c 0,8.84 7.16,16 16,16 8.84,0 16,-7.16 16,-16 v -32 h -32 z"
   style="fill:#fcd770" />
</g>
<ellipse
   id="ellipse10"
   ry="2.3225806"
   rx="1.5483871"
   cy="10.451612"
   cx="18.580645"
   style="fill:#ececec;stroke-width:0.0483871" />
<path
   id="path12"
   d="m 18.580645,12 c -0.767226,0 -1.402064,-0.83729 -1.525161,-1.935484 -0.01432,0.126194 -0.02323,0.255097 -0.02323,0.387097 0,1.282839 0.69329,2.322581 1.548387,2.322581 0.855097,0 1.548387,-1.039742 1.548387,-2.322581 0,-0.132 -0.0089,-0.260903 -0.02323,-0.387097 C 19.98271,11.16271 19.347871,12 18.580645,12 Z"
   style="fill:#b6c1ce;stroke-width:0.0483871" />
<ellipse
   id="ellipse14"
   ry="2.3225806"
   rx="1.5483871"
   cy="12.774194"
   cx="12"
   style="fill:#ececec;stroke-width:0.0483871" />
<path
   id="path16"
   d="m 12,14.322581 c -0.767226,0 -1.402065,-0.837291 -1.525161,-1.935484 -0.01432,0.126193 -0.02323,0.255097 -0.02323,0.387097 0,1.282838 0.69329,2.32258 1.548387,2.32258 0.855097,0 1.548387,-1.039742 1.548387,-2.32258 0,-0.132 -0.0089,-0.260904 -0.02323,-0.387097 C 13.402065,13.48529 12.767226,14.322581 12,14.322581 Z"
   style="fill:#b6c1ce;stroke-width:0.0483871" />
<path
   id="path18"
   d="m 4.6451613,13.548387 c 0,0.427742 0.3464516,0.774194 0.7741935,0.774194 0.427742,0 0.7741936,-0.346452 0.7741936,-0.774194 V 12 H 4.6451613 Z"
   style="fill:#fcd770;stroke-width:0.0483871" />
<ellipse
   id="ellipse20"
   ry="2.3225806"
   rx="1.5483871"
   cy="10.451612"
   cx="5.4193549"
   style="fill:#ececec;stroke-width:0.0483871" />
<path
   id="path22"
   d="M 5.4193548,12 C 4.652129,12 4.0172903,11.16271 3.8941935,10.064516 c -0.014323,0.126194 -0.023226,0.255097 -0.023226,0.387097 0,1.282839 0.6932904,2.322581 1.5483871,2.322581 0.8550968,0 1.5483871,-1.039742 1.5483871,-2.322581 0,-0.132 -0.0089,-0.260903 -0.023226,-0.387097 C 6.8214194,11.16271 6.1865806,12 5.4193548,12 Z"
   style="fill:#b6c1ce;stroke-width:0.0483871" />
<path
   id="path24"
   d="m 18.580645,0.3870968 c 0,3.6344516 -2.946193,6.5806451 -6.580645,6.5806451 -3.6344516,0 -6.5806452,-2.9461935 -6.5806452,-6.5806451 z"
   style="fill:#eabd8c;stroke-width:0.0483871" />
<path
   id="path26"
   d="m 12,5.8064516 c -3.2372903,0 -5.9229677,-2.3396129 -6.4722581,-5.4193548 H 5.4193548 c 0,3.6344516 2.9461936,6.5806451 6.5806452,6.5806451 3.634452,0 6.580645,-2.9461935 6.580645,-6.5806451 H 18.472258 C 17.922968,3.4668387 15.23729,5.8064516 12,5.8064516 Z"
   style="fill:#d3a06c;stroke-width:0.0483871" />
<path
   style="stroke-width:0.0483871"
   id="path28"
   d="m 12,10.064516 c -1.085419,0 -1.935484,1.190323 -1.935484,2.709678 0,0.903483 0.302323,1.688516 0.774194,2.178193 v 0.918581 c 0,0.564387 0.404903,1.034709 0.939096,1.138838 l 0.265549,0.398323 c 0.224903,0.337548 0.343742,0.730065 0.343742,1.135355 0,0.440129 -0.145162,0.876387 -0.409549,1.228258 l -0.259742,0.346839 c -0.317419,0.422322 -0.492,0.946451 -0.492,1.474838 0,0.656516 0.255871,1.273936 0.72,1.738452 l 0.55471,0.55471 0.547355,-0.547355 -0.554323,-0.55471 C 12.175355,22.466323 12,22.043226 12,21.593419 c 0,-0.362322 0.119613,-0.720774 0.337161,-1.010322 l 0.259742,-0.346839 c 0.363871,-0.485032 0.564387,-1.085806 0.564387,-1.692774 0,-0.558581 -0.163742,-1.099742 -0.473806,-1.565032 l -0.08129,-0.121936 c 0.331741,-0.204387 0.555096,-0.567871 0.555096,-0.985548 v -0.918581 c 0.471871,-0.489677 0.774194,-1.274322 0.774194,-2.178193 0,-1.519355 -0.850065,-2.709678 -1.935484,-2.709678 z m 0,0.774194 c 0.629419,0 1.16129,0.886451 1.16129,1.935484 0,1.049032 -0.531871,1.935483 -1.16129,1.935483 -0.629419,0 -1.16129,-0.886451 -1.16129,-1.935483 0,-1.049033 0.531871,-1.935484 1.16129,-1.935484 z m -0.387097,4.592516 c 0.124645,0.03445 0.253936,0.05265 0.387097,0.05265 0.133161,0 0.262452,-0.01819 0.387097,-0.05265 v 0.439742 c 0,0.213677 -0.173807,0.387097 -0.387097,0.387097 -0.21329,0 -0.387097,-0.17342 -0.387097,-0.387097 z" />
<path
   style="stroke-width:0.0483871"
   id="path30"
   d="m 18.580645,7.7419355 c -1.085419,0 -1.935484,1.1903225 -1.935484,2.7096775 0,0.903484 0.302323,1.688516 0.774194,2.178193 v 0.918581 c 0,0.564387 0.404903,1.03471 0.939097,1.138839 L 18.624,15.085548 c 0.224903,0.337549 0.343742,0.730065 0.343742,1.135355 0,0.440129 -0.145161,0.876387 -0.409548,1.228258 L 18.298452,17.796 c -0.31742,0.422323 -0.492,0.946452 -0.492,1.474839 0,0.656516 0.255871,1.273935 0.72,1.738451 l 0.554709,0.55471 0.547355,-0.547355 -0.554322,-0.55471 c -0.318194,-0.318193 -0.493549,-0.74129 -0.493549,-1.191096 0,-0.362323 0.119613,-0.720774 0.337161,-1.010323 l 0.259742,-0.346839 c 0.363871,-0.485032 0.564387,-1.085806 0.564387,-1.692774 0,-0.55858 -0.163741,-1.099742 -0.473806,-1.565032 l -0.08129,-0.121936 c 0.331742,-0.204387 0.555096,-0.56787 0.555096,-0.985548 v -0.918581 c 0.471871,-0.489677 0.774194,-1.274322 0.774194,-2.178193 0,-1.519355 -0.850064,-2.7096775 -1.935484,-2.7096775 z m 0,0.7741935 c 0.62942,0 1.16129,0.886452 1.16129,1.935484 0,1.049032 -0.53187,1.935484 -1.16129,1.935484 -0.629419,0 -1.16129,-0.886452 -1.16129,-1.935484 0,-1.049032 0.531871,-1.935484 1.16129,-1.935484 z m -0.387097,4.592516 c 0.124646,0.03445 0.253936,0.05265 0.387097,0.05265 0.133161,0 0.262452,-0.01819 0.387097,-0.05265 v 0.439742 c 0,0.213678 -0.173807,0.387097 -0.387097,0.387097 -0.21329,0 -0.387097,-0.173419 -0.387097,-0.387097 z" />
<path
   style="stroke-width:0.0483871"
   id="path32"
   d="m 5.4193548,7.7419355 c -1.0854193,0 -1.9354838,1.1903225 -1.9354838,2.7096775 0,0.903484 0.3023225,1.688516 0.7741935,2.178193 v 0.918581 c 0,0.564387 0.4049032,1.03471 0.9390968,1.138839 l 0.2655484,0.398322 c 0.2249032,0.337549 0.3437419,0.730065 0.3437419,1.135355 0,0.440129 -0.1451613,0.876387 -0.4095484,1.228258 L 5.1371613,17.796 c -0.3174194,0.422323 -0.492,0.946452 -0.492,1.474839 0,0.656516 0.255871,1.273935 0.72,1.738451 L 5.919871,21.564 6.4672258,21.016645 5.9129032,20.461935 c -0.3181935,-0.318193 -0.4935484,-0.74129 -0.4935484,-1.191096 0,-0.362323 0.1196129,-0.720774 0.3371613,-1.010323 l 0.259742,-0.346839 c 0.3638709,-0.485032 0.5643871,-1.085806 0.5643871,-1.692774 0,-0.55858 -0.163742,-1.099742 -0.4738065,-1.565032 l -0.08129,-0.121936 c 0.3317419,-0.204387 0.5550968,-0.56787 0.5550968,-0.985548 v -0.918581 c 0.4718709,-0.489677 0.7741935,-1.274322 0.7741935,-2.178193 0,-1.519355 -0.8500645,-2.7096775 -1.9354842,-2.7096775 z m 0,0.7741935 c 0.6294194,0 1.1612904,0.886452 1.1612904,1.935484 0,1.049032 -0.531871,1.935484 -1.1612904,1.935484 -0.6294193,0 -1.1612903,-0.886452 -1.1612903,-1.935484 0,-1.049032 0.531871,-1.935484 1.1612903,-1.935484 z m -0.3870967,4.592516 c 0.1246451,0.03445 0.2539354,0.05265 0.3870967,0.05265 0.1331613,0 0.2624517,-0.01819 0.3870968,-0.05265 v 0.439742 c 0,0.213678 -0.1738064,0.387097 -0.3870968,0.387097 -0.2132903,0 -0.3870967,-0.173419 -0.3870967,-0.387097 z" />
<path
   style="stroke-width:0.0483871"
   id="path34"
   d="M 1.5483871,0.7741935 H 3.4935484 C 3.6967742,5.2908387 7.4338065,8.903226 12,8.903226 c 4.566194,0 8.303226,-3.6123873 8.506452,-8.1290325 h 1.945161 V 0 H 1.5483871 Z M 12,8.1290323 c -4.1380645,0 -7.5185806,-3.2663226 -7.7221935,-7.3548388 H 5.052 C 5.2544516,4.4357419 8.2885161,7.3548387 12,7.3548387 c 3.080516,0 5.75729,-1.9765161 6.661548,-4.9184516 L 17.921419,2.2087742 C 17.117806,4.8236129 14.738323,6.5806452 12,6.5806452 c -3.2845161,0 -5.9725161,-2.571871 -6.1738065,-5.8064517 H 18.176903 c -0.01471,0.2376775 -0.03794,0.4741936 -0.07897,0.7064517 l 0.762194,0.1354838 c 0.04877,-0.2767742 0.0751,-0.5589677 0.09058,-0.8419355 h 0.771484 C 19.518581,4.8627097 16.138065,8.1290323 12,8.1290323 Z" />
<rect
   style="stroke-width:0.0483871"
   id="rect36"
   height="0.77419353"
   width="0.77419353"
   y="0"
   x="23.225807" />
<rect
   style="stroke-width:0.0483871"
   x="0"
   id="rect38"
   height="0.77419353"
   width="0.77419353"
   y="0" />
<rect
   style="stroke-width:0.0483871"
   id="rect40"
   height="0.77419353"
   width="0.77419353"
   y="1.5483873"
   x="15.096774" />
<rect
   style="stroke-width:0.0483871"
   id="rect42"
   height="0.77419353"
   width="0.77419353"
   y="5.032258"
   x="12.774194" />
<rect
   style="stroke-width:0.0483871"
   id="rect44"
   height="0.77419353"
   width="0.77419353"
   y="1.9354839"
   x="12" />
<rect
   style="stroke-width:0.0483871"
   id="rect46"
   height="0.77419353"
   width="0.77419353"
   y="3.0967741"
   x="9.6774197" />
<rect
   style="stroke-width:0.0483871"
   id="rect48"
   height="0.77419353"
   width="0.77419353"
   y="1.5483873"
   x="7.3548388" />
<g
   id="g50">
</g>
<g
   id="g52">
</g>
<g
   id="g54">
</g>
<g
   id="g56">
</g>
<g
   id="g58">
</g>
<g
   id="g60">
</g>
<g
   id="g62">
</g>
<g
   id="g64">
</g>
<g
   id="g66">
</g>
<g
   id="g68">
</g>
<g
   id="g70">
</g>
<g
   id="g72">
</g>
<g
   id="g74">
</g>
<g
   id="g76">
</g>
<g
   id="g78">
</g>
</svg>
