<?xml version="1.0" encoding="UTF-8" standalone="no"?>
<!-- Generator: Adobe Illustrator 18.0.0, SVG Export Plug-In . SVG Version: 6.00 Build 0)  -->

<svg
   xmlns:dc="http://purl.org/dc/elements/1.1/"
   xmlns:cc="http://creativecommons.org/ns#"
   xmlns:rdf="http://www.w3.org/1999/02/22-rdf-syntax-ns#"
   xmlns:svg="http://www.w3.org/2000/svg"
   xmlns="http://www.w3.org/2000/svg"
   xmlns:sodipodi="http://sodipodi.sourceforge.net/DTD/sodipodi-0.dtd"
   xmlns:inkscape="http://www.inkscape.org/namespaces/inkscape"
   version="1.1"
   id="Capa_1"
   x="0px"
   y="0px"
   viewBox="0 0 475.279 475.279"
   style="enable-background:new 0 0 475.279 475.279;"
   xml:space="preserve"
   width="512px"
   height="512px"
   sodipodi:docname="contraceptive_method.svg"
   inkscape:version="0.92.2 2405546, 2018-03-11"><metadata
   id="metadata55"><rdf:RDF><cc:Work
       rdf:about=""><dc:format>image/svg+xml</dc:format><dc:type
         rdf:resource="http://purl.org/dc/dcmitype/StillImage" /></cc:Work></rdf:RDF></metadata><defs
   id="defs53">
	
	
	
	
	
	
	
	
</defs><sodipodi:namedview
   pagecolor="#ffffff"
   bordercolor="#666666"
   borderopacity="1"
   objecttolerance="10"
   gridtolerance="10"
   guidetolerance="10"
   inkscape:pageopacity="0"
   inkscape:pageshadow="2"
   inkscape:window-width="2485"
   inkscape:window-height="1399"
   id="namedview51"
   showgrid="false"
   inkscape:zoom="1.3037281"
   inkscape:cx="37.399179"
   inkscape:cy="260.79065"
   inkscape:window-x="75"
   inkscape:window-y="0"
   inkscape:window-maximized="1"
   inkscape:current-layer="Capa_1" />
<path
   style="opacity:1;fill:#6a6c6c;fill-opacity:1;stroke-width:0.81290853"
   d="m 434.28908,199.11636 c 0,82.58405 -68.07466,149.53165 -152.04901,149.53165 -27.04651,0 -66.51723,5.50915 -67.39956,-19.62371 -0.41999,-11.96316 3.10925,-21.40658 6.76687,-29.66016 4.24157,-9.57128 4.87426,-60.13802 -42.18471,-44.28516 -51.23586,17.25995 -49.23161,-23.38142 -49.23161,-55.96262 0,-82.58405 68.07466,-149.531636 152.04901,-149.531638 83.97435,0 152.04901,66.947588 152.04901,149.531638 z"
   id="path870"
   inkscape:connector-curvature="0"
   sodipodi:nodetypes="ssssssss" /><path
   style="fill:#18bc9c"
   inkscape:connector-curvature="0"
   id="path2"
   d="m 280.805,240.874 c 16.174,0 29.332,-13.159 29.332,-29.333 0,-16.174 -13.159,-29.333 -29.332,-29.333 -16.174,0 -29.333,13.159 -29.333,29.333 0,16.174 13.158,29.333 29.333,29.333 z m 0,-50.166 c 11.487,0 20.832,9.346 20.832,20.833 0,11.487 -9.345,20.833 -20.832,20.833 -11.487,0 -20.833,-9.345 -20.833,-20.833 0,-11.488 9.345,-20.833 20.833,-20.833 z" /><path
   style="fill:#18bc9c"
   inkscape:connector-curvature="0"
   id="path4"
   d="m 224.68,164.23 c 7.777,0 14.104,-6.327 14.104,-14.104 0,-7.777 -6.327,-14.104 -14.104,-14.104 -7.777,0 -14.104,6.327 -14.104,14.104 0,7.776 6.327,14.104 14.104,14.104 z m 0,-19.708 c 3.09,0 5.604,2.514 5.604,5.604 0,3.09 -2.514,5.604 -5.604,5.604 -3.09,0 -5.604,-2.514 -5.604,-5.604 0,-3.09 2.514,-5.604 5.604,-5.604 z" /><path
   style="fill:#18bc9c"
   inkscape:connector-curvature="0"
   id="path6"
   d="m 293.658,126.605 c 6.789,0 12.312,-5.523 12.312,-12.313 0,-6.789 -5.523,-12.313 -12.312,-12.313 -6.789,0 -12.313,5.523 -12.313,12.313 0,6.79 5.524,12.313 12.313,12.313 z m 0,-16.125 c 2.102,0 3.812,1.711 3.812,3.813 0,2.102 -1.71,3.813 -3.812,3.813 -2.102,0 -3.813,-1.71 -3.813,-3.813 0,-2.102 1.711,-3.813 3.813,-3.813 z" /><path
   style="fill:#18bc9c"
   inkscape:connector-curvature="0"
   id="path8"
   d="m 393.093,201.854 c 8.765,0 15.895,-7.131 15.895,-15.896 0,-8.765 -7.131,-15.895 -15.895,-15.895 -8.765,0 -15.896,7.131 -15.896,15.895 10e-4,8.765 7.132,15.896 15.896,15.896 z m 0,-23.291 c 4.078,0 7.395,3.317 7.395,7.395 0,4.078 -3.317,7.396 -7.395,7.396 -4.078,0 -7.396,-3.318 -7.396,-7.396 10e-4,-4.078 3.318,-7.395 7.396,-7.395 z" /><path
   style="fill:#18bc9c"
   inkscape:connector-curvature="0"
   id="path10"
   d="m 370.698,281.582 c 5.801,0 10.521,-4.72 10.521,-10.521 0,-5.801 -4.72,-10.521 -10.521,-10.521 -5.801,0 -10.521,4.72 -10.521,10.521 0,5.801 4.72,10.521 10.521,10.521 z m 0,-12.542 c 1.114,0 2.021,0.907 2.021,2.021 0,1.114 -0.907,2.021 -2.021,2.021 -1.114,0 -2.021,-0.906 -2.021,-2.021 0,-1.114 0.907,-2.021 2.021,-2.021 z" /><path
   style="fill:#18bc9c"
   inkscape:connector-curvature="0"
   id="path12"
   d="m 282.908,7.92 c -106.074,0 -192.371,86.297 -192.371,192.372 0,31.018 9.842,67.263 25.181,96.019 -1.977,5.299 -3.118,10.729 -3.379,16.208 -0.44,9.214 1.707,18.118 6.132,26.014 l -0.976,0.976 c -1.947,1.948 -3.125,4.372 -3.555,6.901 -4.842,5.059 -8.061,7.069 -11.456,9.183 -3.824,2.38 -7.778,4.842 -13.674,11.118 -5.921,6.302 -7.953,10.227 -9.918,14.021 -1.776,3.43 -3.454,6.67 -8.565,12.11 -5.136,5.467 -8.456,7.534 -11.972,9.722 -3.824,2.38 -7.778,4.842 -13.674,11.117 -5.921,6.303 -7.953,10.228 -9.919,14.022 -1.776,3.43 -3.455,6.67 -8.567,12.112 -5.13,5.461 -8.3,7.416 -11.655,9.485 -3.68,2.269 -7.485,4.616 -13.388,10.899 -1.555,1.655 -1.534,4.24 0.048,5.87 0.831,0.857 1.939,1.29 3.051,1.29 1.003,0 2.008,-0.353 2.815,-1.067 5.557,-4.916 8.89,-6.51 12.417,-8.197 3.9,-1.865 7.934,-3.794 14.382,-9.499 6.412,-5.671 9.064,-9.619 11.628,-13.437 2.37,-3.528 4.609,-6.861 10.204,-11.811 5.541,-4.902 8.715,-6.382 12.076,-7.949 3.762,-1.754 7.651,-3.568 14.115,-9.286 6.411,-5.671 9.063,-9.619 11.627,-13.436 2.37,-3.528 4.608,-6.86 10.203,-11.809 5.541,-4.902 8.715,-6.382 12.076,-7.949 3.647,-1.7 8.826,-4.633 15.029,-10.021 2.405,-0.475 4.701,-1.64 6.561,-3.5 l 1.049,-1.049 c 7.136,3.922 15.097,6.01 23.312,6.01 5.431,0 10.895,-0.925 16.266,-2.686 30.738,20.483 69.592,30.99 104.896,30.99 106.074,0 192.372,-86.297 192.372,-192.371 C 475.279,94.217 388.982,7.92 282.908,7.92 Z M 112.203,365.215 c -3.762,1.754 -7.652,3.567 -14.116,9.286 -6.411,5.671 -9.063,9.619 -11.627,13.436 -2.37,3.528 -4.608,6.86 -10.203,11.81 -1.878,1.661 -3.484,2.929 -4.918,3.941 1.564,-1.359 3.271,-2.993 5.182,-5.026 5.921,-6.302 7.953,-10.227 9.918,-14.021 1.776,-3.43 3.454,-6.67 8.565,-12.11 5.136,-5.467 8.456,-7.534 11.971,-9.722 2.771,-1.725 5.615,-3.501 9.212,-6.732 0.393,0.542 0.818,1.067 1.306,1.555 l 1.766,1.766 c 0.373,0.373 0.768,0.709 1.174,1.026 -3.337,2.508 -5.733,3.627 -8.23,4.791 z m 13.069,-11.828 -1.766,-1.766 c -1.621,-1.621 -1.664,-4.212 -0.161,-5.905 1.12,1.374 2.318,2.704 3.597,3.983 1.365,1.365 2.797,2.63 4.276,3.815 -1.691,1.54 -4.313,1.507 -5.946,-0.127 z m 7.68,-9.699 c -6.948,-6.947 -11.084,-15.662 -11.976,-24.989 h 17.748 c 2.347,0 4.25,-1.903 4.25,-4.25 0,-2.347 -1.903,-4.25 -4.25,-4.25 h -17.669 c 1.282,-11.462 7.174,-22.721 17.176,-32.722 14.447,-14.447 35.197,-23.782 52.864,-23.782 9.834,0 17.94,2.908 23.441,8.409 7.595,7.594 10.159,19.868 7.262,34.596 h -62.076 c -2.347,0 -4.25,1.903 -4.25,4.25 0,2.347 1.903,4.25 4.25,4.25 h 59.855 c -3.967,12.169 -11.156,23.952 -20.414,33.209 -11.416,11.416 -24.355,17.45 -37.417,17.45 -10.876,-10e-4 -20.833,-4.209 -28.794,-12.171 z m 62.037,-147.646 h -59.158 c 0.163,-5.699 0.656,-11.315 1.452,-16.836 h 25.44 c 2.347,0 4.25,-1.903 4.25,-4.25 0,-2.347 -1.903,-4.25 -4.25,-4.25 h -23.969 c 6.908,-33.707 25.381,-63.247 51.072,-84.286 h 64.204 c 2.347,0 4.25,-1.903 4.25,-4.25 0,-2.347 -1.903,-4.25 -4.25,-4.25 h -52.737 c 23.371,-15.639 51.445,-24.771 81.616,-24.771 46.081,0 87.274,21.298 114.274,54.561 h -18.47 c -2.347,0 -4.25,1.903 -4.25,4.25 0,2.347 1.903,4.25 4.25,4.25 h 24.877 c 3.14,4.492 6.043,9.161 8.674,13.999 h -50.05 c -2.347,0 -4.25,1.903 -4.25,4.25 0,2.347 1.903,4.25 4.25,4.25 h 54.313 c 8.674,18.746 13.525,39.607 13.525,61.584 0,49.127 -24.206,92.703 -61.313,119.443 -0.604,-0.331 -1.288,-0.536 -2.026,-0.536 h -56.997 c -2.347,0 -4.25,1.903 -4.25,4.25 0,2.347 1.903,4.25 4.25,4.25 h 46.736 c -21.65,12.545 -46.772,19.736 -73.543,19.736 -23.282,0 -46.332,-5.555 -66.925,-16.08 6.813,-9.948 11.739,-21.184 14.039,-32.382 3.67,-17.872 0.305,-33.1 -9.474,-42.879 -7.13,-7.13 -17.314,-10.898 -29.452,-10.898 -13.966,0 -29.571,5.132 -43.158,13.752 -7.509,-17.241 -11.581,-35.509 -12.11,-54.405 h 59.161 c 2.347,0 4.25,-1.903 4.25,-4.25 -0.001,-2.35 -1.904,-4.252 -4.251,-4.252 z m 87.919,188.121 c -33.708,0 -66.594,-9.211 -95.263,-26.614 6.159,-3.275 12.076,-7.677 17.529,-13.129 1.962,-1.962 3.83,-4.039 5.616,-6.192 22.122,11.581 46.992,17.708 72.118,17.708 85.822,0 155.643,-69.821 155.643,-155.643 0,-85.822 -69.821,-155.645 -155.643,-155.645 -85.822,0 -155.643,69.822 -155.643,155.644 0,22.164 4.573,43.561 13.575,63.624 -3.041,2.344 -5.933,4.865 -8.619,7.551 -4.744,4.744 -8.671,9.77 -11.759,14.984 -14.01,-26.375 -21.425,-56.108 -21.425,-86.159 0,-101.387 82.484,-183.872 183.871,-183.872 101.387,0 183.872,82.484 183.872,183.872 -10e-4,101.386 -82.485,183.871 -183.872,183.871 z" /><path
   style="fill:#18bc9c"
   inkscape:connector-curvature="0"
   id="path14"
   d="m 453.908,196.042 c -2.347,0 -4.25,1.903 -4.25,4.25 0,91.946 -74.804,166.749 -166.751,166.749 -2.347,0 -4.25,1.903 -4.25,4.25 0,2.347 1.903,4.25 4.25,4.25 96.633,0 175.251,-78.617 175.251,-175.249 0,-2.348 -1.903,-4.25 -4.25,-4.25 z" /><path
   style="fill:#18bc9c"
   inkscape:connector-curvature="0"
   id="path16"
   d="m 282.908,24.542 c -96.909,0 -175.749,78.841 -175.749,175.75 0,2.347 1.903,4.25 4.25,4.25 2.347,0 4.25,-1.903 4.25,-4.25 0,-92.222 75.028,-167.25 167.249,-167.25 2.347,0 4.25,-1.903 4.25,-4.25 0,-2.348 -1.903,-4.25 -4.25,-4.25 z" />
<g
   id="g20">
</g>
<g
   id="g22">
</g>
<g
   id="g24">
</g>
<g
   id="g26">
</g>
<g
   id="g28">
</g>
<g
   id="g30">
</g>
<g
   id="g32">
</g>
<g
   id="g34">
</g>
<g
   id="g36">
</g>
<g
   id="g38">
</g>
<g
   id="g40">
</g>
<g
   id="g42">
</g>
<g
   id="g44">
</g>
<g
   id="g46">
</g>
<g
   id="g48">
</g>
</svg>