<?xml version="1.0" encoding="UTF-8" standalone="no"?>
<!-- Generator: Adobe Illustrator 18.0.0, SVG Export Plug-In . SVG Version: 6.00 Build 0)  -->

<svg
   xmlns:dc="http://purl.org/dc/elements/1.1/"
   xmlns:cc="http://creativecommons.org/ns#"
   xmlns:rdf="http://www.w3.org/1999/02/22-rdf-syntax-ns#"
   xmlns:svg="http://www.w3.org/2000/svg"
   xmlns="http://www.w3.org/2000/svg"
   xmlns:sodipodi="http://sodipodi.sourceforge.net/DTD/sodipodi-0.dtd"
   xmlns:inkscape="http://www.inkscape.org/namespaces/inkscape"
   version="1.1"
   id="Capa_1"
   x="0px"
   y="0px"
   viewBox="0 0 22.278703 22.278703"
   xml:space="preserve"
   width="24"
   height="24"
   sodipodi:docname="contraceptive_method.svg"
   inkscape:version="0.92.2 2405546, 2018-03-11"><metadata
   id="metadata55"><rdf:RDF><cc:Work
       rdf:about=""><dc:format>image/svg+xml</dc:format><dc:type
         rdf:resource="http://purl.org/dc/dcmitype/StillImage" /><dc:title></dc:title></cc:Work></rdf:RDF></metadata><defs
   id="defs53">
	
	
	
	
	
	
	
	
</defs><sodipodi:namedview
   pagecolor="#ffffff"
   bordercolor="#666666"
   borderopacity="1"
   objecttolerance="10"
   gridtolerance="10"
   guidetolerance="10"
   inkscape:pageopacity="0"
   inkscape:pageshadow="2"
   inkscape:window-width="2560"
   inkscape:window-height="1347"
   id="namedview51"
   showgrid="false"
   inkscape:zoom="10.429825"
   inkscape:cx="27.487328"
   inkscape:cy="15.181358"
   inkscape:window-x="0"
   inkscape:window-y="0"
   inkscape:window-maximized="1"
   inkscape:current-layer="Capa_1" />

<g
   id="g20"
   transform="translate(0,-453.0003)">
</g>
<g
   id="g22"
   transform="translate(0,-453.0003)">
</g>
<g
   id="g24"
   transform="translate(0,-453.0003)">
</g>
<g
   id="g26"
   transform="translate(0,-453.0003)">
</g>
<g
   id="g28"
   transform="translate(0,-453.0003)">
</g>
<g
   id="g30"
   transform="translate(0,-453.0003)">
</g>
<g
   id="g32"
   transform="translate(0,-453.0003)">
</g>
<g
   id="g34"
   transform="translate(0,-453.0003)">
</g>
<g
   id="g36"
   transform="translate(0,-453.0003)">
</g>
<g
   id="g38"
   transform="translate(0,-453.0003)">
</g>
<g
   id="g40"
   transform="translate(0,-453.0003)">
</g>
<g
   id="g42"
   transform="translate(0,-453.0003)">
</g>
<g
   id="g44"
   transform="translate(0,-453.0003)">
</g>
<g
   id="g46"
   transform="translate(0,-453.0003)">
</g>
<g
   id="g48"
   transform="translate(0,-453.0003)">
</g>
<g
   transform="matrix(0.46200923,0,0,0.46200923,0.04427668,0.03261715)"
   id="g14"
   style="fill:#2780e3;fill-opacity:1"><path
     inkscape:connector-curvature="0"
     d="m 23.5,30.2 c 0.7,-1.2 0.8,-2.5 0.8,-3.7 0,-0.5 0,-0.9 0.1,-1.3 0.1,-0.5 0.3,-0.9 0.5,-1.3 -1,-1 -1.7,-2.1 -2.2,-3.3 -1.1,1.1 -1.8,2.5 -2.1,3.9 -0.1,0.6 -0.1,1.3 -0.2,1.8 0,0.8 -0.1,1.5 -0.3,2 -0.5,0.8 -1.9,1.1 -3.5,1.4 -1.2,0.2 -5,0.8 -6.1,4 -0.3,1 0.2,2.1 1.2,2.4 0.2,0.1 0.4,0.1 0.6,0.1 0.8,0 1.5,-0.5 1.8,-1.3 0.2,-0.7 1.3,-1.2 3.1,-1.5 2,-0.2 4.9,-0.7 6.3,-3.2 z"
     id="path2-3"
     style="fill:#2780e3;fill-opacity:1" /><path
     inkscape:connector-curvature="0"
     d="m 32.8,23.3 c 0.1,0 0.3,0 0.4,0 3.3,-0.1 6.9,-2 9.6,-5.1 C 47.5,13 48.3,6.3 44.7,2.9 43.3,1.6 41.4,1 39.3,1.1 36,1.2 32.4,3.1 29.7,6.2 25,11.3 24.2,18 27.9,21.4 c 1.3,1.2 3,1.9 4.9,1.9 z"
     id="path4-6"
     style="fill:#2780e3;fill-opacity:1" /><path
     inkscape:connector-curvature="0"
     d="m 6.9,19.3 c 0,0.1 -0.1,0.3 -0.1,0.4 -0.1,0.4 -0.1,0.8 -0.1,1.1 0,0.3 0,0.6 -0.1,0.7 -0.2,0.2 -1.1,0.3 -1.4,0.4 -2.2,0.4 -3.6,1.3 -4.1,2.8 -0.3,1 0.2,2.1 1.2,2.4 0.2,0.1 0.4,0.1 0.6,0.1 0.8,0 1.5,-0.5 1.8,-1.2 C 4.8,25.9 5.1,25.8 5.8,25.7 7,25.5 8.9,25.2 9.9,23.4 10,23.1 10.1,22.9 10.2,22.6 9.6,22.3 9,21.9 8.5,21.4 7.8,20.8 7.3,20.1 6.9,19.3 Z"
     id="path6-7"
     style="fill:#2780e3;fill-opacity:1" /><path
     inkscape:connector-curvature="0"
     d="m 14.3,19.8 c 0.1,0 0.2,0 0.3,0 2.3,-0.1 4.8,-1.5 6.9,-3.7 C 24.9,12.4 25.6,7.8 23.1,5.5 22.2,4.7 21,4.3 19.7,4.3 17.4,4.4 14.9,5.8 12.8,8 c -3.4,3.7 -4.1,8.3 -1.6,10.6 0.8,0.8 1.9,1.2 3.1,1.2 z"
     id="path8-5"
     style="fill:#2780e3;fill-opacity:1" /><path
     inkscape:connector-curvature="0"
     d="m 38.1,24 c -2.3,0.1 -4.8,1.5 -6.9,3.7 -3.4,3.7 -4.1,8.3 -1.6,10.6 0.8,0.8 1.9,1.2 3.2,1.2 0.1,0 0.2,0 0.3,0 2.3,-0.1 4.8,-1.5 6.9,-3.7 3.4,-3.7 4.1,-8.3 1.6,-10.6 C 40.7,24.4 39.5,24 38.1,24 Z"
     id="path10-3"
     style="fill:#2780e3;fill-opacity:1" /><path
     inkscape:connector-curvature="0"
     d="m 25.3,39 c 0,0.1 -0.1,0.3 -0.1,0.4 -0.1,0.4 -0.1,0.8 -0.1,1.1 0,0.3 0,0.6 -0.1,0.7 -0.2,0.2 -1.1,0.3 -1.4,0.4 -2.2,0.4 -3.6,1.3 -4.1,2.8 -0.3,1 0.2,2.1 1.2,2.4 0.3,0.2 0.5,0.2 0.7,0.2 0.8,0 1.5,-0.5 1.8,-1.2 0.1,-0.1 0.4,-0.2 1.1,-0.3 1.2,-0.2 3.1,-0.5 4.1,-2.3 0.1,-0.3 0.2,-0.5 0.3,-0.8 C 28.1,42.1 27.5,41.7 27,41.2 26.3,40.5 25.8,39.8 25.3,39 Z"
     id="path12-5"
     style="fill:#2780e3;fill-opacity:1" /></g></svg>