<?xml version="1.0" encoding="UTF-8" standalone="no"?>
<!-- Generator: Adobe Illustrator 16.0.0, SVG Export Plug-In . SVG Version: 6.00 Build 0)  -->

<svg
   xmlns:dc="http://purl.org/dc/elements/1.1/"
   xmlns:cc="http://creativecommons.org/ns#"
   xmlns:rdf="http://www.w3.org/1999/02/22-rdf-syntax-ns#"
   xmlns:svg="http://www.w3.org/2000/svg"
   xmlns="http://www.w3.org/2000/svg"
   xmlns:sodipodi="http://sodipodi.sourceforge.net/DTD/sodipodi-0.dtd"
   xmlns:inkscape="http://www.inkscape.org/namespaces/inkscape"
   version="1.1"
   id="Capa_1"
   x="0px"
   y="0px"
   width="24"
   height="24"
   viewBox="0 0 22.957734 22.957781"
   xml:space="preserve"
   sodipodi:docname="diagnosis.svg"
   inkscape:version="0.92.2 2405546, 2018-03-11"><metadata
   id="metadata57"><rdf:RDF><cc:Work
       rdf:about=""><dc:format>image/svg+xml</dc:format><dc:type
         rdf:resource="http://purl.org/dc/dcmitype/StillImage" /><dc:title></dc:title></cc:Work></rdf:RDF></metadata><defs
   id="defs55">
	

		
		
		
		
		
		
	
			
			
		</defs><sodipodi:namedview
   pagecolor="#ffffff"
   bordercolor="#666666"
   borderopacity="1"
   objecttolerance="10"
   gridtolerance="10"
   guidetolerance="10"
   inkscape:pageopacity="0"
   inkscape:pageshadow="2"
   inkscape:window-width="2560"
   inkscape:window-height="1347"
   id="namedview53"
   showgrid="false"
   inkscape:zoom="10.429825"
   inkscape:cx="37.339167"
   inkscape:cy="30.139928"
   inkscape:window-x="0"
   inkscape:window-y="0"
   inkscape:window-maximized="1"
   inkscape:current-layer="Capa_1" />

<g
   id="g22"
   transform="translate(0,-466.80822)">
</g>
<g
   id="g24"
   transform="translate(0,-466.80822)">
</g>
<g
   id="g26"
   transform="translate(0,-466.80822)">
</g>
<g
   id="g28"
   transform="translate(0,-466.80822)">
</g>
<g
   id="g30"
   transform="translate(0,-466.80822)">
</g>
<g
   id="g32"
   transform="translate(0,-466.80822)">
</g>
<g
   id="g34"
   transform="translate(0,-466.80822)">
</g>
<g
   id="g36"
   transform="translate(0,-466.80822)">
</g>
<g
   id="g38"
   transform="translate(0,-466.80822)">
</g>
<g
   id="g40"
   transform="translate(0,-466.80822)">
</g>
<g
   id="g42"
   transform="translate(0,-466.80822)">
</g>
<g
   id="g44"
   transform="translate(0,-466.80822)">
</g>
<g
   id="g46"
   transform="translate(0,-466.80822)">
</g>
<g
   id="g48"
   transform="translate(0,-466.80822)">
</g>
<g
   id="g50"
   transform="translate(0,-466.80822)">
</g>
<g
   transform="matrix(0.45234102,0,0,0.45234102,0.5125899,0.65280187)"
   id="g6"
   style="fill:#2780e3;fill-opacity:1"><path
     inkscape:connector-curvature="0"
     d="M 32.5,12.4 34.4,7.2 H 26.2 V 2.7 c 0,-1.2 -1,-2.2 -2.2,-2.2 -1.2,0 -2.2,1 -2.2,2.2 v 4.5 h -8.2 l 1.9,5.2 z"
     id="path2-3"
     style="fill:#2780e3;fill-opacity:1" /><path
     inkscape:connector-curvature="0"
     d="m 41.9,7.2 h -2.7 l -3,8.2 c -0.3,0.9 -1.2,1.5 -2.1,1.5 H 13.9 c -0.9,0 -1.8,-0.6 -2.1,-1.5 L 8.8,7.2 H 6.1 C 5.5,7.2 5,7.7 5,8.3 v 38 c 0,0.6 0.5,1.1 1.1,1.1 h 35.8 c 0.6,0 1.1,-0.5 1.1,-1.1 V 8.3 C 43,7.7 42.5,7.2 41.9,7.2 Z M 34.6,41.8 H 14.1 c -1.2,0 -2.2,-1 -2.2,-2.2 0,-1.2 1,-2.2 2.2,-2.2 h 20.5 c 1.2,0 2.2,1 2.2,2.2 0,1.2 -1,2.2 -2.2,2.2 z m 0,-12.6 H 14.1 c -1.2,0 -2.2,-1 -2.2,-2.2 0,-1.2 1,-2.2 2.2,-2.2 h 20.5 c 1.2,0 2.2,1 2.2,2.2 0,1.2 -1,2.2 -2.2,2.2 z"
     id="path4-6"
     style="fill:#2780e3;fill-opacity:1" /></g></svg>