<?xml version="1.0" encoding="iso-8859-1"?>
<!-- Generator: Adobe Illustrator 19.0.0, SVG Export Plug-In . SVG Version: 6.00 Build 0)  -->
<svg version="1.1" id="Capa_1" xmlns="http://www.w3.org/2000/svg" xmlns:xlink="http://www.w3.org/1999/xlink" x="0px" y="0px"
	 viewBox="0 0 512.064 512.064" style="enable-background:new 0 0 512.064 512.064;" xml:space="preserve">
<path style="fill:#F2F2F2;" d="M394.699,170.731v288H96.032v-288v-32h32h234.667h32V170.731z"/>
<path style="fill:#D9EEF7;" d="M362.699,96.064v42.667H128.032V96.064h32h128h42.667H362.699z"/>
<path style="fill:#F2F2F2;" d="M330.699,74.731v21.333H160.032V53.397h42.667c0-23.564,19.103-42.667,42.667-42.667
	s42.667,19.103,42.667,42.667h42.667V74.731z"/>
<path style="fill:#FFE451;" d="M330.699,74.731h96c5.891,0,10.667,4.776,10.667,10.667v405.333c0,5.891-4.776,10.667-10.667,10.667
	H64.032c-5.891,0-10.667-4.776-10.667-10.667V85.397c0-5.891,4.776-10.667,10.667-10.667h96v21.333h-32v42.667h-32v320h298.667v-320
	h-32V96.064h-32V74.731z"/>
<g>
	<path style="fill:#AAC4DA;" d="M362.699,330.731h85.333c5.891,0,10.667,4.776,10.667,10.667v21.333
		c0,5.891-4.776,10.667-10.667,10.667h-85.333c-5.891,0-10.667-4.776-10.667-10.667v-21.333
		C352.032,335.506,356.808,330.731,362.699,330.731z"/>
	<path style="fill:#AAC4DA;" d="M362.699,416.064h85.333c5.891,0,10.667,4.776,10.667,10.667v21.333
		c0,5.891-4.776,10.667-10.667,10.667h-85.333c-5.891,0-10.667-4.776-10.667-10.667v-21.333
		C352.032,420.84,356.808,416.064,362.699,416.064z"/>
	<path style="fill:#AAC4DA;" d="M256.032,458.731h85.333c5.891,0,10.667,4.776,10.667,10.667v21.333
		c0,5.891-4.776,10.667-10.667,10.667h-85.333c-5.891,0-10.667-4.776-10.667-10.667v-21.333
		C245.365,463.506,250.141,458.731,256.032,458.731z"/>
	<path style="fill:#AAC4DA;" d="M256.032,373.397h85.333c5.891,0,10.667,4.776,10.667,10.667v21.333
		c0,5.891-4.776,10.667-10.667,10.667h-85.333c-5.891,0-10.667-4.776-10.667-10.667v-21.333
		C245.365,378.173,250.141,373.397,256.032,373.397z"/>
	<path style="fill:#AAC4DA;" d="M256.032,288.064h85.333c5.891,0,10.667,4.776,10.667,10.667v21.333
		c0,5.891-4.776,10.667-10.667,10.667h-85.333c-5.891,0-10.667-4.776-10.667-10.667v-21.333
		C245.365,292.84,250.141,288.064,256.032,288.064z"/>
</g>
<g>
	<path style="fill:#D9EEF7;" d="M362.699,373.397h85.333c5.891,0,10.667,4.776,10.667,10.667v21.333
		c0,5.891-4.776,10.667-10.667,10.667h-85.333c-5.891,0-10.667-4.776-10.667-10.667v-21.333
		C352.032,378.173,356.808,373.397,362.699,373.397z"/>
	<path style="fill:#D9EEF7;" d="M362.699,458.731h85.333c5.891,0,10.667,4.776,10.667,10.667v21.333
		c0,5.891-4.776,10.667-10.667,10.667h-85.333c-5.891,0-10.667-4.776-10.667-10.667v-21.333
		C352.032,463.506,356.808,458.731,362.699,458.731z"/>
	<path style="fill:#D9EEF7;" d="M256.032,416.064h85.333c5.891,0,10.667,4.776,10.667,10.667v21.333
		c0,5.891-4.776,10.667-10.667,10.667h-85.333c-5.891,0-10.667-4.776-10.667-10.667v-21.333
		C245.365,420.84,250.141,416.064,256.032,416.064z"/>
	<path style="fill:#D9EEF7;" d="M256.032,330.731h85.333c5.891,0,10.667,4.776,10.667,10.667v21.333
		c0,5.891-4.776,10.667-10.667,10.667h-85.333c-5.891,0-10.667-4.776-10.667-10.667v-21.333
		C245.365,335.506,250.141,330.731,256.032,330.731z"/>
	<path style="fill:#D9EEF7;" d="M256.032,245.397h85.333c5.891,0,10.667,4.776,10.667,10.667v21.333
		c0,5.891-4.776,10.667-10.667,10.667h-85.333c-5.891,0-10.667-4.776-10.667-10.667v-21.333
		C245.365,250.173,250.141,245.397,256.032,245.397z"/>
</g>
<path style="fill:#69F0F7;" d="M213.365,298.731v42.667h-21.333v42.667c0,5.891-4.776,10.667-10.667,10.667h-21.333
	c-5.891,0-10.667-4.776-10.667-10.667v-42.667h-42.667c-5.891,0-10.667-4.776-10.667-10.667v-21.333
	c0-5.891,4.776-10.667,10.667-10.667h42.667v-42.667c0-5.891,4.776-10.667,10.667-10.667h21.333c5.891,0,10.667,4.776,10.667,10.667
	v42.667H213.365z"/>
<g>
	<path style="fill:#4C5B66;" d="M128.032,149.397h234.667c5.891,0,10.667-4.776,10.667-10.667V96.064
		c0-5.891-4.776-10.667-10.667-10.667h-21.333v-32c0-5.891-4.776-10.667-10.667-10.667h-33.067
		c-5.862-28.866-34.014-47.515-62.88-41.654c-20.988,4.262-37.392,20.665-41.654,41.654h-33.067
		c-5.891,0-10.667,4.776-10.667,10.667v32h-21.333c-5.891,0-10.667,4.776-10.667,10.667v42.667
		C117.365,144.622,122.141,149.397,128.032,149.397L128.032,149.397z M138.699,106.731h149.333V85.397H170.699V64.064h32
		c5.891,0,10.667-4.776,10.667-10.667c0-17.673,14.327-32,32-32s32,14.327,32,32c0,5.891,4.776,10.667,10.667,10.667h32v32
		c0,5.891,4.776,10.667,10.667,10.667h21.333v21.333H138.699V106.731z"/>
	<path style="fill:#4C5B66;" d="M234.699,42.731h21.333v21.333h-21.333V42.731z"/>
	<path style="fill:#4C5B66;" d="M426.699,298.731h21.333V85.397c0-11.782-9.551-21.333-21.333-21.333h-42.667v21.333h42.667V298.731
		z"/>
	<path style="fill:#4C5B66;" d="M64.032,85.397h42.667V64.064H64.032c-11.782,0-21.333,9.551-21.333,21.333v405.333
		c0,11.782,9.551,21.333,21.333,21.333h149.333v-21.333H64.032V85.397z"/>
	<path style="fill:#4C5B66;" d="M85.365,170.731h21.333v96H85.365V170.731z"/>
	<path style="fill:#4C5B66;" d="M106.699,373.397H85.365v85.333c0,5.891,4.776,10.667,10.667,10.667h117.333v-21.333H106.699
		V373.397z"/>
	<path style="fill:#4C5B66;" d="M384.032,170.731h21.333v128h-21.333V170.731z"/>
	<path style="fill:#4C5B66;" d="M469.365,341.397c0-11.782-9.551-21.333-21.333-21.333h-85.333v-21.333
		c-0.021-3.756-1.045-7.438-2.965-10.667c1.92-3.228,2.944-6.911,2.965-10.667v-21.333c0-11.782-9.551-21.333-21.333-21.333h-85.333
		c-11.782,0-21.333,9.551-21.333,21.333v21.333c0.021,3.756,1.045,7.438,2.965,10.667c-1.92,3.228-2.944,6.911-2.965,10.667v21.333
		c0.021,3.756,1.045,7.438,2.965,10.667c-1.92,3.228-2.944,6.911-2.965,10.667v21.333c0.021,3.756,1.045,7.438,2.965,10.667
		c-1.92,3.228-2.944,6.911-2.965,10.667v21.333c0.021,3.756,1.045,7.438,2.965,10.667c-1.92,3.228-2.944,6.911-2.965,10.667v21.333
		c0.021,3.756,1.045,7.438,2.965,10.667c-1.92,3.228-2.944,6.911-2.965,10.667v21.333c0,11.782,9.551,21.333,21.333,21.333h85.333
		c3.756-0.021,7.438-1.045,10.667-2.965c3.228,1.92,6.911,2.944,10.667,2.965h85.333c11.782,0,21.333-9.551,21.333-21.333v-21.333
		c-0.021-3.756-1.045-7.438-2.965-10.667c1.92-3.228,2.944-6.911,2.965-10.667v-21.333c-0.021-3.756-1.045-7.438-2.965-10.667
		c1.92-3.228,2.944-6.911,2.965-10.667v-21.333c-0.021-3.756-1.045-7.438-2.965-10.667c1.92-3.228,2.944-6.911,2.965-10.667V341.397
		z M448.032,341.397v21.333h-85.333v-21.333H448.032z M448.032,405.397h-85.333v-21.333h85.333V405.397z M448.032,448.064h-85.333
		v-21.333h85.333V448.064z M256.032,426.731h85.333v21.333h-85.333V426.731z M256.032,384.064h85.333v21.333h-85.333V384.064z
		 M256.032,341.397h85.333v21.333h-85.333V341.397z M256.032,298.731h85.333v21.333h-85.333V298.731z M256.032,256.064h85.333
		v21.333h-85.333V256.064z M256.032,490.731v-21.333h85.333v21.333H256.032z M448.032,490.731h-85.333v-21.333h85.333V490.731z"/>
	<path style="fill:#4C5B66;" d="M202.699,256.064c0-11.782-9.551-21.333-21.333-21.333h-21.333
		c-11.782,0-21.333,9.551-21.333,21.333v32h-32c-11.782,0-21.333,9.551-21.333,21.333v21.333c0,11.782,9.551,21.333,21.333,21.333
		h32v32c0,11.782,9.551,21.333,21.333,21.333h21.333c11.782,0,21.333-9.551,21.333-21.333v-32h10.667v-21.333h-21.333
		c-5.891,0-10.667,4.776-10.667,10.667v42.667h-21.333v-42.667c0-5.891-4.776-10.667-10.667-10.667h-42.667v-21.333h42.667
		c5.891,0,10.667-4.776,10.667-10.667v-42.667h21.333v42.667c0,5.891,4.776,10.667,10.667,10.667h21.333v-21.333h-10.667V256.064z"
		/>
</g>
<g>
</g>
<g>
</g>
<g>
</g>
<g>
</g>
<g>
</g>
<g>
</g>
<g>
</g>
<g>
</g>
<g>
</g>
<g>
</g>
<g>
</g>
<g>
</g>
<g>
</g>
<g>
</g>
<g>
</g>
</svg>
