<?xml version="1.0" encoding="UTF-8" standalone="no"?>
<svg
   xmlns:dc="http://purl.org/dc/elements/1.1/"
   xmlns:cc="http://creativecommons.org/ns#"
   xmlns:rdf="http://www.w3.org/1999/02/22-rdf-syntax-ns#"
   xmlns:svg="http://www.w3.org/2000/svg"
   xmlns="http://www.w3.org/2000/svg"
   xmlns:sodipodi="http://sodipodi.sourceforge.net/DTD/sodipodi-0.dtd"
   xmlns:inkscape="http://www.inkscape.org/namespaces/inkscape"
   inkscape:version="1.0 (4035a4fb49, 2020-05-01)"
   height="24"
   width="24"
   sodipodi:docname="diagnosis.svg"
   xml:space="preserve"
   viewBox="0 0 23.999999 23.999999"
   y="0px"
   x="0px"
   id="Capa_1"
   version="1.1"><metadata
   id="metadata91"><rdf:RDF><cc:Work
       rdf:about=""><dc:format>image/svg+xml</dc:format><dc:type
         rdf:resource="http://purl.org/dc/dcmitype/StillImage" /><dc:title></dc:title></cc:Work></rdf:RDF></metadata><defs
   id="defs89" /><sodipodi:namedview
   inkscape:current-layer="Capa_1"
   inkscape:window-maximized="1"
   inkscape:window-y="0"
   inkscape:window-x="0"
   inkscape:cy="10.800628"
   inkscape:cx="15.285881"
   inkscape:zoom="15.748031"
   showgrid="false"
   id="namedview87"
   inkscape:window-height="1417"
   inkscape:window-width="2560"
   inkscape:pageshadow="2"
   inkscape:pageopacity="0"
   guidetolerance="10"
   gridtolerance="10"
   objecttolerance="10"
   borderopacity="1"
   bordercolor="#666666"
   pagecolor="#ffffff" />
<path
   id="path2"
   d="M 18.771964,8.0319182 V 21.345028 H 4.9659094 V 8.0319182 6.5526838 h 1.4792188 10.8476168 1.479219 z"
   style="fill:#f2f2f2;stroke-width:0.0462259" />
<path
   id="path4"
   d="m 17.292745,4.5803558 v 1.972328 H 6.4451282 v -1.972328 h 1.4792179 5.9168739 1.972307 z"
   style="fill:#d9eef7;stroke-width:0.0462259" />
<path
   id="path6"
   d="M 15.813527,3.594215 V 4.5803558 H 7.9243461 V 2.6080279 h 1.9723068 c 0,-1.0892712 0.8830471,-1.97232797 1.9723071,-1.97232797 1.089259,0 1.972307,0.88305677 1.972307,1.97232797 h 1.972306 V 3.594215 Z"
   style="fill:#f2f2f2;stroke-width:0.0462259" />
<path
   id="path8"
   d="m 15.813527,3.594215 h 4.437655 c 0.272315,0 0.493088,0.2207757 0.493088,0.4930935 V 22.824261 c 0,0.272319 -0.220773,0.493094 -0.493088,0.493094 H 3.4866906 c -0.2723145,0 -0.493088,-0.220775 -0.493088,-0.493094 V 4.0872624 c 0,-0.2723179 0.2207735,-0.4930936 0.493088,-0.4930936 H 7.9243461 V 4.5803096 H 6.4451282 v 1.972328 H 4.9659094 V 21.344981 H 18.771964 V 6.5526376 H 17.292745 V 4.5803558 h -1.479218 z"
   style="fill:#ffe451;stroke-width:0.0462259" />
<g
   transform="matrix(0.04622558,0,0,0.04622608,0.52677468,0.13969414)"
   id="g20">
	<path
   id="path10"
   d="m 362.699,330.731 h 85.333 c 5.891,0 10.667,4.776 10.667,10.667 v 21.333 c 0,5.891 -4.776,10.667 -10.667,10.667 h -85.333 c -5.891,0 -10.667,-4.776 -10.667,-10.667 v -21.333 c 0,-5.892 4.776,-10.667 10.667,-10.667 z"
   style="fill:#aac4da" />
	<path
   id="path12"
   d="m 362.699,416.064 h 85.333 c 5.891,0 10.667,4.776 10.667,10.667 v 21.333 c 0,5.891 -4.776,10.667 -10.667,10.667 h -85.333 c -5.891,0 -10.667,-4.776 -10.667,-10.667 v -21.333 c 0,-5.891 4.776,-10.667 10.667,-10.667 z"
   style="fill:#aac4da" />
	<path
   id="path14"
   d="m 256.032,458.731 h 85.333 c 5.891,0 10.667,4.776 10.667,10.667 v 21.333 c 0,5.891 -4.776,10.667 -10.667,10.667 h -85.333 c -5.891,0 -10.667,-4.776 -10.667,-10.667 v -21.333 c 0,-5.892 4.776,-10.667 10.667,-10.667 z"
   style="fill:#aac4da" />
	<path
   id="path16"
   d="m 256.032,373.397 h 85.333 c 5.891,0 10.667,4.776 10.667,10.667 v 21.333 c 0,5.891 -4.776,10.667 -10.667,10.667 h -85.333 c -5.891,0 -10.667,-4.776 -10.667,-10.667 v -21.333 c 0,-5.891 4.776,-10.667 10.667,-10.667 z"
   style="fill:#aac4da" />
	<path
   id="path18"
   d="m 256.032,288.064 h 85.333 c 5.891,0 10.667,4.776 10.667,10.667 v 21.333 c 0,5.891 -4.776,10.667 -10.667,10.667 h -85.333 c -5.891,0 -10.667,-4.776 -10.667,-10.667 v -21.333 c 0,-5.891 4.776,-10.667 10.667,-10.667 z"
   style="fill:#aac4da" />
</g>
<g
   transform="matrix(0.04622558,0,0,0.04622608,0.52677468,0.13969414)"
   id="g32">
	<path
   id="path22"
   d="m 362.699,373.397 h 85.333 c 5.891,0 10.667,4.776 10.667,10.667 v 21.333 c 0,5.891 -4.776,10.667 -10.667,10.667 h -85.333 c -5.891,0 -10.667,-4.776 -10.667,-10.667 v -21.333 c 0,-5.891 4.776,-10.667 10.667,-10.667 z"
   style="fill:#d9eef7" />
	<path
   id="path24"
   d="m 362.699,458.731 h 85.333 c 5.891,0 10.667,4.776 10.667,10.667 v 21.333 c 0,5.891 -4.776,10.667 -10.667,10.667 h -85.333 c -5.891,0 -10.667,-4.776 -10.667,-10.667 v -21.333 c 0,-5.892 4.776,-10.667 10.667,-10.667 z"
   style="fill:#d9eef7" />
	<path
   id="path26"
   d="m 256.032,416.064 h 85.333 c 5.891,0 10.667,4.776 10.667,10.667 v 21.333 c 0,5.891 -4.776,10.667 -10.667,10.667 h -85.333 c -5.891,0 -10.667,-4.776 -10.667,-10.667 v -21.333 c 0,-5.891 4.776,-10.667 10.667,-10.667 z"
   style="fill:#d9eef7" />
	<path
   id="path28"
   d="m 256.032,330.731 h 85.333 c 5.891,0 10.667,4.776 10.667,10.667 v 21.333 c 0,5.891 -4.776,10.667 -10.667,10.667 h -85.333 c -5.891,0 -10.667,-4.776 -10.667,-10.667 v -21.333 c 0,-5.892 4.776,-10.667 10.667,-10.667 z"
   style="fill:#d9eef7" />
	<path
   id="path30"
   d="m 256.032,245.397 h 85.333 c 5.891,0 10.667,4.776 10.667,10.667 v 21.333 c 0,5.891 -4.776,10.667 -10.667,10.667 h -85.333 c -5.891,0 -10.667,-4.776 -10.667,-10.667 v -21.333 c 0,-5.891 4.776,-10.667 10.667,-10.667 z"
   style="fill:#d9eef7" />
</g>
<path
   id="path34"
   d="m 10.389695,13.948855 v 1.972327 H 9.4035649 v 1.972329 c 0,0.272318 -0.2207735,0.493094 -0.4930888,0.493094 h -0.98613 c -0.2723144,0 -0.493088,-0.220776 -0.493088,-0.493094 V 15.921182 H 5.4589514 c -0.2723153,0 -0.493088,-0.220775 -0.493088,-0.493092 v -0.986141 c 0,-0.272319 0.2207727,-0.493094 0.493088,-0.493094 h 1.9723067 v -1.972327 c 0,-0.272319 0.2207736,-0.493095 0.493088,-0.493095 h 0.98613 c 0.2723153,0 0.4930888,0.220776 0.4930888,0.493095 v 1.972327 z"
   style="fill:#69f0f7;stroke-width:0.0462259" />
<g
   transform="matrix(0.04622558,0,0,0.04622608,0.52677468,0.13969414)"
   id="g54">
	<path
   id="path36"
   d="m 128.032,149.397 h 234.667 c 5.891,0 10.667,-4.776 10.667,-10.667 V 96.064 c 0,-5.891 -4.776,-10.667 -10.667,-10.667 h -21.333 v -32 c 0,-5.891 -4.776,-10.667 -10.667,-10.667 H 297.632 C 291.77,13.864 263.618,-4.785 234.752,1.076 213.764,5.338 197.36,21.741 193.098,42.73 h -33.067 c -5.891,0 -10.667,4.776 -10.667,10.667 v 32 h -21.333 c -5.891,0 -10.667,4.776 -10.667,10.667 v 42.667 c 10e-4,5.891 4.777,10.666 10.668,10.666 z m 10.667,-42.666 H 288.032 V 85.397 H 170.699 V 64.064 h 32 c 5.891,0 10.667,-4.776 10.667,-10.667 0,-17.673 14.327,-32 32,-32 17.673,0 32,14.327 32,32 0,5.891 4.776,10.667 10.667,10.667 h 32 v 32 c 0,5.891 4.776,10.667 10.667,10.667 h 21.333 v 21.333 H 138.699 Z"
   style="fill:#4c5b66" />
	<path
   id="path38"
   d="m 234.699,42.731 h 21.333 v 21.333 h -21.333 z"
   style="fill:#4c5b66" />
	<path
   id="path40"
   d="m 426.699,298.731 h 21.333 V 85.397 c 0,-11.782 -9.551,-21.333 -21.333,-21.333 h -42.667 v 21.333 h 42.667 z"
   style="fill:#4c5b66" />
	<path
   id="path42"
   d="m 64.032,85.397 h 42.667 V 64.064 H 64.032 c -11.782,0 -21.333,9.551 -21.333,21.333 V 490.73 c 0,11.782 9.551,21.333 21.333,21.333 H 213.365 V 490.73 H 64.032 Z"
   style="fill:#4c5b66" />
	<path
   id="path44"
   d="m 85.365,170.731 h 21.333 v 96 H 85.365 Z"
   style="fill:#4c5b66" />
	<path
   id="path46"
   d="M 106.699,373.397 H 85.365 v 85.333 c 0,5.891 4.776,10.667 10.667,10.667 H 213.365 V 448.064 H 106.699 Z"
   style="fill:#4c5b66" />
	<path
   id="path48"
   d="m 384.032,170.731 h 21.333 v 128 h -21.333 z"
   style="fill:#4c5b66" />
	<path
   id="path50"
   d="m 469.365,341.397 c 0,-11.782 -9.551,-21.333 -21.333,-21.333 h -85.333 v -21.333 c -0.021,-3.756 -1.045,-7.438 -2.965,-10.667 1.92,-3.228 2.944,-6.911 2.965,-10.667 v -21.333 c 0,-11.782 -9.551,-21.333 -21.333,-21.333 h -85.333 c -11.782,0 -21.333,9.551 -21.333,21.333 v 21.333 c 0.021,3.756 1.045,7.438 2.965,10.667 -1.92,3.228 -2.944,6.911 -2.965,10.667 v 21.333 c 0.021,3.756 1.045,7.438 2.965,10.667 -1.92,3.228 -2.944,6.911 -2.965,10.667 v 21.333 c 0.021,3.756 1.045,7.438 2.965,10.667 -1.92,3.228 -2.944,6.911 -2.965,10.667 v 21.333 c 0.021,3.756 1.045,7.438 2.965,10.667 -1.92,3.228 -2.944,6.911 -2.965,10.667 v 21.333 c 0.021,3.756 1.045,7.438 2.965,10.667 -1.92,3.228 -2.944,6.911 -2.965,10.667 v 21.333 c 0,11.782 9.551,21.333 21.333,21.333 h 85.333 c 3.756,-0.021 7.438,-1.045 10.667,-2.965 3.228,1.92 6.911,2.944 10.667,2.965 h 85.333 c 11.782,0 21.333,-9.551 21.333,-21.333 v -21.333 c -0.021,-3.756 -1.045,-7.438 -2.965,-10.667 1.92,-3.228 2.944,-6.911 2.965,-10.667 v -21.333 c -0.021,-3.756 -1.045,-7.438 -2.965,-10.667 1.92,-3.228 2.944,-6.911 2.965,-10.667 v -21.333 c -0.021,-3.756 -1.045,-7.438 -2.965,-10.667 1.92,-3.228 2.944,-6.911 2.965,-10.667 v -21.334 z m -21.333,0 v 21.333 h -85.333 v -21.333 z m 0,64 h -85.333 v -21.333 h 85.333 z m 0,42.667 h -85.333 v -21.333 h 85.333 z m -192,-21.333 h 85.333 v 21.333 h -85.333 z m 0,-42.667 h 85.333 v 21.333 h -85.333 z m 0,-42.667 h 85.333 v 21.333 h -85.333 z m 0,-42.666 h 85.333 v 21.333 h -85.333 z m 0,-42.667 h 85.333 v 21.333 h -85.333 z m 0,234.667 v -21.333 h 85.333 v 21.333 z m 192,0 h -85.333 v -21.333 h 85.333 z"
   style="fill:#4c5b66" />
	<path
   id="path52"
   d="m 202.699,256.064 c 0,-11.782 -9.551,-21.333 -21.333,-21.333 h -21.333 c -11.782,0 -21.333,9.551 -21.333,21.333 v 32 h -32 c -11.782,0 -21.333,9.551 -21.333,21.333 v 21.333 c 0,11.782 9.551,21.333 21.333,21.333 h 32 v 32 c 0,11.782 9.551,21.333 21.333,21.333 h 21.333 c 11.782,0 21.333,-9.551 21.333,-21.333 v -32 h 10.667 V 330.73 h -21.333 c -5.891,0 -10.667,4.776 -10.667,10.667 v 42.667 h -21.333 v -42.667 c 0,-5.891 -4.776,-10.667 -10.667,-10.667 h -42.667 v -21.333 h 42.667 c 5.891,0 10.667,-4.776 10.667,-10.667 v -42.667 h 21.333 v 42.667 c 0,5.891 4.776,10.667 10.667,10.667 h 21.333 v -21.333 h -10.667 z"
   style="fill:#4c5b66" />
</g>
<g
   id="g56">
</g>
<g
   id="g58">
</g>
<g
   id="g60">
</g>
<g
   id="g62">
</g>
<g
   id="g64">
</g>
<g
   id="g66">
</g>
<g
   id="g68">
</g>
<g
   id="g70">
</g>
<g
   id="g72">
</g>
<g
   id="g74">
</g>
<g
   id="g76">
</g>
<g
   id="g78">
</g>
<g
   id="g80">
</g>
<g
   id="g82">
</g>
<g
   id="g84">
</g>
</svg>
