<?xml version="1.0" encoding="UTF-8" standalone="no"?>
<!-- Generator: Adobe Illustrator 16.0.0, SVG Export Plug-In . SVG Version: 6.00 Build 0)  -->

<svg
   xmlns:dc="http://purl.org/dc/elements/1.1/"
   xmlns:cc="http://creativecommons.org/ns#"
   xmlns:rdf="http://www.w3.org/1999/02/22-rdf-syntax-ns#"
   xmlns:svg="http://www.w3.org/2000/svg"
   xmlns="http://www.w3.org/2000/svg"
   xmlns:sodipodi="http://sodipodi.sourceforge.net/DTD/sodipodi-0.dtd"
   xmlns:inkscape="http://www.inkscape.org/namespaces/inkscape"
   version="1.1"
   id="Capa_1"
   x="0px"
   y="0px"
   width="512px"
   height="512px"
   viewBox="0 0 193.324 193.324"
   style="enable-background:new 0 0 193.324 193.324;"
   xml:space="preserve"
   sodipodi:docname="diet.svg"
   inkscape:version="0.92.2 2405546, 2018-03-11"><metadata
   id="metadata41"><rdf:RDF><cc:Work
       rdf:about=""><dc:format>image/svg+xml</dc:format><dc:type
         rdf:resource="http://purl.org/dc/dcmitype/StillImage" /></cc:Work></rdf:RDF></metadata><defs
   id="defs39">
	
</defs><sodipodi:namedview
   pagecolor="#ffffff"
   bordercolor="#666666"
   borderopacity="1"
   objecttolerance="10"
   gridtolerance="10"
   guidetolerance="10"
   inkscape:pageopacity="0"
   inkscape:pageshadow="2"
   inkscape:window-width="2485"
   inkscape:window-height="1399"
   id="namedview37"
   showgrid="false"
   inkscape:zoom="0.46093749"
   inkscape:cx="948.93629"
   inkscape:cy="4.9535216"
   inkscape:window-x="75"
   inkscape:window-y="0"
   inkscape:window-maximized="1"
   inkscape:current-layer="Capa_1" />
<path
   style="fill:#6a6c6c;fill-opacity:1;stroke-width:0.97840124"
   inkscape:connector-curvature="0"
   id="path2-3"
   d="M 97.55648,181.90986 H 27.295777 c -1.69076,0 -3.06499,-1.37017 -3.06499,-3.03639 V 36.858358 c 0,-1.675956 1.37325,-3.036392 3.06499,-3.036392 h 25.87838 v -8.342774 c 0,-1.674982 1.373247,-3.035418 3.064985,-3.035418 H 68.796931 V 22.29283 c -9.83e-4,-8.95239 7.355768,-16.230771 16.391478,-16.230771 9.031779,0 16.388531,7.278381 16.388531,16.229798 V 22.4428 h 12.55189 c 1.69469,0 3.06498,1.360436 3.06498,3.035418 v 8.342774 h 25.87544 c 1.6937,0 3.064,1.360436 3.064,3.036392 v 74.462696 c -6.12997,0.56579 -50.168685,67.94246 -48.57677,70.58978 z M 111.06385,28.520453 c -70.44992,114.183457 -35.224963,57.091728 0,0 z M 92.46947,175.83708 c 2.636742,2.44173 48.56355,-60.86494 47.53381,-63.95121 V 39.893776 h -22.80946 v 6.522691 c 0,1.674985 -1.37129,3.036391 -3.06499,3.036391 H 56.238159 c -1.690755,0 -3.064985,-1.360436 -3.064985,-3.036391 V 39.893776 H 30.359777 V 175.83708 Z"
   sodipodi:nodetypes="csssscssccsscsscssccccccccsssscccc" /><path
   style="fill:#18bc9c;stroke-width:0.97840124"
   inkscape:connector-curvature="0"
   id="path2"
   d="m 40.51217,68.10457 c 0,-1.674982 1.370298,-3.036392 3.064985,-3.036392 h 73.048485 c 1.68879,0 3.06499,1.360436 3.06499,3.036392 0,1.677904 -1.3762,3.036392 -3.06499,3.036392 H 43.577155 C 41.882468,71.139988 40.51217,69.788317 40.51217,68.10457 Z m 3.064985,30.348339 h 37.705807 c 1.690755,0 3.064985,-1.358489 3.064985,-3.036392 0,-1.677904 -1.373247,-3.035418 -3.064985,-3.035418 H 43.577155 c -1.694687,0 -3.064985,1.358488 -3.064985,3.035418 0,1.678877 1.370298,3.036392 3.064985,3.036392 z M 62.906812,119.69402 H 43.577155 c -1.694687,0 -3.064985,1.3692 -3.064985,3.03542 0,1.67887 1.370298,3.03542 3.064985,3.03542 h 19.33064 c 1.690755,0 3.064986,-1.35752 3.064986,-3.03542 -9.83e-4,-1.66622 -1.374231,-3.03542 -3.065969,-3.03542 z m 105.864868,29.92667 c -6.49958,18.64878 -23.51723,38.63268 -38.51187,38.63268 -2.05249,0 -4.02242,-0.37395 -5.85374,-1.13256 -0.59275,-0.2493 -1.17272,-0.53365 -1.77136,-0.89494 -0.59865,0.36129 -1.1737,0.64564 -1.77235,0.89494 -1.83132,0.7479 -3.80715,1.13256 -5.86653,1.13256 -7.52287,0 -15.564774,-5.04052 -22.52636,-12.41629 -8.854828,-7.21485 41.84551,-73.79561 48.57677,-70.58978 3.65774,0.10128 7.47078,0.88423 11.40375,2.50273 17.18378,7.05148 23.14566,22.32109 16.32169,41.87066 z M 87.38246,169.7643 c -4.641713,-6.18478 -8.485232,-13.25281 -10.887677,-20.14361 -6.809222,-19.56223 -0.862089,-34.80749 16.322668,-41.86968 10.088499,-4.13292 19.509549,-3.24966 26.752269,2.37224 v -6.60547 c -1.47253,0.31357 -3.36382,0.59891 -5.47038,0.59891 -3.35792,0 -6.32755,-0.70019 -8.82338,-2.10542 -7.377396,-4.132919 -9.429895,-13.738747 -9.517381,-14.148728 -0.305712,-1.479243 0.532784,-2.962381 1.975824,-3.465849 0.152365,-0.05356 3.836637,-1.337065 8.307307,-1.337065 3.3648,0 6.32756,0.706025 8.81749,2.102492 1.90898,1.070236 3.44147,2.514421 4.71052,4.055989 v -7.479964 c 0,-1.674982 1.3762,-3.036392 3.06499,-3.036392 1.6878,0 3.064,1.360436 3.064,3.036392 v 28.367575 c 2.77107,-2.14631 5.58815,-3.94554 8.9156,-4.69149 55.3762,-5.919502 -11.433,120.69112 -47.23185,64.35007 z m 24.4668,-79.313326 c -2.40638,-1.342907 -6.38653,-1.499693 -9.19496,-1.013754 0.93975,2.369321 2.6826,5.63651 5.63848,7.290068 2.39458,1.340959 6.38653,1.50651 9.19397,1.02057 -0.93287,-2.372242 -2.68063,-5.645274 -5.63749,-7.296884 z m 38.26022,22.909276 c -10.28412,-4.20304 -18.98659,-2.18722 -24.98484,6.10784 -0.0413,0.0536 -0.11895,0.0769 -0.15532,0.12465 -0.1907,0.2493 -0.43055,0.43822 -0.69989,0.61059 -0.11403,0.0769 -0.20348,0.15971 -0.3293,0.21327 -0.38927,0.18405 -0.8326,0.30773 -1.30444,0.30773 -0.46791,0 -0.89158,-0.12368 -1.30542,-0.30773 -0.11305,-0.0536 -0.20348,-0.13634 -0.31653,-0.21327 -0.26934,-0.15971 -0.50919,-0.36129 -0.71267,-0.61059 -0.0423,-0.0477 -0.11403,-0.0711 -0.15531,-0.12465 -5.99825,-8.29603 -14.70073,-10.31185 -24.977963,-6.10784 -9.906645,4.06865 -20.177983,13.31221 -12.878246,34.27968 7.024498,20.15529 25.740769,38.2003 36.228359,33.88333 0.67041,-0.27267 1.3762,-0.7109 2.22059,-1.3692 0.55638,-0.43238 -0.41156,-15.80126 0.25983,-15.80126 10.99218,33.90479 10.1996,-31.31482 29.11115,-50.99255 z"
   sodipodi:nodetypes="ssssscssssssssssssscscscccscccccccccscccsccssscccccccccccccscccccccccc" />
<g
   id="g6">
</g>
<g
   id="g8">
</g>
<g
   id="g10">
</g>
<g
   id="g12">
</g>
<g
   id="g14">
</g>
<g
   id="g16">
</g>
<g
   id="g18">
</g>
<g
   id="g20">
</g>
<g
   id="g22">
</g>
<g
   id="g24">
</g>
<g
   id="g26">
</g>
<g
   id="g28">
</g>
<g
   id="g30">
</g>
<g
   id="g32">
</g>
<g
   id="g34">
</g>
<path
   style="opacity:1;fill:#18bc9c;fill-opacity:1;stroke:none;stroke-width:7.55171871;stroke-miterlimit:4;stroke-dasharray:none;stroke-opacity:1"
   d="m 89.60146,111.81664 37.46742,-3.07189 c 1.52917,-0.12537 2.76949,1.23519 2.76949,2.76949 v 36.44346 c 0,1.5343 -1.42679,2.02704 -2.76949,2.76949 l -32.961988,18.22652 c -1.342697,0.74245 -12.756725,-18.45865 -13.00911,-19.97205 l -2.662301,-15.96422 c -0.252385,-1.5134 9.117975,-21.03289 11.165979,-21.2008 z"
   id="rect831"
   inkscape:connector-curvature="0"
   sodipodi:nodetypes="sssssssss" /></svg>