<?xml version="1.0" encoding="UTF-8" standalone="no"?>
<svg
   xmlns:dc="http://purl.org/dc/elements/1.1/"
   xmlns:cc="http://creativecommons.org/ns#"
   xmlns:rdf="http://www.w3.org/1999/02/22-rdf-syntax-ns#"
   xmlns:svg="http://www.w3.org/2000/svg"
   xmlns="http://www.w3.org/2000/svg"
   xmlns:sodipodi="http://sodipodi.sourceforge.net/DTD/sodipodi-0.dtd"
   xmlns:inkscape="http://www.inkscape.org/namespaces/inkscape"
   inkscape:version="1.0 (4035a4fb49, 2020-05-01)"
   sodipodi:docname="diet.svg"
   id="svg24"
   version="1.1"
   width="24pt"
   viewBox="0 -1 24 23.951613"
   height="24pt">
  <metadata
     id="metadata30">
    <rdf:RDF>
      <cc:Work
         rdf:about="">
        <dc:format>image/svg+xml</dc:format>
        <dc:type
           rdf:resource="http://purl.org/dc/dcmitype/StillImage" />
        <dc:title></dc:title>
      </cc:Work>
    </rdf:RDF>
  </metadata>
  <defs
     id="defs28" />
  <sodipodi:namedview
     inkscape:current-layer="svg24"
     inkscape:window-maximized="1"
     inkscape:window-y="0"
     inkscape:window-x="0"
     inkscape:cy="49.419031"
     inkscape:cx="27.046054"
     inkscape:zoom="6.0967742"
     showgrid="false"
     id="namedview26"
     inkscape:window-height="1417"
     inkscape:window-width="2560"
     inkscape:pageshadow="2"
     inkscape:pageopacity="0"
     guidetolerance="10"
     gridtolerance="10"
     objecttolerance="10"
     borderopacity="1"
     bordercolor="#666666"
     pagecolor="#ffffff" />
  <path
     style="stroke-width:0.0424587"
     id="path2"
     fill="#b4dd7f"
     d="m 11.070568,0.83958905 h 1.35868 c 0,1.12432805 -0.913692,2.03802105 -2.038021,2.03802105 H 9.0325465 c 0,-1.1243282 0.9136929,-2.03802105 2.0380215,-2.03802105 z m 0,0" />
  <path
     style="stroke-width:0.0424587"
     id="path4"
     fill="#fcd770"
     d="m 9.3246165,4.8680307 0.0476,0.0476 0.2580694,-0.2582355 C 9.8986392,4.3890428 10.265509,4.2362907 10.649297,4.2362907 c 0.794941,0 1.440281,0.6453403 1.440281,1.4401154 v 0.4484708 c 0,1.1820455 0.424588,2.323291 1.195646,3.2132665 -0.465388,0.030513 -0.917176,0.1663517 -1.314563,0.3872699 -0.461906,0.2580696 -0.859293,0.6282577 -1.148046,1.0903277 -0.502705,0.804893 -0.771058,1.735669 -0.771058,2.686678 l -0.0204,0.04759 C 9.6541697,13.400584 9.2872991,13.220467 8.9375119,13.009998 L 8.5197244,12.762045 c -0.774541,-0.468871 -1.6645167,-0.713341 -2.5679265,-0.713341 -0.5979059,0 -1.1651285,0.129035 -1.6746338,0.363387 0.00332,-0.553623 0.1053176,-1.100444 0.29887,-1.60995 C 4.7730694,10.279036 5.0651392,9.7899316 5.4388096,9.3618611 6.2234674,8.4685676 6.6548553,7.3170394 6.6548553,6.1248769 V 5.6764061 c 0,-0.3973878 0.1630349,-0.7574581 0.4212708,-1.0190105 0.2613868,-0.2580699 0.6214568,-0.4211049 1.0190106,-0.4211049 0.3837874,0 0.7506575,0.1527521 1.0190104,0.4211049 z m 0,0" />
  <path
     style="stroke-width:0.0424587"
     id="path6"
     fill="#b4dd7f"
     d="m 17.184631,8.3123327 c 0,-2.2519736 1.824068,-4.076042 4.076042,-4.076042 h 0.67934 c 0,2.2519735 -1.824069,4.076042 -4.076042,4.076042 z m 0,0" />
  <path
     style="stroke-width:0.0424587"
     id="path8"
     fill="#d3a06c"
     d="m 15.82595,11.675034 c 0,-0.475505 -0.0272,-0.95101 -0.0748,-1.423197 C 15.615314,8.9576733 15.302844,7.68391 14.817057,6.467864 L 14.467269,5.5949715 h 2.377691 c 0.08824,0.6962572 0.129036,1.3994806 0.129036,2.0992211 0,0.7811749 -0.05423,1.5623509 -0.163035,2.3368914 -0.04412,0.32607 -0.09852,0.64534 -0.163036,0.968093 l -0.135834,0.67254 c -0.105321,0.02372 -0.220753,0.03732 -0.346471,0.03732 -0.122235,0 -0.234353,-0.01361 -0.33967,-0.034 z m 0,0" />
  <path
     style="stroke-width:0.0424587"
     id="path10"
     fill="#ff826e"
     d="m 13.285224,9.3381434 c 0.07132,-0.00351 0.142635,-0.00679 0.213952,-0.00679 0.839059,0 1.640634,0.3328696 2.231739,0.9238096 l 0.02023,-0.0033 c 0.04759,0.472187 0.0748,0.947692 0.0748,1.423197 0.105321,0.0204 0.217435,0.034 0.339671,0.034 0.125717,0 0.241153,-0.01361 0.346471,-0.03732 l 0.135835,-0.67254 c 0.06451,-0.322753 0.118917,-0.642023 0.163035,-0.968092 l 0.034,0.0033 c 0.560423,-0.4517887 1.260164,-0.7030584 1.987104,-0.7030584 0.543505,0 1.069927,0.1393183 1.528515,0.394071 0.461905,0.2580695 0.859293,0.6282564 1.148045,1.0903274 0.502706,0.804892 0.771058,1.735668 0.771058,2.686677 0,1.270447 -0.346469,2.51701 -0.998609,3.607337 l -0.655624,1.093811 c -0.254753,0.424588 -0.461904,0.87621 -0.61814,1.345081 -0.132517,0.397388 -0.383787,0.730257 -0.709857,0.96461 -0.322752,0.231035 -0.72014,0.366871 -1.137928,0.366871 -0.614823,0 -1.192328,-0.288753 -1.5592,-0.777858 l -0.434704,-0.580823 -0.434705,0.580823 c -0.366871,0.489105 -0.944376,0.777858 -1.559199,0.777858 -0.580823,0 -1.114045,-0.258236 -1.477598,-0.679341 l -0.01006,-0.0204 c 0.108632,-0.0408 0.213952,-0.08492 0.31927,-0.129035 0.893292,-0.38047 1.67115,-0.957976 2.292773,-1.671151 0.621623,-0.71334 1.083528,-1.562516 1.338281,-2.500092 l 0.169835,-0.61814 c 0.0272,-0.105321 0.0408,-0.210635 0.0408,-0.315953 0,-0.329387 -0.135836,-0.63174 -0.349788,-0.849175 -0.217435,-0.213952 -0.519788,-0.349787 -0.849175,-0.349787 h -0.0612 c -0.06452,0 -0.132519,0.0068 -0.197036,0.01692 l -1.321364,0.220752 c -0.410986,0.068 -0.828775,0.101999 -1.243079,0.101999 -0.68614,0 -1.362164,-0.0952 -2.017621,-0.275154 -0.261594,-0.07132 -0.51983,-0.159719 -0.774582,-0.261553 l 0.0204,-0.04759 c 0,-0.95101 0.268352,-1.881786 0.771058,-2.686677 0.288753,-0.462077 0.68614,-0.8322652 1.148046,-1.0903348 0.397387,-0.2209182 0.849175,-0.3567535 1.314563,-0.3872699 z m 0,0" />
  <path
     style="stroke-width:0.0424587"
     id="path12"
     fill="#a0d468"
     d="m 4.2771641,12.412091 c 0.5095053,-0.234352 1.0767279,-0.363387 1.6746338,-0.363387 0.9034098,0 1.7933855,0.24447 2.567926,0.713341 l 0.417788,0.247953 c 0.3497872,0.21047 0.7166573,0.390586 1.0936451,0.540023 0.254752,0.101834 0.512988,0.190234 0.774541,0.261552 0.655457,0.179952 1.331481,0.275153 2.017621,0.275153 0.414304,0 0.832093,-0.034 1.243079,-0.101999 l 1.321364,-0.220753 c 0.06451,-0.01006 0.132518,-0.01692 0.197036,-0.01692 h 0.0612 c 0.329387,0 0.63174,0.135837 0.849175,0.349789 0.213952,0.217435 0.349788,0.519788 0.349788,0.849175 0,0.105321 -0.01359,0.210635 -0.0408,0.315953 l -0.169835,0.61814 c -0.254753,0.937575 -0.716658,1.78675 -1.338281,2.500092 -0.621623,0.713175 -1.399481,1.29068 -2.292773,1.67115 -0.105321,0.04412 -0.210636,0.08824 -0.319271,0.129036 -1.182044,0.461904 -2.445691,0.69974 -3.7159712,0.69974 H 8.1934882 c -1.6608679,0 -3.281101,-0.52659 -4.6261816,-1.504799 C 3.0442012,18.99486 2.6264136,18.498954 2.3409779,17.938532 2.0557081,17.374792 1.899473,16.749686 1.899473,16.101028 c 0,-1.10741 0.4483049,-2.116303 1.1684454,-2.849879 0.0068,-0.0068 0.010284,-0.01029 0.017083,-0.01708 0.3429873,-0.33967 0.7438578,-0.621457 1.1921627,-0.821976 z m 0,0" />
  <path
     style="stroke-width:0.0424587"
     id="path14"
     d="m 3.0247963,16.893482 c 0.072976,0.268187 0.18244,0.525427 0.3254066,0.764258 L 3.9333476,17.309114 C 3.8223908,17.123356 3.7371416,16.923336 3.6804194,16.714691 Z m 0,0" />
  <path
     style="stroke-width:0.0424587"
     id="path16"
     d="M 8.9676975,19.181777 H 8.1931566 c -1.3117438,0 -2.5654386,-0.40767 -3.6259128,-1.179059 -0.044117,-0.03185 -0.086576,-0.06518 -0.1280398,-0.09985 L 4.0026749,18.42332 c 0.053405,0.04479 0.1084683,0.08757 0.1651911,0.129035 1.1769041,0.855975 2.5689216,1.308757 4.0249589,1.308757 h 0.7745406 c 1.2560165,0 2.4788635,-0.251103 3.6343715,-0.746013 l -0.267192,-0.624607 c -1.070757,0.458587 -2.203544,0.691283 -3.3668475,0.691281 z m 0,0" />
  <path
     style="stroke-width:0.0424587"
     id="path18"
     d="m 21.073921,12.286042 -0.64816,0.204498 c 0.103321,0.327232 0.155572,0.667897 0.155572,1.012875 0,0.962288 -0.261885,1.907659 -0.757127,2.733449 l -0.656286,1.093313 0.582647,0.349622 0.65612,-1.09348 c 0.558764,-0.931273 0.853986,-1.99722 0.853986,-3.082904 0,-0.414305 -0.06319,-0.823966 -0.186752,-1.217373 z m 0,0" />
  <path
     style="stroke-width:0.0424587"
     id="path20"
     d="m 20.06851,11.715833 c 0.03251,0.05158 0.06335,0.104655 0.09271,0.157563 l 0.594423,-0.329055 c -0.03532,-0.06419 -0.07314,-0.127377 -0.111452,-0.18924 -0.142966,-0.228879 -0.324412,-0.426247 -0.539691,-0.586628 l -0.405348,0.545164 c 0.147112,0.10979 0.27084,0.244636 0.369357,0.402196 z m 0,0" />
  <path
     style="stroke-width:0.0424587"
     id="path22"
     d="M 21.796384,10.63496 C 21.153697,9.6061636 20.04529,8.9916728 18.832065,8.9916728 c -0.560092,0 -1.110397,0.138986 -1.60398,0.3932415 0.02422,-0.2441375 0.04312,-0.4884412 0.05705,-0.732911 h 0.578832 c 2.434745,0 4.415712,-1.9809673 4.415712,-4.4157126 V 3.8966205 h -1.019004 c -1.76519,0 -3.287735,1.0437229 -3.993779,2.5443751 -0.02173,-0.2960506 -0.04793,-0.5922667 -0.08492,-0.8881513 l -0.03715,-0.297543 h -3.179267 l 0.536042,1.3392758 c 0.376325,0.9415563 0.642355,1.9123037 0.803233,2.9021236 -0.539694,-0.3267342 -1.158166,-0.5050279 -1.805663,-0.5050279 -0.01759,0 -0.03499,0.00292 -0.05258,0.00328 C 12.79164,8.1826 12.429248,7.1720475 12.429248,6.1245098 V 5.6775669 c 0,-0.9820251 -0.798921,-1.7809464 -1.780614,-1.7809464 -0.390588,0 -0.7581218,0.1306934 -1.0641234,0.3610654 C 9.5267934,3.9054108 9.4451926,3.5589406 9.3481677,3.2172803 h 1.0430593 c 1.310749,0 2.377691,-1.0666108 2.377691,-2.37769125 V 0.49991886 h -1.69835 c -0.979206,0 -1.8219132,0.59574964 -2.185798,1.44359824 C 8.6286906,1.372148 8.3208644,0.82117914 7.9503455,0.30255191 L 7.3977179,0.6972858 C 8.1266487,1.7182865 8.6154222,2.8646734 8.8565748,4.0732556 8.6208955,3.9614697 8.3644845,3.8966205 8.0957998,3.8966205 c -0.981693,0 -1.7806147,0.7989213 -1.7806147,1.7809464 v 0.446978 c 0,1.1092354 -0.4025291,2.1803245 -1.1331184,3.0152362 C 4.4360529,9.9926052 4.0064894,11.06983 3.9491038,12.196481 3.6661559,12.342101 3.3994617,12.514424 3.1563189,12.715771 2.5574182,11.579999 2.2391432,10.30889 2.2391432,8.9916728 H 1.5598028 c 0,1.4986622 0.3814656,2.9415972 1.0934793,4.2180142 -0.6783453,0.773379 -1.0934793,1.782936 -1.0934793,2.890181 0,1.399813 0.6760233,2.727312 1.8084782,3.550947 1.4112567,1.026474 3.0797539,1.568984 4.8245439,1.568984 h 0.7745406 c 1.2442415,0 2.4594575,-0.215777 3.6207715,-0.639535 0.424257,0.408168 0.98982,0.639535 1.584575,0.639535 0.716491,0 1.400476,-0.341992 1.829873,-0.914689 l 0.163035,-0.217435 0.163035,0.217435 c 0.429399,0.572698 1.113382,0.914689 1.829874,0.914689 0.986006,0 1.858235,-0.628755 2.169709,-1.563842 0.148772,-0.445652 0.346802,-0.875382 0.587624,-1.277579 l 0.655954,-1.092982 c 0.685477,-1.142406 1.047537,-2.449672 1.047537,-3.781981 0,-1.01586 -0.284605,-2.00767 -0.822969,-2.868455 z M 11.070568,1.1792592 h 0.984679 c -0.157562,0.7740432 -0.843703,1.3586807 -1.66402,1.3586807 H 9.4065484 C 9.5641104,1.7637307 10.250251,1.1792592 11.070568,1.1792592 Z M 21.260673,4.575961 h 0.324411 C 21.412928,6.4778155 19.809943,7.9726627 17.863971,7.9726627 H 17.539559 C 17.711717,6.0708082 19.314702,4.575961 21.260673,4.575961 Z m -6.291362,1.3586807 h 1.573296 c 0.177963,1.6691604 0.101671,3.3481069 -0.227884,4.9962023 l -0.08658,0.432716 c -0.02173,0.0013 -0.04047,0.0059 -0.06252,0.0059 -0.0027,0 -0.0051,-6.63e-4 -0.0081,-6.63e-4 C 16.11736,9.6412079 15.775697,7.9516469 15.132346,6.3426918 Z M 5.6935622,9.5870907 C 6.5326203,8.6282856 6.9945255,7.3986401 6.9945255,6.1245449 v -0.446978 c 0,-0.6073595 0.4939148,-1.1016059 1.1012743,-1.1016059 0.2943917,0 0.5708714,0.11444 0.7788531,0.3225868 l 0.1205761,0.120245 c 0.022722,0.2585671 0.037318,0.5184611 0.037318,0.7806771 v 0.035659 C 8.7917254,5.6921621 8.657881,5.4445414 8.6562226,5.4410585 l -0.606696,0.30567 c 0.017414,0.035327 0.4436606,0.8672534 1.3226901,0.8672534 0.8790293,0 1.3052753,-0.8319265 1.3230223,-0.8672534 l -0.606697,-0.30567 c -0.002,0.00349 -0.1355025,0.2514352 -0.3763235,0.3940704 v -0.035659 c 0,-0.2398254 -0.00978,-0.478656 -0.027532,-0.7156622 L 9.8704436,4.8982163 C 10.077762,4.6904005 10.354242,4.575961 10.648634,4.575961 c 0.607359,0 1.101274,0.4942464 1.101274,1.1016059 v 0.446978 c 0,1.0651181 0.326734,2.0970656 0.923146,2.9679681 C 11.795352,9.3038116 11.027777,9.8459898 10.534857,10.63496 10.07743,11.36671 9.805263,12.192997 9.7332823,13.04831 9.52132,12.948464 9.3131722,12.840162 9.1116591,12.719254 L 8.69553,12.469477 C 7.8660911,11.971913 6.9167397,11.709035 5.9506367,11.709035 c -0.4506268,0 -0.8854975,0.06866 -1.2946607,0.19521 0.1083035,-0.854483 0.4648904,-1.662526 1.0375862,-2.3171543 z M 8.1928249,20.540459 c -1.6008285,0 -3.1310028,-0.497565 -4.425166,-1.438789 -0.956815,-0.696424 -1.5285157,-1.818596 -1.5285157,-3.001802 0,-0.859293 0.2962162,-1.649092 0.7883067,-2.278842 0.2841089,0.422598 0.606696,0.823137 0.9667664,1.19631 -0.1089668,0.04627 -0.2272209,0.07132 -0.3468019,0.07132 H 3.1962899 v 0.67934 h 0.4511245 c 0.4133096,0 0.8179947,-0.167347 1.1100646,-0.459914 0.2965479,-0.296714 0.4599147,-0.690784 0.4599147,-1.109898 v -0.45113 H 4.5380534 v 0.451457 c 0,0.116097 -0.022722,0.228878 -0.06518,0.333533 -0.3638851,-0.37848 -0.6861404,-0.786648 -0.9651079,-1.219529 0.6536329,-0.573359 1.5071205,-0.924141 2.442872,-0.924141 0.8432048,0 1.67198,0.22921 2.3954376,0.663418 l 0.4161291,0.249612 c 1.5988378,0.959137 3.5247418,1.324017 5.3585948,1.017351 l 1.323354,-0.220421 c 0.0466,-0.0076 0.0937,-0.01158 0.141308,-0.01158 h 0.06153 c 0.473184,0 0.858299,0.385113 0.858299,0.858628 0,0.07613 -0.01006,0.152255 -0.03019,0.225894 l -0.168839,0.619299 c -0.48612,1.782276 -1.73882,3.221725 -3.436507,3.949332 -1.240095,0.53123 -2.553331,0.800579 -3.9020599,0.800579 z M 20.989335,16.935941 20.33338,18.028923 c -0.266694,0.444325 -0.485456,0.919166 -0.649487,1.412086 -0.219093,0.657447 -0.832092,1.09945 -1.525364,1.09945 -0.503535,0 -0.984347,-0.24049 -1.286369,-0.643351 l -0.70654,-0.941888 -0.706541,0.941888 c -0.30202,0.402861 -0.782833,0.643351 -1.286367,0.643351 -0.309319,0 -0.603545,-0.09619 -0.85863,-0.258568 1.798859,-0.832092 3.123871,-2.392618 3.647806,-4.313049 l 0.168674,-0.619633 c 0.03566,-0.131687 0.05406,-0.267687 0.05406,-0.403855 0,-0.84818 -0.689789,-1.53797 -1.537638,-1.53797 h -0.06153 c -0.08459,0 -0.169173,0.0071 -0.252763,0.02106 l -1.323685,0.220421 c -1.208084,0.201844 -2.458795,0.08011 -3.610986,-0.329056 0.03184,-0.8238 0.275152,-1.624048 0.713008,-2.324783 0.517965,-0.829107 1.410594,-1.3240165 2.388141,-1.3240165 0.723457,0 1.403959,0.2729961 1.928059,0.7665795 0.02272,0.245961 0.03698,0.49292 0.04644,0.740871 -0.245956,-0.146775 -0.376318,-0.326065 -0.384113,-0.337342 l -0.565233,0.376656 c 0.02239,0.034 0.565896,0.83093 1.641297,0.83093 1.075402,0 1.618906,-0.796931 1.641297,-0.830433 l -0.563905,-0.379143 c -0.0071,0.01041 -0.09819,0.137824 -0.270343,0.264869 l 0.0078,-0.03964 c 0.05406,-0.269679 0.09918,-0.540188 0.140313,-0.811194 0.489438,-0.3746653 1.093313,-0.5821499 1.711288,-0.5821499 0.977547,0 1.870507,0.4949099 2.388471,1.3240179 0.470862,0.752647 0.719478,1.619901 0.719478,2.508385 0,1.208914 -0.328725,2.39577 -0.950679,3.432527 z m 0,0" />
</svg>
