<?xml version="1.0" encoding="UTF-8" standalone="no"?>
<!-- Generator: Adobe Illustrator 18.0.0, SVG Export Plug-In . SVG Version: 6.00 Build 0)  -->

<svg
   xmlns:dc="http://purl.org/dc/elements/1.1/"
   xmlns:cc="http://creativecommons.org/ns#"
   xmlns:rdf="http://www.w3.org/1999/02/22-rdf-syntax-ns#"
   xmlns:svg="http://www.w3.org/2000/svg"
   xmlns="http://www.w3.org/2000/svg"
   xmlns:sodipodi="http://sodipodi.sourceforge.net/DTD/sodipodi-0.dtd"
   xmlns:inkscape="http://www.inkscape.org/namespaces/inkscape"
   version="1.1"
   id="Capa_1"
   x="0px"
   y="0px"
   viewBox="0 0 491.975 491.975"
   style="enable-background:new 0 0 491.975 491.975;"
   xml:space="preserve"
   width="512px"
   height="512px"
   sodipodi:docname="disability.svg"
   inkscape:version="0.92.2 2405546, 2018-03-11"><metadata
   id="metadata41"><rdf:RDF><cc:Work
       rdf:about=""><dc:format>image/svg+xml</dc:format><dc:type
         rdf:resource="http://purl.org/dc/dcmitype/StillImage" /><dc:title /></cc:Work></rdf:RDF></metadata><defs
   id="defs39" /><sodipodi:namedview
   pagecolor="#ffffff"
   bordercolor="#666666"
   borderopacity="1"
   objecttolerance="10"
   gridtolerance="10"
   guidetolerance="10"
   inkscape:pageopacity="0"
   inkscape:pageshadow="2"
   inkscape:window-width="2485"
   inkscape:window-height="1399"
   id="namedview37"
   showgrid="false"
   inkscape:zoom="0.921875"
   inkscape:cx="-204.56147"
   inkscape:cy="263.55227"
   inkscape:window-x="75"
   inkscape:window-y="0"
   inkscape:window-maximized="1"
   inkscape:current-layer="Capa_1" />

<g
   id="g6">
</g>
<g
   id="g8">
</g>
<g
   id="g10">
</g>
<g
   id="g12">
</g>
<g
   id="g14">
</g>
<g
   id="g16">
</g>
<g
   id="g18">
</g>
<g
   id="g20">
</g>
<g
   id="g22">
</g>
<g
   id="g24">
</g>
<g
   id="g26">
</g>
<g
   id="g28">
</g>
<g
   id="g30">
</g>
<g
   id="g32">
</g>
<g
   id="g34">
</g>
<g
   id="g850"
   transform="matrix(5.4154347,0,0,5.4154347,1154.5539,-490.72412)"><path
     d="m -132.84637,168.07193 v 0 l -9.79594,-22.65391 c -1.10566,-2.69305 -4.04086,-4.16129 -6.86074,-3.554 l -19.83787,4.65838 v -21.30994 c 0,-3.30418 -2.69561,-6.12279 -6.00235,-6.12279 -3.30418,0 -5.99979,2.81861 -5.99979,6.12279 v 28.77669 c 0,1.83978 0.85711,3.55401 2.32535,4.77626 1.34909,1.10566 3.30674,1.46823 5.02096,1.10566 l 22.29262,-5.14652 7.83445,18.12364 c 0.97882,2.32919 3.18502,3.67956 5.50909,3.67956 0.85711,0 1.59508,-0.12812 2.45219,-0.48941 3.06203,-1.34909 4.40856,-4.90181 3.06203,-7.96641 v 0"
     style="fill:#646665;fill-opacity:1;fill-rule:nonzero;stroke:none;stroke-width:0.12811849"
     id="path46"
     inkscape:connector-curvature="0" /><path
     d="m -164.19696,106.35342 v 0 c 0,-5.14268 -4.28685,-9.42952 -9.42952,-9.42952 -5.26567,0 -9.43337,4.28684 -9.43337,9.42952 0,5.14268 4.1677,9.3078 9.43337,9.3078 5.14267,0 9.42952,-4.16512 9.42952,-9.3078 v 0"
     style="fill:#646665;fill-opacity:1;fill-rule:nonzero;stroke:none;stroke-width:0.12811849"
     id="path48"
     inkscape:connector-curvature="0" /><path
     d="m -158.68787,162.44497 c 1.71423,-0.24471 3.55273,-0.61753 5.38867,-0.98395 0.2447,0.73924 0.73411,1.47208 0.97882,2.2062 -4.65326,7.10289 -12.85925,12.37112 -22.16706,12.37112 -14.5722,0 -26.32579,-12.00726 -26.32579,-26.57946 0,-9.91509 6.2445,-18.61434 14.44921,-23.01905 v 6.97862 c -4.89797,3.67059 -8.44942,9.55251 -8.44942,16.28642 0,11.14502 8.94011,20.32599 20.20813,20.32599 6.4892,0 12.24428,-2.93647 15.91744,-7.58589 v 0"
     style="fill:#18bc9c;fill-opacity:1;fill-rule:nonzero;stroke:none;stroke-width:0.12811849"
     id="path50"
     inkscape:connector-curvature="0" /></g></svg>