<svg id="Layer_35" enable-background="new 0 0 64 64" height="512" viewBox="0 0 64 64" width="512" xmlns="http://www.w3.org/2000/svg"><path d="m46 34v2c0 1.1-.9 2-2 2h-13c-.86-1.14-1.87-2.15-3-3v-3h14 2c1.1 0 2 .9 2 2z" fill="#aab2bd"/><path d="m22 32.28v.02c-.97-.2-1.97-.3-3-.3s-2.03.1-3 .3v-12.3h-11c-.83 0-1.58-.34-2.12-.88s-.88-1.29-.88-2.12c0-1.66 1.34-3 3-3h14c1.66 0 3 1.34 3 3v9z" fill="#aab2bd"/><path d="m43.46 56c.34.59.54 1.27.54 2s-.2 1.41-.54 2c-.69 1.2-1.98 2-3.46 2-2.21 0-4-1.79-4-4 0-1.87 1.29-3.45 3.03-3.88.31-.08.64-.12.97-.12 1.19 0 2.26.52 3 1.35.17.2.33.42.46.65z" fill="#838f9b"/><path d="m44 58c0-.73-.2-1.41-.54-2h8.65 6.89 2c.55 0 1 .45 1 1v2c0 .55-.45 1-1 1h-17.54c.34-.59.54-1.27.54-2z" fill="#ccd1d9"/><path d="m39 54 .98-6h1.02c1.51 0 2.83-.84 3.51-2.08l-1.51 9.43c-.74-.83-1.81-1.35-3-1.35-.33 0-.66.04-.97.12z" fill="#ccd1d9"/><path d="m39.98 48h-6.01-.01c.03-.33.04-.66.04-1 0-1.76-.3-3.44-.86-5h.01 11.15c.27 0 .51.11.7.29v1.71c0 .69-.18 1.34-.49 1.91v.01c-.68 1.24-2 2.08-3.51 2.08z" fill="#aab2bd"/><path d="m21.12 44.88c.54.54.88 1.29.88 2.12s-.34 1.58-.88 2.12-1.29.88-2.12.88-1.58-.34-2.12-.88-.88-1.29-.88-2.12.34-1.58.88-2.12 1.29-.88 2.12-.88 1.58.34 2.12.88z" fill="#e6e9ed"/><path d="m34 47c0 .34-.01.67-.04 1-.51 7.82-7.02 14-14.96 14-8.28 0-15-6.72-15-15 0-7.25 5.15-13.31 12-14.7.97-.2 1.97-.3 3-.3s2.03.1 3 .3v4.11c-.95-.27-1.96-.41-3-.41-3.04 0-5.79 1.23-7.78 3.22s-3.22 4.74-3.22 7.78 1.23 5.79 3.22 7.78 4.74 3.22 7.78 3.22 5.79-1.23 7.78-3.22 3.22-4.74 3.22-7.78c0-2.98-1.19-5.69-3.11-7.67.08-.07.16-.14.23-.21.54-.54.88-1.29.88-2.12v-2c1.13.85 2.14 1.86 3 3 .9 1.2 1.63 2.55 2.14 4 .56 1.56.86 3.24.86 5z" fill="#838f9b"/><path d="m61.12 50.88c.54.54.88 1.29.88 2.12 0 1.66-1.34 3-3 3h-6.89c-1.26 0-2.39-.8-2.82-1.99l-4.05-11.35c-.05-.14-.14-.27-.24-.37-.19-.18-.43-.29-.7-.29h-11.15-.01c-.51-1.45-1.24-2.8-2.14-4h13c1.1 0 2-.9 2-2h1.18c1.69 0 3.2 1.06 3.77 2.65l4.05 11.35h4c.83 0 1.58.34 2.12.88z" fill="#cf9e76"/><path d="m28 35v2c0 .83-.34 1.58-.88 2.12-.07.07-.15.14-.23.21-.18.15-.38.27-.6.38-.39.18-.83.29-1.29.29-1.66 0-3-1.34-3-3v-.59-4.11-.02-6.28c0-2.76 1.12-5.26 2.93-7.07s4.31-2.93 7.07-2.93c4.57 0 8.43 3.4 8.99 7.94l1.01 8.06h-14z" fill="#b4dd7f"/><circle cx="33" cy="9" fill="#f0d0b4" r="7"/><path d="m62.183 55.396c.506-.67.817-1.494.817-2.396 0-2.206-1.794-4-4-4h-3.295l-3.815-10.682c-.709-1.985-2.601-3.318-4.709-3.318h-.181v-1c0-1.654-1.346-3-3-3h-1.117l-.898-7.186c-.423-3.384-2.511-6.201-5.374-7.685 2.6-1.322 4.389-4.018 4.389-7.129 0-4.411-3.589-8-8-8s-8 3.589-8 8c0 2.732 1.378 5.146 3.474 6.59-2.233.758-4.143 2.211-5.474 4.105v-2.695c0-2.206-1.794-4-4-4h-14c-2.206 0-4 1.794-4 4s1.794 4 4 4h10v10.527c-6.889 1.783-12 8.034-12 15.473 0 8.822 7.178 16 16 16 8.144 0 14.872-6.12 15.861-14h3.941l-.715 4.384c-1.81.753-3.087 2.537-3.087 4.616 0 2.757 2.243 5 5 5 1.627 0 3.061-.793 3.974-2h17.026c1.103 0 2-.897 2-2v-2c0-.659-.324-1.24-.817-1.604zm-12.177-16.405 4.289 12.009h4.705c1.103 0 2 .897 2 2s-.897 2-2 2h-6.886c-.843 0-1.6-.533-1.883-1.328l-4.052-11.345c-.284-.794-1.041-1.327-1.884-1.327h-10.472c-.278-.69-.608-1.356-.981-2h11.158c1.302 0 2.402-.839 2.816-2h.365c1.265 0 2.4.8 2.825 1.991zm-4.539 7.291 2.88 8.063c.083.231.19.448.311.655h-4.588zm-.467-12.282v2c0 .551-.449 1-1 1h-12.516c-.725-.899-1.559-1.721-2.484-2.463v-1.537h15c.551 0 1 .449 1 1zm-23.977 3.229c.097 1.68 1.227 3.071 2.769 3.564l-2.773 2.773c-.316-.186-.656-.33-1.019-.425v-6.074c.345.036.685.092 1.023.162zm-2.023 11.771c-1.103 0-2-.897-2-2s.897-2 2-2 2 .897 2 2-.897 2-2 2zm-1-5.858c-.363.094-.704.238-1.019.425l-4.305-4.305c1.482-1.213 3.316-2.011 5.324-2.211zm-6.738-2.466 4.305 4.305c-.186.316-.33.656-.425 1.019h-6.091c.2-2.008.997-3.842 2.211-5.324zm3.88 7.324c.094.363.238.704.425 1.019l-4.305 4.305c-1.214-1.482-2.011-3.316-2.211-5.324zm1.839 2.433c.316.186.656.33 1.019.425v6.091c-2.008-.2-3.842-.998-5.324-2.211zm3.019.425c.363-.094.704-.238 1.019-.425l4.305 4.305c-1.482 1.213-3.316 2.011-5.324 2.211zm6.738 2.466-4.305-4.305c.186-.316.33-.656.425-1.019h6.091c-.2 2.008-.997 3.842-2.211 5.324zm-3.88-7.324c-.094-.363-.238-.704-.425-1.019l4.307-4.307c1.25 1.525 2.016 3.366 2.21 5.326zm4.142-37c0-3.309 2.691-6 6-6s6 2.691 6 6-2.691 6-6 6-6-2.691-6-6zm5 8c4.058 0 7.497 3.036 8 7.062l.867 6.938h-11.867v-5.171c0-1.557.606-3.021 1.707-4.122l-1.414-1.414c-1.479 1.478-2.293 3.444-2.293 5.536v11.171c0 1.103-.897 2-2 2s-2-.897-2-2v-4.716-6.284c0-4.962 4.038-9 9-9zm-27 2c-1.103 0-2-.897-2-2s.897-2 2-2h14c1.103 0 2 .897 2 2v9 5.139c-.663-.083-1.33-.139-2-.139-.679 0-1.343.056-2 .139v-12.139zm14 42c-7.72 0-14-6.28-14-14s6.28-14 14-14c.671 0 1.339.065 2 .159v2.014c-.659-.11-1.327-.173-2-.173-6.617 0-12 5.383-12 12s5.383 12 12 12 12-5.383 12-12c0-2.825-.983-5.508-2.772-7.659.442-.607.711-1.341.751-2.138 2.567 2.601 4.021 6.065 4.021 9.797 0 7.72-6.28 14-14 14zm15.487-18h9.513v1c0 1.654-1.346 3-3 3h-6c0-1.373-.184-2.711-.513-4zm6.513 6c.745 0 1.445-.175 2.081-.468l-.808 5.04c-.636-.328-1.343-.528-2.1-.555l.656-4.017zm-1 12c-1.654 0-3-1.346-3-3s1.346-3 3-3 3 1.346 3 3-1.346 3-3 3zm21-2h-16.101c.066-.323.101-.658.101-1s-.035-.677-.101-1h7.215 6.886 2z"/></svg>