<?xml version="1.0" encoding="UTF-8" standalone="no"?>
<!-- Generator: Adobe Illustrator 18.0.0, SVG Export Plug-In . SVG Version: 6.00 Build 0)  -->

<svg
   xmlns:dc="http://purl.org/dc/elements/1.1/"
   xmlns:cc="http://creativecommons.org/ns#"
   xmlns:rdf="http://www.w3.org/1999/02/22-rdf-syntax-ns#"
   xmlns:svg="http://www.w3.org/2000/svg"
   xmlns="http://www.w3.org/2000/svg"
   xmlns:sodipodi="http://sodipodi.sourceforge.net/DTD/sodipodi-0.dtd"
   xmlns:inkscape="http://www.inkscape.org/namespaces/inkscape"
   version="1.1"
   id="Capa_1"
   x="0px"
   y="0px"
   viewBox="0 0 491.975 491.975"
   style="enable-background:new 0 0 491.975 491.975;"
   xml:space="preserve"
   width="512px"
   height="512px"
   sodipodi:docname="disability.svg"
   inkscape:version="0.92.2 2405546, 2018-03-11"><metadata
   id="metadata41"><rdf:RDF><cc:Work
       rdf:about=""><dc:format>image/svg+xml</dc:format><dc:type
         rdf:resource="http://purl.org/dc/dcmitype/StillImage" /><dc:title /></cc:Work></rdf:RDF></metadata><defs
   id="defs39" /><sodipodi:namedview
   pagecolor="#ffffff"
   bordercolor="#666666"
   borderopacity="1"
   objecttolerance="10"
   gridtolerance="10"
   guidetolerance="10"
   inkscape:pageopacity="0"
   inkscape:pageshadow="2"
   inkscape:window-width="2485"
   inkscape:window-height="1399"
   id="namedview37"
   showgrid="false"
   inkscape:zoom="1.84375"
   inkscape:cx="242.46262"
   inkscape:cy="279.02114"
   inkscape:window-x="75"
   inkscape:window-y="0"
   inkscape:window-maximized="1"
   inkscape:current-layer="Capa_1" />
<g
   id="XMLID_28_"
   style="fill:#6a6c6c;fill-opacity:1">
	<path
   id="XMLID_31_"
   d="M225.315,96.963c26.748,0,48.479-21.706,48.479-48.481C273.794,21.699,252.063,0,225.315,0   c-26.779,0-48.492,21.699-48.492,48.482C176.823,75.257,198.536,96.963,225.315,96.963z"
   fill="#18bc9c"
   style="fill:#6a6c6c;fill-opacity:1" />
	<path
   id="XMLID_30_"
   d="M300.233,371.688c-12.883,44.732-54.121,77.583-102.946,77.583c-59.126,0-107.209-48.085-107.209-107.193   c0-43.754,26.396-81.413,64.066-98.054V198.58c-61.69,18.581-106.764,75.847-106.764,143.498   c0,82.649,67.247,149.897,149.906,149.897c60.238,0,112.159-35.801,135.966-87.169l-16.926-33.255   C311.575,371.59,306.071,371.64,300.233,371.688z"
   fill="#18bc9c"
   style="fill:#6a6c6c;fill-opacity:1" />
	<path
   id="XMLID_29_"
   d="M441.48,429.237l-64.939-127.672c-4.847-9.553-14.645-15.566-25.363-15.566h-83.173v-18.966h71.582   c7.148,0,13.156-3.736,17.037-9.118c2.522-3.506,4.316-7.579,4.316-12.236c0-11.789-9.549-21.351-21.353-21.351h-43.125h-28.457   V160c0-17.692-13.118-42.704-42.689-42.704c-23.584,0-42.703,19.122-42.703,42.704v139.372c0,24.058,19.503,43.561,43.562,43.561   h78.265h29.284l57.024,112.117c5.011,9.875,15.011,15.573,25.389,15.573c4.35,0,8.761-0.994,12.883-3.104   C443.054,460.401,448.628,443.251,441.48,429.237z"
   fill="#18bc9c"
   style="fill:#6a6c6c;fill-opacity:1" />
</g>
<g
   id="g6">
</g>
<g
   id="g8">
</g>
<g
   id="g10">
</g>
<g
   id="g12">
</g>
<g
   id="g14">
</g>
<g
   id="g16">
</g>
<g
   id="g18">
</g>
<g
   id="g20">
</g>
<g
   id="g22">
</g>
<g
   id="g24">
</g>
<g
   id="g26">
</g>
<g
   id="g28">
</g>
<g
   id="g30">
</g>
<g
   id="g32">
</g>
<g
   id="g34">
</g>
<g
   transform="matrix(0.94804594,0,0,0.94804594,5.5530196,18.398263)"
   id="XMLID_28_-3"><path
     style="fill:#18bc9c"
     inkscape:connector-curvature="0"
     id="XMLID_31_-6"
     d="m 225.315,96.963 c 26.748,0 48.479,-21.706 48.479,-48.481 C 273.794,21.699 252.063,0 225.315,0 c -26.779,0 -48.492,21.699 -48.492,48.482 0,26.775 21.713,48.481 48.492,48.481 z" /><path
     style="fill:#18bc9c"
     inkscape:connector-curvature="0"
     id="XMLID_30_-7"
     d="m 300.233,371.688 c -12.883,44.732 -54.121,77.583 -102.946,77.583 -59.126,0 -107.209,-48.085 -107.209,-107.193 0,-43.754 26.396,-81.413 64.066,-98.054 V 198.58 C 92.454,217.161 47.38,274.427 47.38,342.078 c 0,82.649 67.247,149.897 149.906,149.897 60.238,0 112.159,-35.801 135.966,-87.169 l -16.926,-33.255 c -4.751,0.039 -10.255,0.089 -16.093,0.137 z" /><path
     style="fill:#18bc9c"
     inkscape:connector-curvature="0"
     id="XMLID_29_-5"
     d="M 441.48,429.237 376.541,301.565 c -4.847,-9.553 -14.645,-15.566 -25.363,-15.566 h -83.173 v -18.966 h 71.582 c 7.148,0 13.156,-3.736 17.037,-9.118 2.522,-3.506 4.316,-7.579 4.316,-12.236 0,-11.789 -9.549,-21.351 -21.353,-21.351 H 296.462 268.005 V 160 c 0,-17.692 -13.118,-42.704 -42.689,-42.704 -23.584,0 -42.703,19.122 -42.703,42.704 v 139.372 c 0,24.058 19.503,43.561 43.562,43.561 h 78.265 29.284 l 57.024,112.117 c 5.011,9.875 15.011,15.573 25.389,15.573 4.35,0 8.761,-0.994 12.883,-3.104 14.034,-7.118 19.608,-24.268 12.46,-38.282 z" /></g></svg>