<?xml version="1.0" encoding="UTF-8" standalone="no"?>
<svg
   xmlns:dc="http://purl.org/dc/elements/1.1/"
   xmlns:cc="http://creativecommons.org/ns#"
   xmlns:rdf="http://www.w3.org/1999/02/22-rdf-syntax-ns#"
   xmlns:svg="http://www.w3.org/2000/svg"
   xmlns="http://www.w3.org/2000/svg"
   xmlns:sodipodi="http://sodipodi.sourceforge.net/DTD/sodipodi-0.dtd"
   xmlns:inkscape="http://www.inkscape.org/namespaces/inkscape"
   inkscape:version="1.0 (4035a4fb49, 2020-05-01)"
   sodipodi:docname="disability.svg"
   version="1.1"
   width="24"
   viewBox="0 0 3 3"
   height="24"
   enable-background="new 0 0 64 64"
   id="Layer_35">
  <metadata
     id="metadata31">
    <rdf:RDF>
      <cc:Work
         rdf:about="">
        <dc:format>image/svg+xml</dc:format>
        <dc:type
           rdf:resource="http://purl.org/dc/dcmitype/StillImage" />
        <dc:title></dc:title>
      </cc:Work>
    </rdf:RDF>
  </metadata>
  <defs
     id="defs29" />
  <sodipodi:namedview
     inkscape:current-layer="Layer_35"
     inkscape:window-maximized="1"
     inkscape:window-y="0"
     inkscape:window-x="0"
     inkscape:cy="13.991455"
     inkscape:cx="46.800398"
     inkscape:zoom="7.875"
     showgrid="false"
     id="namedview27"
     inkscape:window-height="1417"
     inkscape:window-width="2560"
     inkscape:pageshadow="2"
     inkscape:pageopacity="0"
     guidetolerance="10"
     gridtolerance="10"
     objecttolerance="10"
     borderopacity="1"
     bordercolor="#666666"
     pagecolor="#ffffff" />
  <path
     style="stroke-width:0.0483871"
     id="path2"
     fill="#aab2bd"
     d="m 2.1774194,1.5967742 v 0.096774 c 0,0.053226 -0.043548,0.096774 -0.096774,0.096774 H 1.4516129 C 1.41,1.7351613 1.361129,1.6862903 1.3064516,1.6451613 V 1.5 H 1.983871 2.080645 c 0.053226,0 0.096774,0.043548 0.096774,0.096774 z" />
  <path
     style="stroke-width:0.0483871"
     id="path4"
     fill="#aab2bd"
     d="m 1.016129,1.5135484 v 9.677e-4 C 0.9691935,1.5048387 0.9208065,1.5 0.8709677,1.5 0.8211287,1.5 0.7727417,1.50484 0.7258065,1.514516 V 0.9193548 H 0.1935484 c -0.040161,0 -0.076452,-0.016452 -0.1025807,-0.042581 -0.026129,-0.026129 -0.042581,-0.062419 -0.042581,-0.1025807 0,-0.080323 0.064839,-0.1451612 0.1451613,-0.1451612 h 0.6774193 c 0.080323,0 0.1451613,0.064839 0.1451613,0.1451612 V 1.209677 Z" />
  <path
     style="stroke-width:0.0483871"
     id="path6"
     fill="#838f9b"
     d="m 2.0545161,2.6612903 c 0.016452,0.028548 0.026129,0.061452 0.026129,0.096774 0,0.035323 -0.00968,0.068226 -0.026129,0.096774 -0.033387,0.058064 -0.095806,0.096774 -0.1674193,0.096774 -0.1069355,0 -0.1935484,-0.086613 -0.1935484,-0.1935484 0,-0.090484 0.062419,-0.1669355 0.1466129,-0.1877419 0.015,-0.00387 0.030968,-0.00581 0.046936,-0.00581 0.057581,0 0.1093548,0.025161 0.1451613,0.065323 0.00823,0.00968 0.015968,0.020323 0.022258,0.031452 z" />
  <path
     style="stroke-width:0.0483871"
     id="path8"
     fill="#ccd1d9"
     d="m 2.0806452,2.7580645 c 0,-0.035323 -0.00968,-0.068226 -0.026129,-0.096774 h 0.4185484 0.3333871 0.096774 c 0.026613,0 0.048387,0.021774 0.048387,0.048387 v 0.096774 c 0,0.026613 -0.021774,0.048387 -0.048387,0.048387 H 2.0545161 c 0.016452,-0.028548 0.026129,-0.061452 0.026129,-0.096774 z" />
  <path
     style="stroke-width:0.0483871"
     id="path10"
     fill="#ccd1d9"
     d="M 1.8387097,2.5645161 1.886129,2.2741935 h 0.049355 c 0.073065,0 0.1369355,-0.040645 0.1698387,-0.1006451 l -0.073065,0.4562903 c -0.035807,-0.040161 -0.087581,-0.065323 -0.1451613,-0.065323 -0.015968,0 -0.031936,0.00194 -0.046936,0.00581 z" />
  <path
     style="stroke-width:0.0483871"
     id="path12"
     fill="#aab2bd"
     d="M 1.886129,2.2741935 H 1.5953226 1.5948387 c 0.00145,-0.015968 0.00194,-0.031935 0.00194,-0.048387 0,-0.085161 -0.014516,-0.1664517 -0.041613,-0.2419355 h 4.839e-4 0.5395161 c 0.013065,0 0.024677,0.00532 0.033871,0.014032 v 0.082742 c 0,0.033387 -0.00871,0.064839 -0.02371,0.092419 v 4.839e-4 c -0.032903,0.06 -0.096774,0.1006451 -0.1698387,0.1006451 z" />
  <path
     style="stroke-width:0.0483871"
     id="path14"
     fill="#e6e9ed"
     d="m 0.9735484,2.1232258 c 0.026129,0.026129 0.042581,0.062419 0.042581,0.1025807 0,0.040161 -0.016452,0.076452 -0.042581,0.1025806 -0.026129,0.026129 -0.062419,0.042581 -0.1025807,0.042581 -0.040161,0 -0.076452,-0.016452 -0.1025806,-0.042581 -0.026129,-0.026129 -0.042581,-0.062419 -0.042581,-0.1025806 0,-0.040161 0.016452,-0.076452 0.042581,-0.1025807 0.026129,-0.026129 0.062419,-0.042581 0.1025806,-0.042581 0.040161,0 0.076452,0.016452 0.1025807,0.042581 z" />
  <path
     style="stroke-width:0.0483871"
     id="path16"
     fill="#838f9b"
     d="m 1.5967742,2.2258065 c 0,0.016452 -4.839e-4,0.032419 -0.00194,0.048387 -0.024677,0.3783871 -0.3396774,0.6774194 -0.723871,0.6774194 -0.4006451,0 -0.7258064,-0.3251613 -0.7258064,-0.7258064 C 0.1451568,1.875 0.3943503,1.5817742 0.725802,1.5145161 0.7727419,1.5048387 0.821129,1.5 0.8709677,1.5 c 0.049839,0 0.098226,0.00484 0.1451613,0.014516 V 1.713387 C 0.970161,1.700322 0.92129,1.693548 0.8709677,1.693548 c -0.1470967,0 -0.2801612,0.059516 -0.3764516,0.1558064 -0.09629,0.09629 -0.1558064,0.2293549 -0.1558064,0.3764517 0,0.1470967 0.059516,0.2801612 0.1558064,0.3764516 0.09629,0.09629 0.2293549,0.1558064 0.3764516,0.1558064 0.1470968,0 0.2801613,-0.059516 0.3764517,-0.1558064 0.09629,-0.09629 0.1558064,-0.2293549 0.1558064,-0.3764516 0,-0.1441936 -0.057581,-0.2753226 -0.1504839,-0.3711291 0.00387,-0.00339 0.00774,-0.00677 0.011129,-0.010161 C 1.29,1.8183871 1.3064516,1.7820968 1.3064516,1.7419355 v -0.096774 c 0.054677,0.041129 0.1035484,0.09 0.1451613,0.1451613 0.043548,0.058064 0.078871,0.1233871 0.1035484,0.1935484 0.027097,0.075484 0.041613,0.1567742 0.041613,0.2419353 z" />
  <path
     style="stroke-width:0.0483871"
     id="path18"
     fill="#cf9e76"
     d="m 2.9090323,2.4135484 c 0.026129,0.026129 0.042581,0.062419 0.042581,0.1025806 0,0.080323 -0.064839,0.1451613 -0.1451613,0.1451613 H 2.4730645 c -0.060968,0 -0.1156451,-0.03871 -0.1364516,-0.09629 L 2.1406452,2.0158065 c -0.00242,-0.00677 -0.00677,-0.013065 -0.011613,-0.017903 -0.00919,-0.00871 -0.020806,-0.014032 -0.033871,-0.014032 h -0.539516 -4.839e-4 c -0.024677,-0.070161 -0.06,-0.1354839 -0.1035484,-0.1935484 h 0.6290323 c 0.053226,0 0.096774,-0.043548 0.096774,-0.096774 h 0.057097 c 0.081774,0 0.1548387,0.05129 0.1824194,0.1282258 l 0.1959677,0.5491935 h 0.1935484 c 0.040161,0 0.076452,0.016452 0.1025807,0.042581 z" />
  <path
     style="stroke-width:0.0483871"
     id="path20"
     fill="#b4dd7f"
     d="m 1.3064516,1.6451613 v 0.096774 c 0,0.040161 -0.016452,0.076452 -0.042581,0.1025806 -0.00339,0.00339 -0.00726,0.00677 -0.011129,0.010161 -0.00871,0.00726 -0.018387,0.013065 -0.029032,0.018387 -0.018871,0.00871 -0.040161,0.014032 -0.062419,0.014032 -0.080323,0 -0.1451613,-0.064839 -0.1451613,-0.1451613 v -0.028548 -0.198871 -9.677e-4 -0.303871 c 0,-0.1335484 0.054194,-0.2545161 0.1417742,-0.3420968 C 1.2454839,0.78 1.3664516,0.7258065 1.5,0.7258065 c 0.221129,0 0.4079032,0.1645161 0.435,0.3841935 L 1.983871,1.5 H 1.3064516 Z" />
  <circle
     style="stroke-width:0.0483871"
     id="circle22"
     r="0.33870968"
     fill="#f0d0b4"
     cy="0.38709676"
     cx="1.5483871" />
  <path
     style="stroke-width:0.0483871"
     id="path24"
     d="M 2.9604677,2.6320645 C 2.9849516,2.5996452 3,2.5597742 3,2.516129 3,2.4093871 2.9131935,2.3225806 2.8064516,2.3225806 H 2.6470161 L 2.4624194,1.8057097 C 2.4281129,1.7096613 2.3365645,1.6451613 2.2345645,1.6451613 h -0.00876 v -0.048387 c 0,-0.080032 -0.065129,-0.1451613 -0.1451613,-0.1451613 H 2.0265968 L 1.9831452,1.1039032 C 1.9626774,0.9401613 1.8616452,0.8038548 1.7231129,0.7320484 1.8489194,0.6680806 1.9354839,0.537629 1.9354839,0.3870968 1.9354839,0.1736613 1.7618226,0 1.5483871,0 1.3349516,0 1.1612903,0.1736613 1.1612903,0.3870968 c 0,0.1321935 0.066677,0.249 0.1680968,0.3188709 -0.1080484,0.036677 -0.2004677,0.1069839 -0.264871,0.1986291 V 0.7741935 c 0,-0.1067419 -0.086806,-0.1935483 -0.1935484,-0.1935483 H 0.1935484 C 0.0868065,0.5806452 0,0.6674516 0,0.7741935 0,0.8809355 0.086807,0.9677419 0.1935484,0.9677419 h 0.483871 v 0.509371 C 0.3440806,1.5633871 0.0967742,1.8658548 0.0967742,2.2258065 0.0967742,2.6526774 0.4440968,3 0.8709677,3 1.2650323,3 1.5905806,2.703871 1.6384355,2.3225806 H 1.829129 L 1.7945323,2.5347097 C 1.7069516,2.5711452 1.6451613,2.6574677 1.6451613,2.7580645 1.6451613,2.8914677 1.7536935,3 1.8870968,3 1.9658226,3 2.0352097,2.961629 2.0793871,2.9032258 H 2.9032258 C 2.9565968,2.9032258 3,2.8598226 3,2.8064516 v -0.096774 c 0,-0.031887 -0.015677,-0.06 -0.039532,-0.077613 z M 2.3712581,1.8382742 2.5787903,2.4193548 h 0.2276613 c 0.053371,0 0.096774,0.043403 0.096774,0.096774 0,0.053371 -0.043403,0.096774 -0.096774,0.096774 H 2.4732581 c -0.04079,0 -0.077419,-0.02579 -0.091113,-0.064258 L 2.1860806,1.9996935 c -0.013742,-0.038419 -0.050371,-0.06421 -0.091161,-0.06421 H 1.5882097 C 1.5747581,1.9020968 1.5587903,1.869871 1.5407419,1.8387097 h 0.5399033 c 0.063,0 0.1162258,-0.040597 0.136258,-0.096774 h 0.017661 c 0.06121,0 0.116129,0.03871 0.1366939,0.096339 z M 2.151629,2.1910645 2.2909839,2.5812097 c 0.00402,0.011177 0.00919,0.021677 0.015048,0.031693 h -0.222 z M 2.1290323,1.5967742 v 0.096774 c 0,0.026661 -0.021726,0.048387 -0.048387,0.048387 h -0.605613 c -0.035081,-0.0435 -0.075436,-0.083274 -0.1201936,-0.1191774 v -0.074371 h 0.7258065 c 0.026661,0 0.048387,0.021726 0.048387,0.048387 z M 0.9688548,1.7530161 c 0.00469,0.08129 0.059371,0.1485968 0.1339839,0.1724516 L 0.9686613,2.0596452 c -0.01529,-0.009 -0.031742,-0.015968 -0.049306,-0.020565 V 1.7451774 c 0.016694,0.00174 0.033145,0.00445 0.0495,0.00784 z m -0.097887,0.5695645 c -0.053371,0 -0.096774,-0.043403 -0.096774,-0.096774 0,-0.053371 0.043403,-0.096774 0.096774,-0.096774 0.053371,0 0.096774,0.043403 0.096774,0.096774 0,0.053371 -0.043403,0.096774 -0.096774,0.096774 z M 0.8225806,2.039129 c -0.017564,0.00455 -0.034064,0.011516 -0.049306,0.020564 L 0.5649677,1.8513871 c 0.07171,-0.058694 0.1604517,-0.097307 0.2576129,-0.1069839 z M 0.4965484,1.9198065 0.7048548,2.1281129 c -0.009,0.01529 -0.015968,0.031742 -0.020564,0.049306 H 0.3895645 c 0.00968,-0.097161 0.048242,-0.1859033 0.1069839,-0.2576124 z m 0.1877419,0.354387 c 0.00455,0.017565 0.011516,0.034065 0.020564,0.049307 L 0.4965484,2.5318065 C 0.4378065,2.4600968 0.3992419,2.3713548 0.3895645,2.2741935 Z m 0.088984,0.1177259 c 0.01529,0.009 0.031742,0.015968 0.049306,0.020564 V 2.7072097 C 0.7254194,2.6975323 0.6366774,2.6589194 0.5649677,2.6002258 Z m 0.1460806,0.020564 c 0.017565,-0.00455 0.034065,-0.011516 0.049306,-0.020564 l 0.2083064,0.2083064 c -0.07171,0.058694 -0.1604516,0.097307 -0.2576129,0.1069839 z M 1.2453871,2.5318065 1.0370806,2.3235 c 0.009,-0.01529 0.015968,-0.031742 0.020565,-0.049307 H 1.352371 C 1.342691,2.371354 1.304129,2.4600963 1.2453871,2.5318065 Z M 1.0576452,2.1774194 C 1.0530968,2.1598548 1.046129,2.1433548 1.0370806,2.1281129 L 1.2454839,1.9197097 c 0.060484,0.07379 0.097548,0.1628709 0.1069355,0.2577097 z M 1.2580645,0.3870968 c 0,-0.1601129 0.1302097,-0.2903226 0.2903226,-0.2903226 0.1601129,0 0.2903226,0.1302097 0.2903226,0.2903226 0,0.1601129 -0.1302097,0.2903226 -0.2903226,0.2903226 -0.1601129,0 -0.2903226,-0.1302097 -0.2903226,-0.2903226 z M 1.5,0.7741935 c 0.1963548,0 0.3627581,0.1469033 0.3870968,0.3417097 l 0.041952,0.3357097 H 1.3548387 V 1.2014032 c 0,-0.075339 0.029323,-0.1461774 0.082597,-0.1994516 l -0.06842,-0.068419 C 1.2974516,1.0050484 1.2580645,1.1001774 1.2580645,1.2014032 v 0.5405323 c 0,0.053371 -0.043403,0.096774 -0.096774,0.096774 -0.053371,0 -0.096774,-0.043403 -0.096774,-0.096774 V 1.5137419 1.2096774 C 1.0645161,0.9695806 1.2599032,0.7741935 1.5,0.7741935 Z m -1.3064516,0.096774 c -0.053371,0 -0.096774,-0.043403 -0.096774,-0.096774 0,-0.053371 0.043403,-0.096774 0.096774,-0.096774 h 0.6774193 c 0.053371,0 0.096774,0.043403 0.096774,0.096774 v 0.4354839 0.2486613 c -0.032081,-0.00402 -0.064355,-0.00673 -0.096774,-0.00673 -0.032855,0 -0.064984,0.00271 -0.096774,0.00673 v -0.587371 z m 0.6774193,2.0322581 c -0.3735483,0 -0.6774193,-0.303871 -0.6774193,-0.6774193 0,-0.3735484 0.303871,-0.6774194 0.6774193,-0.6774194 0.032468,0 0.06479,0.00315 0.096774,0.00769 v 0.097452 c -0.031887,-0.00532 -0.06421,-0.00837 -0.096774,-0.00837 -0.3201774,0 -0.5806451,0.2604677 -0.5806451,0.5806452 0,0.3201774 0.2604677,0.5806451 0.5806451,0.5806451 0.3201775,0 0.5806452,-0.2604677 0.5806452,-0.5806451 0,-0.1366936 -0.047565,-0.2665162 -0.134129,-0.3705968 0.021387,-0.029371 0.034403,-0.064887 0.036339,-0.1034516 0.1242097,0.1258548 0.1945645,0.2934677 0.1945645,0.4740484 0,0.3735483 -0.303871,0.6774193 -0.6774194,0.6774193 z m 0.749371,-0.8709677 h 0.4603065 v 0.048387 c 0,0.080032 -0.065129,0.1451613 -0.1451613,0.1451613 H 1.6451613 c 0,-0.066435 -0.0089,-0.1311775 -0.024823,-0.1935483 z m 0.3151452,0.2903225 c 0.036048,0 0.069919,-0.00847 0.1006935,-0.022645 l -0.039097,0.243871 C 1.9663065,2.5279355 1.9320968,2.5182581 1.8954677,2.5169516 l 0.031742,-0.194371 z m -0.048387,0.5806452 c -0.080032,0 -0.1451613,-0.065129 -0.1451613,-0.1451613 0,-0.080032 0.065129,-0.1451613 0.1451613,-0.1451613 0.080032,0 0.1451613,0.065129 0.1451613,0.1451613 0,0.080032 -0.065129,0.1451613 -0.1451613,0.1451613 z m 1.016129,-0.096774 H 2.1241452 c 0.00319,-0.015629 0.00489,-0.031839 0.00489,-0.048387 0,-0.016548 -0.00169,-0.032758 -0.00489,-0.048387 h 0.3491129 0.3331935 0.096774 z" />
</svg>
