<?xml version="1.0" encoding="UTF-8" standalone="no"?>
<svg
   xmlns:dc="http://purl.org/dc/elements/1.1/"
   xmlns:cc="http://creativecommons.org/ns#"
   xmlns:rdf="http://www.w3.org/1999/02/22-rdf-syntax-ns#"
   xmlns:svg="http://www.w3.org/2000/svg"
   xmlns="http://www.w3.org/2000/svg"
   xmlns:sodipodi="http://sodipodi.sourceforge.net/DTD/sodipodi-0.dtd"
   xmlns:inkscape="http://www.inkscape.org/namespaces/inkscape"
   inkscape:version="1.0 (4035a4fb49, 2020-05-01)"
   sodipodi:docname="disease.svg"
   version="1.1"
   width="24"
   viewBox="0 0 3 3"
   height="24"
   enable-background="new 0 0 64 64"
   id="_x33_0">
  <metadata
     id="metadata69">
    <rdf:RDF>
      <cc:Work
         rdf:about="">
        <dc:format>image/svg+xml</dc:format>
        <dc:type
           rdf:resource="http://purl.org/dc/dcmitype/StillImage" />
        <dc:title></dc:title>
      </cc:Work>
    </rdf:RDF>
  </metadata>
  <defs
     id="defs67" />
  <sodipodi:namedview
     inkscape:current-layer="_x33_0"
     inkscape:window-maximized="1"
     inkscape:window-y="0"
     inkscape:window-x="0"
     inkscape:cy="21.224496"
     inkscape:cx="38.467115"
     inkscape:zoom="15.75"
     showgrid="false"
     id="namedview65"
     inkscape:window-height="1417"
     inkscape:window-width="2560"
     inkscape:pageshadow="2"
     inkscape:pageopacity="0"
     guidetolerance="10"
     gridtolerance="10"
     objecttolerance="10"
     borderopacity="1"
     bordercolor="#666666"
     pagecolor="#ffffff" />
  <g
     transform="matrix(0.0483871,0,0,0.0483871,-0.0483871,-0.0483871)"
     id="g62">
    <g
       id="g34">
      <g
         id="g4">
        <path
           id="path2"
           fill="#ccd1d9"
           d="M 32,2 C 48.57,2 62,15.43 62,32 62,48.57 48.57,62 32,62 15.43,62 2,48.57 2,32 2,15.43 15.43,2 32,2 Z" />
      </g>
      <g
         id="g8">
        <path
           id="path6"
           fill="#69d6f4"
           d="M 32,6 C 46.36,6 58,17.64 58,32 58,46.36 46.36,58 32,58 17.64,58 6,46.36 6,32 6,17.64 17.64,6 32,6 Z" />
      </g>
      <g
         id="g12">
        <circle
           id="circle10"
           r="2"
           fill="#ff826e"
           cy="52"
           cx="36" />
      </g>
      <g
         id="g16">
        <circle
           id="circle14"
           r="2"
           fill="#ff826e"
           cy="42"
           cx="36" />
      </g>
      <g
         id="g20">
        <circle
           id="circle18"
           r="3"
           fill="#fcd770"
           cy="39"
           cx="17" />
      </g>
      <g
         id="g24">
        <circle
           id="circle22"
           r="2"
           fill="#fcd770"
           cy="36"
           cx="28" />
      </g>
      <g
         id="g28">
        <circle
           id="circle26"
           r="2"
           fill="#fcd770"
           cy="48"
           cx="26" />
      </g>
      <g
         id="g32">
        <circle
           id="circle30"
           r="3"
           fill="#fcd770"
           cy="45"
           cx="45" />
      </g>
    </g>
    <g
       id="g60">
      <path
         id="path36"
         d="M 32,1 C 14.906,1 1,14.906 1,32 1,49.094 14.906,63 32,63 49.094,63 63,49.094 63,32 63,14.906 49.094,1 32,1 Z m 0,60 C 16.01,61 3,47.99 3,32 3,16.01 16.01,3 32,3 47.99,3 61,16.01 61,32 61,47.99 47.99,61 32,61 Z" />
      <path
         id="path38"
         d="M 32,5 C 17.112,5 5,17.112 5,32 5,46.888 17.112,59 32,59 46.888,59 59,46.888 59,32 59,17.112 46.888,5 32,5 Z m 0,52 C 18.215,57 7,45.785 7,32 7,18.215 18.215,7 32,7 45.785,7 57,18.215 57,32 57,45.785 45.785,57 32,57 Z" />
      <path
         id="path40"
         d="m 23,11 h 18 v 2 H 23 Z" />
      <path
         id="path42"
         d="m 17,17 h 10 v 2 H 17 Z" />
      <path
         id="path44"
         d="m 47,19 h -5 c -0.552,0 -1,-0.448 -1,-1 0,-0.552 0.448,-1 1,-1 h 3 v -2 h -3 c -1.654,0 -3,1.346 -3,3 0,1.654 1.346,3 3,3 h 5 c 1.103,0 2,0.897 2,2 0,1.103 -0.897,2 -2,2 H 26 c -0.552,0 -1,-0.448 -1,-1 0,-0.552 0.448,-1 1,-1 h 6 c 1.654,0 3,-1.346 3,-3 0,-1.654 -1.346,-3 -3,-3 h -3 v 2 h 3 c 0.552,0 1,0.448 1,1 0,0.552 -0.448,1 -1,1 h -6 c -1.654,0 -3,1.346 -3,3 0,1.654 1.346,3 3,3 h 21 c 2.206,0 4,-1.794 4,-4 0,-2.206 -1.794,-4 -4,-4 z" />
      <path
         id="path46"
         d="m 45,33 c 0,1.103 -0.897,2 -2,2 h -8 v 2 h 8 c 2.206,0 4,-1.794 4,-4 0,-2.206 -1.794,-4 -4,-4 H 16 c -0.552,0 -1,-0.448 -1,-1 0,-0.552 0.448,-1 1,-1 h 5 v -2 h -5 c -1.654,0 -3,1.346 -3,3 0,1.654 1.346,3 3,3 h 27 c 1.103,0 2,0.897 2,2 z" />
      <path
         id="path48"
         d="m 28,33 c -1.654,0 -3,1.346 -3,3 0,1.654 1.346,3 3,3 1.654,0 3,-1.346 3,-3 0,-1.654 -1.346,-3 -3,-3 z m 0,4 c -0.552,0 -1,-0.448 -1,-1 0,-0.552 0.448,-1 1,-1 0.552,0 1,0.448 1,1 0,0.552 -0.448,1 -1,1 z" />
      <path
         id="path50"
         d="m 17,35 c -2.206,0 -4,1.794 -4,4 0,2.206 1.794,4 4,4 2.206,0 4,-1.794 4,-4 0,-2.206 -1.794,-4 -4,-4 z m 0,6 c -1.103,0 -2,-0.897 -2,-2 0,-1.103 0.897,-2 2,-2 1.103,0 2,0.897 2,2 0,1.103 -0.897,2 -2,2 z" />
      <path
         id="path52"
         d="m 45,41 c -2.206,0 -4,1.794 -4,4 0,2.206 1.794,4 4,4 2.206,0 4,-1.794 4,-4 0,-2.206 -1.794,-4 -4,-4 z m 0,6 c -1.103,0 -2,-0.897 -2,-2 0,-1.103 0.897,-2 2,-2 1.103,0 2,0.897 2,2 0,1.103 -0.897,2 -2,2 z" />
      <path
         id="path54"
         d="m 36,49 c -1.654,0 -3,1.346 -3,3 0,1.654 1.346,3 3,3 1.654,0 3,-1.346 3,-3 0,-1.654 -1.346,-3 -3,-3 z m 0,4 c -0.552,0 -1,-0.448 -1,-1 0,-0.552 0.448,-1 1,-1 0.552,0 1,0.448 1,1 0,0.552 -0.448,1 -1,1 z" />
      <path
         id="path56"
         d="m 26,45 c -1.654,0 -3,1.346 -3,3 0,1.654 1.346,3 3,3 1.654,0 3,-1.346 3,-3 0,-1.654 -1.346,-3 -3,-3 z m 0,4 c -0.552,0 -1,-0.448 -1,-1 0,-0.552 0.448,-1 1,-1 0.552,0 1,0.448 1,1 0,0.552 -0.448,1 -1,1 z" />
      <path
         id="path58"
         d="m 36,39 c -1.654,0 -3,1.346 -3,3 0,1.654 1.346,3 3,3 1.654,0 3,-1.346 3,-3 0,-1.654 -1.346,-3 -3,-3 z m 0,4 c -0.552,0 -1,-0.448 -1,-1 0,-0.552 0.448,-1 1,-1 0.552,0 1,0.448 1,1 0,0.552 -0.448,1 -1,1 z" />
    </g>
  </g>
</svg>
