<?xml version="1.0" encoding="UTF-8" standalone="no"?>
<!-- Generator: Adobe Illustrator 18.1.1, SVG Export Plug-In . SVG Version: 6.00 Build 0)  -->

<svg
   xmlns:dc="http://purl.org/dc/elements/1.1/"
   xmlns:cc="http://creativecommons.org/ns#"
   xmlns:rdf="http://www.w3.org/1999/02/22-rdf-syntax-ns#"
   xmlns:svg="http://www.w3.org/2000/svg"
   xmlns="http://www.w3.org/2000/svg"
   xmlns:sodipodi="http://sodipodi.sourceforge.net/DTD/sodipodi-0.dtd"
   xmlns:inkscape="http://www.inkscape.org/namespaces/inkscape"
   version="1.1"
   id="Capa_1"
   x="0px"
   y="0px"
   viewBox="0 0 2.8576875 2.8576875"
   xml:space="preserve"
   width="24"
   height="24"
   sodipodi:docname="disease.svg"
   inkscape:version="0.92.2 2405546, 2018-03-11"><metadata
   id="metadata45"><rdf:RDF><cc:Work
       rdf:about=""><dc:format>image/svg+xml</dc:format><dc:type
         rdf:resource="http://purl.org/dc/dcmitype/StillImage" /><dc:title></dc:title></cc:Work></rdf:RDF></metadata><defs
   id="defs43">
	

		
		
	</defs><sodipodi:namedview
   pagecolor="#ffffff"
   bordercolor="#666666"
   borderopacity="1"
   objecttolerance="10"
   gridtolerance="10"
   guidetolerance="10"
   inkscape:pageopacity="0"
   inkscape:pageshadow="2"
   inkscape:window-width="2560"
   inkscape:window-height="1347"
   id="namedview41"
   showgrid="false"
   inkscape:zoom="10.429825"
   inkscape:cx="17.971967"
   inkscape:cy="-0.58241973"
   inkscape:window-x="0"
   inkscape:window-y="0"
   inkscape:window-maximized="1"
   inkscape:current-layer="Capa_1" />

<g
   id="g10"
   transform="translate(0,-58.106312)">
</g>
<g
   id="g12"
   transform="translate(0,-58.106312)">
</g>
<g
   id="g14"
   transform="translate(0,-58.106312)">
</g>
<g
   id="g16"
   transform="translate(0,-58.106312)">
</g>
<g
   id="g18"
   transform="translate(0,-58.106312)">
</g>
<g
   id="g20"
   transform="translate(0,-58.106312)">
</g>
<g
   id="g22"
   transform="translate(0,-58.106312)">
</g>
<g
   id="g24"
   transform="translate(0,-58.106312)">
</g>
<g
   id="g26"
   transform="translate(0,-58.106312)">
</g>
<g
   id="g28"
   transform="translate(0,-58.106312)">
</g>
<g
   id="g30"
   transform="translate(0,-58.106312)">
</g>
<g
   id="g32"
   transform="translate(0,-58.106312)">
</g>
<g
   id="g34"
   transform="translate(0,-58.106312)">
</g>
<g
   id="g36"
   transform="translate(0,-58.106312)">
</g>
<g
   id="g38"
   transform="translate(0,-58.106312)">
</g>
<path
   inkscape:connector-curvature="0"
   d="M 2.4954035,0.95429242 2.3917909,0.9542307 C 2.3846239,0.78362801 2.3183624,0.62401804 2.2027237,0.49847927 l 0.065229,-0.0652287 c 0.011843,-0.0118439 0.011843,-0.0310941 0,-0.042938 -0.011844,-0.0118439 -0.031094,-0.0118439 -0.042938,0 l -0.065229,0.0652292 C 2.033762,0.33941705 1.8733618,0.27315546 1.7020298,0.26641442 V 0.16085731 c 0,-0.0167608 -0.013604,-0.0303644 -0.03037,-0.0303644 -0.016761,0 -0.030369,0.0136035 -0.030369,0.0303644 v 0.10567856 c -0.1484962,0.006437 -0.2886714,0.0575153 -0.405403,0.147099 L 1.176489,0.35423624 c -0.011843,-0.0118439 -0.031094,-0.0118439 -0.042938,0 -0.011843,0.0118439 -0.011843,0.0310941 0,0.042938 l 0.055633,0.0556326 c -0.00851,0.007712 -0.017368,0.0150012 -0.025509,0.0231422 L 0.93251975,0.70710489 0.87810156,0.652626 c -0.0118433,-0.0118439 -0.0310937,-0.0118439 -0.0429382,0 -0.0118433,0.0118439 -0.0118433,0.0310941 0,0.042938 L 0.88958096,0.7500428 0.675795,0.96382818 C 0.6617064,0.97791678 0.6488279,0.99280058 0.6361373,1.0077408 L 0.5817186,0.95338398 c -0.0118433,-0.0118445 -0.0310937,-0.0118445 -0.0429382,0 -0.0118433,0.0118444 -0.0118433,0.0310937 0,0.0429382 l 0.0598848,0.0598835 C 0.51260509,1.1771883 0.46808639,1.3186998 0.46571761,1.4611225 H 0.34540267 c -0.0167607,0 -0.0303704,0.013604 -0.0303704,0.030369 0,0.016761 0.013603,0.030365 0.0303704,0.030365 l 0.12110454,6.17e-5 c 3.6465e-4,0 6.6472e-4,-1.764e-4 9.6954e-4,-1.764e-4 0.0106953,0.1591852 0.0739136,0.3150304 0.18955279,0.4400217 -0.12505272,0.1418764 -0.12942562,0.322865 -0.007587,0.4904923 6.171e-5,6.18e-5 6.171e-5,1.191e-4 6.171e-5,1.763e-4 0.0895229,0.1232307 0.1890667,0.099969 0.2690538,0.081446 0.0698445,-0.016276 0.13015435,-0.030365 0.19289335,0.032369 0.1379318,0.1289429 0.082787,0.056086 0.1768769,0.1783992 0.00534,0.00388 0.011599,0.00583 0.017796,0.00583 0.00941,0 0.018643,-0.00434 0.024596,-0.012513 0.00984,-0.013604 0.0068,-0.032553 -0.00675,-0.042392 C 1.1842851,2.5544309 1.2618046,2.6360221 1.1543864,2.5233678 1.0677785,2.4367604 0.97740575,2.4578357 0.90482804,2.4747779 0.82648029,2.4931202 0.76453083,2.5075141 0.6986948,2.4167767 l -6.172e-5,-6.17e-5 C 0.59416993,2.2731384 0.59611322,2.1246424 0.69996031,2.0045704 0.8216725,2.1159575 0.97508808,2.1811255 1.1393752,2.1913896 c -1.191e-4,0.00102 -6.148e-4,0.00189 -6.148e-4,0.00291 v 0.1211033 c 0,0.016761 0.013603,0.03037 0.03037,0.03037 0.016761,0 0.030365,-0.013603 0.030365,-0.03037 V 2.1942952 c 0,-4.872e-4 -2.426e-4,-9.196e-4 -2.426e-4,-0.00133 0.146552,-0.0028 0.2856341,-0.049312 0.4029729,-0.1330064 l 0.064135,0.064135 c 0.00595,0.00595 0.013726,0.00887 0.021499,0.00887 0.00778,0 0.015547,-0.00295 0.021499,-0.00887 0.011843,-0.011844 0.011843,-0.031094 0,-0.042938 l -0.058669,-0.058668 c 0.015001,-0.012757 0.029818,-0.025754 0.043913,-0.03978 l 0.2137249,-0.213786 0.054419,0.054419 c 0.00595,0.00595 0.013726,0.00887 0.021499,0.00887 0.00778,0 0.015547,-0.00295 0.021499,-0.00887 0.011845,-0.011845 0.011845,-0.031094 0,-0.042938 L 1.9513252,1.725984 2.1824812,1.4947677 c 0.0082,-0.00821 0.015425,-0.017006 0.023143,-0.025508 l 0.055633,0.055694 c 0.00595,0.00595 0.013726,0.00887 0.021499,0.00887 0.00778,0 0.015547,-0.00295 0.021499,-0.00887 0.011843,-0.011845 0.011843,-0.031094 0,-0.042938 L 2.2448564,1.4226163 C 2.3348646,1.3053993 2.3860641,1.1644947 2.3921377,1.0152095 l 0.1034909,6.17e-5 c 0.016761,0 0.03037,-0.013603 0.03037,-0.0303649 -2.425e-4,-0.0170052 -0.013788,-0.0306093 -0.030609,-0.0306093 z M 1.6313332,0.9305438 c -0.022591,0.0225917 -0.052657,0.0350423 -0.084664,0.0350423 -0.032007,0 -0.06201,-0.0124505 -0.084664,-0.0350423 -0.046708,-0.0467075 -0.046708,-0.12262307 0,-0.16926722 0.045188,-0.0451873 0.1240804,-0.0451873 0.1692674,0 0.046707,0.046646 0.046707,0.12256236 6.06e-5,0.16926722 z m -0.4846618,0.690855 c 0.040087,-0.030365 0.096567,-0.06207 0.1591851,-0.089158 0.086183,-0.03723 0.1688418,-0.059459 0.2211953,-0.059459 0.036318,0 0.059459,0.011049 0.068994,0.032859 0.034195,0.079501 -0.1756441,0.175037 -0.2179762,0.1934394 -0.086122,0.03723 -0.1687816,0.059459 -0.2210738,0.059459 -0.036318,0 -0.059459,-0.011114 -0.068994,-0.03292 -0.019495,-0.044821 0.039296,-0.089462 0.05867,-0.1042204 z M 1.1249269,1.4973789 1.2294509,1.0007524 c 0.00347,-0.0164599 0.019678,-0.0268455 0.035955,-0.0234433 0.016399,0.003473 0.026906,0.0195568 0.023443,0.0359547 L 1.184325,1.5098904 c -0.00295,0.014272 -0.015608,0.024111 -0.029701,0.024111 -0.00204,0 -0.00418,-1.764e-4 -0.00632,-6.632e-4 -0.016338,-0.00342 -0.026845,-0.019556 -0.023381,-0.035955 z m 0.2346779,-0.161129 0.00868,-0.1393856 c 0.00102,-0.0167 0.014578,-0.029818 0.032191,-0.028422 0.0167,0.00102 0.029457,0.015425 0.028422,0.032191 l -0.00868,0.1393858 c -0.00102,0.016093 -0.014394,0.028482 -0.030309,0.028482 -6.147e-4,0 -0.00127,0 -0.00194,-6.18e-5 -0.0167,-0.00102 -0.029457,-0.015425 -0.028366,-0.032191 z M 0.69194991,1.3957091 C 0.70665034,1.2840184 0.75657153,1.1827132 0.83643719,1.1027864 L 1.3026359,0.63658788 c 0.061402,-0.0614635 0.1379283,-0.10628566 0.2213166,-0.12985045 0.016399,-0.004388 0.03292,0.004897 0.037475,0.0210147 0.00449,0.0161542 -0.00484,0.0329201 -0.021016,0.0374753 -0.073428,0.0206479 -0.1407828,0.0601877 -0.1948362,0.11430228 L 0.87937769,1.1457283 c -0.0702697,0.07033 -0.11430225,0.1594888 -0.12723867,0.2578788 -0.001991,0.015307 -0.0150619,0.026422 -0.030064,0.026422 -0.001272,0 -0.002599,-6.17e-5 -0.003926,-2.424e-4 -0.016638,-0.00219 -0.0283652,-0.017429 -0.0261774,-0.034073 z M 1.0566608,1.2511004 0.95207586,1.3120779 c -0.004789,0.00281 -0.010087,0.00414 -0.0152466,0.00414 -0.0104409,0 -0.020592,-0.00541 -0.0262991,-0.015062 -0.008439,-0.014517 -0.003517,-0.033099 0.0109276,-0.04154 L 1.0260426,1.1986389 c 0.014456,-0.00838 0.033099,-0.00352 0.04154,0.010928 0.00844,0.014517 0.00357,0.033099 -0.010927,0.04154 z M 1.7798276,1.5973482 1.555474,1.821762 C 1.456355,1.920881 1.3262008,1.9703794 1.1959863,1.9703794 c -0.1302152,0 -0.26036945,-0.049559 -0.35948784,-0.1486781 -0.0609775,-0.060977 -0.1057395,-0.1368955 -0.12936479,-0.219616 -0.00459,-0.016093 0.004745,-0.03292 0.0208928,-0.037536 0.0159699,-0.00439 0.0329198,0.00474 0.0375308,0.020893 0.0207701,0.07276 0.0601878,0.1396289 0.11387731,0.1933182 0.17449042,0.1745511 0.45854612,0.1744904 0.63309702,6.18e-5 l 0.2243539,-0.224414 c 0.011843,-0.011844 0.031094,-0.011844 0.042938,0 0.011843,0.011844 0.011843,0.031094 0,0.042938 z m 0.071544,-0.4910999 c -0.033283,0.023565 -0.069601,0.00418 -0.093653,-0.00863 -0.0088,-0.00474 -0.025447,-0.013665 -0.030125,-0.012573 -0.00229,0.00424 4.872e-4,0.022591 0.00199,0.032431 0.00408,0.026906 0.010319,0.067658 -0.02326,0.091284 -0.011415,0.00814 -0.023143,0.011175 -0.034619,0.011175 -0.022045,0 -0.043183,-0.011298 -0.058973,-0.01974 -0.0088,-0.00474 -0.025264,-0.012997 -0.030125,-0.012573 -0.013603,0.00972 -0.032492,0.0065 -0.04227,-0.00717 -0.00966,-0.013665 -0.00637,-0.032613 0.00729,-0.042331 0.033466,-0.023688 0.069784,-0.00428 0.093773,0.00856 0.0088,0.00474 0.02557,0.013542 0.030064,0.012573 0.00234,-0.00439 -4.231e-4,-0.022713 -0.00194,-0.032614 -0.00408,-0.026846 -0.010264,-0.067537 0.023143,-0.091163 0.033527,-0.023749 0.069663,-0.00434 0.093774,0.00863 0.0088,0.00469 0.025754,0.013909 0.030064,0.012573 0.00219,-0.00424 -6.147e-4,-0.022535 -0.00215,-0.032308 -0.00414,-0.0269063 -0.010386,-0.0675362 0.023081,-0.0911632 0.033405,-0.0237486 0.069602,-0.004236 0.093592,0.008627 0.00887,0.004745 0.025692,0.0133641 0.030186,0.0125733 0.013603,-0.009722 0.032492,-0.006382 0.042208,0.007289 0.00966,0.0137258 0.00632,0.0326754 -0.00741,0.042331 -0.033221,0.023565 -0.069601,0.00418 -0.093714,-0.008682 -0.00868,-0.00469 -0.025692,-0.0142102 -0.030002,-0.0125733 -0.00219,0.004236 6.147e-4,0.0225298 0.00215,0.0323081 0.00414,0.026845 0.010319,0.067537 -0.023081,0.091163 z m 0.1701783,0.2493762 -0.097964,0.098025 c -0.00595,0.00595 -0.013726,0.00887 -0.0215,0.00887 -0.00778,0 -0.015547,-0.00295 -0.021499,-0.00887 -0.011843,-0.011845 -0.011843,-0.031094 0,-0.042938 l 0.097965,-0.098025 c 0.1745511,-0.1745511 0.1745511,-0.45854618 0,-0.63309718 -0.076526,-0.0764649 -0.1780131,-0.12268378 -0.2858777,-0.13003295 -0.0167,-0.001175 -0.029334,-0.015608 -0.028242,-0.0323694 0.00123,-0.0167608 0.015608,-0.0287273 0.032369,-0.0282431 0.1225017,0.00838 0.2377757,0.0607957 0.324687,0.14770659 0.1982981,0.19817708 0.1982981,0.52073814 6.18e-5,0.71897604 z"
   id="path4"
   style="fill:#2780e3;fill-opacity:1;stroke-width:0.06073455"
   sodipodi:nodetypes="ccccccccsssccccccsccccccccscccsscccccccccsccccccccssssscccscccccssccccccscccccccccscccccccsccscccccccsccccccccsccccccccccccscccccsccccccccscccccccscccccccscccccccccccccccccccccccscccccccccc" /></svg>