<?xml version="1.0" encoding="UTF-8" standalone="no"?>
<!-- Generator: Adobe Illustrator 18.1.1, SVG Export Plug-In . SVG Version: 6.00 Build 0)  -->

<svg
   xmlns:dc="http://purl.org/dc/elements/1.1/"
   xmlns:cc="http://creativecommons.org/ns#"
   xmlns:rdf="http://www.w3.org/1999/02/22-rdf-syntax-ns#"
   xmlns:svg="http://www.w3.org/2000/svg"
   xmlns="http://www.w3.org/2000/svg"
   xmlns:sodipodi="http://sodipodi.sourceforge.net/DTD/sodipodi-0.dtd"
   xmlns:inkscape="http://www.inkscape.org/namespaces/inkscape"
   version="1.1"
   id="Capa_1"
   x="0px"
   y="0px"
   viewBox="0 0 60.964 60.964"
   style="enable-background:new 0 0 60.964 60.964;"
   xml:space="preserve"
   width="512px"
   height="512px"
   sodipodi:docname="disease.svg"
   inkscape:version="0.92.2 2405546, 2018-03-11"><metadata
   id="metadata45"><rdf:RDF><cc:Work
       rdf:about=""><dc:format>image/svg+xml</dc:format><dc:type
         rdf:resource="http://purl.org/dc/dcmitype/StillImage" /></cc:Work></rdf:RDF></metadata><defs
   id="defs43">
	

		
		
	</defs><sodipodi:namedview
   pagecolor="#ffffff"
   bordercolor="#666666"
   borderopacity="1"
   objecttolerance="10"
   gridtolerance="10"
   guidetolerance="10"
   inkscape:pageopacity="0"
   inkscape:pageshadow="2"
   inkscape:window-width="2560"
   inkscape:window-height="1347"
   id="namedview41"
   showgrid="false"
   inkscape:zoom="0.92187499"
   inkscape:cx="-57.277601"
   inkscape:cy="224.03357"
   inkscape:window-x="0"
   inkscape:window-y="0"
   inkscape:window-maximized="1"
   inkscape:current-layer="Capa_1" />

<g
   id="g10">
</g>
<g
   id="g12">
</g>
<g
   id="g14">
</g>
<g
   id="g16">
</g>
<g
   id="g18">
</g>
<g
   id="g20">
</g>
<g
   id="g22">
</g>
<g
   id="g24">
</g>
<g
   id="g26">
</g>
<g
   id="g28">
</g>
<g
   id="g30">
</g>
<g
   id="g32">
</g>
<g
   id="g34">
</g>
<g
   id="g36">
</g>
<g
   id="g38">
</g>
<path
   inkscape:connector-curvature="0"
   d="m -16.387592,83.916562 c 0.19468,-0.0843 0.30994,-0.17039 0.348996,-0.21516 -0.0029,-1.19e-4 -0.0061,-1.19e-4 -0.0095,-1.19e-4 -0.08454,0 -0.236117,0.04191 -0.386384,0.106806 -0.194799,0.0843 -0.310059,0.170508 -0.348876,0.21516 0.0029,1.19e-4 0.0061,2.38e-4 0.0096,2.38e-4 0.08454,-1.19e-4 0.236117,-0.04203 0.386145,-0.106925 z"
   id="path2-3"
   style="stroke-width:0.11907031;fill:#2780e3;fill-opacity:1" /><path
   inkscape:connector-curvature="0"
   d="m 54.814321,19.740562 -2.350064,-0.0014 C 52.301711,15.869701 50.798825,12.249566 48.17601,9.4022053 l 1.47947,-1.4794598 c 0.268633,-0.2686331 0.268633,-0.7052474 0,-0.9738817 -0.268633,-0.2686319 -0.705249,-0.2686319 -0.973882,0 L 47.20214,8.4283359 C 44.343768,5.7944948 40.70571,4.2916079 36.819706,4.1387122 V 1.7445581 c 0,-0.3801585 -0.308546,-0.6887048 -0.68882,-0.6887048 -0.380159,0 -0.68882,0.3085463 -0.68882,0.6887048 V 4.1414652 C 32.074008,4.287466 28.894675,5.4459772 26.247069,7.477837 L 24.899842,6.1306108 c -0.268632,-0.2686331 -0.705249,-0.2686331 -0.973881,0 -0.268633,0.2686332 -0.268633,0.7052485 0,0.9738816 l 1.261823,1.2618107 C 24.994927,8.5412277 24.793858,8.7065492 24.609216,8.8911918 L 19.36635,14.13407 18.132085,12.898427 c -0.268632,-0.268633 -0.70525,-0.268633 -0.973882,0 -0.268633,0.268633 -0.268633,0.705249 0,0.973883 l 1.234266,1.235641 -4.848907,4.848894 c -0.319536,0.319536 -0.611654,0.657121 -0.899492,0.995979 l -1.234265,-1.232879 c -0.268634,-0.268634 -0.705249,-0.268634 -0.973883,0 -0.268632,0.268633 -0.268632,0.70525 0,0.973882 l 1.358241,1.358227 C 9.8422106,24.796091 8.8324778,28.005733 8.7787507,31.236038 H 6.049871 c -0.3801595,0 -0.6888206,0.308548 -0.6888206,0.688822 0,0.380158 0.3085463,0.688705 0.6888206,0.688705 l 2.7467884,0.0014 c 0.00827,0 0.015038,-0.004 0.021985,-0.004 0.2424866,3.610498 1.6764586,7.145243 4.2992766,9.980188 -2.836337,3.217916 -2.935518,7.322944 -0.17215,11.124921 0.0014,0.0014 0.0014,0.0027 0.0014,0.004 2.03048,2.79501 4.288246,2.267416 6.102445,1.847275 1.584159,-0.369168 2.952047,-0.688704 4.375038,0.73417 3.128451,2.924573 1.87771,1.272084 4.011769,4.046298 0.121249,0.08793 0.263081,0.132233 0.403645,0.132233 0.213564,0 0.422848,-0.09833 0.557858,-0.283789 0.223166,-0.308546 0.154331,-0.738336 -0.152943,-0.961502 C 25.076671,56.033512 26.834903,57.88409 24.398536,55.328965 22.43417,53.364601 20.384415,53.84261 18.73827,54.2269 c -1.777015,0.416022 -3.182098,0.7425 -4.675335,-1.315538 l -0.0014,-0.0014 c -2.36935,-3.256477 -2.325272,-6.624534 0.03007,-9.347906 2.76057,2.526386 6.240209,4.00447 9.966424,4.237272 -0.0027,0.02315 -0.01396,0.04281 -0.01396,0.06594 v 2.74679 c 0,0.380158 0.308546,0.688819 0.688821,0.688819 0.380158,0 0.688704,-0.308545 0.688704,-0.688819 v -2.746836 c 0,-0.01105 -0.0055,-0.02082 -0.0055,-0.0301 3.323979,-0.06363 6.478519,-1.118495 9.139895,-3.016787 l 1.454666,1.454666 c 0.135008,0.135007 0.311323,0.201071 0.487636,0.201071 0.176313,0 0.352624,-0.0671 0.487635,-0.201071 0.268633,-0.268633 0.268633,-0.705248 0,-0.973882 l -1.330684,-1.330668 c 0.340246,-0.289342 0.676326,-0.584121 0.995979,-0.902268 l 4.847529,-4.848907 1.234266,1.234267 c 0.135006,0.135006 0.311322,0.201069 0.487635,0.201069 0.176312,0 0.352624,-0.0671 0.487634,-0.201069 0.268633,-0.268633 0.268633,-0.70525 0,-0.973882 l -1.234276,-1.234264 5.242877,-5.244245 c 0.185914,-0.186031 0.349848,-0.385712 0.524888,-0.578567 l 1.261811,1.263189 c 0.135007,0.135005 0.311323,0.201069 0.487635,0.201069 0.176311,0 0.352622,-0.0671 0.487634,-0.201069 0.268633,-0.268633 0.268633,-0.70525 0,-0.973882 l -1.347227,-1.347215 c 2.041489,-2.658615 3.202753,-5.85449 3.340505,-9.240446 l 2.3473,0.0014 c 0.380158,0 0.68882,-0.308548 0.68882,-0.688706 -0.0055,-0.385711 -0.312711,-0.694257 -0.694259,-0.694257 z M 35.216227,19.201907 c -0.512392,0.512393 -1.194317,0.794792 -1.920275,0.794792 -0.725956,0 -1.406458,-0.282399 -1.920276,-0.794792 -1.059375,-1.059376 -1.059375,-2.78123 0,-3.839172 1.024903,-1.0249 2.814285,-1.0249 3.839176,0 1.059375,1.057989 1.059375,2.779854 0.0014,3.839172 z M 24.223551,34.871283 c 0.90921,-0.688704 2.190261,-1.407824 3.610498,-2.022208 1.954716,-0.844426 3.829524,-1.348603 5.016958,-1.348603 0.823716,0 1.348602,0.250701 1.564874,0.745278 0.775588,1.803184 -3.983808,3.970041 -4.943946,4.387429 -1.953338,0.844424 -3.828158,1.348604 -5.014204,1.348604 -0.823715,0 -1.348602,-0.252092 -1.564873,-0.746667 -0.44217,-1.016571 0.891277,-2.029095 1.330693,-2.363833 z m -0.493188,-2.812906 2.370726,-11.26405 c 0.07866,-0.373333 0.446333,-0.608879 0.8155,-0.531714 0.371947,0.07867 0.610269,0.443558 0.531714,0.815502 l -2.370727,11.264052 c -0.0671,0.323701 -0.354012,0.546867 -0.673664,0.546867 -0.04628,0 -0.09487,-0.004 -0.14323,-0.01504 -0.370554,-0.07752 -0.608878,-0.443556 -0.530324,-0.815501 z m 5.322761,-3.654589 0.197022,-3.161422 c 0.02315,-0.378771 0.330643,-0.676326 0.730121,-0.644627 0.378771,0.02313 0.668112,0.349847 0.644627,0.730121 l -0.197021,3.161424 c -0.02315,0.365003 -0.326477,0.646015 -0.687431,0.646015 -0.01396,0 -0.02892,0 -0.04397,-0.0014 -0.37877,-0.02313 -0.668112,-0.349848 -0.643354,-0.730122 z m -15.14317,1.348603 c 0.333419,-2.533271 1.465692,-4.830986 3.277136,-6.643817 l 10.573914,-10.57391 c 1.392679,-1.39406 3.12837,-2.410678 5.019709,-2.9451548 0.371946,-0.099492 0.746666,0.1110647 0.849977,0.4766438 0.101816,0.36639 -0.109903,0.746665 -0.476644,0.849977 -1.665431,0.468318 -3.193111,1.365125 -4.419104,2.592505 L 18.161029,24.082546 c -1.593796,1.595175 -2.592504,3.617384 -2.885918,5.848981 -0.04512,0.347186 -0.341633,0.599275 -0.681878,0.599275 -0.02892,0 -0.059,-0.0014 -0.08908,-0.0055 -0.377382,-0.04974 -0.643352,-0.395313 -0.593721,-0.772812 z m 8.272056,-3.27989 -2.372104,1.383032 c -0.108753,0.06364 -0.22872,0.09371 -0.345798,0.09371 -0.236934,0 -0.467042,-0.122629 -0.596499,-0.341634 -0.191469,-0.329254 -0.07983,-0.750713 0.247924,-0.942181 l 2.372103,-1.383032 c 0.327866,-0.190079 0.750715,-0.07984 0.942182,0.247925 0.191466,0.329254 0.08097,0.750714 -0.247924,0.942182 z m 16.40224,7.853292 -5.088593,5.089958 c -2.24813,2.24813 -5.200177,3.370812 -8.153589,3.370812 -2.953425,0 -5.905471,-1.124048 -8.153589,-3.372189 -1.383043,-1.383031 -2.398283,-3.104945 -2.934138,-4.98114 -0.104116,-0.365002 0.107592,-0.746666 0.473868,-0.851365 0.362226,-0.0995 0.746665,0.107591 0.851249,0.473867 0.471091,1.650275 1.365135,3.166942 2.582867,4.384676 3.957639,3.959016 10.400342,3.95764 14.359358,0.0014 l 5.088593,-5.089958 c 0.268634,-0.268634 0.705249,-0.268634 0.973882,0 0.268632,0.268633 0.268632,0.705249 0,0.973881 z m 1.622719,-11.138701 c -0.75488,0.534489 -1.578641,0.09487 -2.124144,-0.195633 -0.199796,-0.107591 -0.577179,-0.309934 -0.683267,-0.285176 -0.05207,0.09603 0.01105,0.512392 0.04512,0.735558 0.09256,0.610267 0.234158,1.534563 -0.527547,2.070429 -0.258915,0.184643 -0.524888,0.253478 -0.785191,0.253478 -0.500014,0 -0.979434,-0.256253 -1.337576,-0.447721 -0.199798,-0.107591 -0.573016,-0.294779 -0.683269,-0.285176 -0.308546,0.220389 -0.736946,0.147388 -0.958726,-0.162546 -0.219002,-0.309934 -0.144608,-0.739723 0.165322,-0.960114 0.759044,-0.537265 1.582784,-0.09718 2.126899,0.194244 0.199795,0.107591 0.579955,0.307156 0.681878,0.285177 0.05322,-0.0995 -0.0096,-0.515168 -0.04397,-0.739723 -0.09256,-0.60888 -0.232768,-1.531823 0.524888,-2.067678 0.760431,-0.538652 1.580028,-0.09833 2.126908,0.195634 0.199797,0.106428 0.58412,0.315487 0.68188,0.285176 0.04974,-0.09603 -0.01396,-0.51112 -0.04859,-0.732782 -0.09371,-0.610267 -0.235547,-1.531808 0.523497,-2.067675 0.757657,-0.538655 1.578653,-0.09603 2.122768,0.195632 0.20107,0.10759 0.582731,0.303108 0.684656,0.285176 0.308546,-0.22039 0.736947,-0.144609 0.957337,0.165322 0.219001,0.311323 0.143228,0.741112 -0.168098,0.960114 -0.75349,0.534488 -1.578641,0.09487 -2.125522,-0.197021 -0.197019,-0.106428 -0.582731,-0.322314 -0.68049,-0.285177 -0.04974,0.09603 0.01396,0.511004 0.04859,0.732785 0.09371,0.608875 0.234159,1.531819 -0.523497,2.067673 z m 3.859836,5.656135 -2.221951,2.223326 c -0.135005,0.135006 -0.311322,0.20107 -0.487634,0.20107 -0.176311,0 -0.352624,-0.0671 -0.487633,-0.20107 -0.268634,-0.268632 -0.268634,-0.705249 0,-0.973882 l 2.221958,-2.223325 c 3.959016,-3.959015 3.959016,-10.400343 0,-14.359357 -1.735689,-1.734312 -4.037533,-2.782607 -6.484025,-2.949294 -0.378771,-0.02662 -0.665337,-0.354012 -0.640578,-0.7341717 0.02776,-0.3801576 0.354012,-0.6515667 0.73417,-0.6405775 2.778477,0.1900806 5.393021,1.3789142 7.364269,3.3501512 4.497623,4.494881 4.497623,11.810929 0.0014,16.307188 z"
   id="path4"
   style="fill:#2780e3;fill-opacity:1;stroke-width:1.37752831"
   sodipodi:nodetypes="ccccccccsssccccccsccccccccscccsscccccccccsccccccccssssscccscccccssccccccscccccccccscccccccsccscccccccsccccccccsccccccccccccscccccsccccccccscccccccscccccccscccccccccccccccccccccccscccccccccc" /><path
   inkscape:connector-curvature="0"
   d="m -16.091226,82.271248 c -0.04513,0.04501 -0.04513,0.118475 0,0.163484 0.0437,0.04358 0.119785,0.04358 0.163484,0 0.04513,-0.04501 0.04513,-0.118475 0,-0.163484 -0.02191,-0.02179 -0.05084,-0.03382 -0.0818,-0.03382 -0.03096,0 -0.05989,0.01203 -0.08168,0.03382 z"
   id="path6"
   style="stroke-width:0.11907031;fill:#2780e3;fill-opacity:1" /></svg>