<?xml version="1.0" encoding="UTF-8" standalone="no"?>
<!-- Generator: Adobe Illustrator 18.1.1, SVG Export Plug-In . SVG Version: 6.00 Build 0)  -->

<svg
   xmlns:dc="http://purl.org/dc/elements/1.1/"
   xmlns:cc="http://creativecommons.org/ns#"
   xmlns:rdf="http://www.w3.org/1999/02/22-rdf-syntax-ns#"
   xmlns:svg="http://www.w3.org/2000/svg"
   xmlns="http://www.w3.org/2000/svg"
   xmlns:sodipodi="http://sodipodi.sourceforge.net/DTD/sodipodi-0.dtd"
   xmlns:inkscape="http://www.inkscape.org/namespaces/inkscape"
   version="1.1"
   id="Capa_1"
   x="0px"
   y="0px"
   viewBox="0 0 60.964 60.964"
   style="enable-background:new 0 0 60.964 60.964;"
   xml:space="preserve"
   width="512px"
   height="512px"
   sodipodi:docname="disease.svg"
   inkscape:version="0.92.2 2405546, 2018-03-11"><metadata
   id="metadata45"><rdf:RDF><cc:Work
       rdf:about=""><dc:format>image/svg+xml</dc:format><dc:type
         rdf:resource="http://purl.org/dc/dcmitype/StillImage" /></cc:Work></rdf:RDF></metadata><defs
   id="defs43">
	

		
		
	</defs><sodipodi:namedview
   pagecolor="#ffffff"
   bordercolor="#666666"
   borderopacity="1"
   objecttolerance="10"
   gridtolerance="10"
   guidetolerance="10"
   inkscape:pageopacity="0"
   inkscape:pageshadow="2"
   inkscape:window-width="2485"
   inkscape:window-height="1399"
   id="namedview41"
   showgrid="false"
   inkscape:zoom="0.65186406"
   inkscape:cx="307.64028"
   inkscape:cy="264.70795"
   inkscape:window-x="75"
   inkscape:window-y="0"
   inkscape:window-maximized="1"
   inkscape:current-layer="Capa_1" />
<g
   id="g859"
   transform="matrix(0.91702357,0,0,0.91702357,2.8945879,3.1052415)"><path
     style="fill:#6a6c6c;fill-opacity:1"
     inkscape:connector-curvature="0"
     id="path2"
     d="M 28.639,4.168 C 17.696,6.194 10.05,16.3 10.709,27.413 c 0.012,0.205 0.037,0.398 0.064,0.593 -0.401,1.993 0.356,4.349 2.734,5.31 3.796,1.537 8.127,3.883 9.561,7.989 1.534,4.397 -1.79,9.084 -4.471,12.228 -3.54,4.15 2.451,10.201 6.02,6.021 4.831,-5.667 8.262,-12.039 6.884,-19.653 -0.039,-0.209 -0.099,-0.408 -0.146,-0.612 0.328,-0.466 0.567,-1.021 0.64,-1.692 0.883,-8.227 3.199,-16.207 4,-24.446 0.651,-1.4 0.852,-3.021 0.461,-4.465 C 35.502,5.121 32.06,3.535 28.639,4.168 Z m -2.504,26.944 c -0.858,-0.75 -1.774,-1.444 -2.732,-2.083 0.078,-0.473 0.107,-0.98 0.077,-1.527 -0.038,-0.632 -0.009,-1.267 0.029,-1.896 0.016,-0.222 0.036,-0.44 0.058,-0.658 0.01,-0.059 0.021,-0.12 0.037,-0.202 0.152,-0.853 0.386,-1.688 0.645,-2.513 0.111,-0.297 0.17,-0.461 0.18,-0.508 0.191,-0.402 0.401,-0.795 0.618,-1.184 0.708,-1.272 0.314,-0.656 1.366,-1.729 0.547,-0.558 1.322,-1.017 2.236,-1.391 -0.698,4.585 -1.703,9.124 -2.514,13.691 z" /><circle
     style="fill:#18bc9c"
     id="circle4"
     r="6.6669998"
     cy="6.6669998"
     cx="43.626999" /></g>
<g
   id="g10">
</g>
<g
   id="g12">
</g>
<g
   id="g14">
</g>
<g
   id="g16">
</g>
<g
   id="g18">
</g>
<g
   id="g20">
</g>
<g
   id="g22">
</g>
<g
   id="g24">
</g>
<g
   id="g26">
</g>
<g
   id="g28">
</g>
<g
   id="g30">
</g>
<g
   id="g32">
</g>
<g
   id="g34">
</g>
<g
   id="g36">
</g>
<g
   id="g38">
</g>
</svg>