<?xml version="1.0" encoding="UTF-8" standalone="no"?>
<!-- Generator: Adobe Illustrator 19.1.0, SVG Export Plug-In . SVG Version: 6.00 Build 0)  -->

<svg
   xmlns:dc="http://purl.org/dc/elements/1.1/"
   xmlns:cc="http://creativecommons.org/ns#"
   xmlns:rdf="http://www.w3.org/1999/02/22-rdf-syntax-ns#"
   xmlns:svg="http://www.w3.org/2000/svg"
   xmlns="http://www.w3.org/2000/svg"
   xmlns:sodipodi="http://sodipodi.sourceforge.net/DTD/sodipodi-0.dtd"
   xmlns:inkscape="http://www.inkscape.org/namespaces/inkscape"
   version="1.1"
   id="Capa_1"
   x="0px"
   y="0px"
   viewBox="0 0 488.7 488.7"
   style="enable-background:new 0 0 488.7 488.7;"
   xml:space="preserve"
   width="512px"
   height="512px"
   sodipodi:docname="disease_group.svg"
   inkscape:version="0.92.2 2405546, 2018-03-11"><metadata
   id="metadata93"><rdf:RDF><cc:Work
       rdf:about=""><dc:format>image/svg+xml</dc:format><dc:type
         rdf:resource="http://purl.org/dc/dcmitype/StillImage" /></cc:Work></rdf:RDF></metadata><defs
   id="defs91">
	

		
		
		
		
		
		
		
		
		
		
		
		
		
	
			
		
			
		
			
		
			
		
			
		
			
		
			
		
			
		
			
		
			
		
			
		
			
		
			
		</defs><sodipodi:namedview
   pagecolor="#ffffff"
   bordercolor="#666666"
   borderopacity="1"
   objecttolerance="10"
   gridtolerance="10"
   guidetolerance="10"
   inkscape:pageopacity="0"
   inkscape:pageshadow="2"
   inkscape:window-width="2560"
   inkscape:window-height="1345"
   id="namedview89"
   showgrid="false"
   inkscape:zoom="1.3037281"
   inkscape:cx="-70.250593"
   inkscape:cy="269.14165"
   inkscape:window-x="0"
   inkscape:window-y="0"
   inkscape:window-maximized="1"
   inkscape:current-layer="Capa_1" />

<g
   id="g58">
</g>
<g
   id="g60">
</g>
<g
   id="g62">
</g>
<g
   id="g64">
</g>
<g
   id="g66">
</g>
<g
   id="g68">
</g>
<g
   id="g70">
</g>
<g
   id="g72">
</g>
<g
   id="g74">
</g>
<g
   id="g76">
</g>
<g
   id="g78">
</g>
<g
   id="g80">
</g>
<g
   id="g82">
</g>
<g
   id="g84">
</g>
<g
   id="g86">
</g>
<path
   style="fill:#2780e3;fill-opacity:1;stroke-width:0.94664639"
   inkscape:connector-curvature="0"
   d="m 433.07965,215.87156 c -18.64893,0 -34.5526,12.21175 -40.04315,29.06205 l -59.35472,-5.8692 c -0.18934,-28.30473 -13.82105,-53.39087 -34.93126,-69.19987 l 41.08446,-69.10518 c 4.16524,1.41997 8.61448,2.17729 13.25303,2.17729 23.19285,0 42.03112,-18.838276 42.03112,-42.031113 0,-23.192835 -18.83827,-42.125765 -42.03112,-42.125765 -23.19283,0 -42.03109,18.83826 -42.03109,42.031101 0,12.117074 5.11189,23.003508 13.34772,30.671345 l -41.08447,69.105192 c -11.07575,-5.11188 -23.38216,-7.95183 -36.35122,-7.95183 -21.58353,0 -41.36845,7.95183 -56.51479,21.01556 L 157.13221,142.1278 c 3.78658,-6.34253 5.96387,-13.72637 5.96387,-21.6782 0,-23.192841 -18.83827,-42.031103 -42.03111,-42.031103 -23.192833,0 -42.031103,18.838262 -42.031103,42.031103 0,23.19284 18.83827,42.03111 42.031103,42.03111 8.80382,0 16.94497,-2.65062 23.66616,-7.28918 l 33.32195,31.52332 c -11.17042,14.57836 -17.89161,32.84863 -17.89161,52.7282 0,6.4372 0.75732,12.77974 2.08263,18.83828 l -71.755803,23.95016 c -7.38385,-12.3064 -20.73156,-20.44757 -36.06723,-20.44757 -23.19284,0 -42.03111,18.83827 -42.03111,42.0311 0,23.19284 18.83827,42.0311 42.03111,42.0311 23.19283,0 42.0311,-18.83826 42.0311,-42.0311 0,-1.51464 -0.0947,-3.02927 -0.284,-4.44923 l 71.755813,-23.95017 c 13.6317,30.0087 43.92439,50.92959 79.04497,50.92959 3.59726,0 7.09985,-0.28399 10.50778,-0.66266 l 13.25305,57.93477 c -14.1997,6.72119 -24.04482,21.20488 -24.04482,38.05519 0,23.19283 18.83827,42.03109 42.03111,42.03109 23.19283,0 42.03109,-18.83826 42.03109,-42.03109 0,-23.19285 -18.83826,-42.03111 -42.03109,-42.03111 h -0.37867 l -13.25305,-57.93476 c 28.77806,-9.84512 50.83492,-34.36326 56.98812,-64.65595 l 59.35474,5.8692 c 2.46127,20.92089 20.16357,37.10854 41.7471,37.10854 23.19284,0 42.03111,-18.83826 42.03111,-42.0311 0,-23.19283 -18.83827,-42.12577 -42.12577,-42.12577 z M 301.14233,285.6585 c -12.78204,14.9215 -30.23542,21.6665 -49.3136,22.86748 -19.07819,1.20098 -30.53988,-1.95662 -37.62557,-6.39999 -7.08568,-4.44336 -15.37473,-8.18516 -24.50021,-20.58884 -9.12546,-12.40367 -12.5965,-25.43311 -12.5965,-42.0941 0,-38.71783 31.42866,-70.05183 70.05183,-70.05183 38.71785,0 70.05184,31.42866 70.05184,70.05183 0.0947,16.66099 -3.28576,31.29395 -16.06779,46.21545 z"
   id="path4-5"
   sodipodi:nodetypes="sccccssssccsccssssccsccssssccsccssssccccssszzzzsscz" /></svg>