<?xml version="1.0" encoding="UTF-8" standalone="no"?>
<!-- Generator: Adobe Illustrator 19.1.0, SVG Export Plug-In . SVG Version: 6.00 Build 0)  -->

<svg
   xmlns:dc="http://purl.org/dc/elements/1.1/"
   xmlns:cc="http://creativecommons.org/ns#"
   xmlns:rdf="http://www.w3.org/1999/02/22-rdf-syntax-ns#"
   xmlns:svg="http://www.w3.org/2000/svg"
   xmlns="http://www.w3.org/2000/svg"
   xmlns:sodipodi="http://sodipodi.sourceforge.net/DTD/sodipodi-0.dtd"
   xmlns:inkscape="http://www.inkscape.org/namespaces/inkscape"
   version="1.1"
   id="Capa_1"
   x="0px"
   y="0px"
   viewBox="0 0 22.907812 22.907812"
   xml:space="preserve"
   width="24"
   height="24"
   sodipodi:docname="disease_group.svg"
   inkscape:version="0.92.2 2405546, 2018-03-11"><metadata
   id="metadata93"><rdf:RDF><cc:Work
       rdf:about=""><dc:format>image/svg+xml</dc:format><dc:type
         rdf:resource="http://purl.org/dc/dcmitype/StillImage" /><dc:title></dc:title></cc:Work></rdf:RDF></metadata><defs
   id="defs91">
	

		
		
		
		
		
		
		
		
		
		
		
		
		
	
			
		
			
		
			
		
			
		
			
		
			
		
			
		
			
		
			
		
			
		
			
		
			
		
			
		</defs><sodipodi:namedview
   pagecolor="#ffffff"
   bordercolor="#666666"
   borderopacity="1"
   objecttolerance="10"
   gridtolerance="10"
   guidetolerance="10"
   inkscape:pageopacity="0"
   inkscape:pageshadow="2"
   inkscape:window-width="2560"
   inkscape:window-height="1347"
   id="namedview89"
   showgrid="false"
   inkscape:zoom="10.429825"
   inkscape:cx="19.747072"
   inkscape:cy="18.209097"
   inkscape:window-x="0"
   inkscape:window-y="0"
   inkscape:window-maximized="1"
   inkscape:current-layer="Capa_1" />

<g
   id="g58"
   transform="translate(0,-465.79218)">
</g>
<g
   id="g60"
   transform="translate(0,-465.79218)">
</g>
<g
   id="g62"
   transform="translate(0,-465.79218)">
</g>
<g
   id="g64"
   transform="translate(0,-465.79218)">
</g>
<g
   id="g66"
   transform="translate(0,-465.79218)">
</g>
<g
   id="g68"
   transform="translate(0,-465.79218)">
</g>
<g
   id="g70"
   transform="translate(0,-465.79218)">
</g>
<g
   id="g72"
   transform="translate(0,-465.79218)">
</g>
<g
   id="g74"
   transform="translate(0,-465.79218)">
</g>
<g
   id="g76"
   transform="translate(0,-465.79218)">
</g>
<g
   id="g78"
   transform="translate(0,-465.79218)">
</g>
<g
   id="g80"
   transform="translate(0,-465.79218)">
</g>
<g
   id="g82"
   transform="translate(0,-465.79218)">
</g>
<g
   id="g84"
   transform="translate(0,-465.79218)">
</g>
<g
   id="g86"
   transform="translate(0,-465.79218)">
</g>
<path
   style="fill:#2780e3;fill-opacity:1;stroke-width:0.04187601"
   inkscape:connector-curvature="0"
   d="m 19.743234,10.284766 c -0.824957,0 -1.528475,0.540201 -1.771355,1.285594 l -2.625626,-0.259631 c -0.0084,-1.252093 -0.61139,-2.361808 -1.545225,-3.0611378 l 1.817419,-3.0569488 c 0.184254,0.062814 0.381072,0.096315 0.586263,0.096315 1.025963,0 1.859296,-0.8333333 1.859296,-1.8592956 0,-1.0259623 -0.833333,-1.8634824 -1.859296,-1.8634824 -1.025962,0 -1.859294,0.8333323 -1.859294,1.8592951 0,0.5360125 0.22613,1.0175869 0.590452,1.3567831 l -1.81742,3.0569489 c -0.489949,-0.22613 -1.034337,-0.3517586 -1.608039,-0.3517586 -0.954773,0 -1.8299815,0.3517585 -2.4999981,0.9296483 L 7.5363756,7.022624 c 0.1675041,-0.280569 0.263819,-0.607202 0.263819,-0.9589606 0,-1.0259623 -0.8333333,-1.8592957 -1.8592955,-1.8592957 -1.0259623,0 -1.8592952,0.8333334 -1.8592952,1.8592957 0,1.0259624 0.8333329,1.8592957 1.8592952,1.8592957 0.389447,0 0.7495805,-0.1172536 1.0469004,-0.3224458 L 8.4618347,8.9949846 C 7.9676982,9.6398752 7.6703783,10.448082 7.6703783,11.327478 c 0,0.284757 0.033502,0.565327 0.092128,0.833334 L 4.5883042,13.220275 C 4.2616707,12.675887 3.6712191,12.315753 2.992828,12.315753 c -1.0259627,0 -1.8592956,0.833333 -1.8592956,1.859295 0,1.025962 0.8333329,1.859295 1.8592956,1.859295 1.0259619,0 1.8592947,-0.833333 1.8592947,-1.859295 0,-0.067 -0.00417,-0.134003 -0.012563,-0.196817 l 3.1742028,-1.059464 c 0.6030142,1.32747 1.9430469,2.25293 3.4966465,2.25293 0.159129,0 0.31407,-0.01256 0.464824,-0.02931 l 0.586264,2.562812 c -0.62814,0.29732 -1.06365,0.938023 -1.06365,1.683416 0,1.025962 0.833333,1.859295 1.859295,1.859295 1.025962,0 1.859295,-0.833333 1.859295,-1.859295 0,-1.025962 -0.833333,-1.859295 -1.859295,-1.859295 h -0.01675 l -0.586264,-2.562811 c 1.273031,-0.435511 2.248742,-1.520099 2.520936,-2.860132 l 2.625627,0.259631 c 0.108877,0.92546 0.891959,1.64154 1.846732,1.64154 1.025962,0 1.859295,-0.833333 1.859295,-1.859295 0,-1.025962 -0.833333,-1.863483 -1.863483,-1.863483 z m -5.836402,3.087107 c -0.565428,0.66007 -1.337499,0.958443 -2.181445,1.01157 -0.843946,0.05313 -1.350967,-0.08655 -1.664411,-0.283111 C 9.7475329,13.903775 9.3808566,13.738252 8.9771805,13.189561 8.5735049,12.640869 8.4199594,12.064497 8.4199594,11.327478 c 0,-1.7127282 1.390284,-3.0988245 3.0988246,-3.0988245 1.71273,0 3.098826,1.3902835 3.098826,3.0988245 0.0042,0.737019 -0.14535,1.384325 -0.710778,2.044395 z"
   id="path4-5"
   sodipodi:nodetypes="sccccssssccsccssssccsccssssccsccssssccccssszzzzsscz" /></svg>