<svg id="_x33_0" enable-background="new 0 0 64 64" height="512" viewBox="0 0 64 64" width="512" xmlns="http://www.w3.org/2000/svg"><g><g><g><path d="m59 16c1.66 0 3 1.34 3 3s-1.34 3-3 3c-.59 0-1.15-.17-1.61-.47-.84-.53-1.39-1.46-1.39-2.53 0-1.66 1.34-3 3-3z" fill="#ff826e"/></g><g><path d="m8.16 26.64c1.11.71 1.84 1.95 1.84 3.36s-.73 2.65-1.84 3.36c-.63.41-1.37.64-2.16.64-2.21 0-4-1.79-4-4s1.79-4 4-4c.79 0 1.53.23 2.16.64z" fill="#ff826e"/></g><g><path d="m37 2c1.66 0 3 1.34 3 3s-1.34 3-3 3c-.66 0-1.27-.21-1.76-.58-.75-.53-1.24-1.42-1.24-2.42 0-1.66 1.34-3 3-3z" fill="#ff826e"/></g><g><path d="m56 58c0 2.21-1.79 4-4 4s-4-1.79-4-4 1.79-4 4-4c.79 0 1.53.23 2.16.64 1.11.71 1.84 1.95 1.84 3.36z" fill="#ff826e"/></g><g><path d="m10 55c0 1.66-1.34 3-3 3s-3-1.34-3-3 1.34-3 3-3c.66 0 1.27.21 1.76.58.75.53 1.24 1.42 1.24 2.42z" fill="#ff826e"/></g><g><path d="m38 56c1.1 0 2 .9 2 2s-.9 2-2 2-2-.9-2-2c0-.7.37-1.33.92-1.68.31-.21.68-.32 1.08-.32z" fill="#ff826e"/></g><g><path d="m15 13c1.66 0 3 1.34 3 3s-1.34 3-3 3c-.6 0-1.15-.18-1.62-.48-.83-.53-1.38-1.46-1.38-2.52 0-1.66 1.34-3 3-3z" fill="#ff826e"/></g><g><path d="m52 30 9 14-6.84 10.64c-.63-.41-1.37-.64-2.16-.64-2.21 0-4 1.79-4 4h-8c0-1.1-.9-2-2-2-.4 0-.77.11-1.08.32l-7.92-12.32 9-14z" fill="#e6e9ed"/></g><g><path d="m29 16 9 14-9 14h-14l-6.84-10.64c1.11-.71 1.84-1.95 1.84-3.36s-.73-2.65-1.84-3.36l5.22-8.12c.47.3 1.02.48 1.62.48 1.66 0 3-1.34 3-3z" fill="#e6e9ed"/></g></g><g><path d="m53.187 29.997 4.579-7.197c.394.128.809.2 1.234.2 2.206 0 4-1.794 4-4s-1.794-4-4-4-4 1.794-4 4c0 1.037.392 2.007 1.075 2.734l-4.624 7.266h-12.905l-8.335-12.965 5.326-7.323c.459.182.95.288 1.463.288 2.206 0 4-1.794 4-4s-1.794-4-4-4-4 1.794-4 4c0 .945.337 1.846.915 2.543l-5.424 7.457h-9.633c-.447-1.721-1.999-3-3.858-3-2.206 0-4 1.794-4 4 0 1.026.387 1.989 1.065 2.716l-4.265 6.635c-.572-.223-1.178-.351-1.8-.351-2.757 0-5 2.243-5 5s2.243 5 5 5c.623 0 1.23-.128 1.801-.35l5.988 9.315-5.326 7.323c-.459-.182-.95-.288-1.463-.288-2.206 0-4 1.794-4 4s1.794 4 4 4 4-1.794 4-4c0-.945-.337-1.846-.915-2.543l5.424-7.457h12.945l7.19 11.184c-.398.518-.644 1.151-.644 1.816 0 1.654 1.346 3 3 3 1.302 0 2.402-.839 2.816-2h6.285c.465 2.279 2.484 4 4.899 4 2.757 0 5-2.243 5-5 0-1.37-.559-2.643-1.516-3.571l6.704-10.429zm5.813-12.997c1.103 0 2 .897 2 2s-.897 2-2 2c-.388 0-.756-.106-1.076-.315-.578-.366-.924-.996-.924-1.685 0-1.103.897-2 2-2zm-22-14c1.103 0 2 .897 2 2s-.897 2-2 2c-.43 0-.829-.131-1.183-.396-.511-.363-.817-.962-.817-1.604 0-1.103.897-2 2-2zm-18.142 14h9.596l8.357 13-8.357 13h-12.908l-6.062-9.43c.958-.929 1.516-2.202 1.516-3.57 0-1.37-.559-2.643-1.516-3.571l4.268-6.64c.403.135.822.211 1.248.211 1.859 0 3.411-1.279 3.858-3zm-3.858-3c1.103 0 2 .897 2 2s-.897 2-2 2c-.383 0-.746-.108-1.082-.323-.575-.367-.918-.993-.918-1.677 0-1.103.897-2 2-2zm-12 16c0-1.654 1.346-3 3-3 .575 0 1.134.165 1.621.481.863.553 1.379 1.495 1.379 2.519s-.516 1.966-1.385 2.521c-.481.314-1.04.479-1.615.479-1.654 0-3-1.346-3-3zm4 27c-1.103 0-2-.897-2-2s.897-2 2-2c.43 0 .829.131 1.183.396.511.363.817.962.817 1.604 0 1.103-.897 2-2 2zm31 2c-.552 0-1-.448-1-1 0-.337.175-.657.48-.852.146-.098.321-.148.52-.148.552 0 1 .448 1 1s-.448 1-1 1zm9.101-2h-6.285c-.414-1.161-1.514-2-2.816-2-.236 0-.464.034-.686.085l-7.125-11.085 8.357-13h12.908l8.357 13-6.011 9.351c-.572-.223-1.178-.351-1.8-.351-2.414 0-4.434 1.721-4.899 4zm4.899 4c-1.654 0-3-1.346-3-3s1.346-3 3-3c.575 0 1.134.165 1.621.481.863.553 1.379 1.495 1.379 2.519 0 1.654-1.346 3-3 3z"/><path d="m15 25h8v2h-8z"/><path d="m25 25h4v2h-4z"/><path d="m15 29h14v2h-14z"/><path d="m27 33h2v2h-2z"/><path d="m23 33h2v2h-2z"/><path d="m15 33h6v2h-6z"/><path d="m38 39h8v2h-8z"/><path d="m48 39h4v2h-4z"/><path d="m38 43h14v2h-14z"/><path d="m50 47h2v2h-2z"/><path d="m46 47h2v2h-2z"/><path d="m38 47h6v2h-6z"/></g></g></svg>