<?xml version="1.0" encoding="UTF-8" standalone="no"?>
<svg
   xmlns:dc="http://purl.org/dc/elements/1.1/"
   xmlns:cc="http://creativecommons.org/ns#"
   xmlns:rdf="http://www.w3.org/1999/02/22-rdf-syntax-ns#"
   xmlns:svg="http://www.w3.org/2000/svg"
   xmlns="http://www.w3.org/2000/svg"
   xmlns:sodipodi="http://sodipodi.sourceforge.net/DTD/sodipodi-0.dtd"
   xmlns:inkscape="http://www.inkscape.org/namespaces/inkscape"
   inkscape:version="1.0 (4035a4fb49, 2020-05-01)"
   sodipodi:docname="doctor.svg"
   version="1.1"
   width="24"
   viewBox="0 0 3 3"
   height="24"
   enable-background="new 0 0 64 64"
   id="_x33_0">
  <metadata
     id="metadata97">
    <rdf:RDF>
      <cc:Work
         rdf:about="">
        <dc:format>image/svg+xml</dc:format>
        <dc:type
           rdf:resource="http://purl.org/dc/dcmitype/StillImage" />
        <dc:title></dc:title>
      </cc:Work>
    </rdf:RDF>
  </metadata>
  <defs
     id="defs95" />
  <sodipodi:namedview
     inkscape:current-layer="_x33_0"
     inkscape:window-maximized="1"
     inkscape:window-y="0"
     inkscape:window-x="0"
     inkscape:cy="18.93731"
     inkscape:cx="7.2051082"
     inkscape:zoom="22.273864"
     showgrid="false"
     id="namedview93"
     inkscape:window-height="1417"
     inkscape:window-width="2560"
     inkscape:pageshadow="2"
     inkscape:pageopacity="0"
     guidetolerance="10"
     gridtolerance="10"
     objecttolerance="10"
     borderopacity="1"
     bordercolor="#666666"
     pagecolor="#ffffff" />
  <g
     transform="matrix(0.04661392,0,0,0.04661392,0.0117825,0.01129779)"
     id="g90">
    <g
       id="g70">
      <g
         id="g4">
        <path
           id="path2"
           fill="#969faa"
           d="M 38,62 H 4 C 2.895,62 2,61.105 2,60 V 4 C 2,2.895 2.895,2 4,2 h 34 c 1.105,0 2,0.895 2,2 v 56 c 0,1.105 -0.895,2 -2,2 z" />
      </g>
      <g
         id="g8">
        <path
           id="path6"
           fill="#69d6f4"
           d="M 16.27,35.16 14,35.67 13.26,35.83 C 9.97,36.56 7.25,38.87 6,42 V 10 h 26 v 10.67 c 0,0.09 0.01,0.18 0.03,0.27 l -0.05,0.01 c -0.31,-1.4 -0.55,-1.89 -0.86,-2.33 -0.56,-0.8 -1.36,-1.43 -2.32,-1.78 L 22.22,14.45 C 21.41,14.15 20.56,14 19.7,14 c -1.16,0 -2.3,0.28 -3.31,0.78 -1.01,0.51 -1.91,1.25 -2.61,2.18 L 13,18 c -0.83,0 -1.58,0.34 -2.12,0.88 C 10.34,19.42 10,20.17 10,21 c 0,1 0.25,2.2 0.5,3.13 0.25,0.94 0.5,1.63 0.5,1.63 l 0.01,0.01 C 10.39,26.3 10,27.11 10,28 c 0,0.83 0.34,1.58 0.88,2.12 C 11.42,30.66 12.17,31 13,31 h 1.07 0.01 c 0.23,1.65 1.03,3.1 2.2,4.15 z" />
      </g>
      <g
         id="g12">
        <path
           id="path10"
           fill="#69d6f4"
           d="m 33.33,22 c 0.42,0 0.82,-0.2 1.07,-0.53 L 36,19.33 V 42 C 34.75,38.87 32.03,36.56 28.74,35.83 L 28,35.67 25.73,35.16 25.72,35.15 c 1.17,-1.05 1.97,-2.5 2.2,-4.15 H 27.93 29 c 0.83,0 1.58,-0.34 2.12,-0.88 C 31.66,29.58 32,28.83 32,28 32,27.11 31.62,26.31 31,25.77 l 0.85,-3.19 C 31.95,22.19 32,21.8 32,21.4 32,21.25 31.99,21.1 31.98,20.95 l 0.05,-0.01 c 0.28,0.72 0.75,1.06 1.3,1.06 z" />
      </g>
      <g
         id="g16">
        <path
           id="path14"
           fill="#e6e9ed"
           d="m 16,54 h 10 v 4 H 16 Z" />
      </g>
      <g
         id="g20">
        <path
           id="path18"
           fill="#b27946"
           d="m 13,25 c -0.77,0 -1.46,0.29 -1.99,0.77 L 11,25.76 c 0,0 -0.25,-0.69 -0.5,-1.63 C 10.25,23.2 10,22 10,21 10,20.17 10.34,19.42 10.88,18.88 11.42,18.34 12.17,18 13,18 l 0.78,-1.04 c 0.7,-0.93 1.6,-1.67 2.61,-2.18 1.01,-0.5 2.15,-0.78 3.31,-0.78 0.86,0 1.71,0.15 2.52,0.45 l 6.58,2.39 c 0.96,0.35 1.76,0.98 2.32,1.78 0.31,0.44 0.55,0.93 0.86,2.33 0.01,0.15 0.02,0.3 0.02,0.45 0,0.4 -0.05,0.79 -0.15,1.18 L 31,25.77 C 30.47,25.29 29.77,25 29,25 H 28 C 25.5,25 22.75,24 20.62,23 18.5,22 17,21 17,21 c -1.41,0.95 -2.41,2.38 -2.81,4 z" />
      </g>
      <g
         id="g24">
        <path
           id="path22"
           fill="#e6e9ed"
           d="M 28.74,35.83 28,35.67 25.73,35.16 21,42 16.27,35.16 14,35.67 13.26,35.83 C 9.97,36.56 7.25,38.87 6,42 v 8 h 30 v -8 c -1.25,-3.13 -3.97,-5.44 -7.26,-6.17 z" />
      </g>
      <g
         id="g28">
        <circle
           id="circle26"
           r="2"
           fill="#fcd770"
           cy="48"
           cx="28" />
      </g>
      <g
         id="g32">
        <path
           id="path30"
           fill="#f0d0b4"
           d="m 21,42 -4.73,-6.84 0.01,-0.01 c 1.24,1.16 2.9,1.85 4.72,1.85 1.82,0 3.48,-0.69 4.72,-1.85 l 0.01,0.01 z" />
      </g>
      <g
         id="g36">
        <path
           id="path34"
           fill="#f0d0b4"
           d="M 31.12,30.12 C 30.58,30.66 29.83,31 29,31 H 27.93 27.92 C 27.98,30.67 28,30.34 28,30 v -5 h 1 c 0.77,0 1.47,0.29 2,0.77 0.62,0.54 1,1.34 1,2.23 0,0.83 -0.34,1.58 -0.88,2.12 z" />
      </g>
      <g
         id="g40">
        <path
           id="path38"
           fill="#f0d0b4"
           d="m 28,25 v 5 c 0,0.34 -0.02,0.67 -0.08,1 -0.23,1.65 -1.03,3.1 -2.2,4.15 C 24.48,36.31 22.82,37 21,37 19.18,37 17.52,36.31 16.28,35.15 15.11,34.1 14.31,32.65 14.08,31 14.02,30.67 14,30.34 14,30 v -3.39 c 0,-0.55 0.07,-1.09 0.19,-1.61 0.4,-1.62 1.4,-3.05 2.81,-4 0,0 1.5,1 3.62,2 2.13,1 4.88,2 7.38,2 z" />
      </g>
      <g
         id="g44">
        <path
           id="path42"
           fill="#f0d0b4"
           d="m 14,30 c 0,0.34 0.02,0.67 0.08,1 H 14.07 13 C 12.17,31 11.42,30.66 10.88,30.12 10.34,29.58 10,28.83 10,28 10,27.11 10.39,26.3 11.01,25.77 11.54,25.29 12.23,25 13,25 h 1.19 C 14.07,25.52 14,26.06 14,26.61 Z" />
      </g>
      <g
         id="g48">
        <path
           id="path46"
           fill="#ffeaa7"
           d="m 62,8 v 8 c 0,1.1 -0.9,2 -2,2 H 40 37 l -1,1.33 -1.6,2.14 C 34.15,21.8 33.75,22 33.33,22 32.78,22 32.31,21.66 32.03,20.94 32.01,20.85 32,20.76 32,20.67 V 10 8 c 0,-1.1 0.9,-2 2,-2 h 6 20 c 1.1,0 2,0.9 2,2 z" />
      </g>
      <g
         id="g52">
        <circle
           id="circle50"
           r="2"
           fill="#ff826e"
           cy="12"
           cx="56" />
      </g>
      <g
         id="g56">
        <circle
           id="circle54"
           r="2"
           fill="#ff826e"
           cy="12"
           cx="48" />
      </g>
      <g
         id="g60">
        <circle
           id="circle58"
           r="2"
           fill="#ff826e"
           cy="12"
           cx="40" />
      </g>
      <g
         id="g64">
        <path
           id="path62"
           fill="#e6e9ed"
           d="M 62,25.33 V 46 c 0,1.1 -0.9,2 -2,2 H 42 c -1.1,0 -2,-0.9 -2,-2 V 30 c 0,-1.1 0.9,-2 2,-2 h 15 l 2.6,-3.47 C 59.85,24.2 60.25,24 60.67,24 61.4,24 62,24.6 62,25.33 Z" />
      </g>
      <g
         id="g68">
        <path
           id="path66"
           fill="#fcd770"
           d="m 56,37 v 2 c 0,0.55 -0.45,1 -1,1 h -3 v 3 c 0,0.55 -0.45,1 -1,1 h -2 c -0.55,0 -1,-0.45 -1,-1 v -3 h -3 c -0.55,0 -1,-0.45 -1,-1 v -2 c 0,-0.55 0.45,-1 1,-1 h 3 v -3 c 0,-0.55 0.45,-1 1,-1 h 2 c 0.55,0 1,0.45 1,1 v 3 h 3 c 0.55,0 1,0.45 1,1 z" />
      </g>
    </g>
    <g
       id="g88">
      <path
         id="path72"
         d="m 24,5 h 2 v 2 h -2 z" />
      <path
         id="path74"
         d="m 16,5 h 6 v 2 h -6 z" />
      <path
         id="path76"
         d="M 15,59 H 27 V 53 H 15 Z m 2,-4 h 8 v 2 h -8 z" />
      <path
         id="path78"
         d="m 45,41 h 2 v 2 c 0,1.103 0.897,2 2,2 h 2 c 1.103,0 2,-0.897 2,-2 v -2 h 2 c 1.103,0 2,-0.897 2,-2 v -2 c 0,-1.103 -0.897,-2 -2,-2 h -2 v -2 c 0,-1.103 -0.897,-2 -2,-2 h -2 c -1.103,0 -2,0.897 -2,2 v 2 h -2 c -1.103,0 -2,0.897 -2,2 v 2 c 0,1.103 0.897,2 2,2 z m 0,-4 h 4 v -4 h 2 v 4 h 4 v 2 h -4 v 4 h -2 v -4 l -4,-0.003 z" />
      <path
         id="path80"
         d="m 60,19 c 1.654,0 3,-1.346 3,-3 V 8 C 63,6.346 61.654,5 60,5 H 41 V 4 C 41,2.346 39.654,1 38,1 H 4 C 2.346,1 1,2.346 1,4 v 56 c 0,1.654 1.346,3 3,3 h 34 c 1.654,0 3,-1.346 3,-3 V 48.816 C 41.314,48.928 41.648,49 42,49 h 18 c 1.654,0 3,-1.346 3,-3 V 25.333 C 63,24.047 61.953,23 60.667,23 59.937,23 59.238,23.349 58.8,23.933 L 56.5,27 H 42 c -0.352,0 -0.686,0.072 -1,0.184 V 19 Z M 61,8 v 8 c 0,0.551 -0.448,1 -1,1 H 36.5 l -2.899,3.866 C 33.428,21.097 32.999,20.954 33,20.666 V 8 c 0,-0.551 0.448,-1 1,-1 h 26 c 0.552,0 1,0.449 1,1 z M 13,26.605 V 30 c -1.103,0 -2,-0.897 -2,-2 0,-1.103 0.897,-2 2,-2 h 0.037 C 13.022,26.201 13,26.401 13,26.605 Z M 13.46,24 H 13 c -0.503,0 -0.979,0.104 -1.423,0.274 C 11.313,23.354 11,22.049 11,21 c 0,-1.103 0.897,-2 2,-2 h 0.5 l 1.081,-1.442 C 15.782,15.956 17.695,15 19.697,15 c 0.747,0 1.482,0.129 2.186,0.385 l 6.578,2.392 c 1.518,0.552 2.539,2.009 2.539,3.625 0,0.315 -0.039,0.629 -0.111,0.919 L 30.37,24.257 C 29.941,24.099 29.483,24 29,24 H 28 C 23.367,24 17.612,20.206 17.555,20.167 l -0.556,-0.369 -0.554,0.37 C 15.04,21.105 14.012,22.457 13.46,24 Z M 29,26 c 1.103,0 2,0.897 2,2 0,1.103 -0.897,2 -2,2 z m -2,4 c 0,3.309 -2.691,6 -6,6 -3.309,0 -6,-2.691 -6,-6 v -3.395 c 0,-1.709 0.755,-3.309 2.047,-4.393 1.563,0.955 5.874,3.378 9.953,3.741 z m -6,8 c 0.574,0 1.134,-0.064 1.674,-0.179 L 21,40.242 19.326,37.821 C 19.866,37.936 20.426,38 21,38 Z m 7.96,-3.144 -1.386,-0.308 C 28.104,33.785 28.498,32.924 28.737,32 H 29 c 2.206,0 4,-1.794 4,-4 0,-0.946 -0.344,-1.806 -0.896,-2.491 l 0.691,-2.577 C 32.969,22.973 33.147,23 33.333,23 33.966,23 34.564,22.727 35,22.277 V 38.485 C 33.446,36.683 31.348,35.387 28.96,34.856 Z M 31,17.019 C 30.462,16.544 29.844,16.151 29.145,15.897 L 22.567,13.505 C 21.643,13.17 20.678,13 19.697,13 c -2.629,0 -5.14,1.255 -6.716,3.358 l -0.508,0.676 C 10.517,17.292 9,18.973 9,21 9,22.609 9.565,24.587 9.871,25.538 9.334,26.219 9,27.067 9,28 c 0,2.206 1.794,4 4,4 h 0.263 c 0.239,0.924 0.633,1.784 1.163,2.548 L 13.04,34.856 C 10.652,35.387 8.554,36.683 7,38.485 V 11 H 31 Z M 7,42.22 c 1.091,-2.592 3.302,-4.523 6,-5.276 v 6.157 C 10.721,43.566 9,45.586 9,48 v 1 H 7 Z M 11,48 c 0,-1.654 1.346,-3 3,-3 1.654,0 3,1.346 3,3 v 1 h -6 z m 4,-4.899 V 36.469 L 15.832,36.284 21,43.758 26.168,36.283 27,36.469 v 8.716 c -1.161,0.414 -2,1.514 -2,2.816 0,0.352 0.072,0.686 0.184,1 H 19 v -1 c 0,-2.415 -1.721,-4.435 -4,-4.9 z M 27,48 c 0,-0.551 0.448,-1 1,-1 0.552,0 1,0.449 1,1 0,0.551 -0.448,1 -1,1 -0.552,0 -1,-0.449 -1,-1 z m 2,-2.816 v -8.24 c 2.698,0.753 4.909,2.684 6,5.276 V 49 H 30.816 C 30.928,48.686 31,48.352 31,48 31,46.698 30.161,45.598 29,45.184 Z M 42,29 h 15.5 l 2.899,-3.866 C 60.57,24.902 61,25.044 61,25.333 V 46 c 0,0.551 -0.448,1 -1,1 H 42 c -0.552,0 -1,-0.449 -1,-1 V 30 c 0,-0.551 0.448,-1 1,-1 z m -3,31 c 0,0.551 -0.448,1 -1,1 H 4 C 3.448,61 3,60.551 3,60 V 4 C 3,3.449 3.448,3 4,3 h 34 c 0.552,0 1,0.449 1,1 V 5 H 34 C 32.346,5 31,6.346 31,8 V 9 H 5 V 51 H 37 V 19.667 L 37.5,19 H 39 Z" />
      <path
         id="path82"
         d="m 56,15 c 1.654,0 3,-1.346 3,-3 0,-1.654 -1.346,-3 -3,-3 -1.654,0 -3,1.346 -3,3 0,1.654 1.346,3 3,3 z m 0,-4 c 0.552,0 1,0.449 1,1 0,0.551 -0.448,1 -1,1 -0.552,0 -1,-0.449 -1,-1 0,-0.551 0.448,-1 1,-1 z" />
      <path
         id="path84"
         d="m 48,15 c 1.654,0 3,-1.346 3,-3 0,-1.654 -1.346,-3 -3,-3 -1.654,0 -3,1.346 -3,3 0,1.654 1.346,3 3,3 z m 0,-4 c 0.552,0 1,0.449 1,1 0,0.551 -0.448,1 -1,1 -0.552,0 -1,-0.449 -1,-1 0,-0.551 0.448,-1 1,-1 z" />
      <path
         id="path86"
         d="m 40,15 c 1.654,0 3,-1.346 3,-3 0,-1.654 -1.346,-3 -3,-3 -1.654,0 -3,1.346 -3,3 0,1.654 1.346,3 3,3 z m 0,-4 c 0.552,0 1,0.449 1,1 0,0.551 -0.448,1 -1,1 -0.552,0 -1,-0.449 -1,-1 0,-0.551 0.448,-1 1,-1 z" />
    </g>
  </g>
</svg>
