<svg id="_x33_0" enable-background="new 0 0 64 64" height="512" viewBox="0 0 64 64" width="512" xmlns="http://www.w3.org/2000/svg"><g><g><g><path d="m40 20c3.31 0 6 2.69 6 6 0 1.66-.67 3.16-1.76 4.24-1.08 1.09-2.58 1.76-4.24 1.76h-14c-2.21 0-4 1.79-4 4 0 1.1.45 2.1 1.17 2.83.73.72 1.73 1.17 2.83 1.17h3v4h-16c-3.87 0-7-3.13-7-7 0-1.94.78-3.68 2.05-4.95s3.01-2.05 4.95-2.05h4c1.66 0 3-1.34 3-3 0-.83-.34-1.58-.88-2.12s-1.29-.88-2.12-.88h-4c-6.08 0-11-4.92-11-11 0-3.04 1.23-5.79 3.22-7.78s4.74-3.22 7.78-3.22h12c3.87 0 7 3.13 7 7 0 1.94-.78 3.68-2.05 4.95s-3.01 2.05-4.95 2.05h-2v4z" fill="#ccd1d9"/></g><g><path d="m42 52v4c0 3.31-2.69 6-6 6h-28c-3.31 0-6-2.69-6-6v-4c0-1.1.9-2 2-2h12c.55 0 1 .45 1 1 0 1.38.56 2.63 1.46 3.54.91.9 2.16 1.46 3.54 1.46s2.63-.56 3.54-1.46c.9-.91 1.46-2.16 1.46-3.54 0-.55.45-1 1-1h12c1.1 0 2 .9 2 2z" fill="#b27946"/></g><g><path d="m62 41v4c0 .55-.45 1-1 1h-11v-6h11c.55 0 1 .45 1 1z" fill="#cf9e76"/></g><g><path d="m36 40h14v6h-14z" fill="#e6e9ed"/></g><g><path d="m36 40v6h-3c-.55 0-1-.45-1-1v-4c0-.55.45-1 1-1z" fill="#cf9e76"/></g></g><g><path d="m61 39h-28c-1.103 0-2 .897-2 2v4c0 1.103.897 2 2 2h28c1.103 0 2-.897 2-2v-4c0-1.103-.897-2-2-2zm-12 2v4h-12v-4zm-16 0h2v4h-2zm18 4v-4h10l.002 4z"/><path d="m40 49h-12c-1.103 0-2 .897-2 2 0 2.206-1.794 4-4 4s-4-1.794-4-4c0-1.103-.897-2-2-2h-12c-1.654 0-3 1.346-3 3v4c0 3.859 3.141 7 7 7h28c3.859 0 7-3.141 7-7v-4c0-1.654-1.346-3-3-3zm1 7c0 2.757-2.243 5-5 5h-28c-2.757 0-5-2.243-5-5v-4c0-.552.448-1 1-1h12c0 3.309 2.691 6 6 6s6-2.691 6-6h12c.552 0 1 .448 1 1z"/><path d="m27 21h13c2.757 0 5 2.243 5 5s-2.243 5-5 5h-14c-2.757 0-5 2.243-5 5s2.243 5 5 5h3v-2h-3c-1.654 0-3-1.346-3-3s1.346-3 3-3h14c3.859 0 7-3.14 7-7s-3.141-7-7-7h-13z"/><path d="m15 13h-2v2h2c2.206 0 4-1.794 4-4s-1.794-4-4-4c-3.309 0-6 2.691-6 6s2.691 6 6 6h2v-2h-2c-2.206 0-4-1.794-4-4s1.794-4 4-4c1.103 0 2 .897 2 2s-.897 2-2 2z"/><path d="m13 25h4c1.103 0 2 .897 2 2s-.897 2-2 2h-4c-4.411 0-8 3.589-8 8s3.589 8 8 8h16v-2h-16c-3.309 0-6-2.691-6-6s2.691-6 6-6h4c2.206 0 4-1.794 4-4s-1.794-4-4-4h-4c-5.514 0-10-4.486-10-10s4.486-10 10-10h12c3.309 0 6 2.691 6 6s-2.691 6-6 6h-2v2h2c4.411 0 8-3.589 8-8s-3.589-8-8-8h-12c-6.617 0-12 5.383-12 12s5.383 12 12 12z"/><path d="m29 25h10v-2h-10c-3.309 0-6 2.691-6 6h2c0-2.206 1.794-4 4-4z"/></g></g></svg>