<?xml version="1.0" encoding="UTF-8" standalone="no"?>
<!-- Generator: Adobe Illustrator 16.0.0, SVG Export Plug-In . SVG Version: 6.00 Build 0)  -->

<svg
   xmlns:dc="http://purl.org/dc/elements/1.1/"
   xmlns:cc="http://creativecommons.org/ns#"
   xmlns:rdf="http://www.w3.org/1999/02/22-rdf-syntax-ns#"
   xmlns:svg="http://www.w3.org/2000/svg"
   xmlns="http://www.w3.org/2000/svg"
   xmlns:sodipodi="http://sodipodi.sourceforge.net/DTD/sodipodi-0.dtd"
   xmlns:inkscape="http://www.inkscape.org/namespaces/inkscape"
   version="1.1"
   id="Capa_1"
   x="0px"
   y="0px"
   width="512px"
   height="512px"
   viewBox="0 0 470.061 470.061"
   style="enable-background:new 0 0 470.061 470.061;"
   xml:space="preserve"
   sodipodi:docname="drug.svg"
   inkscape:version="0.92.2 2405546, 2018-03-11"><metadata
   id="metadata45"><rdf:RDF><cc:Work
       rdf:about=""><dc:format>image/svg+xml</dc:format><dc:type
         rdf:resource="http://purl.org/dc/dcmitype/StillImage" /></cc:Work></rdf:RDF></metadata><defs
   id="defs43" /><sodipodi:namedview
   pagecolor="#ffffff"
   bordercolor="#666666"
   borderopacity="1"
   objecttolerance="10"
   gridtolerance="10"
   guidetolerance="10"
   inkscape:pageopacity="0"
   inkscape:pageshadow="2"
   inkscape:window-width="2485"
   inkscape:window-height="1399"
   id="namedview41"
   showgrid="false"
   inkscape:zoom="0.921875"
   inkscape:cx="-8.7843139"
   inkscape:cy="101.64756"
   inkscape:window-x="75"
   inkscape:window-y="0"
   inkscape:window-maximized="1"
   inkscape:current-layer="Capa_1" />
<g
   id="g859"
   transform="matrix(0.7798177,-0.89379877,0.89379877,0.7798177,-175.90254,236.98482)"><rect
     ry="6.3589973"
     y="238.05356"
     x="80.169304"
     height="59.718128"
     width="278.28281"
     id="rect852"
     style="opacity:1;fill:#6a6c6c;fill-opacity:1;stroke-width:0.94039971" /><g
     transform="matrix(0.89278619,0,0,0.89278619,30.374704,-9.6577018)"
     id="g8">
	<g
   id="g6">
		<path
   style="fill:#18bc9c"
   inkscape:connector-curvature="0"
   id="path2"
   d="M 449.379,271.605 H 20.682 C 9.278,271.605 0,280.884 0,292.288 v 38.171 c 0,11.404 9.278,20.682 20.682,20.682 h 428.696 c 11.404,0 20.683,-9.277 20.683,-20.682 v -38.171 c 0,-11.404 -9.278,-20.683 -20.682,-20.683 z m -387.461,12 h 303.65 V 339.14 H 61.918 Z m -12,55.536 H 36.959 v -55.535 h 12.958 z m -37.917,-8.682 v -38.171 c 0,-4.787 3.895,-8.683 8.682,-8.683 h 4.277 v 55.535 h -4.277 c -4.788,0.001 -8.682,-3.894 -8.682,-8.681 z m 446.06,0 c 0,4.787 -3.896,8.682 -8.683,8.682 h -71.811 v -55.535 h 71.811 c 4.787,0 8.683,3.896 8.683,8.683 z" />
		<path
   style="fill:#18bc9c"
   inkscape:connector-curvature="0"
   id="path4"
   d="m 29.491,268.925 c 3.313,0 6,-2.687 6,-6 v -16.884 c 0,-5.799 8.173,-10.883 17.49,-10.883 h 41.108 c 16.261,0 29.49,-13.229 29.49,-29.49 v -14.682 c 0,-9.644 7.846,-17.49 17.49,-17.49 h 57.257 c 16.261,0 29.49,-12.241 29.49,-27.288 V 124.92 c 0,-3.313 -2.686,-6 -6,-6 -3.313,0 -6,2.687 -6,6 v 21.288 c 0,8.43 -7.846,15.288 -17.49,15.288 h -57.257 c -16.261,0 -29.49,13.229 -29.49,29.49 v 14.682 c 0,9.644 -7.846,17.49 -17.49,17.49 H 52.981 c -16.261,0 -29.49,10.266 -29.49,22.883 v 16.884 c 0,3.313 2.686,6 6,6 z" />
	</g>
</g></g>
<g
   id="g10">
</g>
<g
   id="g12">
</g>
<g
   id="g14">
</g>
<g
   id="g16">
</g>
<g
   id="g18">
</g>
<g
   id="g20">
</g>
<g
   id="g22">
</g>
<g
   id="g24">
</g>
<g
   id="g26">
</g>
<g
   id="g28">
</g>
<g
   id="g30">
</g>
<g
   id="g32">
</g>
<g
   id="g34">
</g>
<g
   id="g36">
</g>
<g
   id="g38">
</g>
</svg>