<?xml version="1.0" encoding="UTF-8" standalone="no"?>
<!-- Generator: Adobe Illustrator 16.0.0, SVG Export Plug-In . SVG Version: 6.00 Build 0)  -->

<svg
   xmlns:dc="http://purl.org/dc/elements/1.1/"
   xmlns:cc="http://creativecommons.org/ns#"
   xmlns:rdf="http://www.w3.org/1999/02/22-rdf-syntax-ns#"
   xmlns:svg="http://www.w3.org/2000/svg"
   xmlns="http://www.w3.org/2000/svg"
   xmlns:sodipodi="http://sodipodi.sourceforge.net/DTD/sodipodi-0.dtd"
   xmlns:inkscape="http://www.inkscape.org/namespaces/inkscape"
   version="1.1"
   id="Capa_1"
   x="0px"
   y="0px"
   width="24"
   height="24"
   viewBox="0 0 22.034109 22.034109"
   xml:space="preserve"
   sodipodi:docname="drug.svg"
   inkscape:version="0.92.2 2405546, 2018-03-11"><metadata
   id="metadata45"><rdf:RDF><cc:Work
       rdf:about=""><dc:format>image/svg+xml</dc:format><dc:type
         rdf:resource="http://purl.org/dc/dcmitype/StillImage" /><dc:title></dc:title></cc:Work></rdf:RDF></metadata><defs
   id="defs43">
	

		
		
	</defs><sodipodi:namedview
   pagecolor="#ffffff"
   bordercolor="#666666"
   borderopacity="1"
   objecttolerance="10"
   gridtolerance="10"
   guidetolerance="10"
   inkscape:pageopacity="0"
   inkscape:pageshadow="2"
   inkscape:window-width="2560"
   inkscape:window-height="1347"
   id="namedview41"
   showgrid="false"
   inkscape:zoom="14.75"
   inkscape:cx="10.196873"
   inkscape:cy="27.643035"
   inkscape:window-x="0"
   inkscape:window-y="0"
   inkscape:window-maximized="1"
   inkscape:current-layer="Capa_1" />

<g
   id="g10"
   transform="translate(0,-448.02689)">
</g>
<g
   id="g12"
   transform="translate(0,-448.02689)">
</g>
<g
   id="g14"
   transform="translate(0,-448.02689)">
</g>
<g
   id="g16"
   transform="translate(0,-448.02689)">
</g>
<g
   id="g18"
   transform="translate(0,-448.02689)">
</g>
<g
   id="g20"
   transform="translate(0,-448.02689)">
</g>
<g
   id="g22"
   transform="translate(0,-448.02689)">
</g>
<g
   id="g24"
   transform="translate(0,-448.02689)">
</g>
<g
   id="g26"
   transform="translate(0,-448.02689)">
</g>
<g
   id="g28"
   transform="translate(0,-448.02689)">
</g>
<g
   id="g30"
   transform="translate(0,-448.02689)">
</g>
<g
   id="g32"
   transform="translate(0,-448.02689)">
</g>
<g
   id="g34"
   transform="translate(0,-448.02689)">
</g>
<g
   id="g36"
   transform="translate(0,-448.02689)">
</g>
<g
   id="g38"
   transform="translate(0,-448.02689)">
</g>
<g
   id="g845"
   transform="matrix(0.25936507,0,0,0.25936507,113.60409,-17.774226)"><path
     style="fill:#2780e3;fill-opacity:1;stroke-width:0.9180879"
     id="path2-3"
     d="m -370.58073,117.42967 h -60.5938 c -1.52127,0 -2.75427,1.23299 -2.75427,2.75426 v 11.01705 c 0,1.52128 1.233,2.75427 2.75427,2.75427 h 60.5938 c 1.52127,0 2.75426,-1.23299 2.75426,-2.75427 v -11.01705 c 0,-1.52127 -1.23299,-2.75426 -2.75426,-2.75426 z m -2.75426,11.01705 h -38.5597 v -5.50853 h 38.5597 z"
     inkscape:connector-curvature="0" /><path
     style="fill:#2780e3;fill-opacity:1;stroke-width:0.9180879"
     id="path4-6"
     d="m -356.80941,120.18393 v 11.01705 c 0,1.52128 -1.23299,2.75427 -2.75427,2.75427 -1.52127,0 -2.75426,-1.23299 -2.75426,-2.75427 v -11.01705 c 0,-1.52127 1.23299,-2.75426 2.75426,-2.75426 1.52128,0 2.75427,1.23299 2.75427,2.75426 z"
     inkscape:connector-curvature="0" /><path
     style="fill:#2780e3;fill-opacity:1;stroke-width:0.9180879"
     id="path6"
     d="m -356.80941,100.90408 v 8.26279 c 0,1.52128 -1.23299,2.75427 -2.75427,2.75427 -1.52127,0 -2.75426,-1.23299 -2.75426,-2.75427 v -8.26279 h -2.75426 c -3.03796,0 -5.50853,-2.470571 -5.50853,-5.508524 v -5.508527 c 0,-1.521272 1.23299,-2.754264 2.75426,-2.754264 1.52127,0 2.75427,1.232992 2.75427,2.754264 v 5.508527 h 2.75426 c 3.03795,0 5.50853,2.470575 5.50853,5.508524 z"
     inkscape:connector-curvature="0" /><path
     style="fill:#2780e3;fill-opacity:1;stroke-width:0.9180879"
     id="path8"
     d="m -367.82647,106.41261 v 2.75426 c 0,1.52128 -1.23299,2.75427 -2.75426,2.75427 -1.52127,0 -2.75426,-1.23299 -2.75426,-2.75427 v -2.75426 h -2.75427 c -3.03795,0 -5.50853,-2.47057 -5.50853,-5.50853 v -8.262787 c 0,-1.521272 1.233,-2.754264 2.75427,-2.754264 1.52127,0 2.75426,1.232992 2.75426,2.754264 v 8.262787 h 2.75427 c 3.03795,0 5.50852,2.47058 5.50852,5.50853 z"
     inkscape:connector-curvature="0" /></g></svg>