<?xml version="1.0" encoding="UTF-8" standalone="no"?>
<!-- Generator: Adobe Illustrator 16.0.0, SVG Export Plug-In . SVG Version: 6.00 Build 0)  -->

<svg
   xmlns:dc="http://purl.org/dc/elements/1.1/"
   xmlns:cc="http://creativecommons.org/ns#"
   xmlns:rdf="http://www.w3.org/1999/02/22-rdf-syntax-ns#"
   xmlns:svg="http://www.w3.org/2000/svg"
   xmlns="http://www.w3.org/2000/svg"
   xmlns:sodipodi="http://sodipodi.sourceforge.net/DTD/sodipodi-0.dtd"
   xmlns:inkscape="http://www.inkscape.org/namespaces/inkscape"
   version="1.1"
   id="Capa_1"
   x="0px"
   y="0px"
   width="24"
   height="24"
   viewBox="0 0 5.7515156 5.7515156"
   xml:space="preserve"
   sodipodi:docname="ethnic_group.svg"
   inkscape:version="0.92.2 2405546, 2018-03-11"><metadata
   id="metadata51"><rdf:RDF><cc:Work
       rdf:about=""><dc:format>image/svg+xml</dc:format><dc:type
         rdf:resource="http://purl.org/dc/dcmitype/StillImage" /><dc:title></dc:title></cc:Work></rdf:RDF></metadata><defs
   id="defs49">
	
	
	
	
	
	
</defs><sodipodi:namedview
   pagecolor="#ffffff"
   bordercolor="#666666"
   borderopacity="1"
   objecttolerance="10"
   gridtolerance="10"
   guidetolerance="10"
   inkscape:pageopacity="0"
   inkscape:pageshadow="2"
   inkscape:window-width="2560"
   inkscape:window-height="1347"
   id="namedview47"
   showgrid="false"
   inkscape:zoom="14.75"
   inkscape:cx="13.165578"
   inkscape:cy="3.0196419"
   inkscape:window-x="0"
   inkscape:window-y="0"
   inkscape:window-maximized="1"
   inkscape:current-layer="Capa_1" />
<circle
   style="fill:#18bc9c"
   id="circle2"
   cy="-104.74748"
   cx="19.5"
   r="0" /><circle
   style="fill:#18bc9c"
   id="circle6"
   cy="-104.74748"
   cx="103.3"
   r="0" /><circle
   style="fill:#18bc9c"
   id="circle12"
   cy="-90.947487"
   cx="61.400002"
   r="0" />
<g
   id="g16"
   transform="translate(0,-116.94748)">
</g>
<g
   id="g18"
   transform="translate(0,-116.94748)">
</g>
<g
   id="g20"
   transform="translate(0,-116.94748)">
</g>
<g
   id="g22"
   transform="translate(0,-116.94748)">
</g>
<g
   id="g24"
   transform="translate(0,-116.94748)">
</g>
<g
   id="g26"
   transform="translate(0,-116.94748)">
</g>
<g
   id="g28"
   transform="translate(0,-116.94748)">
</g>
<g
   id="g30"
   transform="translate(0,-116.94748)">
</g>
<g
   id="g32"
   transform="translate(0,-116.94748)">
</g>
<g
   id="g34"
   transform="translate(0,-116.94748)">
</g>
<g
   id="g36"
   transform="translate(0,-116.94748)">
</g>
<g
   id="g38"
   transform="translate(0,-116.94748)">
</g>
<g
   id="g40"
   transform="translate(0,-116.94748)">
</g>
<g
   id="g42"
   transform="translate(0,-116.94748)">
</g>
<g
   id="g44"
   transform="translate(0,-116.94748)">
</g>
<g
   transform="matrix(0.09533364,0,0,0.09533364,-1.8546764,-1.8559326)"
   id="g14"
   style="fill:#2780e3;fill-opacity:1"><path
     inkscape:connector-curvature="0"
     d="m 60.064,59.193 v -0.794 -6.947 c 0,-5.591 -4.531,-10.122 -10.123,-10.122 -5.59,0 -10.123,4.531 -10.123,10.122 v 6.947 0.794 3.177 c 0,1.644 1.333,2.978 2.978,2.978 h 0.694 v 6.524 c 0,3.56 2.888,6.45 6.452,6.45 3.564,0 6.451,-2.891 6.451,-6.45 v -6.524 h 0.695 c 1.645,0 2.977,-1.334 2.977,-2.978 v -3.177 z"
     id="path2"
     style="fill:#2780e3;fill-opacity:1" /><circle
     cx="49.941002"
     cy="33.686001"
     r="6.75"
     id="circle4"
     style="fill:#2780e3;fill-opacity:1" /><path
     inkscape:connector-curvature="0"
     d="m 66.377,35.176 c 3.725,0 6.746,-3.021 6.746,-6.749 0,-3.728 -3.021,-6.749 -6.746,-6.749 -3.73,0 -6.75,3.021 -6.75,6.749 0,3.728 3.019,6.749 6.75,6.749 z"
     id="path6"
     style="fill:#2780e3;fill-opacity:1" /><circle
     cx="33.624001"
     cy="28.525"
     r="6.7490001"
     id="circle8"
     style="fill:#2780e3;fill-opacity:1" /><path
     inkscape:connector-curvature="0"
     d="m 65.938,35.934 c -4.125,0 -7.67,2.474 -9.248,6.016 3.084,1.894 5.148,5.284 5.148,9.167 v 7.383 0.844 3.377 c 0,1.463 -1.002,2.685 -2.352,3.044 v 0.711 c 0,3.563 2.889,6.452 6.451,6.452 3.562,0 6.449,-2.89 6.449,-6.452 v -6.521 h 0.695 c 1.645,0 2.98,-1.334 2.98,-2.979 V 53.8 53.004 46.059 C 76.063,40.466 71.529,35.934 65.938,35.934 Z"
     id="path10"
     style="fill:#2780e3;fill-opacity:1" /><path
     inkscape:connector-curvature="0"
     d="M 38.163,62.721 V 59.344 58.5 51.116 c 0,-3.883 2.064,-7.273 5.146,-9.167 -1.577,-3.542 -5.121,-6.016 -9.247,-6.016 -5.591,0 -10.124,4.532 -10.124,10.125 v 6.945 0.797 3.175 c 0,1.646 1.333,2.979 2.978,2.979 h 0.695 v 6.521 c 0,3.563 2.888,6.452 6.452,6.452 3.563,0 6.452,-2.89 6.452,-6.452 v -0.711 c -1.352,-0.359 -2.352,-1.58 -2.352,-3.043 z"
     id="path12"
     style="fill:#2780e3;fill-opacity:1" /></g></svg>