<?xml version="1.0" encoding="UTF-8" standalone="no"?>
<svg
   xmlns:dc="http://purl.org/dc/elements/1.1/"
   xmlns:cc="http://creativecommons.org/ns#"
   xmlns:rdf="http://www.w3.org/1999/02/22-rdf-syntax-ns#"
   xmlns:svg="http://www.w3.org/2000/svg"
   xmlns="http://www.w3.org/2000/svg"
   xmlns:sodipodi="http://sodipodi.sourceforge.net/DTD/sodipodi-0.dtd"
   xmlns:inkscape="http://www.inkscape.org/namespaces/inkscape"
   inkscape:version="1.0 (4035a4fb49, 2020-05-01)"
   sodipodi:docname="ethnic_group.svg"
   id="svg74"
   version="1.1"
   width="24pt"
   viewBox="0 0 24 24"
   height="24pt">
  <metadata
     id="metadata80">
    <rdf:RDF>
      <cc:Work
         rdf:about="">
        <dc:format>image/svg+xml</dc:format>
        <dc:type
           rdf:resource="http://purl.org/dc/dcmitype/StillImage" />
        <dc:title></dc:title>
      </cc:Work>
    </rdf:RDF>
  </metadata>
  <defs
     id="defs78" />
  <sodipodi:namedview
     inkscape:current-layer="svg74"
     inkscape:window-maximized="1"
     inkscape:window-y="0"
     inkscape:window-x="0"
     inkscape:cy="45.189046"
     inkscape:cx="13.871153"
     inkscape:zoom="8.6221407"
     showgrid="false"
     id="namedview76"
     inkscape:window-height="1417"
     inkscape:window-width="2560"
     inkscape:pageshadow="2"
     inkscape:pageopacity="0"
     guidetolerance="10"
     gridtolerance="10"
     objecttolerance="10"
     borderopacity="1"
     bordercolor="#666666"
     pagecolor="#ffffff" />
  <path
     style="stroke-width:0.0443732"
     id="path2"
     fill="#ff826e"
     d="m 15.714373,12.244452 v -2.073064 c 0,-0.3336658 -0.106426,-0.653292 -0.294667,-0.908785 C 15.23164,9.0034701 14.968867,8.8010171 14.649414,8.6945905 l -0.294665,-0.2946662 0.05686,-0.06032 2.36773,-0.7099724 c 0,0 0.354985,0.7099724 1.064957,0.7099724 0.709972,0 1.064959,-0.7099724 1.064959,-0.7099724 l 2.538116,0.759719 c 0.599906,0.1809597 1.011746,0.734759 1.011746,1.3630913 V 12.599438 H 19.97421 v -0.354986 c 0,-1.175025 -0.954892,-2.129917 -2.129918,-2.129917 -0.589332,0 -1.12181,0.237813 -1.505224,0.624692 -0.386879,0.383413 -0.624692,0.915892 -0.624692,1.505225 z m 0,0" />
  <path
     style="stroke-width:0.0443732"
     id="path4"
     fill="#ff826e"
     d="m 7.9046775,11.041001 v 1.203451 c 0,-0.589333 -0.237813,-1.121812 -0.6246924,-1.505224 -0.3834128,-0.38688 -0.9158921,-0.624693 -1.5052245,-0.624693 -1.175025,0 -2.129917,0.954892 -2.129917,2.129917 v 0.354986 H 1.1599405 V 9.7524423 c 0,-0.6283324 0.4118394,-1.1821317 1.0117452,-1.3630913 L 4.7098021,7.629632 c 0,0 0.3549862,0.7099723 1.0649585,0.7099723 0.7099722,0 1.0649584,-0.7099723 1.0649584,-0.7099723 L 9.0868092,8.3040711 C 8.3589835,8.9892567 7.9046775,9.9618287 7.9046775,11.041001 Z m 0,0" />
  <path
     style="stroke-width:0.0443732"
     id="path6"
     fill="#b4dd7f"
     d="m 20.329192,21.119106 h -1.774931 c -0.390519,0 -0.709972,0.319453 -0.709972,0.709972 v -2.211557 c 0,-0.990424 -0.685185,-1.849463 -1.65065,-2.073063 l -2.215197,-0.51116 -0.01422,-0.0037 c 0.08528,-0.04974 0.181134,-0.08875 0.276986,-0.120634 l 2.538118,-0.759719 c 0,0 0.354985,0.709972 1.064957,0.709972 0.709972,0 1.064959,-0.709972 1.064959,-0.709972 l 2.538116,0.759719 c 0.599906,0.180959 1.011746,0.734759 1.011746,1.363091 v 2.846996 z m 0,0" />
  <path
     style="stroke-width:0.0443732"
     id="path8"
     fill="#b4dd7f"
     d="m 9.644075,17.033298 -2.2186634,0.51116 c -0.9654653,0.2236 -1.650651,1.082639 -1.650651,2.073063 v 2.211557 c 0,-0.390519 -0.3194529,-0.709972 -0.7099723,-0.709972 H 1.1599405 V 18.27211 c 0,-0.628332 0.4118394,-1.182132 1.0117452,-1.363091 L 4.7098021,16.1493 c 0,0 0.3549862,0.709972 1.0649585,0.709972 0.7099722,0 1.0649584,-0.709972 1.0649584,-0.709972 l 2.5381165,0.759719 c 0.095853,0.03189 0.1917063,0.07089 0.2769862,0.120635 z m 0,0" />
  <path
     style="stroke-width:0.0443732"
     id="path10"
     fill="#e6e9ed"
     d="M 8.2596637,22.894037 H 5.7747606 v -3.276516 c 0,-0.990424 0.6851857,-1.849463 1.650651,-2.073063 l 2.2186634,-0.51116 0.745506,-0.174026 h 2.839889 l 0.745505,0.180959 0.0034,-0.007 2.215197,0.51116 c 0.965465,0.223599 1.65065,1.082638 1.65065,2.073063 v 3.276515 z m 0,0" />
  <path
     style="stroke-width:0.0443732"
     id="path12"
     fill="#ff826e"
     d="m 12.519497,19.699162 0.354986,3.194875 h -2.129916 l 0.354986,-3.194875 z m 0,0" />
  <path
     style="stroke-width:0.0443732"
     id="path14"
     fill="#ff826e"
     d="m 12.906377,18.58099 -0.03189,0.05321 -0.354986,1.064959 h -1.419948 l -0.354986,-1.064956 -0.03189,-0.05321 1.096852,-0.656759 z m 0,0" />
  <path
     style="stroke-width:0.0443732"
     id="path16"
     fill="#ccd1d9"
     d="m 13.964228,17.029658 0.01422,0.0037 -0.0034,0.007 -0.390519,1.948957 -0.678079,-0.408198 -1.096852,-0.656759 1.419945,-1.064959 z m 0,0" />
  <path
     style="stroke-width:0.0443732"
     id="path18"
     fill="#ccd1d9"
     d="m 9.6548217,17.029658 0.7347593,-0.170386 1.419944,1.064959 -1.096851,0.656759 -0.678079,0.408198 -0.39052,-1.95589 z m 0,0" />
  <path
     style="stroke-width:0.0443732"
     id="path20"
     fill="#b27946"
     d="m 19.974207,3.7247842 v 0.3549862 h -0.564373 c -0.319625,0 -0.628332,-0.1277465 -0.855573,-0.3549862 -0.227239,0.2272397 -0.535945,0.3549862 -0.855571,0.3549862 H 15.714373 V 3.7247842 c 0,-0.5893324 0.237813,-1.1218117 0.624692,-1.5052245 0.383414,-0.3868794 0.915892,-0.6246924 1.505224,-0.6246924 1.175026,0 2.129918,0.9548919 2.129918,2.1299169 z m 0,0" />
  <path
     style="stroke-width:0.0443732"
     id="path22"
     fill="#b27946"
     d="M 7.9046775,4.0797704 H 5.9203604 c -0.3196263,0 -0.6283325,-0.1277465 -0.8555721,-0.3549862 C 4.8375485,3.9520239 4.5288423,4.0797704 4.2092162,4.0797704 H 3.6448436 V 3.7247842 c 0,-1.175025 0.954892,-2.1299169 2.129917,-2.1299169 0.5893324,0 1.1218117,0.237813 1.5052245,0.6246924 0.3868794,0.3834128 0.6246924,0.9158921 0.6246924,1.5052245 z m 0,0" />
  <path
     style="stroke-width:0.0443732"
     id="path24"
     fill="#f0d0b4"
     d="m 16.779332,6.6321001 c 0.312345,0.1845998 0.678078,0.2875595 1.064957,0.2875595 0.39052,0 0.752613,-0.1029599 1.064959,-0.2875595 V 7.629632 c 0,0 -0.354987,0.7099723 -1.064959,0.7099723 -0.709972,0 -1.064957,-0.7099723 -1.064957,-0.7099723 z m 0,0" />
  <path
     style="stroke-width:0.0443732"
     id="path26"
     fill="#f0d0b4"
     d="m 18.909248,6.6321001 c -0.312346,0.1845998 -0.674439,0.2875595 -1.064959,0.2875595 -0.386879,0 -0.752612,-0.1029599 -1.064957,-0.2875595 C 16.143892,6.2665406 15.714373,5.5778882 15.714373,4.7897427 V 4.0797704 h 1.984317 c 0.319626,0 0.628332,-0.1277465 0.855571,-0.3549862 0.227241,0.2272397 0.535948,0.3549862 0.855573,0.3549862 h 0.564373 v 0.7099723 c 0,0.5893326 -0.237814,1.1218117 -0.624693,1.5052245 -0.131386,0.1312131 -0.276986,0.2449197 -0.440266,0.3371329 z m 0,0" />
  <path
     style="stroke-width:0.0443732"
     id="path28"
     fill="#f0d0b4"
     d="m 4.7098021,6.6321001 1.0649585,0.2875595 c 0.3905193,0 0.7526123,-0.1029599 1.0649584,-0.2875595 V 7.629632 c 0,0 -0.3549862,0.7099723 -1.0649584,0.7099723 -0.7099723,0 -1.0649585,-0.7099723 -1.0649585,-0.7099723 z m 0,0" />
  <path
     style="stroke-width:0.0443732"
     id="path30"
     fill="#f0d0b4"
     d="M 6.839719,6.6321001 C 6.5273729,6.8166999 6.1652799,6.9196596 5.7747606,6.9196596 L 4.7098021,6.6321001 C 4.5465223,6.5398869 4.4009225,6.4261803 4.269536,6.2949672 3.8826566,5.9115544 3.6448436,5.3790753 3.6448436,4.7897427 V 4.0797704 h 0.5643726 c 0.3196261,0 0.6283323,-0.1277465 0.8555721,-0.3549862 0.2272396,0.2272397 0.5359458,0.3549862 0.8555721,0.3549862 h 1.9843171 v 0.7099723 c 0,0.7881455 -0.4295194,1.4767979 -1.0649585,1.8423574 z m 0,0" />
  <path
     style="stroke-width:0.0443732"
     id="path32"
     fill="#b27946"
     d="m 17.134317,12.244452 c -0.227239,0.22724 -0.535946,0.354986 -0.855572,0.354986 h -0.564372 v -0.354986 c 0,-0.589333 0.237813,-1.121812 0.624692,-1.505224 0.383414,-0.38688 0.915892,-0.624693 1.505224,-0.624693 1.175026,0 2.129918,0.954892 2.129918,2.129917 v 0.354986 H 17.98989 c -0.319627,0 -0.628333,-0.127746 -0.855573,-0.354986 z m 0,0" />
  <path
     style="stroke-width:0.0443732"
     id="path34"
     fill="#b27946"
     d="m 7.340305,12.599438 c -0.3196262,0 -0.6283324,-0.127746 -0.8555722,-0.354986 -0.2272396,0.22724 -0.5359458,0.354986 -0.8555721,0.354986 H 3.6448436 v -0.354986 c 0,-1.175025 0.954892,-2.129917 2.129917,-2.129917 0.5893324,0 1.1218117,0.237813 1.5052245,0.624693 0.3868794,0.383412 0.6246924,0.915891 0.6246924,1.505224 v 0.354986 z m 0,0" />
  <path
     style="stroke-width:0.0443732"
     id="path36"
     fill="#fcd770"
     d="M 9.0868092,8.3040711 C 9.7612483,7.6651653 10.670034,7.2746458 11.671032,7.2746458 c 0.500586,0 0.986959,0.09932 1.441264,0.2875596 0.45084,0.1880664 0.869786,0.4650528 1.221132,0.8163989 l 0.315986,0.3159862 c 0.319453,0.1064264 0.582226,0.3088796 0.770292,0.5680125 0.188241,0.255493 0.294667,0.5751192 0.294667,0.908785 v 2.783036 c 0,-0.04611 -0.0034,-0.09221 -0.0071,-0.138493 -0.06742,-0.717079 -0.695759,-1.253025 -1.412839,-1.277985 -0.02132,-0.0035 -0.039,-0.0035 -0.06032,-0.0035 H 13.584456 L 13.22947,10.824507 C 12.533711,11.28592 11.720778,11.53448 10.88306,11.53448 H 9.3849421 c -0.021319,0 -0.039,0 -0.06032,0.0035 -0.7170789,0.02496 -1.3454114,0.560906 -1.412838,1.277985 -0.00364,0.04628 -0.0071,0.09239 -0.0071,0.138493 v -1.913457 c 0,-1.0791723 0.4543059,-2.0517443 1.1821316,-2.7369299 z m 0,0" />
  <g
     transform="matrix(0.04437327,0,0,0.04437327,0.80495435,1.2398811)"
     id="g54"
     fill="#f0d0b4">
    <path
       id="path38"
       d="m 360,313.51953 c 7.03906,4.16016 15.28125,6.48047 24,6.48047 8.80078,0 16.96094,-2.32031 24,-6.48047 V 336 c 0,0 -8,16 -24,16 -16,0 -24,-16 -24,-16 z m 0,0" />
    <path
       id="path40"
       d="M 88,313.51953 112,320 c 8.80078,0 16.96094,-2.32031 24,-6.48047 V 336 c 0,0 -8,16 -24,16 -16,0 -24,-16 -24,-16 z m 0,0" />
    <path
       id="path42"
       d="M 136,313.51953 C 128.96094,317.67969 120.80078,320 112,320 l -24,-6.48047 c -3.679688,-2.07812 -6.960938,-4.64062 -9.921875,-7.59766 C 69.359375,297.28125 64,285.28125 64,272 v -16 h 44.71875 c 7.20313,0 14.16016,-2.87891 19.28125,-8 5.12109,5.12109 12.07812,8 19.28125,8 H 160 v 16 c 0,17.76172 -9.67969,33.28125 -24,41.51953 z m 0,0" />
    <path
       id="path44"
       d="M 360,313.51953 C 345.67969,305.28125 336,289.76172 336,272 v -16 h 12.71875 c 7.20312,0 14.16016,-2.87891 19.28125,-8 5.12109,5.12109 12.07812,8 19.28125,8 H 432 v 16 c 0,13.28125 -5.35938,25.28125 -14.07813,33.92187 -2.96093,2.95704 -6.24218,5.51954 -9.92187,7.59766 C 400.96094,317.67969 392.80078,320 384,320 c -8.71875,0 -16.96094,-2.32031 -24,-6.48047 z m 0,0" />
    <path
       id="path46"
       d="m 216,352 v -24 l 0.71875,-1.51953 C 240.32031,335.60156 244.16016,336 248,336 c 11.60156,0 22.39844,-3.51953 31.28125,-9.51953 L 280,328 v 24 l -32,24 z m 0,0" />
    <path
       id="path48"
       d="m 336,264 v 0.0781 C 336,281.67969 321.67969,296 304,296 l -2.16016,-0.55859 C 303.28125,290.55859 304,285.35937 304,280 v -47.92188 c 16.16016,0.5625 30.32031,12.64063 31.83984,28.80079 C 335.92187,261.92188 336,262.96094 336,264 Z m 0,0" />
    <path
       id="path50"
       d="m 192,280 c 0,5.35937 0.71875,10.55859 2.16016,15.44141 L 192,296 c -17.67969,0 -32,-14.32031 -32,-31.92187 V 264 c 0,-1.03906 0.0781,-2.07812 0.16016,-3.12109 1.51953,-16.16016 15.67968,-28.23828 31.83984,-28.80078 z m 0,0" />
    <path
       id="path52"
       d="M 304,232.07812 V 280 c 0,5.35937 -0.71875,10.55859 -2.16016,15.44141 -3.67968,12.79687 -11.76172,23.75781 -22.55859,31.03906 C 270.39844,332.48047 259.60156,336 248,336 c -3.83984,0 -7.67969,-0.39844 -31.28125,-9.51953 -3.03906,-2.08203 -5.75781,-4.32031 -8.32031,-6.87891 -6.63672,-6.64062 -11.59766,-14.88281 -14.23828,-24.16015 C 192.71875,290.55859 192,285.35937 192,280 V 232.07812 C 192.48047,232 192.87891,232 193.35937,232 h 33.76172 C 246,232 264.32031,226.39844 280,216 l 8,16 h 14.64062 c 0.48047,0 0.87891,0 1.35938,0.0781 z m 0,0" />
  </g>
  <path
     style="stroke-width:0.0443732"
     id="path56"
     d="M 22.814097,12.599438 V 9.7510557 c 0,-0.789879 -0.508387,-1.4731579 -1.264812,-1.700051 L 19.264235,7.3654724 V 6.8262332 c 0.642892,-0.449626 1.064957,-1.1940917 1.064957,-2.0361438 V 3.7247842 c 0,-1.370198 -1.114704,-2.4849031 -2.484903,-2.4849031 -1.370197,0 -2.484903,1.1147051 -2.484903,2.4849031 v 1.0649585 c 0,0.8423988 0.422067,1.5868645 1.064959,2.0361438 V 7.3651256 L 14.410561,7.9693649 C 13.654829,7.2935392 12.691964,6.9196596 11.669645,6.9196596 c -1.018158,0 -1.9496501,0.3730129 -2.6695023,0.9876519 L 7.1947052,7.3654724 V 6.8262332 C 7.8375976,6.3766072 8.2596637,5.6321415 8.2596637,4.7900894 V 3.7247842 c 0,-1.370198 -1.1147052,-2.4849031 -2.4849031,-2.4849031 -1.370198,0 -2.4849032,1.1147051 -2.4849032,2.4849031 v 1.0649585 c 0,0.8423988 0.4220661,1.5868645 1.0649585,2.0361438 v 0.5392391 l -2.28505,0.6855325 C 1.3133403,8.2778978 0.80495435,8.9611767 0.80495435,9.7510557 V 12.599438 H 1.5149267 V 9.7510557 c 0,-0.4738927 0.3048928,-0.8839987 0.7590255,-1.0198919 l 2.2857434,-0.685879 c 0.2066131,0.2683195 0.6063192,0.6493057 1.215065,0.6493057 0.6087457,0 1.0084518,-0.3809862 1.2150649,-0.6493057 l 1.4558246,0.436626 C 7.9835441,9.0630967 7.6757046,9.770469 7.582278,10.544401 7.1290119,10.062709 6.4871596,9.7595489 5.7747606,9.7595489 c -1.370198,0 -2.4849032,1.1147051 -2.4849032,2.4849031 v 1.064958 c 0,0.842399 0.4220661,1.586864 1.0649585,2.036144 v 0.539239 l -2.28505,0.685533 c -0.7564256,0.22724 -1.26481155,0.910519 -1.26481155,1.700397 v 3.20337 H 5.0647883 c 0.1955196,0 0.3549861,0.159466 0.3549861,0.354985 v 1.419946 H 18.199276 v -1.419946 c 0,-0.195519 0.159466,-0.354985 0.354985,-0.354985 h 4.259836 v -3.20337 c 0,-0.789878 -0.508387,-1.473157 -1.264812,-1.700051 L 19.264235,15.88514 V 15.3459 c 0.642892,-0.449626 1.064957,-1.194091 1.064957,-2.036143 v -1.064958 c 0,-1.370198 -1.114704,-2.4849034 -2.484903,-2.4849034 -0.695065,0 -1.323397,0.2875594 -1.77493,0.7489724 v -0.33644 c 0,-0.701132 -0.380986,-1.3322377 -0.975519,-1.6659039 l 1.535385,-0.4608927 c 0.206613,0.2679729 0.606318,0.6489591 1.215064,0.6489591 0.608746,0 1.008453,-0.3809862 1.215065,-0.6493057 l 2.286091,0.685879 c 0.453786,0.1358932 0.758678,0.5459992 0.758678,1.0198919 V 12.599438 Z M 5.7747606,1.9498535 c 0.9786386,0 1.7749308,0.7962921 1.7749308,1.7749307 H 5.9217471 c -0.2255064,0 -0.4466795,-0.09152 -0.6059726,-0.2509863 L 5.0647883,3.2228116 4.8138019,3.4737979 C 4.6545088,3.6332643 4.4333357,3.7247842 4.2078295,3.7247842 H 3.9998297 c 0,-0.9786386 0.7962922,-1.7749307 1.7749309,-1.7749307 z M 3.9998297,4.7897427 V 4.4347565 h 0.2079998 c 0.3092262,0 0.6045858,-0.088747 0.8569588,-0.2544529 0.2523729,0.1657065 0.5477325,0.2544529 0.8569588,0.2544529 h 1.6279443 v 0.3549862 c 0,0.9786387 -0.7962922,1.7749308 -1.7749308,1.7749308 -0.9786387,0 -1.7749309,-0.7962921 -1.7749309,-1.7749308 z m 1.7749309,3.1948755 c -0.3773461,0 -0.6219191,-0.3170262 -0.7099723,-0.4525728 v -0.361746 c 0.2249862,0.06708 0.4633193,0.1043465 0.7099723,0.1043465 0.2466529,0 0.484986,-0.037266 0.7099722,-0.1046926 V 7.5316988 C 6.3966797,7.6679387 6.1521067,7.9846182 5.7747606,7.9846182 Z m 9.7577854,6.2306308 c 0.180787,0.45916 0.492787,0.851759 0.891799,1.130651 v 0.53924 l -2.284703,0.685532 c -0.07522,0.02236 -0.148373,0.05148 -0.219787,0.08372 l -0.335399,-0.07731 v -0.6994 c 0.379426,-0.304892 0.678425,-0.705291 0.861985,-1.164277 0.408893,-0.03588 0.792306,-0.209907 1.086105,-0.49816 z m -3.723021,2.289037 c 0.376653,0 0.735972,-0.07522 1.064958,-0.20904 v 0.386533 l -1.064958,0.798718 -1.064958,-0.798718 v -0.386533 c 0.328986,0.133813 0.688305,0.20904 1.064958,0.20904 z m -1.500891,0.738052 0.865452,0.649306 -0.890238,0.534212 -0.22516,-1.125625 z m 1.108638,2.811809 h 0.784506 l 0.276119,2.484903 h -1.336744 z m 0.846212,-0.709972 h -0.908265 l -0.20384,-0.611345 0.658146,-0.39468 0.657799,0.39468 z m 0.18148,-1.452531 0.865452,-0.649306 0.249947,0.05754 -0.22516,1.125625 z m 2.63761,-4.220834 c -0.122893,0.134853 -0.279066,0.22932 -0.448413,0.286866 0.0099,-0.09655 0.01526,-0.194306 0.01526,-0.293279 v -1.698665 c 0.382027,0.144907 0.666293,0.481 0.7046,0.882612 0.02911,0.305587 -0.06708,0.597306 -0.27144,0.822466 z m -1.143132,-0.0064 c 0,1.174678 -0.955239,2.129916 -2.129917,2.129916 -1.174678,0 -2.1299167,-0.955238 -2.1299167,-2.129916 v -1.774986 h 1.2051847 c 0.773586,0 1.526371,-0.193093 2.199424,-0.561946 l 0.280799,0.561946 h 0.574426 z M 8.9848894,13.957676 C 8.8155429,13.90013 8.6593698,13.805663 8.5364766,13.67081 8.332117,13.445997 8.2355704,13.153931 8.2646904,12.849038 c 0.038307,-0.40196 0.3229195,-0.738052 0.7049457,-0.882959 v 1.698318 c 0,0.09897 0.00537,0.196732 0.015253,0.293279 z m 0.1877196,0.755733 c 0.1832132,0.458986 0.4822127,0.859385 0.861986,1.164277 v 0.6994 l -0.3354,0.07731 c -0.07176,-0.03224 -0.1445597,-0.06101 -0.2194397,-0.08372 L 7.1947052,15.88514 V 15.3459 c 0.3986661,-0.278892 0.7110124,-0.671491 0.8917988,-1.130651 0.2937995,0.288253 0.6772123,0.462279 1.086105,0.49816 z M 5.7747606,10.469521 c 0.9786386,0 1.7749308,0.796292 1.7749308,1.774931 H 7.3416917 c -0.2255063,0 -0.4466794,-0.09152 -0.6059725,-0.250986 L 6.4847328,11.742479 6.2337466,11.993466 C 6.0744535,12.152932 5.8532804,12.244452 5.6277742,12.244452 H 3.9998297 c 0,-0.978639 0.7962922,-1.774931 1.7749309,-1.774931 z M 3.9998297,13.30941 v -0.354986 h 1.6279445 c 0.3092262,0 0.6045857,-0.08875 0.8569586,-0.254453 0.252373,0.165707 0.5477326,0.254453 0.8569589,0.254453 h 0.2079997 v 0.354986 c 0,0.978639 -0.7962922,1.774931 -1.7749308,1.774931 -0.9786387,0 -1.7749309,-0.796292 -1.7749309,-1.774931 z m 1.7749309,2.484903 c 0.2466529,0 0.484986,-0.03727 0.7099722,-0.10469 v 0.361746 c -0.088054,0.13624 -0.3326261,0.452919 -0.7099722,0.452919 -0.3773461,0 -0.6219191,-0.317026 -0.7099723,-0.452573 v -0.361746 c 0.2249862,0.06708 0.4633193,0.104348 0.7099723,0.104348 z M 5.0647883,20.764119 H 3.6448436 V 18.279216 H 2.9348712 v 2.484903 H 1.5149267 v -2.493396 c 0,-0.473892 0.3048928,-0.883998 0.7590255,-1.019891 l 2.2857434,-0.68588 c 0.2066131,0.26832 0.6063192,0.649307 1.215065,0.649307 0.6087457,0 1.0084518,-0.380987 1.2150649,-0.649307 l 1.3461048,0.404039 -0.9900787,0.22828 c -1.1341183,0.261907 -1.9260772,1.257706 -1.9260772,2.421291 v 0.435585 h 0.7099723 v -0.435585 c 0,-0.831306 0.5659325,-1.542319 1.3759181,-1.729518 l 1.8609039,-0.429519 0.4184262,2.092996 0.7427321,-0.445465 0.21008,0.630412 -0.31096,2.801582 H 8.6146499 V 19.699162 H 7.9046775 V 22.53905 H 6.1297467 v -0.709972 c 0,-0.587079 -0.4778793,-1.064959 -1.0649584,-1.064959 z M 21.345098,17.250832 c 0.454133,0.135893 0.759025,0.545999 0.759025,1.019891 v 2.493396 h -1.419944 v -2.484903 h -0.709972 v 2.484903 h -1.419946 c -0.587079,0 -1.064957,0.47788 -1.064957,1.064959 v 0.709972 h -1.774931 v -2.839888 h -0.709972 v 2.839888 h -1.812198 l -0.311306,-2.801582 0.210079,-0.630412 0.742733,0.445465 0.418426,-2.092996 1.86125,0.429519 c 0.809986,0.187199 1.375919,0.898212 1.375919,1.729518 v 0.435585 h 0.709972 v -0.435585 c 0,-1.163585 -0.791959,-2.159384 -1.926077,-2.421291 l -0.990079,-0.22828 1.346105,-0.404039 c 0.206613,0.26832 0.606318,0.649307 1.215064,0.649307 0.608746,0 1.008453,-0.380987 1.215065,-0.649307 z m -2.790837,-1.199119 c -0.08805,0.135894 -0.332625,0.452573 -0.709972,0.452573 -0.378038,0 -0.622959,-0.318067 -0.709972,-0.452573 v -0.362092 c 0.224986,0.06742 0.46332,0.10469 0.709972,0.10469 0.246653,0 0.484986,-0.03727 0.709972,-0.10469 z m -0.709972,-0.967372 c -0.978637,0 -1.77493,-0.796292 -1.77493,-1.774931 v -0.354986 h 0.207999 c 0.309226,0 0.604587,-0.08875 0.856959,-0.254453 0.252373,0.165707 0.547733,0.254453 0.856959,0.254453 h 1.627944 v 0.354986 c 0,0.978639 -0.796292,1.774931 -1.774931,1.774931 z m 0,-4.61482 c 0.978639,0 1.774931,0.796292 1.774931,1.774931 h -1.627944 c -0.225507,0 -0.446679,-0.09152 -0.605973,-0.250986 l -0.250986,-0.250987 -0.250986,0.250987 c -0.159293,0.159466 -0.380466,0.250986 -0.605973,0.250986 h -0.207999 c 0,-0.978639 0.796293,-1.774931 1.77493,-1.774931 z m -2.484903,1.095119 c -0.314079,-0.237813 -0.704252,-0.385146 -1.125971,-0.385146 h -0.42952 l -0.436626,-0.873252 -0.334532,0.222906 c -0.63856,0.425706 -1.381119,0.650346 -2.147944,0.650346 H 9.3856354 c -0.4217194,0 -0.8118922,0.147333 -1.1259717,0.385146 v -0.525026 c 0,-1.8799708 1.5300112,-3.409982 3.4099813,-3.409982 0.910866,0 1.767478,0.3546395 2.41141,0.9985719 l 0.376652,0.3766528 0.07956,0.026693 c 0.491573,0.1639731 0.822119,0.6222658 0.822119,1.1405323 z m 2.484903,-9.6147865 c 0.978639,0 1.774931,0.7962921 1.774931,1.7749307 h -0.208 c -0.225505,0 -0.446679,-0.09152 -0.605971,-0.2509863 L 18.554261,3.2228116 18.303275,3.4737979 c -0.159292,0.1594664 -0.380466,0.2509863 -0.605971,0.2509863 h -1.627945 c 0,-0.9786386 0.796293,-1.7749307 1.77493,-1.7749307 z m -1.77493,2.8398892 V 4.4347565 h 1.627945 c 0.309226,0 0.604585,-0.088747 0.856957,-0.2544529 0.252374,0.1657065 0.547733,0.2544529 0.856959,0.2544529 h 0.208 v 0.3549862 c 0,0.9786387 -0.796292,1.7749308 -1.774931,1.7749308 -0.978637,0 -1.77493,-0.7962921 -1.77493,-1.7749308 z m 1.77493,3.1948755 c -0.378038,0 -0.622959,-0.3180662 -0.709972,-0.4525728 V 7.1699526 c 0.224986,0.067426 0.46332,0.1046926 0.709972,0.1046926 0.246653,0 0.484986,-0.037266 0.709972,-0.1046926 v 0.3617462 c -0.08805,0.1362399 -0.332625,0.4529194 -0.709972,0.4529194 z m 0,0" />
  <path
     style="stroke-width:0.0443732"
     id="path58"
     d="M 8.9696361,1.2398811 H 9.6796083 V 1.9498535 H 8.9696361 Z m 0,0" />
  <path
     style="stroke-width:0.0443732"
     id="path60"
     d="M 8.9696361,2.6598258 H 9.6796083 V 6.5646735 H 8.9696361 Z m 0,0" />
  <path
     style="stroke-width:0.0443732"
     id="path62"
     d="m 13.939442,1.2398811 h 0.709972 v 0.7099724 h -0.709972 z m 0,0" />
  <path
     style="stroke-width:0.0443732"
     id="path64"
     d="m 13.939442,2.6598258 h 0.709972 v 3.9048477 h -0.709972 z m 0,0" />
  <path
     style="stroke-width:0.0443732"
     id="path66"
     d="m 10.389581,2.6598258 h 0.709972 v 2.4849031 h -0.709972 z m 0,0" />
  <path
     style="stroke-width:0.0443732"
     id="path68"
     d="m 10.389581,5.8547012 h 0.709972 v 0.7099723 h -0.709972 z m 0,0" />
  <path
     style="stroke-width:0.0443732"
     id="path70"
     d="m 12.519497,2.6598258 h 0.709973 v 2.4849031 h -0.709973 z m 0,0" />
  <path
     style="stroke-width:0.0443732"
     id="path72"
     d="m 12.519497,5.8547012 h 0.709973 v 0.7099723 h -0.709973 z m 0,0" />
</svg>
