<?xml version="1.0" encoding="UTF-8" standalone="no"?>
<!-- Generator: Adobe Illustrator 16.0.0, SVG Export Plug-In . SVG Version: 6.00 Build 0)  -->

<svg
   xmlns:dc="http://purl.org/dc/elements/1.1/"
   xmlns:cc="http://creativecommons.org/ns#"
   xmlns:rdf="http://www.w3.org/1999/02/22-rdf-syntax-ns#"
   xmlns:svg="http://www.w3.org/2000/svg"
   xmlns="http://www.w3.org/2000/svg"
   xmlns:sodipodi="http://sodipodi.sourceforge.net/DTD/sodipodi-0.dtd"
   xmlns:inkscape="http://www.inkscape.org/namespaces/inkscape"
   version="1.1"
   id="Capa_1"
   x="0px"
   y="0px"
   width="512px"
   height="512px"
   viewBox="0 0 122.699 122.699"
   style="enable-background:new 0 0 122.699 122.699;"
   xml:space="preserve"
   sodipodi:docname="ethnic_group.svg"
   inkscape:version="0.92.2 2405546, 2018-03-11"><metadata
   id="metadata51"><rdf:RDF><cc:Work
       rdf:about=""><dc:format>image/svg+xml</dc:format><dc:type
         rdf:resource="http://purl.org/dc/dcmitype/StillImage" /></cc:Work></rdf:RDF></metadata><defs
   id="defs49">
	
	
	
	
	
	
</defs><sodipodi:namedview
   pagecolor="#ffffff"
   bordercolor="#666666"
   borderopacity="1"
   objecttolerance="10"
   gridtolerance="10"
   guidetolerance="10"
   inkscape:pageopacity="0"
   inkscape:pageshadow="2"
   inkscape:window-width="2485"
   inkscape:window-height="1399"
   id="namedview47"
   showgrid="false"
   inkscape:zoom="0.4609375"
   inkscape:cx="-148.99578"
   inkscape:cy="670.97998"
   inkscape:window-x="75"
   inkscape:window-y="0"
   inkscape:window-maximized="1"
   inkscape:current-layer="Capa_1" />
<ellipse
   style="fill:#18bc9c"
   id="circle2"
   cy="12.2"
   cx="19.5"
   r="12.1" /><ellipse
   style="fill:#18bc9c"
   id="circle6"
   cy="12.2"
   cx="103.3"
   r="12.1" /><ellipse
   style="fill:#18bc9c"
   id="circle12"
   cy="26"
   cx="61.400002"
   r="13.9" />
<g
   id="g16">
</g>
<g
   id="g18">
</g>
<g
   id="g20">
</g>
<g
   id="g22">
</g>
<g
   id="g24">
</g>
<g
   id="g26">
</g>
<g
   id="g28">
</g>
<g
   id="g30">
</g>
<g
   id="g32">
</g>
<g
   id="g34">
</g>
<g
   id="g36">
</g>
<g
   id="g38">
</g>
<g
   id="g40">
</g>
<g
   id="g42">
</g>
<g
   id="g44">
</g>
<g
   id="g1050"
   transform="matrix(0.96248616,0,0,0.96248616,55.470931,-123.69076)"><circle
     cx="-36.130482"
     cy="143.21758"
     r="12.1"
     id="circle2-3"
     style="fill:#6a6c6c;fill-opacity:1;stroke-width:0.99999994" /><path
     d="m -49.630477,197.71658 h 1.2 v 24 c 0,3.301 2.7,6 6,6 h 12.6 c 3.3,0 6,-2.699 6,-6 v -1.399 c -1.1,-2.101 -1.8,-4.5 -1.8,-7 v -31.4 c 0,-6.1 3.7,-11.4 9,-13.7 v -2.4 c 0,-3.3 -2.7,-6 -6,-6 h -27 c -3.3,0 -6,2.7 -6,6 v 25.9 c 0,3.3 2.6,5.999 6,5.999 z"
     id="path4-6"
     inkscape:connector-curvature="0"
     style="fill:#6a6c6c;fill-opacity:1;stroke-width:0.99999994" /><circle
     cx="47.669521"
     cy="143.21758"
     r="12.1"
     id="circle6-0"
     style="fill:#6a6c6c;fill-opacity:1;stroke-width:0.99999994" /><path
     d="m 28.068523,165.71758 v 2.4 c 5.301,2.3 9,7.6 9,13.7 v 31.3 c 0,2.5 -0.6,4.9 -1.799,7 v 1.4 c 0,3.3 2.699,6 6,6 h 12.6 c 3.3,0 6,-2.7 6,-6 v -24 h 1.199 c 3.301,0 6,-2.7 6,-6 v -25.8 c 0,-3.3 -2.699,-6 -6,-6 h -27 c -3.299,0 -6,2.699 -6,6 z"
     id="path8-6"
     inkscape:connector-curvature="0"
     style="fill:#6a6c6c;fill-opacity:1;stroke-width:0.99999994" /><path
     d="m -16.530477,181.91658 v 0 9.8 21.6 c 0,3.3 2.7,6 6,6 h 2.3 v 28.3 c 0,3.3 2.7,6 6,6 h 16.1 c 3.3,0 6,-2.7 6,-6 v -28.4 h 2.3 c 3.3,0 6,-2.699 6,-6 v -21.499 -9.8 0 c 0,-3.3 -2.7,-6 -6,-6 h -32.7 c -3.4,-9.6e-4 -6,2.7 -6,5.999 z"
     id="path10-2"
     inkscape:connector-curvature="0"
     style="fill:#6a6c6c;fill-opacity:1;stroke-width:0.99999994" /><circle
     cx="5.7695131"
     cy="157.01758"
     r="13.9"
     id="circle12-6"
     style="fill:#6a6c6c;fill-opacity:1;stroke-width:0.99999994" /></g><g
   id="g1042"
   transform="matrix(0.92799789,0,0,0.92799789,4.2858267,11.488081)"><circle
     cx="18.720129"
     cy="5.701107"
     r="12.1"
     id="circle2-3-9"
     style="fill:#18bc9c;fill-opacity:0.98431373;stroke-width:0.99999994" /><path
     d="m 5.2201334,60.200113 h 1.2 v 24 c 0,3.301 2.7,6 5.9999996,6 h 12.6 c 3.299999,0 6,-2.699 6,-6 v -1.399 c -1.100001,-2.101 -1.800001,-4.5 -1.800001,-7 v -31.4 c 0,-6.1 3.7,-11.4 9,-13.7 v -2.39999 c 0,-3.30001 -2.699998,-6.00001 -6,-6.00001 H 5.2201334 c -3.3,0 -6,2.7 -6,6.00001 v 25.9 c 0,3.29999 2.6,5.99899 6,5.99899 z"
     id="path4-6-2"
     inkscape:connector-curvature="0"
     style="fill:#18bc9c;fill-opacity:0.98431373;stroke-width:0.99999994" /><circle
     cx="102.52013"
     cy="5.701107"
     r="12.1"
     id="circle6-0-0"
     style="fill:#18bc9c;fill-opacity:0.98431373;stroke-width:0.99999994" /><path
     d="m 82.919135,28.201123 v 2.4 c 5.301,2.3 9,7.6 9,13.7 v 31.29999 c 0,2.5 -0.6,4.9 -1.799,7 v 1.4 c 0,3.3 2.699,6 6,6 h 12.600005 c 3.3,0 6,-2.7 6,-6 v -24 h 1.199 c 3.301,0 6,-2.7 6,-6 v -25.79999 c 0,-3.30001 -2.699,-6 -6,-6 H 88.919135 c -3.299,0 -6,2.69899 -6,6 z"
     id="path8-6-2"
     inkscape:connector-curvature="0"
     style="fill:#18bc9c;fill-opacity:0.98431373;stroke-width:0.99999994" /><path
     d="m 38.320132,44.400113 v 0 9.8 21.6 c 0,3.3 2.700001,6 6,6 h 2.3 v 28.300007 c 0,3.29999 2.700001,5.99999 6.000003,5.99999 h 16.1 c 3.3,0 6,-2.7 6,-5.99999 V 81.700113 h 2.3 c 3.3,0 6,-2.699 6,-6 v -21.49899 -9.80001 0 c 0,-3.3 -2.7,-6 -6,-6 H 44.320132 c -3.399999,-9.5e-4 -6,2.7 -6,5.999 z"
     id="path10-2-3"
     inkscape:connector-curvature="0"
     style="fill:#18bc9c;fill-opacity:0.98431373;stroke-width:0.99999994" /><circle
     cx="60.620125"
     cy="19.50111"
     r="13.9"
     id="circle12-6-7"
     style="fill:#18bc9c;fill-opacity:0.98431373;stroke-width:0.99999994" /></g></svg>