<?xml version="1.0" encoding="UTF-8" standalone="no"?>
<!-- Generator: Adobe Illustrator 16.0.0, SVG Export Plug-In . SVG Version: 6.00 Build 0)  -->

<svg
   xmlns:dc="http://purl.org/dc/elements/1.1/"
   xmlns:cc="http://creativecommons.org/ns#"
   xmlns:rdf="http://www.w3.org/1999/02/22-rdf-syntax-ns#"
   xmlns:svg="http://www.w3.org/2000/svg"
   xmlns="http://www.w3.org/2000/svg"
   xmlns:sodipodi="http://sodipodi.sourceforge.net/DTD/sodipodi-0.dtd"
   xmlns:inkscape="http://www.inkscape.org/namespaces/inkscape"
   version="1.1"
   id="Capa_1"
   x="0px"
   y="0px"
   width="512px"
   height="512px"
   viewBox="0 0 122.699 122.699"
   style="enable-background:new 0 0 122.699 122.699;"
   xml:space="preserve"
   sodipodi:docname="ethnic_group.svg"
   inkscape:version="0.92.2 2405546, 2018-03-11"><metadata
   id="metadata51"><rdf:RDF><cc:Work
       rdf:about=""><dc:format>image/svg+xml</dc:format><dc:type
         rdf:resource="http://purl.org/dc/dcmitype/StillImage" /></cc:Work></rdf:RDF></metadata><defs
   id="defs49">
	
	
	
	
	
	
</defs><sodipodi:namedview
   pagecolor="#ffffff"
   bordercolor="#666666"
   borderopacity="1"
   objecttolerance="10"
   gridtolerance="10"
   guidetolerance="10"
   inkscape:pageopacity="0"
   inkscape:pageshadow="2"
   inkscape:window-width="2485"
   inkscape:window-height="1399"
   id="namedview47"
   showgrid="false"
   inkscape:zoom="1.84375"
   inkscape:cx="181.2246"
   inkscape:cy="291.98552"
   inkscape:window-x="75"
   inkscape:window-y="0"
   inkscape:window-maximized="1"
   inkscape:current-layer="Capa_1" />
<ellipse
   style="fill:#18bc9c"
   id="circle2"
   cy="12.2"
   cx="19.5"
   r="12.1" /><ellipse
   style="fill:#18bc9c"
   id="circle6"
   cy="12.2"
   cx="103.3"
   r="12.1" /><ellipse
   style="fill:#18bc9c"
   id="circle12"
   cy="26"
   cx="61.400002"
   r="13.9" />
<g
   id="g16">
</g>
<g
   id="g18">
</g>
<g
   id="g20">
</g>
<g
   id="g22">
</g>
<g
   id="g24">
</g>
<g
   id="g26">
</g>
<g
   id="g28">
</g>
<g
   id="g30">
</g>
<g
   id="g32">
</g>
<g
   id="g34">
</g>
<g
   id="g36">
</g>
<g
   id="g38">
</g>
<g
   id="g40">
</g>
<g
   id="g42">
</g>
<g
   id="g44">
</g>
<g
   id="g1050"
   transform="matrix(0.96248616,0,0,0.96248616,55.470931,-123.69076)"><circle
     cx="-36.130482"
     cy="143.21758"
     r="12.1"
     id="circle2-3"
     style="fill:#6a6c6c;fill-opacity:1;stroke-width:0.99999994" /><path
     d="m -49.630477,197.71658 h 1.2 v 24 c 0,3.301 2.7,6 6,6 h 12.6 c 3.3,0 6,-2.699 6,-6 v -1.399 c -1.1,-2.101 -1.8,-4.5 -1.8,-7 v -31.4 c 0,-6.1 3.7,-11.4 9,-13.7 v -2.4 c 0,-3.3 -2.7,-6 -6,-6 h -27 c -3.3,0 -6,2.7 -6,6 v 25.9 c 0,3.3 2.6,5.999 6,5.999 z"
     id="path4-6"
     inkscape:connector-curvature="0"
     style="fill:#6a6c6c;fill-opacity:1;stroke-width:0.99999994" /><circle
     cx="47.669521"
     cy="143.21758"
     r="12.1"
     id="circle6-0"
     style="fill:#6a6c6c;fill-opacity:1;stroke-width:0.99999994" /><path
     d="m 28.068523,165.71758 v 2.4 c 5.301,2.3 9,7.6 9,13.7 v 31.3 c 0,2.5 -0.6,4.9 -1.799,7 v 1.4 c 0,3.3 2.699,6 6,6 h 12.6 c 3.3,0 6,-2.7 6,-6 v -24 h 1.199 c 3.301,0 6,-2.7 6,-6 v -25.8 c 0,-3.3 -2.699,-6 -6,-6 h -27 c -3.299,0 -6,2.699 -6,6 z"
     id="path8-6"
     inkscape:connector-curvature="0"
     style="fill:#6a6c6c;fill-opacity:1;stroke-width:0.99999994" /><path
     d="m -16.530477,181.91658 v 0 9.8 21.6 c 0,3.3 2.7,6 6,6 h 2.3 v 28.3 c 0,3.3 2.7,6 6,6 h 16.1 c 3.3,0 6,-2.7 6,-6 v -28.4 h 2.3 c 3.3,0 6,-2.699 6,-6 v -21.499 -9.8 0 c 0,-3.3 -2.7,-6 -6,-6 h -32.7 c -3.4,-9.6e-4 -6,2.7 -6,5.999 z"
     id="path10-2"
     inkscape:connector-curvature="0"
     style="fill:#6a6c6c;fill-opacity:1;stroke-width:0.99999994" /><circle
     cx="5.7695131"
     cy="157.01758"
     r="13.9"
     id="circle12-6"
     style="fill:#6a6c6c;fill-opacity:1;stroke-width:0.99999994" /></g><circle
   style="fill:#18bc9c;fill-opacity:0.98431373;stroke-width:0.92799783"
   id="circle2-3-9"
   r="11.228775"
   cy="16.778696"
   cx="21.658068" /><path
   style="fill:#18bc9c;fill-opacity:0.98431373;stroke-width:0.92799783"
   inkscape:connector-curvature="0"
   id="path4-6-2"
   d="m 9.1300995,67.353659 h 1.1135975 v 22.271949 c 0,3.063321 2.505594,5.567988 5.567987,5.567988 h 11.692773 c 3.062392,0 5.567988,-2.504667 5.567988,-5.567988 v -1.298269 c -1.020799,-1.949723 -1.670397,-4.17599 -1.670397,-6.495985 V 52.69222 c 0,-5.660787 3.433592,-10.579176 8.351981,-12.713571 v -2.227186 c 0,-3.062402 -2.505593,-5.567996 -5.567988,-5.567996 H 9.1300995 c -3.0623931,0 -5.5679874,2.505594 -5.5679874,5.567996 v 24.035146 c 0,3.062384 2.4127946,5.56705 5.5679874,5.56705 z" /><circle
   style="fill:#18bc9c;fill-opacity:0.98431373;stroke-width:0.92799783"
   id="circle6-0-0"
   r="11.228775"
   cy="16.778696"
   cx="99.424286" /><path
   style="fill:#18bc9c;fill-opacity:0.98431373;stroke-width:0.92799783"
   inkscape:connector-curvature="0"
   id="path8-6-2"
   d="m 81.234609,37.658664 v 2.227195 c 4.919317,2.134395 8.351981,7.052784 8.351981,12.713571 v 29.046324 c 0,2.319995 -0.556799,4.54719 -1.669468,6.495986 v 1.299197 c 0,3.062393 2.504666,5.567987 5.567987,5.567987 h 11.692781 c 3.06239,0 5.56798,-2.505594 5.56798,-5.567987 v -22.27195 h 1.11267 c 3.06333,0 5.56799,-2.505594 5.56799,-5.567987 V 37.658664 c 0,-3.062403 -2.50466,-5.567988 -5.56799,-5.567988 H 86.802596 c -3.061465,0 -5.567987,2.504657 -5.567987,5.567988 z" /></svg>