<?xml version="1.0" encoding="UTF-8" standalone="no"?>
<!-- Generator: Adobe Illustrator 16.0.0, SVG Export Plug-In . SVG Version: 6.00 Build 0)  -->

<svg
   xmlns:dc="http://purl.org/dc/elements/1.1/"
   xmlns:cc="http://creativecommons.org/ns#"
   xmlns:rdf="http://www.w3.org/1999/02/22-rdf-syntax-ns#"
   xmlns:svg="http://www.w3.org/2000/svg"
   xmlns="http://www.w3.org/2000/svg"
   xmlns:sodipodi="http://sodipodi.sourceforge.net/DTD/sodipodi-0.dtd"
   xmlns:inkscape="http://www.inkscape.org/namespaces/inkscape"
   version="1.1"
   id="Capa_1"
   x="0px"
   y="0px"
   width="489.765px"
   height="489.766px"
   viewBox="0 0 489.765 489.766"
   style="enable-background:new 0 0 489.765 489.766;"
   xml:space="preserve"
   sodipodi:docname="family.svg"
   inkscape:version="0.92.2 2405546, 2018-03-11"><metadata
   id="metadata57"><rdf:RDF><cc:Work
       rdf:about=""><dc:format>image/svg+xml</dc:format><dc:type
         rdf:resource="http://purl.org/dc/dcmitype/StillImage" /><dc:title /></cc:Work></rdf:RDF></metadata><defs
   id="defs55">
		
		
		
		
		
		
	
			
			
		</defs><sodipodi:namedview
   pagecolor="#ffffff"
   bordercolor="#666666"
   borderopacity="1"
   objecttolerance="10"
   gridtolerance="10"
   guidetolerance="10"
   inkscape:pageopacity="0"
   inkscape:pageshadow="2"
   inkscape:window-width="2560"
   inkscape:window-height="1347"
   id="namedview53"
   showgrid="false"
   inkscape:zoom="1.3629137"
   inkscape:cx="71.60883"
   inkscape:cy="222.12649"
   inkscape:window-x="0"
   inkscape:window-y="0"
   inkscape:window-maximized="1"
   inkscape:current-layer="g20" />
<g
   id="g20">
	
<g
   id="g856"
   transform="matrix(3.4531519,0,0,3.4531519,1388.9933,-722.91324)"><path
     style="fill:#2780e3;fill-opacity:1"
     id="path2-36"
     d="m -374.29609,261.01552 c 6.617,0 12,-5.383 12,-12 0,-6.617 -5.383,-12 -12,-12 -6.617,0 -12,5.383 -12,12 0,6.617 5.383,12 12,12 z"
     inkscape:connector-curvature="0" /><path
     style="fill:#2780e3;fill-opacity:1"
     id="path4-7"
     d="m -332.29609,282.01552 c 4.963,0 9,-4.037 9,-9 0,-4.963 -4.037,-9 -9,-9 -4.963,0 -9,4.037 -9,9 0,4.963 4.037,9 9,9 z"
     inkscape:connector-curvature="0" /><path
     style="fill:#2780e3;fill-opacity:1"
     id="path6-5"
     d="m -314.29609,285.01552 c -11.769,0 -21.196,0 -33.208,0 -1.484,-11.82 -11.577,-21 -23.792,-21 h -6 c -13.233,0 -24,10.767 -24,24 0,1.657 1.343,3 3,3 1.657,0 3,-1.343 3,-3 0,-6.645 3.629,-12.447 9,-15.565 v 14.565 l -8.399,11.2 c -0.683,0.91 -0.792,2.125 -0.284,3.142 0.508,1.017 1.546,1.658 2.683,1.658 h 6 v 15 c 0,1.657 1.343,3 3,3 1.657,0 3,-1.343 3,-3 v -15 h 12 v 15 c 0,1.657 1.343,3 3,3 1.657,0 3,-1.343 3,-3 v -15 h 6 c 1.137,0 2.175,-0.642 2.684,-1.658 0.509,-1.016 0.398,-2.232 -0.284,-3.142 l -8.4,-11.2 v -14.565 c 5.371,3.118 9,8.919 9,15.565 0,1.657 1.343,3 3,3 h 9 c 0,10.248 0,17.39 0,27 0,1.657 1.343,3 3,3 1.657,0 3,-1.343 3,-3 v -9 h 6 v 9 c 0,1.657 1.343,3 3,3 1.657,0 3,-1.343 3,-3 0,-9.588 0,-16.785 0,-27 h 9 c 1.657,0 3,-1.343 3,-3 0,-1.657 -1.343,-3 -3,-3 z"
     inkscape:connector-curvature="0" /><path
     style="fill:#2780e3;fill-opacity:1"
     id="path2-3"
     d="m -290.4562,261.35993 c 6.617,0 12,-5.383 12,-12 0,-6.617 -5.383,-12 -12,-12 -6.617,0 -12,5.383 -12,12 0,6.617 5.383,12 12,12 z"
     inkscape:connector-curvature="0" /><path
     style="fill:#2780e3;fill-opacity:1"
     id="path4-6"
     d="m -314.4562,291.35993 c 1.657,0 3,-1.343 3,-3 0,-6.645 3.629,-12.447 9,-15.565 0,15.546 0,27.343 0,45.565 0,1.657 1.343,3 3,3 1.657,0 3,-1.343 3,-3 v -21 h 12 v 21 c 0,1.657 1.343,3 3,3 1.657,0 3,-1.343 3,-3 0,-18.22 0,-30.02 0,-45.565 5.371,3.118 9,8.919 9,15.565 0,1.657 1.343,3 3,3 1.657,0 3,-1.343 3,-3 0,-13.233 -10.767,-24 -24,-24 h -6 c -13.233,0 -24,10.767 -24,24 0,1.657 1.343,3 3,3 z"
     inkscape:connector-curvature="0" /></g></g>
<g
   id="g22">
</g>
<g
   id="g24">
</g>
<g
   id="g26">
</g>
<g
   id="g28">
</g>
<g
   id="g30">
</g>
<g
   id="g32">
</g>
<g
   id="g34">
</g>
<g
   id="g36">
</g>
<g
   id="g38">
</g>
<g
   id="g40">
</g>
<g
   id="g42">
</g>
<g
   id="g44">
</g>
<g
   id="g46">
</g>
<g
   id="g48">
</g>
<g
   id="g50">
</g>
</svg>