<?xml version="1.0" encoding="UTF-8" standalone="no"?>
<svg
   xmlns:dc="http://purl.org/dc/elements/1.1/"
   xmlns:cc="http://creativecommons.org/ns#"
   xmlns:rdf="http://www.w3.org/1999/02/22-rdf-syntax-ns#"
   xmlns:svg="http://www.w3.org/2000/svg"
   xmlns="http://www.w3.org/2000/svg"
   xmlns:sodipodi="http://sodipodi.sourceforge.net/DTD/sodipodi-0.dtd"
   xmlns:inkscape="http://www.inkscape.org/namespaces/inkscape"
   inkscape:version="1.0 (4035a4fb49, 2020-05-01)"
   sodipodi:docname="family.svg"
   version="1.1"
   width="24"
   viewBox="0 0 3 3"
   height="24"
   enable-background="new 0 0 64 64"
   id="_x33_0">
  <metadata
     id="metadata109">
    <rdf:RDF>
      <cc:Work
         rdf:about="">
        <dc:format>image/svg+xml</dc:format>
        <dc:type
           rdf:resource="http://purl.org/dc/dcmitype/StillImage" />
        <dc:title></dc:title>
      </cc:Work>
    </rdf:RDF>
  </metadata>
  <defs
     id="defs107" />
  <sodipodi:namedview
     inkscape:current-layer="_x33_0"
     inkscape:window-maximized="1"
     inkscape:window-y="0"
     inkscape:window-x="0"
     inkscape:cy="33.009638"
     inkscape:cx="40.080961"
     inkscape:zoom="15.75"
     showgrid="false"
     id="namedview105"
     inkscape:window-height="1417"
     inkscape:window-width="2560"
     inkscape:pageshadow="2"
     inkscape:pageopacity="0"
     guidetolerance="10"
     gridtolerance="10"
     objecttolerance="10"
     borderopacity="1"
     bordercolor="#666666"
     pagecolor="#ffffff" />
  <g
     transform="matrix(0.0483871,0,0,0.0483871,-0.0483871,-0.0483871)"
     id="g102">
    <g
       id="g90">
      <g
         id="g4">
        <path
           id="path2"
           fill="#ffeaa7"
           d="M 29.86,44.86 C 28.71,46.02 28,47.6 28,49.36 c 0,1 0.24,1.98 0.68,2.86 -1.75,1.28 -3,3.12 -3.54,5.22 h -0.01 c -0.14,-0.37 -0.3,-0.72 -0.47,-1.07 -0.44,-0.87 -0.98,-1.69 -1.62,-2.44 l 0.28,-0.56 C 25.08,49.84 26,45.95 26,42 26,39.57 25.28,37.32 24.05,35.44 L 28,31 l 2.7,0.67 c 1.29,0.33 2.42,1 3.3,1.9 v 9.44 0.01 c -1.62,0.08 -3.06,0.77 -4.14,1.84 z" />
      </g>
      <g
         id="g8">
        <path
           id="path6"
           fill="#fcd770"
           d="m 28,31 -3.95,4.44 c -0.45,-0.7 -0.98,-1.35 -1.56,-1.93 -0.58,-0.58 -1.22,-1.1 -1.91,-1.55 1.07,-0.12 2.07,-0.61 2.83,-1.37 L 24,30 Z" />
      </g>
      <g
         id="g12">
        <path
           id="path10"
           fill="#b4dd7f"
           d="M 38.09,43.98 42,43 l 0.59,0.59 c 0.9,0.9 2.13,1.41 3.41,1.41 1.28,0 2.51,-0.51 3.41,-1.41 L 50,43 l 6.7,1.67 c 0.46,0.11 0.89,0.27 1.3,0.47 2.4,1.14 4,3.58 4,6.33 V 62 L 60.76,60.14 C 58.95,57.42 56.51,55.17 53.65,53.58 52.12,52.74 50.5,52.09 48.83,51.66 47.16,51.22 45.42,51 43.68,51 H 43 c 0,-1.9 -0.84,-3.7 -2.3,-4.92 l -1.93,-1.6 c -0.22,-0.18 -0.44,-0.35 -0.68,-0.5 z" />
      </g>
      <g
         id="g16">
        <path
           id="path14"
           fill="#ccd1d9"
           d="M 47,59 C 47,58.17 46.66,57.42 46.12,56.88 45.58,56.34 44.83,56 44,56 h -6 l 5,-5 h 0.68 c 1.74,0 3.48,0.22 5.15,0.66 1.67,0.43 3.29,1.08 4.82,1.92 2.86,1.59 5.3,3.84 7.11,6.56 L 62,62 H 44 c 1.66,0 3,-1.34 3,-3 z" />
      </g>
      <g
         id="g20">
        <path
           id="path18"
           fill="#656d78"
           d="M 23.32,53.37 23.04,53.93 21,52.01 C 20.25,51.45 19.44,50.96 18.56,50.57 20.64,49.13 22,46.72 22,44 v -1.29 c 0,-1.54 -1.17,-2.83 -2.7,-2.98 l -2.23,-0.22 c -2.26,-0.23 -4.21,-1.54 -5.29,-3.44 l -2.1,0.7 C 9.23,36.92 8.8,37.13 8.4,37.4 6.9,38.4 6,40.08 6,41.88 V 44 c 0,2.21 0.9,4.21 2.34,5.66 0.34,0.33 0.7,0.64 1.1,0.91 C 8.56,50.96 7.75,51.45 7,52.01 6.25,52.57 5.56,53.22 4.96,53.93 L 4.68,53.37 C 3.8,51.6 3.13,49.75 2.68,47.84 2.23,45.94 2,43.98 2,42 2,38.68 3.34,35.68 5.51,33.51 7.68,31.34 10.68,30 14,30 c 0.67,0 1.33,0.05 1.97,0.16 1.68,0.28 3.25,0.9 4.61,1.8 0.69,0.45 1.33,0.97 1.91,1.55 0.58,0.58 1.11,1.23 1.56,1.93 1.23,1.88 1.95,4.13 1.95,6.56 0,3.95 -0.92,7.84 -2.68,11.37 z" />
      </g>
      <g
         id="g24">
        <path
           id="path22"
           fill="#b27946"
           d="M 17.63,8.19 V 8.2 L 14.58,8.63 C 13.1,8.84 12,10.11 12,11.6 V 13 h -1 c -0.8,0 -1.52,0.31 -2.05,0.81 L 8.21,10.85 C 8.07,10.29 8,9.71 8,9.12 8,7.16 8.8,5.38 10.09,4.09 11.38,2.8 13.16,2 15.12,2 H 32 c 0.55,0 1,0.45 1,1 v 2.53 c 0,2.88 -0.66,5.72 -1.92,8.31 C 30.54,13.32 29.81,13 29,13 H 28 V 12 C 28,10.34 26.66,9 25,9 H 20.16 C 19.23,9 18.34,8.71 17.63,8.19 Z" />
      </g>
      <g
         id="g28">
        <path
           id="path26"
           fill="#656d78"
           d="M 34,43.01 V 33.57 27 c 0,-6.63 5.37,-12 12,-12 3.32,0 6.32,1.34 8.49,3.51 C 56.66,20.68 58,23.68 58,27 v 18.14 c -0.41,-0.2 -0.84,-0.36 -1.3,-0.47 L 50,43 49.08,38.39 C 51.97,37.18 54,34.33 54,31 v -3.29 c 0,-1.54 -1.17,-2.83 -2.7,-2.98 l -2.23,-0.22 c -2.26,-0.23 -4.21,-1.54 -5.29,-3.44 l -2.1,0.7 c -0.45,0.15 -0.88,0.36 -1.28,0.63 -1.5,1 -2.4,2.68 -2.4,4.48 V 31 c 0,2.21 0.9,4.21 2.34,5.66 0.73,0.73 1.61,1.32 2.58,1.73 L 42,43 38.09,43.98 C 37.42,43.56 36.68,43.27 35.91,43.12 35.51,43.04 35.11,43 34.7,43 h -0.34 c -0.12,0 -0.24,0 -0.36,0.02 z" />
      </g>
      <g
         id="g32">
        <path
           id="path30"
           fill="#b27946"
           d="m 35.91,43.12 -2.37,3.17 c -0.35,0.46 -0.54,1.02 -0.54,1.6 0,0.71 0.28,1.39 0.78,1.89 l 1.34,1.34 C 35.68,51.68 36,52.45 36,53.24 V 56 H 32 L 29.86,53.86 C 29.38,53.38 28.98,52.82 28.68,52.22 28.24,51.34 28,50.36 28,49.36 28,47.6 28.71,46.02 29.86,44.86 30.94,43.79 32.38,43.1 34,43.02 34.12,43 34.24,43 34.36,43 h 0.34 c 0.41,0 0.81,0.04 1.21,0.12 z" />
      </g>
      <g
         id="g36">
        <path
           id="path34"
           fill="#ef7385"
           d="m 21,52.01 2.04,1.92 c 0.64,0.75 1.18,1.57 1.62,2.44 0.17,0.35 0.33,0.7 0.47,1.07 C 25.7,58.86 26,60.41 26,62 H 2 C 2,58.98 3.09,56.14 4.96,53.93 5.56,53.22 6.25,52.57 7,52.01 7.01,53.67 8.34,55 10,55 c 0.54,0 1.04,-0.14 1.47,-0.38 0.54,0.83 1.47,1.38 2.53,1.38 1.06,0 1.99,-0.55 2.53,-1.38 0.43,0.24 0.93,0.38 1.47,0.38 1.66,0 2.99,-1.33 3,-2.99 z" />
      </g>
      <g
         id="g40">
        <path
           id="path38"
           fill="#ed5565"
           d="M 9.44,50.57 C 12.68,51.92 13.33,52 14,52 c 1.7,0 3.27,-0.53 4.56,-1.43 0.88,0.39 1.69,0.88 2.44,1.44 C 20.99,53.67 19.66,55 18,55 17.46,55 16.96,54.86 16.53,54.62 15.99,55.45 15.06,56 14,56 12.94,56 12.01,55.45 11.47,54.62 11.04,54.86 10.54,55 10,55 8.34,55 7.01,53.67 7,52.01 7.75,51.45 8.56,50.96 9.44,50.57 Z" />
      </g>
      <g
         id="g44">
        <path
           id="path42"
           fill="#f0d0b4"
           d="M 22,42.71 V 44 c 0,2.72 -1.36,5.13 -3.44,6.57 C 17.27,51.47 15.7,52 14,52 13.33,52 12.68,51.92 9.44,50.57 9.04,50.3 8.68,49.99 8.34,49.66 6.9,48.21 6,46.21 6,44 V 41.88 C 6,40.08 6.9,38.4 8.4,37.4 8.8,37.13 9.23,36.92 9.68,36.77 l 2.1,-0.7 c 1.08,1.9 3.03,3.21 5.29,3.44 l 2.23,0.22 c 1.53,0.15 2.7,1.44 2.7,2.98 z" />
      </g>
      <g
         id="g48">
        <path
           id="path46"
           fill="#f0d0b4"
           d="M 23.08,25.39 24,30 23.41,30.59 c -0.76,0.76 -1.76,1.25 -2.83,1.37 -1.36,-0.9 -2.93,-1.52 -4.61,-1.8 l 0.95,-4.77 C 17.87,25.78 18.91,26 20,26 c 1.09,0 2.13,-0.22 3.08,-0.61 z" />
      </g>
      <g
         id="g52">
        <path
           id="path50"
           fill="#f0d0b4"
           d="M 31.08,13.84 C 31.65,14.38 32,15.15 32,16 32,16.83 31.66,17.58 31.12,18.12 30.58,18.66 29.83,19 29,19 H 27.94 C 27.98,18.67 28,18.34 28,18 v -1 -4 h 1 c 0.81,0 1.54,0.32 2.08,0.84 z" />
      </g>
      <g
         id="g56">
        <path
           id="path54"
           fill="#f0d0b4"
           d="m 28,12 v 1 h -5 c -0.55,0 -1,0.45 -1,1 v 1 h -4 v -1 c 0,-0.55 -0.45,-1 -1,-1 h -5 v -1.4 c 0,-1.49 1.1,-2.76 2.58,-2.97 L 17.63,8.2 V 8.19 C 18.34,8.71 19.23,9 20.16,9 H 25 c 1.66,0 3,1.34 3,3 z" />
      </g>
      <g
         id="g60">
        <path
           id="path58"
           fill="#f0d0b4"
           d="m 23,17 h 5 v 1 c 0,0.34 -0.02,0.67 -0.06,1 -0.36,2.89 -2.27,5.31 -4.86,6.39 C 22.13,25.78 21.09,26 20,26 18.91,26 17.87,25.78 16.92,25.39 15.95,24.98 15.07,24.39 14.34,23.66 13.12,22.43 12.29,20.81 12.06,19 12.02,18.67 12,18.34 12,18 v -1 h 5 c 0.55,0 1,-0.45 1,-1 v -1 h 4 v 1 c 0,0.55 0.45,1 1,1 z" />
      </g>
      <g
         id="g64">
        <path
           id="path62"
           fill="#f0d0b4"
           d="M 12.06,19 H 11 C 10.17,19 9.42,18.66 8.88,18.12 8.34,17.58 8,16.83 8,16 8,15.14 8.36,14.36 8.95,13.81 9.48,13.31 10.2,13 11,13 h 1 v 4 1 c 0,0.34 0.02,0.67 0.06,1 z" />
      </g>
      <g
         id="g68">
        <path
           id="path66"
           fill="#69d6f4"
           d="m 28,13 v 4 h -5 c -0.55,0 -1,-0.45 -1,-1 v -1 -1 c 0,-0.55 0.45,-1 1,-1 z" />
      </g>
      <g
         id="g72">
        <path
           id="path70"
           fill="#69d6f4"
           d="m 18,15 v 1 c 0,0.55 -0.45,1 -1,1 h -5 v -4 h 5 c 0.55,0 1,0.45 1,1 z" />
      </g>
      <g
         id="g76">
        <path
           id="path74"
           fill="#f0d0b4"
           d="M 54,27.71 V 31 c 0,3.33 -2.03,6.18 -4.92,7.39 C 48.13,38.78 47.09,39 46,39 44.91,39 43.87,38.78 42.92,38.39 41.95,37.98 41.07,37.39 40.34,36.66 38.9,35.21 38,33.21 38,31 v -4.12 c 0,-1.8 0.9,-3.48 2.4,-4.48 0.4,-0.27 0.83,-0.48 1.28,-0.63 l 2.1,-0.7 c 1.08,1.9 3.03,3.21 5.29,3.44 l 2.23,0.22 c 1.53,0.15 2.7,1.44 2.7,2.98 z" />
      </g>
      <g
         id="g80">
        <path
           id="path78"
           fill="#f0d0b4"
           d="M 49.08,38.39 50,43 49.41,43.59 C 48.51,44.49 47.28,45 46,45 44.72,45 43.49,44.49 42.59,43.59 L 42,43 42.92,38.39 C 43.87,38.78 44.91,39 46,39 c 1.09,0 2.13,-0.22 3.08,-0.61 z" />
      </g>
      <g
         id="g84">
        <path
           id="path82"
           fill="#f0d0b4"
           d="m 43,51 -5,5 h -2 v -2.76 c 0,-0.79 -0.32,-1.56 -0.88,-2.12 L 33.78,49.78 C 33.28,49.28 33,48.6 33,47.89 c 0,-0.58 0.19,-1.14 0.54,-1.6 l 2.37,-3.17 c 0.77,0.15 1.51,0.44 2.18,0.86 0.24,0.15 0.46,0.32 0.68,0.5 l 1.93,1.6 C 42.16,47.3 43,49.1 43,51 Z" />
      </g>
      <g
         id="g88">
        <path
           id="path86"
           fill="#f0d0b4"
           d="m 38,56 h 6 c 0.83,0 1.58,0.34 2.12,0.88 0.54,0.54 0.88,1.29 0.88,2.12 0,1.66 -1.34,3 -3,3 H 26 c 0,-1.59 -0.3,-3.14 -0.87,-4.56 h 0.01 c 0.54,-2.1 1.79,-3.94 3.54,-5.22 0.3,0.6 0.7,1.16 1.18,1.64 L 32,56 h 4 z" />
      </g>
    </g>
    <g
       id="g100">
      <path
         id="path92"
         d="M 23.789,20.658 23.894,20.447 22.105,19.552 22,19.764 C 21.619,20.526 20.853,21 20,21 19.147,21 18.381,20.526 18,19.764 l -0.105,-0.211 -1.789,0.895 0.105,0.211 C 16.933,22.103 18.385,23 20,23 c 1.615,0 3.067,-0.897 3.789,-2.342 z" />
      <path
         id="path94"
         d="M 48,32.764 C 47.619,33.526 46.853,34 46,34 45.147,34 44.381,33.526 44,32.764 l -0.105,-0.211 -1.789,0.895 0.105,0.211 C 42.933,35.103 44.385,36 46,36 c 1.615,0 3.067,-0.897 3.789,-2.342 l 0.105,-0.211 -1.789,-0.895 z" />
      <path
         id="path96"
         d="M 16,45.764 C 15.619,46.526 14.853,47 14,47 13.147,47 12.381,46.526 12,45.764 l -0.105,-0.211 -1.789,0.895 0.105,0.211 C 10.933,48.103 12.385,49 14,49 c 1.615,0 3.067,-0.897 3.789,-2.342 l 0.105,-0.211 -1.789,-0.895 z" />
      <path
         id="path98"
         d="M 59,44.542 V 27 C 59,19.832 53.168,14 46,14 38.832,14 33,19.832 33,27 v 4.539 c -0.642,-0.37 -1.334,-0.653 -2.061,-0.834 L 24.856,29.184 24.209,25.95 c 2.277,-1.211 3.971,-3.371 4.559,-5.949 H 29 c 2.206,0 4,-1.794 4,-4 0,-0.866 -0.283,-1.663 -0.752,-2.318 C 33.391,11.128 34,8.325 34,5.528 V 3 C 34,1.897 33.103,1 32,1 H 15.123 C 10.644,1 7,4.644 7,9.123 c 0,0.665 0.082,1.328 0.243,1.97 l 0.615,2.461 C 7.329,14.232 7,15.074 7,16 c 0,2.206 1.794,4 4,4 h 0.232 c 0.588,2.579 2.281,4.739 4.559,5.949 l -0.622,3.11 C 14.783,29.025 14.394,29 14,29 6.832,29 1,34.832 1,42 c 0,4.079 0.965,8.164 2.789,11.813 l 0.005,0.011 C 2.019,56.151 1,59.022 1,62 v 1 H 63 V 51.466 c 0,-2.918 -1.571,-5.524 -4,-6.924 z m 2,6.924 v 7.287 c -1.826,-2.472 -4.179,-4.551 -6.865,-6.044 -3.117,-1.733 -6.642,-2.66 -10.208,-2.701 -0.245,-1.825 -1.154,-3.5 -2.59,-4.697 l -1.029,-0.857 1.386,-0.346 0.186,0.186 C 42.964,45.378 44.466,46 46,46 c 1.534,0 3.036,-0.622 4.121,-1.707 l 0.186,-0.186 6.148,1.537 C 59.131,46.313 61,48.707 61,51.466 Z M 44,55 h -3.586 l 3,-3 h 0.267 c 3.312,0 6.591,0.85 9.483,2.457 2.707,1.505 5.046,3.661 6.765,6.238 L 60.132,61 H 47.444 C 47.788,60.409 48,59.732 48,59 48,56.794 46.206,55 44,55 Z M 29,49.364 c 0,-2.823 2.199,-5.119 4.971,-5.324 l -1.235,1.647 C 32.261,46.318 32,47.102 32,47.892 c 0,0.968 0.393,1.915 1.076,2.599 l 1.338,1.338 C 34.786,52.2 35,52.716 35,53.242 V 55 H 32.414 L 30.571,53.157 C 29.572,52.158 29,50.776 29,49.364 Z m 6.828,1.05 -1.338,-1.338 C 34.179,48.765 34,48.333 34,47.892 c 0,-0.365 0.116,-0.713 0.335,-1.006 l 1.968,-2.623 c 0.662,0.209 1.287,0.531 1.827,0.981 l 1.925,1.604 c 1.135,0.945 1.818,2.299 1.924,3.76 L 37.586,55 H 37 v -1.758 c 0,-1.053 -0.427,-2.084 -1.172,-2.828 z M 46,38 c -3.859,0 -7,-3.141 -7,-7 v -4.116 c 0,-1.471 0.73,-2.836 1.954,-3.651 0.325,-0.217 0.678,-0.389 1.047,-0.513 l 1.35,-0.449 c 1.288,1.794 3.305,3 5.624,3.232 l 2.225,0.222 c 1.026,0.102 1.8,0.958 1.8,1.99 V 31 c 0,3.859 -3.141,7 -7,7 z m 0,2 c 0.802,0 1.577,-0.116 2.317,-0.314 l 0.597,2.985 -0.207,0.207 C 47.994,43.592 47.008,44 46,44 44.992,44 44.006,43.592 43.293,42.879 l -0.207,-0.207 0.597,-2.985 C 44.423,39.884 45.198,40 46,40 Z m 0,-24 c 6.065,0 11,4.935 11,11 V 43.723 C 56.979,43.718 56.96,43.71 56.939,43.705 L 50.856,42.184 50.209,38.95 C 53.056,37.436 55,34.442 55,31 v -3.285 c 0,-2.063 -1.549,-3.775 -3.603,-3.98 L 49.172,23.513 C 46.577,23.253 44.49,21.361 43.98,18.804 l -1.961,0.393 c 0.089,0.444 0.213,0.874 0.37,1.286 l -1.021,0.341 c -0.538,0.179 -1.051,0.43 -1.523,0.745 C 38.063,22.756 37,24.742 37,26.884 V 31 c 0,3.442 1.944,6.436 4.791,7.949 l -0.647,3.234 -2.919,0.73 C 37.237,42.373 36.133,42.074 35,42.026 V 27 C 35,20.935 39.935,16 46,16 Z M 33,34.012 v 8.12 c -3.41,0.642 -6,3.638 -6,7.232 0,0.886 0.163,1.746 0.462,2.553 -1.009,0.865 -1.835,1.918 -2.445,3.09 -0.248,-0.409 -0.52,-0.803 -0.811,-1.185 l 0.005,-0.01 C 26.035,50.164 27,46.079 27,42 27,39.658 26.369,37.465 25.28,35.565 l 3.064,-3.448 2.11,0.528 c 0.953,0.238 1.82,0.715 2.546,1.367 z M 26.156,31.57 24.12,33.86 c -0.441,-0.547 -0.93,-1.051 -1.452,-1.52 0.531,-0.274 1.026,-0.621 1.452,-1.047 l 0.186,-0.186 z M 21,14 h -2 c 0,-1.103 -0.897,-2 -2,-2 h -4 v -0.398 c 0,-0.989 0.738,-1.84 1.718,-1.979 L 17.399,9.239 C 18.214,9.727 19.163,10 20.162,10 H 25 c 1.103,0 2,0.897 2,2 h -4 c -1.103,0 -2,0.897 -2,2 z m -8,0 h 4 v 2 h -4 z m 10,0 h 4 v 2 h -4 z m 6,4 v -4 c 1.103,0 2,0.897 2,2 0,1.103 -0.897,2 -2,2 z M 15.123,3 H 32 v 2.528 c 0,2.334 -0.468,4.674 -1.356,6.834 C 30.141,12.134 29.587,12 29,12 29,9.794 27.206,8 25,8 H 20.162 C 18.702,8 17.411,7.069 16.948,5.684 l -1.896,0.633 c 0.138,0.413 0.322,0.802 0.546,1.159 L 14.435,7.642 C 12.477,7.921 11,9.624 11,11.602 V 12 c -0.495,0 -0.965,0.102 -1.403,0.267 L 9.182,10.607 C 9.062,10.124 9,9.624 9,9.123 9,5.747 11.747,3 15.123,3 Z M 9,16 c 0,-1.103 0.897,-2 2,-2 v 4 C 9.897,18 9,17.103 9,16 Z m 4,2 h 4 c 1.103,0 2,-0.897 2,-2 h 2 c 0,1.103 0.897,2 2,2 h 4 c 0,3.859 -3.141,7 -7,7 -3.859,0 -7,-3.141 -7,-7 z m 4.683,8.686 C 18.423,26.884 19.198,27 20,27 c 0.802,0 1.577,-0.116 2.317,-0.314 l 0.597,2.985 -0.207,0.207 c -0.532,0.532 -1.22,0.885 -1.956,1.033 -1.107,-0.677 -2.32,-1.19 -3.611,-1.512 z M 3,42 c 0,-6.065 4.935,-11 11,-11 6.065,0 11,4.935 11,11 0,3.502 -0.779,7.005 -2.24,10.19 C 22.393,51.844 22.008,51.515 21.6,51.21 21.193,50.904 20.774,50.626 20.347,50.373 21.985,48.742 23,46.488 23,44 v -1.285 c 0,-2.063 -1.549,-3.775 -3.603,-3.98 L 17.172,38.513 C 14.577,38.253 12.49,36.361 11.98,33.804 l -1.961,0.393 c 0.089,0.444 0.213,0.874 0.37,1.286 L 9.368,35.824 C 8.83,36.003 8.317,36.254 7.845,36.569 6.063,37.756 5,39.742 5,41.884 V 44 c 0,2.488 1.015,4.742 2.652,6.373 C 7.225,50.626 6.807,50.904 6.401,51.209 5.993,51.514 5.607,51.843 5.24,52.19 3.779,49.005 3,45.503 3,42 Z m 11,9 C 10.141,51 7,47.859 7,44 v -2.116 c 0,-1.471 0.73,-2.836 1.954,-3.651 0.325,-0.217 0.678,-0.389 1.047,-0.513 l 1.35,-0.449 c 1.288,1.794 3.305,3 5.624,3.232 l 2.225,0.222 c 1.026,0.102 1.8,0.958 1.8,1.99 V 44 c 0,3.859 -3.141,7 -7,7 z M 9.394,51.718 C 10.744,52.526 12.316,53 14,53 c 1.684,0 3.256,-0.474 4.606,-1.282 0.451,0.224 0.893,0.484 1.326,0.778 C 19.712,53.368 18.944,54 18,54 17.648,54 17.318,53.915 17.019,53.747 l -0.816,-0.456 -0.51,0.784 C 15.315,54.654 14.683,55 14,55 13.317,55 12.685,54.654 12.308,54.075 l -0.51,-0.784 -0.816,0.456 C 10.682,53.915 10.352,54 10,54 9.056,54 8.288,53.369 8.069,52.497 8.501,52.202 8.943,51.942 9.394,51.718 Z m -2.939,2.09 C 7.121,55.103 8.454,56 10,56 10.397,56 10.792,55.941 11.168,55.828 11.914,56.572 12.925,57 14,57 15.075,57 16.086,56.572 16.832,55.828 17.208,55.941 17.603,56 18,56 c 1.547,0 2.882,-0.899 3.546,-2.195 1.943,1.908 3.153,4.471 3.394,7.195 H 3.044 C 3.285,58.276 4.512,55.718 6.455,53.808 Z M 26.941,61 c -0.093,-1.229 -0.335,-2.436 -0.75,-3.58 0.414,-1.409 1.194,-2.682 2.253,-3.69 0.218,0.294 0.451,0.578 0.714,0.841 L 31.586,57 H 44 c 1.103,0 2,0.897 2,2 0,1.103 -0.897,2 -2,2 z" />
    </g>
  </g>
</svg>
