<?xml version="1.0" encoding="UTF-8" standalone="no"?>
<!-- Generator: Adobe Illustrator 16.0.0, SVG Export Plug-In . SVG Version: 6.00 Build 0)  -->

<svg
   xmlns:dc="http://purl.org/dc/elements/1.1/"
   xmlns:cc="http://creativecommons.org/ns#"
   xmlns:rdf="http://www.w3.org/1999/02/22-rdf-syntax-ns#"
   xmlns:svg="http://www.w3.org/2000/svg"
   xmlns="http://www.w3.org/2000/svg"
   xmlns:sodipodi="http://sodipodi.sourceforge.net/DTD/sodipodi-0.dtd"
   xmlns:inkscape="http://www.inkscape.org/namespaces/inkscape"
   version="1.1"
   id="Capa_1"
   x="0px"
   y="0px"
   width="489.765px"
   height="489.766px"
   viewBox="0 0 489.765 489.766"
   style="enable-background:new 0 0 489.765 489.766;"
   xml:space="preserve"
   sodipodi:docname="family.svg"
   inkscape:version="0.92.2 2405546, 2018-03-11"><metadata
   id="metadata57"><rdf:RDF><cc:Work
       rdf:about=""><dc:format>image/svg+xml</dc:format><dc:type
         rdf:resource="http://purl.org/dc/dcmitype/StillImage" /><dc:title></dc:title></cc:Work></rdf:RDF></metadata><defs
   id="defs55">
		
		
		
		
		
		
	
			
			
		</defs><sodipodi:namedview
   pagecolor="#ffffff"
   bordercolor="#666666"
   borderopacity="1"
   objecttolerance="10"
   gridtolerance="10"
   guidetolerance="10"
   inkscape:pageopacity="0"
   inkscape:pageshadow="2"
   inkscape:window-width="2485"
   inkscape:window-height="1399"
   id="namedview53"
   showgrid="false"
   inkscape:zoom="1.3629137"
   inkscape:cx="150.39863"
   inkscape:cy="222.12649"
   inkscape:window-x="75"
   inkscape:window-y="0"
   inkscape:window-maximized="1"
   inkscape:current-layer="g20" />
<g
   id="g20">
	<g
   id="g900"
   transform="matrix(0.9240873,0,0,0.9240873,11.986163,23.479157)"><path
     style="fill:#18bc9c;fill-opacity:0.98431373"
     d="m 330.566,225.151 c -3.039,4.671 -4.662,10.185 -4.662,15.756 0,9.256 4.552,18.108 12.064,23.511 7.619,5.477 17.691,6.905 26.535,3.771 8.598,-3.048 15.414,-10.19 18.045,-18.925 2.705,-8.98 0.809,-18.951 -5.012,-26.303 -5.771,-7.286 -14.861,-11.409 -24.142,-10.952 -9.205,0.45 -17.805,5.417 -22.828,13.142 z"
     id="path2"
     inkscape:connector-curvature="0" /><path
     d="m 409.083,340.095 c 0.057,1.585 -0.037,-1.587 0,0 z"
     id="path4"
     inkscape:connector-curvature="0" /><path
     style="fill:#18bc9c;fill-opacity:0.98431373"
     d="m 148.911,126.864 c 6.875,3.699 14.631,5.633 22.436,5.633 18.547,0 35.787,-11.202 43.334,-28.146 7.645,-17.164 4.184,-37.786 -8.598,-51.537 -12.773,-13.744 -33.027,-18.71 -50.707,-12.386 -17.385,6.218 -29.863,22.515 -31.297,40.924 -1.447,18.579 8.418,36.678 24.832,45.512 z"
     id="path6"
     inkscape:connector-curvature="0" /><path
     style="fill:#6a6c6c;fill-opacity:1"
     d="m 230.743,86.291 c 9.053,8.169 20.979,12.749 33.172,12.749 18.525,0 35.879,-10.692 44.231,-27.227 8.468,-16.761 6.529,-37.465 -4.877,-52.372 -11.366,-14.856 -30.6,-22.136 -48.961,-18.528 -18.02,3.541 -32.965,17.291 -38.018,34.944 -5.156,18.025 0.541,37.878 14.453,50.434 z"
     id="path8"
     inkscape:connector-curvature="0" /><path
     style="fill:#18bc9c;fill-opacity:0.98431373"
     inkscape:connector-curvature="0"
     id="path10"
     d="m 392.064,348.594 c 0.482,4.496 4.533,7.909 9.041,7.648 4.453,-0.257 8.045,-4.043 8.082,-8.5 0.021,-2.557 -0.014,-5.092 -0.104,-7.647 -0.137,-5.981 -1.347,-12.181 -3.09,-17.893 -1.502,-4.924 -3.435,-9.714 -5.892,-14.24 -6.006,-11.061 -14.586,-20.673 -24.891,-27.905 -2.408,-1.688 -4.959,-3.453 -7.715,-4.521 -7.822,-3.83 -17.203,-3.875 -25.063,-0.125 -2.108,0.742 -4.051,1.986 -5.918,3.192 -2.324,1.5 -4.551,3.147 -6.699,4.89 -4.996,4.053 -9.526,8.702 -13.442,13.806 -6.859,8.938 -11.931,19.425 -14.226,30.483 -1.373,6.627 -1.819,13.208 -1.768,19.961 0.033,4.521 3.727,8.322 8.238,8.509 4.457,0.186 8.405,-3.226 8.887,-7.657 1.01,-9.526 3.281,-18.903 8.504,-27.073 v 9.278 l -19.111,77.191 c -0.858,3.329 -1.422,6.771 5.072,6.771 h 15.875 l 2.945,64.451 c 0.258,5.276 4.748,9.575 10.035,9.57 5.246,-0.006 9.698,-4.241 9.985,-9.477 l 3.568,-64.545 h 1.07 l 2.944,64.451 c 0.258,5.276 4.748,9.575 10.035,9.57 5.246,-0.007 9.699,-4.241 9.988,-9.477 l 3.565,-64.545 h 15.531 c 1.699,0 3.296,-0.752 4.379,-2.062 1.084,-1.313 1.521,-3.022 1.188,-4.726 l -19.416,-77.479 v -8.807 c 5.272,7.977 7.413,17.554 8.403,26.908 z" /><path
     style="fill:#6a6c6c;fill-opacity:1"
     inkscape:connector-curvature="0"
     id="path12"
     d="m 301.083,411.677 6.592,-28.537 0.896,-17.707 c -8.222,-2.07 -14.189,-9.443 -14.25,-18.134 -0.07,-7.962 0.521,-15.754 2.323,-23.523 1.802,-7.769 4.699,-15.132 8.492,-22.131 2.248,-4.146 4.922,-8.087 7.826,-11.796 0.356,-3.235 0.297,-6.481 0.297,-9.731 0,-4.557 0,-9.115 0,-13.673 0,-13.12 0,-26.241 0,-39.361 0,-9.395 0,-18.789 0,-28.184 0,-0.492 0,-0.983 0,-1.475 4.188,9.03 7.121,18.485 9.504,28.134 5.154,-12.565 16.202,-18.927 31.479,-21.451 -2.523,-9.806 -6.519,-22.024 -10.746,-31.249 -5.398,-11.774 -11.949,-22.945 -20.125,-33.02 -5.338,-6.581 -11.308,-12.626 -17.775,-18.096 -3.156,-2.623 -6.438,-5.11 -9.868,-7.365 -2.882,-1.894 -5.978,-3.572 -9.103,-5.057 -32.492,-15.44 -58.289,9.643 -58.928,10.209 -6.934,6.159 -13.867,12.318 -20.801,18.479 18.295,12.895 33.418,30.017 44.02,49.711 6.787,12.606 11.494,26.482 13.826,40.602 1.586,9.599 2.031,19.192 1.951,28.914 -0.111,13.23 -11.32,24.266 -24.556,24.152 -2.008,-0.017 -3.961,-0.275 -5.83,-0.753 0,0 18.23,66.498 19.263,70.745 1.396,5.75 1.875,17.705 -11.438,17.705 -14.875,0 -22.1,0 -22.1,0 l -1.691,29.853 3.043,72.892 c 0.408,9.041 8.08,16.431 17.139,16.438 9.02,0.008 16.678,-7.287 17.133,-16.29 l 6.166,-122.119 5.096,121.97 c 0.408,9.041 8.082,16.432 17.139,16.438 9.021,0.007 16.678,-7.287 17.133,-16.291 l 2.681,-53.044 c -6.987,-0.551 -4.788,-7.255 -4.788,-7.255 z" /><path
     style="fill:#18bc9c;fill-opacity:0.98431373"
     d="m 241.522,363.84 c 2.547,0 4.94,-1.127 6.563,-3.092 1.624,-1.968 2.33,-4.211 1.781,-7.082 L 217.083,234.774 v -18.823 c 4.748,7.329 8.105,15.787 10.363,24.192 1.76,6.55 2.678,13.172 3.396,19.901 0.787,7.335 7.375,12.918 14.732,12.538 7.332,-0.379 13.268,-6.597 13.328,-13.935 0.037,-4.52 0.002,-9.006 -0.22,-13.521 -0.303,-6.2 -1.27,-12.405 -2.53,-18.475 -2.631,-12.657 -7.316,-24.932 -13.759,-36.142 -6.447,-11.224 -14.592,-21.446 -23.982,-30.348 -4.512,-4.278 -9.328,-8.25 -14.389,-11.862 -3.873,-2.764 -7.926,-5.517 -12.268,-7.492 -0.387,-0.176 -0.779,-0.331 -1.176,-0.482 -12.816,-6.272 -28.184,-6.35 -41.059,-0.202 -4.574,1.609 -8.779,4.517 -12.732,7.263 -5.006,3.476 -9.754,7.315 -14.246,11.432 -9.57,8.769 -17.73,18.914 -24.432,30.015 -3.355,5.558 -6.223,11.457 -8.633,17.483 -2.359,5.906 -4.422,12.112 -5.705,18.349 -1.283,6.227 -2.219,12.415 -2.826,18.745 -0.479,4.994 -0.375,10.03 -0.338,15.039 0.002,0.065 0.002,0.133 0.002,0.2 0.055,7.381 6.061,13.593 13.426,13.938 7.33,0.344 13.846,-5.253 14.635,-12.544 0.721,-6.729 1.639,-13.351 3.396,-19.899 2.299,-8.555 5.762,-16.98 10.535,-24.463 v 17.662 L 89.724,353.691 c -0.492,2.508 0.158,5.075 1.778,7.047 1.623,1.972 4.019,3.104 6.573,3.104 h 27.365 l 5.001,110.242 c 0.422,8.617 7.736,15.654 16.373,15.681 8.623,0.026 15.963,-6.921 16.436,-15.525 l 6.052,-110.396 h 1.375 l 4.999,110.242 c 0.422,8.617 7.738,15.654 16.373,15.681 8.623,0.026 15.965,-6.921 16.438,-15.525 l 6.052,-110.396 h 26.983 z"
     id="path16"
     inkscape:connector-curvature="0" /></g>
</g>
<g
   id="g22">
</g>
<g
   id="g24">
</g>
<g
   id="g26">
</g>
<g
   id="g28">
</g>
<g
   id="g30">
</g>
<g
   id="g32">
</g>
<g
   id="g34">
</g>
<g
   id="g36">
</g>
<g
   id="g38">
</g>
<g
   id="g40">
</g>
<g
   id="g42">
</g>
<g
   id="g44">
</g>
<g
   id="g46">
</g>
<g
   id="g48">
</g>
<g
   id="g50">
</g>
</svg>