<svg id="Layer_5" enable-background="new 0 0 64 64" height="512" viewBox="0 0 64 64" width="512" xmlns="http://www.w3.org/2000/svg"><g><g><g><path d="m30 2-10 10v18 20h-6v-48z" fill="#e6e9ed"/></g><g><path d="m14 2v48h-6v-12-36z" fill="#f0d0b4"/></g><g><path d="m8 38v12h-6v-8c0-2.21 1.79-4 4-4z" fill="#ffc729"/></g><g><path d="m28 50v12h-22c-2.21 0-4-1.79-4-4v-8h6 6 6z" fill="#fcd770"/></g><g><path d="m62 38v20c0 2.21-1.79 4-4 4h-30v-12-8c0-2.21 1.79-4 4-4h4c2.21 0 4-1.79 4-4v-4-8c0-2.21 1.79-4 4-4h2l16 16z" fill="#fcd770"/></g><g><path d="m62 22v6l-10-10h6c2.21 0 4 1.79 4 4z" fill="#fcd770"/></g><g><path d="m58 51v6c0 .55-.45 1-1 1h-14c-.55 0-1-.45-1-1v-6c0-.55.45-1 1-1h14c.55 0 1 .45 1 1z" fill="#5cd6b3"/></g><g><path d="m62 28v6l-16-16h6z" fill="#ff826e"/></g><g><path d="m32 2h-2v8 2h-10v18 20h8v-8c0-2.21 1.79-4 4-4h4c2.21 0 4-1.79 4-4v-4-8c0-2.21 1.79-4 4-4h2 6 6v-8-8z" fill="#f0d0b4"/></g><g><path d="m24 18h12v8h-12z" fill="#aab2bd"/></g><g><path d="m30 10v2h-10l10-10z" fill="#5cd6b3"/></g></g><g><path d="m59 17.101v-16.101h-27-2.414-22.586v36h-1c-2.757 0-5 2.243-5 5v16c0 2.757 2.243 5 5 5h52c2.757 0 5-2.243 5-5v-36c0-2.414-1.721-4.434-4-4.899zm-7.414 1.899 9.414 9.414v3.172l-12.586-12.586zm9.414 3v3.586l-6.586-6.586h3.586c1.654 0 3 1.346 3 3zm-42-10.414v37.414h-4v-46h12.586zm10-7.172v6.586h-6.586zm-16-1.414v46h-4v-46zm-7 36h1v10h-4v-7c0-1.654 1.346-3 3-3zm0 22c-1.654 0-3-1.346-3-3v-7h24v10zm21-19v7h-6v-36h10v-10h1 25v14h-13c-2.757 0-5 2.243-5 5v12c0 1.654-1.346 3-3 3h-4c-2.757 0-5 2.243-5 5zm31 19h-29v-19c0-1.654 1.346-3 3-3h4c2.757 0 5-2.243 5-5v-12c0-1.654 1.346-3 3-3h1.586l15.414 15.414v23.586c0 1.654-1.346 3-3 3z"/><path d="m57 49h-14c-1.103 0-2 .897-2 2v6c0 1.103.897 2 2 2h14c1.103 0 2-.897 2-2v-6c0-1.103-.897-2-2-2zm0 8h-14l-.001-6h.001 14z"/><path d="m49 53h2v2h-2z"/><path d="m45 53h2v2h-2z"/><path d="m53 53h2v2h-2z"/><path d="m33 5h22v2h-22z"/><path d="m33 9h22v2h-22z"/><path d="m53 13h2v2h-2z"/><path d="m33 13h18v2h-18z"/><path d="m37 17h-14v10h14zm-2 8h-10v-6h10z"/><path d="m23 29h14v2h-14z"/><path d="m23 33h14v2h-14z"/></g></g></svg>