<?xml version="1.0" encoding="UTF-8" standalone="no"?>
<svg
   xmlns:dc="http://purl.org/dc/elements/1.1/"
   xmlns:cc="http://creativecommons.org/ns#"
   xmlns:rdf="http://www.w3.org/1999/02/22-rdf-syntax-ns#"
   xmlns:svg="http://www.w3.org/2000/svg"
   xmlns="http://www.w3.org/2000/svg"
   xmlns:sodipodi="http://sodipodi.sourceforge.net/DTD/sodipodi-0.dtd"
   xmlns:inkscape="http://www.inkscape.org/namespaces/inkscape"
   version="1.1"
   viewBox="0 0 297 297"
   enable-background="new 0 0 297 297"
   width="512px"
   height="512px"
   id="svg16"
   sodipodi:docname="galeno_admin.svg"
   inkscape:version="0.92.2 2405546, 2018-03-11">
  <metadata
     id="metadata22">
    <rdf:RDF>
      <cc:Work
         rdf:about="">
        <dc:format>image/svg+xml</dc:format>
        <dc:type
           rdf:resource="http://purl.org/dc/dcmitype/StillImage" />
      </cc:Work>
    </rdf:RDF>
  </metadata>
  <defs
     id="defs20" />
  <sodipodi:namedview
     pagecolor="#ffffff"
     bordercolor="#666666"
     borderopacity="1"
     objecttolerance="10"
     gridtolerance="10"
     guidetolerance="10"
     inkscape:pageopacity="0"
     inkscape:pageshadow="2"
     inkscape:window-width="2560"
     inkscape:window-height="1347"
     id="namedview18"
     showgrid="false"
     inkscape:zoom="1.3037281"
     inkscape:cx="356.77523"
     inkscape:cy="272.29827"
     inkscape:window-x="0"
     inkscape:window-y="0"
     inkscape:window-maximized="1"
     inkscape:current-layer="svg16" />
  <g
     transform="matrix(3.1652658,0,0,3.1652658,1728.5459,-1754.5999)"
     id="g10"
     style="fill:#2780e3;fill-opacity:1">
    <path
       inkscape:connector-curvature="0"
       d="m -463.057,600.751 -0.186,-1.845 c -0.107,-1.056 0.491,-2.041 1.467,-2.46 1.448,-0.622 2.89,-1.296 4.323,-2.023 0.994,-0.504 1.506,-1.643 1.253,-2.728 -0.45,-1.936 -1.116,-3.834 -1.741,-5.734 -0.354,-1.076 -1.412,-1.781 -2.539,-1.662 -1.579,0.167 -3.141,0.383 -4.68,0.644 -1.025,0.174 -2.042,-0.305 -2.538,-1.218 l -1.025,-1.888 c -0.304,-0.614 -0.726,-1.148 -1.169,-1.667 -0.704,-0.826 -0.749,-2.009 -0.145,-2.91 0.873,-1.301 1.711,-2.642 2.513,-4.022 0.555,-0.955 0.374,-2.175 -0.409,-2.953 -1.421,-1.411 -3.044,-2.624 -4.617,-3.881 -0.871,-0.696 -2.115,-0.721 -2.987,-0.026 -1.23,0.98 -2.437,2.018 -3.594,3.073 -0.767,0.699 -1.884,0.849 -2.796,0.353 l -1.888,-1.025 c -0.563,-0.378 -1.19,-0.601 -1.832,-0.79 -1.059,-0.312 -1.766,-1.282 -1.745,-2.386 0.03,-1.569 0.008,-3.155 -0.067,-4.753 -0.05,-1.081 -0.832,-2.011 -1.887,-2.251 -1.989,-0.452 -4.052,-0.528 -6.092,-0.704 -1.089,-0.094 -2.124,0.541 -2.482,1.573 -0.507,1.46 -0.962,2.967 -1.363,4.504 -0.258,0.987 -1.085,1.719 -2.1,1.821 l -2.179,0.22 c -0.726,0.042 -1.446,0.118 -2.153,0.26 -1.019,0.204 -2.04,-0.216 -2.586,-1.099 -0.813,-1.317 -1.679,-2.619 -2.595,-3.904 -0.629,-0.882 -1.785,-1.224 -2.808,-0.866 -1.936,0.679 -3.754,1.634 -5.556,2.628 -0.948,0.523 -1.449,1.615 -1.198,2.668 0.366,1.536 0.771,3.028 1.254,4.54 0.305,0.953 0.023,1.998 -0.749,2.635 l -1.715,1.414 c -0.593,0.502 -1.218,0.971 -1.785,1.498 -0.719,0.668 -1.78,0.774 -2.666,0.352 -1.391,-0.664 -2.818,-1.288 -4.277,-1.871 -1.005,-0.401 -2.16,-0.066 -2.826,0.787 -1.263,1.617 -2.301,3.389 -3.274,5.205 -0.509,0.951 -0.343,2.136 0.435,2.884 1.146,1.102 2.311,2.151 3.521,3.161 0.758,0.632 1.076,1.647 0.783,2.59 l -0.67,2.152 c -0.183,0.762 -0.496,1.499 -0.715,2.255 -0.268,0.925 -1.065,1.577 -2.02,1.699 -1.528,0.196 -3.065,0.443 -4.606,0.745 -1.021,0.2 -1.828,1.048 -1.934,2.083 -0.217,2.116 -0.217,4.229 0,6.343 0.106,1.034 0.912,1.882 1.932,2.082 1.544,0.303 3.083,0.551 4.612,0.747 0.954,0.122 1.75,0.774 2.018,1.697 0.22,0.756 0.533,1.493 0.716,2.258 l 0.668,2.151 c 0.293,0.943 -0.027,1.957 -0.785,2.589 -1.21,1.008 -2.374,2.058 -3.52,3.161 -0.778,0.748 -0.944,1.934 -0.434,2.885 0.973,1.815 2.01,3.586 3.273,5.202 0.666,0.853 1.822,1.188 2.826,0.787 1.46,-0.583 2.888,-1.208 4.279,-1.872 0.886,-0.423 1.947,-0.318 2.666,0.35 0.567,0.527 1.193,0.996 1.786,1.498 l 1.718,1.418 c 0.772,0.637 1.053,1.682 0.748,2.635 -0.485,1.512 -0.89,3.004 -1.257,4.54 -0.251,1.053 0.25,2.144 1.198,2.667 1.803,0.995 3.622,1.949 5.56,2.628 1.022,0.358 2.179,0.016 2.807,-0.867 0.916,-1.285 1.781,-2.588 2.595,-3.904 0.546,-0.882 1.566,-1.302 2.583,-1.099 0.707,0.141 1.427,0.217 2.156,0.261 l 2.175,0.219 c 1.014,0.102 1.841,0.834 2.1,1.821 0.403,1.538 0.858,3.045 1.367,4.506 0.359,1.031 1.394,1.666 2.482,1.572 2.039,-0.176 4.101,-0.252 6.09,-0.703 1.056,-0.24 1.838,-1.169 1.889,-2.251 0.075,-1.6 0.096,-3.186 0.066,-4.755 -0.021,-1.103 0.683,-2.072 1.741,-2.385 0.642,-0.19 1.27,-0.413 1.834,-0.789 l 1.889,-1.024 c 0.912,-0.495 2.028,-0.345 2.795,0.354 1.158,1.055 2.367,2.093 3.599,3.073 0.872,0.693 2.115,0.667 2.985,-0.028 1.573,-1.257 3.194,-2.471 4.615,-3.884 0.782,-0.778 0.962,-1.998 0.408,-2.952 -0.801,-1.379 -1.64,-2.72 -2.513,-4.02 -0.605,-0.901 -0.56,-2.085 0.144,-2.911 0.444,-0.52 0.865,-1.055 1.169,-1.67 l 1.024,-1.885 c 0.496,-0.914 1.514,-1.392 2.539,-1.217 1.539,0.262 3.101,0.477 4.68,0.643 1.125,0.118 2.182,-0.585 2.536,-1.66 0.621,-1.89 1.284,-3.78 1.735,-5.707 0.257,-1.095 -0.241,-2.247 -1.244,-2.756 -1.433,-0.727 -2.875,-1.402 -4.324,-2.024 -0.976,-0.419 -1.574,-1.403 -1.468,-2.459 l 0.186,-1.856 c 0.018,-0.163 0.018,-0.326 10e-4,-0.487 z m -24.285,24.755 c -4.694,1.774 -9.917,3.196 -15.016,2.087 -5.007,-0.798 -10.017,-2.703 -13.757,-6.29 -3.83,-3.352 -6.971,-7.739 -8.177,-12.736 -1.566,-4.869 -1.566,-10.266 0,-15.136 1.208,-4.998 4.349,-9.382 8.177,-12.736 3.741,-3.585 8.752,-5.493 13.754,-6.29 5.101,-1.112 10.321,0.312 15.018,2.087 4.739,2.07 8.533,5.79 11.492,9.938 2.798,4.29 3.953,9.305 4.325,14.362 0.01,0.137 0.01,0.275 0,0.412 -0.369,5.058 -1.527,10.074 -4.325,14.362 -2.958,4.147 -6.75,7.87 -11.491,9.94 z"
       id="path2-3"
       style="fill:#2780e3;fill-opacity:1" />
    <g
       id="g8"
       style="fill:#2780e3;fill-opacity:1">
      <path
         inkscape:connector-curvature="0"
         d="m -499,609.867 c -0.706,0 -1.28,0.573 -1.28,1.28 v 4.49 c 0,0.706 0.573,1.28 1.28,1.28 0.707,0 1.28,-0.573 1.28,-1.28 v -4.49 c 0,-0.707 -0.574,-1.28 -1.28,-1.28 z"
         id="path4-6"
         style="fill:#2780e3;fill-opacity:1" />
      <path
         inkscape:connector-curvature="0"
         d="m -485.251,594.416 c 0,-6.023 -3.857,-11.292 -9.598,-13.108 -0.388,-0.123 -0.813,-0.053 -1.142,0.187 -0.329,0.241 -0.523,0.624 -0.523,1.032 v 12.057 l -2.486,1.905 -2.486,-1.905 v -12.057 c 0,-0.408 -0.194,-0.792 -0.523,-1.032 -0.33,-0.241 -0.752,-0.311 -1.143,-0.187 -5.74,1.817 -9.597,7.085 -9.597,13.108 0,5.511 3.267,10.262 7.959,12.453 v 12.601 c 0,0.706 0.573,1.28 1.28,1.28 0.706,0 1.28,-0.573 1.28,-1.28 v -11.704 c 1.038,0.251 2.116,0.399 3.231,0.399 1.115,0 2.193,-0.148 3.232,-0.399 v 11.705 c 0,0.706 0.573,1.28 1.28,1.28 0.706,0 1.28,-0.573 1.28,-1.28 v -12.602 c 4.69,-2.192 7.956,-6.942 7.956,-12.453 z m -15.945,10.979 c -4.517,-0.864 -8.115,-4.581 -8.845,-9.122 -0.808,-5.024 1.727,-9.706 5.996,-11.85 v 10.791 c 0,0.398 0.185,0.774 0.502,1.016 l 3.766,2.886 c 0.459,0.352 1.097,0.352 1.556,0 l 3.766,-2.886 c 0.316,-0.242 0.502,-0.618 0.502,-1.016 v -10.791 c 3.736,1.876 6.145,5.698 6.145,9.992 -0.002,6.889 -6.259,12.344 -13.388,10.98 z"
         id="path6"
         style="fill:#2780e3;fill-opacity:1" />
    </g>
  </g>
</svg>
