<?xml version="1.0" encoding="UTF-8" standalone="no"?>
<!-- Generator: Adobe Illustrator 16.0.0, SVG Export Plug-In . SVG Version: 6.00 Build 0)  -->

<svg
   xmlns:dc="http://purl.org/dc/elements/1.1/"
   xmlns:cc="http://creativecommons.org/ns#"
   xmlns:rdf="http://www.w3.org/1999/02/22-rdf-syntax-ns#"
   xmlns:svg="http://www.w3.org/2000/svg"
   xmlns="http://www.w3.org/2000/svg"
   xmlns:sodipodi="http://sodipodi.sourceforge.net/DTD/sodipodi-0.dtd"
   xmlns:inkscape="http://www.inkscape.org/namespaces/inkscape"
   version="1.1"
   id="Capa_1"
   x="0px"
   y="0px"
   width="512px"
   height="512px"
   viewBox="0 0 98.177 98.177"
   style="enable-background:new 0 0 98.177 98.177;"
   xml:space="preserve"
   sodipodi:docname="galeno.svg"
   inkscape:version="0.92.2 2405546, 2018-03-11"><metadata
   id="metadata47"><rdf:RDF><cc:Work
       rdf:about=""><dc:format>image/svg+xml</dc:format><dc:type
         rdf:resource="http://purl.org/dc/dcmitype/StillImage" /></cc:Work></rdf:RDF></metadata><defs
   id="defs45">
	

		
		
		
	</defs><sodipodi:namedview
   pagecolor="#ffffff"
   bordercolor="#666666"
   borderopacity="1"
   objecttolerance="10"
   gridtolerance="10"
   guidetolerance="10"
   inkscape:pageopacity="0"
   inkscape:pageshadow="2"
   inkscape:window-width="2560"
   inkscape:window-height="1347"
   id="namedview43"
   showgrid="false"
   inkscape:zoom="0.65186405"
   inkscape:cx="-164.62688"
   inkscape:cy="276.12969"
   inkscape:window-x="0"
   inkscape:window-y="0"
   inkscape:window-maximized="1"
   inkscape:current-layer="Capa_1" />

<g
   id="g12">
</g>
<g
   id="g14">
</g>
<g
   id="g16">
</g>
<g
   id="g18">
</g>
<g
   id="g20">
</g>
<g
   id="g22">
</g>
<g
   id="g24">
</g>
<g
   id="g26">
</g>
<g
   id="g28">
</g>
<g
   id="g30">
</g>
<g
   id="g32">
</g>
<g
   id="g34">
</g>
<g
   id="g36">
</g>
<g
   id="g38">
</g>
<g
   id="g40">
</g>
<g
   id="g840"
   transform="matrix(5.5279929,0,0,5.5279929,-658.17014,-300.00414)"
   inkscape:export-xdpi="6.1757317"
   inkscape:export-ydpi="6.1757317"><path
     style="fill:#2780e3;fill-opacity:1;stroke-width:0.19175196"
     inkscape:connector-curvature="0"
     id="path64"
     d="m 127.80115,59.982427 1.45137,-0.86461 -1.45137,-0.864418 0.51006,-0.886661 c -5.04135,-0.714084 -8.9807,0.485516 -8.9807,0.485516 0,0 0,4.93186 0,7.90996 0,2.977716 5.75256,5.497912 5.75256,5.497912 0,0 5.75256,-2.519621 5.75256,-5.497912 0,-1.077646 0,-2.410514 0,-3.6732 l -1.29548,0.748599 z m -2.77541,-1.358755 c 0.63009,0 1.15722,0.510636 1.15722,1.140541 0,0.486091 -0.33269,0.900083 -0.71619,1.064223 v 0.297791 c -0.19176,0.04218 -0.48514,0.09549 -0.76893,0.166249 -0.008,0.0021 0.002,0.004 0.002,0.0061 v -0.469988 c -0.57526,-0.16414 -0.77353,-0.578324 -0.77353,-1.064223 0,-0.629906 0.46979,-1.140733 1.0997,-1.140733 z m 0.44083,9.72681 v 0.09396 0.09281 c 0,0.2255 -0.15819,0.408048 -0.3835,0.408048 -0.2255,0 -0.3835,-0.182548 -0.3835,-0.408048 v -0.17181 -0.176603 -1.766419 c 0,-0.04966 0.2951,-0.08782 0.46423,-0.121763 0.0872,-0.01726 0.172,-0.03394 0.26193,-0.05043 0.0146,-0.0025 0.0408,-0.0054 0.0408,-0.0084 z m 0.69971,0.177562 c -0.0616,0 -0.11141,-0.04986 -0.11141,-0.111408 -0.004,0.0017 0.0458,-0.05158 0.01,-0.12368 -0.027,-0.05964 -0.21438,-0.132884 -0.21438,-0.190218 v -0.255989 c 0.19175,0.07191 0.35282,0.199039 0.41783,0.34362 0.0339,0.06961 0.0243,0.130391 0.0263,0.167974 0.003,0.03854 -0.006,0.05849 -0.006,0.05849 0,0.06155 -0.0602,0.111216 -0.12176,0.111216 z m 0.80056,-3.510211 c -0.009,0.04257 -0.0224,0.08495 -0.0351,0.126939 -0.0155,0.04084 -0.0374,0.07977 -0.0573,0.118695 -0.0917,0.151676 -0.2512,0.250428 -0.37699,0.320417 -0.14439,0.07804 -0.26385,0.1302 -0.4556,0.17066 v 5.75e-4 c 0,0.0019 0.0151,0.0031 0.009,0.0046 -0.0468,0.01304 -0.08,0.0255 -0.12637,0.03643 -0.01,0.0025 -0.0128,0.0048 -0.023,0.0071 -0.0464,0.01112 -0.0894,0.02148 -0.13537,0.03202 -0.24468,0.05254 -0.4813,0.09223 -0.71025,0.13787 -0.22838,0.04602 -0.44966,0.09415 -0.64908,0.166632 -0.0431,0.01496 -0.0836,0.03202 -0.12368,0.04986 -0.0535,0.02378 -0.10489,0.0489 -0.15302,0.07651 -0.0807,0.0512 -0.15417,0.106997 -0.20594,0.17296 -0.10297,0.130008 -0.13365,0.301051 -0.1047,0.474778 0.0234,0.167208 0.12867,0.2999 0.25599,0.399611 0.0688,0.05216 0.0487,0.09511 0.24046,0.132309 v 0.305077 c -0.19175,-0.04698 -0.28456,-0.109877 -0.4161,-0.203835 -0.0855,-0.06673 -0.18044,-0.144006 -0.2441,-0.245826 -0.0631,-0.09971 -0.11754,-0.214954 -0.13557,-0.333457 -0.015,-0.05964 -0.0157,-0.118119 -0.0211,-0.178521 0.001,-0.06098 0.001,-0.123872 0.0129,-0.186766 0.0195,-0.127707 0.0769,-0.253113 0.15474,-0.361261 0.0801,-0.107764 0.18236,-0.189067 0.28782,-0.259632 0.0963,-0.05925 0.19654,-0.107765 0.29856,-0.149183 0.0104,-0.004 0.0205,-0.0094 0.0311,-0.01342 9.6e-4,-1.91e-4 0.002,-9.58e-4 0.003,-0.0012 0.22761,-0.08936 0.46136,-0.145732 0.69568,-0.199806 0.23451,-0.05331 0.47075,-0.09952 0.70123,-0.155702 0.0865,-0.02128 0.17258,-0.04506 0.25676,-0.07076 0.13883,-0.04219 0.27114,-0.09185 0.38235,-0.157236 0.18409,-0.106373 0.25811,-0.239832 0.228,-0.403205 -0.014,-0.06903 -0.052,-0.126364 -0.12349,-0.183314 -0.0713,-0.05542 -0.12406,-0.105272 -0.23048,-0.143047 -0.12138,-0.04525 -0.34688,-0.07977 -0.34688,-0.109491 v -0.470367 c 0.19175,0.0418 0.32348,0.09127 0.5091,0.165098 0.12982,0.05158 0.24218,0.120229 0.36701,0.223583 0.12387,0.10067 0.22685,0.264618 0.25312,0.445631 0.004,0.04391 0.004,0.0884 0.005,0.131926 -0.003,0.04219 -0.0125,0.08475 -0.0173,0.126748 z m -2.26727,0.345728 V 63.354385 63.093602 62.60521 c 0,-0.02934 0.18005,-0.05638 0.2928,-0.08169 0.17258,-0.03797 0.28245,-0.06922 0.4742,-0.09549 v 0.739779 0.346687 1.661531 c -0.19175,0.01841 -0.1789,0.0372 -0.26059,0.05484 -0.0936,0.02013 -0.15474,0.04027 -0.24947,0.06174 -0.0974,0.02243 -0.25694,0.04602 -0.25694,0.07095 z m 2.48433,-3.436578 c -0.15992,0.0209 -0.28436,0.181206 -0.50565,0.181206 -0.48628,0 -0.44007,-0.123489 -0.77199,-0.0813 -0.0462,0.0054 -0.0911,0.01016 -0.13883,0.01611 -0.27708,0.0349 -0.58081,0.08303 -0.9043,0.154552 -0.17737,0.03969 -0.35934,0.08821 -0.53901,0.150141 -0.0136,0.0046 -0.0272,0.01016 -0.041,0.01515 -0.0399,0.01419 -0.0796,0.02896 -0.11908,0.04468 -0.007,0.0027 -0.0132,0.0056 -0.0199,0.0083 -0.0334,0.01361 -0.0669,0.02761 -0.0999,0.04238 -0.0175,0.008 -0.0343,0.01649 -0.0516,0.02493 -0.0224,0.01093 -0.0451,0.02128 -0.0671,0.03279 -0.0395,0.0209 -0.078,0.04257 -0.11524,0.06596 -0.15359,0.09664 -0.28092,0.217639 -0.31313,0.339593 -0.0152,0.02953 -0.0109,0.06309 -0.0186,0.09549 0.005,0.03298 -9.6e-4,0.07229 0.0115,0.101437 0.004,0.03298 0.0215,0.06021 0.0334,0.09108 0.0213,0.02761 0.0382,0.05791 0.069,0.08495 0.0556,0.05618 0.13308,0.110257 0.22569,0.154744 0.0896,0.04679 0.21016,0.08399 0.3162,0.120036 0.0543,0.01668 0.18178,0.0326 0.18178,0.04775 v 0.514275 c -0.19175,-0.02263 -0.22454,-0.04736 -0.32885,-0.07708 -0.12618,-0.03835 -0.26002,-0.07919 -0.38619,-0.139788 -0.12521,-0.05695 -0.25618,-0.133459 -0.37104,-0.241607 -0.0589,-0.05139 -0.11083,-0.118695 -0.1582,-0.186767 -0.0405,-0.07402 -0.0813,-0.149758 -0.0997,-0.232019 -0.0274,-0.0813 -0.0278,-0.16088 -0.0343,-0.241608 0.007,-0.08188 0.008,-0.165098 0.0351,-0.24295 0.0188,-0.0813 0.0556,-0.150908 0.092,-0.220706 0.018,-0.03528 0.042,-0.0627 0.0631,-0.09396 0.0222,-0.02972 0.0433,-0.06174 0.0683,-0.08571 0.0483,-0.05139 0.097,-0.103546 0.14918,-0.143239 l 0.0769,-0.0627 0.0786,-0.05369 c 0.20997,-0.139594 0.42148,-0.232019 0.62588,-0.309486 0.20479,-0.0767 0.40364,-0.135569 0.5952,-0.183891 0.38235,-0.09549 0.73345,-0.159537 1.04524,-0.205174 0.0479,-0.0069 0.093,-0.01266 0.13883,-0.01898 0.44467,-0.05868 0.87554,-0.08475 1.20228,-0.06385 0.3325,0.02109 0.5605,0.08993 0.57814,0.223774 0.0351,0.264425 -0.34266,0.354357 -0.50259,0.375258 z" /><polygon
     style="fill:#2780e3;fill-opacity:1"
     id="polygon66"
     points="51.273,22.723 60.238,28.038 51.337,33.353 57.673,44.255 66,39.202 66,49 79,49 79,39.202 87.494,44.255 93.994,33.353 85.074,28.038 94,22.723 87.494,11.821 79,16.874 79,7 66,7 66,16.874 57.684,11.821 "
     transform="matrix(0.19175195,0,0,0.19175195,118.5635,53.741667)" /></g></svg>