<?xml version="1.0" encoding="UTF-8" standalone="no"?>
<svg
   xmlns:dc="http://purl.org/dc/elements/1.1/"
   xmlns:cc="http://creativecommons.org/ns#"
   xmlns:rdf="http://www.w3.org/1999/02/22-rdf-syntax-ns#"
   xmlns:svg="http://www.w3.org/2000/svg"
   xmlns="http://www.w3.org/2000/svg"
   xmlns:sodipodi="http://sodipodi.sourceforge.net/DTD/sodipodi-0.dtd"
   xmlns:inkscape="http://www.inkscape.org/namespaces/inkscape"
   inkscape:version="1.0 (4035a4fb49, 2020-05-01)"
   sodipodi:docname="galeno_config.svg"
   version="1.1"
   width="24"
   viewBox="0 0 3 3"
   height="24"
   enable-background="new 0 0 64 64"
   id="Layer_5">
  <metadata
     id="metadata57">
    <rdf:RDF>
      <cc:Work
         rdf:about="">
        <dc:format>image/svg+xml</dc:format>
        <dc:type
           rdf:resource="http://purl.org/dc/dcmitype/StillImage" />
        <dc:title></dc:title>
      </cc:Work>
    </rdf:RDF>
  </metadata>
  <defs
     id="defs55" />
  <sodipodi:namedview
     inkscape:current-layer="Layer_5"
     inkscape:window-maximized="1"
     inkscape:window-y="0"
     inkscape:window-x="0"
     inkscape:cy="12.997682"
     inkscape:cx="9.1944644"
     inkscape:zoom="22.273864"
     showgrid="false"
     id="namedview53"
     inkscape:window-height="1417"
     inkscape:window-width="2560"
     inkscape:pageshadow="2"
     inkscape:pageopacity="0"
     guidetolerance="10"
     gridtolerance="10"
     objecttolerance="10"
     borderopacity="1"
     bordercolor="#666666"
     pagecolor="#ffffff" />
  <g
     transform="matrix(0.04874482,0,0,0.04874482,-0.04874482,-0.04874482)"
     id="g50">
    <g
       id="g18">
      <path
         id="path2"
         fill="#37bc9b"
         d="m 21,8 v 8 H 19 C 16.79,16 15,14.21 15,12 15,10.9 15.45,9.9 16.17,9.17 16.9,8.45 17.9,8 19,8 Z" />
      <path
         id="path4"
         fill="#e6e9ed"
         d="m 59,2 v 44.34 l -0.01,0.01 C 57.41,44.89 55.31,44.01 53,44 V 38.87 C 53,37.69 52.47,36.56 51.56,35.8 L 47,32 V 20 c 0,-2.21 -1.79,-4 -4,-4 V 6 H 25 V 16 H 21 V 8 2 Z" />
      <path
         id="path6"
         fill="#dfb28b"
         d="M 25,6 H 43 V 16 H 25 Z" />
      <path
         id="path8"
         fill="#48cfad"
         d="M 53,38.87 V 44 c -0.01,0 -0.02,0 -0.03,0 -3.52,0 -6.56,2.04 -8.03,5 H 30 v -4 l -2.56,-0.63 c -0.21,-0.66 -0.48,-1.28 -0.79,-1.88 l 1.37,-2.27 -4.24,-4.24 -2.27,1.37 c -0.6,-0.31 -1.22,-0.58 -1.88,-0.79 L 19,34 H 15 V 12 c 0,2.21 1.79,4 4,4 h 2 4 18 c 2.21,0 4,1.79 4,4 v 12 l 4.56,3.8 c 0.91,0.76 1.44,1.89 1.44,3.07 z" />
      <path
         id="path10"
         fill="#fcd770"
         d="m 43,21 v 8 c 0,0.55 -0.45,1 -1,1 H 20 c -0.55,0 -1,-0.45 -1,-1 v -8 c 0,-0.55 0.45,-1 1,-1 h 22 c 0.55,0 1,0.45 1,1 z" />
      <path
         id="path12"
         fill="#aab2bd"
         d="m 61,49 -8.01,0.73 C 51.3,49.88 50,51.3 50,53 c 0,1.7 1.3,3.12 2.99,3.27 L 61,57 c -1.47,2.96 -4.51,5 -8.03,5 -3.52,0 -6.56,-2.04 -8.03,-5 H 26.8 l 1.22,-1.22 -1.37,-2.27 c 0.31,-0.6 0.58,-1.22 0.79,-1.88 L 30,51 v -2 h 14.94 c 1.47,-2.96 4.51,-5 8.03,-5 H 53 c 2.31,0.01 4.41,0.89 5.99,2.35 0.82,0.74 1.51,1.64 2.01,2.65 z" />
      <path
         id="path14"
         fill="#ffc729"
         d="m 30,49 v 2 l -2.56,0.63 c -0.21,0.66 -0.48,1.28 -0.79,1.88 l 1.37,2.27 -1.22,1.22 -3.02,3.02 -2.27,-1.37 c -0.6,0.31 -1.22,0.58 -1.88,0.79 L 19,62 H 13 L 12.37,59.44 C 11.71,59.23 11.09,58.96 10.49,58.65 L 8.22,60.02 3.98,55.78 5.35,53.51 C 5.04,52.91 4.77,52.29 4.56,51.63 L 2,51 v -6 l 2.56,-0.63 c 0.21,-0.66 0.48,-1.28 0.79,-1.88 l -1.37,-2.27 4.24,-4.24 2.27,1.37 c 0.6,-0.31 1.22,-0.58 1.88,-0.79 L 13,34 h 2 4 l 0.63,2.56 c 0.66,0.21 1.28,0.48 1.88,0.79 l 2.27,-1.37 4.24,4.24 -1.37,2.27 c 0.31,0.6 0.58,1.22 0.79,1.88 L 30,45 Z m -6,-1 c 0,-4.42 -3.58,-8 -8,-8 -4.42,0 -8,3.58 -8,8 0,4.42 3.58,8 8,8 4.42,0 8,-3.58 8,-8 z" />
      <path
         id="path16"
         fill="#fcd770"
         d="m 16,40 c 4.42,0 8,3.58 8,8 0,4.42 -3.58,8 -8,8 -4.42,0 -8,-3.58 -8,-8 0,-4.42 3.58,-8 8,-8 z m 4,8 c 0,-2.21 -1.79,-4 -4,-4 -2.21,0 -4,1.79 -4,4 0,2.21 1.79,4 4,4 2.21,0 4,-1.79 4,-4 z" />
    </g>
    <g
       id="g48">
      <path
         id="path20"
         d="M 46,5 H 56 V 7 H 46 Z" />
      <path
         id="path22"
         d="m 46,9 h 10 v 2 H 46 Z" />
      <path
         id="path24"
         d="m 46,13 h 10 v 2 H 46 Z" />
      <path
         id="path26"
         d="m 50,17 h 6 v 2 h -6 z" />
      <path
         id="path28"
         d="m 50,21 h 6 v 2 h -6 z" />
      <path
         id="path30"
         d="m 50,25 h 6 v 2 h -6 z" />
      <path
         id="path32"
         d="m 50,29 h 6 v 2 h -6 z" />
      <path
         id="path34"
         d="m 16,39 c -4.963,0 -9,4.038 -9,9 0,4.962 4.037,9 9,9 4.963,0 9,-4.038 9,-9 0,-4.962 -4.037,-9 -9,-9 z m 0,16 c -3.859,0 -7,-3.14 -7,-7 0,-3.86 3.141,-7 7,-7 3.859,0 7,3.14 7,7 0,3.86 -3.141,7 -7,7 z" />
      <path
         id="path36"
         d="m 16,43 c -2.757,0 -5,2.243 -5,5 0,2.757 2.243,5 5,5 2.757,0 5,-2.243 5,-5 0,-2.757 -2.243,-5 -5,-5 z m 0,8 c -1.654,0 -3,-1.346 -3,-3 0,-1.654 1.346,-3 3,-3 1.654,0 3,1.346 3,3 0,1.654 -1.346,3 -3,3 z" />
      <path
         id="path38"
         d="m 51,53 c 0,-1.189 0.894,-2.168 2.078,-2.275 l 9.467,-0.861 -0.649,-1.308 C 61.403,47.561 60.751,46.692 60,45.936 V 1 H 20 v 6 h -1 c -2.757,0 -5,2.243 -5,5 v 21 h -1.784 l -0.687,2.794 c -0.332,0.123 -0.664,0.262 -0.994,0.417 L 8.069,34.718 2.717,40.07 4.209,42.536 C 4.055,42.867 3.916,43.199 3.793,43.531 L 1,44.216 v 7.568 l 2.794,0.687 c 0.123,0.333 0.262,0.665 0.416,0.995 l -1.492,2.466 5.351,5.351 2.467,-1.493 c 0.33,0.155 0.662,0.293 0.994,0.417 L 12.216,63 h 7.568 l 0.687,-2.794 c 0.332,-0.123 0.664,-0.262 0.994,-0.417 L 23.931,61.282 27.213,58 h 17.131 c 1.782,3.1 5.033,5 8.627,5 3.805,0 7.225,-2.129 8.924,-5.556 l 0.649,-1.308 -9.467,-0.861 C 51.894,55.168 51,54.189 51,53 Z M 58,3 v 41.374 c -1.208,-0.71 -2.565,-1.155 -4,-1.303 v -4.198 c 0,-1.488 -0.656,-2.889 -1.799,-3.841 L 48,31.532 V 20 c 0,-2.414 -1.721,-4.434 -4,-4.899 V 5 H 24 V 15 H 22 V 3 Z M 42,15 H 26 V 7 H 42 Z M 19,9 h 1 v 6 h -1 c -1.654,0 -3,-1.346 -3,-3 0,-1.654 1.346,-3 3,-3 z m -3,6.974 C 16.838,16.609 17.87,17 19,17 h 24 c 1.654,0 3,1.346 3,3 v 12.468 l 4.921,4.101 C 51.606,37.141 52,37.98 52,38.874 v 4.191 c -3.2,0.31 -6.036,2.119 -7.655,4.936 H 31 V 44.217 L 28.206,43.53 C 28.083,43.198 27.944,42.866 27.79,42.535 L 29.282,40.069 23.93,34.717 21.465,36.21 C 21.135,36.056 20.803,35.917 20.47,35.793 L 19.784,33 H 16 Z m 7.626,42.785 -2.073,-1.255 -0.498,0.258 c -0.574,0.297 -1.155,0.541 -1.728,0.722 L 18.793,58.654 18.216,61 h -4.432 l -0.577,-2.345 -0.534,-0.17 C 12.102,58.303 11.52,58.061 10.945,57.763 L 10.447,57.505 8.375,58.76 5.241,55.626 6.496,53.553 6.237,53.054 C 5.939,52.481 5.696,51.901 5.514,51.327 L 5.344,50.793 3,50.216 V 45.784 L 5.347,45.207 5.516,44.671 C 5.697,44.1 5.94,43.52 6.238,42.946 l 0.259,-0.499 -1.255,-2.073 3.133,-3.134 2.073,1.255 0.498,-0.258 c 0.574,-0.297 1.155,-0.541 1.728,-0.722 L 13.208,37.345 13.784,35 h 4.432 l 0.577,2.345 0.534,0.17 c 0.574,0.183 1.155,0.425 1.727,0.722 l 0.498,0.259 2.074,-1.255 3.133,3.134 -1.255,2.073 0.259,0.499 c 0.298,0.574 0.541,1.154 0.722,1.725 l 0.169,0.536 2.346,0.576 v 4.432 l -2.347,0.577 -0.169,0.536 C 26.303,51.9 26.06,52.48 25.762,53.054 l -0.259,0.499 1.255,2.073 z M 52.972,61 c -3.039,0 -5.771,-1.703 -7.133,-4.445 L 45.563,56 h -16.35 l 0.069,-0.069 -1.492,-2.466 c 0.154,-0.331 0.293,-0.663 0.416,-0.995 L 31,51.784 V 50 h 14.563 l 0.275,-0.555 C 47.2,46.703 49.933,45 52.972,45 c 2.527,0 4.843,1.177 6.333,3.15 l -6.408,0.583 C 50.675,48.935 49,50.769 49,53 c 0,2.231 1.675,4.065 3.896,4.268 l 6.408,0.583 C 57.814,59.823 55.499,61 52.972,61 Z" />
      <path
         id="path40"
         d="m 42,31 c 1.103,0 2,-0.897 2,-2 v -8 c 0,-1.103 -0.897,-2 -2,-2 H 20 c -1.103,0 -2,0.897 -2,2 v 8 c 0,1.103 0.897,2 2,2 z M 20,21 h 22 l 10e-4,8 H 20 Z" />
      <path
         id="path42"
         d="m 41,44 h 2 v 2 h -2 z" />
      <path
         id="path44"
         d="m 33,44 h 2 v 2 h -2 z" />
      <path
         id="path46"
         d="m 37,44 h 2 v 2 h -2 z" />
    </g>
  </g>
</svg>
