<?xml version="1.0" encoding="UTF-8" standalone="no"?>
<!-- Generator: Adobe Illustrator 16.0.0, SVG Export Plug-In . SVG Version: 6.00 Build 0)  -->

<svg
   xmlns:dc="http://purl.org/dc/elements/1.1/"
   xmlns:cc="http://creativecommons.org/ns#"
   xmlns:rdf="http://www.w3.org/1999/02/22-rdf-syntax-ns#"
   xmlns:svg="http://www.w3.org/2000/svg"
   xmlns="http://www.w3.org/2000/svg"
   xmlns:sodipodi="http://sodipodi.sourceforge.net/DTD/sodipodi-0.dtd"
   xmlns:inkscape="http://www.inkscape.org/namespaces/inkscape"
   version="1.1"
   id="Capa_1"
   x="0px"
   y="0px"
   width="512px"
   height="512px"
   viewBox="0 0 98.177 98.177"
   style="enable-background:new 0 0 98.177 98.177;"
   xml:space="preserve"
   sodipodi:docname="galeno.svg"
   inkscape:version="0.92.2 2405546, 2018-03-11"><metadata
   id="metadata47"><rdf:RDF><cc:Work
       rdf:about=""><dc:format>image/svg+xml</dc:format><dc:type
         rdf:resource="http://purl.org/dc/dcmitype/StillImage" /></cc:Work></rdf:RDF></metadata><defs
   id="defs45">
	

		
		
		
	</defs><sodipodi:namedview
   pagecolor="#ffffff"
   bordercolor="#666666"
   borderopacity="1"
   objecttolerance="10"
   gridtolerance="10"
   guidetolerance="10"
   inkscape:pageopacity="0"
   inkscape:pageshadow="2"
   inkscape:window-width="2485"
   inkscape:window-height="1399"
   id="namedview43"
   showgrid="false"
   inkscape:zoom="0.921875"
   inkscape:cx="385.04244"
   inkscape:cy="182.15671"
   inkscape:window-x="75"
   inkscape:window-y="0"
   inkscape:window-maximized="1"
   inkscape:current-layer="Capa_1" />
<path
   d="m 44.952,67.638 c -0.238,0.55 -0.373,1.152 -0.373,1.789 0,1.91 1.191,3.533 2.869,4.19 0.197,1.857 0.782,3.996 2.223,5.816 1.997,2.522 5.131,3.846 9.312,3.93 0.094,0.002 0.187,0.004 0.277,0.004 3.699,0 6.808,-1.514 8.773,-4.276 1.165,-1.638 1.814,-3.577 1.961,-5.659 1.464,-0.744 2.478,-2.248 2.478,-4.005 0,-2.489 -2.019,-4.509 -4.509,-4.509 -2.49,0 -4.509,2.02 -4.509,4.509 0,2.136 1.487,3.913 3.479,4.38 -0.177,1.311 -0.616,2.521 -1.346,3.545 -1.423,2 -3.776,3.092 -6.546,3.014 -3.236,-0.065 -5.596,-1.002 -7.012,-2.78 -0.934,-1.173 -1.367,-2.587 -1.552,-3.892 1.805,-0.588 3.115,-2.266 3.115,-4.267 0,-0.637 -0.135,-1.239 -0.373,-1.789 18.264,-13.651 22.23,-25.863 22.23,-33.879 0,-1.777 -0.745,-2.86 -1.37,-3.456 -0.202,-0.193 -0.417,-0.356 -0.637,-0.501 0.115,-0.457 0.217,-0.926 0.299,-1.405 C 74.582,23.483 72.816,21.086 69.71,20.549 68.658,9.009 65.431,0 49.088,0 32.839,0 29.522,9.009 28.463,20.549 c -3.107,0.537 -4.871,2.934 -4.033,7.848 0.082,0.479 0.183,0.948 0.298,1.406 -0.22,0.144 -0.434,0.308 -0.636,0.5 -0.625,0.596 -1.37,1.679 -1.37,3.456 0,8.016 3.967,20.227 22.23,33.879 z M 58.701,28.291 c 0,1.523 -1.24,2.764 -2.765,2.764 h -1.221 c -1.523,0 -2.764,-1.24 -2.764,-2.764 0,-1.524 1.239,-2.764 2.764,-2.764 h 0.437 c 0.981,0.5 2.03,0.95 3.139,1.335 0.255,0.418 0.41,0.905 0.41,1.429 z M 45.28,17.332 c 0.618,0.818 3.189,4.004 7.317,6.703 -0.697,0.352 -1.299,0.866 -1.751,1.498 h -3.517 c -0.865,-1.21 -2.273,-2.006 -3.87,-2.006 h -1.221 c -2.627,0 -4.764,2.137 -4.764,4.764 0,2.627 2.137,4.764 4.764,4.764 h 1.221 c 2.627,0 4.764,-2.137 4.764,-4.764 0,-0.26 -0.036,-0.51 -0.076,-0.758 h 1.882 c -0.04,0.248 -0.076,0.498 -0.076,0.758 0,2.627 2.137,4.764 4.764,4.764 h 1.221 c 2.627,0 4.765,-2.137 4.765,-4.764 0,-0.261 -0.036,-0.513 -0.077,-0.762 1.113,0.26 2.271,0.454 3.485,0.537 -1.564,10.043 -7.106,17.332 -15.021,17.332 -8.405,0 -14.644,-8.373 -15.36,-20.22 7.607,-1.797 10.528,-5.798 11.55,-7.846 z m 0.944,10.959 c 0,1.523 -1.24,2.764 -2.764,2.764 h -1.221 c -1.523,0 -2.764,-1.24 -2.764,-2.764 0,-1.524 1.24,-2.764 2.764,-2.764 h 1.221 c 1.523,0 2.764,1.241 2.764,2.764 z M 25.887,32.87 c 1.044,1.922 2.587,3.26 4.752,3.46 3.439,9.225 10.407,14.916 18.449,14.916 8.419,0 14.966,-5.914 18.443,-14.916 2.139,-0.187 3.695,-1.525 4.754,-3.468 0.092,0.199 0.169,0.481 0.169,0.896 0,6.045 -2.866,17.963 -21.309,31.678 -0.62,-0.32 -1.312,-0.519 -2.059,-0.519 -0.747,0 -1.438,0.198 -2.059,0.519 C 28.587,51.722 25.721,39.804 25.721,33.759 c 0.001,-0.41 0.077,-0.691 0.166,-0.889 z"
   id="path2"
   inkscape:connector-curvature="0"
   style="fill:#6a6c6c;fill-opacity:1" /><path
   d="m 49.088,63.854 c 9.182,-6.727 14.414,-12.929 17.345,-18.139 -0.096,-0.059 -0.19,-0.12 -0.286,-0.177 -4.423,5.774 -10.496,9.14 -17.056,9.14 -6.688,0 -12.812,-3.334 -17.202,-9.071 -0.005,0.005 -0.011,0.008 -0.019,0.012 -0.044,0.026 -0.087,0.056 -0.131,0.082 2.929,5.218 8.163,11.423 17.349,18.153 z"
   id="path4"
   inkscape:connector-curvature="0"
   style="fill:#18bc9c" /><path
   d="M 83.791,83.722 C 82.955,67.493 78.27,57.212 72.676,50.968 c -1.04,1.706 -2.271,3.464 -3.712,5.265 3.993,4.947 7.849,13.373 8.591,27.812 0.029,0.541 -0.162,0.88 -0.271,1.015 -0.899,0.049 -4.68,0.238 -6.036,0.307 V 79.08 c 0,-0.385 -0.145,-0.73 -0.373,-1.004 -0.338,0.769 -0.73,1.504 -1.21,2.178 -0.459,0.646 -0.983,1.216 -1.54,1.745 v 3.53 l -1.738,1.975 c -1.954,2.219 -6.523,3.721 -12.613,4.232 V 84.54 c -2.33,-0.765 -4.232,-2.048 -5.669,-3.863 -1.443,-1.823 -2.164,-3.876 -2.496,-5.764 -0.437,-0.279 -0.842,-0.603 -1.2,-0.974 V 91.748 C 38.391,91.24 33.796,89.706 31.725,87.429 l -1.67,-1.835 v -6.516 c 0,-0.863 -0.699,-1.562 -1.561,-1.562 -0.863,0 -1.562,0.698 -1.562,1.562 v 6.287 C 25.589,85.299 21.865,85.109 20.896,85.058 20.786,84.923 20.597,84.584 20.625,84.043 21.366,69.696 25.253,61.226 29.227,56.248 27.778,54.44 26.543,52.677 25.5,50.964 19.907,57.216 15.226,67.5 14.386,83.727 c -0.2,3.94 2.447,7.323 5.923,7.555 0.122,0.01 6.795,0.348 6.795,0.348 3.953,4.35 11.814,6.548 21.839,6.548 9.443,0 17.984,-1.839 22.132,-6.548 0,0 6.674,-0.338 6.8,-0.348 3.471,-0.233 6.121,-3.616 5.916,-7.56 z"
   id="path6"
   inkscape:connector-curvature="0"
   style="fill:#18bc9c" />
<g
   id="g12">
</g>
<g
   id="g14">
</g>
<g
   id="g16">
</g>
<g
   id="g18">
</g>
<g
   id="g20">
</g>
<g
   id="g22">
</g>
<g
   id="g24">
</g>
<g
   id="g26">
</g>
<g
   id="g28">
</g>
<g
   id="g30">
</g>
<g
   id="g32">
</g>
<g
   id="g34">
</g>
<g
   id="g36">
</g>
<g
   id="g38">
</g>
<g
   id="g40">
</g>
</svg>