<?xml version="1.0" encoding="UTF-8" standalone="no"?>
<!-- Generator: Adobe Illustrator 16.0.0, SVG Export Plug-In . SVG Version: 6.00 Build 0)  -->

<svg
   xmlns:dc="http://purl.org/dc/elements/1.1/"
   xmlns:cc="http://creativecommons.org/ns#"
   xmlns:rdf="http://www.w3.org/1999/02/22-rdf-syntax-ns#"
   xmlns:svg="http://www.w3.org/2000/svg"
   xmlns="http://www.w3.org/2000/svg"
   xmlns:sodipodi="http://sodipodi.sourceforge.net/DTD/sodipodi-0.dtd"
   xmlns:inkscape="http://www.inkscape.org/namespaces/inkscape"
   version="1.1"
   id="Capa_1"
   x="0px"
   y="0px"
   width="24"
   height="24"
   viewBox="0 0 22.957734 22.957781"
   xml:space="preserve"
   sodipodi:docname="galeno-group.svg"
   inkscape:version="0.92.2 2405546, 2018-03-11"><metadata
   id="metadata57"><rdf:RDF><cc:Work
       rdf:about=""><dc:format>image/svg+xml</dc:format><dc:type
         rdf:resource="http://purl.org/dc/dcmitype/StillImage" /><dc:title></dc:title></cc:Work></rdf:RDF></metadata><defs
   id="defs55">
	

		
		
		
		
		
		
	
			
			
		</defs><sodipodi:namedview
   pagecolor="#ffffff"
   bordercolor="#666666"
   borderopacity="1"
   objecttolerance="10"
   gridtolerance="10"
   guidetolerance="10"
   inkscape:pageopacity="0"
   inkscape:pageshadow="2"
   inkscape:window-width="2560"
   inkscape:window-height="1347"
   id="namedview53"
   showgrid="false"
   inkscape:zoom="20.85965"
   inkscape:cx="4.6525377"
   inkscape:cy="9.3047305"
   inkscape:window-x="0"
   inkscape:window-y="0"
   inkscape:window-maximized="1"
   inkscape:current-layer="Capa_1" />

<g
   id="g22"
   transform="translate(0,-466.80822)">
</g>
<g
   id="g24"
   transform="translate(0,-466.80822)">
</g>
<g
   id="g26"
   transform="translate(0,-466.80822)">
</g>
<g
   id="g28"
   transform="translate(0,-466.80822)">
</g>
<g
   id="g30"
   transform="translate(0,-466.80822)">
</g>
<g
   id="g32"
   transform="translate(0,-466.80822)">
</g>
<g
   id="g34"
   transform="translate(0,-466.80822)">
</g>
<g
   id="g36"
   transform="translate(0,-466.80822)">
</g>
<g
   id="g38"
   transform="translate(0,-466.80822)">
</g>
<g
   id="g40"
   transform="translate(0,-466.80822)">
</g>
<g
   id="g42"
   transform="translate(0,-466.80822)">
</g>
<g
   id="g44"
   transform="translate(0,-466.80822)">
</g>
<g
   id="g46"
   transform="translate(0,-466.80822)">
</g>
<g
   id="g48"
   transform="translate(0,-466.80822)">
</g>
<g
   id="g50"
   transform="translate(0,-466.80822)">
</g>
<g
   id="g868"
   transform="matrix(0.56292304,0,0,0.56292304,5.4899586,27.599763)"><g
     style="fill:#2780e3;fill-opacity:1"
     transform="matrix(0.30937241,0,0,0.30937241,10.099845,-37.797422)"
     id="g855"><circle
       cx="2.7006547"
       cy="4.7362089"
       r="17.218336"
       id="circle4"
       style="fill:#2780e3;fill-opacity:1;stroke-width:0.9565742" /><path
       inkscape:connector-curvature="0"
       d="M 59.138535,71.696403 H -55.650372 a 3.8262968,3.8262968 0 1 1 0,-7.652593 H 59.138535 a 3.8262968,3.8262968 0 0 1 0,7.652593 z"
       id="path6"
       style="fill:#2780e3;fill-opacity:1;stroke-width:0.9565742" /><path
       inkscape:connector-curvature="0"
       d="M 31.397881,48.738622 A 23.024741,23.024741 0 0 0 8.4401001,25.780841 H -2.0822159 A 23.024741,23.024741 0 0 0 -25.039997,48.738622 v 11.478891 h 56.437878 z"
       id="path8"
       style="fill:#2780e3;fill-opacity:1;stroke-width:0.9565742" /><circle
       cx="37.089493"
       cy="10.580878"
       r="15.410411"
       id="circle10"
       style="fill:#2780e3;fill-opacity:1;stroke-width:0.9565742" /><path
       inkscape:connector-curvature="0"
       d="m 42.226305,29.406258 h -9.450957 a 1.779228,1.779228 0 0 0 -1.425295,2.793196 c 2.439264,3.644548 4.830699,8.016092 4.830699,12.712872 v 15.305187 h 22.756903 a 3.8262968,3.8262968 0 0 0 3.82629,-3.826297 v -6.44731 A 20.604608,20.604608 0 0 0 42.226305,29.406258 Z"
       id="path12"
       style="fill:#2780e3;fill-opacity:1;stroke-width:0.9565742" /><circle
       cx="-34.653568"
       cy="10.580878"
       r="15.410411"
       id="circle14"
       style="fill:#2780e3;fill-opacity:1;stroke-width:0.9565742" /><path
       inkscape:connector-curvature="0"
       d="m -29.822868,44.912326 c 0,-4.543728 2.295778,-8.790917 4.591556,-12.358939 a 1.9131484,1.9131484 0 0 0 -1.358335,-2.946249 20.24111,20.24111 0 0 0 -2.927117,-0.210446 h -9.422256 a 20.604608,20.604608 0 0 0 -20.537648,20.547214 v 6.44731 a 3.8262968,3.8262968 0 0 0 3.826296,3.826297 h 25.827504 z"
       id="path16"
       style="fill:#2780e3;fill-opacity:1;stroke-width:0.9565742" /></g></g></svg>