<?xml version="1.0" encoding="iso-8859-1"?>
<!-- Generator: Adobe Illustrator 22.1.0, SVG Export Plug-In . SVG Version: 6.00 Build 0)  -->
<svg xmlns="http://www.w3.org/2000/svg" xmlns:xlink="http://www.w3.org/1999/xlink" version="1.1" id="Layer_1_1_" x="0px" y="0px" viewBox="0 0 64 64" style="enable-background:new 0 0 64 64;" xml:space="preserve" width="512" height="512">
<g>
	<g>
		<path style="fill:#CCD1D9;" d="M61,6h-6l-2,3l2,3h6c-1.18,2.36-3.71,4-6.64,4c-2.3,0-4.34-1-5.69-2.57    C47.9,12.53,46.8,12,45.61,12H5c-0.83,0-1.58-0.34-2.12-0.88S2,9.83,2,9c0-1.66,1.34-3,3-3h40.61c1.19,0,2.29-0.53,3.06-1.43    C50.02,3,52.06,2,54.36,2C57.29,2,59.82,3.64,61,6z"/>
		<path style="fill:#838F9B;" d="M58,54c2.21,0,4,1.79,4,4c0,1.1-0.45,2.1-1.17,2.83C60.1,61.55,59.1,62,58,62h-4v-8H58z"/>
		<polygon style="fill:#FFEAA7;" points="40,54 40,62 36,62 36,60 36,56 36,54   "/>
		<rect x="40" y="54" style="fill:#AAB2BD;" width="14" height="8"/>
		<polygon style="fill:#CCD1D9;" points="36,56 36,60 16,60 14,61 6,61 6,55 14,55 16,56   "/>
		<circle style="fill:#B4DD7F;" cx="55" cy="24" r="4"/>
		<path style="fill:#B4DD7F;" d="M9.49,43.89C10.18,43.34,11.05,43,12,43c2.21,0,4,1.79,4,4s-1.79,4-4,4s-4-1.79-4-4    C8,45.74,8.58,44.62,9.49,43.89z"/>
		<path style="fill:#FCD770;" d="M49,30v6l-2.42,0.48c-0.38,1.57-0.99,3.03-1.81,4.36l1.37,2.06l-4.24,4.24l-2.06-1.37    c-1.33,0.82-2.79,1.43-4.36,1.81L35,50h-6l-0.48-2.42c-1.57-0.38-3.03-0.99-4.36-1.81l-2.06,1.37l-4.24-4.24l1.37-2.06    c-0.82-1.33-1.43-2.79-1.81-4.36L15,36v-6l2.42-0.48c0.38-1.57,0.99-3.03,1.81-4.36l-1.37-2.06l4.24-4.24l2.06,1.37    c1.33-0.82,2.79-1.43,4.36-1.81L29,16h6l0.48,2.42c1.57,0.38,3.03,0.99,4.36,1.81l2.06-1.37l4.24,4.24l-1.37,2.06    c0.82,1.33,1.43,2.79,1.81,4.36L49,30z M42,33c0-5.52-4.48-10-10-10s-10,4.48-10,10s4.48,10,10,10S42,38.52,42,33z"/>
	</g>
	<g>
		<path d="M58,53H35v2H16.236l-2-1H5v8h9.236l2-1H35v2h23c2.757,0,5-2.243,5-5S60.757,53,58,53z M15.764,59l-2,1H7v-4h6.764l2,1H35    v2H15.764z M37,55h16v6H41v-4h-2v4h-2V55z M58,61h-3v-6h3c1.654,0,3,1.346,3,3S59.654,61,58,61z"/>
		<path d="M45.615,13c0.869,0,1.706,0.394,2.296,1.081C49.505,15.936,51.855,17,54.359,17c3.194,0,6.152-1.787,7.536-4.553    L62.619,11h-7.083l-1.333-2l1.333-2h7.083l-0.724-1.447C60.511,2.787,57.553,1,54.359,1c-2.503,0-4.854,1.064-6.448,2.919    C47.321,4.606,46.484,5,45.615,5H5C2.794,5,1,6.794,1,9s1.794,4,4,4H45.615z M3,9c0-1.103,0.897-2,2-2h40.615    c1.453,0,2.843-0.647,3.813-1.777C50.642,3.81,52.439,3,54.359,3c1.82,0,3.536,0.751,4.727,2h-4.621l-2.667,4l2.667,4h4.621    c-1.19,1.249-2.906,2-4.727,2c-1.92,0-3.717-0.81-4.931-2.223C48.458,11.647,47.068,11,45.615,11H5C3.897,11,3,10.103,3,9z"/>
		<path d="M23,33c0-4.962,4.038-9,9-9c2.103,0,4.149,0.742,5.763,2.09l1.282-1.535C37.072,22.908,34.57,22,32,22    c-6.065,0-11,4.935-11,11c0,2.57,0.908,5.072,2.555,7.045l1.535-1.282C23.742,37.149,23,35.103,23,33z"/>
		<path d="M38.91,27.237C40.258,28.852,41,30.898,41,33c0,4.962-4.038,9-9,9c-2.103,0-4.149-0.742-5.763-2.09l-1.282,1.535    C26.928,43.092,29.43,44,32,44c6.065,0,11-4.935,11-11c0-2.57-0.907-5.072-2.555-7.045L38.91,27.237z"/>
		<path d="M50,36.82v-7.64l-2.613-0.523c-0.34-1.207-0.822-2.368-1.437-3.464l1.479-2.22l-5.402-5.402l-2.22,1.479    c-1.097-0.615-2.257-1.097-3.464-1.437L35.82,15h-7.64l-0.523,2.613c-1.207,0.34-2.368,0.822-3.464,1.437l-2.22-1.479    l-5.402,5.402l1.479,2.22c-0.615,1.097-1.097,2.257-1.437,3.464L14,29.18v7.64l2.613,0.523c0.34,1.207,0.822,2.368,1.437,3.464    l-1.479,2.22l5.402,5.402l2.22-1.479c1.097,0.615,2.257,1.097,3.464,1.437L28.18,51h7.64l0.523-2.613    c1.207-0.34,2.368-0.822,3.464-1.437l2.22,1.479l5.402-5.402l-1.479-2.22c0.615-1.097,1.097-2.257,1.437-3.464L50,36.82z     M45.752,35.63l-0.148,0.623c-0.342,1.435-0.91,2.802-1.686,4.064l-0.336,0.545l1.273,1.91l-3.083,3.083l-1.91-1.273l-0.545,0.336    c-1.262,0.776-2.629,1.343-4.064,1.686l-0.623,0.148L34.18,49h-4.36l-0.45-2.248l-0.623-0.148    c-1.435-0.342-2.802-0.91-4.064-1.686l-0.545-0.336l-1.91,1.273l-3.083-3.083l1.273-1.91l-0.336-0.545    c-0.776-1.262-1.343-2.629-1.686-4.064l-0.148-0.623L16,35.18v-4.36l2.248-0.45l0.148-0.623c0.342-1.435,0.91-2.802,1.686-4.064    l0.336-0.545l-1.273-1.91l3.083-3.083l1.91,1.273l0.545-0.336c1.262-0.776,2.629-1.343,4.064-1.686l0.623-0.148L29.82,17h4.36    l0.45,2.248l0.623,0.148c1.435,0.342,2.802,0.91,4.064,1.686l0.545,0.336l1.91-1.273l3.083,3.083l-1.273,1.91l0.336,0.545    c0.776,1.262,1.343,2.629,1.686,4.064l0.148,0.623L48,30.82v4.36L45.752,35.63z"/>
		<path d="M60,24c0-2.757-2.243-5-5-5s-5,2.243-5,5s2.243,5,5,5c0.223,0,0.435-0.037,0.65-0.066C55.878,30.272,56,31.635,56,33    c0,6.577-2.608,12.714-7.345,17.281l1.388,1.439C55.174,46.774,58,40.125,58,33c0-1.588-0.152-3.176-0.437-4.73    C59.016,27.395,60,25.817,60,24z M55,27c-1.654,0-3-1.346-3-3s1.346-3,3-3s3,1.346,3,3S56.654,27,55,27z"/>
		<path d="M12,52c2.757,0,5-2.243,5-5s-2.243-5-5-5c-0.737,0-1.431,0.17-2.062,0.457C8.654,39.472,8,36.297,8,33    c0-6.074,2.274-11.87,6.403-16.32l-1.466-1.36C8.463,20.141,6,26.42,6,33c0,3.729,0.778,7.314,2.296,10.672    C7.499,44.558,7,45.718,7,47C7,49.757,9.243,52,12,52z M15,47c0,1.654-1.346,3-3,3s-3-1.346-3-3s1.346-3,3-3S15,45.346,15,47z"/>
	</g>
</g>
</svg>
