<?xml version="1.0" encoding="UTF-8" standalone="no"?>
<svg
   xmlns:dc="http://purl.org/dc/elements/1.1/"
   xmlns:cc="http://creativecommons.org/ns#"
   xmlns:rdf="http://www.w3.org/1999/02/22-rdf-syntax-ns#"
   xmlns:svg="http://www.w3.org/2000/svg"
   xmlns="http://www.w3.org/2000/svg"
   xmlns:sodipodi="http://sodipodi.sourceforge.net/DTD/sodipodi-0.dtd"
   xmlns:inkscape="http://www.inkscape.org/namespaces/inkscape"
   version="1.1"
   viewBox="0 0 297 297"
   enable-background="new 0 0 297 297"
   width="512px"
   height="512px"
   id="svg16"
   sodipodi:docname="galeno_admin.svg"
   inkscape:version="0.92.2 2405546, 2018-03-11">
  <metadata
     id="metadata22">
    <rdf:RDF>
      <cc:Work
         rdf:about="">
        <dc:format>image/svg+xml</dc:format>
        <dc:type
           rdf:resource="http://purl.org/dc/dcmitype/StillImage" />
      </cc:Work>
    </rdf:RDF>
  </metadata>
  <defs
     id="defs20" />
  <sodipodi:namedview
     pagecolor="#ffffff"
     bordercolor="#666666"
     borderopacity="1"
     objecttolerance="10"
     gridtolerance="10"
     guidetolerance="10"
     inkscape:pageopacity="0"
     inkscape:pageshadow="2"
     inkscape:window-width="2485"
     inkscape:window-height="1399"
     id="namedview18"
     showgrid="false"
     inkscape:zoom="1.3037281"
     inkscape:cx="364.61294"
     inkscape:cy="272.29827"
     inkscape:window-x="75"
     inkscape:window-y="0"
     inkscape:window-maximized="1"
     inkscape:current-layer="svg16" />
  <path
     inkscape:connector-curvature="0"
     style="fill:#6a6c6c;fill-opacity:1;stroke-width:0.61813021"
     id="path4"
     d="m 76.262888,37.211042 c -1.95123,-1.936826 -5.11254,-1.936826 -7.06378,0 -1.95062,1.938059 -1.95062,5.078625 0,7.016067 l 8.92509,8.864184 C 45.320927,54.704699 18.767702,80.296803 15.894183,112.54274 l 0.738072,-1.27027 c 2.112499,-3.63462 6.05095,-5.89241 10.277187,-5.89179 0.08931,0 0.178006,0.008 0.267319,0.0105 5.627954,-23.237585 26.027891,-40.813175 50.743997,-42.339719 l -8.72165,8.662123 c -1.95062,1.937442 -1.95062,5.078625 0,7.016067 0.97562,0.968413 2.25329,1.45262 3.53158,1.45262 1.27829,0 2.55658,-0.484207 3.53158,-1.45262 l 17.36888,-17.251553 c 0.93655,-0.930835 1.4625,-2.192483 1.4625,-3.507726 0,-1.315859 -0.52595,-2.577507 -1.4625,-3.507725 z" />
  <path
     inkscape:connector-curvature="0"
     style="fill:#6a6c6c;fill-opacity:1;stroke-width:0.95829892"
     id="path6"
     d="m 222.03342,74.687248 c 17.19351,0 31.18121,-13.893211 31.18121,-30.970581 0,-17.078325 -13.9877,-30.971536 -31.18121,-30.971536 -17.19352,0 -31.18121,13.893211 -31.18121,30.970581 0,17.07737 13.98769,30.971536 31.18121,30.971536 z" />
  <path
     inkscape:connector-curvature="0"
     style="fill:#6a6c6c;fill-opacity:1;stroke-width:0.95829892"
     id="path8"
     d="m 282.77562,151.50328 v -42.57643 c 0,-11.785399 -7.6251,-22.236581 -18.90123,-25.904954 l -0.0519,-0.01719 -16.49254,-2.712361 c -1.40387,-0.42882 -2.90389,0.309439 -3.4087,1.68472 L 225.2075,132.97614 c -1.07982,2.94253 -5.2693,2.94253 -6.34817,0 L 200.14561,81.977064 c -0.4077,-1.110731 -1.46349,-1.806967 -2.59427,-1.806967 -0.26827,0 -17.30698,2.830788 -17.30698,2.830788 -11.36843,3.762924 -18.96469,14.230346 -18.96469,26.067315 v 42.43508 c 0,6.35973 5.19046,11.51417 11.59247,11.51417 h 98.31005 c 6.40394,0 11.59343,-5.1554 11.59343,-11.51417 z" />
  <path
     inkscape:connector-curvature="0"
     style="fill:#6a6c6c;fill-opacity:1;stroke-width:0.95829892"
     id="path12"
     d="m 228.82967,79.710715 c -0.71828,-0.777417 -1.76926,-1.16899 -2.83274,-1.16899 h -7.92799 c -1.06252,0 -2.11349,0.391573 -2.83273,1.16899 -1.11252,1.204326 -1.27406,2.943485 -0.48463,4.30253 l 4.23756,6.345397 -1.98368,16.622758 3.90679,10.32225 c 0.38077,1.03815 1.85868,1.03815 2.24041,0 l 3.90679,-10.32225 -1.98368,-16.622758 4.23756,-6.345397 c 0.79039,-1.359045 0.62885,-3.098204 -0.48366,-4.30253 z" />
  <g
     id="g846"
     transform="matrix(1.3738577,0,0,1.3738577,-3.2086041,-93.07066)">
    <path
       d="m 107.62386,189.94624 6.61548,-3.79348 c 2.69619,-1.54624 3.62024,-4.97107 2.06349,-7.65001 l -12.53479,-21.56422 c -1.04425,-1.79646 -2.93947,-2.80118 -4.887573,-2.80118 -0.95675,0 -1.92599,0.24162 -2.81351,0.75163 l -6.615474,3.79348 c -0.908666,0.52051 -1.872142,0.75832 -2.810616,0.75832 -2.945234,0 -5.646234,-2.33894 -5.646234,-5.6081 v -7.58697 c 0,-3.09247 -2.524074,-5.60045 -5.638542,-5.60045 H 50.285544 c -3.113506,0 -5.638541,2.50702 -5.638541,5.60045 v 7.58697 c 0,3.26916 -2.701962,5.6081 -5.646234,5.6081 -0.938475,0 -1.90195,-0.23781 -2.810617,-0.75832 l -6.615478,-3.79348 c -0.887513,-0.50905 -1.857719,-0.75068 -2.813502,-0.75163 -1.949066,0 -3.843323,1.00472 -4.887569,2.80118 L 9.3388097,178.50275 c -1.556753,2.67894 -0.632701,6.10377 2.0634913,7.65001 l 6.615478,3.79348 c 3.758707,2.15557 3.758707,7.544 0,9.69956 l -6.615478,3.79349 c -2.6971543,1.54623 -3.6202443,4.97107 -2.0634913,7.65 l 12.5347933,21.56423 c 1.044246,1.79646 2.939465,2.80118 4.887569,2.80118 0.956745,0 1.925989,-0.24259 2.813502,-0.75163 l 6.615478,-3.79349 c 0.908667,-0.5205 1.872142,-0.75831 2.810617,-0.75831 2.945234,0 5.646234,2.33893 5.646234,5.60809 v 7.58697 c 0,3.09248 2.524074,5.60046 5.638541,5.60046 H 75.35513 c 3.113505,0 5.638541,-2.50703 5.638541,-5.60046 v -7.58697 c 0,-3.26916 2.701962,-5.60809 5.646234,-5.60809 0.938475,0 1.90195,0.23781 2.810617,0.75831 l 6.615475,3.79349 c 0.88752,0.50904 1.85772,0.75163 2.8135,0.75163 1.949073,0 3.843333,-1.00472 4.887573,-2.80118 l 12.5348,-21.56423 c 1.55675,-2.67893 0.6327,-6.10377 -2.06349,-7.65 l -6.61548,-3.79349 c -3.75775,-2.15556 -3.75775,-7.54495 9.6e-4,-9.69956 z m -44.802562,21.46395 c -9.238592,0 -16.72716,-7.43894 -16.72716,-16.61417 0,-9.17618 7.48953,-16.61417 16.72716,-16.61417 9.237631,0 16.72716,7.43894 16.72716,16.61417 0,9.17523 -7.489529,16.61417 -16.72716,16.61417 z"
       id="path2"
       style="fill:#6a6c6c;fill-opacity:1;stroke-width:0.95829892"
       inkscape:connector-curvature="0" />
    <path
       style="fill:#18bc9c;stroke-width:0.87598234"
       inkscape:connector-curvature="0"
       d="m 101.3165,191.72336 6.02676,-3.4794 c 2.45625,-1.41821 3.29807,-4.55948 1.87985,-7.01661 L 97.803818,161.44854 c -0.95131,-1.64772 -2.677876,-2.56926 -4.452618,-2.56926 -0.871599,0 -1.754593,0.22163 -2.563129,0.6894 l -6.026754,3.47941 c -0.827804,0.4774 -1.705538,0.69553 -2.560496,0.69553 -2.683135,0 -5.143769,-2.14529 -5.143769,-5.14377 v -6.95881 c 0,-2.83642 -2.299453,-5.13676 -5.13676,-5.13676 H 49.080805 c -2.836432,0 -5.136761,2.29945 -5.136761,5.13676 v 6.95881 c 0,2.99848 -2.46151,5.14377 -5.143768,5.14377 -0.854959,0 -1.732693,-0.21813 -2.560497,-0.69553 l -6.026757,-3.47941 c -0.808532,-0.4669 -1.692398,-0.68852 -2.563125,-0.6894 -1.775616,0 -3.501301,0.92154 -4.452618,2.56926 l -11.419305,19.77881 c -1.418216,2.45713 -0.576397,5.5984 1.879858,7.01661 l 6.026758,3.4794 c 3.424215,1.9771 3.424215,6.91939 0,8.89649 l -6.026758,3.47939 c -2.457131,1.41822 -3.298074,4.55949 -1.879858,7.01662 l 11.419305,19.77881 c 0.951317,1.64772 2.677878,2.56926 4.452618,2.56926 0.871603,0 1.754593,-0.2225 2.563125,-0.6894 l 6.026757,-3.47941 c 0.827804,-0.4774 1.705538,-0.69553 2.560497,-0.69553 2.683134,0 5.143768,2.14529 5.143768,5.14377 v 6.95881 c 0,2.83642 2.299454,5.13676 5.136761,5.13676 h 22.838611 c 2.83643,0 5.13676,-2.29945 5.13676,-5.13676 v -6.95881 c 0,-2.99848 2.46151,-5.14377 5.143768,-5.14377 0.854959,0 1.732694,0.21813 2.560496,0.69553 l 6.026759,3.47941 c 0.808527,0.4669 1.692402,0.6894 2.56312,0.6894 1.775623,0 3.501308,-0.92154 4.452619,-2.56926 l 11.419302,-19.77881 c 1.41822,-2.45713 0.5764,-5.5984 -1.87985,-7.01662 l -6.02677,-3.47939 c -3.423322,-1.9771 -3.423322,-6.92027 8.8e-4,-8.89649 z m -40.815514,19.68683 c -8.416438,0 -15.238588,-6.82303 -15.238588,-15.23859 0,-8.41643 6.823026,-15.23858 15.238588,-15.23858 8.415563,0 15.238589,6.82303 15.238589,15.23858 0,8.41556 -6.823026,15.23859 -15.238589,15.23859 z"
       id="path2-6" />
  </g>
  <path
     id="path4-7"
     d="m 76.178018,38.829923 c -1.89703,-1.895822 -4.97051,-1.895822 -6.86754,0 -1.89642,1.897028 -1.89642,4.971107 0,6.867532 l 8.67713,8.676523 C 46.095704,55.953228 20.280198,81.003529 17.486514,112.5668 l 0.717566,-1.24338 c 2.053808,-3.55768 5.882838,-5.76766 9.991659,-5.76706 0.08683,0 0.173061,0.008 0.259892,0.0103 5.471594,-22.745656 25.304767,-39.94916 49.334197,-41.443387 l -8.47935,8.47874 c -1.89642,1.896426 -1.89642,4.971107 0,6.867533 0.94852,0.94791 2.1907,1.421866 3.43347,1.421866 1.24278,0 2.48555,-0.473956 3.43346,-1.421866 l 16.88633,-16.886327 c 0.91053,-0.911129 1.42187,-2.146066 1.42187,-3.433465 0,-1.288001 -0.51134,-2.522939 -1.42187,-3.433464 z"
     inkscape:connector-curvature="0"
     style="fill:#18bc9c;stroke-width:0.60299695" />
  <g
     id="g842"
     transform="matrix(0.64640091,0,0,0.64640091,56.208732,102.76042)">
    <path
       d="m 283.65243,162.5712 c -0.64713,8.80085 -7.91646,14.19024 -16.77909,14.82821 -6.79048,38.60817 -39.62267,68.42027 -79.78863,70.90055 l 13.52039,-13.42905 c 3.02408,-3.00461 3.02408,-7.87349 0,-10.87714 -3.02505,-3.0027 -7.92608,-3.0027 -10.95112,0 l -26.92634,26.74541 c -3.02408,3.00461 -3.02408,7.87349 0,10.87714 l 26.92634,26.74445 c 1.51252,1.50135 3.49332,2.25203 5.47508,2.25203 1.98176,0 3.96351,-0.75068 5.47507,-2.25203 3.02409,-3.00365 3.02409,-7.87348 0,-10.87714 l -13.83577,-13.74231 c 53.87384,-2.64933 96.88407,-47.01458 96.88407,-101.17012 z"
       id="path10"
       style="fill:#6a6c6c;fill-opacity:1;stroke-width:0.95829892"
       inkscape:connector-curvature="0" />
    <path
       style="fill:#18bc9c;stroke-width:0.93483758"
       inkscape:connector-curvature="0"
       d="m 278.73198,162.26498 c -0.62915,8.61452 -7.69652,13.88981 -16.31292,14.51428 -6.60182,37.79081 -38.52185,66.97177 -77.57189,69.39954 l 13.14475,-13.14475 c 2.94007,-2.941 2.94007,-7.7068 0,-10.64686 -2.94099,-2.93913 -7.70586,-2.93913 -10.64686,0 l -26.17826,26.17919 c -2.94006,2.941 -2.94006,7.7068 0,10.64686 l 26.17826,26.17826 c 1.4705,1.46956 3.39626,2.20435 5.32296,2.20435 1.9267,0 3.8534,-0.73479 5.32297,-2.20435 2.94006,-2.94007 2.94006,-7.7068 0,-10.64687 l -13.45138,-13.45137 c 52.37708,-2.59324 94.19237,-46.01925 94.19237,-99.02828 z"
       id="path10-5" />
  </g>
</svg>
