<?xml version="1.0" encoding="UTF-8" standalone="no"?>
<!-- Created with Inkscape (http://www.inkscape.org/) -->

<svg
   xmlns:dc="http://purl.org/dc/elements/1.1/"
   xmlns:cc="http://creativecommons.org/ns#"
   xmlns:rdf="http://www.w3.org/1999/02/22-rdf-syntax-ns#"
   xmlns:svg="http://www.w3.org/2000/svg"
   xmlns="http://www.w3.org/2000/svg"
   xmlns:sodipodi="http://sodipodi.sourceforge.net/DTD/sodipodi-0.dtd"
   xmlns:inkscape="http://www.inkscape.org/namespaces/inkscape"
   width="100mm"
   height="100mm"
   viewBox="0 0 100 100"
   version="1.1"
   id="svg1461"
   inkscape:version="0.92.2 2405546, 2018-03-11"
   sodipodi:docname="galeno.svg">
  <defs
     id="defs1455">
    <filter
       inkscape:collect="always"
       style="color-interpolation-filters:sRGB"
       id="filter1420"
       x="-0.012272707"
       width="1.0245454"
       y="-0.011739149"
       height="1.0234783">
      <feGaussianBlur
         inkscape:collect="always"
         stdDeviation="0.2510061"
         id="feGaussianBlur1422" />
    </filter>
  </defs>
  <sodipodi:namedview
     id="base"
     pagecolor="#ffffff"
     bordercolor="#666666"
     borderopacity="1.0"
     inkscape:pageopacity="0.0"
     inkscape:pageshadow="2"
     inkscape:zoom="1.979899"
     inkscape:cx="196.15497"
     inkscape:cy="243.65317"
     inkscape:document-units="mm"
     inkscape:current-layer="layer1"
     showgrid="false"
     inkscape:window-width="2485"
     inkscape:window-height="1399"
     inkscape:window-x="75"
     inkscape:window-y="0"
     inkscape:window-maximized="1" />
  <metadata
     id="metadata1458">
    <rdf:RDF>
      <cc:Work
         rdf:about="">
        <dc:format>image/svg+xml</dc:format>
        <dc:type
           rdf:resource="http://purl.org/dc/dcmitype/StillImage" />
        <dc:title></dc:title>
      </cc:Work>
    </rdf:RDF>
  </metadata>
  <g
     inkscape:label="Capa 1"
     inkscape:groupmode="layer"
     id="layer1"
     transform="translate(0,-197)">
    <path
       inkscape:connector-curvature="0"
       id="path300"
       style="fill:#646665;fill-opacity:1;fill-rule:nonzero;stroke:none;stroke-width:0.14979635"
       d="m 82.172141,224.86271 1.148938,-2.13909 c 1.145943,-1.72266 0.423924,-4.01604 -1.292742,-5.01219 l -4.723079,-2.7233 c 1.005134,-0.71902 1.719662,-1.43055 2.435689,-2.5735 2.002777,-3.58163 0.858333,-8.3062 -2.865605,-10.31048 -3.577136,-2.15107 -8.159407,-0.85833 -10.30449,2.71731 -0.578214,1.15043 -0.864325,2.29338 -1.006632,3.43932 l -6.300434,-3.72394 c -1.716667,-1.00213 -4.010049,-0.42841 -5.010688,1.43505 l -1.286751,2.14059 -8.021594,-4.72457 c -2.861111,-1.71817 -6.585048,-0.71154 -8.301714,2.14957 L 5.856893,258.80207 c -1.5728617,2.86111 -0.5707241,6.59104 2.2888882,8.30621 l 45.3912898,26.20237 c 2.86111,1.56987 6.442741,0.57372 8.159407,-2.29188 l 30.784648,-53.40839 c 1.722658,-2.7218 0.716027,-6.44274 -2.145083,-8.0216 l -8.163902,-4.72607" />
    <path
       inkscape:connector-curvature="0"
       id="path302"
       style="fill:#18bc9c;fill-opacity:0.98431373;fill-rule:nonzero;stroke:none;stroke-width:0.1;filter:url(#filter1420)"
       d="m 290.987,265.511 v 0 c -0.573,-1.051 -1.818,-1.341 -2.868,-0.768 l -26.479,15.296 c -1.051,0.576 -1.337,1.913 -0.764,2.868 l 18.355,31.83 c 0.668,0.955 1.91,1.337 2.865,0.765 l 3.537,-2.01 c -0.573,-1.047 -0.191,-2.292 0.672,-2.864 l 15.961,-9.178 c 0.955,-0.573 2.295,-0.286 2.772,0.768 l 3.537,-2.01 c 1.051,-0.572 1.432,-1.816 0.764,-2.867 l -18.352,-31.83"
       transform="matrix(1.4979635,0,0,-1.4979635,-377.91087,682.87254)" />
    <path
       inkscape:connector-curvature="0"
       id="path304"
       style="fill:#ffffff;fill-opacity:1;fill-rule:nonzero;stroke:none;stroke-width:0.14979635"
       d="m 69.288157,206.39582 v 0 c 1.286751,-2.28739 4.010049,-3.00791 6.15663,-1.71667 2.145084,1.29274 2.865605,4.00406 1.572862,6.30043 -0.714529,1.14744 -1.858973,1.85748 -3.003417,2.14359 l -5.15599,-3.00342 c -0.428418,-1.14893 -0.284613,-2.57799 0.429915,-3.72393 v 0" />
    <path
       inkscape:connector-curvature="0"
       id="path306"
       style="fill:#ffffff;fill-opacity:1;fill-rule:nonzero;stroke:none;stroke-width:0.14979635"
       d="m 49.527023,263.95656 v 0 c -9.020736,0 -16.32181,-7.15877 -16.32181,-16.1795 0,-9.02224 7.301074,-16.32181 16.32181,-16.32181 8.87843,0 16.179504,7.29957 16.179504,16.32181 0,9.02073 -7.301074,16.1795 -16.179504,16.1795 v 0" />
    <path
       inkscape:connector-curvature="0"
       id="path308"
       style="fill:#646665;fill-opacity:1;fill-rule:nonzero;stroke:none;stroke-width:0.14979635"
       d="m 49.527023,225.29862 v 0 c -12.311762,0 -22.334636,10.02287 -22.334636,22.47844 0,12.31775 10.022874,22.47844 22.334636,22.47844 12.317754,0 22.340628,-10.16069 22.340628,-22.47844 0,-12.45557 -10.022874,-22.47844 -22.340628,-22.47844 v 0" />
    <path
       inkscape:connector-curvature="0"
       id="path52-3"
       style="fill:#18bc9c;fill-opacity:0.98431373;fill-rule:nonzero;stroke:none;stroke-width:0.04039919"
       d="m 42.227438,247.96837 v 0 l 1.583245,-5.86959 h 1.38852 l 2.743106,10.23311 1.003516,-3.82379 0.696482,-0.53973 h 2.623525 l 1.583244,-5.86959 h 1.391753 l 1.58284,5.86959 h 4.558242 c 0.308246,-1.00311 0.499738,-2.08581 0.499738,-3.20648 0,-4.20758 -3.243247,-7.60677 -7.220953,-7.60677 -2.083387,0 -4.014872,0.96595 -5.329462,2.43486 -1.311358,-1.46891 -3.203253,-2.43486 -5.289468,-2.43486 -3.977705,0 -7.258524,3.39919 -7.258524,7.60677 0,1.12067 0.231891,2.20337 0.540541,3.20648 h 4.903655" />
    <path
       inkscape:connector-curvature="0"
       id="path54-6"
       style="fill:#18bc9c;fill-opacity:0.98431373;fill-rule:nonzero;stroke:none;stroke-width:0.04039919"
       d="m 56.243537,249.43567 h 4.557838 c -3.051352,6.56527 -11.470141,10.81204 -11.470141,10.81204 0,0 -8.378391,-4.24677 -11.43055,-10.81204 h 4.866487 l 0.694463,-0.54135 1.043511,-3.82216 2.743106,10.23432 h 1.38852 l 1.583245,-5.87081 h 2.588781 l 0.694462,-0.54135 1.003112,-3.82216 1.042704,3.82216 0.694462,0.54135" />
  </g>
</svg>
