<?xml version="1.0" encoding="UTF-8" standalone="no"?>
<svg
   xmlns:dc="http://purl.org/dc/elements/1.1/"
   xmlns:cc="http://creativecommons.org/ns#"
   xmlns:rdf="http://www.w3.org/1999/02/22-rdf-syntax-ns#"
   xmlns:svg="http://www.w3.org/2000/svg"
   xmlns="http://www.w3.org/2000/svg"
   xmlns:sodipodi="http://sodipodi.sourceforge.net/DTD/sodipodi-0.dtd"
   xmlns:inkscape="http://www.inkscape.org/namespaces/inkscape"
   version="1.1"
   viewBox="0 0 297 297"
   enable-background="new 0 0 297 297"
   width="512px"
   height="512px"
   id="svg16"
   sodipodi:docname="galeno_config.svg"
   inkscape:version="0.92.2 2405546, 2018-03-11">
  <metadata
     id="metadata22">
    <rdf:RDF>
      <cc:Work
         rdf:about="">
        <dc:format>image/svg+xml</dc:format>
        <dc:type
           rdf:resource="http://purl.org/dc/dcmitype/StillImage" />
      </cc:Work>
    </rdf:RDF>
  </metadata>
  <defs
     id="defs20" />
  <sodipodi:namedview
     pagecolor="#ffffff"
     bordercolor="#666666"
     borderopacity="1"
     objecttolerance="10"
     gridtolerance="10"
     guidetolerance="10"
     inkscape:pageopacity="0"
     inkscape:pageshadow="2"
     inkscape:window-width="2560"
     inkscape:window-height="1347"
     id="namedview18"
     showgrid="false"
     inkscape:zoom="1.3037281"
     inkscape:cx="107.87364"
     inkscape:cy="272.29827"
     inkscape:window-x="0"
     inkscape:window-y="0"
     inkscape:window-maximized="1"
     inkscape:current-layer="svg16" />
  <g
     transform="matrix(2.7602741,0,0,2.7602741,11.262979,-2620.4059)"
     id="g4"
     style="fill:#2780e3;fill-opacity:1">
    <path
       inkscape:connector-curvature="0"
       style="fill:#2780e3;fill-opacity:1;stroke-width:0"
       d="M 25,5 C 13.92,5 5,13.92 5,25 v 50 c 0,11.08 8.92,20 20,20 H 75 C 86.08,95 95,86.08 95,75 V 25 C 95,13.92 86.08,5 75,5 Z m 0,15 c 2.77,0 5,2.23 5,5 V 41.349609 A 10,10 0 0 0 25,40 10,10 0 0 0 20,41.355469 V 25 c 0,-2.77 2.23,-5 5,-5 z m 25,0 c 2.77,0 5,2.23 5,5 v 6.349609 A 10,10 0 0 0 50,30 10,10 0 0 0 45,31.355469 V 25 c 0,-2.77 2.23,-5 5,-5 z m 25,0 c 2.77,0 5,2.23 5,5 V 51.349609 A 10,10 0 0 0 75,50 10,10 0 0 0 70,51.355469 V 25 c 0,-2.77 2.23,-5 5,-5 z M 50,35 a 5,5 0 0 1 5,5 5,5 0 0 1 -5,5 5,5 0 0 1 -5,-5 5,5 0 0 1 5,-5 z M 25,45 a 5,5 0 0 1 5,5 5,5 0 0 1 -5,5 5,5 0 0 1 -5,-5 5,5 0 0 1 5,-5 z m 30,3.644531 V 75 c 0,2.77 -2.23,5 -5,5 -2.77,0 -5,-2.23 -5,-5 V 48.650391 A 10,10 0 0 0 50,50 10,10 0 0 0 55,48.644531 Z M 75,55 a 5,5 0 0 1 5,5 5,5 0 0 1 -5,5 5,5 0 0 1 -5,-5 5,5 0 0 1 5,-5 z M 30,58.644531 V 75 c 0,2.77 -2.23,5 -5,5 -2.77,0 -5,-2.23 -5,-5 V 58.650391 A 10,10 0 0 0 25,60 10,10 0 0 0 30,58.644531 Z m 50,10 V 75 c 0,2.77 -2.23,5 -5,5 -2.77,0 -5,-2.23 -5,-5 V 68.650391 A 10,10 0 0 0 75,70 10,10 0 0 0 80,68.644531 Z"
       transform="translate(0,952.36218)"
       id="path2" />
  </g>
</svg>
