<?xml version="1.0" encoding="UTF-8" standalone="no"?>
<svg
   xmlns:dc="http://purl.org/dc/elements/1.1/"
   xmlns:cc="http://creativecommons.org/ns#"
   xmlns:rdf="http://www.w3.org/1999/02/22-rdf-syntax-ns#"
   xmlns:svg="http://www.w3.org/2000/svg"
   xmlns="http://www.w3.org/2000/svg"
   xmlns:sodipodi="http://sodipodi.sourceforge.net/DTD/sodipodi-0.dtd"
   xmlns:inkscape="http://www.inkscape.org/namespaces/inkscape"
   inkscape:version="1.0 (4035a4fb49, 2020-05-01)"
   sodipodi:docname="galeno-group.svg"
   version="1.1"
   width="24"
   viewBox="0 0 3 3"
   height="24"
   enable-background="new 0 0 64 64"
   id="Layer_5">
  <metadata
     id="metadata125">
    <rdf:RDF>
      <cc:Work
         rdf:about="">
        <dc:format>image/svg+xml</dc:format>
        <dc:type
           rdf:resource="http://purl.org/dc/dcmitype/StillImage" />
        <dc:title></dc:title>
      </cc:Work>
    </rdf:RDF>
  </metadata>
  <defs
     id="defs123" />
  <sodipodi:namedview
     inkscape:current-layer="Layer_5"
     inkscape:window-maximized="1"
     inkscape:window-y="0"
     inkscape:window-x="0"
     inkscape:cy="22.148666"
     inkscape:cx="21.333998"
     inkscape:zoom="22.273864"
     showgrid="false"
     id="namedview121"
     inkscape:window-height="1417"
     inkscape:window-width="2560"
     inkscape:pageshadow="2"
     inkscape:pageopacity="0"
     guidetolerance="10"
     gridtolerance="10"
     objecttolerance="10"
     borderopacity="1"
     bordercolor="#666666"
     pagecolor="#ffffff" />
  <g
     transform="matrix(0.04816569,0,0,0.04816569,-0.0425303,-0.04816569)"
     id="g118">
    <g
       id="g110">
      <g
         id="g4">
        <path
           id="path2"
           fill="#969faa"
           d="M 14,62 H 8 V 50 44 h 6 6 2.94 l -2.58,2.62 C 18.24,49.33 17,52.74 17,56.37 c 0,1.55 0.63,2.96 1.65,3.98 1.02,1.02 2.43,1.65 3.98,1.65 z" />
      </g>
      <g
         id="g8">
        <path
           id="path6"
           fill="#e6e9ed"
           d="m 13,30.75 h 2 L 16,41 14,44 12,41 Z" />
      </g>
      <g
         id="g12">
        <path
           id="path10"
           fill="#ccd1d9"
           d="m 14,27 1.58,1.45 -0.58,2.3 h -2 l -0.58,-2.3 z" />
      </g>
      <g
         id="g16">
        <path
           id="path14"
           fill="#fcd770"
           d="M 13,30.75 12,41 14,44 H 8 4 2 L 3.16,33.57 C 3.42,31.23 4.3,29.05 5.65,27.22 6.8,25.67 8.3,24.37 10.06,23.45 l 0.94,6.3 1.42,-1.3 z" />
      </g>
      <g
         id="g20">
        <path
           id="path18"
           fill="#fcd770"
           d="m 23,28.2 h 0.01 C 23,28.24 23,28.29 23,28.33 c 0,1.15 0.27,2.28 0.78,3.28 0.27,0.54 0.6,1.05 1.01,1.51 l -0.01,0.01 c 0.03,0.14 0.04,0.29 0.06,0.44 l 0.96,8.61 C 24.78,42.68 23.82,43.3 22.94,44 H 20 14 l 2,-3 -1,-10.25 0.58,-2.3 1.42,1.3 0.94,-6.3 c 2.1,1.11 3.85,2.76 5.06,4.75 z" />
      </g>
      <g
         id="g24">
        <path
           id="path22"
           fill="#ffc729"
           d="m 17,23 c 0.32,0.14 0.63,0.29 0.94,0.45 L 17,29.75 15.58,28.45 14,27 Z" />
      </g>
      <g
         id="g28">
        <path
           id="path26"
           fill="#ffc729"
           d="M 12.42,28.45 11,29.75 10.06,23.45 C 10.37,23.29 10.68,23.14 11,23 l 3,4 z" />
      </g>
      <g
         id="g32">
        <path
           id="path30"
           fill="#b27946"
           d="M 8,11 C 7.01,11 6.13,11.48 5.59,12.22 5.21,11.32 5,10.34 5,9.33 5,5.28 8.28,2 12.33,2 h 3.34 C 17.7,2 19.53,2.82 20.85,4.15 22.18,5.47 23,7.3 23,9.33 23,10.34 22.79,11.32 22.41,12.22 22.32,12.1 22.23,11.99 22.12,11.88 21.58,11.34 20.83,11 20,11 H 19 18.83 C 17.02,11 15.28,10.28 14,9 12.72,10.28 10.98,11 9.17,11 H 9 Z" />
      </g>
      <g
         id="g36">
        <path
           id="path34"
           fill="#b27946"
           d="m 45,17 c 0,1.7 1.06,3.16 2.57,3.73 v 0.01 L 47.5,21 H 46 c -2.76,0 -5,-2.24 -5,-5 v -5 c 0,-4.97 4.03,-9 9,-9 2.48,0 4.74,1.01 6.36,2.64 C 57.99,6.26 59,8.52 59,11 v 5 c 0,2.76 -2.24,5 -5,5 H 52.5 L 52.43,20.74 V 20.73 C 53.94,20.16 55,18.7 55,17 v -5 c -1.25,0 -2.11,-0.79 -2.59,-1.87 l -3.99,0.01 -1.91,0.48 C 45.62,10.84 45,11.64 45,12.56 Z" />
      </g>
      <g
         id="g40">
        <path
           id="path38"
           fill="#969faa"
           d="M 58,53.71 V 62 H 41.37 C 44.48,62 47,59.48 47,56.37 47,52.74 45.76,49.33 43.64,46.62 43.46,46.39 43.27,46.16 43.08,45.94 43.56,44.24 44.21,42.59 45,41 h 10 c 0.96,1.92 1.69,3.93 2.19,5.99 0.54,2.19 0.81,4.45 0.81,6.72 z" />
      </g>
      <g
         id="g44">
        <path
           id="path42"
           fill="#ff826e"
           d="M 55,41 H 45 38.33 l 0.83,-7.43 c 0.02,-0.15 0.03,-0.3 0.06,-0.44 L 39.21,33.12 C 40.36,31.8 41,30.1 41,28.33 41,28.28 41,28.24 40.99,28.19 H 41 c 1.39,-2.27 3.47,-4.1 6,-5.19 0,1.36 0.15,2.7 0.45,4 h 0.01 c 0.41,1.85 1.12,3.64 2.11,5.29 L 50,33 50.43,32.29 c 0.99,-1.65 1.7,-3.44 2.11,-5.29 h 0.01 c 0.3,-1.3 0.45,-2.64 0.45,-4 2.16,0.92 4,2.4 5.35,4.22 1.35,1.83 2.23,4.01 2.49,6.35 L 62,41 h -2 z" />
      </g>
      <g
         id="g48">
        <path
           id="path46"
           fill="#ffeaa7"
           d="m 47.46,27 h 5.08 c -0.41,1.85 -1.12,3.64 -2.11,5.29 L 50,33 49.57,32.29 C 48.58,30.64 47.87,28.85 47.46,27 Z" />
      </g>
      <g
         id="g52">
        <path
           id="path50"
           fill="#b4dd7f"
           d="M 43.64,46.62 C 43.46,46.39 43.27,46.16 43.08,45.94 41.73,44.39 40.07,43.11 38.2,42.18 37.2,41.68 36.12,41.28 35,41 v 1 c 0,0.83 -0.34,1.58 -0.88,2.12 C 33.58,44.66 32.83,45 32,45 30.34,45 29,43.66 29,42 v -1 c -1.12,0.28 -2.19,0.68 -3.2,1.18 -1.02,0.5 -1.98,1.12 -2.86,1.82 l -2.58,2.62 C 18.24,49.33 17,52.74 17,56.37 c 0,1.55 0.63,2.96 1.65,3.98 1.02,1.02 2.43,1.65 3.98,1.65 h 1.3 4.2 7.74 5.13 0.37 C 44.48,62 47,59.48 47,56.37 47,52.74 45.76,49.33 43.64,46.62 Z" />
      </g>
      <g
         id="g56">
        <path
           id="path54"
           fill="#656d78"
           d="M 40.99,28.19 C 41,28.24 41,28.28 41,28.33 c 0,1.77 -0.64,3.47 -1.79,4.79 -0.33,0.4 -0.71,0.76 -1.14,1.08 L 37,35 v -6 h -2 c -1.28,0 -2.51,-0.51 -3.41,-1.41 L 31,27 30.41,27.59 C 29.51,28.49 28.28,29 27,29 v 6 L 25.93,34.2 C 25.5,33.88 25.12,33.52 24.79,33.12 24.38,32.66 24.05,32.15 23.78,31.61 23.27,30.61 23,29.48 23,28.33 23,28.29 23,28.24 23.01,28.2 23.07,24.21 26.32,21 30.33,21 h 3.34 c 2.03,0 3.86,0.82 5.18,2.15 1.3,1.29 2.11,3.06 2.14,5.04 z" />
      </g>
      <g
         id="g60">
        <path
           id="path58"
           fill="#ccd1d9"
           d="m 41,49.69 c 0,0.21 -0.02,0.41 -0.05,0.61 L 40,56 39.51,58.91 C 39.22,60.69 37.68,62 35.87,62 h -7.74 c -1.81,0 -3.35,-1.31 -3.64,-3.09 L 24,56 23.05,50.3 C 23.02,50.1 23,49.9 23,49.69 23,47.65 24.65,46 26.69,46 H 32 37.31 c 1.02,0 1.94,0.41 2.61,1.08 0.67,0.67 1.08,1.59 1.08,2.61 z" />
      </g>
      <g
         id="g64">
        <circle
           id="circle62"
           r="2"
           fill="#69d6f4"
           cy="52"
           cx="32" />
      </g>
      <g
         id="g68">
        <path
           id="path66"
           fill="#f0d0b4"
           d="m 8,44 v 6 H 7 C 5.34,50 4,48.66 4,47 v -3 z" />
      </g>
      <g
         id="g72">
        <path
           id="path70"
           fill="#f0d0b4"
           d="m 22.41,12.22 c 0.37,0.5 0.59,1.11 0.59,1.78 0,1.66 -1.34,3 -3,3 h -1 v -6 h 1 c 0.83,0 1.58,0.34 2.12,0.88 0.11,0.11 0.2,0.22 0.29,0.34 z" />
      </g>
      <g
         id="g76">
        <path
           id="path74"
           fill="#f0d0b4"
           d="m 19,11 v 6 c 0,1.7 -1.06,3.16 -2.57,3.73 C 15.99,20.91 15.5,21 15,21 H 13 C 12.49,21 12.01,20.91 11.57,20.73 10.06,20.16 9,18.7 9,17 v -6 h 0.17 c 1.81,0 3.55,-0.72 4.83,-2 1.28,1.28 3.02,2 4.83,2 z" />
      </g>
      <g
         id="g80">
        <path
           id="path78"
           fill="#f0d0b4"
           d="m 9,11 v 6 H 8 C 7.17,17 6.42,16.66 5.88,16.12 5.34,15.58 5,14.83 5,14 5,13.33 5.22,12.72 5.59,12.22 6.13,11.48 7.01,11 8,11 Z" />
      </g>
      <g
         id="g84">
        <path
           id="path82"
           fill="#f0d0b4"
           d="M 11.57,20.73 C 12.01,20.91 12.49,21 13,21 h 2 c 0.5,0 0.99,-0.09 1.43,-0.27 L 17,23 14,27 11,23 Z" />
      </g>
      <g
         id="g88">
        <path
           id="path86"
           fill="#f0d0b4"
           d="m 35,41 v 1 c 0,0.83 -0.34,1.58 -0.88,2.12 C 33.58,44.66 32.83,45 32,45 30.34,45 29,43.66 29,42 v -1 l 0.57,-2.27 C 30.01,38.91 30.49,39 31,39 h 2 c 0.5,0 0.99,-0.09 1.43,-0.27 z" />
      </g>
      <g
         id="g92">
        <path
           id="path90"
           fill="#f0d0b4"
           d="m 37,29 v 6 c 0,1.7 -1.06,3.16 -2.57,3.73 C 33.99,38.91 33.5,39 33,39 H 31 C 30.49,39 30.01,38.91 29.57,38.73 28.06,38.16 27,36.7 27,35 v -6 c 1.28,0 2.51,-0.51 3.41,-1.41 L 31,27 31.59,27.59 C 32.49,28.49 33.72,29 35,29 Z" />
      </g>
      <g
         id="g96">
        <path
           id="path94"
           fill="#f0d0b4"
           d="M 38.33,41 H 45 c -0.79,1.59 -1.44,3.24 -1.92,4.94 -1.35,-1.55 -3.01,-2.83 -4.88,-3.76 z" />
      </g>
      <g
         id="g100">
        <path
           id="path98"
           fill="#f0d0b4"
           d="m 60,44 c 0,1.59 -1.24,2.89 -2.8,2.99 H 57.19 C 56.69,44.93 55.96,42.92 55,41 h 5 z" />
      </g>
      <g
         id="g104">
        <path
           id="path102"
           fill="#f0d0b4"
           d="m 53,23 c 0,1.36 -0.15,2.7 -0.45,4 H 52.54 47.46 47.45 C 47.15,25.7 47,24.36 47,23 l 0.5,-2 0.07,-0.26 V 20.73 C 48.01,20.91 48.49,21 49,21 h 2 c 0.51,0 0.99,-0.09 1.43,-0.27 v 0.01 L 52.5,21 Z" />
      </g>
      <g
         id="g108">
        <path
           id="path106"
           fill="#f0d0b4"
           d="M 52.41,10.13 C 52.89,11.21 53.75,12 55,12 v 5 c 0,1.7 -1.06,3.16 -2.57,3.73 C 51.99,20.91 51.51,21 51,21 H 49 C 48.49,21 48.01,20.91 47.57,20.73 46.06,20.16 45,18.7 45,17 v -4.44 c 0,-0.92 0.62,-1.72 1.51,-1.94 l 1.91,-0.48 z" />
      </g>
    </g>
    <g
       id="g116">
      <path
         id="path112"
         d="m 32,49 c -1.654,0 -3,1.346 -3,3 0,1.654 1.346,3 3,3 1.654,0 3,-1.346 3,-3 0,-1.654 -1.346,-3 -3,-3 z m 0,4 c -0.551,0 -1,-0.449 -1,-1 0,-0.551 0.449,-1 1,-1 0.551,0 1,0.449 1,1 0,0.551 -0.449,1 -1,1 z" />
      <path
         id="path114"
         d="M 63.168,42 61.835,33.459 C 61.295,28.6 58.255,24.363 53.853,22.287 L 53.781,22 H 54 c 3.309,0 6,-2.691 6,-6 V 11 C 60,5.486 55.514,1 50,1 44.486,1 40,5.486 40,11 v 5 c 0,3.309 2.691,6 6,6 h 0.219 l -0.072,0.287 c -1.759,0.828 -3.302,2.002 -4.568,3.448 C 40.484,22.409 37.354,20 33.667,20 h -3.333 c -3.687,0 -6.818,2.409 -7.913,5.735 -1.266,-1.446 -2.809,-2.62 -4.568,-3.448 L 17.595,21.253 C 18.759,20.54 19.619,19.379 19.9,18 H 20 c 2.206,0 4,-1.794 4,-4 0,-0.683 -0.188,-1.316 -0.49,-1.879 C 23.829,11.225 24,10.291 24,9.333 24,4.738 20.262,1 15.667,1 H 12.334 C 7.738,1 4,4.738 4,9.333 4,10.291 4.171,11.225 4.49,12.121 4.188,12.684 4,13.317 4,14 c 0,2.206 1.794,4 4,4 h 0.101 c 0.281,1.38 1.141,2.541 2.305,3.253 l -0.258,1.034 C 5.746,24.363 2.705,28.6 2.166,33.459 L 0.883,45 H 3 v 2 c 0,2.206 1.794,4 4,4 V 63 H 22.631 23.927 28.129 35.87 41 41.369 59 V 53.708 C 59,51.705 58.779,49.703 58.371,47.739 59.905,47.173 61,45.711 61,44 V 42 Z M 49,22 h 2 c 0.24,0 0.47,-0.038 0.701,-0.071 l 0.295,1.18 C 51.99,24.082 51.9,25.049 51.73,26 h -3.461 c -0.17,-0.951 -0.26,-1.918 -0.266,-2.891 l 0.295,-1.18 C 48.53,21.962 48.76,22 49,22 Z m 2.247,6 C 50.928,29.039 50.514,30.049 50,31.013 49.487,30.049 49.072,29.039 48.754,28 Z M 42,16 v -5 c 0,-4.411 3.589,-8 8,-8 4.411,0 8,3.589 8,8 v 5 c 0,1.813 -1.22,3.331 -2.877,3.82 C 55.675,19.016 56,18.046 56,17 V 11 H 55 C 53.418,11 53,9.038 53,8 h -2 c 0,2.147 1.026,4.318 3,4.867 V 17 c 0,1.654 -1.346,3 -3,3 h -2 c -1.654,0 -3,-1.346 -3,-3 v -4.438 c 0,-0.46 0.312,-0.859 0.758,-0.97 l 1.171,-0.293 C 48.6,12.31 49.627,13 51,13 V 11 C 49.418,11 49,9.038 49,8 h -2 c 0,0.482 0.053,0.964 0.156,1.43 L 46.273,9.651 C 44.935,9.985 44,11.182 44,12.562 V 17 c 0,1.046 0.325,2.016 0.877,2.82 C 43.22,19.331 42,17.813 42,16 Z m 4.074,8.591 c 0.243,2.896 1.139,5.707 2.64,8.211 L 50,34.943 51.285,32.802 c 1.502,-2.504 2.397,-5.315 2.64,-8.21 3.271,1.909 5.498,5.276 5.927,9.131 L 60.832,40 H 56.149 C 56.433,37.914 57,33.567 57,32 57,29.653 55.839,28.425 55.707,28.293 l -1.425,1.403 C 54.311,29.727 55,30.481 55,32 c 0,1.503 -0.608,6.089 -0.87,8 H 45.87 C 45.608,38.089 45,33.504 45,32 c 0,-1.519 0.689,-2.273 0.718,-2.304 L 45,29 44.293,28.293 C 44.161,28.425 43,29.653 43,32 c 0,1.567 0.567,5.914 0.851,8 H 39.45 l 0.703,-6.322 c 0.006,-0.052 0.013,-0.104 0.02,-0.156 1.125,-1.417 1.777,-3.18 1.816,-5.014 1.041,-1.626 2.434,-2.957 4.085,-3.917 z M 42.638,44.049 C 41.813,43.28 40.907,42.594 39.932,42 h 3.504 c -0.292,0.673 -0.558,1.357 -0.798,2.049 z M 26.641,40.717 26.127,36.086 c 0.299,1.341 1.141,2.47 2.279,3.167 l -0.233,0.934 c -0.525,0.151 -1.033,0.332 -1.532,0.53 z M 30,41.124 30.299,39.93 C 30.53,39.962 30.76,40 31,40 h 2 c 0.24,0 0.47,-0.038 0.701,-0.071 L 34,41.124 V 42 c 0,1.103 -0.897,2 -2,2 -1.103,0 -2,-0.897 -2,-2 z M 33,38 h -2 c -1.654,0 -3,-1.346 -3,-3 v -5.085 c 1.122,-0.193 2.159,-0.709 3,-1.504 1.086,1.026 2.5,1.589 4,1.589 h 1 v 5 c 0,1.654 -1.346,3 -3,3 z m 2.828,2.187 -0.233,-0.934 c 1.139,-0.697 1.981,-1.826 2.28,-3.168 l -0.515,4.631 c -0.5,-0.197 -1.008,-0.378 -1.532,-0.529 z M 30.333,22 h 3.333 c 3.493,0 6.334,2.841 6.334,6.333 0,1.748 -0.738,3.426 -2,4.615 V 28 h -3 c -1.022,0 -1.984,-0.398 -2.707,-1.121 L 31,25.586 29.707,26.879 C 28.984,27.602 28.022,28 27,28 h -1 v 4.949 C 24.738,31.76 24,30.082 24,28.334 24,24.841 26.841,22 30.333,22 Z m -8.323,6.509 c 0.039,1.833 0.691,3.597 1.817,5.014 0.007,0.053 0.014,0.104 0.02,0.158 l 0.882,7.939 c -0.745,0.409 -1.451,0.872 -2.118,1.382 h -1.716 l -0.901,-8.11 -1.987,0.221 0.876,7.887 h -3.015 l 1.161,-1.742 -1.018,-10.432 0.127,-0.508 1.571,1.44 0.999,-6.669 c 1.312,0.903 2.431,2.058 3.302,3.42 z m -9.354,-1.634 -0.946,0.867 -0.398,-2.66 z M 14,28.357 14.462,28.78 14.22,29.75 H 13.782 L 13.54,28.78 Z m 2.688,-3.274 -0.398,2.66 -0.946,-0.867 z m -2.781,6.667 h 0.186 L 14.97,40.742 14,42.197 13.03,40.742 Z M 20,16 v -4 c 1.103,0 2,0.897 2,2 0,1.103 -0.897,2 -2,2 z M 6,14 c 0,-1.103 0.897,-2 2,-2 v 4 C 6.897,16 6,15.103 6,14 Z M 9.171,10 H 9 8 C 7.313,10 6.677,10.19 6.111,10.496 6.04,10.114 6,9.727 6,9.333 6,5.841 8.841,3 12.333,3 h 3.333 C 19.159,3 22,5.841 22,9.333 22,9.726 21.96,10.114 21.889,10.495 21.323,10.19 20.687,10 20,10 H 19 18.829 C 17.272,10 15.808,9.394 14.707,8.293 L 14,7.586 13.293,8.293 C 12.192,9.394 10.729,10 9.171,10 Z M 10,11.957 c 1.466,-0.153 2.843,-0.712 4,-1.622 1.157,0.91 2.534,1.469 4,1.622 V 17 c 0,1.654 -1.346,3 -3,3 h -2 c -1.654,0 -3,-1.346 -3,-3 z M 13,22 h 2 c 0.24,0 0.47,-0.038 0.702,-0.071 L 15.915,22.781 14,25.333 12.085,22.78 12.298,21.928 C 12.53,21.962 12.76,22 13,22 Z M 4.153,33.68 c 0.389,-3.5 2.307,-6.602 5.141,-8.568 l 0.995,6.646 1.571,-1.44 0.127,0.508 L 10.97,41.258 12.132,43 H 9.117 L 9.994,35.11 8.006,34.89 7.105,43 H 3.117 Z M 5,47 v -2 h 2 v 4 C 5.897,49 5,48.103 5,47 Z M 9,45 H 20.419 C 17.652,48.024 16,52.033 16,56.369 16,58.17 16.724,59.804 17.894,61 H 15 V 49 H 13 V 61 H 9 Z M 22.631,61 C 20.077,61 18,58.923 18,56.369 18,49.97 22.067,44.364 28.033,42.327 28.121,43.393 28.621,44.334 29.382,45 H 26.694 C 24.106,45 22,47.106 22,49.694 c 0,0.259 0.021,0.518 0.064,0.772 L 22.82,55 H 20 v 2 h 3.153 l 0.346,2.078 c 0.12,0.717 0.409,1.361 0.803,1.922 h -0.375 z m 5.498,0 c -1.323,0 -2.44,-0.947 -2.658,-2.251 L 24.036,50.137 C 24.012,49.99 24,49.842 24,49.694 24,48.208 25.208,47 26.694,47 h 10.611 c 1.487,0 2.695,1.208 2.695,2.694 0,0.148 -0.012,0.296 -0.037,0.443 l -1.435,8.611 C 38.311,60.053 37.193,61 35.871,61 Z M 41,61 h -1.302 c 0.394,-0.561 0.684,-1.205 0.803,-1.922 L 40.847,57 H 44 v -2 h -2.819 l 0.755,-4.533 C 41.979,50.212 42,49.954 42,49.694 42,47.106 39.894,45 37.306,45 H 34.618 C 35.38,44.335 35.879,43.393 35.967,42.327 41.933,44.364 46,49.97 46,56.369 46,58.923 43.923,61 41.369,61 Z m 16,0 H 46.106 C 47.276,59.804 48,58.17 48,56.369 48,52.368 46.588,48.648 44.197,45.72 44.585,44.448 45.066,43.202 45.634,42 h 8.728 C 56.083,45.646 57,49.678 57,53.708 Z m 2,-17 c 0,0.775 -0.448,1.453 -1.102,1.784 C 57.538,44.495 57.097,43.228 56.566,42 H 59 Z" />
    </g>
  </g>
</svg>
