<svg id="Layer_5" enable-background="new 0 0 64 64" height="512" viewBox="0 0 64 64" width="512" xmlns="http://www.w3.org/2000/svg"><g><g><path d="m21 8v8h-2c-2.21 0-4-1.79-4-4 0-1.1.45-2.1 1.17-2.83.73-.72 1.73-1.17 2.83-1.17z" fill="#37bc9b"/><path d="m59 2v44.34l-.01.01c-1.58-1.46-3.68-2.34-5.99-2.35v-5.13c0-1.18-.53-2.31-1.44-3.07l-4.56-3.8v-12c0-2.21-1.79-4-4-4v-10h-18v10h-4v-8-6z" fill="#e6e9ed"/><path d="m25 6h18v10h-18z" fill="#dfb28b"/><path d="m53 38.87v5.13c-.01 0-.02 0-.03 0-3.52 0-6.56 2.04-8.03 5h-14.94v-4l-2.56-.63c-.21-.66-.48-1.28-.79-1.88l1.37-2.27-4.24-4.24-2.27 1.37c-.6-.31-1.22-.58-1.88-.79l-.63-2.56h-4v-22c0 2.21 1.79 4 4 4h2 4 18c2.21 0 4 1.79 4 4v12l4.56 3.8c.91.76 1.44 1.89 1.44 3.07z" fill="#48cfad"/><path d="m43 21v8c0 .55-.45 1-1 1h-22c-.55 0-1-.45-1-1v-8c0-.55.45-1 1-1h22c.55 0 1 .45 1 1z" fill="#fcd770"/><path d="m61 49-8.01.73c-1.69.15-2.99 1.57-2.99 3.27s1.3 3.12 2.99 3.27l8.01.73c-1.47 2.96-4.51 5-8.03 5s-6.56-2.04-8.03-5h-18.14l1.22-1.22-1.37-2.27c.31-.6.58-1.22.79-1.88l2.56-.63v-2h14.94c1.47-2.96 4.51-5 8.03-5h.03c2.31.01 4.41.89 5.99 2.35.82.74 1.51 1.64 2.01 2.65z" fill="#aab2bd"/><path d="m30 49v2l-2.56.63c-.21.66-.48 1.28-.79 1.88l1.37 2.27-1.22 1.22-3.02 3.02-2.27-1.37c-.6.31-1.22.58-1.88.79l-.63 2.56h-6l-.63-2.56c-.66-.21-1.28-.48-1.88-.79l-2.27 1.37-4.24-4.24 1.37-2.27c-.31-.6-.58-1.22-.79-1.88l-2.56-.63v-6l2.56-.63c.21-.66.48-1.28.79-1.88l-1.37-2.27 4.24-4.24 2.27 1.37c.6-.31 1.22-.58 1.88-.79l.63-2.56h2 4l.63 2.56c.66.21 1.28.48 1.88.79l2.27-1.37 4.24 4.24-1.37 2.27c.31.6.58 1.22.79 1.88l2.56.63zm-6-1c0-4.42-3.58-8-8-8s-8 3.58-8 8 3.58 8 8 8 8-3.58 8-8z" fill="#ffc729"/><path d="m16 40c4.42 0 8 3.58 8 8s-3.58 8-8 8-8-3.58-8-8 3.58-8 8-8zm4 8c0-2.21-1.79-4-4-4s-4 1.79-4 4 1.79 4 4 4 4-1.79 4-4z" fill="#fcd770"/></g><g><path d="m46 5h10v2h-10z"/><path d="m46 9h10v2h-10z"/><path d="m46 13h10v2h-10z"/><path d="m50 17h6v2h-6z"/><path d="m50 21h6v2h-6z"/><path d="m50 25h6v2h-6z"/><path d="m50 29h6v2h-6z"/><path d="m16 39c-4.963 0-9 4.038-9 9s4.037 9 9 9 9-4.038 9-9-4.037-9-9-9zm0 16c-3.859 0-7-3.14-7-7s3.141-7 7-7 7 3.14 7 7-3.141 7-7 7z"/><path d="m16 43c-2.757 0-5 2.243-5 5s2.243 5 5 5 5-2.243 5-5-2.243-5-5-5zm0 8c-1.654 0-3-1.346-3-3s1.346-3 3-3 3 1.346 3 3-1.346 3-3 3z"/><path d="m51 53c0-1.189.894-2.168 2.078-2.275l9.467-.861-.649-1.308c-.493-.995-1.145-1.864-1.896-2.62v-44.936h-40v6h-1c-2.757 0-5 2.243-5 5v21h-1.784l-.687 2.794c-.332.123-.664.262-.994.417l-2.466-1.493-5.352 5.352 1.492 2.466c-.154.331-.293.663-.416.995l-2.793.685v7.568l2.794.687c.123.333.262.665.416.995l-1.492 2.466 5.351 5.351 2.467-1.493c.33.155.662.293.994.417l.686 2.793h7.568l.687-2.794c.332-.123.664-.262.994-.417l2.466 1.493 3.282-3.282h17.131c1.782 3.1 5.033 5 8.627 5 3.805 0 7.225-2.129 8.924-5.556l.649-1.308-9.467-.861c-1.183-.107-2.077-1.086-2.077-2.275zm7-50v41.374c-1.208-.71-2.565-1.155-4-1.303v-4.198c0-1.488-.656-2.889-1.799-3.841l-4.201-3.5v-11.532c0-2.414-1.721-4.434-4-4.899v-10.101h-20v10h-2v-12zm-16 12h-16v-8h16zm-23-6h1v6h-1c-1.654 0-3-1.346-3-3s1.346-3 3-3zm-3 6.974c.838.635 1.87 1.026 3 1.026h24c1.654 0 3 1.346 3 3v12.468l4.921 4.101c.685.572 1.079 1.411 1.079 2.305v4.191c-3.2.31-6.036 2.119-7.655 4.936h-13.345v-3.784l-2.794-.687c-.123-.332-.262-.664-.416-.995l1.492-2.466-5.352-5.352-2.465 1.493c-.33-.154-.662-.293-.995-.417l-.686-2.793h-3.784zm7.626 42.785-2.073-1.255-.498.258c-.574.297-1.155.541-1.728.722l-.534.17-.577 2.346h-4.432l-.577-2.345-.534-.17c-.571-.182-1.153-.424-1.728-.722l-.498-.258-2.072 1.255-3.134-3.134 1.255-2.073-.259-.499c-.298-.573-.541-1.153-.723-1.727l-.17-.534-2.344-.577v-4.432l2.347-.577.169-.536c.181-.571.424-1.151.722-1.725l.259-.499-1.255-2.073 3.133-3.134 2.073 1.255.498-.258c.574-.297 1.155-.541 1.728-.722l.534-.17.576-2.345h4.432l.577 2.345.534.17c.574.183 1.155.425 1.727.722l.498.259 2.074-1.255 3.133 3.134-1.255 2.073.259.499c.298.574.541 1.154.722 1.725l.169.536 2.346.576v4.432l-2.347.577-.169.536c-.181.571-.424 1.151-.722 1.725l-.259.499 1.255 2.073zm29.346 2.241c-3.039 0-5.771-1.703-7.133-4.445l-.276-.555h-16.35l.069-.069-1.492-2.466c.154-.331.293-.663.416-.995l2.794-.686v-1.784h14.563l.275-.555c1.362-2.742 4.095-4.445 7.134-4.445 2.527 0 4.843 1.177 6.333 3.15l-6.408.583c-2.222.202-3.897 2.036-3.897 4.267s1.675 4.065 3.896 4.268l6.408.583c-1.49 1.972-3.805 3.149-6.332 3.149z"/><path d="m42 31c1.103 0 2-.897 2-2v-8c0-1.103-.897-2-2-2h-22c-1.103 0-2 .897-2 2v8c0 1.103.897 2 2 2zm-22-10h22l.001 8h-22.001z"/><path d="m41 44h2v2h-2z"/><path d="m33 44h2v2h-2z"/><path d="m37 44h2v2h-2z"/></g></g></svg>