<?xml version="1.0" encoding="UTF-8" standalone="no"?>
<svg
   xmlns:dc="http://purl.org/dc/elements/1.1/"
   xmlns:cc="http://creativecommons.org/ns#"
   xmlns:rdf="http://www.w3.org/1999/02/22-rdf-syntax-ns#"
   xmlns:svg="http://www.w3.org/2000/svg"
   xmlns="http://www.w3.org/2000/svg"
   xmlns:sodipodi="http://sodipodi.sourceforge.net/DTD/sodipodi-0.dtd"
   xmlns:inkscape="http://www.inkscape.org/namespaces/inkscape"
   inkscape:version="1.0 (4035a4fb49, 2020-05-01)"
   sodipodi:docname="galeno_admin.svg"
   height="24"
   width="24"
   xml:space="preserve"
   viewBox="0 0 3 3"
   y="0px"
   x="0px"
   id="Layer_1_1_"
   version="1.1"><metadata
   id="metadata43"><rdf:RDF><cc:Work
       rdf:about=""><dc:format>image/svg+xml</dc:format><dc:type
         rdf:resource="http://purl.org/dc/dcmitype/StillImage" /><dc:title></dc:title></cc:Work></rdf:RDF></metadata><defs
   id="defs41" /><sodipodi:namedview
   inkscape:current-layer="Layer_1_1_"
   inkscape:window-maximized="1"
   inkscape:window-y="0"
   inkscape:window-x="0"
   inkscape:cy="13.384856"
   inkscape:cx="10.396861"
   inkscape:zoom="15.75"
   showgrid="false"
   id="namedview39"
   inkscape:window-height="1417"
   inkscape:window-width="2560"
   inkscape:pageshadow="2"
   inkscape:pageopacity="0"
   guidetolerance="10"
   gridtolerance="10"
   objecttolerance="10"
   borderopacity="1"
   bordercolor="#666666"
   pagecolor="#ffffff" />
<g
   transform="matrix(0.0483871,0,0,0.0483871,-0.0483871,-0.0483871)"
   id="g36">
	<g
   id="g18">
		<path
   id="path2"
   d="m 61,6 h -6 l -2,3 2,3 h 6 c -1.18,2.36 -3.71,4 -6.64,4 -2.3,0 -4.34,-1 -5.69,-2.57 C 47.9,12.53 46.8,12 45.61,12 H 5 C 4.17,12 3.42,11.66 2.88,11.12 2.34,10.58 2,9.83 2,9 2,7.34 3.34,6 5,6 H 45.61 C 46.8,6 47.9,5.47 48.67,4.57 50.02,3 52.06,2 54.36,2 57.29,2 59.82,3.64 61,6 Z"
   style="fill:#ccd1d9" />
		<path
   id="path4"
   d="m 58,54 c 2.21,0 4,1.79 4,4 0,1.1 -0.45,2.1 -1.17,2.83 C 60.1,61.55 59.1,62 58,62 h -4 v -8 z"
   style="fill:#838f9b" />
		<polygon
   id="polygon6"
   points="36,54 40,54 40,62 36,62 36,60 36,56 "
   style="fill:#ffeaa7" />
		<rect
   id="rect8"
   height="8"
   width="14"
   style="fill:#aab2bd"
   y="54"
   x="40" />
		<polygon
   id="polygon10"
   points="6,55 14,55 16,56 36,56 36,60 16,60 14,61 6,61 "
   style="fill:#ccd1d9" />
		<circle
   id="circle12"
   r="4"
   cy="24"
   cx="55"
   style="fill:#b4dd7f" />
		<path
   id="path14"
   d="M 9.49,43.89 C 10.18,43.34 11.05,43 12,43 c 2.21,0 4,1.79 4,4 0,2.21 -1.79,4 -4,4 -2.21,0 -4,-1.79 -4,-4 0,-1.26 0.58,-2.38 1.49,-3.11 z"
   style="fill:#b4dd7f" />
		<path
   id="path16"
   d="m 49,30 v 6 l -2.42,0.48 c -0.38,1.57 -0.99,3.03 -1.81,4.36 l 1.37,2.06 -4.24,4.24 -2.06,-1.37 c -1.33,0.82 -2.79,1.43 -4.36,1.81 L 35,50 H 29 L 28.52,47.58 C 26.95,47.2 25.49,46.59 24.16,45.77 L 22.1,47.14 17.86,42.9 19.23,40.84 C 18.41,39.51 17.8,38.05 17.42,36.48 L 15,36 v -6 l 2.42,-0.48 c 0.38,-1.57 0.99,-3.03 1.81,-4.36 l -1.37,-2.06 4.24,-4.24 2.06,1.37 c 1.33,-0.82 2.79,-1.43 4.36,-1.81 L 29,16 h 6 l 0.48,2.42 c 1.57,0.38 3.03,0.99 4.36,1.81 l 2.06,-1.37 4.24,4.24 -1.37,2.06 c 0.82,1.33 1.43,2.79 1.81,4.36 z m -7,3 c 0,-5.52 -4.48,-10 -10,-10 -5.52,0 -10,4.48 -10,10 0,5.52 4.48,10 10,10 5.52,0 10,-4.48 10,-10 z"
   style="fill:#fcd770" />
	</g>
	<g
   id="g34">
		<path
   id="path20"
   d="M 58,53 H 35 v 2 H 16.236 l -2,-1 H 5 v 8 h 9.236 l 2,-1 H 35 v 2 h 23 c 2.757,0 5,-2.243 5,-5 0,-2.757 -2.243,-5 -5,-5 z m -42.236,6 -2,1 H 7 v -4 h 6.764 l 2,1 H 35 v 2 z M 37,55 h 16 v 6 H 41 v -4 h -2 v 4 h -2 z m 21,6 h -3 v -6 h 3 c 1.654,0 3,1.346 3,3 0,1.654 -1.346,3 -3,3 z" />
		<path
   id="path22"
   d="m 45.615,13 c 0.869,0 1.706,0.394 2.296,1.081 1.594,1.855 3.944,2.919 6.448,2.919 3.194,0 6.152,-1.787 7.536,-4.553 L 62.619,11 H 55.536 L 54.203,9 55.536,7 h 7.083 L 61.895,5.553 C 60.511,2.787 57.553,1 54.359,1 51.856,1 49.505,2.064 47.911,3.919 47.321,4.606 46.484,5 45.615,5 H 5 C 2.794,5 1,6.794 1,9 c 0,2.206 1.794,4 4,4 z M 3,9 C 3,7.897 3.897,7 5,7 H 45.615 C 47.068,7 48.458,6.353 49.428,5.223 50.642,3.81 52.439,3 54.359,3 c 1.82,0 3.536,0.751 4.727,2 h -4.621 l -2.667,4 2.667,4 h 4.621 c -1.19,1.249 -2.906,2 -4.727,2 -1.92,0 -3.717,-0.81 -4.931,-2.223 C 48.458,11.647 47.068,11 45.615,11 H 5 C 3.897,11 3,10.103 3,9 Z" />
		<path
   id="path24"
   d="m 23,33 c 0,-4.962 4.038,-9 9,-9 2.103,0 4.149,0.742 5.763,2.09 l 1.282,-1.535 C 37.072,22.908 34.57,22 32,22 c -6.065,0 -11,4.935 -11,11 0,2.57 0.908,5.072 2.555,7.045 L 25.09,38.763 C 23.742,37.149 23,35.103 23,33 Z" />
		<path
   id="path26"
   d="M 38.91,27.237 C 40.258,28.852 41,30.898 41,33 c 0,4.962 -4.038,9 -9,9 -2.103,0 -4.149,-0.742 -5.763,-2.09 l -1.282,1.535 C 26.928,43.092 29.43,44 32,44 c 6.065,0 11,-4.935 11,-11 0,-2.57 -0.907,-5.072 -2.555,-7.045 z" />
		<path
   id="path28"
   d="M 50,36.82 V 29.18 L 47.387,28.657 C 47.047,27.45 46.565,26.289 45.95,25.193 l 1.479,-2.22 -5.402,-5.402 -2.22,1.479 C 38.71,18.435 37.55,17.953 36.343,17.613 L 35.82,15 h -7.64 l -0.523,2.613 c -1.207,0.34 -2.368,0.822 -3.464,1.437 l -2.22,-1.479 -5.402,5.402 1.479,2.22 c -0.615,1.097 -1.097,2.257 -1.437,3.464 L 14,29.18 v 7.64 l 2.613,0.523 c 0.34,1.207 0.822,2.368 1.437,3.464 l -1.479,2.22 5.402,5.402 2.22,-1.479 c 1.097,0.615 2.257,1.097 3.464,1.437 L 28.18,51 h 7.64 l 0.523,-2.613 c 1.207,-0.34 2.368,-0.822 3.464,-1.437 l 2.22,1.479 5.402,-5.402 -1.479,-2.22 c 0.615,-1.097 1.097,-2.257 1.437,-3.464 z m -4.248,-1.19 -0.148,0.623 c -0.342,1.435 -0.91,2.802 -1.686,4.064 l -0.336,0.545 1.273,1.91 -3.083,3.083 -1.91,-1.273 -0.545,0.336 c -1.262,0.776 -2.629,1.343 -4.064,1.686 L 34.63,46.752 34.18,49 h -4.36 l -0.45,-2.248 -0.623,-0.148 c -1.435,-0.342 -2.802,-0.91 -4.064,-1.686 l -0.545,-0.336 -1.91,1.273 -3.083,-3.083 1.273,-1.91 -0.336,-0.545 C 19.306,39.055 18.739,37.688 18.396,36.253 L 18.248,35.63 16,35.18 v -4.36 l 2.248,-0.45 0.148,-0.623 c 0.342,-1.435 0.91,-2.802 1.686,-4.064 l 0.336,-0.545 -1.273,-1.91 3.083,-3.083 1.91,1.273 0.545,-0.336 c 1.262,-0.776 2.629,-1.343 4.064,-1.686 L 29.37,19.248 29.82,17 h 4.36 l 0.45,2.248 0.623,0.148 c 1.435,0.342 2.802,0.91 4.064,1.686 l 0.545,0.336 1.91,-1.273 3.083,3.083 -1.273,1.91 0.336,0.545 c 0.776,1.262 1.343,2.629 1.686,4.064 L 45.752,30.37 48,30.82 v 4.36 z" />
		<path
   id="path30"
   d="m 60,24 c 0,-2.757 -2.243,-5 -5,-5 -2.757,0 -5,2.243 -5,5 0,2.757 2.243,5 5,5 0.223,0 0.435,-0.037 0.65,-0.066 0.228,1.338 0.35,2.701 0.35,4.066 0,6.577 -2.608,12.714 -7.345,17.281 l 1.388,1.439 C 55.174,46.774 58,40.125 58,33 58,31.412 57.848,29.824 57.563,28.27 59.016,27.395 60,25.817 60,24 Z m -5,3 c -1.654,0 -3,-1.346 -3,-3 0,-1.654 1.346,-3 3,-3 1.654,0 3,1.346 3,3 0,1.654 -1.346,3 -3,3 z" />
		<path
   id="path32"
   d="m 12,52 c 2.757,0 5,-2.243 5,-5 0,-2.757 -2.243,-5 -5,-5 -0.737,0 -1.431,0.17 -2.062,0.457 C 8.654,39.472 8,36.297 8,33 8,26.926 10.274,21.13 14.403,16.68 L 12.937,15.32 C 8.463,20.141 6,26.42 6,33 6,36.729 6.778,40.314 8.296,43.672 7.499,44.558 7,45.718 7,47 c 0,2.757 2.243,5 5,5 z m 3,-5 c 0,1.654 -1.346,3 -3,3 -1.654,0 -3,-1.346 -3,-3 0,-1.654 1.346,-3 3,-3 1.654,0 3,1.346 3,3 z" />
	</g>
</g>
</svg>
