<?xml version="1.0" encoding="UTF-8" standalone="no"?>
<!-- Generated by IcoMoon.io -->

<svg
   xmlns:dc="http://purl.org/dc/elements/1.1/"
   xmlns:cc="http://creativecommons.org/ns#"
   xmlns:rdf="http://www.w3.org/1999/02/22-rdf-syntax-ns#"
   xmlns:svg="http://www.w3.org/2000/svg"
   xmlns="http://www.w3.org/2000/svg"
   xmlns:sodipodi="http://sodipodi.sourceforge.net/DTD/sodipodi-0.dtd"
   xmlns:inkscape="http://www.inkscape.org/namespaces/inkscape"
   version="1.1"
   width="100"
   height="100"
   viewBox="0 0 100 100"
   id="svg6"
   sodipodi:docname="galeno.svg"
   inkscape:version="0.92.2 2405546, 2018-03-11">
  <metadata
     id="metadata12">
    <rdf:RDF>
      <cc:Work
         rdf:about="">
        <dc:format>image/svg+xml</dc:format>
        <dc:type
           rdf:resource="http://purl.org/dc/dcmitype/StillImage" />
        <dc:title />
      </cc:Work>
    </rdf:RDF>
  </metadata>
  <defs
     id="defs10" />
  <sodipodi:namedview
     pagecolor="#ffffff"
     bordercolor="#666666"
     borderopacity="1"
     objecttolerance="10"
     gridtolerance="10"
     guidetolerance="10"
     inkscape:pageopacity="0"
     inkscape:pageshadow="2"
     inkscape:window-width="2485"
     inkscape:window-height="1399"
     id="namedview8"
     showgrid="false"
     showguides="false"
     inkscape:zoom="5.2149125"
     inkscape:cx="-51.326522"
     inkscape:cy="24.060678"
     inkscape:window-x="75"
     inkscape:window-y="0"
     inkscape:window-maximized="1"
     inkscape:current-layer="svg6" />
  <path
     style="opacity:0.91100003;fill:#18bc9c;fill-opacity:0.98431373;stroke-width:3.20583463"
     d="m 30.682592,59.463717 35.028063,0.260001 c 10.13483,0.07523 19.07442,6.552324 19.07442,15.01428 v 9.434122 c 0,8.461956 -8.159309,15.274286 -18.294416,15.274286 H 30.682592 c -10.135109,0 -18.29442,-6.81233 -18.29442,-15.274286 v -9.434122 c 0,-8.461956 8.15959,-15.349508 18.29442,-15.274281 z"
     id="rect822-3"
     inkscape:connector-curvature="0"
     sodipodi:nodetypes="sssssssss" />
  <path
     style="opacity:0.91100003;fill:#18bc9c;fill-opacity:0.98458576;stroke-width:2.69878054"
     d="m 46.964228,1.3292909 h 5.906291 c 10.178785,0 18.019549,7.6229047 18.113258,17.8012601 l 0.104006,11.296196 C 71.104963,32.294046 63.04931,49.42401 52.870525,49.42401 h -5.906297 c -10.178786,0 -15.514944,-7.764868 -16.828935,-17.858487 L 28.590967,19.702552 C 27.58106,11.944801 36.785442,1.3292909 46.964228,1.3292909 Z"
     id="rect822"
     inkscape:connector-curvature="0"
     sodipodi:nodetypes="sssssssss" />
  <path
     style="fill:#6a6c6c;fill-opacity:1;stroke-width:6.13601828"
     inkscape:connector-curvature="0"
     d="M 86.917973,70.223766 C 80.781955,58.565331 74.645937,60.406137 67.896317,59.792535 c 0.613601,1.840805 0.613601,3.681611 0.613601,6.136018 9.81763,2.454407 12.272037,14.112842 12.272037,20.862462 v 6.136019 H 68.509918 v -6.136019 h 6.136019 c 0,0 0,-15.340045 -9.204028,-15.340045 -9.204027,0 -9.204027,14.726444 -9.204027,15.340045 H 62.3739 v 6.136019 H 50.101864 v -6.136019 c 0,-6.74962 2.454407,-19.021656 12.272036,-20.862462 0,-3.681611 -0.613602,-6.74962 -1.227203,-7.976824 -1.227204,-0.613602 -2.454408,-1.840805 -2.454408,-3.681611 0,-3.681611 4.908815,-2.454407 8.590426,-9.204027 0,0 5.522416,-14.112842 3.681611,-26.384879 h -6.136018 c 0,-1.227203 0.613601,-1.840805 0.613601,-3.068009 0,-1.227204 0,-1.840805 -0.613601,-3.068009 h 4.908814 C 67.896317,6.4091756 61.760298,0.88675914 50.101864,0.88675914 c 0,0 0,0 0,0 0,0 0,0 0,0 0,0 0,0 0,0 -11.658435,0 -17.794453,5.52241646 -20.248861,12.27203686 h 4.908815 c 0,1.227203 -0.613602,1.840805 -0.613602,3.068009 0,1.227204 0,1.840805 0.613602,3.068009 H 28.6258 c -1.227204,12.272037 3.681611,26.384879 3.681611,26.384879 3.681611,6.136018 8.590425,4.908814 8.590425,9.204027 0,3.068009 -3.068009,4.295213 -6.74962,4.908815 -1.227204,1.227203 -2.454407,3.681611 -2.454407,8.590425 0,2.454408 0,4.908815 0,7.363222 3.681611,1.227204 6.136018,4.908815 6.136018,8.590426 0,4.295213 -4.295213,8.590426 -9.204027,8.590426 -4.908815,0 -9.204028,-4.295213 -9.204028,-9.204028 0,-4.295213 2.454407,-7.363222 6.136018,-8.590425 0,-1.840806 0,-4.295213 0,-7.363222 0,-3.06801 0.613602,-5.522417 1.227204,-7.976824 -4.295213,0.613602 -9.204027,2.454407 -13.49924,10.431231 -3.6816112,6.74962 -5.5224167,28.839286 -5.5224167,28.839286 H 91.826788 c 0.613602,0 -1.227204,-22.089666 -4.908815,-28.839286 z M 40.897836,16.226805 c 0,-4.908815 4.295213,-9.2040276 9.204028,-9.2040276 4.908814,0 9.204027,4.2952126 9.204027,9.2040276 0,4.908815 -4.295213,9.204027 -9.204027,9.204027 -4.908815,0 -9.204028,-4.295212 -9.204028,-9.204027 z"
     id="path2" />
  <path
     style="fill:#6a6c6c;fill-opacity:1;stroke-width:6.13601828"
     inkscape:connector-curvature="0"
     d="m 31.693809,83.723006 c 0,1.693541 -1.374468,3.068009 -3.068009,3.068009 -1.693542,0 -3.06801,-1.374468 -3.06801,-3.068009 0,-1.693541 1.374468,-3.068009 3.06801,-3.068009 1.693541,0 3.068009,1.374468 3.068009,3.068009 z"
     id="path4" />
</svg>
