<?xml version="1.0" encoding="UTF-8" standalone="no"?>
<!-- Generator: Adobe Illustrator 16.0.0, SVG Export Plug-In . SVG Version: 6.00 Build 0)  -->

<svg
   xmlns:dc="http://purl.org/dc/elements/1.1/"
   xmlns:cc="http://creativecommons.org/ns#"
   xmlns:rdf="http://www.w3.org/1999/02/22-rdf-syntax-ns#"
   xmlns:svg="http://www.w3.org/2000/svg"
   xmlns="http://www.w3.org/2000/svg"
   xmlns:sodipodi="http://sodipodi.sourceforge.net/DTD/sodipodi-0.dtd"
   xmlns:inkscape="http://www.inkscape.org/namespaces/inkscape"
   version="1.1"
   id="Capa_1"
   x="0px"
   y="0px"
   width="512px"
   height="512px"
   viewBox="0 0 97.391 97.391"
   style="enable-background:new 0 0 97.391 97.391;"
   xml:space="preserve"
   sodipodi:docname="information.svg"
   inkscape:version="0.92.2 2405546, 2018-03-11"><metadata
   id="metadata41"><rdf:RDF><cc:Work
       rdf:about=""><dc:format>image/svg+xml</dc:format><dc:type
         rdf:resource="http://purl.org/dc/dcmitype/StillImage" /></cc:Work></rdf:RDF></metadata><defs
   id="defs39">
	
</defs><sodipodi:namedview
   pagecolor="#ffffff"
   bordercolor="#666666"
   borderopacity="1"
   objecttolerance="10"
   gridtolerance="10"
   guidetolerance="10"
   inkscape:pageopacity="0"
   inkscape:pageshadow="2"
   inkscape:window-width="2485"
   inkscape:window-height="1399"
   id="namedview37"
   showgrid="false"
   inkscape:zoom="0.921875"
   inkscape:cx="206.39808"
   inkscape:cy="10.367149"
   inkscape:window-x="75"
   inkscape:window-y="0"
   inkscape:window-maximized="1"
   inkscape:current-layer="Capa_1" />

<g
   id="g6">
</g>
<g
   id="g8">
</g>
<g
   id="g10">
</g>
<g
   id="g12">
</g>
<g
   id="g14">
</g>
<g
   id="g16">
</g>
<g
   id="g18">
</g>
<g
   id="g20">
</g>
<g
   id="g22">
</g>
<g
   id="g24">
</g>
<g
   id="g26">
</g>
<g
   id="g28">
</g>
<g
   id="g30">
</g>
<g
   id="g32">
</g>
<g
   id="g34">
</g>
<g
   id="g881"
   transform="matrix(0.9403586,0,0,0.9403586,3.3013898,3.9164112)"><path
     sodipodi:nodetypes="ccccccccccssscscccccccccccccccccccccccccccccc"
     d="m 0,7.573 h 17.5 v 8.75 H 0 Z m 0,12.25 H 17.5 V 79.324 H 0 Z m 3.208,48.489 c 0,3.021 2.447,5.47 5.469,5.47 3.021,0 5.469,-2.447 5.469,-5.47 0,-3.023 -2.448,-5.47 -5.469,-5.47 -3.022,0.001 -5.469,2.451 -5.469,5.47 z M 0,89.824 h 17.5 v -7 H 0 Z M 49,16.323 H 66.5 V 7.573 H 49 Z m 0,73.501 h 17.5 v -7 H 49 Z m 0,-19.25 H 66.5 V 28.573 H 49 Z m 0,8.75 h 17.5 v -5.25 H 49 Z m 0,-54.251 h 17.5 v -5.25 H 49 Z"
     id="path2"
     inkscape:connector-curvature="0"
     style="fill:#18bc9c" /><path
     sodipodi:nodetypes="cccccccccccccccscccccccccccccccccccccccc"
     d="m 20.744531,81.272362 v 1.225 7 h 22.749997 v -8.268 c -0.928998,-0.664 -3.814997,-2.232 -10.499997,-2.232 -6.337001,-9.5e-4 -10.384002,1.419 -12.25,2.275 z m 0,-50.343 c 1.865998,0.854001 5.912999,2.276001 12.25,2.276001 6.643,-9.51e-4 9.536,-1.55 10.499997,-2.244999 V 24.745363 H 20.744531 Z m 0,3.789001 v 42.763999 c 2.534,-0.948 6.591999,-1.985 12.25,-1.985 5.104998,0 8.417,0.854 10.499997,1.767 V 34.940363 c -2.082997,0.910001 -5.394999,1.765001 -10.499997,1.765001 -5.658001,-0.002 -9.716,-1.039001 -12.25,-1.987001 z m 59.858997,-27.8660004 -12,2.462 1.76,8.5710004 12,-2.462 z m 14.42,70.2889994 -11.998,2.463 -11.961,-58.288999 12,-2.462 z m -4.163,-10.388998 c -0.607,-2.957 -2.972,-4.971 -5.275,-4.498 -2.307,0.475 -3.688,3.258 -3.077,6.215 0.606,2.957 2.969,4.972998 5.274,4.497998 2.308,-0.472998 3.687,-3.253998 3.078,-6.214998 z m 4.868,13.812998 -12.002,2.464 1.408,6.854 12,-2.463 z"
     id="path2-3"
     inkscape:connector-curvature="0"
     style="fill:#6a6c6c;fill-opacity:1;stroke-width:1" /></g></svg>