<?xml version="1.0" encoding="UTF-8" standalone="no"?>
<!-- Generator: Adobe Illustrator 16.0.0, SVG Export Plug-In . SVG Version: 6.00 Build 0)  -->

<svg
   xmlns:dc="http://purl.org/dc/elements/1.1/"
   xmlns:cc="http://creativecommons.org/ns#"
   xmlns:rdf="http://www.w3.org/1999/02/22-rdf-syntax-ns#"
   xmlns:svg="http://www.w3.org/2000/svg"
   xmlns="http://www.w3.org/2000/svg"
   xmlns:sodipodi="http://sodipodi.sourceforge.net/DTD/sodipodi-0.dtd"
   xmlns:inkscape="http://www.inkscape.org/namespaces/inkscape"
   version="1.1"
   id="Capa_1"
   x="0px"
   y="0px"
   width="512px"
   height="512px"
   viewBox="0 0 97.391 97.391"
   style="enable-background:new 0 0 97.391 97.391;"
   xml:space="preserve"
   sodipodi:docname="information.svg"
   inkscape:version="0.92.2 2405546, 2018-03-11"><metadata
   id="metadata41"><rdf:RDF><cc:Work
       rdf:about=""><dc:format>image/svg+xml</dc:format><dc:type
         rdf:resource="http://purl.org/dc/dcmitype/StillImage" /></cc:Work></rdf:RDF></metadata><defs
   id="defs39">
	
</defs><sodipodi:namedview
   pagecolor="#ffffff"
   bordercolor="#666666"
   borderopacity="1"
   objecttolerance="10"
   gridtolerance="10"
   guidetolerance="10"
   inkscape:pageopacity="0"
   inkscape:pageshadow="2"
   inkscape:window-width="2560"
   inkscape:window-height="1347"
   id="namedview37"
   showgrid="false"
   inkscape:zoom="0.65186406"
   inkscape:cx="-641.9784"
   inkscape:cy="53.75189"
   inkscape:window-x="0"
   inkscape:window-y="0"
   inkscape:window-maximized="1"
   inkscape:current-layer="Capa_1" />

<g
   id="g6">
</g>
<g
   id="g8">
</g>
<g
   id="g10">
</g>
<g
   id="g12">
</g>
<g
   id="g14">
</g>
<g
   id="g16">
</g>
<g
   id="g18">
</g>
<g
   id="g20">
</g>
<g
   id="g22">
</g>
<g
   id="g24">
</g>
<g
   id="g26">
</g>
<g
   id="g28">
</g>
<g
   id="g30">
</g>
<g
   id="g32">
</g>
<g
   id="g34">
</g>
<g
   id="g865"
   transform="matrix(34.692624,0,0,34.692624,385.62196,26.567518)"><path
     style="fill:#2780e3;fill-opacity:1;stroke-width:0.06145703"
     id="path2-3-3"
     d="m -10.416869,-0.38830641 h 1.7914726 v -0.11369551 c 0,-0.0841961 -0.068217,-0.15179887 -0.1517988,-0.15179887 h -1.6396738 c -0.209568,0 -0.37919,0.16962141 -0.37919,0.37918988 V 1.5482046 c 0,0.2095685 0.169622,0.3791899 0.37919,0.3791899 h 1.6396738 c 0.083581,0 0.1517988,-0.067603 0.1517988,-0.1517989 v -1.936511 h -1.7914726 c -0.06269,0 -0.113695,-0.0510093 -0.113695,-0.11369551 0,-0.0626862 0.05101,-0.1136955 0.113695,-0.1136955 z m 0.352149,1.62799671 0.2562757,-0.061457 v -0.078665 h 6.146e-4 c -0.090956,-0.049166 -0.13582,-0.13950749 -0.1567154,-0.22739099 -0.080509,-0.006146 -0.066374,-0.1112372 -0.066374,-0.1112372 0,-0.053468 0.02766,-0.070061 0.049781,-0.074978 0.00123,-0.031958 0.00369,-0.051624 0.00369,-0.051624 0,-0.39885616 0.3423157,-0.34477397 0.3423157,-0.34477397 0,0 0.070676,-0.0116768 0.1481115,0.0141351 0.0928,0.0301139 0.1948188,0.11308097 0.1948188,0.33063887 0,0 0.00246,0.020281 0.00369,0.051624 0.022124,0.00492 0.04978,0.02151 0.04978,0.074978 0,0 0.014135,0.1050915 -0.066374,0.1112372 -0.020895,0.088498 -0.065759,0.17883989 -0.1567155,0.22739099 h 6.146e-4 v 0.078665 l 0.2562758,0.061457 c 0.125987,0.045478 0,0.2599633 0,0.2599633 h -0.4295862 -0.4295856 c -6.14e-4,6.145e-4 -0.126601,-0.2144851 -6.14e-4,-0.2599633 z"
     inkscape:connector-curvature="0" /></g></svg>