<?xml version="1.0" encoding="UTF-8" standalone="no"?>
<svg
   xmlns:dc="http://purl.org/dc/elements/1.1/"
   xmlns:cc="http://creativecommons.org/ns#"
   xmlns:rdf="http://www.w3.org/1999/02/22-rdf-syntax-ns#"
   xmlns:svg="http://www.w3.org/2000/svg"
   xmlns="http://www.w3.org/2000/svg"
   xmlns:sodipodi="http://sodipodi.sourceforge.net/DTD/sodipodi-0.dtd"
   xmlns:inkscape="http://www.inkscape.org/namespaces/inkscape"
   inkscape:version="1.0 (4035a4fb49, 2020-05-01)"
   height="24"
   width="24"
   sodipodi:docname="information.svg"
   xml:space="preserve"
   viewBox="0 0 24 24"
   y="0px"
   x="0px"
   id="Capa_1"
   version="1.1"><metadata
   id="metadata69"><rdf:RDF><cc:Work
       rdf:about=""><dc:format>image/svg+xml</dc:format><dc:type
         rdf:resource="http://purl.org/dc/dcmitype/StillImage" /><dc:title></dc:title></cc:Work></rdf:RDF></metadata><defs
   id="defs67" /><sodipodi:namedview
   inkscape:current-layer="Capa_1"
   inkscape:window-maximized="1"
   inkscape:window-y="0"
   inkscape:window-x="0"
   inkscape:cy="14.194004"
   inkscape:cx="10.359303"
   inkscape:zoom="22.273864"
   showgrid="false"
   id="namedview65"
   inkscape:window-height="1417"
   inkscape:window-width="2560"
   inkscape:pageshadow="2"
   inkscape:pageopacity="0"
   guidetolerance="10"
   gridtolerance="10"
   objecttolerance="10"
   borderopacity="1"
   bordercolor="#666666"
   pagecolor="#ffffff" />
<path
   id="path2"
   d="M 21,3.9950156 C 21,4.485 21.005,5.5000312 21.005,5.5000312 H 11.499984 V 3.5000156 H 20.505 c 0.267797,-0.00558 0.489422,0.207 0.495,0.4747969 1.41e-4,0.0067 1.41e-4,0.013453 0,0.020203 z"
   style="fill:#ffce51;stroke-width:0.046875" />
<path
   id="path4"
   d="m 22.5,5.4999844 c 0.551625,0.00164 0.998344,0.4484062 0.999984,0.9999843 V 22.5 C 23.498344,23.051625 23.051578,23.498344 22.5,23.499984 H 1.5 C 0.94842187,23.498344 0.50165625,23.051578 0.50001563,22.5 V 1.5 C 0.50165625,0.94842187 0.94842187,0.50165625 1.5,0.50001562 h 9 C 11.051578,0.50165625 11.498344,0.94842187 11.499984,1.5 v 3.9999844 z"
   style="fill:#ffe451;stroke-width:0.046875" />
<path
   id="path6"
   d="M 13.5,14.000016 V 15 c 0,0.276141 -0.223875,0.500016 -0.500016,0.500016 h -2.000015 v 2.000015 c 0,0.276141 -0.223875,0.500016 -0.500016,0.500016 H 9.4999688 c -0.2761407,0 -0.5000157,-0.223875 -0.5000157,-0.500016 V 15.500016 H 6.9999375 C 6.7237969,15.500016 6.4999219,15.276141 6.4999219,15 V 14.000016 C 6.4999219,13.723875 6.7237969,13.5 6.9999375,13.5 H 9 v -2.000016 c 0,-0.27614 0.223875,-0.500015 0.5000156,-0.500015 H 10.5 c 0.276141,0 0.500016,0.223875 0.500016,0.500015 V 13.5 h 2.000015 C 13.276125,13.5 13.5,13.723875 13.5,14.000016 Z"
   style="fill:#f2f2f2;stroke-width:0.046875" />
<path
   id="path8"
   d="M 9.9999844,8.0000156 C 13.589859,8.0000156 16.5,10.910156 16.5,14.499984 16.5,18.089812 13.589859,21 9.9999844,21 6.4101094,21 3.5000156,18.089859 3.5000156,14.499984 c 0,-3.589875 2.9101406,-6.4999684 6.4999688,-6.4999684 z M 13.5,15 V 14.000016 C 13.5,13.723875 13.276125,13.5 12.999984,13.5 h -2.000015 v -2.000016 c 0,-0.27614 -0.223875,-0.500015 -0.500016,-0.500015 H 9.4999688 c -0.2761407,0 -0.5000157,0.223875 -0.5000157,0.500015 V 13.5 H 6.9999375 c -0.2761406,0 -0.5000156,0.223875 -0.5000156,0.500016 V 15 c 0,0.276141 0.223875,0.500016 0.5000156,0.500016 H 9 v 2.000015 c 0,0.276141 0.223875,0.500016 0.5000156,0.500016 H 10.5 c 0.276141,0 0.500016,-0.223875 0.500016,-0.500016 v -2.000015 h 2.000015 C 13.276125,15.500016 13.5,15.276141 13.5,15 Z"
   style="fill:#69f0f7;stroke-width:0.046875" />
<path
   id="path10"
   d="m 15.500016,14.499984 h 6 v 6 h -6 z"
   style="fill:#f2f2f2;stroke-width:0.046875" />
<path
   id="path12"
   d="M 15.999984,7.5 H 21 v 2.0000156 h -5.000016 z"
   style="fill:#aac4da;stroke-width:0.046875" />
<path
   id="path14"
   d="M 15,11.499984 V 9.4999688 h 6.999984 v 2.0000152 h 0.999985 c 0.27614,0 0.500015,0.223875 0.500015,0.500016 v 11.000016 c 0,0.27614 -0.223875,0.500015 -0.500015,0.500015 h -9 c -0.276141,0 -0.500016,-0.223875 -0.500016,-0.500015 V 12 c 0,-0.276141 0.223875,-0.500016 0.500016,-0.500016 z m 6.500016,9 v -6 h -6 v 6 z"
   style="fill:#d9eef7;stroke-width:0.046875" />
<g
   transform="scale(0.046875)"
   id="g32">
	<path
   id="path16"
   d="M 480,106.667 H 458.741 C 458.666,99.68 458.666,90.859 458.666,85.195 458.916,73.74 449.833,64.25 438.377,64 c -0.302,-0.007 -0.604,-0.007 -0.906,0 H 256 V 32 C 256,14.327 241.673,0 224,0 H 32 C 14.327,0 0,14.327 0,32 v 448 c 0,17.673 14.327,32 32,32 H 256 V 490.667 H 32 c -5.891,0 -10.667,-4.776 -10.667,-10.667 V 32 c 0,-5.891 4.776,-10.667 10.667,-10.667 h 192 c 5.891,0 10.667,4.776 10.667,10.667 v 74.667 H 96 V 128 h 384 c 5.891,0 10.667,4.776 10.667,10.667 v 74.667 H 512 v -74.667 c 0,-17.673 -14.327,-32 -32,-32 z M 256,85.333 437.333,85.514 c 0,5.675 0,14.272 0.075,21.141 H 256 Z"
   style="fill:#4c5b66" />
	<path
   id="path18"
   d="M 490.667,234.667 H 480 v -32 C 480,196.776 475.224,192 469.333,192 h -10.667 v -32 c 0,-5.891 -4.776,-10.667 -10.667,-10.667 H 341.333 c -5.891,0 -10.667,4.776 -10.667,10.667 v 32 H 320 c -5.891,0 -10.667,4.776 -10.667,10.667 v 32 h -10.667 c -11.782,0 -21.333,9.551 -21.333,21.333 v 234.667 c 0,11.782 9.551,21.333 21.333,21.333 h 192 c 11.782,0 21.333,-9.551 21.333,-21.333 V 256 C 512,244.218 502.449,234.667 490.667,234.667 Z M 352,170.667 h 85.333 V 192 H 352 Z m 138.667,320 h -192 V 256 H 437.334 V 234.667 H 330.667 v -21.333 h 128 v 32 c 0,5.891 4.776,10.667 10.667,10.667 h 21.333 z"
   style="fill:#4c5b66" />
	<path
   id="path20"
   d="m 458.667,298.667 h -128 c -5.891,0 -10.667,4.776 -10.667,10.667 v 128 c 0,5.891 4.776,10.667 10.667,10.667 h 128 c 5.891,0 10.667,-4.776 10.667,-10.667 v -128 c -10e-4,-5.892 -4.776,-10.667 -10.667,-10.667 z M 448,426.667 H 341.333 V 320 H 448 Z"
   style="fill:#4c5b66" />
	<path
   id="path22"
   d="M 362.667,341.333 H 384 v 21.333 h -21.333 z"
   style="fill:#4c5b66" />
	<path
   id="path24"
   d="m 405.333,341.333 h 21.333 v 21.333 h -21.333 z"
   style="fill:#4c5b66" />
	<path
   id="path26"
   d="m 362.667,384 h 64 v 21.333 h -64 z"
   style="fill:#4c5b66" />
	<path
   id="path28"
   d="M 213.333,181.333 V 160 C 130.859,160 64,226.859 64,309.333 c 0,82.474 66.859,149.333 149.333,149.333 v -21.333 c -70.692,0 -128,-57.308 -128,-128 0,-70.692 57.308,-128 128,-128 z"
   style="fill:#4c5b66" />
	<path
   id="path30"
   d="M 245.333,245.333 C 245.333,233.551 235.782,224 224,224 h -21.333 c -11.782,0 -21.333,9.551 -21.333,21.333 v 32 h -32 c -11.782,0 -21.333,9.551 -21.333,21.333 V 320 c 0,11.782 9.551,21.333 21.333,21.333 h 32 v 32 c 0,11.782 9.551,21.333 21.333,21.333 H 224 c 11.782,0 21.333,-9.551 21.333,-21.333 v -32 H 256 V 320 H 234.667 C 228.776,320 224,324.776 224,330.667 v 42.667 H 202.667 V 330.667 C 202.667,324.776 197.891,320 192,320 H 149.333 V 298.667 H 192 c 5.891,0 10.667,-4.776 10.667,-10.667 V 245.333 H 224 V 288 c 0,5.891 4.776,10.667 10.667,10.667 H 256 v -21.333 h -10.667 z"
   style="fill:#4c5b66" />
</g>
<g
   id="g34">
</g>
<g
   id="g36">
</g>
<g
   id="g38">
</g>
<g
   id="g40">
</g>
<g
   id="g42">
</g>
<g
   id="g44">
</g>
<g
   id="g46">
</g>
<g
   id="g48">
</g>
<g
   id="g50">
</g>
<g
   id="g52">
</g>
<g
   id="g54">
</g>
<g
   id="g56">
</g>
<g
   id="g58">
</g>
<g
   id="g60">
</g>
<g
   id="g62">
</g>
</svg>
