<?xml version="1.0" encoding="iso-8859-1"?>
<!-- Generator: Adobe Illustrator 19.0.0, SVG Export Plug-In . SVG Version: 6.00 Build 0)  -->
<svg version="1.1" id="Capa_1" xmlns="http://www.w3.org/2000/svg" xmlns:xlink="http://www.w3.org/1999/xlink" x="0px" y="0px"
	 viewBox="0 0 512 512" style="enable-background:new 0 0 512 512;" xml:space="preserve">
<path style="fill:#FFCE51;" d="M448,85.227c0,10.453,0.107,32.107,0.107,32.107H245.333V74.667H437.44
	c5.713-0.119,10.441,4.416,10.56,10.129C448.003,84.939,448.003,85.083,448,85.227z"/>
<path style="fill:#FFE451;" d="M480,117.333c11.768,0.035,21.298,9.566,21.333,21.333V480c-0.035,11.768-9.566,21.298-21.333,21.333
	H32c-11.767-0.035-21.298-9.566-21.333-21.333V32C10.702,20.233,20.233,10.702,32,10.667h192
	c11.767,0.035,21.298,9.566,21.333,21.333v85.333H480z"/>
<path style="fill:#F2F2F2;" d="M288,298.667V320c0,5.891-4.776,10.667-10.667,10.667h-42.667v42.667
	c0,5.891-4.776,10.667-10.667,10.667h-21.333c-5.891,0-10.667-4.776-10.667-10.667v-42.667h-42.667
	c-5.891,0-10.667-4.776-10.667-10.667v-21.333c0-5.891,4.776-10.667,10.667-10.667H192v-42.667c0-5.891,4.776-10.667,10.667-10.667
	H224c5.891,0,10.667,4.776,10.667,10.667V288h42.667C283.224,288,288,292.776,288,298.667z"/>
<path style="fill:#69F0F7;" d="M213.333,170.667C289.917,170.667,352,232.75,352,309.333S289.917,448,213.333,448
	S74.667,385.917,74.667,309.333S136.75,170.667,213.333,170.667z M288,320v-21.333c0-5.891-4.776-10.667-10.667-10.667h-42.667
	v-42.667c0-5.891-4.776-10.667-10.667-10.667h-21.333c-5.891,0-10.667,4.776-10.667,10.667V288h-42.667
	c-5.891,0-10.667,4.776-10.667,10.667V320c0,5.891,4.776,10.667,10.667,10.667H192v42.667c0,5.891,4.776,10.667,10.667,10.667H224
	c5.891,0,10.667-4.776,10.667-10.667v-42.667h42.667C283.224,330.667,288,325.891,288,320z"/>
<path style="fill:#F2F2F2;" d="M330.667,309.333h128v128h-128V309.333z"/>
<path style="fill:#AAC4DA;" d="M341.333,160H448v42.667H341.333V160z"/>
<path style="fill:#D9EEF7;" d="M320,245.333v-42.667h149.333v42.667h21.333c5.891,0,10.667,4.776,10.667,10.667v234.667
	c0,5.891-4.776,10.667-10.667,10.667h-192c-5.891,0-10.667-4.776-10.667-10.667V256c0-5.891,4.776-10.667,10.667-10.667H320z
	 M458.667,437.333v-128h-128v128H458.667z"/>
<g>
	<path style="fill:#4C5B66;" d="M480,106.667h-21.259c-0.075-6.987-0.075-15.808-0.075-21.472
		c0.25-11.455-8.833-20.945-20.289-21.195c-0.302-0.007-0.604-0.007-0.906,0H256V32c0-17.673-14.327-32-32-32H32
		C14.327,0,0,14.327,0,32v448c0,17.673,14.327,32,32,32h224v-21.333H32c-5.891,0-10.667-4.776-10.667-10.667V32
		c0-5.891,4.776-10.667,10.667-10.667h192c5.891,0,10.667,4.776,10.667,10.667v74.667H96V128h384
		c5.891,0,10.667,4.776,10.667,10.667v74.667H512v-74.667C512,120.994,497.673,106.667,480,106.667z M256,85.333l181.333,0.181
		c0,5.675,0,14.272,0.075,21.141H256V85.333z"/>
	<path style="fill:#4C5B66;" d="M490.667,234.667H480v-32c0-5.891-4.776-10.667-10.667-10.667h-10.667v-32
		c0-5.891-4.776-10.667-10.667-10.667H341.333c-5.891,0-10.667,4.776-10.667,10.667v32H320c-5.891,0-10.667,4.776-10.667,10.667v32
		h-10.667c-11.782,0-21.333,9.551-21.333,21.333v234.667c0,11.782,9.551,21.333,21.333,21.333h192
		c11.782,0,21.333-9.551,21.333-21.333V256C512,244.218,502.449,234.667,490.667,234.667z M352,170.667h85.333V192H352V170.667z
		 M490.667,490.667h-192V256h138.667v-21.333H330.667v-21.333h128v32c0,5.891,4.776,10.667,10.667,10.667h21.333V490.667z"/>
	<path style="fill:#4C5B66;" d="M458.667,298.667h-128c-5.891,0-10.667,4.776-10.667,10.667v128c0,5.891,4.776,10.667,10.667,10.667
		h128c5.891,0,10.667-4.776,10.667-10.667v-128C469.333,303.442,464.558,298.667,458.667,298.667z M448,426.667H341.333V320H448
		V426.667z"/>
	<path style="fill:#4C5B66;" d="M362.667,341.333H384v21.333h-21.333V341.333z"/>
	<path style="fill:#4C5B66;" d="M405.333,341.333h21.333v21.333h-21.333V341.333z"/>
	<path style="fill:#4C5B66;" d="M362.667,384h64v21.333h-64V384z"/>
	<path style="fill:#4C5B66;" d="M213.333,181.333V160C130.859,160,64,226.859,64,309.333s66.859,149.333,149.333,149.333v-21.333
		c-70.692,0-128-57.308-128-128S142.641,181.333,213.333,181.333z"/>
	<path style="fill:#4C5B66;" d="M245.333,245.333c0-11.782-9.551-21.333-21.333-21.333h-21.333
		c-11.782,0-21.333,9.551-21.333,21.333v32h-32c-11.782,0-21.333,9.551-21.333,21.333V320c0,11.782,9.551,21.333,21.333,21.333h32
		v32c0,11.782,9.551,21.333,21.333,21.333H224c11.782,0,21.333-9.551,21.333-21.333v-32H256V320h-21.333
		c-5.891,0-10.667,4.776-10.667,10.667v42.667h-21.333v-42.667c0-5.891-4.776-10.667-10.667-10.667h-42.667v-21.333H192
		c5.891,0,10.667-4.776,10.667-10.667v-42.667H224V288c0,5.891,4.776,10.667,10.667,10.667H256v-21.333h-10.667V245.333z"/>
</g>
<g>
</g>
<g>
</g>
<g>
</g>
<g>
</g>
<g>
</g>
<g>
</g>
<g>
</g>
<g>
</g>
<g>
</g>
<g>
</g>
<g>
</g>
<g>
</g>
<g>
</g>
<g>
</g>
<g>
</g>
</svg>
