<?xml version="1.0" encoding="UTF-8" standalone="no"?>
<svg
   xmlns:dc="http://purl.org/dc/elements/1.1/"
   xmlns:cc="http://creativecommons.org/ns#"
   xmlns:rdf="http://www.w3.org/1999/02/22-rdf-syntax-ns#"
   xmlns:svg="http://www.w3.org/2000/svg"
   xmlns="http://www.w3.org/2000/svg"
   xmlns:sodipodi="http://sodipodi.sourceforge.net/DTD/sodipodi-0.dtd"
   xmlns:inkscape="http://www.inkscape.org/namespaces/inkscape"
   inkscape:version="1.0 (4035a4fb49, 2020-05-01)"
   sodipodi:docname="lifestyle.svg"
   height="24"
   width="24"
   xml:space="preserve"
   viewBox="0 0 3 3"
   y="0px"
   x="0px"
   id="Layer_1_1_"
   version="1.1"><metadata
   id="metadata41"><rdf:RDF><cc:Work
       rdf:about=""><dc:format>image/svg+xml</dc:format><dc:type
         rdf:resource="http://purl.org/dc/dcmitype/StillImage" /><dc:title></dc:title></cc:Work></rdf:RDF></metadata><defs
   id="defs39" /><sodipodi:namedview
   inkscape:current-layer="Layer_1_1_"
   inkscape:window-maximized="1"
   inkscape:window-y="0"
   inkscape:window-x="0"
   inkscape:cy="24.889543"
   inkscape:cx="33.303498"
   inkscape:zoom="15.75"
   showgrid="false"
   id="namedview37"
   inkscape:window-height="1417"
   inkscape:window-width="2560"
   inkscape:pageshadow="2"
   inkscape:pageopacity="0"
   guidetolerance="10"
   gridtolerance="10"
   objecttolerance="10"
   borderopacity="1"
   bordercolor="#666666"
   pagecolor="#ffffff" />
<g
   transform="matrix(0.04747408,0,0,0.04747408,-0.01997657,-0.02490464)"
   id="g34">
	<g
   id="g30">
		<polygon
   id="polygon2"
   points="59.4,57.85 61,62 3,62 4.6,57.85 5,58 52,58 59,58 "
   style="fill:#fcd770" />
		<polygon
   id="polygon4"
   points="51,36 13,36 4.6,57.85 5,58 52,58 59,58 59.4,57.85 "
   style="fill:#e6e9ed" />
		<path
   id="path6"
   d="M 35,5 C 35,5.58 34.84,6.12 34.56,6.57 33.79,6.2 32.92,6 32,6 31.08,6 30.21,6.2 29.44,6.57 29.16,6.12 29,5.58 29,5 c 0,-1.66 1.34,-3 3,-3 1.66,0 3,1.34 3,3 z"
   style="fill:#b27946" />
		<path
   id="path8"
   d="m 34.56,6.57 c 0.63,0.3 1.2,0.7 1.68,1.19 C 37.33,8.84 38,10.34 38,12 h -1.59 c -0.9,0 -1.77,-0.36 -2.41,-1 -1.32,0.66 -2.77,1 -4.24,1 H 26 C 26,9.61 27.41,7.53 29.44,6.57 30.21,6.2 31.08,6 32,6 c 0.92,0 1.79,0.2 2.56,0.57 z"
   style="fill:#b27946" />
		<path
   id="path10"
   d="m 48.35,42.4 c 0.42,0.67 0.65,1.46 0.65,2.27 0,0.11 0,0.22 -0.01,0.33 H 35 L 34.71,44.71 C 34.25,44.25 33.64,44 33,44 c -0.64,0 -1.25,0.25 -1.71,0.71 L 31,45 H 27 15.02 C 15,44.89 15,44.78 15,44.67 15,43.04 15.93,41.54 17.39,40.8 L 21,39 c 0,0.55 0.45,1 1,1 h 10 3 7 c 0.55,0 1,-0.45 1,-1 l 3.61,1.8 c 0.73,0.37 1.33,0.93 1.74,1.6 z"
   style="fill:#838f9b" />
		<path
   id="path12"
   d="M 44,27.21 V 30 h -1 -4 v -7 l 0.02,-0.11 1.85,0.41 C 42.7,23.71 44,25.33 44,27.21 Z"
   style="fill:#b4dd7f" />
		<path
   id="path14"
   d="M 39.02,22.89 39,23 v 7 6 H 33 32 25 V 30 23 L 24.98,22.89 29,22 c 0,0 0.75,2 3,2 2.25,0 3,-2 3,-2 z"
   style="fill:#b4dd7f" />
		<path
   id="path16"
   d="m 25,23 v 7 h -4 -1 v -2.79 c 0,-1.88 1.3,-3.5 3.13,-3.91 l 1.85,-0.41 z"
   style="fill:#b4dd7f" />
		<path
   id="path18"
   d="m 35,45 h 13.99 c -0.17,2.24 -2.04,4 -4.32,4 H 38 29 C 28.17,49 27.42,48.66 26.88,48.12 26.34,47.58 26,46.83 26,46 c 0,-0.55 0.45,-1 1,-1 h 4 l 0.29,-0.29 C 31.75,44.25 32.36,44 33,44 c 0.64,0 1.25,0.25 1.71,0.71 z"
   style="fill:#f0d0b4" />
		<path
   id="path20"
   d="M 29,49 H 19.33 C 18.14,49 17.05,48.52 16.27,47.73 15.55,47.02 15.09,46.06 15.02,45 H 27 c -0.55,0 -1,0.45 -1,1 0,0.83 0.34,1.58 0.88,2.12 C 27.42,48.66 28.17,49 29,49 Z"
   style="fill:#f0d0b4" />
		<path
   id="path22"
   d="m 33,36 c 1.66,0 3,1.34 3,3 0,0.55 -0.45,1 -1,1 H 32 22 c -0.55,0 -1,-0.45 -1,-1 v -3 -6 h 4 v 6 h 7 z"
   style="fill:#f0d0b4" />
		<path
   id="path24"
   d="m 43,36 v 3 c 0,0.55 -0.45,1 -1,1 h -7 c 0.55,0 1,-0.45 1,-1 0,-1.66 -1.34,-3 -3,-3 h 6 v -6 h 4 z"
   style="fill:#f0d0b4" />
		<path
   id="path26"
   d="M 35,19.19 V 22 c 0,0 -0.75,2 -3,2 -2.25,0 -3,-2 -3,-2 v -2.81 c 0.88,0.52 1.91,0.81 3,0.81 1.1,0 2.12,-0.29 3,-0.81 z"
   style="fill:#f0d0b4" />
		<path
   id="path28"
   d="M 35,19.19 C 34.12,19.71 33.1,20 32,20 30.91,20 29.88,19.71 29,19.19 27.21,18.16 26,16.22 26,14 v -2 h 3.76 c 1.47,0 2.92,-0.34 4.24,-1 0.64,0.64 1.51,1 2.41,1 H 38 v 2 c 0,2.22 -1.21,4.16 -3,5.19 z"
   style="fill:#f0d0b4" />
	</g>
	<path
   id="path32"
   d="M 51.687,35 H 44 v -4 h 1 v -3.791 c 0,-2.361 -1.61,-4.368 -3.916,-4.882 L 36,21.198 V 19.736 C 37.811,18.469 39,16.372 39,14 V 12 C 39,9.549 37.731,7.391 35.818,6.14 35.928,5.772 36,5.392 36,5 36,2.794 34.206,1 32,1 29.794,1 28,2.794 28,5 28,5.392 28.072,5.772 28.182,6.14 26.269,7.391 25,9.549 25,12 v 2 c 0,2.372 1.189,4.47 3,5.736 v 1.462 l -5.085,1.129 C 20.61,22.841 19,24.848 19,27.209 V 31 h 1 v 4 H 12.313 L 1.544,63 H 62.456 Z M 27,46 h 4.414 L 32,45.414 c 0.527,-0.525 1.474,-0.525 2,0 L 34.586,46 H 43 v -2 h -7.586 c -1.271,-1.271 -3.555,-1.271 -4.828,0 H 27 21 v 2 h 4 c 0,0.732 0.212,1.409 0.556,2 h -6.23 C 17.492,48 16,46.508 16,44.674 c 0,-1.269 0.705,-2.408 1.839,-2.975 l 2.696,-1.348 C 20.9,40.747 21.419,41 22,41 h 10 3 7 c 0.581,0 1.1,-0.253 1.465,-0.649 l 2.696,1.348 C 47.295,42.266 48,43.405 48,44.674 48,46.508 46.508,48 44.674,48 H 38 29 c -1.103,0 -2,-0.897 -2,-2 z m 15,-7 h -5 c 0,-0.732 -0.212,-1.409 -0.556,-2 H 40 v -6 h 2 z M 43,27.209 V 29 h -3 v -4.864 l 0.65,0.145 C 42.034,24.588 43,25.792 43,27.209 Z M 36.899,11 h -0.485 c -0.645,0 -1.251,-0.251 -1.707,-0.707 l -0.51,-0.51 -0.645,0.322 C 32.382,10.69 31.071,11 29.764,11 H 27.101 C 27.566,8.721 29.586,7 32,7 c 2.414,0 4.434,1.721 4.899,4 z M 30,5 c 0,-1.103 0.897,-2 2,-2 1.103,0 2,0.897 2,2 0,0.097 -0.013,0.193 -0.026,0.288 C 33.347,5.103 32.686,5 32,5 31.314,5 30.653,5.103 30.026,5.288 30.013,5.193 30,5.097 30,5 Z m -3,9 v -1 h 2.764 c 1.394,0 2.791,-0.284 4.077,-0.826 C 34.585,12.71 35.478,13 36.414,13 H 37 v 1 c 0,2.757 -2.243,5 -5,5 -2.757,0 -5,-2.243 -5,-5 z m 5,7 c 0.695,0 1.366,-0.105 2,-0.295 V 21.78 C 33.818,22.135 33.249,23 32,23 30.751,23 30.182,22.135 30,21.781 V 20.706 C 30.634,20.895 31.305,21 32,21 Z m -3.508,2.137 C 29.024,23.919 30.1,25 32,25 c 1.9,0 2.976,-1.081 3.508,-1.863 L 38,23.691 V 35 H 33 32 26 V 23.691 Z M 21,27.209 c 0,-1.417 0.966,-2.621 2.349,-2.929 L 24,24.136 V 29 H 21 Z M 24,31 v 6 h 8 1 c 1.103,0 2,0.897 2,2 H 32 22 V 31 Z M 5.225,59 H 50 V 57 H 5.995 L 13.687,37 H 20 v 1.382 L 16.945,39.91 C 15.128,40.817 14,42.643 14,44.674 14,47.61 16.389,50 19.326,50 H 29 38 44.674 C 47.611,50 50,47.61 50,44.674 50,42.643 48.872,40.818 47.056,39.91 L 44,38.382 V 37 h 6.313 l 7.692,20 H 52 v 2 h 6.775 l 0.769,2 H 4.456 Z" />
</g>
</svg>
