<?xml version="1.0" encoding="iso-8859-1"?>
<!-- Generator: Adobe Illustrator 22.1.0, SVG Export Plug-In . SVG Version: 6.00 Build 0)  -->
<svg xmlns="http://www.w3.org/2000/svg" xmlns:xlink="http://www.w3.org/1999/xlink" version="1.1" id="Layer_1_1_" x="0px" y="0px" viewBox="0 0 64 64" style="enable-background:new 0 0 64 64;" xml:space="preserve" width="512" height="512">
<g>
	<g>
		<polygon style="fill:#FCD770;" points="59.4,57.85 61,62 3,62 4.6,57.85 5,58 52,58 59,58   "/>
		<polygon style="fill:#E6E9ED;" points="51,36 13,36 4.6,57.85 5,58 52,58 59,58 59.4,57.85   "/>
		<path style="fill:#B27946;" d="M35,5c0,0.58-0.16,1.12-0.44,1.57C33.79,6.2,32.92,6,32,6c-0.92,0-1.79,0.2-2.56,0.57    C29.16,6.12,29,5.58,29,5c0-1.66,1.34-3,3-3S35,3.34,35,5z"/>
		<path style="fill:#B27946;" d="M34.56,6.57c0.63,0.3,1.2,0.7,1.68,1.19C37.33,8.84,38,10.34,38,12h-1.59c-0.9,0-1.77-0.36-2.41-1    c-1.32,0.66-2.77,1-4.24,1H26c0-2.39,1.41-4.47,3.44-5.43C30.21,6.2,31.08,6,32,6C32.92,6,33.79,6.2,34.56,6.57z"/>
		<path style="fill:#838F9B;" d="M48.35,42.4c0.42,0.67,0.65,1.46,0.65,2.27c0,0.11,0,0.22-0.01,0.33H35l-0.29-0.29    C34.25,44.25,33.64,44,33,44s-1.25,0.25-1.71,0.71L31,45h-4H15.02C15,44.89,15,44.78,15,44.67c0-1.63,0.93-3.13,2.39-3.87L21,39    c0,0.55,0.45,1,1,1h10h3h7c0.55,0,1-0.45,1-1l3.61,1.8C47.34,41.17,47.94,41.73,48.35,42.4z"/>
		<path style="fill:#B4DD7F;" d="M44,27.21V30h-1h-4v-7l0.02-0.11l1.85,0.41C42.7,23.71,44,25.33,44,27.21z"/>
		<path style="fill:#B4DD7F;" d="M39.02,22.89L39,23v7v6h-6h-1h-7v-6v-7l-0.02-0.11L29,22c0,0,0.75,2,3,2s3-2,3-2L39.02,22.89z"/>
		<path style="fill:#B4DD7F;" d="M25,23v7h-4h-1v-2.79c0-1.88,1.3-3.5,3.13-3.91l1.85-0.41L25,23z"/>
		<path style="fill:#F0D0B4;" d="M35,45h13.99c-0.17,2.24-2.04,4-4.32,4H38h-9c-0.83,0-1.58-0.34-2.12-0.88    C26.34,47.58,26,46.83,26,46c0-0.55,0.45-1,1-1h4l0.29-0.29C31.75,44.25,32.36,44,33,44s1.25,0.25,1.71,0.71L35,45z"/>
		<path style="fill:#F0D0B4;" d="M29,49h-9.67c-1.19,0-2.28-0.48-3.06-1.27c-0.72-0.71-1.18-1.67-1.25-2.73H27c-0.55,0-1,0.45-1,1    c0,0.83,0.34,1.58,0.88,2.12C27.42,48.66,28.17,49,29,49z"/>
		<path style="fill:#F0D0B4;" d="M33,36c1.66,0,3,1.34,3,3c0,0.55-0.45,1-1,1h-3H22c-0.55,0-1-0.45-1-1v-3v-6h4v6h7H33z"/>
		<path style="fill:#F0D0B4;" d="M43,36v3c0,0.55-0.45,1-1,1h-7c0.55,0,1-0.45,1-1c0-1.66-1.34-3-3-3h6v-6h4V36z"/>
		<path style="fill:#F0D0B4;" d="M35,19.19V22c0,0-0.75,2-3,2s-3-2-3-2v-2.81c0.88,0.52,1.91,0.81,3,0.81    C33.1,20,34.12,19.71,35,19.19z"/>
		<path style="fill:#F0D0B4;" d="M35,19.19C34.12,19.71,33.1,20,32,20c-1.09,0-2.12-0.29-3-0.81c-1.79-1.03-3-2.97-3-5.19v-2h3.76    c1.47,0,2.92-0.34,4.24-1c0.64,0.64,1.51,1,2.41,1H38v2C38,16.22,36.79,18.16,35,19.19z"/>
	</g>
	<path d="M51.687,35H44v-4h1v-3.791c0-2.361-1.61-4.368-3.916-4.882L36,21.198v-1.462c1.811-1.267,3-3.364,3-5.736v-2   c0-2.451-1.269-4.609-3.182-5.86C35.928,5.772,36,5.392,36,5c0-2.206-1.794-4-4-4s-4,1.794-4,4c0,0.392,0.072,0.772,0.182,1.14   C26.269,7.391,25,9.549,25,12v2c0,2.372,1.189,4.47,3,5.736v1.462l-5.085,1.129C20.61,22.841,19,24.848,19,27.209V31h1v4h-7.687   L1.544,63h60.912L51.687,35z M27,46h4.414L32,45.414c0.527-0.525,1.474-0.525,2,0L34.586,46H43v-2h-7.586   c-1.271-1.271-3.555-1.271-4.828,0H27h-6v2h4c0,0.732,0.212,1.409,0.556,2h-6.23C17.492,48,16,46.508,16,44.674   c0-1.269,0.705-2.408,1.839-2.975l2.696-1.348C20.9,40.747,21.419,41,22,41h10h3h7c0.581,0,1.1-0.253,1.465-0.649l2.696,1.348   C47.295,42.266,48,43.405,48,44.674C48,46.508,46.508,48,44.674,48H38h-9C27.897,48,27,47.103,27,46z M42,39h-5   c0-0.732-0.212-1.409-0.556-2H40v-6h2V39z M43,27.209V29h-3v-4.864l0.65,0.145C42.034,24.588,43,25.792,43,27.209z M36.899,11   h-0.485c-0.645,0-1.251-0.251-1.707-0.707l-0.51-0.51l-0.645,0.322C32.382,10.69,31.071,11,29.764,11h-2.663   C27.566,8.721,29.586,7,32,7S36.434,8.721,36.899,11z M30,5c0-1.103,0.897-2,2-2s2,0.897,2,2c0,0.097-0.013,0.193-0.026,0.288   C33.347,5.103,32.686,5,32,5s-1.347,0.103-1.974,0.288C30.013,5.193,30,5.097,30,5z M27,14v-1h2.764   c1.394,0,2.791-0.284,4.077-0.826C34.585,12.71,35.478,13,36.414,13H37v1c0,2.757-2.243,5-5,5S27,16.757,27,14z M32,21   c0.695,0,1.366-0.105,2-0.295v1.075C33.818,22.135,33.249,23,32,23s-1.818-0.865-2-1.219v-1.075C30.634,20.895,31.305,21,32,21z    M28.492,23.137C29.024,23.919,30.1,25,32,25s2.976-1.081,3.508-1.863L38,23.691V35h-5h-1h-6V23.691L28.492,23.137z M21,27.209   c0-1.417,0.966-2.621,2.349-2.929L24,24.136V29h-3V27.209z M24,31v6h8h1c1.103,0,2,0.897,2,2h-3H22v-8H24z M5.225,59H50v-2H5.995   l7.692-20H20v1.382l-3.055,1.528C15.128,40.817,14,42.643,14,44.674C14,47.61,16.389,50,19.326,50H29h9h6.674   C47.611,50,50,47.61,50,44.674c0-2.031-1.128-3.856-2.944-4.764L44,38.382V37h6.313l7.692,20H52v2h6.775l0.769,2H4.456L5.225,59z"/>
</g>
</svg>
