<?xml version="1.0" encoding="UTF-8" standalone="no"?>
<!-- Generator: Adobe Illustrator 18.1.1, SVG Export Plug-In . SVG Version: 6.00 Build 0)  -->

<svg
   xmlns:dc="http://purl.org/dc/elements/1.1/"
   xmlns:cc="http://creativecommons.org/ns#"
   xmlns:rdf="http://www.w3.org/1999/02/22-rdf-syntax-ns#"
   xmlns:svg="http://www.w3.org/2000/svg"
   xmlns="http://www.w3.org/2000/svg"
   xmlns:sodipodi="http://sodipodi.sourceforge.net/DTD/sodipodi-0.dtd"
   xmlns:inkscape="http://www.inkscape.org/namespaces/inkscape"
   version="1.1"
   id="Capa_1"
   x="0px"
   y="0px"
   viewBox="0 0 48.223 48.223"
   style="enable-background:new 0 0 48.223 48.223;"
   xml:space="preserve"
   width="512px"
   height="512px"
   sodipodi:docname="lifestyle.svg"
   inkscape:version="0.92.2 2405546, 2018-03-11"><metadata
   id="metadata45"><rdf:RDF><cc:Work
       rdf:about=""><dc:format>image/svg+xml</dc:format><dc:type
         rdf:resource="http://purl.org/dc/dcmitype/StillImage" /></cc:Work></rdf:RDF></metadata><defs
   id="defs43">
	

		
		
	</defs><sodipodi:namedview
   pagecolor="#ffffff"
   bordercolor="#666666"
   borderopacity="1"
   objecttolerance="10"
   gridtolerance="10"
   guidetolerance="10"
   inkscape:pageopacity="0"
   inkscape:pageshadow="2"
   inkscape:window-width="2485"
   inkscape:window-height="1399"
   id="namedview41"
   showgrid="false"
   inkscape:lockguides="true"
   inkscape:zoom="0.23046875"
   inkscape:cx="153.20223"
   inkscape:cy="-90.269598"
   inkscape:window-x="75"
   inkscape:window-y="0"
   inkscape:window-maximized="1"
   inkscape:current-layer="Capa_1" />

<g
   id="g10">
</g>
<g
   id="g12">
</g>
<g
   id="g14">
</g>
<g
   id="g16">
</g>
<g
   id="g18">
</g>
<g
   id="g20">
</g>
<g
   id="g22">
</g>
<g
   id="g24">
</g>
<g
   id="g26">
</g>
<g
   id="g28">
</g>
<g
   id="g30">
</g>
<g
   id="g32">
</g>
<g
   id="g34">
</g>
<g
   id="g36">
</g>
<g
   id="g38">
</g>
<path
   d="m 13.944,11.626 c 1.903,0.992 4.238,0.853 6.055,-0.258 1.806,-1.104 2.874,-3.125 2.899,-5.223 v 0 0 0 0 C 22.871,3.924 21.696,1.905 19.774,0.79 17.84,-0.333 15.378,-0.232 13.488,0.924 11.6,2.079 10.517,4.234 10.596,6.426 c 0.079,2.194 1.415,4.193 3.348,5.2 z m -1.42,-8.783 c 1.439,-1.848 3.925,-2.489 6.106,-1.712 2.092,0.746 3.442,2.835 3.468,5.014 -0.027,2.321 -1.508,4.37 -3.718,5.1 C 16.166,11.976 13.69,11.099 12.354,9.214 11.007,7.315 11.1,4.671 12.524,2.843 Z"
   id="path2"
   inkscape:connector-curvature="0"
   style="fill:#18bc9c" /><path
   d="m 42.791,14.069 c -0.141,-0.729 -0.932,-0.942 -1.576,-0.96 -4.912,0 -9.823,0 -14.735,0 -1.704,0 -3.407,0 -5.11,0 -0.137,0 -0.272,0 -0.408,0 -0.086,0 -0.162,0.018 -0.243,0.055 -0.495,0.223 -1.008,0.389 -1.536,0.516 -2.106,0.509 -4.463,0.237 -6.361,-0.814 -0.243,-0.135 -0.493,-0.003 -0.588,0.239 -1.189,3.053 -2.378,6.107 -3.568,9.16 -0.691,1.773 -1.425,3.531 -1.987,5.352 -0.52,1.684 -0.926,3.405 -1.14,5.156 -0.197,1.605 -0.238,3.369 0.465,4.866 0.247,0.526 0.633,0.966 1.103,1.301 0.356,0.254 0.753,0.394 1.089,0.688 0.372,0.327 0.699,0.703 1.049,1.056 -0.58,0.861 -1.068,1.862 -0.937,2.921 0.109,0.887 0.663,1.592 1.321,2.158 1.158,0.997 2.63,1.275 4.091,1.585 1.452,0.307 2.987,0.647 4.477,0.671 0.086,0.001 0.154,-0.029 0.228,-0.049 0.018,0.002 0.03,0.011 0.049,0.011 0.81,0.011 1.624,0.433 2.432,0.138 0.964,-0.352 0.821,-1.565 0.347,-2.259 -0.796,-1.166 -2.247,-1.948 -3.57,-2.529 0.411,-0.475 0.822,-0.949 1.234,-1.424 0.977,-0.378 1.958,-0.745 2.932,-1.126 1.167,-0.455 2.33,-0.928 3.469,-1.449 0.967,-0.443 2.016,-0.904 2.816,-1.617 0.829,-0.739 1.482,-1.854 1.684,-2.947 0.17,-0.936 -0.178,-1.993 -0.604,-2.816 -0.468,-0.899 -1.249,-1.552 -2.185,-1.916 -0.543,-0.212 -1.139,-0.26 -1.716,-0.274 -0.849,-0.022 -1.698,-0.058 -2.546,-0.097 -1.774,-0.084 -3.548,-0.194 -5.322,-0.289 1.29,-3.412 2.58,-6.823 3.868,-10.233 4.505,-0.349 9.007,-0.756 13.443,-1.642 1.19,-0.238 2.372,-0.514 3.545,-0.824 1.167,-0.308 2.431,-0.585 3.522,-1.107 0.544,-0.262 1.096,-0.851 0.968,-1.501 z M 10.042,40.356 C 9.917,40.242 9.803,40.118 9.686,39.997 c 0.042,0.005 0.089,0.012 0.129,0.016 0.455,0.042 0.915,0.026 1.376,-0.021 -0.353,0.196 -0.699,0.403 -1.039,0.62 -0.008,-0.099 -0.042,-0.195 -0.11,-0.256 z m 6.699,2.84 c -0.213,0.245 -0.108,0.552 0.177,0.669 -0.057,-0.023 -0.054,-0.023 0.031,0.014 0.095,0.041 0.188,0.084 0.282,0.127 0.303,0.14 0.602,0.289 0.897,0.447 0.756,0.399 1.504,0.855 2.12,1.455 0.324,0.316 1.034,1.334 0.223,1.502 -0.451,0.093 -0.927,-0.049 -1.394,-0.147 0.028,-0.103 0.054,-0.206 0.062,-0.315 0.056,-0.76 -0.491,-1.361 -1.04,-1.811 -0.526,-0.432 -1.113,-0.781 -1.689,-1.141 -0.312,-0.193 -0.639,-0.391 -0.931,-0.625 0.596,-0.286 1.2,-0.555 1.811,-0.81 -0.182,0.212 -0.366,0.423 -0.549,0.635 z M 41.753,14.668 c -0.317,0.298 -0.813,0.397 -1.214,0.525 -0.562,0.18 -1.129,0.347 -1.698,0.508 -2.019,0.571 -4.074,1.014 -6.142,1.373 -3.859,0.671 -7.767,0.992 -11.668,1.292 -0.193,0.015 -0.318,0.115 -0.386,0.294 -1.384,3.66 -2.768,7.319 -4.151,10.979 -0.097,0.256 0.147,0.493 0.386,0.506 1.636,0.084 3.272,0.185 4.907,0.271 0.783,0.041 1.567,0.078 2.352,0.108 0.762,0.029 1.545,-0.011 2.291,0.165 1.061,0.251 1.809,1.021 2.248,1.987 0.475,1.04 0.471,2.053 -0.048,3.067 -0.562,1.098 -1.411,1.729 -2.472,2.289 -1.086,0.574 -2.222,1.055 -3.357,1.516 -1.393,0.565 -2.8,1.093 -4.2,1.64 -0.047,0.006 -0.094,0.024 -0.139,0.055 -0.908,0.356 -1.813,0.72 -2.706,1.114 -0.396,0.176 -0.788,0.359 -1.176,0.555 -0.249,0.125 -0.233,0.442 -0.081,0.629 1.004,1.227 2.964,1.528 3.757,2.951 0.138,0.248 0.092,0.493 -0.032,0.727 -0.094,0 -0.188,-0.003 -0.28,-0.008 C 17.246,47.168 16.55,47.054 15.861,46.94 14.267,46.678 12.581,46.41 11.076,45.801 10.426,45.538 9.782,44.917 9.405,44.339 8.97,43.672 9.044,42.94 9.307,42.254 c 0.795,-0.834 1.931,-1.392 2.932,-1.919 1.567,-0.828 3.187,-1.556 4.813,-2.258 2.58,-1.115 5.196,-2.148 7.832,-3.127 0.106,-0.039 0.213,-0.078 0.319,-0.117 0.48,-0.176 0.273,-0.949 -0.213,-0.772 -2.058,0.751 -4.097,1.556 -6.123,2.39 -1.096,0.45 -2.184,0.92 -3.267,1.401 -0.008,0.003 -0.015,0.001 -0.024,0.005 -1.733,0.716 -3.651,1.439 -5.56,1.368 C 9.693,39.212 9.2,39.114 9.016,39.033 8.938,38.998 8.864,38.956 8.792,38.906 8.788,38.902 8.791,38.903 8.785,38.897 8.672,38.777 8.539,38.759 8.42,38.795 8.106,38.579 7.757,38.428 7.444,38.204 6.899,37.814 6.608,37.142 6.438,36.519 5.985,34.86 6.251,32.998 6.563,31.34 c 0.759,-4.029 2.459,-7.801 3.938,-11.6 0.777,-1.994 1.553,-3.988 2.33,-5.982 2.255,1.096 4.952,1.242 7.331,0.477 0.487,-0.157 0.579,-0.326 0.981,-0.326 0.306,0 0.613,0 0.919,0 2.719,0 5.436,0 8.155,0 3.665,0 7.33,0 10.995,0 0.002,0 0.002,-0.001 0.004,-0.001 0.554,0.017 1.079,0.251 0.537,0.76 z"
   id="path4"
   inkscape:connector-curvature="0"
   style="fill:#6a6c6c;fill-opacity:1;stroke:none;stroke-width:1.08473492;stroke-miterlimit:4;stroke-dasharray:none;stroke-opacity:1" /><path
   style="opacity:1;fill:#6a6c6c;fill-opacity:1;stroke:none;stroke-width:1.88371098;stroke-miterlimit:4;stroke-dasharray:none;stroke-opacity:1"
   d="m 12.831,13.758 c -0.777,1.994 -1.55298,3.98807 -2.32999,5.982071 -0.36975,0.949749 -0.75321,1.897748 -1.13243,2.848561 -0.37922,0.950812 -0.75412,1.904367 -1.1065,2.865117 -0.17619,0.480374 -0.34671,0.962659 -0.50937,1.447182 -0.16267,0.484524 -0.31749,0.971383 -0.4621,1.461164 -0.14461,0.489782 -0.27901,0.982492 -0.40103,1.478639 -0.12201,0.496149 -0.23164,0.995618 -0.32652,1.499243 -0.078,0.4145 -0.15312,0.841728 -0.21486,1.275369 -0.0617,0.43364 -0.11003,0.873751 -0.13447,1.313815 -0.0244,0.440062 -0.0251,0.880232 0.009,1.313998 0.0169,0.216883 0.0425,0.432026 0.078,0.64495 0.0355,0.212924 0.081,0.423595 0.1376,0.63097 0.0425,0.15575 0.0924,0.314593 0.15213,0.471296 0.0597,0.156703 0.1292,0.311289 0.21026,0.458602 0.0811,0.147313 0.17377,0.287244 0.28035,0.414822 0.10658,0.127578 0.22688,0.242818 0.36313,0.340318 0.313,0.224 0.66207,0.374866 0.97607,0.590868 0.0595,-0.018 0.12244,-0.02254 0.18469,-0.0075 0.0623,0.015 0.12378,0.04964 0.18028,0.109638 0.006,0.006 0.003,0.005 0.007,0.009 0.072,0.05 0.14606,0.09193 0.22406,0.12693 0.092,0.0405 0.2613,0.08534 0.44793,0.121595 0.18663,0.03625 0.39055,0.06395 0.55205,0.07045 0.23863,0.0089 0.47743,0.0054 0.71596,-0.009 0.23853,-0.01437 0.47681,-0.03964 0.71448,-0.07413 0.23768,-0.03449 0.47475,-0.07821 0.71081,-0.129689 0.23606,-0.05148 0.47105,-0.110703 0.70473,-0.176046 0.46738,-0.130688 0.92928,-0.286093 1.382618,-0.453453 0.45334,-0.167359 0.89823,-0.346746 1.33147,-0.525746 0.009,-0.004 0.0159,-0.002 0.0239,-0.005 1.08299,-0.480999 2.17105,-0.951009 3.26706,-1.40101 1.01299,-0.417 2.02919,-0.826693 3.04943,-1.226068 1.02025,-0.399375 2.04455,-0.78839 3.07354,-1.16389 0.0607,-0.02213 0.11709,-0.02938 0.16832,-0.02484 0.0512,0.0045 0.0973,0.02083 0.13742,0.04599 0.0401,0.02516 0.0743,0.05922 0.10173,0.09897 0.0274,0.03974 0.0481,0.08527 0.0613,0.133553 0.0131,0.04828 0.0188,0.09933 0.016,0.150108 -0.003,0.05078 -0.014,0.101226 -0.0342,0.148452 -0.0203,0.04723 -0.0497,0.09113 -0.089,0.12877 -0.0393,0.03764 -0.0885,0.06906 -0.14846,0.09106 -0.106,0.039 -0.21297,0.078 -0.31898,0.116996 -1.31799,0.489499 -2.63102,0.992488 -3.93703,1.512487 -1.30599,0.52 -2.60509,1.056899 -3.89508,1.6144 -0.813,0.350999 -1.62446,0.708595 -2.42859,1.081846 -0.804128,0.37325 -1.600938,0.762215 -2.384438,1.176215 -0.5005,0.263501 -1.03471,0.534734 -1.54321,0.844359 -0.25425,0.154813 -0.50207,0.319221 -0.73601,0.49705 -0.23394,0.177828 -0.45392,0.369122 -0.65267,0.577622 -0.0657,0.1715 -0.11979,0.345816 -0.15692,0.521331 -0.0371,0.175516 -0.0574,0.352076 -0.0559,0.528139 0.002,0.176062 0.0249,0.351686 0.0751,0.524826 0.0501,0.173141 0.12708,0.343913 0.23583,0.510663 0.0942,0.144501 0.20519,0.291631 0.32873,0.43524 0.12355,0.14361 0.25965,0.283714 0.40434,0.413901 0.14469,0.130188 0.2978,0.250434 0.45548,0.354668 0.15767,0.104234 0.31983,0.19234 0.48233,0.25809 0.37625,0.15225 0.76376,0.283222 1.15837,0.398081 0.39461,0.11486 0.79643,0.213752 1.20087,0.301689 0.808868,0.175874 1.628818,0.308287 2.425818,0.439287 0.3445,0.057 0.69069,0.11394 1.03807,0.162065 0.34737,0.04812 0.69587,0.0874 1.04487,0.108902 0.092,0.005 0.18598,0.0081 0.27998,0.0081 0.062,-0.117 0.10449,-0.236846 0.11424,-0.358347 0.005,-0.06075 0.002,-0.121904 -0.0116,-0.183403 -0.0132,-0.0615 -0.0361,-0.123244 -0.0706,-0.185244 -0.0991,-0.177876 -0.21642,-0.33828 -0.34786,-0.485093 -0.13145,-0.146812 -0.277,-0.280033 -0.43248,-0.403784 -0.15547,-0.123749 -0.32087,-0.23807 -0.49208,-0.346757 -0.17122,-0.108687 -0.3482,-0.211836 -0.52685,-0.313461 -0.35731,-0.20325 -0.72135,-0.400243 -1.05867,-0.623243 -0.16866,-0.1115 -0.33056,-0.229542 -0.48178,-0.357979 -0.15124,-0.128438 -0.29171,-0.267332 -0.41722,-0.420708 -0.038,-0.04675 -0.0675,-0.101705 -0.0865,-0.159674 -0.019,-0.05797 -0.0274,-0.118945 -0.0234,-0.17807 0.004,-0.05913 0.0206,-0.116261 0.0517,-0.16648 0.0311,-0.05022 0.0768,-0.09347 0.13908,-0.124722 0.38799,-0.196 0.78002,-0.378995 1.17603,-0.554995 0.893,-0.394 1.79799,-0.758039 2.70599,-1.114039 0.045,-0.031 0.0921,-0.049 0.13907,-0.055 1.4,-0.546999 2.80691,-1.07497 4.1999,-1.639969 0.56751,-0.2305 1.13537,-0.466149 1.697,-0.715773 0.56163,-0.249625 1.11702,-0.51321 1.66002,-0.800209 0.26526,-0.140001 0.51719,-0.284593 0.75478,-0.439656 0.23757,-0.155062 0.46074,-0.32062 0.66831,-0.50312 0.20755,-0.1825 0.39966,-0.381799 0.57486,-0.604112 0.1752,-0.222313 0.33356,-0.467763 0.47405,-0.742263 0.12975,-0.2535 0.22729,-0.506846 0.29323,-0.760659 0.0659,-0.253813 0.10032,-0.50805 0.10357,-0.76305 0.003,-0.255 -0.0246,-0.51077 -0.083,-0.767833 -0.0583,-0.257062 -0.14706,-0.515375 -0.26581,-0.775375 -0.10975,-0.2415 -0.23879,-0.470708 -0.38723,-0.682662 -0.14844,-0.211953 -0.31624,-0.406597 -0.50349,-0.578909 -0.0936,-0.08616 -0.19208,-0.166813 -0.29543,-0.241167 -0.10335,-0.07435 -0.21159,-0.142535 -0.32468,-0.203823 -0.1131,-0.06129 -0.23109,-0.115654 -0.35394,-0.162617 -0.12285,-0.04696 -0.25055,-0.08654 -0.38318,-0.117917 -0.1865,-0.044 -0.37545,-0.07439 -0.56566,-0.09584 -0.19022,-0.02145 -0.38182,-0.03395 -0.57394,-0.04176 -0.38425,-0.01563 -0.77038,-0.01291 -1.15138,-0.02741 -0.785,-0.03 -1.56907,-0.06698 -2.35207,-0.107983 -1.635,-0.086 -3.27104,-0.186967 -4.90703,-0.270967 -0.0598,-0.0032 -0.11979,-0.02052 -0.17476,-0.04856 -0.055,-0.02805 -0.10485,-0.06688 -0.14422,-0.113317 -0.0394,-0.04644 -0.0682,-0.100516 -0.0811,-0.158938 -0.013,-0.05842 -0.0101,-0.12106 0.0142,-0.18506 1.38301,-3.660001 2.76698,-7.319056 4.15098,-10.979055 0.034,-0.0895 0.0822,-0.159356 0.14606,-0.208606 0.0639,-0.04925 0.14338,-0.07786 0.23988,-0.08536 0.97525,-0.075 1.95094,-0.15141 2.92619,-0.234175 0.97525,-0.08277 1.95012,-0.171995 2.92361,-0.272808 0.9735,-0.100812 1.94571,-0.213201 2.91571,-0.342341 0.97,-0.129141 1.93771,-0.275034 2.90246,-0.442783 1.034,-0.1795 2.06492,-0.380055 3.08954,-0.607056 1.02463,-0.226999 2.04308,-0.480493 3.05258,-0.765993 0.56899,-0.161 1.13591,-0.327903 1.69791,-0.507903 0.2005,-0.064 0.42475,-0.120672 0.63851,-0.198672 0.10687,-0.039 0.21115,-0.08349 0.30849,-0.13668 0.0973,-0.05319 0.18786,-0.115159 0.2671,-0.189659 0.0678,-0.06363 0.11883,-0.122924 0.15527,-0.178069 0.0364,-0.05514 0.0582,-0.106161 0.0673,-0.153052 0.009,-0.04689 0.006,-0.08972 -0.008,-0.128585 -0.014,-0.03886 -0.0387,-0.07379 -0.0719,-0.104855 -0.0664,-0.06212 -0.16685,-0.108813 -0.2855,-0.141094 -0.11866,-0.03228 -0.25535,-0.05002 -0.39385,-0.05427 -0.002,0 -0.002,9.2e-4 -0.004,9.2e-4 h -10.99506 -8.15496 -0.91904 c -0.1005,0 -0.18165,0.01058 -0.25442,0.02888 -0.0728,0.0183 -0.13712,0.0443 -0.20418,0.07524 -0.13413,0.06188 -0.27894,0.143351 -0.52244,0.221851 -0.29737,0.09563 -0.5996,0.177029 -0.90543,0.244109 -0.30583,0.06708 -0.61528,0.11982 -0.92659,0.158202 -0.31131,0.03838 -0.62453,0.06239 -0.93836,0.07193 -0.31383,0.0095 -0.62811,0.0046 -0.94149,-0.0149 -0.31338,-0.01947 -0.62583,-0.05347 -0.93578,-0.102095 -0.30996,-0.04862 -0.61751,-0.11173 -0.92107,-0.18966 -0.30356,-0.07793 -0.60314,-0.170569 -0.897328,-0.277957 -0.29421,-0.107389 -0.5831,-0.229625 -0.86497,-0.366625 z"
   id="path983"
   inkscape:connector-curvature="0" /><ellipse
   style="opacity:1;fill:#18bc9c;fill-opacity:1;stroke:none;stroke-width:1.88371098;stroke-miterlimit:4;stroke-dasharray:none;stroke-opacity:1"
   id="path991"
   cx="16.755449"
   cy="5.9767909"
   rx="5.5681219"
   ry="5.7724566" /></svg>