<svg id="Layer_35" enable-background="new 0 0 64 64" height="512" viewBox="0 0 64 64" width="512" xmlns="http://www.w3.org/2000/svg"><path d="m22 56h20 2c2.21 0 4 1.79 4 4v2h-32v-2c0-2.21 1.79-4 4-4z" fill="#969faa"/><path d="m39 50 3 6h-20l3-6z" fill="#aab2bd"/><path d="m58 12h-52c-2.21 0-4 1.79-4 4v30c0 2.21 1.79 4 4 4h19 14 19c2.21 0 4-1.79 4-4v-30c0-2.21-1.79-4-4-4z" fill="#ccd1d9"/><path d="m57 16h-50c-.55 0-1 .45-1 1v24c0 .55.45 1 1 1h11.59c.26 0 .52.11.7.29l1.42 1.42c.18.18.44.29.7.29h35.59c.55 0 1-.45 1-1v-26c0-.55-.45-1-1-1z" fill="#69d6f4"/><path d="m54 16v22h-44v-22-4-2h44v2z" fill="#e6e9ed"/><g fill="#ffc729"><path d="m32 30h4v4h-4z"/><path d="m32 22h4v4h-4z"/><path d="m32 14h4v4h-4z"/></g><path d="m14 14h14v8h-14z" fill="#fcd770"/><path d="m10 2h44v8h-44z" fill="#ff826e"/><path d="m58 11h-3v-10h-46v10h-3c-2.757 0-5 2.243-5 5v30c0 2.757 2.243 5 5 5h17.382l-2 4h-1.382c-2.757 0-5 2.243-5 5v3h34v-3c0-2.757-2.243-5-5-5h-1.382l-2-4h17.382c2.757 0 5-2.243 5-5v-30c0-2.757-2.243-5-5-5zm-3 28v-22h2v26h-35.586l-1.414-1.414c-.378-.378-.88-.586-1.414-.586h-11.586v-24h2v22zm-44-28h42v26h-42zm42-8v6h-42v-6zm-6 57v1h-30v-1c0-1.654 1.346-3 3-3h24c1.654 0 3 1.346 3 3zm-6.618-5h-16.764l2-4h12.764zm20.618-9c0 1.654-1.346 3-3 3h-52c-1.654 0-3-1.346-3-3v-30c0-1.654 1.346-3 3-3h3v2h-2c-1.103 0-2 .897-2 2v24c0 1.103.897 2 2 2h11.586l1.414 1.414c.378.378.88.586 1.414.586h35.586c1.103 0 2-.897 2-2v-26c0-1.103-.897-2-2-2h-2v-2h3c1.654 0 3 1.346 3 3z"/><path d="m7 45h2v2h-2z"/><path d="m11 45h2v2h-2z"/><path d="m15 45h2v2h-2z"/><path d="m13 5h2v2h-2z"/><path d="m17 5h2v2h-2z"/><path d="m21 5h2v2h-2z"/><path d="m39 13h12v2h-12z"/><path d="m49 17h2v2h-2z"/><path d="m45 17h2v2h-2z"/><path d="m39 17h4v2h-4z"/><path d="m39 21h12v2h-12z"/><path d="m49 25h2v2h-2z"/><path d="m45 25h2v2h-2z"/><path d="m39 25h4v2h-4z"/><path d="m39 29h12v2h-12z"/><path d="m49 33h2v2h-2z"/><path d="m45 33h2v2h-2z"/><path d="m39 33h4v2h-4z"/><path d="m13 23h16v-10h-16zm2-8h12v6h-12z"/><path d="m13 25h2v2h-2z"/><path d="m17 25h12v2h-12z"/><path d="m13 29h16v2h-16z"/><path d="m13 33h16v2h-16z"/><path d="m31 35h6v-6h-6zm2-4h2v2h-2z"/><path d="m31 27h6v-6h-6zm2-4h2v2h-2z"/><path d="m31 19h6v-6h-6zm2-4h2v2h-2z"/></svg>