<?xml version="1.0" encoding="UTF-8" standalone="no"?>
<!-- Generator: Adobe Illustrator 16.0.0, SVG Export Plug-In . SVG Version: 6.00 Build 0)  -->

<svg
   xmlns:dc="http://purl.org/dc/elements/1.1/"
   xmlns:cc="http://creativecommons.org/ns#"
   xmlns:rdf="http://www.w3.org/1999/02/22-rdf-syntax-ns#"
   xmlns:svg="http://www.w3.org/2000/svg"
   xmlns="http://www.w3.org/2000/svg"
   xmlns:sodipodi="http://sodipodi.sourceforge.net/DTD/sodipodi-0.dtd"
   xmlns:inkscape="http://www.inkscape.org/namespaces/inkscape"
   version="1.1"
   id="Capa_1"
   x="0px"
   y="0px"
   width="512px"
   height="512px"
   viewBox="0 0 97.391 97.391"
   style="enable-background:new 0 0 97.391 97.391;"
   xml:space="preserve"
   sodipodi:docname="list.svg"
   inkscape:version="0.92.2 2405546, 2018-03-11"><metadata
   id="metadata41"><rdf:RDF><cc:Work
       rdf:about=""><dc:format>image/svg+xml</dc:format><dc:type
         rdf:resource="http://purl.org/dc/dcmitype/StillImage" /></cc:Work></rdf:RDF></metadata><defs
   id="defs39">
	
</defs><sodipodi:namedview
   pagecolor="#ffffff"
   bordercolor="#666666"
   borderopacity="1"
   objecttolerance="10"
   gridtolerance="10"
   guidetolerance="10"
   inkscape:pageopacity="0"
   inkscape:pageshadow="2"
   inkscape:window-width="2560"
   inkscape:window-height="1347"
   id="namedview37"
   showgrid="false"
   inkscape:zoom="0.4609375"
   inkscape:cx="-719.18644"
   inkscape:cy="133.84072"
   inkscape:window-x="0"
   inkscape:window-y="0"
   inkscape:window-maximized="1"
   inkscape:current-layer="Capa_1" />

<g
   id="g6">
</g>
<g
   id="g8">
</g>
<g
   id="g10">
</g>
<g
   id="g12">
</g>
<g
   id="g14">
</g>
<g
   id="g16">
</g>
<g
   id="g18">
</g>
<g
   id="g20">
</g>
<g
   id="g22">
</g>
<g
   id="g24">
</g>
<g
   id="g26">
</g>
<g
   id="g28">
</g>
<g
   id="g30">
</g>
<g
   id="g32">
</g>
<g
   id="g34">
</g>
<path
   inkscape:connector-curvature="0"
   d="m 4.658691,82.055286 a 8.874792,8.874792 0 1 1 8.874786,8.874792 8.874792,8.874792 0 0 1 -8.874786,-8.874792 z m 8.874786,-56.206971 a 8.874792,8.874792 0 1 0 -8.874786,-8.874836 8.874792,8.874792 0 0 0 8.874786,8.874836 z m 0,32.540882 a 8.874792,8.874792 0 1 0 -8.874786,-8.874786 8.874792,8.874792 0 0 0 8.874786,8.874786 z M 43.11614,22.890053 h 44.37393 a 5.9165515,5.9165515 0 0 0 0,-11.833103 H 43.11614 a 5.9165515,5.9165515 0 0 0 0,11.833103 z m 0,32.540883 h 44.37393 a 5.9165281,5.9165281 0 0 0 0,-11.833048 H 43.11614 a 5.9165281,5.9165281 0 0 0 0,11.833048 z m 0,32.540874 h 44.37393 a 5.916529,5.916529 0 0 0 0,-11.833047 H 43.11614 a 5.916529,5.916529 0 0 0 0,11.833047 z"
   id="path4-3"
   style="fill:#2780e3;fill-opacity:1;stroke-width:0.98608798" /></svg>