<?xml version="1.0" encoding="UTF-8" standalone="no"?>
<svg
   xmlns:dc="http://purl.org/dc/elements/1.1/"
   xmlns:cc="http://creativecommons.org/ns#"
   xmlns:rdf="http://www.w3.org/1999/02/22-rdf-syntax-ns#"
   xmlns:svg="http://www.w3.org/2000/svg"
   xmlns="http://www.w3.org/2000/svg"
   xmlns:sodipodi="http://sodipodi.sourceforge.net/DTD/sodipodi-0.dtd"
   xmlns:inkscape="http://www.inkscape.org/namespaces/inkscape"
   inkscape:version="1.0 (4035a4fb49, 2020-05-01)"
   sodipodi:docname="list.svg"
   version="1.1"
   width="24"
   viewBox="0 0 3 3"
   height="24"
   enable-background="new 0 0 64 64"
   id="Layer_35">
  <metadata
     id="metadata83">
    <rdf:RDF>
      <cc:Work
         rdf:about="">
        <dc:format>image/svg+xml</dc:format>
        <dc:type
           rdf:resource="http://purl.org/dc/dcmitype/StillImage" />
        <dc:title></dc:title>
      </cc:Work>
    </rdf:RDF>
  </metadata>
  <defs
     id="defs81" />
  <sodipodi:namedview
     inkscape:current-layer="Layer_35"
     inkscape:window-maximized="1"
     inkscape:window-y="0"
     inkscape:window-x="0"
     inkscape:cy="18.739855"
     inkscape:cx="17.128256"
     inkscape:zoom="22.273864"
     showgrid="false"
     id="namedview79"
     inkscape:window-height="1417"
     inkscape:window-width="2560"
     inkscape:pageshadow="2"
     inkscape:pageopacity="0"
     guidetolerance="10"
     gridtolerance="10"
     objecttolerance="10"
     borderopacity="1"
     bordercolor="#666666"
     pagecolor="#ffffff" />
  <path
     style="stroke-width:0.0483871"
     id="path2"
     fill="#969faa"
     d="m 1.016129,2.6612903 h 0.967742 0.096774 c 0.1069354,0 0.1935483,0.086613 0.1935483,0.1935484 v 0.096774 H 0.72580645 v -0.096774 c 0,-0.1069355 0.0866129,-0.1935484 0.19354839,-0.1935484 z" />
  <path
     style="stroke-width:0.0483871"
     id="path4"
     fill="#aab2bd"
     d="M 1.8387097,2.3709677 1.983871,2.6612903 H 1.016129 L 1.1612903,2.3709677 Z" />
  <path
     style="stroke-width:0.0483871"
     id="path6"
     fill="#ccd1d9"
     d="M 2.7580645,0.53225806 H 0.24193548 C 0.135,0.53225806 0.0483871,0.61887097 0.0483871,0.72580645 V 2.1774194 c 0,0.1069354 0.0866129,0.1935483 0.19354838,0.1935483 H 1.1612903 1.8387097 2.7580645 c 0.1069355,0 0.1935484,-0.086613 0.1935484,-0.1935483 V 0.72580645 c 0,-0.10693548 -0.086613,-0.19354839 -0.1935484,-0.19354839 z" />
  <path
     style="stroke-width:0.0483871"
     id="path8"
     fill="#69d6f4"
     d="M 2.7096774,0.72580645 H 0.29032258 c -0.0266129,0 -0.0483871,0.0217742 -0.0483871,0.0483871 V 1.9354839 c 0,0.026613 0.0217742,0.048387 0.0483871,0.048387 h 0.56080645 c 0.0125807,0 0.0251613,0.00532 0.033871,0.014032 l 0.0687097,0.06871 c 0.00871,0.00871 0.0212903,0.014032 0.033871,0.014032 H 2.7096774 c 0.026613,0 0.048387,-0.021774 0.048387,-0.048387 V 0.77419355 c 0,-0.0266129 -0.021774,-0.0483871 -0.048387,-0.0483871 z" />
  <path
     style="stroke-width:0.0483871"
     id="path10"
     fill="#e6e9ed"
     d="M 2.5645161,0.72580645 V 1.7903226 H 0.43548387 V 0.72580645 0.53225806 0.43548387 H 2.5645161 v 0.0967742 z" />
  <g
     transform="matrix(0.0483871,0,0,0.0483871,-0.0483871,-0.0483871)"
     id="g18"
     fill="#ffc729">
    <path
       id="path12"
       d="m 32,30 h 4 v 4 h -4 z" />
    <path
       id="path14"
       d="m 32,22 h 4 v 4 h -4 z" />
    <path
       id="path16"
       d="m 32,14 h 4 v 4 h -4 z" />
  </g>
  <path
     style="stroke-width:0.0483871"
     id="path20"
     fill="#fcd770"
     d="M 0.62903226,0.62903226 H 1.3064516 V 1.016129 H 0.62903226 Z" />
  <path
     style="stroke-width:0.0483871"
     id="path22"
     fill="#ff826e"
     d="M 0.43548387,0.0483871 H 2.5645161 V 0.43548387 H 0.43548387 Z" />
  <path
     style="stroke-width:0.0483871"
     id="path24"
     d="M 2.7580645,0.48387097 H 2.6129032 V 0 H 0.38709677 V 0.48387097 H 0.24193548 C 0.10853226,0.48387097 0,0.59240323 0,0.72580645 V 2.1774194 C 0,2.3108226 0.10853226,2.4193548 0.24193548,2.4193548 H 1.083 L 0.9862258,2.6129032 h -0.066871 c -0.13340323,0 -0.24193549,0.1085323 -0.24193549,0.2419355 V 3 H 2.3225806 V 2.8548387 c 0,-0.1334032 -0.1085322,-0.2419355 -0.2419354,-0.2419355 H 2.0137742 L 1.917,2.4193548 H 2.7580645 C 2.8914677,2.4193548 3,2.3108226 3,2.1774194 V 0.72580645 C 3,0.59240323 2.8914677,0.48387097 2.7580645,0.48387097 Z M 2.6129032,1.8387097 V 0.77419355 h 0.096774 V 2.0322581 H 0.98777419 l -0.0684193,-0.068419 c -0.0182903,-0.01829 -0.0425807,-0.028355 -0.0684194,-0.028355 H 0.29032258 V 0.77419355 h 0.0967742 V 1.8387097 Z M 0.48387097,0.48387097 H 2.516129 V 1.7419355 H 0.48387097 Z M 2.516129,0.09677419 V 0.38709677 H 0.48387097 V 0.09677419 Z M 2.2258065,2.8548387 v 0.048387 H 0.77419355 v -0.048387 c 0,-0.080032 0.065129,-0.1451613 0.14516129,-0.1451613 H 2.0806452 c 0.080032,0 0.1451613,0.065129 0.1451613,0.1451613 z M 1.9055806,2.6129032 H 1.0944194 l 0.096774,-0.1935484 h 0.617613 z M 2.9032258,2.1774194 c 0,0.080032 -0.065129,0.1451612 -0.1451613,0.1451612 H 0.24193548 c -0.0800323,0 -0.14516129,-0.065129 -0.14516129,-0.1451612 V 0.72580645 c 0,-0.0800323 0.06512904,-0.14516129 0.14516129,-0.14516129 h 0.14516129 v 0.0967742 h -0.0967742 c -0.053371,0 -0.0967742,0.0434032 -0.0967742,0.0967742 V 1.9354839 c 0,0.053371 0.0434032,0.096774 0.0967742,0.096774 h 0.5606129 l 0.0684194,0.068419 c 0.0182903,0.01829 0.0425806,0.028355 0.0684193,0.028355 H 2.7096774 c 0.053371,0 0.096774,-0.043403 0.096774,-0.096774 V 0.77419355 c 0,-0.053371 -0.043403,-0.0967742 -0.096774,-0.0967742 h -0.096774 v -0.0967742 h 0.1451613 c 0.080032,0 0.1451613,0.065129 0.1451613,0.14516129 z" />
  <path
     style="stroke-width:0.0483871"
     id="path26"
     d="m 0.29032258,2.1290323 h 0.0967742 v 0.096774 h -0.0967742 z" />
  <path
     style="stroke-width:0.0483871"
     id="path28"
     d="m 0.48387097,2.1290323 h 0.0967742 v 0.096774 h -0.0967742 z" />
  <path
     style="stroke-width:0.0483871"
     id="path30"
     d="m 0.67741935,2.1290323 h 0.0967742 v 0.096774 h -0.0967742 z" />
  <path
     style="stroke-width:0.0483871"
     id="path32"
     d="m 0.58064516,0.19354839 h 0.0967742 v 0.0967742 h -0.0967742 z" />
  <path
     style="stroke-width:0.0483871"
     id="path34"
     d="m 0.77419355,0.19354839 h 0.0967742 v 0.0967742 h -0.0967742 z" />
  <path
     style="stroke-width:0.0483871"
     id="path36"
     d="m 0.96774194,0.19354839 h 0.0967742 v 0.0967742 h -0.0967742 z" />
  <path
     style="stroke-width:0.0483871"
     id="path38"
     d="m 1.8387097,0.58064516 h 0.5806451 v 0.0967742 H 1.8387097 Z" />
  <path
     style="stroke-width:0.0483871"
     id="path40"
     d="m 2.3225806,0.77419355 h 0.096774 v 0.0967742 h -0.096774 z" />
  <path
     style="stroke-width:0.0483871"
     id="path42"
     d="m 2.1290323,0.77419355 h 0.096774 v 0.0967742 h -0.096774 z" />
  <path
     style="stroke-width:0.0483871"
     id="path44"
     d="m 1.8387097,0.77419355 h 0.1935484 v 0.0967742 H 1.8387097 Z" />
  <path
     style="stroke-width:0.0483871"
     id="path46"
     d="M 1.8387097,0.96774194 H 2.4193548 V 1.0645161 H 1.8387097 Z" />
  <path
     style="stroke-width:0.0483871"
     id="path48"
     d="m 2.3225806,1.1612903 h 0.096774 v 0.096774 h -0.096774 z" />
  <path
     style="stroke-width:0.0483871"
     id="path50"
     d="m 2.1290323,1.1612903 h 0.096774 v 0.096774 h -0.096774 z" />
  <path
     style="stroke-width:0.0483871"
     id="path52"
     d="m 1.8387097,1.1612903 h 0.1935484 v 0.096774 H 1.8387097 Z" />
  <path
     style="stroke-width:0.0483871"
     id="path54"
     d="m 1.8387097,1.3548387 h 0.5806451 v 0.096774 H 1.8387097 Z" />
  <path
     style="stroke-width:0.0483871"
     id="path56"
     d="m 2.3225806,1.5483871 h 0.096774 v 0.096774 h -0.096774 z" />
  <path
     style="stroke-width:0.0483871"
     id="path58"
     d="m 2.1290323,1.5483871 h 0.096774 v 0.096774 h -0.096774 z" />
  <path
     style="stroke-width:0.0483871"
     id="path60"
     d="m 1.8387097,1.5483871 h 0.1935484 v 0.096774 H 1.8387097 Z" />
  <path
     style="stroke-width:0.0483871"
     id="path62"
     d="M 0.58064516,1.0645161 H 1.3548387 V 0.58064516 H 0.58064516 Z M 0.67741935,0.67741935 H 1.2580645 V 0.96774194 H 0.67741935 Z" />
  <path
     style="stroke-width:0.0483871"
     id="path64"
     d="m 0.58064516,1.1612903 h 0.0967742 v 0.096774 h -0.0967742 z" />
  <path
     style="stroke-width:0.0483871"
     id="path66"
     d="M 0.77419355,1.1612903 H 1.3548387 v 0.096774 H 0.77419355 Z" />
  <path
     style="stroke-width:0.0483871"
     id="path68"
     d="M 0.58064516,1.3548387 H 1.3548387 v 0.096774 H 0.58064516 Z" />
  <path
     style="stroke-width:0.0483871"
     id="path70"
     d="M 0.58064516,1.5483871 H 1.3548387 v 0.096774 H 0.58064516 Z" />
  <path
     style="stroke-width:0.0483871"
     id="path72"
     d="M 1.4516129,1.6451613 H 1.7419355 V 1.3548387 H 1.4516129 Z m 0.096774,-0.1935484 h 0.096774 v 0.096774 h -0.096774 z" />
  <path
     style="stroke-width:0.0483871"
     id="path74"
     d="M 1.4516129,1.2580645 H 1.7419355 V 0.96774194 H 1.4516129 Z m 0.096774,-0.1935484 h 0.096774 v 0.096774 h -0.096774 z" />
  <path
     style="stroke-width:0.0483871"
     id="path76"
     d="M 1.4516129,0.87096774 H 1.7419355 V 0.58064516 H 1.4516129 Z m 0.096774,-0.19354839 h 0.096774 v 0.0967742 h -0.096774 z" />
</svg>
