<?xml version="1.0" encoding="UTF-8" standalone="no"?>
<!-- Generator: Adobe Illustrator 16.0.0, SVG Export Plug-In . SVG Version: 6.00 Build 0)  -->

<svg
   xmlns:dc="http://purl.org/dc/elements/1.1/"
   xmlns:cc="http://creativecommons.org/ns#"
   xmlns:rdf="http://www.w3.org/1999/02/22-rdf-syntax-ns#"
   xmlns:svg="http://www.w3.org/2000/svg"
   xmlns="http://www.w3.org/2000/svg"
   xmlns:sodipodi="http://sodipodi.sourceforge.net/DTD/sodipodi-0.dtd"
   xmlns:inkscape="http://www.inkscape.org/namespaces/inkscape"
   version="1.1"
   id="Capa_1"
   x="0px"
   y="0px"
   width="24"
   height="24"
   viewBox="0 0 4.5652031 4.5652031"
   xml:space="preserve"
   sodipodi:docname="list.svg"
   inkscape:version="0.92.2 2405546, 2018-03-11"><metadata
   id="metadata41"><rdf:RDF><cc:Work
       rdf:about=""><dc:format>image/svg+xml</dc:format><dc:type
         rdf:resource="http://purl.org/dc/dcmitype/StillImage" /><dc:title></dc:title></cc:Work></rdf:RDF></metadata><defs
   id="defs39">
	
</defs><sodipodi:namedview
   pagecolor="#ffffff"
   bordercolor="#666666"
   borderopacity="1"
   objecttolerance="10"
   gridtolerance="10"
   guidetolerance="10"
   inkscape:pageopacity="0"
   inkscape:pageshadow="2"
   inkscape:window-width="2560"
   inkscape:window-height="1347"
   id="namedview37"
   showgrid="false"
   inkscape:zoom="29.5"
   inkscape:cx="22.645291"
   inkscape:cy="11.453252"
   inkscape:window-x="0"
   inkscape:window-y="0"
   inkscape:window-maximized="1"
   inkscape:current-layer="Capa_1" />

<g
   id="g6"
   transform="translate(0,-92.825797)">
</g>
<g
   id="g8"
   transform="translate(0,-92.825797)">
</g>
<g
   id="g10"
   transform="translate(0,-92.825797)">
</g>
<g
   id="g12"
   transform="translate(0,-92.825797)">
</g>
<g
   id="g14"
   transform="translate(0,-92.825797)">
</g>
<g
   id="g16"
   transform="translate(0,-92.825797)">
</g>
<g
   id="g18"
   transform="translate(0,-92.825797)">
</g>
<g
   id="g20"
   transform="translate(0,-92.825797)">
</g>
<g
   id="g22"
   transform="translate(0,-92.825797)">
</g>
<g
   id="g24"
   transform="translate(0,-92.825797)">
</g>
<g
   id="g26"
   transform="translate(0,-92.825797)">
</g>
<g
   id="g28"
   transform="translate(0,-92.825797)">
</g>
<g
   id="g30"
   transform="translate(0,-92.825797)">
</g>
<g
   id="g32"
   transform="translate(0,-92.825797)">
</g>
<g
   id="g34"
   transform="translate(0,-92.825797)">
</g>
<path
   inkscape:connector-curvature="0"
   d="M 0.23648895,3.8125906 A 0.41202866,0.41202866 0 1 1 0.6485173,4.2246193 0.41202866,0.41202866 0 0 1 0.23648895,3.8125906 Z M 0.6485173,1.203078 A 0.41202866,0.41202866 0 1 0 0.23648895,0.79104742 0.41202866,0.41202866 0 0 0 0.6485173,1.203078 Z m 0,1.5107706 A 0.41202866,0.41202866 0 1 0 0.23648895,2.3018203 0.41202866,0.41202866 0 0 0 0.6485173,2.7138486 Z M 2.0219471,1.0657351 h 2.0601421 a 0.27468685,0.27468685 0 0 0 0,-0.54937358 H 2.0219471 a 0.27468685,0.27468685 0 0 0 0,0.54937358 z m 0,1.5107708 h 2.0601421 a 0.27468577,0.27468577 0 0 0 0,-0.5493712 H 2.0219471 a 0.27468577,0.27468577 0 0 0 0,0.5493712 z m 0,1.5107703 h 2.0601421 a 0.27468581,0.27468581 0 0 0 0,-0.5493711 H 2.0219471 a 0.27468581,0.27468581 0 0 0 0,0.5493711 z"
   id="path4-3"
   style="fill:#2780e3;fill-opacity:1;stroke-width:0.04578096" /></svg>