<?xml version="1.0" encoding="UTF-8" standalone="no"?>
<!-- Created with Inkscape (http://www.inkscape.org/) -->

<svg
   xmlns:dc="http://purl.org/dc/elements/1.1/"
   xmlns:cc="http://creativecommons.org/ns#"
   xmlns:rdf="http://www.w3.org/1999/02/22-rdf-syntax-ns#"
   xmlns:svg="http://www.w3.org/2000/svg"
   xmlns="http://www.w3.org/2000/svg"
   xmlns:sodipodi="http://sodipodi.sourceforge.net/DTD/sodipodi-0.dtd"
   xmlns:inkscape="http://www.inkscape.org/namespaces/inkscape"
   width="24"
   height="24"
   viewBox="0 0 6.3499998 6.3499998"
   version="1.1"
   id="svg5174"
   inkscape:version="0.92.2 2405546, 2018-03-11"
   sodipodi:docname="medicament_dose.svg">
  <defs
     id="defs5168" />
  <sodipodi:namedview
     id="base"
     pagecolor="#ffffff"
     bordercolor="#666666"
     borderopacity="1.0"
     inkscape:pageopacity="0.0"
     inkscape:pageshadow="2"
     inkscape:zoom="15.839192"
     inkscape:cx="26.371753"
     inkscape:cy="0.49215038"
     inkscape:document-units="mm"
     inkscape:current-layer="layer1"
     showgrid="false"
     inkscape:window-width="2560"
     inkscape:window-height="1347"
     inkscape:window-x="0"
     inkscape:window-y="0"
     inkscape:window-maximized="1"
     units="px" />
  <metadata
     id="metadata5171">
    <rdf:RDF>
      <cc:Work
         rdf:about="">
        <dc:format>image/svg+xml</dc:format>
        <dc:type
           rdf:resource="http://purl.org/dc/dcmitype/StillImage" />
        <dc:title></dc:title>
      </cc:Work>
    </rdf:RDF>
  </metadata>
  <g
     inkscape:label="Capa 1"
     inkscape:groupmode="layer"
     id="layer1"
     transform="translate(0,-290.65)">
    <g
       id="g849"
       style="fill:#2780e3;fill-opacity:1"
       transform="matrix(0.25467974,0,0,0.25467974,14.587455,228.37)">
      <path
         style="fill:#2780e3;fill-opacity:1;stroke-width:0.26458332"
         id="path2"
         d="m -43.250654,253.36409 v -1.64041 c -0.926042,0.0264 -1.852084,0.0264 -2.778125,0 v 1.64041 c -4.312709,0.68792 -7.540626,4.47146 -7.540626,8.94292 v 4.63021 0 c 0,1.03187 0.846667,1.87854 1.878542,1.87854 h 14.12875 c 1.031875,0 1.878542,-0.84667 1.878542,-1.87854 v 0 -4.73604 c 0,-4.47146 -3.280833,-8.17563 -7.567083,-8.83709 z m -3.386667,11.50938 -3.704167,-3.70417 c -0.47625,-0.47625 -0.47625,-1.21708 0,-1.69333 v 0 c 0.47625,-0.47625 1.217083,-0.47625 1.693333,0 l 3.704167,3.70416 c -0.343958,-0.0265 -0.714375,0.0794 -1.005416,0.29105 -0.502709,0.34395 -0.714376,0.87312 -0.687917,1.40229 z m 3.942292,0.9525 c -0.105834,0.66146 -0.661459,1.21708 -1.322917,1.32291 -1.11125,0.18521 -2.037292,-0.76729 -1.878542,-1.87854 0.105834,-0.66146 0.661459,-1.21708 1.322917,-1.32291 1.11125,-0.18521 2.06375,0.76729 1.878542,1.87854 z"
         inkscape:connector-curvature="0" />
      <path
         style="fill:#2780e3;fill-opacity:1;stroke-width:0.26458332"
         id="path4"
         d="m -33.064196,246.67013 c 0,-0.0265 0,-0.0265 -0.02646,-0.0529 -0.396875,-1.19063 -1.719792,-1.85209 -2.963334,-1.53459 -5.635625,1.42875 -11.535833,1.42875 -17.171458,0 -1.243542,-0.3175 -2.566459,0.34396 -2.963334,1.53459 0,0.0265 0,0.0265 -0.02646,0.0529 -0.396875,1.19063 0.423333,2.56646 1.852083,2.91042 2.751667,0.68792 5.529792,1.08479 8.334376,1.19063 0.926041,0.0265 1.852083,0.0265 2.778125,0 2.804583,-0.10584 5.609166,-0.50271 8.334375,-1.19063 1.455208,-0.37042 2.275416,-1.71979 1.852083,-2.91042 z"
         inkscape:connector-curvature="0" />
    </g>
  </g>
</svg>
