<?xml version="1.0" encoding="UTF-8" standalone="no"?>
<!-- Created with Inkscape (http://www.inkscape.org/) -->

<svg
   xmlns:dc="http://purl.org/dc/elements/1.1/"
   xmlns:cc="http://creativecommons.org/ns#"
   xmlns:rdf="http://www.w3.org/1999/02/22-rdf-syntax-ns#"
   xmlns:svg="http://www.w3.org/2000/svg"
   xmlns="http://www.w3.org/2000/svg"
   xmlns:sodipodi="http://sodipodi.sourceforge.net/DTD/sodipodi-0.dtd"
   xmlns:inkscape="http://www.inkscape.org/namespaces/inkscape"
   width="100mm"
   height="100mm"
   viewBox="0 0 100 100"
   version="1.1"
   id="svg5174"
   inkscape:version="0.92.2 2405546, 2018-03-11"
   sodipodi:docname="medicament_frequency.svg">
  <defs
     id="defs5168" />
  <sodipodi:namedview
     id="base"
     pagecolor="#ffffff"
     bordercolor="#666666"
     borderopacity="1.0"
     inkscape:pageopacity="0.0"
     inkscape:pageshadow="2"
     inkscape:zoom="0.98994949"
     inkscape:cx="224.33035"
     inkscape:cy="233.82024"
     inkscape:document-units="mm"
     inkscape:current-layer="layer1"
     showgrid="false"
     inkscape:window-width="2560"
     inkscape:window-height="1347"
     inkscape:window-x="0"
     inkscape:window-y="0"
     inkscape:window-maximized="1" />
  <metadata
     id="metadata5171">
    <rdf:RDF>
      <cc:Work
         rdf:about="">
        <dc:format>image/svg+xml</dc:format>
        <dc:type
           rdf:resource="http://purl.org/dc/dcmitype/StillImage" />
        <dc:title />
      </cc:Work>
    </rdf:RDF>
  </metadata>
  <g
     inkscape:label="Capa 1"
     inkscape:groupmode="layer"
     id="layer1"
     transform="translate(0,-197)">
    <path
       inkscape:connector-curvature="0"
       d="m 87.712551,228.39637 c -1.047469,0 -1.904506,-0.85701 -1.904506,-1.90446 0,-1.04747 0.857037,-1.90452 1.904506,-1.90452 h 6.570492 c -0.571355,-11.04608 -9.23681,-19.9972 -20.092431,-21.13989 v 6.85619 c 0,1.04746 -0.857003,1.9045 -1.904476,1.9045 -1.047468,0 -1.904506,-0.85704 -1.904506,-1.9045 v -6.76097 c -11.046091,0.66658 -19.901978,9.42724 -20.759015,20.37809 h 6.475299 c 1.047469,0 1.904506,0.85704 1.904506,1.90451 0,1.04748 -0.857037,1.90452 -1.904506,1.90452 h -6.475299 c 0.857037,10.76038 9.427275,19.33062 20.092432,20.37809 v -6.09439 c 0,-1.04751 0.857037,-1.9045 1.904508,-1.9045 1.04747,0 1.904508,0.85699 1.904508,1.9045 v 6.18961 c 10.760391,-0.7618 19.521054,-9.14158 20.75898,-19.71155 h -6.570492 z m -7.522769,-4.28509 -7.522757,3.42808 c -0.285771,0.0953 -0.571353,0.1904 -0.761808,0.1904 -0.666549,0 -1.428359,-0.38092 -1.714054,-1.0475 L 65.04903,215.35051 c -0.380889,-0.95223 0,-1.99971 0.952274,-2.47581 0.952232,-0.38093 1.999703,0 2.475819,0.95223 l 4.380357,9.6177 5.808717,-2.66629 c 0.952242,-0.38091 1.999711,0 2.475825,0.95224 0.380923,0.85704 0,1.99974 -0.95224,2.38063 z"
       id="path2-3"
       style="fill:#2780e3;fill-opacity:1;stroke-width:0.95224762" />
    <g
       transform="matrix(1.4871993,0,0,1.4871993,6.9743138,219.98723)"
       id="g8"
       style="fill:#2780e3;fill-opacity:1">
      <path
         inkscape:connector-curvature="0"
         d="M 22.6,26 H 0.5 v 10.4 c 0,6.1 4.8,11.1 10.6,11.1 h 0.8 c 5.9,0 10.6,-5 10.6,-11.1 V 26 Z"
         id="path2"
         style="fill:#2780e3;fill-opacity:1" />
      <path
         inkscape:connector-curvature="0"
         d="M 22.6,11.6 C 22.6,5.5 17.8,0.5 12,0.5 H 11.2 C 5.3,0.5 0.6,5.5 0.6,11.6 V 22 H 22.7 V 11.6 Z"
         id="path4"
         style="fill:#2780e3;fill-opacity:1" />
      <path
         inkscape:connector-curvature="0"
         d="M 36.9,24.4 H 26.5 v 12 c 0,4.4 -1.9,8.4 -4.8,11.1 h 15.2 c 5.9,0 10.6,-5 10.6,-11.1 v -0.8 c 0,-6.2 -4.8,-11.2 -10.6,-11.2 z"
         id="path6"
         style="fill:#2780e3;fill-opacity:1" />
    </g>
  </g>
</svg>
