<?xml version="1.0" encoding="UTF-8" standalone="no"?>
<svg
   xmlns:dc="http://purl.org/dc/elements/1.1/"
   xmlns:cc="http://creativecommons.org/ns#"
   xmlns:rdf="http://www.w3.org/1999/02/22-rdf-syntax-ns#"
   xmlns:svg="http://www.w3.org/2000/svg"
   xmlns="http://www.w3.org/2000/svg"
   xmlns:sodipodi="http://sodipodi.sourceforge.net/DTD/sodipodi-0.dtd"
   xmlns:inkscape="http://www.inkscape.org/namespaces/inkscape"
   inkscape:version="1.0 (4035a4fb49, 2020-05-01)"
   height="24"
   width="24"
   sodipodi:docname="medicament_dose.svg"
   xml:space="preserve"
   viewBox="0 0 24 24"
   y="0px"
   x="0px"
   id="Capa_1"
   version="1.1"><metadata
   id="metadata85"><rdf:RDF><cc:Work
       rdf:about=""><dc:format>image/svg+xml</dc:format><dc:type
         rdf:resource="http://purl.org/dc/dcmitype/StillImage" /><dc:title></dc:title></cc:Work></rdf:RDF></metadata><defs
   id="defs83" /><sodipodi:namedview
   inkscape:current-layer="Capa_1"
   inkscape:window-maximized="1"
   inkscape:window-y="0"
   inkscape:window-x="0"
   inkscape:cy="14.355448"
   inkscape:cx="17.117588"
   inkscape:zoom="22.992375"
   showgrid="false"
   id="namedview81"
   inkscape:window-height="1417"
   inkscape:window-width="2560"
   inkscape:pageshadow="2"
   inkscape:pageopacity="0"
   guidetolerance="10"
   gridtolerance="10"
   objecttolerance="10"
   borderopacity="1"
   bordercolor="#666666"
   pagecolor="#ffffff" />
<polygon
   transform="scale(0.0483871)"
   id="polygon2"
   points="232,400 264,400 288,488 328,488 288,344 208,344 168,488 208,488 "
   style="fill:#d3a06c" />
<g
   transform="scale(0.0483871)"
   id="g8">
	<polygon
   id="polygon4"
   points="279.272,456 288,488 328,488 319.112,456 "
   style="fill:#b27946" />
	<polygon
   id="polygon6"
   points="208,488 216.728,456 176.888,456 168,488 "
   style="fill:#b27946" />
</g>
<path
   id="path10"
   d="m 14.011355,14.322581 h 8.827355 c 0.427742,0 0.774193,0.346451 0.774193,0.774193 v 0.774194 c 0,0.427742 -0.346451,0.774193 -0.774193,0.774193 H 14.011355 9.9886452 1.1612903 c -0.42774191,0 -0.77419353,-0.346451 -0.77419353,-0.774193 v -0.774194 c 0,-0.427742 0.34645162,-0.774193 0.77419353,-0.774193 h 8.8273549 z"
   style="fill:#d3a06c;stroke-width:0.0483871" />
<path
   id="path12"
   d="m 0.38709677,15.483871 v 0.387097 c 0,0.427742 0.34645162,0.774193 0.77419353,0.774193 h 8.8273549 4.0230968 8.826968 c 0.427742,0 0.774193,-0.346451 0.774193,-0.774193 v -0.387097 z"
   style="fill:#b27946;stroke-width:0.0483871" />
<path
   id="path14"
   d="M 23.612903,6.1935484 V 3.8709677 H 22.661032 C 22.592516,3.6526452 22.503097,3.4436129 22.398968,3.2434839 L 23.073677,2.5687742 21.431226,0.92632258 20.756516,1.6010323 C 20.556774,1.4965161 20.347742,1.4074839 20.129032,1.3389677 V 0.38709677 h -2.32258 V 1.3389677 c -0.218323,0.068516 -0.427355,0.1579355 -0.627484,0.2620646 l -0.67471,-0.67470972 -1.642452,1.64245162 0.67471,0.6747097 C 15.432,3.4432258 15.342968,3.6522581 15.274452,3.8709677 h -0.951871 v 2.3225807 h 0.951871 c 0.06852,0.2183226 0.157935,0.4273548 0.262064,0.6274839 l -0.67471,0.6747096 1.642452,1.6424516 0.67471,-0.6747096 C 17.37871,8.568 17.587742,8.6570323 17.806452,8.7255484 v 0.951871 h 2.32258 v -0.951871 c 0.218323,-0.068516 0.427355,-0.1579355 0.627484,-0.2620645 l 0.67471,0.6747096 1.642451,-1.6424516 -0.674709,-0.6747096 c 0.104516,-0.199742 0.193548,-0.4087742 0.262064,-0.6274839 z m -4.645161,1.1612903 c -1.282839,0 -2.322581,-1.0397419 -2.322581,-2.3225806 0,-1.2828387 1.039742,-2.3225807 2.322581,-2.3225807 1.282839,0 2.322581,1.039742 2.322581,2.3225807 0,1.2828387 -1.039742,2.3225806 -2.322581,2.3225806 z"
   style="fill:#fea82f;stroke-width:0.0483871" />
<circle
   id="circle16"
   r="2.3225806"
   cy="15.483871"
   cx="12"
   style="fill:#fcd770;stroke-width:0.0483871" />
<path
   id="path18"
   d="m 12,17.032258 c -1.150452,0 -2.1030968,-0.83729 -2.2877419,-1.935484 -0.02129,0.126194 -0.034839,0.255097 -0.034839,0.387097 0,1.282839 1.0397419,2.322581 2.3225809,2.322581 1.282839,0 2.322581,-1.039742 2.322581,-2.322581 0,-0.132 -0.01355,-0.260903 -0.03484,-0.387097 C 14.103097,16.194968 13.150452,17.032258 12,17.032258 Z"
   style="fill:#ffc729;stroke-width:0.0483871" />
<circle
   id="circle20"
   r="0.77419353"
   cy="15.483871"
   cx="12"
   style="fill:#ffeaa7;stroke-width:0.0483871" />
<path
   id="path22"
   d="m 20.129032,14.322581 h -2.32258 c -1.282839,0 -2.322581,-1.039742 -2.322581,-2.322581 v -0.774194 h 6.967742 V 12 c 0,1.282839 -1.039742,2.322581 -2.322581,2.322581 z"
   style="fill:#8c95a4;stroke-width:0.0483871" />
<path
   id="path24"
   d="m 20.129032,13.548387 h -2.32258 c -1.282839,0 -2.322581,-1.039742 -2.322581,-2.322581 V 12 c 0,1.282839 1.039742,2.322581 2.322581,2.322581 h 2.32258 c 1.282839,0 2.322581,-1.039742 2.322581,-2.322581 v -0.774194 c 0,1.282839 -1.039742,2.322581 -2.322581,2.322581 z"
   style="fill:#798699;stroke-width:0.0483871" />
<path
   id="path26"
   d="M 3.8709677,14.322581 H 6.1935484 C 7.4763871,14.322581 8.516129,13.282839 8.516129,12 V 11.225806 H 1.5483871 V 12 c 0,1.282839 1.0397419,2.322581 2.3225806,2.322581 z"
   style="fill:#8c95a4;stroke-width:0.0483871" />
<path
   id="path28"
   d="M 6.1935484,13.548387 H 3.8709677 c -1.2828387,0 -2.3225806,-1.039742 -2.3225806,-2.322581 V 12 c 0,1.282839 1.0397419,2.322581 2.3225806,2.322581 H 6.1935484 C 7.4763871,14.322581 8.516129,13.282839 8.516129,12 v -0.774194 c 0,1.282839 -1.0397419,2.322581 -2.3225806,2.322581 z"
   style="fill:#798699;stroke-width:0.0483871" />
<circle
   id="circle30"
   r="4.6451612"
   cy="5.032258"
   cx="5.032258"
   style="fill:#8c95a4;stroke-width:0.0483871" />
<circle
   id="circle32"
   r="3.483871"
   cy="5.032258"
   cx="5.032258"
   style="fill:#ececec;stroke-width:0.0483871" />
<path
   id="path34"
   d="m 5.0322581,8.9032258 c -2.4348387,0 -4.42838713,-1.8743226 -4.62580649,-4.2580645 -0.0104516,0.128129 -0.0193548,0.2562581 -0.0193548,0.3870968 0,2.5652903 2.07987089,4.6451613 4.64516129,4.6451613 2.5652903,0 4.6451613,-2.079871 4.6451613,-4.6451613 0,-0.1308387 -0.0089,-0.2589678 -0.019355,-0.3870968 C 9.4606452,7.0289032 7.4670968,8.9032258 5.0322581,8.9032258 Z"
   style="fill:#798699;stroke-width:0.0483871" />
<path
   id="path36"
   d="m 18.967742,1.9354839 c -1.710194,0 -3.096774,1.3865806 -3.096774,3.0967742 0,1.7101935 1.38658,3.0967742 3.096774,3.0967742 1.710193,0 3.096774,-1.3865807 3.096774,-3.0967742 0,-1.7101936 -1.386581,-3.0967742 -3.096774,-3.0967742 z m 0,5.4193548 c -1.282839,0 -2.322581,-1.0397419 -2.322581,-2.3225806 0,-1.2828387 1.039742,-2.3225807 2.322581,-2.3225807 1.282839,0 2.322581,1.039742 2.322581,2.3225807 0,1.2828387 -1.039742,2.3225806 -2.322581,2.3225806 z"
   style="fill:#ffc729;stroke-width:0.0483871" />
<path
   style="stroke-width:0.0483871"
   id="path38"
   d="M 22.934323,3.483871 C 22.913033,3.430064 22.890583,3.3766452 22.866973,3.3228387 L 23.621032,2.5687742 21.431226,0.37935484 20.676774,1.1334194 c -0.05342,-0.024 -0.106839,-0.046065 -0.160645,-0.067355 V 0 h -3.096774 v 1.0660645 c -0.05381,0.02129 -0.107226,0.043355 -0.160645,0.067355 L 16.504258,0.37935484 14.314452,2.5687742 15.068516,3.3228387 c -0.02323,0.053806 -0.04568,0.1072258 -0.06736,0.1610323 h -1.065677 v 3.0967742 h 1.065677 c 0.02129,0.053806 0.04374,0.1072258 0.06736,0.1610322 l -0.754064,0.7540645 2.189806,2.1894194 0.754452,-0.7540645 c 0.05342,0.024 0.106838,0.046064 0.160645,0.067355 v 1.0660642 h 3.096774 V 8.9984516 c 0.05381,-0.02129 0.107226,-0.043355 0.160645,-0.067355 l 0.754452,0.7540645 2.189806,-2.1894194 -0.754064,-0.7540645 c 0.02361,-0.053806 0.04606,-0.1072258 0.06735,-0.1610322 H 24 V 3.483871 Z m 0.291483,2.3225806 H 22.37729 L 22.29213,6.0770323 C 22.2329,6.2651613 22.153548,6.4552258 22.056,6.6418065 l -0.131613,0.2516129 0.602323,0.6023225 -1.095097,1.0947097 -0.601936,-0.6023226 -0.252,0.1316129 C 20.390323,8.2176774 20.200258,8.2970323 20.01329,8.355871 L 19.741935,8.441806 V 9.2903226 H 18.193548 V 8.4418065 L 17.922581,8.3562581 C 17.735613,8.2974194 17.545548,8.2180645 17.358194,8.120129 L 17.106194,7.9885161 16.504258,8.5908387 15.409161,7.496129 16.011484,6.8938065 15.879871,6.6421935 C 15.782323,6.4556129 15.702968,6.2655484 15.643742,6.0774194 L 15.558194,5.8064516 H 14.709677 V 4.2580645 h 0.848517 l 0.08516,-0.2705806 c 0.05923,-0.1881291 0.13858,-0.3781936 0.236129,-0.5647742 l 0.131613,-0.2516129 -0.602323,-0.6023226 1.095097,-1.0947097 0.601935,0.6023226 0.252,-0.1316129 c 0.187355,-0.097935 0.37742,-0.1772903 0.564388,-0.236129 l 0.271354,-0.085936 V 0.77419355 h 1.548387 V 1.6227097 l 0.270968,0.085548 c 0.186968,0.058839 0.377032,0.1381935 0.564387,0.236129 L 20.82929,2.076 21.431226,1.4736774 22.526323,2.5683871 21.924,3.1707097 22.055613,3.4223226 c 0.09755,0.1865806 0.176903,0.3766451 0.236129,0.5647742 l 0.08555,0.2709677 h 0.848516 z" />
<path
   style="stroke-width:0.0483871"
   id="path40"
   d="m 18.967742,2.3225806 c -1.494194,0 -2.709677,1.215871 -2.709677,2.7096775 0,1.4938064 1.215483,2.7096774 2.709677,2.7096774 1.494193,0 2.709677,-1.215871 2.709677,-2.7096774 0,-1.4938065 -1.215484,-2.7096775 -2.709677,-2.7096775 z m 0,4.6451613 c -1.067226,0 -1.935484,-0.868258 -1.935484,-1.9354838 0,-1.0672258 0.868258,-1.9354839 1.935484,-1.9354839 1.067226,0 1.935484,0.8682581 1.935484,1.9354839 0,1.0672258 -0.868258,1.9354838 -1.935484,1.9354838 z" />
<path
   style="stroke-width:0.0483871"
   id="path42"
   d="m 12,16.645161 c 0.640258,0 1.16129,-0.521032 1.16129,-1.16129 0,-0.640258 -0.521032,-1.16129 -1.16129,-1.16129 -0.640258,0 -1.16129,0.521032 -1.16129,1.16129 0,0.640258 0.521032,1.16129 1.16129,1.16129 z m 0,-1.548387 c 0.21329,0 0.387097,0.17342 0.387097,0.387097 0,0.213677 -0.173807,0.387097 -0.387097,0.387097 -0.21329,0 -0.387097,-0.17342 -0.387097,-0.387097 0,-0.213677 0.173807,-0.387097 0.387097,-0.387097 z" />
<path
   style="stroke-width:0.0483871"
   id="path44"
   d="M 22.83871,13.935484 H 22.021548 C 22.525161,13.443097 22.83871,12.757935 22.83871,12 V 10.83871 H 15.096774 V 12 c 0,0.757935 0.313549,1.443097 0.817161,1.935484 h -1.693161 c -0.490451,-0.701032 -1.302193,-1.16129 -2.220387,-1.16129 -0.918193,0 -1.730322,0.460258 -2.220387,1.16129 H 8.0868387 C 8.5896774,13.443097 8.9032258,12.757935 8.9032258,12 V 10.83871 H 1.1612903 V 12 c 0,0.757935 0.3135484,1.443097 0.8171613,1.935484 H 1.1612903 C 0.52103226,13.935484 0,14.456516 0,15.096774 v 0.774194 c 0,0.640258 0.52103226,1.16129 1.1612903,1.16129 H 9.6623226 L 7.611871,24 h 2.748774 l 1.16129,-4.258065 h 0.957291 L 13.640516,24 h 2.748774 l -2.050838,-6.967742 h 8.500258 c 0.640258,0 1.16129,-0.521032 1.16129,-1.16129 v -0.774194 c 0,-0.640258 -0.521032,-1.16129 -1.16129,-1.16129 z M 16.268129,13.16129 h 4.635097 V 12.387097 H 15.910065 C 15.884516,12.262065 15.870968,12.132387 15.870968,12 v -0.387097 h 6.193548 V 12 c 0,1.067226 -0.868258,1.935484 -1.935484,1.935484 h -2.32258 c -0.629807,0 -1.184904,-0.306968 -1.538323,-0.774194 z M 12,13.548387 c 1.067226,0 1.935484,0.868258 1.935484,1.935484 0,1.067226 -0.868258,1.935484 -1.935484,1.935484 -1.067226,0 -1.935484,-0.868258 -1.935484,-1.935484 0,-1.067226 0.868258,-1.935484 1.935484,-1.935484 z M 2.3326452,13.16129 H 6.9677419 V 12.387097 H 1.9745806 C 1.9490323,12.262065 1.9354839,12.132387 1.9354839,12 V 11.612903 H 8.1290323 V 12 c 0,1.067226 -0.8682581,1.935484 -1.9354839,1.935484 H 3.8709677 c -0.6298064,0 -1.1849032,-0.306968 -1.5383225,-0.774194 z m -1.55845165,2.709678 v -0.774194 c 0,-0.213677 0.17380645,-0.387097 0.38709675,-0.387097 h 2.7096774 2.3225807 3.2109677 c -0.073548,0.24542 -0.1141935,0.505162 -0.1141935,0.774194 0,0.269032 0.040645,0.528774 0.1141935,0.774194 H 1.1612903 c -0.2132903,0 -0.38709675,-0.17342 -0.38709675,-0.387097 z m 7.87238705,7.354838 0.228,-0.774193 H 9.980129 l -0.2109677,0.774193 z m 2.2834844,-4.258064 -0.738968,2.709677 H 9.1021935 l 1.2015485,-4.083484 c 0.464903,0.374323 1.054452,0.599613 1.696258,0.599613 0.641806,0 1.231355,-0.22529 1.695871,-0.599613 l 1.201935,4.083484 h -1.088903 l -0.738968,-2.709677 z m 3.301161,4.258064 -0.210968,-0.774193 h 1.105548 l 0.228,0.774193 z m 8.99458,-7.354838 c 0,0.213677 -0.173806,0.387097 -0.387096,0.387097 h -8.243226 c 0.07355,-0.24542 0.114193,-0.505162 0.114193,-0.774194 0,-0.269032 -0.04064,-0.528774 -0.114193,-0.774194 h 3.210968 2.32258 2.709678 c 0.21329,0 0.387096,0.17342 0.387096,0.387097 z" />
<path
   style="stroke-width:0.0483871"
   id="path46"
   d="m 5.0322581,10.064516 c 2.7747096,0 5.0322579,-2.2575483 5.0322579,-5.0322579 C 10.064516,2.2575484 7.8069677,0 5.0322581,0 2.2575484,0 0,2.2575484 0,5.0322581 0,7.8069677 2.2575484,10.064516 5.0322581,10.064516 Z M 4.6451613,0.79393548 V 1.5483871 H 5.4193548 V 0.79393548 C 7.4585806,0.97896774 9.0859355,2.6059355 9.2705806,4.6451613 H 8.516129 v 0.7741935 h 0.7544516 c -0.1850322,2.0392258 -1.812,3.6665807 -3.8512258,3.8512258 V 8.516129 H 4.6451613 V 9.2705806 C 2.6059355,9.0859355 0.97858065,7.4585806 0.79393548,5.4193548 H 1.5483871 V 4.6451613 H 0.79393548 C 0.97858065,2.6059355 2.6059355,0.97858065 4.6451613,0.79393548 Z" />
<polygon
   transform="scale(0.0483871)"
   id="polygon48"
   points="96,48 96,107.312 130.344,141.656 141.656,130.344 112,100.688 112,48 " />
<g
   id="g50">
</g>
<g
   id="g52">
</g>
<g
   id="g54">
</g>
<g
   id="g56">
</g>
<g
   id="g58">
</g>
<g
   id="g60">
</g>
<g
   id="g62">
</g>
<g
   id="g64">
</g>
<g
   id="g66">
</g>
<g
   id="g68">
</g>
<g
   id="g70">
</g>
<g
   id="g72">
</g>
<g
   id="g74">
</g>
<g
   id="g76">
</g>
<g
   id="g78">
</g>
</svg>
