<?xml version="1.0" encoding="UTF-8" standalone="no"?>
<svg
   xmlns:dc="http://purl.org/dc/elements/1.1/"
   xmlns:cc="http://creativecommons.org/ns#"
   xmlns:rdf="http://www.w3.org/1999/02/22-rdf-syntax-ns#"
   xmlns:svg="http://www.w3.org/2000/svg"
   xmlns="http://www.w3.org/2000/svg"
   xmlns:sodipodi="http://sodipodi.sourceforge.net/DTD/sodipodi-0.dtd"
   xmlns:inkscape="http://www.inkscape.org/namespaces/inkscape"
   inkscape:version="1.0 (4035a4fb49, 2020-05-01)"
   height="24"
   width="24"
   sodipodi:docname="medicament.svg"
   xml:space="preserve"
   viewBox="0 0 24.000001 24.000001"
   y="0px"
   x="0px"
   id="Capa_1"
   version="1.1"><metadata
   id="metadata57"><rdf:RDF><cc:Work
       rdf:about=""><dc:format>image/svg+xml</dc:format><dc:type
         rdf:resource="http://purl.org/dc/dcmitype/StillImage" /><dc:title></dc:title></cc:Work></rdf:RDF></metadata><defs
   id="defs55" /><sodipodi:namedview
   inkscape:current-layer="Capa_1"
   inkscape:window-maximized="1"
   inkscape:window-y="0"
   inkscape:window-x="0"
   inkscape:cy="13.834543"
   inkscape:cx="14.533735"
   inkscape:zoom="22.273821"
   showgrid="false"
   id="namedview53"
   inkscape:window-height="1417"
   inkscape:window-width="2560"
   inkscape:pageshadow="2"
   inkscape:pageopacity="0"
   guidetolerance="10"
   gridtolerance="10"
   objecttolerance="10"
   borderopacity="1"
   bordercolor="#666666"
   pagecolor="#ffffff" />
<path
   id="path2"
   d="M 5.0000156,0.50037984 H 9 c 2.485266,0 4.5,2.01473436 4.5,4.49999996 V 19.000395 c 0,2.485266 -2.014734,4.5 -4.5,4.5 H 5.0000156 c -2.4852656,0 -4.49999997,-2.014734 -4.49999997,-4.5 V 5.0003798 C 0.50001562,2.5151142 2.51475,0.50037984 5.0000156,0.50037984 Z"
   style="fill:#69f0f7;stroke-width:0.046875" />
<g
   transform="matrix(0.046875,0,0,0.046875,0,3.6421263e-4)"
   id="g10">
	<path
   id="path4"
   d="M 192,512.001 H 106.667 C 47.783,511.936 0.065,464.218 0,405.334 V 106.667 C 0.065,47.784 47.783,0.065 106.667,0.001 H 192 c 40.555,-0.138 77.643,22.85 95.563,59.232 l -19.104,9.493 C 254.122,39.616 224.449,21.224 192,21.334 h -85.333 c -47.106,0.053 -85.28,38.227 -85.333,85.333 v 298.667 c 0.053,47.106 38.227,85.28 85.333,85.333 H 192 c 31.957,0.06 61.252,-17.791 75.851,-46.219 l 18.965,9.792 C 268.561,489.768 231.943,512.075 192,512.001 Z"
   style="fill:#4c5b66" />
	<path
   id="path6"
   d="m 42.667,245.334 h 128 v 21.333 h -128 z"
   style="fill:#4c5b66" />
	<path
   id="path8"
   d="M 74.667,117.334 H 53.334 c -1.291,-34.055 25.27,-62.709 59.325,-64 1.558,-0.059 3.117,-0.059 4.675,0 v 21.333 c -22.663,-0.902 -41.765,16.739 -42.667,39.402 -0.043,1.088 -0.043,2.177 0,3.265 z"
   style="fill:#4c5b66" />
</g>
<circle
   id="circle12"
   r="6.9999838"
   cy="12.000411"
   cx="16.5"
   style="fill:#ffe451;stroke-width:0.046875" />
<g
   transform="matrix(0.046875,0,0,0.046875,0,3.6421263e-4)"
   id="g20">
	<path
   id="path14"
   d="m 352,416.001 c -88.366,0 -160,-71.634 -160,-160 0,-88.366 71.634,-160 160,-160 88.366,0 160,71.634 160,160 -0.1,88.324 -71.675,159.9 -160,160 z m 0,-298.667 c -76.583,0 -138.667,62.083 -138.667,138.667 0,76.584 62.084,138.666 138.667,138.666 76.583,0 138.667,-62.083 138.667,-138.667 C 490.579,179.454 428.547,117.422 352,117.334 Z"
   style="fill:#4c5b66" />
	<path
   id="path16"
   d="m 341.334,138.667 h 21.333 v 234.667 h -21.333 z"
   style="fill:#4c5b66" />
	<path
   id="path18"
   d="m 266.667,245.334 h -21.333 c 0.055,-34.433 18.491,-66.216 48.352,-83.36 l 10.603,18.507 c -23.229,13.342 -37.571,38.066 -37.622,64.853 z"
   style="fill:#4c5b66" />
</g>
<g
   id="g22">
</g>
<g
   id="g24">
</g>
<g
   id="g26">
</g>
<g
   id="g28">
</g>
<g
   id="g30">
</g>
<g
   id="g32">
</g>
<g
   id="g34">
</g>
<g
   id="g36">
</g>
<g
   id="g38">
</g>
<g
   id="g40">
</g>
<g
   id="g42">
</g>
<g
   id="g44">
</g>
<g
   id="g46">
</g>
<g
   id="g48">
</g>
<g
   id="g50">
</g>
</svg>
