<?xml version="1.0" encoding="UTF-8" standalone="no"?>
<!-- Created with Inkscape (http://www.inkscape.org/) -->

<svg
   xmlns:dc="http://purl.org/dc/elements/1.1/"
   xmlns:cc="http://creativecommons.org/ns#"
   xmlns:rdf="http://www.w3.org/1999/02/22-rdf-syntax-ns#"
   xmlns:svg="http://www.w3.org/2000/svg"
   xmlns="http://www.w3.org/2000/svg"
   xmlns:sodipodi="http://sodipodi.sourceforge.net/DTD/sodipodi-0.dtd"
   xmlns:inkscape="http://www.inkscape.org/namespaces/inkscape"
   width="24"
   height="24"
   viewBox="0 0 6.3499998 6.3499998"
   version="1.1"
   id="svg5174"
   inkscape:version="0.92.2 2405546, 2018-03-11"
   sodipodi:docname="medicament.svg">
  <defs
     id="defs5168" />
  <sodipodi:namedview
     id="base"
     pagecolor="#ffffff"
     bordercolor="#666666"
     borderopacity="1.0"
     inkscape:pageopacity="0.0"
     inkscape:pageshadow="2"
     inkscape:zoom="22.4"
     inkscape:cx="9.8347107"
     inkscape:cy="12.794172"
     inkscape:document-units="mm"
     inkscape:current-layer="layer1"
     showgrid="false"
     inkscape:window-width="2560"
     inkscape:window-height="1347"
     inkscape:window-x="0"
     inkscape:window-y="0"
     inkscape:window-maximized="1"
     units="px" />
  <metadata
     id="metadata5171">
    <rdf:RDF>
      <cc:Work
         rdf:about="">
        <dc:format>image/svg+xml</dc:format>
        <dc:type
           rdf:resource="http://purl.org/dc/dcmitype/StillImage" />
        <dc:title></dc:title>
      </cc:Work>
    </rdf:RDF>
  </metadata>
  <g
     inkscape:label="Capa 1"
     inkscape:groupmode="layer"
     id="layer1"
     transform="translate(0,-290.65)">
    <g
       transform="matrix(0.1298618,0,0,0.1298618,0.05490934,290.68945)"
       id="g10"
       style="fill:#2780e3;fill-opacity:1">
      <path
         inkscape:connector-curvature="0"
         d="m 44.8,3.9 c -2,-2.1 -4.6,-3.2 -7.5,-3.3 -0.1,0 -0.1,0 -0.2,0 C 32,0.6 27.6,4.2 26.6,9 l 21,0.5 C 47.2,7.4 46.3,5.4 44.8,3.9 Z"
         id="path2"
         style="fill:#2780e3;fill-opacity:1" />
      <path
         inkscape:connector-curvature="0"
         d="m 29.1,18.5 c 2,2.1 4.6,3.2 7.5,3.3 0.1,0 0.1,0 0.2,0 5.1,0 9.5,-3.6 10.5,-8.4 l -21,-0.5 c 0.4,2.1 1.3,4 2.8,5.6 z"
         id="path4"
         style="fill:#2780e3;fill-opacity:1" />
      <path
         inkscape:connector-curvature="0"
         d="M 23.7,17.4 17.4,13.5 C 14.8,11.9 11.8,11.4 8.9,12.1 6.1,12.8 3.8,14.5 2.4,16.9 L 2,17.7 c -3,5.1 -1.2,11.8 4,15 l 8.9,5.5 10.6,-17.8 c -0.7,-0.9 -1.3,-1.9 -1.8,-3 z"
         id="path6"
         style="fill:#2780e3;fill-opacity:1" />
      <path
         inkscape:connector-curvature="0"
         d="m 38.6,26.6 -1.5,-0.9 c -0.1,0 -0.2,0 -0.3,0 h -0.3 c -2.9,-0.1 -5.7,-1 -8,-2.6 l -10.2,17.2 8.9,5.5 c 1.8,1.1 3.9,1.7 5.9,1.7 0.9,0 1.8,-0.1 2.6,-0.3 2.8,-0.7 5.1,-2.4 6.5,-4.8 l 0.4,-0.7 c 3.1,-5.2 1.3,-11.9 -4,-15.1 z"
         id="path8"
         style="fill:#2780e3;fill-opacity:1" />
    </g>
  </g>
</svg>
