<?xml version="1.0" encoding="iso-8859-1"?>
<!-- Generator: Adobe Illustrator 19.0.0, SVG Export Plug-In . SVG Version: 6.00 Build 0)  -->
<svg version="1.1" id="Capa_1" xmlns="http://www.w3.org/2000/svg" xmlns:xlink="http://www.w3.org/1999/xlink" x="0px" y="0px"
	 viewBox="0 0 512.001 512.001" style="enable-background:new 0 0 512.001 512.001;" xml:space="preserve">
<path style="fill:#69F0F7;" d="M106.667,10.667H192c53.019,0,96,42.981,96,96v298.667c0,53.019-42.981,96-96,96h-85.333
	c-53.019,0-96-42.981-96-96V106.667C10.667,53.648,53.648,10.667,106.667,10.667z"/>
<g>
	<path style="fill:#4C5B66;" d="M192,512.001h-85.333C47.783,511.936,0.065,464.218,0,405.334V106.667
		C0.065,47.784,47.783,0.065,106.667,0.001H192c40.555-0.138,77.643,22.85,95.563,59.232l-19.104,9.493
		C254.122,39.616,224.449,21.224,192,21.334h-85.333c-47.106,0.053-85.28,38.227-85.333,85.333v298.667
		c0.053,47.106,38.227,85.28,85.333,85.333H192c31.957,0.06,61.252-17.791,75.851-46.219l18.965,9.792
		C268.561,489.768,231.943,512.075,192,512.001z"/>
	<path style="fill:#4C5B66;" d="M42.667,245.334h128v21.333h-128V245.334z"/>
	<path style="fill:#4C5B66;" d="M74.667,117.334H53.334c-1.291-34.055,25.27-62.709,59.325-64c1.558-0.059,3.117-0.059,4.675,0
		v21.333c-22.663-0.902-41.765,16.739-42.667,39.402C74.624,115.157,74.624,116.246,74.667,117.334z"/>
</g>
<circle style="fill:#FFE451;" cx="352" cy="256.001" r="149.333"/>
<g>
	<path style="fill:#4C5B66;" d="M352,416.001c-88.366,0-160-71.634-160-160s71.634-160,160-160s160,71.634,160,160
		C511.9,344.325,440.325,415.901,352,416.001z M352,117.334c-76.583,0-138.667,62.083-138.667,138.667S275.417,394.667,352,394.667
		s138.667-62.083,138.667-138.667C490.579,179.454,428.547,117.422,352,117.334z"/>
	<path style="fill:#4C5B66;" d="M341.334,138.667h21.333v234.667h-21.333V138.667z"/>
	<path style="fill:#4C5B66;" d="M266.667,245.334h-21.333c0.055-34.433,18.491-66.216,48.352-83.36l10.603,18.507
		C281.06,193.823,266.718,218.547,266.667,245.334z"/>
</g>
<g>
</g>
<g>
</g>
<g>
</g>
<g>
</g>
<g>
</g>
<g>
</g>
<g>
</g>
<g>
</g>
<g>
</g>
<g>
</g>
<g>
</g>
<g>
</g>
<g>
</g>
<g>
</g>
<g>
</g>
</svg>
