<?xml version="1.0" encoding="UTF-8" standalone="no"?>
<svg
   xmlns:dc="http://purl.org/dc/elements/1.1/"
   xmlns:cc="http://creativecommons.org/ns#"
   xmlns:rdf="http://www.w3.org/1999/02/22-rdf-syntax-ns#"
   xmlns:svg="http://www.w3.org/2000/svg"
   xmlns="http://www.w3.org/2000/svg"
   xmlns:sodipodi="http://sodipodi.sourceforge.net/DTD/sodipodi-0.dtd"
   xmlns:inkscape="http://www.inkscape.org/namespaces/inkscape"
   inkscape:version="1.0 (4035a4fb49, 2020-05-01)"
   height="24"
   width="24"
   sodipodi:docname="medicament_frequency.svg"
   xml:space="preserve"
   viewBox="0 0 24 24"
   y="0px"
   x="0px"
   id="Capa_1"
   version="1.1"><metadata
   id="metadata71"><rdf:RDF><cc:Work
       rdf:about=""><dc:format>image/svg+xml</dc:format><dc:type
         rdf:resource="http://purl.org/dc/dcmitype/StillImage" /><dc:title></dc:title></cc:Work></rdf:RDF></metadata><defs
   id="defs69" /><sodipodi:namedview
   inkscape:current-layer="Capa_1"
   inkscape:window-maximized="1"
   inkscape:window-y="0"
   inkscape:window-x="0"
   inkscape:cy="14.919629"
   inkscape:cx="18.829995"
   inkscape:zoom="22.992375"
   showgrid="false"
   id="namedview67"
   inkscape:window-height="1417"
   inkscape:window-width="2560"
   inkscape:pageshadow="2"
   inkscape:pageopacity="0"
   guidetolerance="10"
   gridtolerance="10"
   objecttolerance="10"
   borderopacity="1"
   bordercolor="#666666"
   pagecolor="#ffffff" />
<circle
   id="circle2"
   r="10.83871"
   cy="12.774194"
   cx="12.774194"
   style="fill:#fb5968;stroke-width:0.0483871" />
<path
   id="path4"
   d="m 12.774194,22.83871 c -5.8563875,0 -10.6246456,-4.645162 -10.8290327,-10.451613 -0.00426,0.128903 -0.00968,0.257419 -0.00968,0.387097 0,5.986064 4.8526451,10.838709 10.8387097,10.838709 5.986064,0 10.838709,-4.852645 10.838709,-10.838709 0,-0.129678 -0.0054,-0.258194 -0.0097,-0.387097 -0.204387,5.806451 -4.972645,10.451613 -10.829032,10.451613 z"
   style="fill:#cd2c5a;stroke-width:0.0483871" />
<circle
   id="circle6"
   r="9.2903223"
   cy="12.774194"
   cx="12.774194"
   style="fill:#ececec;stroke-width:0.0483871" />
<g
   transform="scale(0.0483871)"
   id="g12">
	<path
   id="path8"
   d="M 264,440 C 160.648,440 76.4,358.328 72.2,256 c -0.104,2.656 -0.2,5.32 -0.2,8 0,106.04 85.96,192 192,192 106.04,0 192,-85.96 192,-192 0,-2.68 -0.096,-5.344 -0.2,-8 -4.2,102.328 -88.448,184 -191.8,184 z"
   style="fill:#b6c1ce" />
	<path
   id="path10"
   d="M 72.712,248 H 232 c 4.416,0 8,-3.584 8,-8 V 96 h -68.96 c -54.648,30.304 -92.912,86.48 -98.328,152 z"
   style="fill:#b6c1ce" />
</g>
<rect
   id="rect14"
   height="7.3548388"
   width="10.83871"
   style="fill:#eabd8c;stroke-width:0.0483871"
   y="3.8709676"
   x="0.38709676" />
<g
   transform="scale(0.0483871)"
   id="g20">
	<rect
   id="rect16"
   height="24"
   width="224"
   style="fill:#d3a06c"
   y="208"
   x="8" />
	<path
   id="path18"
   d="M 96,136 H 40 C 22.328,136 8,121.672 8,104 V 72 C 8,63.16 15.16,56 24,56 h 192 c 8.84,0 16,7.16 16,16 v 32 c 0,17.672 -14.328,32 -32,32 h -56 z"
   style="fill:#d3a06c" />
</g>
<path
   id="path22"
   d="M 4.6451613,5.8064516 H 1.9354839 c -0.8550968,0 -1.54838713,-0.6932903 -1.54838713,-1.5483871 V 1.9354839 H 11.225806 v 2.3225806 c 0,0.8550968 -0.69329,1.5483871 -1.5483866,1.5483871 H 6.9677419 Z"
   style="fill:#eabd8c;stroke-width:0.0483871" />
<path
   id="path24"
   d="M 6.1935484,7.3548387 H 5.4193548 c -0.4277419,0 -0.7741935,-0.3464516 -0.7741935,-0.7741935 V 4.2580645 h 2.3225806 v 2.3225807 c 0,0.4277419 -0.3464516,0.7741935 -0.7741935,0.7741935 z"
   style="fill:#fcd770;stroke-width:0.0483871" />
<rect
   id="rect26"
   height="0.77419353"
   width="0.77419353"
   style="fill:#ffc729;stroke-width:0.0483871"
   y="5.032258"
   x="5.4193549" />
<path
   style="stroke-width:0.0483871"
   id="path28"
   d="m 12.774194,1.5483871 h -0.387097 v 0.7741935 h 0.387097 c 5.763096,0 10.451612,4.6885162 10.451612,10.4516134 0,5.763096 -4.688516,10.451612 -10.451612,10.451612 -5.7630972,0 -10.4516134,-4.688516 -10.4516134,-10.451612 V 12.387097 H 1.5483871 v 0.387097 C 1.5483871,18.963871 6.584129,24 12.774194,24 18.964258,24 24,18.963871 24,12.774194 24,6.5845161 18.964258,1.5483871 12.774194,1.5483871 Z" />
<polygon
   transform="scale(0.0483871)"
   id="polygon30"
   points="256,136 256,267.312 338.344,349.656 349.656,338.344 272,260.688 272,136 " />
<path
   style="stroke-width:0.0483871"
   id="path32"
   d="M 11.612903,4.2580645 V 3.8709677 1.5483871 H 9.2903226 V 1.1612903 C 9.2903226,0.52103226 8.7692903,0 8.1290323,0 H 3.483871 C 2.8436129,0 2.3225806,0.52103226 2.3225806,1.1612903 V 1.5483871 H 0 V 3.8709677 4.2580645 11.612903 H 11.612903 Z M 3.0967742,1.1612903 c 0,-0.2136774 0.1738064,-0.38709675 0.3870968,-0.38709675 h 4.6451613 c 0.2132903,0 0.3870967,0.17341935 0.3870967,0.38709675 V 1.5483871 H 3.0967742 Z M 0.77419355,2.3225806 H 10.83871 v 1.5483871 0.3870968 c 0,0.6402581 -0.521033,1.1612903 -1.1612906,1.1612903 H 7.3548387 V 3.8709677 H 4.2580645 V 5.4193548 H 1.9354839 c -0.6402581,0 -1.16129035,-0.5210322 -1.16129035,-1.1612903 V 3.8709677 Z M 6.5806452,4.6451613 v 1.9354839 c 0,0.2136774 -0.1738065,0.3870967 -0.3870968,0.3870967 H 5.4193548 c -0.2132903,0 -0.3870967,-0.1734193 -0.3870967,-0.3870967 V 4.6451613 Z M 0.77419355,10.83871 V 5.7963871 C 1.0985806,6.0421935 1.4980645,6.1935484 1.9354839,6.1935484 h 2.3225806 v 0.3870968 c 0,0.640258 0.5210323,1.1612903 1.1612903,1.1612903 h 0.7741936 c 0.6402581,0 1.1612903,-0.5210323 1.1612903,-1.1612903 V 6.1935484 h 2.3225807 c 0.4374196,0 0.8369036,-0.1513549 1.1612906,-0.3971613 V 10.83871 Z" />
<path
   style="stroke-width:0.0483871"
   id="path34"
   d="M 8.6636129,20.667871 9.2384516,19.672258 8.568,19.285161 7.9939355,20.279226 C 6.8996129,19.579742 5.9682581,18.648387 5.2687742,17.554065 L 6.2628387,16.98 5.8757419,16.309548 4.880129,16.884387 C 4.2929032,15.761419 3.9379355,14.499484 3.8802581,13.160903 h 1.152 V 12.38671 H 3.0967742 v 0.774193 h 0.00968 c 0.2043871,5.157678 4.4612903,9.29071 9.6677428,9.29071 5.336129,0 9.677419,-4.34129 9.677419,-9.677419 0,-5.2064521 -4.133032,-9.4633553 -9.290323,-9.6677424 v -0.00968 H 12.387097 V 5.0322581 H 13.16129 V 3.8806452 c 1.338581,0.057677 2.600516,0.4126451 3.723484,0.9998709 L 16.309935,5.876129 16.980387,6.2632258 17.554452,5.2691613 C 18.648774,5.9686452 19.580129,6.9 20.279613,7.9943226 L 19.285548,8.5683871 19.672645,9.2388387 20.668258,8.664 c 0.587226,1.1229677 0.942194,2.384903 0.999871,3.723484 h -1.152 v 0.774193 h 1.151613 c -0.05768,1.338581 -0.412645,2.600517 -0.999871,3.723484 l -0.995613,-0.574838 -0.387097,0.670451 0.994065,0.574065 C 19.579742,18.649161 18.648387,19.580516 17.554065,20.28 L 16.98,19.285935 l -0.670452,0.387097 0.574839,0.995613 c -1.122968,0.587226 -2.384903,0.942194 -3.723484,0.999871 V 20.516129 H 12.38671 v 1.151613 C 11.048516,21.610065 9.7865806,21.255097 8.6636129,20.667871 Z" />
<g
   id="g36">
</g>
<g
   id="g38">
</g>
<g
   id="g40">
</g>
<g
   id="g42">
</g>
<g
   id="g44">
</g>
<g
   id="g46">
</g>
<g
   id="g48">
</g>
<g
   id="g50">
</g>
<g
   id="g52">
</g>
<g
   id="g54">
</g>
<g
   id="g56">
</g>
<g
   id="g58">
</g>
<g
   id="g60">
</g>
<g
   id="g62">
</g>
<g
   id="g64">
</g>
</svg>
