<?xml version="1.0" encoding="UTF-8" standalone="no"?>
<svg
   xmlns:dc="http://purl.org/dc/elements/1.1/"
   xmlns:cc="http://creativecommons.org/ns#"
   xmlns:rdf="http://www.w3.org/1999/02/22-rdf-syntax-ns#"
   xmlns:svg="http://www.w3.org/2000/svg"
   xmlns="http://www.w3.org/2000/svg"
   xmlns:sodipodi="http://sodipodi.sourceforge.net/DTD/sodipodi-0.dtd"
   xmlns:inkscape="http://www.inkscape.org/namespaces/inkscape"
   inkscape:version="1.0 (4035a4fb49, 2020-05-01)"
   sodipodi:docname="mental_status.svg"
   version="1.1"
   width="24"
   viewBox="0 0 3 3"
   height="24"
   enable-background="new 0 0 64 64"
   id="_x33_0">
  <metadata
     id="metadata63">
    <rdf:RDF>
      <cc:Work
         rdf:about="">
        <dc:format>image/svg+xml</dc:format>
        <dc:type
           rdf:resource="http://purl.org/dc/dcmitype/StillImage" />
        <dc:title></dc:title>
      </cc:Work>
    </rdf:RDF>
  </metadata>
  <defs
     id="defs61" />
  <sodipodi:namedview
     inkscape:current-layer="_x33_0"
     inkscape:window-maximized="1"
     inkscape:window-y="0"
     inkscape:window-x="0"
     inkscape:cy="24.409004"
     inkscape:cx="35.226129"
     inkscape:zoom="11.136932"
     showgrid="false"
     id="namedview59"
     inkscape:window-height="1417"
     inkscape:window-width="2560"
     inkscape:pageshadow="2"
     inkscape:pageopacity="0"
     guidetolerance="10"
     gridtolerance="10"
     objecttolerance="10"
     borderopacity="1"
     bordercolor="#666666"
     pagecolor="#ffffff" />
  <g
     transform="matrix(0.0483871,0,0,0.0483871,-0.0483871,-0.0483871)"
     id="g56">
    <g
       id="g46">
      <g
         id="g4">
        <path
           id="path2"
           fill="#ccd1d9"
           d="m 39,56 c 2.63,-1.32 5.53,-2 8.47,-2 H 53 54 c 0.55,0 1,0.45 1,1 v 1 2 H 39 Z" />
      </g>
      <g
         id="g8">
        <path
           id="path6"
           fill="#ccd1d9"
           d="m 43,48 h 4 4 2 v 4 2 h -5.53 c -2.94,0 -5.84,0.68 -8.47,2 l -2.37,-3.95 -0.5,-0.39 0.47,-0.6 C 38.11,49.13 40.43,48 42.89,48 Z" />
      </g>
      <g
         id="g12">
        <path
           id="path10"
           fill="#ccd1d9"
           d="m 55,60 v 1 c 0,0.55 -0.45,1 -1,1 H 40 c -0.55,0 -1,-0.45 -1,-1 v -3 h 16 z" />
      </g>
      <g
         id="g16">
        <path
           id="path14"
           fill="#aab2bd"
           d="m 59,57 v 2 c 0,0.55 -0.45,1 -1,1 h -3 v -2 -2 h 3 c 0.55,0 1,0.45 1,1 z" />
      </g>
      <g
         id="g20">
        <path
           id="path18"
           fill="#aab2bd"
           d="m 57,49 v 2 c 0,0.55 -0.45,1 -1,1 h -3 v -4 h 3 c 0.55,0 1,0.45 1,1 z" />
      </g>
      <g
         id="g24">
        <path
           id="path22"
           fill="#e6e9ed"
           d="M 38,2 H 29.35 C 16.76,2 6.3,11.73 5.41,24.29 L 5.1,28.57 c -0.07,0.94 -0.35,1.85 -0.84,2.66 l -1.74,2.9 c -0.882,1.478 -0.687,3.493 0.93,4.828 0.367,0.303 0.815,0.498 1.284,0.583 1.255,0.228 2.077,1.439 1.826,2.689 L 6.55,42.28 C 6.171,44.173 5.98,46.099 5.98,48.03 V 49 l 0.013,3.791 c 0.005,1.465 0.216,2.922 0.627,4.329 1.22,2.87 4.06,4.88 7.37,4.88 h 7.21 c 4.29,0 8.35,-1.97 11,-5.35 l 3.93,-4.99 0.47,-0.6 C 38.113,49.128 40.43,48 42.884,48 H 43 53 c 5.76,-5.76 9,-13.58 9,-21.73 V 26 C 62,12.745 51.255,2 38,2 Z" />
      </g>
      <g
         id="g28">
        <path
           id="path26"
           fill="#f0d0b4"
           d="M 48.91,36.01 C 48.34,36 47.81,36 47.34,36 47.22,36 47.11,35.99 47,35.98 45.31,35.81 44,34.38 44,32.64 V 32.57 C 44,31.53 44.49,30.59 45.27,30 L 37,30.15 v 2.91 c 0,1.89 1.07,3.62 2.76,4.47 l 1.58,0.79 C 42.36,38.82 43,39.86 43,41 v 7 h 8 V 35.78 c -0.67,0.16 -1.37,0.24 -2.09,0.23 z" />
      </g>
      <g
         id="g32">
        <path
           id="path30"
           fill="#dfb28b"
           d="M 46.5,29.42 58,27 c 0,4.29 -2.99,7.87 -7,8.78 -0.67,0.16 -1.37,0.24 -2.09,0.23 C 48.34,36 47.81,36 47.34,36 47.22,36 47.11,35.99 47,35.98 45.31,35.81 44,34.38 44,32.64 v -0.07 c 0,-1.04 0.49,-1.98 1.27,-2.57 0.36,-0.27 0.77,-0.47 1.23,-0.58 z" />
      </g>
      <g
         id="g36">
        <path
           id="path34"
           fill="#ecc19c"
           d="M 37,6 C 42.8,6 48.05,8.35 51.85,12.15 55.65,15.95 58,21.2 58,27 L 46.5,29.42 C 46.04,29.53 45.63,29.73 45.27,30 L 37,30.15 h -0.07 c -1.51,0 -2.95,-0.43 -4.18,-1.2 -1.23,-0.77 -2.25,-1.89 -2.91,-3.24 -0.55,-1.12 -1.36,-2.1 -2.36,-2.85 L 26.92,22.44 C 26.08,21.81 25.15,21.32 24.16,21 c -0.49,-0.17 -1,-0.3 -1.52,-0.38 L 19.27,20.07 C 18.02,19.76 16.95,19.03 16.19,18.06 15.44,17.1 15,15.88 15,14.59 15,12.95 15.72,11.38 16.97,10.31 20.22,7.53 24.35,6 28.62,6 Z" />
      </g>
      <g
         id="g40">
        <path
           id="path38"
           fill="#969faa"
           d="m 16.83,49 c 1.47,0 2.88,-0.4 4.1,-1.12 L 21,48 v 5 c 0,2.21 -1.79,4 -4,4 H 7 L 6.62,57.12 C 6.22,56.17 6,55.12 5.99,54.01 L 5.98,49 H 6 Z" />
      </g>
      <g
         id="g44">
        <path
           id="path42"
           fill="#838f9b"
           d="m 19.77,28.56 c 0.79,0.93 1.23,2.11 1.23,3.33 0,1.41 -0.57,2.69 -1.5,3.61 -0.92,0.93 -2.2,1.5 -3.61,1.5 -1.63,0 -3.1,-0.66 -4.16,-1.73 C 10.66,34.21 10,32.74 10,31.11 V 26.42 C 10,24.53 11.53,23 13.42,23 c 1,0 1.95,0.44 2.61,1.2 z" />
      </g>
    </g>
    <g
       id="g54">
      <path
         id="path48"
         d="M 9,26.425 V 31.11 C 9,34.909 12.091,38 15.891,38 19.26,38 22,35.26 22,31.891 22,30.434 21.478,29.022 20.528,27.914 L 16.784,23.546 C 15.942,22.563 14.718,22 13.425,22 10.985,22 9,23.985 9,26.425 Z m 10.01,2.79 C 19.648,29.96 20,30.91 20,31.891 20,34.156 18.156,36 15.891,36 13.194,36 11,33.806 11,31.109 V 26.424 C 11,25.088 12.088,24 13.425,24 c 0.709,0 1.38,0.309 1.842,0.847 z" />
      <path
         id="path50"
         d="M 63,26 C 63,12.215 51.785,1 38,1 H 29.347 C 16.293,1 5.34,11.199 4.411,24.219 l -0.306,4.28 c -0.057,0.778 -0.299,1.545 -0.7,2.216 L 1.662,33.619 C 1.229,34.341 1,35.168 1,36.01 c 0,2.223 1.585,4.136 3.773,4.55 l 0.102,0.019 c 0.319,0.061 0.571,0.227 0.708,0.467 0.138,0.241 0.152,0.543 0.022,0.897 -0.418,1.153 -0.629,2.359 -0.628,3.586 l 0.012,8.484 c 0.007,4.957 4.043,8.988 8.999,8.988 h 0.002 7.206 C 25.83,63 30.129,60.91 32.989,57.269 L 36.168,53.224 38,56.277 V 61 c 0,1.103 0.897,2 2,2 h 14 c 1.103,0 2,-0.897 2,-2 h 2 c 1.103,0 2,-0.897 2,-2 v -2 c 0,-1.103 -0.897,-2 -2,-2 h -2 c 0,-1.103 -0.897,-2 -2,-2 h 2 c 1.103,0 2,-0.897 2,-2 v -2 c 0,-1.103 -0.897,-2 -2,-2 H 55.296 C 60.28,41.24 63,33.966 63,26.272 Z M 6.984,50 h 9.851 C 17.931,50 19.001,49.799 20,49.424 V 53 c 0,1.654 -1.346,3 -3,3 H 7.284 C 7.095,55.369 6.99,54.702 6.989,54.011 Z m 30.512,1.549 C 38.831,49.931 40.783,49 42.889,49 H 52 v 4 h -4.528 c -2.771,0 -5.545,0.589 -8.079,1.71 z M 25,14 v 2 c 1.103,0 2,0.897 2,2 0,1.103 -0.897,2 -2,2 h -0.699 c -0.493,-0.156 -0.994,-0.289 -1.505,-0.372 l -3.28,-0.529 C 17.446,18.581 16,16.729 16,14.595 16,13.238 16.591,11.953 17.622,11.071 20.684,8.445 24.591,7 28.625,7 h 4.931 C 33.212,7.591 33,8.268 33,9 c 0,2.206 1.794,4 4,4 v -2 c -1.103,0 -2,-0.897 -2,-2 0,-1.102 0.897,-2 2,-2 10.757,0 19.558,8.537 19.983,19.192 l -10.704,2.255 c -0.485,0.112 -0.934,0.303 -1.333,0.559 l -8.011,0.14 c -2.618,0 -5.052,-1.52 -6.2,-3.873 C 30.119,24.011 29.2,22.9 28.078,22.058 l -0.561,-0.42 C 27.391,21.543 27.253,21.467 27.122,21.378 28.246,20.669 29,19.425 29,18 29,15.794 27.206,14 25,14 Z m 23,33 v -9.998 c 0.289,10e-4 0.591,0.003 0.907,0.005 h 0.08 c 0.341,0 0.678,-0.018 1.013,-0.051 V 47 Z M 48.922,35.007 C 48.347,35.003 47.811,35 47.338,35 46.049,35 45,33.943 45,32.567 45,31.523 45.711,30.63 46.709,30.4 l 10.193,-2.147 c -0.262,1.672 -1.045,3.212 -2.271,4.428 -1.527,1.517 -3.549,2.319 -5.709,2.326 z M 38,31.127 43.295,31.034 C 43.104,31.53 43,32.073 43,32.644 c 0,1.93 1.265,3.552 3,4.123 V 47 h -2 v -6 c 0,-1.524 -0.847,-2.896 -2.212,-3.578 L 40.211,36.634 C 38.848,35.951 38,34.58 38,33.056 Z M 54,57 H 40 V 56.63 C 42.335,55.563 44.905,55 47.472,55 H 54 Z m -14,4 v -2 h 14 v 2 z m 18,-4 v 2 h -2 v -2 z m -2,-8 v 2 H 54 V 49 Z M 61,26.272 C 61,34.075 58.014,41.42 52.582,47 H 52 V 36.543 c 1.505,-0.473 2.888,-1.298 4.041,-2.442 1.907,-1.893 2.958,-4.414 2.958,-7.1 C 58.999,14.869 49.13,5 37,5 H 36.999 28.625 C 24.114,5 19.744,6.616 16.319,9.552 14.846,10.815 14,12.653 14,14.595 c 0,3.054 2.068,5.703 5.113,6.461 l 3.361,0.547 c 1.389,0.226 2.717,0.791 3.842,1.635 l 0.56,0.42 c 0.87,0.653 1.583,1.516 2.062,2.493 1.34,2.747 4.044,4.598 7.063,4.927 v 1.978 c 0,2.286 1.271,4.343 3.317,5.367 l 1.577,0.788 C 41.576,39.552 42,40.237 42,41 v 6.05 c -2.436,0.238 -4.656,1.439 -6.188,3.389 l -4.395,5.593 C 28.938,59.189 25.212,61 21.196,61.001 H 13.99 c -10e-4,0 -10e-4,0 -0.002,0 -2.371,0 -4.469,-1.19 -5.736,-3.001 H 17 c 2.757,0 5,-2.243 5,-5 v -4.638 c 0.847,-0.594 1.599,-1.332 2.208,-2.201 l 3.417,-4.882 C 28.186,40.479 29.105,40 30.083,40 H 33 v -2 h -2.917 c -1.63,0 -3.161,0.797 -4.097,2.133 l -3.417,4.882 C 21.261,46.884 19.117,48 16.835,48 H 6.981 L 6.978,45.526 C 6.977,44.534 7.148,43.557 7.505,42.575 7.815,41.721 7.747,40.803 7.321,40.054 6.894,39.307 6.138,38.781 5.242,38.612 L 5.14,38.593 C 3.9,38.359 3,37.272 3,36.01 3,35.531 3.13,35.06 3.377,34.649 L 5.12,31.744 c 0.563,-0.938 0.901,-2.012 0.979,-3.102 l 0.306,-4.28 C 7.261,12.383 17.338,3 29.347,3 H 38 c 12.683,0 23,10.317 23,23 z" />
      <path
         id="path52"
         d="m 50,20 c 0,-2.206 -1.794,-4 -4,-4 v 2 c 1.103,0 2,0.897 2,2 0,1.103 -0.897,2 -2,2 h -5 v 2 h 5 c 2.206,0 4,-1.794 4,-4 z" />
    </g>
  </g>
</svg>
