<?xml version="1.0" encoding="UTF-8" standalone="no"?>
<!-- Created with Inkscape (http://www.inkscape.org/) -->

<svg
   xmlns:dc="http://purl.org/dc/elements/1.1/"
   xmlns:cc="http://creativecommons.org/ns#"
   xmlns:rdf="http://www.w3.org/1999/02/22-rdf-syntax-ns#"
   xmlns:svg="http://www.w3.org/2000/svg"
   xmlns="http://www.w3.org/2000/svg"
   xmlns:sodipodi="http://sodipodi.sourceforge.net/DTD/sodipodi-0.dtd"
   xmlns:inkscape="http://www.inkscape.org/namespaces/inkscape"
   width="100mm"
   height="100mm"
   viewBox="0 0 100 100"
   version="1.1"
   id="svg5783"
   inkscape:version="0.92.2 2405546, 2018-03-11"
   sodipodi:docname="mental-status.svg">
  <defs
     id="defs5777" />
  <sodipodi:namedview
     id="base"
     pagecolor="#ffffff"
     bordercolor="#666666"
     borderopacity="1.0"
     inkscape:pageopacity="0.0"
     inkscape:pageshadow="2"
     inkscape:zoom="0.98994949"
     inkscape:cx="-79.891975"
     inkscape:cy="356.07076"
     inkscape:document-units="mm"
     inkscape:current-layer="layer1"
     showgrid="false"
     inkscape:window-width="2485"
     inkscape:window-height="1399"
     inkscape:window-x="75"
     inkscape:window-y="0"
     inkscape:window-maximized="1" />
  <metadata
     id="metadata5780">
    <rdf:RDF>
      <cc:Work
         rdf:about="">
        <dc:format>image/svg+xml</dc:format>
        <dc:type
           rdf:resource="http://purl.org/dc/dcmitype/StillImage" />
        <dc:title />
      </cc:Work>
    </rdf:RDF>
  </metadata>
  <g
     inkscape:label="Capa 1"
     inkscape:groupmode="layer"
     id="layer1"
     transform="translate(0,-197)">
    <g
       id="g867"
       transform="matrix(1.6556409,0,0,1.6556409,105.97594,-95.892658)">
      <path
         sodipodi:nodetypes="scccccccccssccsss"
         inkscape:connector-curvature="0"
         id="rect844"
         d="m -34.992668,186.8871 c -3.535098,0 -6.498299,0.6342 -7.755599,1.22369 -3.512868,1.64676 -6.790632,6.14192 -5.959843,10.53321 0.391581,2.06957 1.690735,3.54377 3.195156,5.25033 1.567918,1.77853 3.345278,3.79476 4.072617,6.75359 1.108602,4.50824 0.05813,7.62673 -0.580842,8.96896 l 0.440801,0.51108 c 0.689229,-1.1295 1.677675,-3.16566 2.008145,-5.94537 0.725221,-6.09997 -2.036672,-10.45725 -2.064472,-10.50065 -0.22375,-0.34634 -0.225817,-0.79049 -0.0057,-1.13895 0.220131,-0.34872 0.622687,-0.53923 1.030947,-0.48473 0.0235,0.003 2.400874,0.30696 5.454962,0.30696 h 5.29e-4 c 6.068748,0 10.462596,-1.18169 12.372888,-3.32693 0.959379,-1.07712 1.332584,-2.40426 1.140499,-4.05712 -0.849315,-7.30566 -9.619197,-8.09407 -13.350091,-8.09407 z"
         style="opacity:1;fill:#18bc9c;fill-opacity:0.98431373;stroke:none;stroke-width:10.05416107;stroke-miterlimit:4;stroke-dasharray:none;stroke-opacity:1" />
      <path
         style="fill:#6a6c6c;fill-opacity:1;stroke-width:0.26458332"
         id="path2"
         d="m -12.920362,205.94718 c -0.185473,-0.98848 -1.181365,-1.91532 -2.799821,-3.32422 -0.655108,-0.57018 -1.645179,-1.43246 -1.799696,-1.76319 -0.0037,-0.008 -0.0061,-0.0138 -0.0074,-0.0161 0.02725,-0.12886 0.27649,-0.46355 0.442648,-0.68686 0.421217,-0.56568 0.998273,-1.34012 1.227137,-2.43867 0.257705,-1.2364 -0.302418,-2.90406 -0.921279,-4.25423 l 0.241036,0.0659 c 0.463285,0.12515 0.953823,-0.0751 1.194329,-0.4908 0.214577,-0.37042 1.107281,-2.3921 -2.396861,-5.80655 -2.786599,-2.71494 -7.743833,-6.32465 -18.57323,-6.32465 -5.04878,0 -9.72396,1.91664 -13.16487,5.39671 -2.92576,2.95936 -4.58047,6.72729 -4.53946,10.33806 0.0624,5.49407 4.12856,11.78878 6.31323,15.17042 0.54821,0.84878 1.16945,1.8108 1.25571,2.06348 0.11774,0.42439 -0.63685,1.69519 -1.55178,2.61488 -0.25638,0.25638 -0.3638,0.626 -0.28443,0.97975 0.0794,0.35375 0.33443,0.64241 0.67548,0.76491 0.0381,0.0138 3.83196,1.41684 6.1513,5.98276 2.57413,5.06783 6.730471,9.56416 6.906154,9.75307 0.203465,0.21881 0.48551,0.33761 0.775229,0.33761 0.105569,0 0.212196,-0.0159 0.316177,-0.0484 0.389202,-0.12197 0.673629,-0.45667 0.731309,-0.86043 0.0066,-0.0463 0.164041,-1.15411 0.330464,-2.903 0.08334,-0.87498 0.443177,-1.406 0.899054,-2.07857 0.265907,-0.39264 0.567532,-0.83767 0.820738,-1.37557 0.31115,-0.66119 0.488421,-1.46315 0.67601,-2.31219 0.209286,-0.94668 0.446088,-2.01824 0.843492,-2.53286 0.08202,-0.0598 0.610658,-0.36354 2.876813,-0.36354 1.312069,0 2.76913,0.0971 4.05474,0.18309 0.472546,0.0315 0.916252,0.0609 1.312862,0.0831 1.446213,0.0804 2.252398,-0.49371 2.669911,-0.97234 1.127919,-1.29222 0.844285,-3.37053 0.656696,-4.7461 -0.08123,-0.59584 0.126735,-0.76623 0.740568,-1.17131 0.26379,-0.17383 0.536575,-0.35401 0.758296,-0.61224 0.56224,-0.6559 0.484452,-1.40626 -0.229923,-2.23414 0.28628,-0.22463 0.54663,-0.45085 0.668073,-0.81518 0.09499,-0.28523 0.07276,-0.55245 0.03598,-0.99484 -0.03545,-0.42465 -0.09366,-1.12183 0.02408,-1.55707 0.12991,-0.11668 0.505618,-0.30718 0.736864,-0.42439 0.82894,-0.4199 2.21615,-1.12316 1.934369,-2.62626 z m -22.235847,-3.58193 c -3.05409,0 -5.43137,-0.304 -5.45491,-0.30718 -0.40826,-0.0545 -0.81122,0.136 -1.03135,0.48472 -0.22013,0.34846 -0.21775,0.79296 0.006,1.1393 0.0278,0.0434 2.7895,4.40028 2.06428,10.50025 -0.33047,2.77971 -1.31869,4.81595 -2.00792,5.94545 l -0.44107,-0.51091 c 0.63897,-1.34223 1.68937,-4.46087 0.58077,-8.96911 -0.72734,-2.95883 -2.50455,-4.97496 -4.07247,-6.75349 -1.50442,-1.70656 -2.80353,-3.18056 -3.19511,-5.25013 -0.83079,-4.39129 2.44687,-8.88656 5.95974,-10.53332 1.2573,-0.58949 4.22063,-1.2237 7.755732,-1.2237 3.730889,0 12.500503,0.78846 13.349815,8.09413 0.192088,1.65285 -0.18071,2.98 -1.140089,4.05712 -1.910292,2.14524 -6.304491,3.32687 -12.373239,3.32687 z"
         inkscape:connector-curvature="0" />
    </g>
  </g>
</svg>
