<?xml version="1.0" encoding="UTF-8" standalone="no"?>
<!-- Created with Inkscape (http://www.inkscape.org/) -->

<svg
   xmlns:dc="http://purl.org/dc/elements/1.1/"
   xmlns:cc="http://creativecommons.org/ns#"
   xmlns:rdf="http://www.w3.org/1999/02/22-rdf-syntax-ns#"
   xmlns:svg="http://www.w3.org/2000/svg"
   xmlns="http://www.w3.org/2000/svg"
   xmlns:sodipodi="http://sodipodi.sourceforge.net/DTD/sodipodi-0.dtd"
   xmlns:inkscape="http://www.inkscape.org/namespaces/inkscape"
   width="100mm"
   height="100mm"
   viewBox="0 0 100 100"
   version="1.1"
   id="svg5783"
   inkscape:version="0.92.2 2405546, 2018-03-11"
   sodipodi:docname="mental_status.svg">
  <defs
     id="defs5777" />
  <sodipodi:namedview
     id="base"
     pagecolor="#ffffff"
     bordercolor="#666666"
     borderopacity="1.0"
     inkscape:pageopacity="0.0"
     inkscape:pageshadow="2"
     inkscape:zoom="0.98994949"
     inkscape:cx="181.63379"
     inkscape:cy="106.56308"
     inkscape:document-units="mm"
     inkscape:current-layer="layer1"
     showgrid="false"
     inkscape:window-width="2560"
     inkscape:window-height="1347"
     inkscape:window-x="0"
     inkscape:window-y="0"
     inkscape:window-maximized="1" />
  <metadata
     id="metadata5780">
    <rdf:RDF>
      <cc:Work
         rdf:about="">
        <dc:format>image/svg+xml</dc:format>
        <dc:type
           rdf:resource="http://purl.org/dc/dcmitype/StillImage" />
        <dc:title />
      </cc:Work>
    </rdf:RDF>
  </metadata>
  <g
     inkscape:label="Capa 1"
     inkscape:groupmode="layer"
     id="layer1"
     transform="translate(0,-197)">
    <g
       transform="matrix(1.3653761,0,0,1.3653761,-13.099995,179.6779)"
       id="g4"
       style="fill:#2780e3;fill-opacity:1">
      <path
         inkscape:connector-curvature="0"
         d="m 18.2,52.5 -0.1,0.2 c -0.3,0.7 -0.4,1.5 -0.4,2.3 0,2.6 1.6,4.9 4.2,6.1 l 0.8,0.4 c 0.4,0.2 0.6,0.5 0.8,0.8 l 0.3,0.8 c 0.5,1.2 1.6,2 3,2.3 0.9,0.2 1.4,1 1.3,1.9 l -1.7,8.6 c 0,0 0,0.1 0,0.1 0,0 0.1,0.1 0.1,0.1 h 3.4 c 0.1,0 0.1,0 0.1,-0.1 1.5,-3.9 4.2,-10.2 4.6,-10.5 1.6,-0.1 3.2,-0.6 4.6,-1.4 l 2.4,-1.9 c 0.1,0 0.1,-0.1 0,-0.2 -0.6,-1.8 -2.5,-6.3 -6.1,-8 -2.3,-1.1 -5,-0.9 -8.1,0.5 -0.4,0.2 -0.8,0.2 -1.2,0 -0.4,-0.1 -0.7,-0.4 -0.9,-0.8 -0.2,-0.4 -0.2,-0.8 0,-1.2 0.2,-0.4 0.4,-0.7 0.8,-0.9 4,-1.8 7.7,-2 10.8,-0.5 5.2,2.5 7.4,8.7 8,10.6 0,0 0,0.1 0.1,0.1 l 1,0.8 c 1.4,1 3,1.6 4.7,1.6 2.5,0 4.8,-1.1 6.2,-3 0,0 0.1,-0.1 0.1,-0.1 3.1,-6.5 -1.9,-12.9 -2.1,-13.2 -0.6,-0.7 -0.4,-1.7 0.3,-2.3 0.7,-0.6 1.7,-0.4 2.3,0.2 0,0 0.9,1.1 1.9,3 0,0 0.1,0.1 0.1,0.1 0.1,0 0.1,0 0.1,-0.1 3.2,-5 8.7,-5.5 8.9,-5.6 0,0 0.1,0 0.1,0 0.8,0 1.5,0.6 1.6,1.5 0.1,0.9 -0.6,1.7 -1.5,1.8 -0.2,0 -6,0.7 -7.7,6.7 0,0.1 -0.1,0.1 -0.1,0.2 v 0.1 c 0,0 0,0.1 0,0.1 0.5,2.6 0.4,5.2 -0.5,7.6 0,0.1 0,0.2 0.1,0.2 1.5,0.6 3.8,1.3 5.9,1 3.9,-0.5 6.3,-4.6 6.3,-4.6 0.3,-0.5 0.7,-0.8 1.2,-0.8 3.3,-0.4 4.5,-2.7 4.5,-4.8 0,-1 -0.3,-2 -0.8,-3 L 77,48.1 C 76.7,47.6 76.7,47 77,46.6 l 0.6,-1.1 c 0.5,-0.9 0.8,-1.9 0.8,-3 0,-3.1 -2.4,-5.9 -5.8,-6.6 L 71.1,35.6 C 70.5,35.5 70,34.9 69.9,34.3 l -0.3,-1.5 c -0.6,-3.3 -3.7,-5.7 -7.5,-5.7 -0.6,0 -1.2,0.1 -1.9,0.2 L 59,27.4 c -0.7,0.2 -1.4,-0.1 -1.7,-0.7 l -0.9,-1.3 c -1.6,-2.5 -4.9,-3.2 -6.8,-3.4 -2.5,-0.3 -5,1 -6.8,2.1 0,0 -0.1,0.1 -0.1,0.1 0,0 0,0.1 0.1,0.1 1.2,0.9 2.2,2 2.9,3.2 0,0.1 0.1,0.1 0.2,0.1 1.5,-0.7 2.9,-0.9 4.3,-0.5 3,0.7 4.6,3.5 4.7,3.8 0.4,0.8 0.1,1.8 -0.7,2.2 -0.2,0.1 -0.5,0.2 -0.8,0.2 -0.6,0 -1.1,-0.3 -1.4,-0.8 0,-0.1 -1,-1.8 -2.6,-2.2 -0.8,-0.2 -1.6,0 -2.5,0.5 -0.1,0 -0.1,0.1 -0.1,0.2 0.8,5 -2.5,9.7 -2.7,9.9 -0.3,0.4 -0.8,0.7 -1.3,0.7 -0.3,0 -0.7,-0.1 -0.9,-0.3 -0.7,-0.5 -0.9,-1.5 -0.4,-2.3 0,0 3,-4.2 2,-8.1 -0.5,-2 -2,-3.7 -4.5,-5 -1.7,-0.7 -3.5,-1 -5.4,-1 C 28,24.7 22.9,28 21.1,33 c 0,0.1 0,0.1 0,0.2 0,0 0.1,0.1 0.1,0.1 1.2,-0.2 2.4,0 3.5,0.3 2.4,0.8 4.3,2.7 5.6,5.7 0.2,0.4 0.2,0.8 0,1.2 -0.2,0.4 -0.5,0.7 -0.9,0.9 -0.2,0.1 -0.4,0.1 -0.7,0.1 -0.6,0 -1.2,-0.4 -1.5,-1 -0.9,-2.1 -2.2,-3.5 -3.7,-3.9 -2,-0.7 -3.9,0.3 -4.1,0.4 0,0 0,0 0,0 0,0 0,0 0,0 l -1,0.5 c -2.9,1.5 -3.6,4.5 -3.8,6.1 -0.4,3.6 3,7 3,7 0.7,0.6 0.8,1.3 0.6,1.9 z"
         id="path2-3"
         style="fill:#2780e3;fill-opacity:1" />
    </g>
  </g>
</svg>
