<svg id="_x33_0" enable-background="new 0 0 64 64" height="512" viewBox="0 0 64 64" width="512" xmlns="http://www.w3.org/2000/svg"><g><g><g><path d="m39 56c2.63-1.32 5.53-2 8.47-2h5.53 1c.55 0 1 .45 1 1v1 2h-16z" fill="#ccd1d9"/></g><g><path d="m43 48h4 4 2v4 2h-5.53c-2.94 0-5.84.68-8.47 2l-2.37-3.95-.5-.39.47-.6c1.51-1.93 3.83-3.06 6.29-3.06z" fill="#ccd1d9"/></g><g><path d="m55 60v1c0 .55-.45 1-1 1h-14c-.55 0-1-.45-1-1v-3h16z" fill="#ccd1d9"/></g><g><path d="m59 57v2c0 .55-.45 1-1 1h-3v-2-2h3c.55 0 1 .45 1 1z" fill="#aab2bd"/></g><g><path d="m57 49v2c0 .55-.45 1-1 1h-3v-4h3c.55 0 1 .45 1 1z" fill="#aab2bd"/></g><g><path d="m38 2h-8.65c-12.59 0-23.05 9.73-23.94 22.29l-.31 4.28c-.07.94-.35 1.85-.84 2.66l-1.74 2.9c-.882 1.478-.687 3.493.93 4.828.367.303.815.498 1.284.583 1.255.228 2.077 1.439 1.826 2.689l-.01.05c-.379 1.893-.57 3.819-.57 5.75v.97l.013 3.791c.005 1.465.216 2.922.627 4.329 1.22 2.87 4.06 4.88 7.37 4.88h7.21c4.29 0 8.35-1.97 11-5.35l3.93-4.99.47-.6c1.513-1.932 3.83-3.06 6.284-3.06h.116 10c5.76-5.76 9-13.58 9-21.73v-.27c0-13.255-10.745-24-24-24z" fill="#e6e9ed"/></g><g><path d="m48.91 36.01c-.57-.01-1.1-.01-1.57-.01-.12 0-.23-.01-.34-.02-1.69-.17-3-1.6-3-3.34v-.07c0-1.04.49-1.98 1.27-2.57l-8.27.15v2.91c0 1.89 1.07 3.62 2.76 4.47l1.58.79c1.02.5 1.66 1.54 1.66 2.68v7h8v-12.22c-.67.16-1.37.24-2.09.23z" fill="#f0d0b4"/></g><g><path d="m46.5 29.42 11.5-2.42c0 4.29-2.99 7.87-7 8.78-.67.16-1.37.24-2.09.23-.57-.01-1.1-.01-1.57-.01-.12 0-.23-.01-.34-.02-1.69-.17-3-1.6-3-3.34v-.07c0-1.04.49-1.98 1.27-2.57.36-.27.77-.47 1.23-.58z" fill="#dfb28b"/></g><g><path d="m37 6c5.8 0 11.05 2.35 14.85 6.15s6.15 9.05 6.15 14.85l-11.5 2.42c-.46.11-.87.31-1.23.58l-8.27.15h-.07c-1.51 0-2.95-.43-4.18-1.2s-2.25-1.89-2.91-3.24c-.55-1.12-1.36-2.1-2.36-2.85l-.56-.42c-.84-.63-1.77-1.12-2.76-1.44-.49-.17-1-.3-1.52-.38l-3.37-.55c-1.25-.31-2.32-1.04-3.08-2.01-.75-.96-1.19-2.18-1.19-3.47 0-1.64.72-3.21 1.97-4.28 3.25-2.78 7.38-4.31 11.65-4.31z" fill="#ecc19c"/></g><g><path d="m16.83 49c1.47 0 2.88-.4 4.1-1.12l.07.12v5c0 2.21-1.79 4-4 4h-10l-.38.12c-.4-.95-.62-2-.63-3.11l-.01-5.01h.02z" fill="#969faa"/></g><g><path d="m19.77 28.56c.79.93 1.23 2.11 1.23 3.33 0 1.41-.57 2.69-1.5 3.61-.92.93-2.2 1.5-3.61 1.5-1.63 0-3.1-.66-4.16-1.73-1.07-1.06-1.73-2.53-1.73-4.16v-4.69c0-1.89 1.53-3.42 3.42-3.42 1 0 1.95.44 2.61 1.2z" fill="#838f9b"/></g></g><g><path d="m9 26.425v4.685c0 3.799 3.091 6.89 6.891 6.89 3.369 0 6.109-2.74 6.109-6.109 0-1.457-.522-2.869-1.472-3.977l-3.744-4.368c-.842-.983-2.066-1.546-3.359-1.546-2.44 0-4.425 1.985-4.425 4.425zm10.01 2.79c.638.745.99 1.695.99 2.676 0 2.265-1.844 4.109-4.109 4.109-2.697 0-4.891-2.194-4.891-4.891v-4.685c0-1.336 1.088-2.424 2.425-2.424.709 0 1.38.309 1.842.847z"/><path d="m63 26c0-13.785-11.215-25-25-25h-8.653c-13.054 0-24.007 10.199-24.936 23.219l-.306 4.28c-.057.778-.299 1.545-.7 2.216l-1.743 2.904c-.433.722-.662 1.549-.662 2.391 0 2.223 1.585 4.136 3.773 4.55l.102.019c.319.061.571.227.708.467.138.241.152.543.022.897-.418 1.153-.629 2.359-.628 3.586l.012 8.484c.007 4.957 4.043 8.988 8.999 8.988h.002 7.206c4.634-.001 8.933-2.091 11.793-5.732l3.179-4.045 1.832 3.053v4.723c0 1.103.897 2 2 2h14c1.103 0 2-.897 2-2h2c1.103 0 2-.897 2-2v-2c0-1.103-.897-2-2-2h-2c0-1.103-.897-2-2-2h2c1.103 0 2-.897 2-2v-2c0-1.103-.897-2-2-2h-.704c4.984-5.76 7.704-13.034 7.704-20.728zm-56.016 24h9.851c1.096 0 2.166-.201 3.165-.576v3.576c0 1.654-1.346 3-3 3h-9.716c-.189-.631-.294-1.298-.295-1.989zm30.512 1.549c1.335-1.618 3.287-2.549 5.393-2.549h9.111v4h-4.528c-2.771 0-5.545.589-8.079 1.71zm-12.496-37.549v2c1.103 0 2 .897 2 2s-.897 2-2 2h-.699c-.493-.156-.994-.289-1.505-.372l-3.28-.529c-2.07-.518-3.516-2.37-3.516-4.504 0-1.357.591-2.642 1.622-3.524 3.062-2.626 6.969-4.071 11.003-4.071h4.931c-.344.591-.556 1.268-.556 2 0 2.206 1.794 4 4 4v-2c-1.103 0-2-.897-2-2 0-1.102.897-2 2-2 10.757 0 19.558 8.537 19.983 19.192l-10.704 2.255c-.485.112-.934.303-1.333.559l-8.011.14c-2.618 0-5.052-1.52-6.2-3.873-.616-1.262-1.535-2.373-2.657-3.215l-.561-.42c-.126-.095-.264-.171-.395-.26 1.124-.709 1.878-1.953 1.878-3.378 0-2.206-1.794-4-4-4zm23 33v-9.998c.289.001.591.003.907.005h.08c.341 0 .678-.018 1.013-.051v10.044zm.922-11.993c-.575-.004-1.111-.007-1.584-.007-1.289 0-2.338-1.057-2.338-2.433 0-1.044.711-1.937 1.709-2.167l10.193-2.147c-.262 1.672-1.045 3.212-2.271 4.428-1.527 1.517-3.549 2.319-5.709 2.326zm-10.922-3.88 5.295-.093c-.191.496-.295 1.039-.295 1.61 0 1.93 1.265 3.552 3 4.123v10.233h-2v-6c0-1.524-.847-2.896-2.212-3.578l-1.577-.788c-1.363-.683-2.211-2.054-2.211-3.578zm16 25.873h-14v-.37c2.335-1.067 4.905-1.63 7.472-1.63h6.528zm-14 4v-2h14v2zm18-4v2h-2v-2zm-2-8v2h-2v-2zm5-22.728c0 7.803-2.986 15.148-8.418 20.728h-.582v-10.457c1.505-.473 2.888-1.298 4.041-2.442 1.907-1.893 2.958-4.414 2.958-7.1 0-12.132-9.869-22.001-21.999-22.001h-.001-8.374c-4.511 0-8.881 1.616-12.306 4.552-1.473 1.263-2.319 3.101-2.319 5.043 0 3.054 2.068 5.703 5.113 6.461l3.361.547c1.389.226 2.717.791 3.842 1.635l.56.42c.87.653 1.583 1.516 2.062 2.493 1.34 2.747 4.044 4.598 7.063 4.927v1.978c0 2.286 1.271 4.343 3.317 5.367l1.577.788c.681.341 1.105 1.026 1.105 1.789v6.05c-2.436.238-4.656 1.439-6.188 3.389l-4.395 5.593c-2.479 3.157-6.205 4.968-10.221 4.969h-7.206c-.001 0-.001 0-.002 0-2.371 0-4.469-1.19-5.736-3.001h8.748c2.757 0 5-2.243 5-5v-4.638c.847-.594 1.599-1.332 2.208-2.201l3.417-4.882c.561-.8 1.48-1.279 2.458-1.279h2.917v-2h-2.917c-1.63 0-3.161.797-4.097 2.133l-3.417 4.882c-1.308 1.869-3.452 2.985-5.734 2.985h-9.854l-.003-2.474c-.001-.992.17-1.969.527-2.951.31-.854.242-1.772-.184-2.521-.427-.747-1.183-1.273-2.079-1.442l-.102-.019c-1.24-.234-2.14-1.321-2.14-2.583 0-.479.13-.95.377-1.361l1.743-2.905c.563-.938.901-2.012.979-3.102l.306-4.28c.856-11.979 10.933-21.362 22.942-21.362h8.653c12.683 0 23 10.317 23 23z"/><path d="m50 20c0-2.206-1.794-4-4-4v2c1.103 0 2 .897 2 2s-.897 2-2 2h-5v2h5c2.206 0 4-1.794 4-4z"/></g></g></svg>