<?xml version="1.0" encoding="UTF-8" standalone="no"?>
<svg
   xmlns:dc="http://purl.org/dc/elements/1.1/"
   xmlns:cc="http://creativecommons.org/ns#"
   xmlns:rdf="http://www.w3.org/1999/02/22-rdf-syntax-ns#"
   xmlns:svg="http://www.w3.org/2000/svg"
   xmlns="http://www.w3.org/2000/svg"
   xmlns:sodipodi="http://sodipodi.sourceforge.net/DTD/sodipodi-0.dtd"
   xmlns:inkscape="http://www.inkscape.org/namespaces/inkscape"
   inkscape:version="1.0 (4035a4fb49, 2020-05-01)"
   sodipodi:docname="occupation.svg"
   version="1.1"
   width="24"
   viewBox="0 0 3 3"
   height="24"
   enable-background="new 0 0 64 64"
   id="_x33_0">
  <metadata
     id="metadata125">
    <rdf:RDF>
      <cc:Work
         rdf:about="">
        <dc:format>image/svg+xml</dc:format>
        <dc:type
           rdf:resource="http://purl.org/dc/dcmitype/StillImage" />
        <dc:title></dc:title>
      </cc:Work>
    </rdf:RDF>
  </metadata>
  <defs
     id="defs123" />
  <sodipodi:namedview
     inkscape:current-layer="_x33_0"
     inkscape:window-maximized="1"
     inkscape:window-y="0"
     inkscape:window-x="0"
     inkscape:cy="17.184706"
     inkscape:cx="16.962917"
     inkscape:zoom="22.273864"
     showgrid="false"
     id="namedview121"
     inkscape:window-height="1417"
     inkscape:window-width="2560"
     inkscape:pageshadow="2"
     inkscape:pageopacity="0"
     guidetolerance="10"
     gridtolerance="10"
     objecttolerance="10"
     borderopacity="1"
     bordercolor="#666666"
     pagecolor="#ffffff" />
  <g
     transform="matrix(0.0483871,0,0,0.0483871,-0.0483871,-0.0483871)"
     id="g118">
    <g
       id="g114">
      <g
         id="g4">
        <path
           id="path2"
           fill="#d3a06c"
           d="m 20,42 v 2 c 0,2.21 1.79,4 4,4 v 4 H 20 14 8 5 L 5.42,46.96 6,40 h 14 z" />
      </g>
      <g
         id="g8">
        <path
           id="path6"
           fill="#b4dd7f"
           d="M 6,35 H 2 v -7.63 c 0,-2.21 1.19,-4.16 3,-5.2 0.7,-0.4 1.49,-0.67 2.34,-0.76 L 11,21 l 0.86,3 0.87,3.04 C 12.89,27.61 13.41,28 14,28 c 0.59,0 1.11,-0.39 1.27,-0.96 L 16.14,24 17,21 l 3.66,0.41 c 0.85,0.09 1.64,0.36 2.34,0.76 -1.81,1.04 -3,2.99 -3,5.2 V 40 H 6 Z" />
      </g>
      <g
         id="g12">
        <path
           id="path10"
           fill="#656d78"
           d="M 23,12 V 22.17 C 22.3,21.77 21.51,21.5 20.66,21.41 L 17,21 16.13,17.52 C 17.83,16.72 19,15 19,13 V 11 C 19,9.34 17.66,8 16,8 H 12 C 10.34,8 9,9.34 9,11 v 2 c 0,2 1.17,3.72 2.87,4.52 L 11,21 7.34,21.41 C 6.49,21.5 5.7,21.77 5,22.17 V 8.92 C 5,7.66 5.34,6.43 5.99,5.36 7.24,3.27 9.49,2 11.92,2 h 4.16 c 1.22,0 2.38,0.32 3.41,0.9 1.02,0.58 1.89,1.42 2.52,2.46 0.65,1.07 0.99,2.3 0.99,3.56 z" />
      </g>
      <g
         id="g16">
        <path
           id="path14"
           fill="#b27946"
           d="M 41,5.17 C 41,6.98 40.28,8.72 39,10 H 37 V 9 C 37,8.45 36.55,8 36,8 h -8 c -0.55,0 -1,0.45 -1,1 v 1 h -2 c -0.48,0 -0.92,0.17 -1.27,0.46 L 23.6,10.2 C 23.2,9.41 23,8.54 23,7.66 23,6.1 23.64,4.68 24.66,3.66 25.68,2.64 27.1,2 28.66,2 H 40 c 0.55,0 1,0.45 1,1 z" />
      </g>
      <g
         id="g20">
        <path
           id="path18"
           fill="#f0d0b4"
           d="m 14,52 h 6 v 10 h -6 z" />
      </g>
      <g
         id="g24">
        <path
           id="path22"
           fill="#f0d0b4"
           d="m 8,52 h 6 V 62 H 8 Z" />
      </g>
      <g
         id="g28">
        <path
           id="path26"
           fill="#d3a06c"
           d="M 50,62 H 40 V 47 c 2.21,0 4,-1.79 4,-4 v -1 -2 h 14 v 7 15 z" />
      </g>
      <g
         id="g32">
        <path
           id="path30"
           fill="#fcd770"
           d="M 62,27.37 V 35 h -4 v 5 H 44 V 27.37 c 0,-2.21 -1.19,-4.16 -3,-5.2 0.7,-0.4 1.49,-0.67 2.34,-0.76 L 47,21 c 0,0.83 0.34,1.58 0.88,2.12 0.54,0.54 1.29,0.88 2.12,0.88 0.83,0 1.58,-0.34 2.12,-0.88 C 52.66,22.58 53,21.83 53,21 l 3.66,0.41 c 3.04,0.33 5.34,2.9 5.34,5.96 z" />
      </g>
      <g
         id="g36">
        <path
           id="path34"
           fill="#969faa"
           d="M 32,62 H 24 V 52 48 42 h 8 8 v 5 15 z" />
      </g>
      <g
         id="g40">
        <path
           id="path38"
           fill="#4fc1e9"
           d="M 44,27.37 V 40 42 H 40 32 V 23 l 3,3 2.81,-4.69 0.85,0.1 c 0.85,0.09 1.64,0.36 2.34,0.76 1.81,1.04 3,2.99 3,5.2 z" />
      </g>
      <g
         id="g44">
        <path
           id="path42"
           fill="#4fc1e9"
           d="M 24,42 H 20 V 40 27.37 c 0,-2.21 1.19,-4.16 3,-5.2 0.7,-0.4 1.49,-0.67 2.34,-0.76 L 26.19,21.31 29,26 32,23 v 19 z" />
      </g>
      <g
         id="g48">
        <path
           id="path46"
           fill="#3bafda"
           d="M 35,21 37.81,21.31 35,26 32,23 Z" />
      </g>
      <g
         id="g52">
        <path
           id="path50"
           fill="#3bafda"
           d="M 32,23 29,26 26.19,21.31 29,21 Z" />
      </g>
      <g
         id="g56">
        <path
           id="path54"
           fill="#e6e9ed"
           d="m 16.14,24 -0.87,3.04 C 15.11,27.61 14.59,28 14,28 13.41,28 12.89,27.61 12.73,27.04 L 11.86,24 Z" />
      </g>
      <g
         id="g60">
        <path
           id="path58"
           fill="#f0d0b4"
           d="m 6,35 v 5 L 5.42,46.96 C 3.49,46.68 2,45.01 2,43 v -8 z" />
      </g>
      <g
         id="g64">
        <path
           id="path62"
           fill="#f0d0b4"
           d="M 16.13,17.52 17,21 16.14,24 H 11.86 L 11,21 11.87,17.52 C 12.52,17.83 13.24,18 14,18 c 0.76,0 1.48,-0.17 2.13,-0.48 z" />
      </g>
      <g
         id="g68">
        <path
           id="path66"
           fill="#f0d0b4"
           d="m 19,11 v 2 c 0,2 -1.17,3.72 -2.87,4.52 C 15.48,17.83 14.76,18 14,18 13.24,18 12.52,17.83 11.87,17.52 10.17,16.72 9,15 9,13 V 11 C 9,9.34 10.34,8 12,8 h 4 c 1.66,0 3,1.34 3,3 z" />
      </g>
      <g
         id="g72">
        <path
           id="path70"
           fill="#f0d0b4"
           d="m 37,10 v 3 c 0,0.34 -0.03,0.68 -0.1,1 -0.32,1.56 -1.36,2.86 -2.77,3.52 C 33.48,17.83 32.76,18 32,18 31.24,18 30.52,17.83 29.87,17.52 28.46,16.86 27.42,15.56 27.1,14 27.03,13.68 27,13.34 27,13 V 10 9 c 0,-0.55 0.45,-1 1,-1 h 8 c 0.55,0 1,0.45 1,1 z" />
      </g>
      <g
         id="g76">
        <path
           id="path74"
           fill="#f0d0b4"
           d="m 39,10 c 1.1,0 2,0.9 2,2 0,0.55 -0.22,1.05 -0.59,1.41 C 40.05,13.78 39.55,14 39,14 H 36.9 C 36.97,13.68 37,13.34 37,13 v -3 z" />
      </g>
      <g
         id="g80">
        <path
           id="path78"
           fill="#f0d0b4"
           d="M 27.1,14 H 25 C 24.45,14 23.95,13.78 23.59,13.41 23.22,13.05 23,12.55 23,12 23,11.38 23.28,10.83 23.73,10.46 24.08,10.17 24.52,10 25,10 h 2 v 3 c 0,0.34 0.03,0.68 0.1,1 z" />
      </g>
      <g
         id="g84">
        <path
           id="path82"
           fill="#f0d0b4"
           d="M 34.13,17.52 35,21 32,23 29,21 29.87,17.52 C 30.52,17.83 31.24,18 32,18 c 0.76,0 1.48,-0.17 2.13,-0.48 z" />
      </g>
      <g
         id="g88">
        <path
           id="path86"
           fill="#f0d0b4"
           d="m 24,42 v 6 c -2.21,0 -4,-1.79 -4,-4 v -2 z" />
      </g>
      <g
         id="g92">
        <path
           id="path90"
           fill="#f0d0b4"
           d="m 44,42 v 1 c 0,2.21 -1.79,4 -4,4 v -5 z" />
      </g>
      <g
         id="g96">
        <path
           id="path94"
           fill="#f0d0b4"
           d="m 62,35 v 8 c 0,2.21 -1.79,4 -4,4 v -7 -5 z" />
      </g>
      <g
         id="g100">
        <path
           id="path98"
           fill="#f0d0b4"
           d="m 57,10 c 1.1,0 2,0.9 2,2 0,0.55 -0.22,1.05 -0.59,1.41 C 58.05,13.78 57.55,14 57,14 H 54.9 C 54.97,13.68 55,13.34 55,13 v -3 z" />
      </g>
      <g
         id="g104">
        <path
           id="path102"
           fill="#f0d0b4"
           d="M 52.13,17.52 53,21 c 0,0.83 -0.34,1.58 -0.88,2.12 C 51.58,23.66 50.83,24 50,24 49.17,24 48.42,23.66 47.88,23.12 47.34,22.58 47,21.83 47,21 l 0.87,-3.48 C 48.52,17.83 49.24,18 50,18 c 0.76,0 1.48,-0.17 2.13,-0.48 z" />
      </g>
      <g
         id="g108">
        <path
           id="path106"
           fill="#f0d0b4"
           d="m 55,10 v 3 c 0,0.34 -0.03,0.68 -0.1,1 -0.32,1.56 -1.36,2.86 -2.77,3.52 C 51.48,17.83 50.76,18 50,18 49.24,18 48.52,17.83 47.87,17.52 46.46,16.86 45.42,15.56 45.1,14 45.03,13.68 45,13.34 45,13 V 10 9 c 0,-2.76 2.24,-5 5,-5 1.38,0 2.63,0.56 3.54,1.46 C 54.44,6.37 55,7.62 55,9 Z" />
      </g>
      <g
         id="g112">
        <path
           id="path110"
           fill="#f0d0b4"
           d="M 45.1,14 H 43 C 42.45,14 41.95,13.78 41.59,13.41 41.22,13.05 41,12.55 41,12 c 0,-1.1 0.9,-2 2,-2 h 2 v 3 c 0,0.34 0.03,0.68 0.1,1 z" />
      </g>
    </g>
    <path
       id="path116"
       d="M 56.773,20.413 53.778,20.08 53.28,18.018 C 54.369,17.304 55.208,16.246 55.651,15 H 57 c 1.654,0 3,-1.346 3,-3 0,-1.654 -1.346,-3 -3,-3 H 56 C 56,5.691 53.309,3 50,3 46.691,3 44,5.691 44,9 H 43 C 42.229,9 41.532,9.301 41,9.78 40.899,9.689 40.797,9.596 40.684,9.519 41.54,8.244 42,6.744 42,5.172 V 3 C 42,1.897 41.103,1 40,1 H 28.663 C 26.077,1 23.836,2.484 22.732,4.641 21.285,2.394 18.766,1 16.084,1 H 11.915 C 9.151,1 6.55,2.473 5.127,4.844 4.39,6.074 4,7.481 4,8.915 V 21.63 C 2.177,22.901 1,25.005 1,27.37 V 43 c 0,2.144 1.39,4.028 3.353,4.717 L 3.913,53 H 7 V 63 H 59 V 47.899 C 61.279,47.434 63,45.415 63,43 V 27.37 c 0,-3.572 -2.677,-6.563 -6.227,-6.957 z M 57,11 c 0.551,0 1,0.448 1,1 0,0.552 -0.449,1 -1,1 h -1 v -2 z m 4,16.37 V 34 H 59 V 30.236 L 59.895,28.447 58.106,27.552 57,29.764 V 39 H 45 V 27.37 c 0,-1.889 -0.753,-3.61 -1.983,-4.876 0.144,-0.029 0.283,-0.077 0.431,-0.093 l 2.725,-0.303 C 46.654,23.768 48.178,25 50,25 c 1.822,0 3.346,-1.232 3.827,-2.902 l 2.725,0.303 C 59.088,22.683 61,24.818 61,27.37 Z M 31,49.414 V 61 H 25 V 43 H 39 V 61 H 33 V 48.586 l -2.293,-2.293 -1.414,1.414 z M 19,53 v 8 h -4 v -8 z m 2,0 h 2 v 8 h -2 z m 15.153,-30.865 -1.352,2.253 -1.232,-1.232 1.682,-1.121 z M 43,27.37 V 41 H 41 V 30.236 L 41.895,28.447 40.106,27.552 39,29.764 V 41 H 33 V 25.414 l 2.199,2.198 3.141,-5.235 0.213,0.024 C 41.088,22.683 43,24.818 43,27.37 Z m -14.252,-5.336 1.682,1.121 -1.232,1.232 -1.352,-2.253 z M 33.859,20.559 32,21.798 30.141,20.559 30.575,18.822 C 31.033,18.934 31.508,19 32,19 c 0.492,0 0.967,-0.066 1.425,-0.178 z M 32,17 c -2.206,0 -4,-1.794 -4,-4 V 9 h 8 v 4 c 0,2.206 -1.794,4 -4,4 z m -3.284,1.015 -0.517,2.067 -2.972,0.33 C 24.804,20.459 24.395,20.545 24,20.662 V 14.814 C 24.314,14.928 24.648,15 25,15 h 1.35 c 0.442,1.245 1.279,2.302 2.366,3.015 z M 26,13 h -1 c -0.551,0 -1,-0.448 -1,-1 0,-0.552 0.449,-1 1,-1 h 1 z m -0.552,9.401 0.213,-0.024 3.141,5.235 L 31,25.414 V 41 H 25 V 29.764 L 23.895,27.553 22.106,28.448 23,30.236 V 41 H 21 V 27.37 c 0,-2.552 1.912,-4.687 4.448,-4.969 z M 21,43 h 2 v 3.816 C 21.839,46.402 21,45.302 21,44 Z m 20,0 h 2 c 0,1.302 -0.839,2.402 -2,2.816 z M 51.997,21.111 C 51.939,22.162 51.065,23 50,23 48.935,23 48.061,22.162 48.003,21.111 l 0.573,-2.289 C 49.033,18.934 49.508,19 50,19 c 0.492,0 0.967,-0.066 1.425,-0.178 z M 46,9 c 0,-2.206 1.794,-4 4,-4 2.206,0 4,1.794 4,4 v 4 c 0,2.206 -1.794,4 -4,4 -2.206,0 -4,-1.794 -4,-4 z m 0.716,9.015 -0.517,2.067 -2.971,0.33 c -0.78,0.087 -1.525,0.305 -2.227,0.638 -0.687,-0.326 -1.434,-0.55 -2.228,-0.638 l -2.972,-0.33 -0.517,-2.067 C 36.37,17.301 37.208,16.244 37.65,15 H 39 c 0.771,0 1.468,-0.301 2,-0.78 0.532,0.48 1.229,0.78 2,0.78 h 1.35 c 0.442,1.245 1.279,2.302 2.366,3.015 z M 38,11 h 1 c 0.551,0 1,0.448 1,1 0,0.552 -0.449,1 -1,1 h -1 z m 5,0 h 1 v 2 h -1 c -0.551,0 -1,-0.448 -1,-1 0,-0.552 0.449,-1 1,-1 z M 28.663,3 H 40 V 5.172 C 40,6.596 39.487,7.938 38.559,9 H 38 C 38,7.897 37.103,7 36,7 H 28 C 26.897,7 26,7.897 26,9 H 25 C 24.735,9 24.482,9.046 24.237,9.11 24.085,8.643 24,8.154 24,7.663 24,5.092 26.092,3 28.663,3 Z M 6,8.915 C 6,7.844 6.292,6.792 6.843,5.872 7.906,4.101 9.85,3 11.916,3 h 4.169 c 2.066,0 4.01,1.101 5.072,2.871 C 21.708,6.792 22,7.844 22,8.915 v 11.753 c -0.399,-0.119 -0.807,-0.209 -1.227,-0.255 l -2.972,-0.33 -0.517,-2.067 C 18.918,16.942 20,15.096 20,13 V 11 C 20,8.794 18.206,7 16,7 H 12 C 9.794,7 8,8.794 8,11 v 2 c 0,2.096 1.082,3.942 2.716,5.015 l -0.517,2.067 -2.972,0.33 C 6.804,20.46 6.395,20.546 6,20.663 Z M 14,17 c -2.206,0 -4,-1.794 -4,-4 v -2 c 0,-1.103 0.897,-2 2,-2 h 4 c 1.103,0 2,0.897 2,2 v 2 c 0,2.206 -1.794,4 -4,4 z M 15.965,20.982 15.389,23 h -2.777 l -0.576,-2.018 0.54,-2.16 C 13.033,18.934 13.508,19 14,19 c 0.492,0 0.967,-0.066 1.425,-0.178 z M 14.817,25 14.313,26.764 c -0.08,0.277 -0.547,0.277 -0.627,0 L 13.183,25 Z m -7.369,-2.599 2.823,-0.314 1.493,5.225 C 12.047,28.307 12.967,29 14,29 c 1.033,0 1.953,-0.693 2.236,-1.688 l 1.493,-5.225 2.823,0.314 c 0.148,0.016 0.286,0.064 0.431,0.093 C 19.753,23.76 19,25.482 19,27.37 V 39 H 7 V 32.109 C 7,30.817 7.207,29.54 7.616,28.315 L 7.949,27.316 6.052,26.683 5.719,27.682 C 5.242,29.112 5,30.602 5,32.109 L 5.001,34 H 3 V 27.37 C 3,24.818 4.912,22.683 7.448,22.401 Z M 3,43 v -7 h 2.002 l 0.002,3.917 -0.475,5.695 C 3.613,45.091 3,44.103 3,43 Z M 6.917,41 H 19 v 3 c 0,2.414 1.721,4.434 4,4.899 V 51 H 6.086 Z M 9,53 h 4 v 8 H 9 Z m 42,8 V 48.586 L 48.707,46.293 47.293,47.707 49,49.414 V 61 H 41 V 47.899 C 43.279,47.434 45,45.415 45,43 V 41 H 57 V 61 Z M 59,45.816 V 36 h 2 v 7 c 0,1.302 -0.839,2.402 -2,2.816 z" />
  </g>
</svg>
