<svg id="_x33_0" enable-background="new 0 0 64 64" height="512" viewBox="0 0 64 64" width="512" xmlns="http://www.w3.org/2000/svg"><g><g><g><path d="m20 42v2c0 2.21 1.79 4 4 4v4h-4-6-6-3l.42-5.04.58-6.96h14z" fill="#d3a06c"/></g><g><path d="m6 35h-4v-7.63c0-2.21 1.19-4.16 3-5.2.7-.4 1.49-.67 2.34-.76l3.66-.41.86 3 .87 3.04c.16.57.68.96 1.27.96s1.11-.39 1.27-.96l.87-3.04.86-3 3.66.41c.85.09 1.64.36 2.34.76-1.81 1.04-3 2.99-3 5.2v12.63h-14z" fill="#b4dd7f"/></g><g><path d="m23 12v10.17c-.7-.4-1.49-.67-2.34-.76l-3.66-.41-.87-3.48c1.7-.8 2.87-2.52 2.87-4.52v-2c0-1.66-1.34-3-3-3h-4c-1.66 0-3 1.34-3 3v2c0 2 1.17 3.72 2.87 4.52l-.87 3.48-3.66.41c-.85.09-1.64.36-2.34.76v-13.25c0-1.26.34-2.49.99-3.56 1.25-2.09 3.5-3.36 5.93-3.36h4.16c1.22 0 2.38.32 3.41.9 1.02.58 1.89 1.42 2.52 2.46.65 1.07.99 2.3.99 3.56z" fill="#656d78"/></g><g><path d="m41 5.17c0 1.81-.72 3.55-2 4.83h-2v-1c0-.55-.45-1-1-1h-8c-.55 0-1 .45-1 1v1h-2c-.48 0-.92.17-1.27.46l-.13-.26c-.4-.79-.6-1.66-.6-2.54 0-1.56.64-2.98 1.66-4s2.44-1.66 4-1.66h11.34c.55 0 1 .45 1 1z" fill="#b27946"/></g><g><path d="m14 52h6v10h-6z" fill="#f0d0b4"/></g><g><path d="m8 52h6v10h-6z" fill="#f0d0b4"/></g><g><path d="m50 62h-10v-15c2.21 0 4-1.79 4-4v-1-2h14v7 15z" fill="#d3a06c"/></g><g><path d="m62 27.37v7.63h-4v5h-14v-12.63c0-2.21-1.19-4.16-3-5.2.7-.4 1.49-.67 2.34-.76l3.66-.41c0 .83.34 1.58.88 2.12s1.29.88 2.12.88 1.58-.34 2.12-.88.88-1.29.88-2.12l3.66.41c3.04.33 5.34 2.9 5.34 5.96z" fill="#fcd770"/></g><g><path d="m32 62h-8v-10-4-6h8 8v5 15z" fill="#969faa"/></g><g><path d="m44 27.37v12.63 2h-4-8v-19l3 3 2.81-4.69.85.1c.85.09 1.64.36 2.34.76 1.81 1.04 3 2.99 3 5.2z" fill="#4fc1e9"/></g><g><path d="m24 42h-4v-2-12.63c0-2.21 1.19-4.16 3-5.2.7-.4 1.49-.67 2.34-.76l.85-.1 2.81 4.69 3-3v19z" fill="#4fc1e9"/></g><g><path d="m35 21 2.81.31-2.81 4.69-3-3z" fill="#3bafda"/></g><g><path d="m32 23-3 3-2.81-4.69 2.81-.31z" fill="#3bafda"/></g><g><path d="m16.14 24-.87 3.04c-.16.57-.68.96-1.27.96s-1.11-.39-1.27-.96l-.87-3.04z" fill="#e6e9ed"/></g><g><path d="m6 35v5l-.58 6.96c-1.93-.28-3.42-1.95-3.42-3.96v-8z" fill="#f0d0b4"/></g><g><path d="m16.13 17.52.87 3.48-.86 3h-4.28l-.86-3 .87-3.48c.65.31 1.37.48 2.13.48s1.48-.17 2.13-.48z" fill="#f0d0b4"/></g><g><path d="m19 11v2c0 2-1.17 3.72-2.87 4.52-.65.31-1.37.48-2.13.48s-1.48-.17-2.13-.48c-1.7-.8-2.87-2.52-2.87-4.52v-2c0-1.66 1.34-3 3-3h4c1.66 0 3 1.34 3 3z" fill="#f0d0b4"/></g><g><path d="m37 10v3c0 .34-.03.68-.1 1-.32 1.56-1.36 2.86-2.77 3.52-.65.31-1.37.48-2.13.48s-1.48-.17-2.13-.48c-1.41-.66-2.45-1.96-2.77-3.52-.07-.32-.1-.66-.1-1v-3-1c0-.55.45-1 1-1h8c.55 0 1 .45 1 1z" fill="#f0d0b4"/></g><g><path d="m39 10c1.1 0 2 .9 2 2 0 .55-.22 1.05-.59 1.41-.36.37-.86.59-1.41.59h-2.1c.07-.32.1-.66.1-1v-3z" fill="#f0d0b4"/></g><g><path d="m27.1 14h-2.1c-.55 0-1.05-.22-1.41-.59-.37-.36-.59-.86-.59-1.41 0-.62.28-1.17.73-1.54.35-.29.79-.46 1.27-.46h2v3c0 .34.03.68.1 1z" fill="#f0d0b4"/></g><g><path d="m34.13 17.52.87 3.48-3 2-3-2 .87-3.48c.65.31 1.37.48 2.13.48s1.48-.17 2.13-.48z" fill="#f0d0b4"/></g><g><path d="m24 42v6c-2.21 0-4-1.79-4-4v-2z" fill="#f0d0b4"/></g><g><path d="m44 42v1c0 2.21-1.79 4-4 4v-5z" fill="#f0d0b4"/></g><g><path d="m62 35v8c0 2.21-1.79 4-4 4v-7-5z" fill="#f0d0b4"/></g><g><path d="m57 10c1.1 0 2 .9 2 2 0 .55-.22 1.05-.59 1.41-.36.37-.86.59-1.41.59h-2.1c.07-.32.1-.66.1-1v-3z" fill="#f0d0b4"/></g><g><path d="m52.13 17.52.87 3.48c0 .83-.34 1.58-.88 2.12s-1.29.88-2.12.88-1.58-.34-2.12-.88-.88-1.29-.88-2.12l.87-3.48c.65.31 1.37.48 2.13.48s1.48-.17 2.13-.48z" fill="#f0d0b4"/></g><g><path d="m55 10v3c0 .34-.03.68-.1 1-.32 1.56-1.36 2.86-2.77 3.52-.65.31-1.37.48-2.13.48s-1.48-.17-2.13-.48c-1.41-.66-2.45-1.96-2.77-3.52-.07-.32-.1-.66-.1-1v-3-1c0-2.76 2.24-5 5-5 1.38 0 2.63.56 3.54 1.46.9.91 1.46 2.16 1.46 3.54z" fill="#f0d0b4"/></g><g><path d="m45.1 14h-2.1c-.55 0-1.05-.22-1.41-.59-.37-.36-.59-.86-.59-1.41 0-1.1.9-2 2-2h2v3c0 .34.03.68.1 1z" fill="#f0d0b4"/></g></g><path d="m56.773 20.413-2.995-.333-.498-2.062c1.089-.714 1.928-1.772 2.371-3.018h1.349c1.654 0 3-1.346 3-3s-1.346-3-3-3h-1c0-3.309-2.691-6-6-6s-6 2.691-6 6h-1c-.771 0-1.468.301-2 .78-.101-.091-.203-.184-.316-.261.856-1.275 1.316-2.775 1.316-4.347v-2.172c0-1.103-.897-2-2-2h-11.337c-2.586 0-4.827 1.484-5.931 3.641-1.447-2.247-3.966-3.641-6.648-3.641h-4.169c-2.764 0-5.365 1.473-6.788 3.844-.737 1.23-1.127 2.637-1.127 4.071v12.715c-1.823 1.271-3 3.375-3 5.74v15.63c0 2.144 1.39 4.028 3.353 4.717l-.44 5.283h3.087v10h52v-15.101c2.279-.465 4-2.484 4-4.899v-15.63c0-3.572-2.677-6.563-6.227-6.957zm.227-9.413c.551 0 1 .448 1 1s-.449 1-1 1h-1v-2zm4 16.37v6.63h-2v-3.764l.895-1.789-1.789-.895-1.106 2.212v9.236h-12v-11.63c0-1.889-.753-3.61-1.983-4.876.144-.029.283-.077.431-.093l2.725-.303c.481 1.67 2.005 2.902 3.827 2.902s3.346-1.232 3.827-2.902l2.725.303c2.536.282 4.448 2.417 4.448 4.969zm-30 22.044v11.586h-6v-18h14v18h-6v-12.414l-2.293-2.293-1.414 1.414zm-12 3.586v8h-4v-8zm2 0h2v8h-2zm15.153-30.865-1.352 2.253-1.232-1.232 1.682-1.121zm6.847 5.235v13.63h-2v-10.764l.895-1.789-1.789-.895-1.106 2.212v11.236h-6v-15.586l2.199 2.198 3.141-5.235.213.024c2.535.282 4.447 2.417 4.447 4.969zm-14.252-5.336 1.682 1.121-1.232 1.232-1.352-2.253zm5.111-1.475-1.859 1.239-1.859-1.239.434-1.737c.458.112.933.178 1.425.178s.967-.066 1.425-.178zm-1.859-3.559c-2.206 0-4-1.794-4-4v-4h8v4c0 2.206-1.794 4-4 4zm-3.284 1.015-.517 2.067-2.972.33c-.423.047-.832.133-1.227.25v-5.848c.314.114.648.186 1 .186h1.35c.442 1.245 1.279 2.302 2.366 3.015zm-2.716-5.015h-1c-.551 0-1-.448-1-1s.449-1 1-1h1zm-.552 9.401.213-.024 3.141 5.235 2.198-2.198v15.586h-6v-11.236l-1.105-2.211-1.789.895.894 1.788v10.764h-2v-13.63c0-2.552 1.912-4.687 4.448-4.969zm-4.448 20.599h2v3.816c-1.161-.414-2-1.514-2-2.816zm20 0h2c0 1.302-.839 2.402-2 2.816zm10.997-21.889c-.058 1.051-.932 1.889-1.997 1.889s-1.939-.838-1.997-1.889l.573-2.289c.457.112.932.178 1.424.178s.967-.066 1.425-.178zm-5.997-12.111c0-2.206 1.794-4 4-4s4 1.794 4 4v4c0 2.206-1.794 4-4 4s-4-1.794-4-4zm.716 9.015-.517 2.067-2.971.33c-.78.087-1.525.305-2.227.638-.687-.326-1.434-.55-2.228-.638l-2.972-.33-.517-2.067c1.086-.714 1.924-1.771 2.366-3.015h1.35c.771 0 1.468-.301 2-.78.532.48 1.229.78 2 .78h1.35c.442 1.245 1.279 2.302 2.366 3.015zm-8.716-7.015h1c.551 0 1 .448 1 1s-.449 1-1 1h-1zm5 0h1v2h-1c-.551 0-1-.448-1-1s.449-1 1-1zm-14.337-8h11.337v2.172c0 1.424-.513 2.766-1.441 3.828h-.559c0-1.103-.897-2-2-2h-8c-1.103 0-2 .897-2 2h-1c-.265 0-.518.046-.763.11-.152-.467-.237-.956-.237-1.447 0-2.571 2.092-4.663 4.663-4.663zm-22.663 5.915c0-1.071.292-2.123.843-3.043 1.063-1.771 3.007-2.872 5.073-2.872h4.169c2.066 0 4.01 1.101 5.072 2.871.551.921.843 1.973.843 3.044v11.753c-.399-.119-.807-.209-1.227-.255l-2.972-.33-.517-2.067c1.634-1.074 2.716-2.92 2.716-5.016v-2c0-2.206-1.794-4-4-4h-4c-2.206 0-4 1.794-4 4v2c0 2.096 1.082 3.942 2.716 5.015l-.517 2.067-2.972.33c-.423.048-.832.134-1.227.251zm8 8.085c-2.206 0-4-1.794-4-4v-2c0-1.103.897-2 2-2h4c1.103 0 2 .897 2 2v2c0 2.206-1.794 4-4 4zm1.965 3.982-.576 2.018h-2.777l-.576-2.018.54-2.16c.457.112.932.178 1.424.178s.967-.066 1.425-.178zm-1.148 4.018-.504 1.764c-.08.277-.547.277-.627 0l-.503-1.764zm-7.369-2.599 2.823-.314 1.493 5.225c.283.995 1.203 1.688 2.236 1.688s1.953-.693 2.236-1.688l1.493-5.225 2.823.314c.148.016.286.064.431.093-1.23 1.266-1.983 2.988-1.983 4.876v11.63h-12v-6.891c0-1.292.207-2.569.616-3.794l.333-.999-1.897-.633-.333.999c-.477 1.43-.719 2.92-.719 4.427l.001 1.891h-2.001v-6.63c0-2.552 1.912-4.687 4.448-4.969zm-4.448 20.599v-7h2.002l.002 3.917-.475 5.695c-.916-.521-1.529-1.509-1.529-2.612zm3.917-2h12.083v3c0 2.414 1.721 4.434 4 4.899v2.101h-16.914zm2.083 12h4v8h-4zm42 8v-12.414l-2.293-2.293-1.414 1.414 1.707 1.707v11.586h-8v-13.101c2.279-.465 4-2.484 4-4.899v-2h12v20zm8-15.184v-9.816h2v7c0 1.302-.839 2.402-2 2.816z"/></g></svg>