<?xml version="1.0" encoding="UTF-8" standalone="no"?>
<!-- Generator: Adobe Illustrator 16.0.0, SVG Export Plug-In . SVG Version: 6.00 Build 0)  -->

<svg
   xmlns:dc="http://purl.org/dc/elements/1.1/"
   xmlns:cc="http://creativecommons.org/ns#"
   xmlns:rdf="http://www.w3.org/1999/02/22-rdf-syntax-ns#"
   xmlns:svg="http://www.w3.org/2000/svg"
   xmlns="http://www.w3.org/2000/svg"
   xmlns:sodipodi="http://sodipodi.sourceforge.net/DTD/sodipodi-0.dtd"
   xmlns:inkscape="http://www.inkscape.org/namespaces/inkscape"
   version="1.1"
   id="Capa_1"
   x="0px"
   y="0px"
   width="24"
   height="24"
   viewBox="0 0 22.957734 22.957781"
   xml:space="preserve"
   sodipodi:docname="patient.svg"
   inkscape:version="0.92.2 2405546, 2018-03-11"><metadata
   id="metadata57"><rdf:RDF><cc:Work
       rdf:about=""><dc:format>image/svg+xml</dc:format><dc:type
         rdf:resource="http://purl.org/dc/dcmitype/StillImage" /><dc:title /></cc:Work></rdf:RDF></metadata><defs
   id="defs55">
	

		
		
		
		
		
		
	
			
			
		</defs><sodipodi:namedview
   pagecolor="#ffffff"
   bordercolor="#666666"
   borderopacity="1"
   objecttolerance="10"
   gridtolerance="10"
   guidetolerance="10"
   inkscape:pageopacity="0"
   inkscape:pageshadow="2"
   inkscape:window-width="2560"
   inkscape:window-height="1347"
   id="namedview53"
   showgrid="false"
   inkscape:zoom="20.85965"
   inkscape:cx="7.5785128"
   inkscape:cy="6.4082059"
   inkscape:window-x="0"
   inkscape:window-y="0"
   inkscape:window-maximized="1"
   inkscape:current-layer="Capa_1" />

<g
   id="g22"
   transform="translate(0,-466.80822)">
</g>
<g
   id="g24"
   transform="translate(0,-466.80822)">
</g>
<g
   id="g26"
   transform="translate(0,-466.80822)">
</g>
<g
   id="g28"
   transform="translate(0,-466.80822)">
</g>
<g
   id="g30"
   transform="translate(0,-466.80822)">
</g>
<g
   id="g32"
   transform="translate(0,-466.80822)">
</g>
<g
   id="g34"
   transform="translate(0,-466.80822)">
</g>
<g
   id="g36"
   transform="translate(0,-466.80822)">
</g>
<g
   id="g38"
   transform="translate(0,-466.80822)">
</g>
<g
   id="g40"
   transform="translate(0,-466.80822)">
</g>
<g
   id="g42"
   transform="translate(0,-466.80822)">
</g>
<g
   id="g44"
   transform="translate(0,-466.80822)">
</g>
<g
   id="g46"
   transform="translate(0,-466.80822)">
</g>
<g
   id="g48"
   transform="translate(0,-466.80822)">
</g>
<g
   id="g50"
   transform="translate(0,-466.80822)">
</g>
<g
   id="g850"
   transform="matrix(0.17858811,0,0,0.17956328,32.981643,-63.388605)"><path
     style="fill:#2780e3;fill-opacity:1;stroke-width:0.9565742"
     id="path2"
     d="m -107.89265,456.33747 c -4.52464,4.40022 -4.83075,11.63192 -0.68877,16.15655 2.10448,2.30532 4.96463,3.4628 7.8535,3.4628 2.79318,0 5.615085,-1.07136 7.834344,-3.23322 l 6.762988,-6.58124 c 1.559216,5.63423 6.70559,9.78573 12.83721,9.81446 h 0.0574 c 7.37521,0 13.36331,-5.9595 13.39204,-13.33465 0.0191,-6.05513 -3.96024,-11.17278 -9.45096,-12.86593 l 0.10521,-0.0956 c 4.52464,-4.40028 4.83075,-11.63198 0.68876,-16.15656 -2.10447,-2.30537 -4.96462,-3.46279 -7.85349,-3.46279 -2.79318,0 -5.61509,1.07136 -7.834343,3.23323 z m 20.30805,-12.90418 c 0.526104,0 0.956574,0.43047 0.956574,0.95658 0,0.5261 -0.43047,0.95657 -0.956574,0.95657 -0.526105,0 -0.956575,-0.43047 -0.956575,-0.95657 0,-0.52611 0.43047,-0.95658 0.956575,-0.95658 z m 3.376735,18.17492 -2.343616,2.27664 -7.681322,7.47085 c -1.779214,1.7314 -4.084532,2.68797 -6.495117,2.68797 -2.47755,0 -4.7733,-1.00439 -6.4473,-2.84105 -3.4437,-3.75933 -3.16626,-9.81446 0.61216,-13.49726 l 10.838003,-10.54146 10.168384,10.16839 1.473106,1.47316 1.358383,1.35832 z m 22.402947,0 h -19.66716 l 10.57013,-10.28318 c 4.90724,1.02355 8.67614,5.18462 9.09703,10.28318 z m -15.13301,-26.76499 c 0.98524,0.0957 1.86534,0.6218 2.55404,1.52098 0.31568,0.42089 0.23915,1.01396 -0.18176,1.33922 -0.42089,0.31563 -1.02353,0.23915 -1.34874,-0.18175 -0.3635,-0.47828 -0.75573,-0.73658 -1.21487,-0.77482 -0.95657,-0.10527 -1.96096,0.7461 -1.97054,0.75567 l -4.955043,4.70633 c -0.18175,0.18175 -0.420893,0.26787 -0.660037,0.26787 -0.248719,0 -0.507013,-0.0957 -0.688704,-0.29654 -0.373084,-0.38265 -0.35399,-0.98529 0.0287,-1.3488 l 4.983764,-4.74457 c 0.19127,-0.16266 1.65486,-1.42534 3.45322,-1.24359 z"
     inkscape:connector-curvature="0" /><path
     style="fill:#2780e3;fill-opacity:1;stroke-width:0.9565742"
     id="path4"
     d="m -179.66795,440.66259 c 1.15789,1.04859 3.14623,2.25599 5.99214,2.07429 2.87299,-0.18916 4.87068,-1.76975 6.11731,-2.93604 0.0752,-0.0696 0.74966,-0.752 3.3737,-3.41107 3.21722,-3.2602 7.83942,-7.94405 10.6615,-10.77547 0.11817,5.6521 0.0729,22.08948 0.003,33.13026 -0.0271,4.32793 1.35639,7.92816 4.11168,10.70073 3.5596,3.58202 9.3308,5.55495 16.25009,5.55495 h 7.6213 c 5.67493,0 10.38435,-1.25059 13.87132,-3.51989 -2.96443,-5.19822 -2.09946,-12.10314 2.43901,-16.51726 l 4.36029,-4.2414 c 0.0311,-10.51082 0.0586,-22.08832 0.0634,-25.73795 0.74452,0.73191 2.14855,2.1196 3.81789,3.76885 3.665269,3.6216 7.107278,7.02017 9.290456,9.15658 l 6.17354,-6.00521 c 2.037857,-1.98163 4.558026,-3.22096 7.250136,-3.62294 -5.033782,-5.19583 -29.593812,-29.75878 -30.945422,-30.91929 -1.29403,-1.11048 -2.61948,-1.86703 -4.11804,-2.38554 -3.86571,3.36599 -8.9102,5.41127 -14.42632,5.41127 -5.58742,0 -10.69193,-2.0973 -14.57649,-5.54135 -0.11479,0.009 -0.20476,0.0186 -0.2378,0.0284 -1.72585,0.51098 -3.21256,1.33444 -4.68058,2.59228 -1.87439,1.61095 -22.93069,21.92414 -30.66363,29.63932 l -0.10373,0.10369 c -1.78797,1.78284 -4.23639,4.22472 -4.26255,7.57319 l 0.003,0.44046 c 0.18263,2.28541 0.98834,3.96268 2.6147,5.43911 z m 36.60204,-18.27393 c 0.52786,0 0.95658,0.42837 0.95658,0.95658 0,0.5282 -0.42872,0.95657 -0.95658,0.95657 -0.52785,0 -0.95657,-0.42837 -0.95657,-0.95657 0,-0.52821 0.42872,-0.95658 0.95657,-0.95658 z m -1.0313,4.89404 c 0,-0.52827 0.42831,-0.95658 0.95657,-0.95658 0.52827,0 0.95658,0.42831 0.95658,0.95658 v 29.11245 c 0,1.08596 0.24661,2.60723 0.65998,3.27375 0.97245,1.56891 3.00144,3.51148 7.14675,3.85573 0.52639,0.0439 0.9178,0.50584 0.8739,1.0327 -0.0416,0.49931 -0.45961,0.87717 -0.95237,0.87717 -0.0266,0 -0.0532,-9.3e-4 -0.0803,-0.003 -4.93841,-0.41056 -7.41018,-2.8118 -8.61431,-4.75437 -0.74732,-1.20646 -0.94676,-3.2588 -0.94676,-4.28171 V 427.2827 Z"
     inkscape:connector-curvature="0" /><path
     inkscape:connector-curvature="0"
     id="path844"
     d="m -117.78142,376.84199 a 9.9784618,9.9784618 0 0 1 -9.97846,9.97846 9.9784618,9.9784618 0 0 1 -9.97846,-9.97846 9.9784618,9.9784618 0 0 1 9.97846,-9.97845 9.9784618,9.9784618 0 0 1 9.97846,9.97845 z"
     style="opacity:1;fill:#2780e3;fill-opacity:1;stroke:#2780e3;stroke-width:19.95692444;stroke-miterlimit:4;stroke-dasharray:none;stroke-opacity:1" /></g></svg>