<?xml version="1.0" encoding="UTF-8" standalone="no"?>
<!-- Generator: Adobe Illustrator 16.0.0, SVG Export Plug-In . SVG Version: 6.00 Build 0)  -->

<svg
   xmlns:dc="http://purl.org/dc/elements/1.1/"
   xmlns:cc="http://creativecommons.org/ns#"
   xmlns:rdf="http://www.w3.org/1999/02/22-rdf-syntax-ns#"
   xmlns:svg="http://www.w3.org/2000/svg"
   xmlns="http://www.w3.org/2000/svg"
   xmlns:sodipodi="http://sodipodi.sourceforge.net/DTD/sodipodi-0.dtd"
   xmlns:inkscape="http://www.inkscape.org/namespaces/inkscape"
   version="1.1"
   id="Capa_1"
   x="0px"
   y="0px"
   width="512px"
   height="512px"
   viewBox="0 0 489.765 489.766"
   style="enable-background:new 0 0 489.765 489.766;"
   xml:space="preserve"
   sodipodi:docname="patient.svg"
   inkscape:version="0.92.2 2405546, 2018-03-11"><metadata
   id="metadata57"><rdf:RDF><cc:Work
       rdf:about=""><dc:format>image/svg+xml</dc:format><dc:type
         rdf:resource="http://purl.org/dc/dcmitype/StillImage" /></cc:Work></rdf:RDF></metadata><defs
   id="defs55">
	

		
		
		
		
		
		
	
			
			
		</defs><sodipodi:namedview
   pagecolor="#ffffff"
   bordercolor="#666666"
   borderopacity="1"
   objecttolerance="10"
   gridtolerance="10"
   guidetolerance="10"
   inkscape:pageopacity="0"
   inkscape:pageshadow="2"
   inkscape:window-width="2485"
   inkscape:window-height="1399"
   id="namedview53"
   showgrid="false"
   inkscape:zoom="1.3037281"
   inkscape:cx="57.371099"
   inkscape:cy="256.4015"
   inkscape:window-x="75"
   inkscape:window-y="0"
   inkscape:window-maximized="1"
   inkscape:current-layer="Capa_1" />
<path
   d="m 312.1464,225.43754 c -2.81509,4.32684 -4.31851,9.43457 -4.31851,14.59509 0,8.57402 4.21661,16.77381 11.17513,21.77871 7.05763,5.07346 16.38752,6.39624 24.5799,3.49316 7.9645,-2.82343 14.2783,-9.4392 16.71544,-17.53061 2.5057,-8.31835 0.7494,-17.55469 -4.64271,-24.365 -5.3458,-6.74916 -13.76604,-10.56838 -22.36322,-10.14505 -8.52678,0.41684 -16.49313,5.01787 -21.14603,12.1737 z"
   id="path2"
   inkscape:connector-curvature="0"
   style="fill:#18bc9c;stroke-width:0.92632002" /><path
   d="m 384.87827,331.91246 c 0.0528,1.46822 -0.0343,-1.47007 0,0 z"
   id="path4"
   inkscape:connector-curvature="0"
   style="fill:#18bc9c;stroke-width:0.92632002" /><path
   d="m 143.87573,134.39232 c 6.36845,3.42646 13.55299,5.21796 20.78292,5.21796 17.18046,0 33.15021,-10.37664 40.14115,-26.0722 7.08172,-15.899359 3.87572,-35.001931 -7.9645,-47.739757 -11.83188,-12.731343 -30.59357,-17.331448 -46.97091,-11.4734 -16.10407,5.759858 -27.66269,20.856095 -28.99104,37.90872 -1.34038,17.210097 7.79777,33.975567 23.00238,42.158677 z"
   id="path6"
   inkscape:connector-curvature="0"
   style="fill:#18bc9c;stroke-width:0.92632002" /><path
   d="m 219.67835,96.808738 c 8.38598,7.567112 19.43327,11.809652 30.72789,11.809652 17.16008,0 33.23544,-9.904212 40.97206,-25.220913 7.84408,-15.52605 6.04794,-34.70458 -4.51766,-48.513232 -10.52855,-13.761411 -28.34539,-20.50502 -45.35356,-17.162858 -16.69228,3.280099 -30.53614,16.017 -35.21683,32.369327 -4.77611,16.696918 0.50114,35.08715 13.3881,46.718024 z"
   id="path8"
   inkscape:connector-curvature="0"
   style="fill:#6a6c6c;stroke-width:0.92632002;fill-opacity:1" /><path
   style="fill:#18bc9c;stroke-width:0.92632002"
   inkscape:connector-curvature="0"
   id="path10"
   d="m 369.11322,339.78526 c 0.44649,4.16473 4.19901,7.32626 8.37486,7.08449 4.12491,-0.23806 7.45225,-3.74511 7.48652,-7.87372 0.0195,-2.3686 -0.013,-4.71682 -0.0963,-7.08357 -0.12691,-5.54032 -1.24776,-11.2835 -2.86233,-16.57464 -1.39134,-4.5612 -3.18191,-8.99827 -5.45788,-13.1908 -5.56348,-10.24602 -13.51131,-19.14981 -23.05703,-25.84896 -2.23058,-1.56363 -4.59362,-3.19858 -7.14656,-4.18789 -7.24568,-3.54781 -15.93549,-3.58949 -23.21636,-0.11579 -1.95268,0.68733 -3.75252,1.83967 -5.48196,2.95681 -2.15277,1.38948 -4.21568,2.91513 -6.20542,4.52971 -4.6279,3.75437 -8.82412,8.06084 -12.45159,12.78877 -6.35363,8.27945 -11.05193,17.99377 -13.17783,28.23702 -1.27184,6.13872 -1.68498,12.23483 -1.63774,18.49027 0.0306,4.18789 3.4524,7.70883 7.63103,7.88206 4.12861,0.17229 7.78572,-2.98831 8.2322,-7.09284 0.93559,-8.82412 3.03926,-17.51022 7.87743,-25.07826 v 8.5944 l -17.7029,71.50357 c -0.79479,3.08372 -1.31723,6.27211 4.69829,6.27211 h 14.70533 l 2.72802,59.70225 c 0.23899,4.88727 4.39816,8.86952 9.29562,8.86489 4.85947,-0.006 8.98345,-3.92853 9.2493,-8.77874 l 3.30511,-59.78933 h 0.99116 l 2.72709,59.70226 c 0.23899,4.88726 4.39817,8.86951 9.29562,8.86488 4.85948,-0.006 8.98438,-3.92852 9.25209,-8.77874 l 3.30233,-59.78932 h 14.38667 c 1.57382,0 3.05315,-0.69659 4.05636,-1.91007 1.00413,-1.21626 1.40893,-2.79934 1.10047,-4.37779 l -17.98543,-71.77035 v -8.1581 c 4.88356,7.38925 6.86681,16.26062 7.78386,24.92542 z" /><path
   style="fill:#6a6c6c;stroke-width:0.92632002;fill-opacity:1"
   inkscape:connector-curvature="0"
   id="path12"
   d="m 284.8357,398.2203 6.1063,-26.43439 0.82999,-16.40235 c -7.61621,-1.91748 -13.14356,-8.74724 -13.20006,-16.79789 -0.0649,-7.37536 0.48261,-14.59324 2.15184,-21.78982 1.66923,-7.19658 4.35278,-14.01708 7.86631,-20.50039 2.08237,-3.84052 4.55935,-7.49115 7.24938,-10.92687 0.32977,-2.99665 0.27512,-6.00348 0.27512,-9.01402 0,-4.22124 0,-8.44341 0,-12.66558 0,-12.15331 0,-24.30756 0,-36.46088 0,-8.70277 0,-17.40462 0,-26.1074 0,-0.45575 0,-0.91057 0,-1.36632 3.87942,8.36467 6.59632,17.12302 8.80374,26.06108 4.77425,-11.63921 15.00824,-17.53245 29.15963,-19.87049 -2.33711,-9.08349 -6.03868,-20.40127 -9.95424,-28.94657 -5.00027,-10.90649 -11.06859,-21.25441 -18.64219,-30.58709 -4.94469,-6.09611 -10.47482,-11.69571 -16.46533,-16.76268 -2.92347,-2.42974 -5.96365,-4.7335 -9.14093,-6.82235 -2.66966,-1.75445 -5.53754,-3.30882 -8.43229,-4.6844 -30.09799,-14.30238 -53.99427,8.9325 -54.58619,9.4568 -6.4231,5.7052 -12.84528,11.41041 -19.26838,17.11747 16.94702,11.94489 30.95576,27.80534 40.77661,46.04829 6.28693,11.67719 10.64712,24.53081 12.8073,37.61045 1.46914,8.89174 1.88135,17.77793 1.80725,26.78361 -0.10282,12.25522 -10.48595,22.47809 -22.74672,22.37248 -1.86005,-0.0157 -3.66915,-0.25473 -5.40044,-0.69751 0,0 16.88681,61.59842 17.8437,65.53251 1.29314,5.32634 1.73685,16.40049 -10.59525,16.40049 -13.77901,0 -20.47167,0 -20.47167,0 l -1.56641,27.65343 2.81879,67.52132 c 0.37794,8.37486 7.48467,15.22037 15.8762,15.22685 8.35541,0.007 15.44917,-6.75009 15.87064,-15.08975 l 5.71169,-113.12128 4.72053,112.98326 c 0.37794,8.37486 7.48652,15.22129 15.8762,15.22684 8.35633,0.006 15.44916,-6.75009 15.87064,-15.09068 l 2.48346,-49.13571 c -6.47219,-0.51041 -4.43522,-6.72046 -4.43522,-6.72046 z" /><path
   d="m 229.66316,353.90793 c 2.35933,0 4.57602,-1.04396 6.07943,-2.86418 1.50435,-1.823 2.15833,-3.90073 1.64978,-6.5602 L 207.02482,234.35151 v -17.43612 c 4.39817,6.789 7.50782,14.62382 9.59946,22.40954 1.63032,6.06739 2.48068,12.20148 3.14578,18.43469 0.72901,6.79456 6.83161,11.9662 13.64654,11.6142 6.79178,-0.35107 12.29042,-6.11093 12.346,-12.90827 0.0343,-4.18697 0.002,-8.34244 -0.20379,-12.52477 -0.28068,-5.74319 -1.17643,-11.491 -2.34359,-17.11376 -2.43715,-11.72444 -6.77696,-23.09501 -12.74524,-33.47906 -5.97198,-10.39702 -13.51686,-19.86586 -22.21501,-28.11196 -4.17955,-3.9628 -8.64071,-7.64214 -13.32881,-10.98801 -3.58764,-2.56035 -7.34202,-5.11051 -11.3641,-6.93999 -0.35848,-0.16303 -0.7216,-0.30661 -1.08935,-0.44649 -11.87172,-5.80988 -26.1074,-5.88213 -38.03377,-0.18711 -4.23699,1.49045 -8.13217,4.18418 -11.79391,6.72786 -4.63716,3.21989 -9.03533,6.77603 -13.19636,10.58969 -8.86488,8.1229 -16.42365,17.52042 -22.631847,27.8035 -3.107804,5.14848 -5.764489,10.61284 -7.996921,16.19485 -2.185189,5.47084 -4.096187,11.21959 -5.284655,16.99704 -1.188469,5.7682 -2.055504,11.50027 -2.617781,17.36387 -0.443707,4.62605 -0.34737,9.29099 -0.313096,13.93093 0.0019,0.0602 0.0019,0.1232 0.0019,0.18526 0.05095,6.83717 5.614425,12.59147 12.436772,12.91105 6.789926,0.31866 12.825828,-4.86596 13.556698,-11.61976 0.66788,-6.2332 1.51824,-12.36729 3.14578,-18.43284 2.12961,-7.92467 5.33746,-15.72891 9.75878,-22.66056 v 16.36066 L 89.04963,344.50671 c -0.45575,2.32321 0.146358,4.70108 1.646997,6.52778 1.503417,1.8267 3.72288,2.8753 6.088701,2.8753 h 25.348752 l 4.63252,102.11937 c 0.39091,7.9821 7.16601,14.50061 15.16664,14.52562 7.98766,0.0241 14.78685,-6.41106 15.225,-14.38112 l 5.60608,-102.26202 h 1.27369 l 4.63068,102.11937 c 0.39091,7.9821 7.16786,14.50061 15.16664,14.52562 7.98765,0.0241 14.78869,-6.41106 15.22684,-14.38111 l 5.60609,-102.26203 h 24.9949 z"
   id="path16"
   inkscape:connector-curvature="0"
   style="fill:#18bc9c;stroke-width:0.92632002" />
<g
   id="g22">
</g>
<g
   id="g24">
</g>
<g
   id="g26">
</g>
<g
   id="g28">
</g>
<g
   id="g30">
</g>
<g
   id="g32">
</g>
<g
   id="g34">
</g>
<g
   id="g36">
</g>
<g
   id="g38">
</g>
<g
   id="g40">
</g>
<g
   id="g42">
</g>
<g
   id="g44">
</g>
<g
   id="g46">
</g>
<g
   id="g48">
</g>
<g
   id="g50">
</g>
</svg>