<?xml version="1.0" encoding="UTF-8" standalone="no"?>
<!-- Generator: Adobe Illustrator 18.1.1, SVG Export Plug-In . SVG Version: 6.00 Build 0)  -->

<svg
   xmlns:dc="http://purl.org/dc/elements/1.1/"
   xmlns:cc="http://creativecommons.org/ns#"
   xmlns:rdf="http://www.w3.org/1999/02/22-rdf-syntax-ns#"
   xmlns:svg="http://www.w3.org/2000/svg"
   xmlns="http://www.w3.org/2000/svg"
   xmlns:sodipodi="http://sodipodi.sourceforge.net/DTD/sodipodi-0.dtd"
   xmlns:inkscape="http://www.inkscape.org/namespaces/inkscape"
   version="1.1"
   id="Capa_1"
   x="0px"
   y="0px"
   viewBox="0 0 99.999997 99.999997"
   xml:space="preserve"
   sodipodi:docname="patient.svg"
   inkscape:version="0.92.2 2405546, 2018-03-11"
   width="100"
   height="100"><metadata
   id="metadata49"><rdf:RDF><cc:Work
       rdf:about=""><dc:format>image/svg+xml</dc:format><dc:type
         rdf:resource="http://purl.org/dc/dcmitype/StillImage" /><dc:title /></cc:Work></rdf:RDF></metadata><defs
   id="defs47">
	

		
		
	</defs><sodipodi:namedview
   pagecolor="#ffffff"
   bordercolor="#666666"
   borderopacity="1"
   objecttolerance="10"
   gridtolerance="10"
   guidetolerance="10"
   inkscape:pageopacity="0"
   inkscape:pageshadow="2"
   inkscape:window-width="2485"
   inkscape:window-height="1399"
   id="namedview45"
   showgrid="false"
   inkscape:zoom="5.5562646"
   inkscape:cx="48.556483"
   inkscape:cy="41.120214"
   inkscape:window-x="75"
   inkscape:window-y="0"
   inkscape:window-maximized="1"
   inkscape:current-layer="Capa_1" />
<g
   id="g4"
   transform="translate(0,-380.54501)">
			
		</g><ellipse
   style="opacity:0.91100003;fill:#18bc9c;fill-opacity:0.98431373;stroke-width:0.21724822"
   id="path865"
   cx="48.168633"
   cy="18.471352"
   rx="16.969265"
   ry="17.360264" /><path
   style="fill:#6a6c6c;fill-opacity:1;stroke-width:0.21724822"
   d="m 48.02443,36.3617 c 9.798981,0 17.765039,-7.971272 17.765039,-17.765039 0,-9.804412 -7.966058,-17.78632882 -17.765039,-17.78632882 -9.793767,0 -17.765038,7.98191682 -17.765038,17.78632882 -2.18e-4,9.795505 7.971271,17.765039 17.765038,17.765039 z m 0,-33.1162325 c 8.451608,0 15.329904,6.8852475 15.329904,15.3511935 0,8.44987 -6.878296,15.326428 -15.329904,15.326428 -8.4553,0 -15.331641,-6.876558 -15.331641,-15.326428 0.0017,-8.465728 6.876341,-15.3511935 15.331641,-15.3511935 z"
   id="path2"
   inkscape:connector-curvature="0" /><g
   id="g8"
   transform="matrix(0.21724822,0,0,0.21724822,-4.8181577,-4.4036251)">
			<path
   style="fill:#6a6c6c;fill-opacity:1"
   d="m 93.857,406.664 -4.812,0.024 c -6.812,0 -12.168,-1.967 -15.932,-5.828 -6.901,-7.08 -6.812,-18.46 -6.804,-18.81 l 0.252,-126.456 c 0.179,-1.756 3.674,-29.442 30.848,-48.373 z m 11.209,-0.43 3.682,-205.206 c 7.812,-2.691 28.735,-8.925 58.851,-11.112 l 44.171,165.758 c 8.519,19.549 15.144,44.341 11.437,50.023 -0.187,0.26 -0.35,0.528 -1.406,0.528 H 105.066 Z m 309.163,47.771 c 0,14.64 -11.908,26.54 -26.515,26.54 -14.64,0 -26.548,-11.9 -26.548,-26.824 l -0.057,-5.592 V 248.677 h -12.811 l 0.098,227.803 -200.768,-0.146 0.033,-58.908 h 74.133 23.508 c 19.183,0 34.798,-15.623 34.798,-34.815 0,-19.192 -15.615,-34.79 -34.798,-34.79 h -24.093 l -42.082,-158.19 h 136.828 c 3.829,-0.024 91.788,-0.26 98.283,76.709 v 187.664 h -0.009 z M 225.239,359.031 H 245.3 c 13.014,0 23.589,10.583 23.589,23.581 0,13.038 -10.583,23.613 -23.589,23.613 l -10.616,0.024 c 2.797,-13.054 -4.486,-34.732 -9.445,-47.218 z"
   id="path6"
   inkscape:connector-curvature="0" />
		</g>
<g
   id="g14"
   transform="translate(0,-380.54501)">
</g>
<g
   id="g16"
   transform="translate(0,-380.54501)">
</g>
<g
   id="g18"
   transform="translate(0,-380.54501)">
</g>
<g
   id="g20"
   transform="translate(0,-380.54501)">
</g>
<g
   id="g22"
   transform="translate(0,-380.54501)">
</g>
<g
   id="g24"
   transform="translate(0,-380.54501)">
</g>
<g
   id="g26"
   transform="translate(0,-380.54501)">
</g>
<g
   id="g28"
   transform="translate(0,-380.54501)">
</g>
<g
   id="g30"
   transform="translate(0,-380.54501)">
</g>
<g
   id="g32"
   transform="translate(0,-380.54501)">
</g>
<g
   id="g34"
   transform="translate(0,-380.54501)">
</g>
<g
   id="g36"
   transform="translate(0,-380.54501)">
</g>
<g
   id="g38"
   transform="translate(0,-380.54501)">
</g>
<g
   id="g40"
   transform="translate(0,-380.54501)">
</g>
<g
   id="g42"
   transform="translate(0,-380.54501)">
</g>
</svg>