<?xml version="1.0" encoding="UTF-8" standalone="no"?>
<!-- Generator: Adobe Illustrator 16.0.0, SVG Export Plug-In . SVG Version: 6.00 Build 0)  -->

<svg
   xmlns:dc="http://purl.org/dc/elements/1.1/"
   xmlns:cc="http://creativecommons.org/ns#"
   xmlns:rdf="http://www.w3.org/1999/02/22-rdf-syntax-ns#"
   xmlns:svg="http://www.w3.org/2000/svg"
   xmlns="http://www.w3.org/2000/svg"
   xmlns:sodipodi="http://sodipodi.sourceforge.net/DTD/sodipodi-0.dtd"
   xmlns:inkscape="http://www.inkscape.org/namespaces/inkscape"
   version="1.1"
   id="Capa_1"
   x="0px"
   y="0px"
   width="512px"
   height="512px"
   viewBox="0 0 489.765 489.766"
   style="enable-background:new 0 0 489.765 489.766;"
   xml:space="preserve"
   sodipodi:docname="patient.svg"
   inkscape:version="0.92.2 2405546, 2018-03-11"><metadata
   id="metadata57"><rdf:RDF><cc:Work
       rdf:about=""><dc:format>image/svg+xml</dc:format><dc:type
         rdf:resource="http://purl.org/dc/dcmitype/StillImage" /></cc:Work></rdf:RDF></metadata><defs
   id="defs55">
	

		
		
		
		
		
		
	
			
			
		</defs><sodipodi:namedview
   pagecolor="#ffffff"
   bordercolor="#666666"
   borderopacity="1"
   objecttolerance="10"
   gridtolerance="10"
   guidetolerance="10"
   inkscape:pageopacity="0"
   inkscape:pageshadow="2"
   inkscape:window-width="2485"
   inkscape:window-height="1399"
   id="namedview53"
   showgrid="false"
   inkscape:zoom="1.3037281"
   inkscape:cx="-82.825879"
   inkscape:cy="256.4015"
   inkscape:window-x="75"
   inkscape:window-y="0"
   inkscape:window-maximized="1"
   inkscape:current-layer="Capa_1" />

<g
   id="g22">
</g>
<g
   id="g24">
</g>
<g
   id="g26">
</g>
<g
   id="g28">
</g>
<g
   id="g30">
</g>
<g
   id="g32">
</g>
<g
   id="g34">
</g>
<g
   id="g36">
</g>
<g
   id="g38">
</g>
<g
   id="g40">
</g>
<g
   id="g42">
</g>
<g
   id="g44">
</g>
<g
   id="g46">
</g>
<g
   id="g48">
</g>
<g
   id="g50">
</g>
<path
   inkscape:connector-curvature="0"
   id="path76"
   style="fill:#6a6c6c;fill-opacity:1;fill-rule:evenodd;stroke:none;stroke-width:0.77568519"
   d="m 233.14022,203.54588 h 11.87572 c 8.15246,0 14.07869,5.92624 14.07869,13.35733 0,7.43105 -5.92623,13.35728 -14.07869,13.35728 h -6.6864 c 2.24174,-7.40002 -2.20295,-20.02822 -5.18932,-26.71461 v 0" /><path
   inkscape:connector-curvature="0"
   id="path78"
   style="fill:#18bc9c;fill-opacity:0.98431373;fill-rule:evenodd;stroke:none;stroke-width:0.77568519"
   d="m 160.49728,230.26049 2.21846,-115.65465 c 4.44469,-1.48157 17.06509,-5.21264 35.58845,-5.9573 l 26.68357,92.70214 c 5.18934,11.08459 8.88935,25.1865 6.6709,28.14965 0,0 0,0.76016 -0.73691,0.76016 h -70.42447" /><path
   inkscape:connector-curvature="0"
   id="path80"
   style="fill:#6a6c6c;fill-opacity:1;fill-rule:evenodd;stroke:none;stroke-width:0.77568519"
   d="m 185.70705,265.81789 c 0,65.26618 -0.76792,129.7644 -3.72329,194.99952 -1.48931,32.64861 55.62439,32.64861 57.11372,0 2.95534,-58.54874 3.70001,-74.86914 3.70001,-133.43335 2.21845,0 5.18158,0 8.14469,0 0,58.56421 0.74466,74.88461 2.96312,133.43335 1.48155,32.64861 58.572,32.64861 57.09044,0 -2.96313,-65.23512 -3.70002,-129.73334 -3.70002,-194.99952 v 0 -124.55174 h 7.4078 v 111.98563 3.68452 c 0,8.16796 7.40003,14.83884 16.32042,14.83884 8.88936,0 16.32039,-6.67088 16.32039,-14.83884 V 151.63705 C 342.87641,107.9194 290.23065,107.9194 288.00443,107.9194 h -83.03711 l 25.20978,88.97889 h 14.83884 c 11.85247,0 20.74182,8.88932 20.74182,20.00492 0,10.40191 -8.88935,19.29129 -20.74182,19.29129 h -59.30889 v 29.62339 0" /><path
   inkscape:connector-curvature="0"
   id="path82"
   style="fill:#6a6c6c;fill-opacity:1;fill-rule:evenodd;stroke:none;stroke-width:0.77568519"
   d="m 246.49751,4.1017199 c 28.17289,0 50.4273,20.7728661 50.4273,46.7195321 0,25.931146 -22.25441,46.719475 -50.4273,46.719475 -27.42824,0 -50.41954,-20.788329 -50.41954,-46.719475 0,-25.946666 22.9913,-46.7195321 50.41954,-46.7195321 v 0" /><path
   inkscape:connector-curvature="0"
   id="path84"
   style="fill:#6a6c6c;fill-opacity:1;fill-rule:evenodd;stroke:none;stroke-width:0.77568519"
   d="m 153.05847,230.26049 h -2.21846 c -4.44468,0 -7.4078,-1.47379 -9.62625,-2.95537 -4.44468,-4.44465 -4.44468,-9.65726 -4.44468,-11.13883 v 0 -71.16912 c 0,-0.76015 2.21846,-16.34371 18.53887,-26.7146 l -2.24948,111.97792" /></svg>