<?xml version="1.0" encoding="UTF-8" standalone="no"?>
<svg
   xmlns:dc="http://purl.org/dc/elements/1.1/"
   xmlns:cc="http://creativecommons.org/ns#"
   xmlns:rdf="http://www.w3.org/1999/02/22-rdf-syntax-ns#"
   xmlns:svg="http://www.w3.org/2000/svg"
   xmlns="http://www.w3.org/2000/svg"
   xmlns:sodipodi="http://sodipodi.sourceforge.net/DTD/sodipodi-0.dtd"
   xmlns:inkscape="http://www.inkscape.org/namespaces/inkscape"
   inkscape:version="1.0 (4035a4fb49, 2020-05-01)"
   height="24"
   width="24"
   sodipodi:docname="patient.svg"
   xml:space="preserve"
   viewBox="0 0 24 24"
   y="0px"
   x="0px"
   id="Capa_1"
   version="1.1"><metadata
   id="metadata91"><rdf:RDF><cc:Work
       rdf:about=""><dc:format>image/svg+xml</dc:format><dc:type
         rdf:resource="http://purl.org/dc/dcmitype/StillImage" /><dc:title></dc:title></cc:Work></rdf:RDF></metadata><defs
   id="defs89" /><sodipodi:namedview
   inkscape:current-layer="Capa_1"
   inkscape:window-maximized="1"
   inkscape:window-y="0"
   inkscape:window-x="0"
   inkscape:cy="17.036072"
   inkscape:cx="5.8637653"
   inkscape:zoom="16.258064"
   showgrid="false"
   id="namedview87"
   inkscape:window-height="1417"
   inkscape:window-width="2560"
   inkscape:pageshadow="2"
   inkscape:pageopacity="0"
   guidetolerance="10"
   gridtolerance="10"
   objecttolerance="10"
   borderopacity="1"
   bordercolor="#666666"
   pagecolor="#ffffff" />
<polygon
   transform="scale(0.0483871)"
   id="polygon2"
   points="408,232 408,8 8,8 8,488 408,488 408,440 "
   style="fill:#ececec" />
<polygon
   transform="scale(0.0483871)"
   id="polygon4"
   points="168,456 168,432 168,384 168,344 40,344 40,456 "
   style="fill:#39c3fc" />
<path
   id="path6"
   d="M 9.6774194,18.193548 H 20.516129 v 3.096775 H 9.6774194 L 6.9429677,20.264903 C 6.7250323,20.183226 6.5806452,19.974968 6.5806452,19.741935 v 0 c 0,-0.233032 0.1443871,-0.44129 0.3623225,-0.522967 z"
   style="fill:#8c95a4;stroke-width:0.0483871" />
<rect
   id="rect8"
   height="5.4193549"
   width="6.1935482"
   style="fill:#39c3fc;stroke-width:0.0483871"
   y="11.225806"
   x="15.870968" />
<path
   id="path10"
   d="M 3.8709677,7.7419355 V 5.7096774 c 0,-2.0845161 1.6896775,-3.7741935 3.7741936,-3.7741935 v 0 c 0.8167742,0 1.6110968,0.2647742 2.2645161,0.7548387 l 0.5419356,0.4064516 v 0 c 0.641419,0 1.16129,0.519871 1.16129,1.1612903 v 3.483871 z"
   style="fill:#d3a06c;stroke-width:0.0483871" />
<path
   id="path12"
   d="m 13.033548,13.294839 c -0.159096,-0.55742 -0.616645,-0.979355 -1.18529,-1.092774 L 8.9032258,11.612903 H 6.5806452 L 3.6356129,12.202065 C 3.0669677,12.315871 2.6098065,12.737419 2.4503226,13.294839 L 1.9354839,15.096774 H 13.548387 Z"
   style="fill:#fb5968;stroke-width:0.0483871" />
<path
   id="path14"
   d="m 11.848258,12.202065 -2.9450322,-0.589162 0.680129,0.453678 c 1.0517422,0.701032 1.7818062,1.791096 2.0295482,3.030193 v 0 h 1.935484 l -0.514839,-1.801935 c -0.159096,-0.55742 -0.616645,-0.979355 -1.18529,-1.092774 z"
   style="fill:#cd2c5a;stroke-width:0.0483871" />
<g
   transform="scale(0.0483871)"
   id="g24">
	<path
   id="path16"
   d="m 136,216 v 28.8 c 0,10.6 10.744,19.2 24,19.2 13.256,0 24,-8.6 24,-19.2 V 216 Z"
   style="fill:#f9e0a6" />
	<path
   id="path18"
   d="m 208,136 h 8 c 13.256,0 24,10.744 24,24 v 0 c 0,13.256 -10.744,24 -24,24 h -8 z"
   style="fill:#f9e0a6" />
	<path
   id="path20"
   d="m 112,136 h -8 c -13.256,0 -24,10.744 -24,24 v 0 c 0,13.256 10.744,24 24,24 h 8 z"
   style="fill:#f9e0a6" />
	<path
   id="path22"
   d="m 104,136 v 40 c 0,30.928 25.072,56 56,56 v 0 c 30.928,0 56,-25.072 56,-56 v -40 h -64 c -13.256,0 -24,-10.744 -24,-24 v 0 0 c 0,13.256 -10.744,24 -24,24 z"
   style="fill:#f9e0a6" />
</g>
<path
   id="path26"
   d="M 9.2903226,6.5806452 V 8.516129 c 0,1.2971613 -0.912,2.379871 -2.1290323,2.645806 0.1873549,0.04103 0.3812903,0.06387 0.5806452,0.06387 1.4965161,0 2.7096775,-1.213161 2.7096775,-2.709677 V 6.5806452 Z"
   style="fill:#eabd8c;stroke-width:0.0483871" />
<rect
   id="rect28"
   height="3.0967741"
   width="1.5483871"
   style="fill:#fea82f;stroke-width:0.0483871"
   y="18.193548"
   x="18.967741" />
<rect
   id="rect30"
   height="1.5483871"
   width="9.2903223"
   style="fill:#fcd770;stroke-width:0.0483871"
   y="18.193548"
   x="9.6774197" />
<rect
   id="rect32"
   height="1.5483871"
   width="9.2903223"
   style="fill:#ffc729;stroke-width:0.0483871"
   y="19.741936"
   x="9.6774197" />
<path
   id="path34"
   d="m 22.064516,21.290323 h -1.548387 v -3.096775 h 1.548387 c 0.855097,0 1.548387,0.693291 1.548387,1.548387 v 0 c 0,0.855097 -0.69329,1.548388 -1.548387,1.548388 z"
   style="fill:#ececec;stroke-width:0.0483871" />
<polygon
   transform="scale(0.0483871)"
   id="polygon36"
   points="408,480 408,440 200,440 "
   style="fill:#b6c1ce" />
<path
   style="stroke-width:0.0483871"
   id="path38"
   d="M 22.064516,17.806452 H 20.129032 V 17.032258 H 22.83871 V 10.877806 L 23.915226,9.531871 23.310581,9.0483871 21.878323,10.83871 H 20.129032 V 0 H 0 v 24 h 20.129032 v -2.322581 h 1.935484 C 23.131742,21.677419 24,20.809161 24,19.741935 24,18.67471 23.131742,17.806452 22.064516,17.806452 Z m -14.3225805,0.699483 -0.9352258,0.35071 c -0.3665807,0.137807 -0.6131613,0.493549 -0.6131613,0.88529 0,0.391742 0.2465806,0.747484 0.6135484,0.885678 l 0.9348387,0.350322 v 0.699484 H 2.3225806 v -4.645161 h 5.4193549 z m -0.6623226,1.397033 c -0.066968,-0.02516 -0.111871,-0.08981 -0.111871,-0.161033 0,-0.07123 0.044903,-0.13587 0.1114839,-0.160645 l 2.2110968,-0.829161 v 1.979613 z m 2.9849031,0.226064 h 6.967742 v -0.774193 h -6.967742 v -0.774194 h 8.516129 v 0.774194 h -0.774193 v 0.774193 h 0.774193 v 0.774194 h -8.516129 z m 9.290323,-1.548387 h 0.774193 v 2.322581 h -0.774193 z m -0.354968,-2.904387 3.064645,-3.83071 v 4.412517 h -5.419355 v -4.645162 h 4.613807 l -2.323355,2.904387 -0.855484,-0.855484 -0.547355,0.547355 z m 0.354968,7.549548 H 0.77419355 V 0.77419355 H 19.354839 V 10.83871 h -3.483871 v 6.193548 h 3.483871 v 0.774194 H 9.6073548 L 8.516129,18.215613 V 16.258065 H 1.5483871 v 6.193548 H 8.516129 v -1.183355 l 1.0912258,0.409161 h 9.7474842 z m 2.709677,-2.32258 h -1.16129 v -2.322581 h 1.16129 c 0.640258,0 1.16129,0.521032 1.16129,1.16129 0,0.640259 -0.521032,1.161291 -1.16129,1.161291 z" />
<path
   style="stroke-width:0.0483871"
   id="path40"
   d="M 13.535613,13.642452 C 13.255355,12.662323 12.461032,11.929548 11.461548,11.729806 L 9.2903226,11.295484 V 11.193677 C 10.006452,10.777935 10.539871,10.084258 10.744258,9.2605161 11.458452,9.1230968 12,8.4956129 12,7.7419355 V 4.2580645 C 12,3.4505806 11.37871,2.7851613 10.588645,2.715871 L 10.141935,2.3806452 C 9.4265806,1.844129 8.5397419,1.5483871 7.6451613,1.5483871 c -2.2947097,0 -4.1612903,1.8665806 -4.1612903,4.1612903 v 2.0322581 c 0,0.7536774 0.5415484,1.3811613 1.2557419,1.5189677 C 4.944,10.084645 5.4774194,10.778323 6.1935484,11.194065 v 0.101806 L 4.0227097,11.730194 C 3.0232258,11.929935 2.2285161,12.66271 1.9486452,13.642839 L 1.4221935,15.483871 H 14.061677 Z M 6.9677419,11.511097 c 0.2481291,0.06426 0.5063226,0.101806 0.7741936,0.101806 0.267871,0 0.5260645,-0.03755 0.7741935,-0.101806 v 0.101806 c 0,0.426968 -0.3472258,0.774194 -0.7741935,0.774194 -0.4269678,0 -0.7741936,-0.347226 -0.7741936,-0.774194 z M 10.83871,8.4085161 V 7.0753548 c 0.230322,0.1343226 0.387096,0.3812904 0.387096,0.6665807 0,0.2852903 -0.156774,0.532258 -0.387096,0.6665806 z M 7.6451613,2.3225806 c 0.728129,0 1.4500645,0.2407742 2.0322581,0.6774194 L 10.32271,3.483871 h 0.128903 c 0.426968,0 0.774193,0.3472258 0.774193,0.7741935 V 6.4087742 C 10.997032,6.2756129 10.734968,6.1935484 10.451613,6.1935484 H 7.3548387 c -0.4269677,0 -0.7741935,-0.3472258 -0.7741935,-0.7741936 H 5.8064516 c 0,0.4269678 -0.3472258,0.7741936 -0.7741935,0.7741936 -0.2833549,0 -0.5454194,0.082064 -0.7741936,0.2152258 V 5.7096774 c 0,-1.8677419 1.5193549,-3.3870968 3.3870968,-3.3870968 z M 4.2580645,7.7419355 c 0,-0.2852903 0.1567742,-0.5322581 0.3870968,-0.6665807 V 8.4085161 C 4.4148387,8.2741935 4.2580645,8.0272258 4.2580645,7.7419355 Z M 5.4193548,8.516129 V 6.9139355 C 5.7228387,6.8349677 5.9922581,6.6708387 6.1935484,6.4424516 6.4772903,6.7645161 6.8930323,6.9677419 7.3548387,6.9677419 H 10.064516 V 8.516129 c 0,1.2809033 -1.0416773,2.322581 -2.3225805,2.322581 -1.2809032,0 -2.3225807,-1.0416777 -2.3225807,-2.322581 z m 5.7216772,6.193548 -0.313935,-1.254967 -0.750968,0.187355 0.26671,1.067612 H 5.1410323 L 5.4077419,13.642065 4.6567742,13.45471 4.3428387,14.709677 H 2.4487742 l 0.2442581,-0.854709 c 0.200129,-0.700258 0.7676129,-1.223226 1.4814193,-1.366065 l 2.0957419,-0.419226 c 0.1962581,0.630194 0.7780646,1.091613 1.471742,1.091613 0.6936774,0 1.2754839,-0.461419 1.4717419,-1.091613 l 2.0957416,0.419226 c 0.713807,0.142839 1.281291,0.666581 1.48142,1.366065 l 0.244258,0.854709 z" />
<rect
   style="stroke-width:0.0483871"
   id="rect42"
   height="0.77419353"
   width="5.8064518"
   y="1.5483871"
   x="12.774194" />
<rect
   style="stroke-width:0.0483871"
   id="rect44"
   height="0.77419353"
   width="5.8064518"
   y="3.0967741"
   x="12.774194" />
<rect
   style="stroke-width:0.0483871"
   id="rect46"
   height="0.77419353"
   width="5.8064518"
   y="4.6451612"
   x="12.774194" />
<rect
   style="stroke-width:0.0483871"
   id="rect48"
   height="0.77419353"
   width="5.8064518"
   y="6.1935482"
   x="12.774194" />
<rect
   style="stroke-width:0.0483871"
   id="rect50"
   height="0.77419353"
   width="0.77419353"
   y="7.7419353"
   x="17.806452" />
<rect
   style="stroke-width:0.0483871"
   id="rect52"
   height="0.77419353"
   width="4.2580647"
   y="7.7419353"
   x="12.774194" />
<rect
   style="stroke-width:0.0483871"
   id="rect54"
   height="0.77419353"
   width="5.8064518"
   y="9.2903223"
   x="12.774194" />
<g
   id="g56">
</g>
<g
   id="g58">
</g>
<g
   id="g60">
</g>
<g
   id="g62">
</g>
<g
   id="g64">
</g>
<g
   id="g66">
</g>
<g
   id="g68">
</g>
<g
   id="g70">
</g>
<g
   id="g72">
</g>
<g
   id="g74">
</g>
<g
   id="g76">
</g>
<g
   id="g78">
</g>
<g
   id="g80">
</g>
<g
   id="g82">
</g>
<g
   id="g84">
</g>
</svg>
