<?xml version="1.0" encoding="UTF-8" standalone="no"?>
<svg
   xmlns:dc="http://purl.org/dc/elements/1.1/"
   xmlns:cc="http://creativecommons.org/ns#"
   xmlns:rdf="http://www.w3.org/1999/02/22-rdf-syntax-ns#"
   xmlns:svg="http://www.w3.org/2000/svg"
   xmlns="http://www.w3.org/2000/svg"
   xmlns:sodipodi="http://sodipodi.sourceforge.net/DTD/sodipodi-0.dtd"
   xmlns:inkscape="http://www.inkscape.org/namespaces/inkscape"
   inkscape:version="1.0 (4035a4fb49, 2020-05-01)"
   height="24"
   width="24"
   sodipodi:docname="photo.svg"
   xml:space="preserve"
   viewBox="0 0 24 24"
   y="0px"
   x="0px"
   id="Capa_1"
   version="1.1"><metadata
   id="metadata109"><rdf:RDF><cc:Work
       rdf:about=""><dc:format>image/svg+xml</dc:format><dc:type
         rdf:resource="http://purl.org/dc/dcmitype/StillImage" /><dc:title></dc:title></cc:Work></rdf:RDF></metadata><defs
   id="defs107" /><sodipodi:namedview
   inkscape:current-layer="Capa_1"
   inkscape:window-maximized="1"
   inkscape:window-y="0"
   inkscape:window-x="0"
   inkscape:cy="47.842646"
   inkscape:cx="65.073707"
   inkscape:zoom="11.496188"
   showgrid="false"
   id="namedview105"
   inkscape:window-height="1417"
   inkscape:window-width="2560"
   inkscape:pageshadow="2"
   inkscape:pageopacity="0"
   guidetolerance="10"
   gridtolerance="10"
   objecttolerance="10"
   borderopacity="1"
   bordercolor="#666666"
   pagecolor="#ffffff" />
<polygon
   transform="matrix(0.0483871,0,0,0.0483871,0,0.0645161)"
   id="polygon2"
   points="64,120 128,120 128,144 64,160 "
   style="fill:#afb8c9" />
<path
   id="path4"
   d="M 17.806452,6.6451613 V 3.9354839 c 0,-0.8550968 -0.693291,-1.5483871 -1.548387,-1.5483871 H 9.2903226 c -0.8550968,0 -1.5483871,0.6932903 -1.5483871,1.5483871 V 6.6451613 L 3.1803871,7.5575484 c -0.723871,0.1447742 -1.2449032,0.78 -1.2449032,1.5181935 V 20.580645 c 0,0.64142 0.5198709,1.16129 1.1612903,1.16129 H 22.451613 c 0.641419,0 1.16129,-0.51987 1.16129,-1.16129 V 9.0757419 c 0,-0.7381935 -0.521032,-1.3734193 -1.244903,-1.5181935 z"
   style="fill:#8c95a4;stroke-width:0.0483871" />
<path
   id="path6"
   d="M 16.258065,7.8064516 H 9.2903226 v -3.483871 c 0,-0.2136774 0.1734193,-0.3870967 0.3870968,-0.3870967 h 6.1935486 c 0.213677,0 0.387097,0.1734193 0.387097,0.3870967 z"
   style="fill:#ececec;stroke-width:0.0483871" />
<rect
   id="rect8"
   height="1.1612903"
   width="6.967742"
   style="fill:#b6c1ce;stroke-width:0.0483871"
   y="6.6451612"
   x="9.2903223" />
<g
   transform="matrix(0.0483871,0,0,0.0483871,0,0.0645161)"
   id="g14">
	<rect
   id="rect10"
   height="48"
   width="80"
   style="fill:#39c3fc"
   y="112"
   x="224" />
	<rect
   id="rect12"
   height="176"
   width="224"
   style="fill:#39c3fc"
   y="224"
   x="136" />
</g>
<circle
   id="circle16"
   r="1.5483871"
   cy="14.387096"
   cx="20.516129"
   style="fill:#48c397;stroke-width:0.0483871" />
<g
   transform="matrix(0.0483871,0,0,0.0483871,0,0.0645161)"
   id="g30">
	<circle
   id="circle18"
   r="16"
   cy="248"
   cx="88"
   style="fill:#ececec" />
	<circle
   id="circle20"
   r="16"
   cy="312"
   cx="88"
   style="fill:#ececec" />
	<rect
   id="rect22"
   height="32"
   width="32"
   style="fill:#ececec"
   y="368"
   x="392" />
	<rect
   id="rect24"
   height="32"
   width="32"
   style="fill:#ececec"
   y="368"
   x="424" />
	<circle
   id="circle26"
   r="16"
   cy="376"
   cx="88"
   style="fill:#ececec" />
	<circle
   id="circle28"
   r="16"
   cy="216"
   cx="408"
   style="fill:#ececec" />
</g>
<path
   id="path32"
   d="m 1.1612903,13.225806 c -0.42774191,0 -0.77419353,0.346452 -0.77419353,0.774194 v 4.645161 c 0,0.427742 0.34645162,0.774194 0.77419353,0.774194 h 0.7741936 v -6.193549 z"
   style="fill:#798699;stroke-width:0.0483871" />
<g
   transform="matrix(0.0483871,0,0,0.0483871,0,0.0645161)"
   id="g38">
	<polygon
   id="polygon34"
   points="304,112 304,160 272,160 280,112 "
   style="fill:#148ce0" />
	<polygon
   id="polygon36"
   points="360,224 360,400 280,400 296,224 "
   style="fill:#148ce0" />
</g>
<rect
   id="rect40"
   height="1.1612903"
   width="11.612904"
   style="fill:#798699;stroke-width:0.0483871"
   y="19.419355"
   x="6.1935482" />
<path
   style="stroke-width:0.0483871"
   id="path42"
   d="M 22.443871,7.1778065 21.290323,6.9470968 V 6.2580645 H 20.516129 V 6.7922581 L 19.741935,6.6374194 V 5.8709677 H 18.967742 V 6.4825806 L 18.193548,6.3277419 V 3.9354839 C 18.193548,2.8682581 17.32529,2 16.258065,2 H 9.2903226 C 8.2230968,2 7.3548387,2.8682581 7.3548387,3.9354839 v 2.392258 L 6.5806452,6.4825806 V 5.483871 H 2.7096774 v 1.824 C 2.0194839,7.6113548 1.5483871,8.2980645 1.5483871,9.0757419 V 12.83871 H 1.1612903 C 0.52103226,12.83871 0,13.359742 0,14 v 4.645161 c 0,0.640258 0.52103226,1.161291 1.1612903,1.161291 h 0.3870968 v 0.774193 c 0,0.853936 0.6944516,1.548387 1.5483871,1.548387 H 22.451613 C 23.305548,22.129032 24,21.434581 24,20.580645 V 9.0757419 C 24,8.1563871 23.345806,7.3581935 22.443871,7.1778065 Z M 1.1612903,19.032258 c -0.2136774,0 -0.38709675,-0.173806 -0.38709675,-0.387097 V 14 c 0,-0.21329 0.17341935,-0.387097 0.38709675,-0.387097 h 0.3870968 v 5.419355 z M 5.8064516,6.2580645 V 6.6374194 L 3.483871,7.1019355 V 6.2580645 Z M 23.225806,20.580645 c 0,0.426968 -0.347225,0.774194 -0.774193,0.774194 H 3.0967742 c -0.4269677,0 -0.7741936,-0.347226 -0.7741936,-0.774194 V 9.0757419 c 0,-0.5516129 0.3929033,-1.0304516 0.9336775,-1.1388387 L 8.1290323,6.9625806 V 3.9354839 c 0,-0.6402581 0.5210322,-1.1612904 1.1612903,-1.1612904 h 6.9677424 c 0.640258,0 1.16129,0.5210323 1.16129,1.1612904 v 3.0270967 l 4.872774,0.9747097 c 0.540774,0.108 0.933677,0.5868387 0.933677,1.1384516 z" />
<path
   style="stroke-width:0.0483871"
   id="path44"
   d="m 16.645161,4.3225806 c 0,-0.4269677 -0.347226,-0.7741935 -0.774193,-0.7741935 H 9.6774194 c -0.4269678,0 -0.7741936,0.3472258 -0.7741936,0.7741935 v 3.8709678 h 7.7419352 z m -2.32258,3.0967742 H 11.225806 V 5.8709677 h 3.096775 z m 1.548387,0 H 15.096774 V 5.0967742 H 10.451613 V 7.4193548 H 9.6774194 V 4.3225806 h 6.1935486 z" />
<path
   style="stroke-width:0.0483871"
   id="path46"
   d="M 6.1935484,19.806452 H 17.806452 V 10.516129 H 6.1935484 Z M 6.9677419,11.290323 H 17.032258 v 7.741935 H 6.9677419 Z" />
<path
   style="stroke-width:0.0483871"
   id="path48"
   d="m 20.516129,12.451613 c -1.067226,0 -1.935484,0.868258 -1.935484,1.935484 0,1.067226 0.868258,1.935484 1.935484,1.935484 1.067226,0 1.935484,-0.868258 1.935484,-1.935484 0,-1.067226 -0.868258,-1.935484 -1.935484,-1.935484 z m 0,3.096774 c -0.640258,0 -1.16129,-0.521032 -1.16129,-1.16129 0,-0.640258 0.521032,-1.161291 1.16129,-1.161291 0.640258,0 1.16129,0.521033 1.16129,1.161291 0,0.640258 -0.521032,1.16129 -1.16129,1.16129 z" />
<rect
   style="stroke-width:0.0483866"
   id="rect50"
   height="5.4734478"
   width="0.77418613"
   transform="rotate(135)"
   y="-21.94133"
   x="1.8475082" />
<rect
   style="stroke-width:0.0483866"
   id="rect52"
   height="2.1897855"
   width="0.77418613"
   transform="rotate(135)"
   y="-20.300219"
   x="0.20610681" />
<rect
   style="stroke-width:0.0483866"
   id="rect54"
   height="2.1897855"
   width="0.77418613"
   transform="rotate(135)"
   y="-20.299999"
   x="3.4905376" />
<path
   style="stroke-width:0.0483871"
   id="path56"
   d="m 4.2580645,10.903226 c -0.640258,0 -1.1612903,0.521032 -1.1612903,1.16129 0,0.640258 0.5210323,1.16129 1.1612903,1.16129 0.6402581,0 1.1612903,-0.521032 1.1612903,-1.16129 0,-0.640258 -0.5210322,-1.16129 -1.1612903,-1.16129 z m 0,1.548387 c -0.2136774,0 -0.3870968,-0.173807 -0.3870968,-0.387097 0,-0.21329 0.1734194,-0.387097 0.3870968,-0.387097 0.2136774,0 0.3870968,0.173807 0.3870968,0.387097 0,0.21329 -0.1734194,0.387097 -0.3870968,0.387097 z" />
<path
   style="stroke-width:0.0483871"
   id="path58"
   d="m 4.2580645,14 c -0.640258,0 -1.1612903,0.521032 -1.1612903,1.16129 0,0.640258 0.5210323,1.161291 1.1612903,1.161291 0.6402581,0 1.1612903,-0.521033 1.1612903,-1.161291 C 5.4193548,14.521032 4.8983226,14 4.2580645,14 Z m 0,1.548387 c -0.2136774,0 -0.3870968,-0.173806 -0.3870968,-0.387097 0,-0.21329 0.1734194,-0.387096 0.3870968,-0.387096 0.2136774,0 0.3870968,0.173806 0.3870968,0.387096 0,0.213291 -0.1734194,0.387097 -0.3870968,0.387097 z" />
<path
   style="stroke-width:0.0483871"
   id="path60"
   d="m 4.2580645,17.096774 c -0.640258,0 -1.1612903,0.521032 -1.1612903,1.161291 0,0.640258 0.5210323,1.16129 1.1612903,1.16129 0.6402581,0 1.1612903,-0.521032 1.1612903,-1.16129 0,-0.640259 -0.5210322,-1.161291 -1.1612903,-1.161291 z m 0,1.548387 c -0.2136774,0 -0.3870968,-0.173806 -0.3870968,-0.387096 0,-0.213291 0.1734194,-0.387097 0.3870968,-0.387097 0.2136774,0 0.3870968,0.173806 0.3870968,0.387097 0,0.21329 -0.1734194,0.387096 -0.3870968,0.387096 z" />
<path
   style="stroke-width:0.0483871"
   id="path62"
   d="m 19.741935,11.677419 c 0.640259,0 1.161291,-0.521032 1.161291,-1.16129 0,-0.640258 -0.521032,-1.1612903 -1.161291,-1.1612903 -0.640258,0 -1.16129,0.5210323 -1.16129,1.1612903 0,0.640258 0.521032,1.16129 1.16129,1.16129 z m 0,-1.548387 c 0.213678,0 0.387097,0.173807 0.387097,0.387097 0,0.21329 -0.173419,0.387097 -0.387097,0.387097 -0.213677,0 -0.387096,-0.173807 -0.387096,-0.387097 0,-0.21329 0.173419,-0.387097 0.387096,-0.387097 z" />
<path
   style="stroke-width:0.0483871"
   id="path64"
   d="m 18.580645,19.806452 h 3.870968 v -2.322581 h -3.870968 z m 3.096774,-0.774194 h -0.774193 v -0.774193 h 0.774193 z m -2.32258,-0.774193 h 0.774193 v 0.774193 h -0.774193 z" />
<rect
   style="stroke-width:0.0483871"
   id="rect66"
   height="0.77419353"
   width="0.77419353"
   y="14"
   x="20.129032" />
<rect
   style="stroke-width:0.0483871"
   id="rect68"
   height="0.77419353"
   width="0.77419353"
   y="8.5806446"
   x="17.419355" />
<rect
   style="stroke-width:0.0483871"
   id="rect70"
   height="0.77419353"
   width="0.77419353"
   y="8.5806446"
   x="5.8064518" />
<rect
   style="stroke-width:0.0483871"
   id="rect72"
   height="0.77419353"
   width="0.77419353"
   y="8.5806446"
   x="4.2580647" />
<g
   id="g74">
</g>
<g
   id="g76">
</g>
<g
   id="g78">
</g>
<g
   id="g80">
</g>
<g
   id="g82">
</g>
<g
   id="g84">
</g>
<g
   id="g86">
</g>
<g
   id="g88">
</g>
<g
   id="g90">
</g>
<g
   id="g92">
</g>
<g
   id="g94">
</g>
<g
   id="g96">
</g>
<g
   id="g98">
</g>
<g
   id="g100">
</g>
<g
   id="g102">
</g>
</svg>
