<?xml version="1.0" encoding="UTF-8" standalone="no"?>
<!-- Created with Inkscape (http://www.inkscape.org/) -->

<svg
   xmlns:dc="http://purl.org/dc/elements/1.1/"
   xmlns:cc="http://creativecommons.org/ns#"
   xmlns:rdf="http://www.w3.org/1999/02/22-rdf-syntax-ns#"
   xmlns:svg="http://www.w3.org/2000/svg"
   xmlns="http://www.w3.org/2000/svg"
   xmlns:sodipodi="http://sodipodi.sourceforge.net/DTD/sodipodi-0.dtd"
   xmlns:inkscape="http://www.inkscape.org/namespaces/inkscape"
   width="100mm"
   height="100mm"
   viewBox="0 0 100 100"
   version="1.1"
   id="svg5783"
   inkscape:version="0.92.2 2405546, 2018-03-11"
   sodipodi:docname="photo.svg">
  <defs
     id="defs5777" />
  <sodipodi:namedview
     id="base"
     pagecolor="#ffffff"
     bordercolor="#666666"
     borderopacity="1.0"
     inkscape:pageopacity="0.0"
     inkscape:pageshadow="2"
     inkscape:zoom="0.9899495"
     inkscape:cx="-83.657259"
     inkscape:cy="211.93031"
     inkscape:document-units="mm"
     inkscape:current-layer="layer1"
     showgrid="false"
     inkscape:window-width="2560"
     inkscape:window-height="1347"
     inkscape:window-x="0"
     inkscape:window-y="0"
     inkscape:window-maximized="1" />
  <metadata
     id="metadata5780">
    <rdf:RDF>
      <cc:Work
         rdf:about="">
        <dc:format>image/svg+xml</dc:format>
        <dc:type
           rdf:resource="http://purl.org/dc/dcmitype/StillImage" />
        <dc:title />
      </cc:Work>
    </rdf:RDF>
  </metadata>
  <g
     inkscape:label="Capa 1"
     inkscape:groupmode="layer"
     id="layer1"
     transform="translate(0,-197)">
    <g
       id="g835"
       transform="matrix(3.7819035,0,0,3.7819035,137.00172,-1131.9181)">
      <path
         style="fill:none;stroke-width:0.26458332"
         inkscape:connector-curvature="0"
         d="m -14.614645,359.32497 h -12.388056 c -0.671513,0 -1.220788,0.54981 -1.220788,1.22132 v 2.29129 0.52017 2.76569 0.39 2.42173 c 0,0.67098 0.549275,1.22079 1.220788,1.22079 h 12.388056 c 0.671248,0 1.220523,-0.54981 1.220523,-1.22079 v -2.42173 -0.39 -2.76595 -0.52017 -2.29129 c 0,-0.67125 -0.549275,-1.22106 -1.220523,-1.22106 z"
         id="path2" />
      <path
         style="fill:#2780e3;fill-opacity:1;stroke-width:0.26458332"
         inkscape:connector-curvature="0"
         d="m -13.350995,357.81209 h -14.915092 c -0.808566,0 -1.470289,0.66172 -1.470289,1.47002 v 2.75881 0.62654 8.1444 0.46963 2.91571 c 0,0.80936 0.661723,1.47056 1.470289,1.47056 h 14.915092 c 0.808831,2.6e-4 1.470289,-0.66093 1.470289,-1.47029 v -2.91571 -0.46964 -8.1444 -0.62653 -2.75908 c 0,-0.8083 -0.661458,-1.47002 -1.470289,-1.47002 z m -0.04313,5.02523 v 0.52017 2.76569 0.38999 2.42174 c 0,0.67098 -0.549275,1.22078 -1.220523,1.22078 h -12.388056 c -0.671513,0 -1.220788,-0.5498 -1.220788,-1.22078 v -2.42174 -0.38999 -2.76569 -0.52017 -2.29129 c 0,-0.67152 0.549275,-1.22132 1.220788,-1.22132 h 12.388056 c 0.671248,0 1.220523,0.5498 1.220523,1.22132 z"
         id="path4" />
      <path
         style="fill:#2780e3;fill-opacity:1;stroke-width:0.26458332"
         inkscape:connector-curvature="0"
         d="m -30.341743,370.77773 v -0.4699 -1.80816 l -0.330994,0.072 c -0.655902,0.14314 -1.309687,-0.27675 -1.453091,-0.93239 l -0.515409,-2.36643 -0.08308,-0.38127 -0.589227,-2.70166 -0.110596,-0.50879 -0.487891,-2.23838 c -0.142875,-0.65563 0.276754,-1.31021 0.93292,-1.45309 l 12.103629,-2.63842 c 0.655903,-0.14261 1.309423,0.27728 1.452828,0.93318 l 0.223043,1.02315 h 1.549136 l -0.56224,-2.57996 c -0.172508,-0.79057 -0.959644,-1.29566 -1.749954,-1.12315 l -14.57325,3.17553 c -0.790046,0.17251 -1.295929,0.95991 -1.123685,1.74969 l 0.587639,2.69557 0.133615,0.61278 1.734344,7.9576 0.09975,0.45906 0.621241,2.84877 c 0.171979,0.79031 0.959115,1.2954 1.749425,1.12315 l 0.457994,-0.0995 c -0.04286,-0.13732 -0.06562,-0.28231 -0.06562,-0.43339 v -2.91597 z"
         id="path6" />
    </g>
  </g>
</svg>
