<?xml version="1.0" encoding="iso-8859-1"?>
<!-- Generator: Adobe Illustrator 19.0.0, SVG Export Plug-In . SVG Version: 6.00 Build 0)  -->
<svg version="1.1" id="Capa_1" xmlns="http://www.w3.org/2000/svg" xmlns:xlink="http://www.w3.org/1999/xlink" x="0px" y="0px"
	 viewBox="0 0 496 496" style="enable-background:new 0 0 496 496;" xml:space="preserve">
<polygon style="fill:#AFB8C9;" points="64,160 64,120 128,120 128,144 "/>
<path style="fill:#8C95A4;" d="M368,136V80c0-17.672-14.328-32-32-32H192c-17.672,0-32,14.328-32,32v56l-94.272,18.856
	C50.768,157.848,40,170.976,40,186.232V424c0,13.256,10.744,24,24,24h400c13.256,0,24-10.744,24-24V186.232
	c0-15.256-10.768-28.384-25.728-31.376L368,136z"/>
<path style="fill:#ECECEC;" d="M336,160H192V88c0-4.416,3.584-8,8-8h128c4.416,0,8,3.584,8,8V160z"/>
<rect x="192" y="136" style="fill:#B6C1CE;" width="144" height="24"/>
<g>
	<rect x="224" y="112" style="fill:#39C3FC;" width="80" height="48"/>
	<rect x="136" y="224" style="fill:#39C3FC;" width="224" height="176"/>
</g>
<circle style="fill:#48C397;" cx="424" cy="296" r="32"/>
<g>
	<circle style="fill:#ECECEC;" cx="88" cy="248" r="16"/>
	<circle style="fill:#ECECEC;" cx="88" cy="312" r="16"/>
	<rect x="392" y="368" style="fill:#ECECEC;" width="32" height="32"/>
	<rect x="424" y="368" style="fill:#ECECEC;" width="32" height="32"/>
	<circle style="fill:#ECECEC;" cx="88" cy="376" r="16"/>
	<circle style="fill:#ECECEC;" cx="408" cy="216" r="16"/>
</g>
<path style="fill:#798699;" d="M24,272c-8.84,0-16,7.16-16,16v96c0,8.84,7.16,16,16,16h16V272H24z"/>
<g>
	<polygon style="fill:#148CE0;" points="280,112 304,112 304,160 272,160 	"/>
	<polygon style="fill:#148CE0;" points="296,224 360,224 360,400 280,400 	"/>
</g>
<rect x="128" y="400" style="fill:#798699;" width="240" height="24"/>
<path d="M463.84,147.008L440,142.24V128h-16v11.04l-16-3.2V120h-16v12.64l-16-3.2V80c0-22.056-17.944-40-40-40H192
	c-22.056,0-40,17.944-40,40v49.44l-16,3.2V112H56v37.696c-14.264,6.272-24,20.464-24,36.536V264h-8c-13.232,0-24,10.768-24,24v96
	c0,13.232,10.768,24,24,24h8v16c0,17.648,14.352,32,32,32h400c17.648,0,32-14.352,32-32V186.232
	C496,167.232,482.48,150.736,463.84,147.008z M24,392c-4.416,0-8-3.592-8-8v-96c0-4.408,3.584-8,8-8h8v112H24z M120,128v7.84
	l-48,9.6V128H120z M480,424c0,8.824-7.176,16-16,16H64c-8.824,0-16-7.176-16-16V186.232c0-11.4,8.12-21.296,19.296-23.536
	L168,142.56V80c0-13.232,10.768-24,24-24h144c13.232,0,24,10.768,24,24v62.56l100.704,20.144
	C471.88,164.936,480,174.832,480,186.232V424z"/>
<path d="M344,88c0-8.824-7.176-16-16-16H200c-8.824,0-16,7.176-16,16v80h160V88z M296,152h-64v-32h64V152z M328,152h-16v-48h-96v48
	h-16V88h128V152z"/>
<path d="M128,408h240V216H128V408z M144,232h208v160H144V232z"/>
<path d="M424,256c-22.056,0-40,17.944-40,40s17.944,40,40,40s40-17.944,40-40S446.056,256,424,256z M424,320
	c-13.232,0-24-10.768-24-24s10.768-24,24-24s24,10.768,24,24S437.232,320,424,320z"/>
<rect x="239.988" y="255.409" transform="matrix(-0.7071 0.7071 -0.7071 -0.7071 643.9371 357.21)" width="16" height="113.119"/>
<rect x="263.985" y="265.365" transform="matrix(-0.7071 0.7071 -0.7071 -0.7071 667.9495 299.3125)" width="16" height="45.256"/>
<rect x="215.985" y="313.359" transform="matrix(-0.7071 0.7071 -0.7071 -0.7071 619.9449 415.1838)" width="16" height="45.256"/>
<path d="M88,224c-13.232,0-24,10.768-24,24s10.768,24,24,24s24-10.768,24-24S101.232,224,88,224z M88,256c-4.416,0-8-3.592-8-8
	s3.584-8,8-8s8,3.592,8,8C96,252.408,92.416,256,88,256z"/>
<path d="M88,288c-13.232,0-24,10.768-24,24s10.768,24,24,24s24-10.768,24-24S101.232,288,88,288z M88,320c-4.416,0-8-3.592-8-8
	s3.584-8,8-8s8,3.592,8,8S92.416,320,88,320z"/>
<path d="M88,352c-13.232,0-24,10.768-24,24s10.768,24,24,24s24-10.768,24-24S101.232,352,88,352z M88,384c-4.416,0-8-3.592-8-8
	s3.584-8,8-8s8,3.592,8,8S92.416,384,88,384z"/>
<path d="M408,240c13.232,0,24-10.768,24-24s-10.768-24-24-24s-24,10.768-24,24S394.768,240,408,240z M408,208c4.416,0,8,3.592,8,8
	s-3.584,8-8,8s-8-3.592-8-8S403.584,208,408,208z"/>
<path d="M384,408h80v-48h-80V408z M448,392h-16v-16h16V392z M400,376h16v16h-16V376z"/>
<rect x="416" y="288" width="16" height="16"/>
<rect x="360" y="176" width="16" height="16"/>
<rect x="120" y="176" width="16" height="16"/>
<rect x="88" y="176" width="16" height="16"/>
<g>
</g>
<g>
</g>
<g>
</g>
<g>
</g>
<g>
</g>
<g>
</g>
<g>
</g>
<g>
</g>
<g>
</g>
<g>
</g>
<g>
</g>
<g>
</g>
<g>
</g>
<g>
</g>
<g>
</g>
</svg>
