<?xml version="1.0" encoding="iso-8859-1"?>
<!-- Generator: Adobe Illustrator 19.0.0, SVG Export Plug-In . SVG Version: 6.00 Build 0)  -->
<svg version="1.1" id="Capa_1" xmlns="http://www.w3.org/2000/svg" xmlns:xlink="http://www.w3.org/1999/xlink" x="0px" y="0px"
	 viewBox="0 0 512.064 512.064" style="enable-background:new 0 0 512.064 512.064;" xml:space="preserve">
<path style="fill:#F2F2F2;" d="M405.365,170.731v288H106.699v-288v-32h32h234.667h32V170.731z"/>
<path style="fill:#D9EEF7;" d="M373.365,96.064v42.667H138.699V96.064h32h128h42.667H373.365z"/>
<path style="fill:#F2F2F2;" d="M341.365,74.731v21.333H170.699V53.397h42.667c0-23.564,19.103-42.667,42.667-42.667
	s42.667,19.103,42.667,42.667h42.667V74.731z"/>
<path style="fill:#AAC4DA;" d="M341.365,74.731h96c5.891,0,10.667,4.776,10.667,10.667v405.333c0,5.891-4.776,10.667-10.667,10.667
	H74.699c-5.891,0-10.667-4.776-10.667-10.667V85.397c0-5.891,4.776-10.667,10.667-10.667h96v21.333h-32v42.667h-32v320h298.667v-320
	h-32V96.064h-32V74.731z"/>
<path style="fill:#69F0F7;" d="M330.699,245.397v21.333c0,5.891-4.776,10.667-10.667,10.667h-42.667v42.667
	c0,5.891-4.776,10.667-10.667,10.667h-21.333c-5.891,0-10.667-4.776-10.667-10.667v-42.667h-42.667
	c-5.891,0-10.667-4.776-10.667-10.667v-21.333c0-5.891,4.776-10.667,10.667-10.667h42.667v-42.667
	c0-5.891,4.776-10.667,10.667-10.667h21.333c5.891,0,10.667,4.776,10.667,10.667v42.667h42.667
	C325.923,234.731,330.699,239.506,330.699,245.397z"/>
<g>
	<path style="fill:#4C5B66;" d="M138.699,149.397h234.667c5.891,0,10.667-4.776,10.667-10.667V96.064
		c0-5.891-4.776-10.667-10.667-10.667h-21.333v-32c0-5.891-4.776-10.667-10.667-10.667h-33.067
		c-5.861-28.866-34.014-47.515-62.88-41.654c-20.988,4.262-37.392,20.665-41.654,41.654h-33.067
		c-5.891,0-10.667,4.776-10.667,10.667v32h-21.333c-5.891,0-10.667,4.776-10.667,10.667v42.667
		C128.032,144.622,132.808,149.397,138.699,149.397L138.699,149.397z M149.365,106.731h149.333V85.397H181.365V64.064h32
		c5.891,0,10.667-4.776,10.667-10.667c0-17.673,14.327-32,32-32s32,14.327,32,32c0,5.891,4.776,10.667,10.667,10.667h32v32
		c0,5.891,4.776,10.667,10.667,10.667h21.333v21.333H149.365V106.731z"/>
	<path style="fill:#4C5B66;" d="M245.365,42.731h21.333v21.333h-21.333V42.731z"/>
	<path style="fill:#4C5B66;" d="M437.365,64.064h-42.667v21.333h42.667v405.333H74.699V85.397h42.667V64.064H74.699
		c-11.782,0-21.333,9.551-21.333,21.333v405.333c0,11.782,9.551,21.333,21.333,21.333h362.667c11.782,0,21.333-9.551,21.333-21.333
		V85.397C458.699,73.615,449.147,64.064,437.365,64.064z"/>
	<path style="fill:#4C5B66;" d="M117.365,170.731H96.032v288c0,5.891,4.776,10.667,10.667,10.667h298.667
		c5.891,0,10.667-4.776,10.667-10.667v-288h-21.333v277.333H117.365V170.731z"/>
	<path style="fill:#4C5B66;" d="M266.699,170.731h-21.333c-11.782,0-21.333,9.551-21.333,21.333v32h-32
		c-11.782,0-21.333,9.551-21.333,21.333v21.333c0,11.782,9.551,21.333,21.333,21.333h32v32c0,11.782,9.551,21.333,21.333,21.333
		h21.333c11.782,0,21.333-9.551,21.333-21.333v-32h32c11.782,0,21.333-9.551,21.333-21.333v-21.333
		c0-11.782-9.551-21.333-21.333-21.333h-32v-32C288.032,180.282,278.481,170.731,266.699,170.731z M320.032,245.397v21.333h-42.667
		c-5.891,0-10.667,4.776-10.667,10.667v42.667h-21.333v-42.667c0-5.891-4.776-10.667-10.667-10.667h-42.667v-21.333h42.667
		c5.891,0,10.667-4.776,10.667-10.667v-42.667h21.333v42.667c0,5.891,4.776,10.667,10.667,10.667H320.032z"/>
	<path style="fill:#4C5B66;" d="M149.365,362.731h21.333v21.333h-21.333V362.731z"/>
	<path style="fill:#4C5B66;" d="M192.032,362.731h21.333v21.333h-21.333V362.731z"/>
	<path style="fill:#4C5B66;" d="M234.699,362.731h128v21.333h-128V362.731z"/>
	<path style="fill:#4C5B66;" d="M149.365,405.397h213.333v21.333H149.365V405.397z"/>
</g>
<g>
</g>
<g>
</g>
<g>
</g>
<g>
</g>
<g>
</g>
<g>
</g>
<g>
</g>
<g>
</g>
<g>
</g>
<g>
</g>
<g>
</g>
<g>
</g>
<g>
</g>
<g>
</g>
<g>
</g>
</svg>
