<?xml version="1.0" encoding="UTF-8" standalone="no"?>
<svg
   xmlns:dc="http://purl.org/dc/elements/1.1/"
   xmlns:cc="http://creativecommons.org/ns#"
   xmlns:rdf="http://www.w3.org/1999/02/22-rdf-syntax-ns#"
   xmlns:svg="http://www.w3.org/2000/svg"
   xmlns="http://www.w3.org/2000/svg"
   xmlns:sodipodi="http://sodipodi.sourceforge.net/DTD/sodipodi-0.dtd"
   xmlns:inkscape="http://www.inkscape.org/namespaces/inkscape"
   inkscape:version="1.0 (4035a4fb49, 2020-05-01)"
   height="24"
   width="24"
   sodipodi:docname="prescription.svg"
   xml:space="preserve"
   viewBox="0 0 23.999999 23.999999"
   y="0px"
   x="0px"
   id="Capa_1"
   version="1.1"><metadata
   id="metadata67"><rdf:RDF><cc:Work
       rdf:about=""><dc:format>image/svg+xml</dc:format><dc:type
         rdf:resource="http://purl.org/dc/dcmitype/StillImage" /><dc:title></dc:title></cc:Work></rdf:RDF></metadata><defs
   id="defs65" /><sodipodi:namedview
   inkscape:current-layer="Capa_1"
   inkscape:window-maximized="1"
   inkscape:window-y="0"
   inkscape:window-x="0"
   inkscape:cy="27.126158"
   inkscape:cx="23.021854"
   inkscape:zoom="15.748031"
   showgrid="false"
   id="namedview63"
   inkscape:window-height="1417"
   inkscape:window-width="2560"
   inkscape:pageshadow="2"
   inkscape:pageopacity="0"
   guidetolerance="10"
   gridtolerance="10"
   objecttolerance="10"
   borderopacity="1"
   bordercolor="#666666"
   pagecolor="#ffffff" />
<path
   id="path2"
   d="M 19.07379,8.0346514 V 21.274964 H 5.3431269 V 8.0346514 6.5635055 H 6.8142727 17.60269 19.073836 v 1.4711459 z"
   style="fill:#f2f2f2;stroke-width:0.0459733" />
<path
   id="path4"
   d="M 17.602644,4.6019623 V 6.5635055 H 6.8142727 V 4.6019623 h 1.4711458 5.8845825 1.961544 z"
   style="fill:#d9eef7;stroke-width:0.0459733" />
<path
   id="path6"
   d="M 16.131498,3.6212138 V 4.6019623 H 8.2854185 V 2.6404192 h 1.9615425 c 0,-1.083315 0.878229,-1.96154306 1.961544,-1.96154306 1.083314,0 1.961542,0.87822806 1.961542,1.96154306 h 1.961543 v 0.9807946 z"
   style="fill:#f2f2f2;stroke-width:0.0459733" />
<path
   id="path8"
   d="m 16.131498,3.6212138 h 4.413438 c 0.270828,0 0.490397,0.2195685 0.490397,0.4903972 v 18.634498 c 0,0.270829 -0.219569,0.490397 -0.490397,0.490397 H 3.8719811 c -0.2708287,0 -0.4903972,-0.219568 -0.4903972,-0.490397 V 4.1115651 c 0,-0.2708288 0.2195685,-0.4903973 0.4903972,-0.4903973 H 8.2854185 V 4.6019163 H 6.8142727 V 6.5634596 H 5.3431269 V 21.274917 H 19.073836 V 6.5634596 H 17.60269 V 4.6019623 H 16.131545 V 3.6212138 Z"
   style="fill:#aac4da;stroke-width:0.0459733" />
<path
   id="path10"
   d="m 15.641147,11.467294 v 0.980749 c 0,0.270828 -0.219568,0.490397 -0.490397,0.490397 h -1.961543 v 1.961543 c 0,0.270829 -0.219569,0.490397 -0.490398,0.490397 h -0.980748 c -0.270829,0 -0.490397,-0.219568 -0.490397,-0.490397 V 12.93844 H 9.2661215 c -0.270829,0 -0.490398,-0.219569 -0.490398,-0.490397 v -0.980749 c 0,-0.270829 0.219569,-0.490397 0.490398,-0.490397 H 11.227664 V 9.015354 c 0,-0.2708291 0.219568,-0.4903971 0.490397,-0.4903971 h 0.980748 c 0.270829,0 0.490398,0.219568 0.490398,0.4903971 v 1.961543 h 1.961543 c 0.270829,4.6e-5 0.490397,0.219568 0.490397,0.490397 z"
   style="fill:#69f0f7;stroke-width:0.0459733" />
<g
   transform="matrix(0.04597331,0,0,0.04597331,0.43782107,0.18558258)"
   id="g30">
	<path
   id="path12"
   d="m 138.699,149.397 h 234.667 c 5.891,0 10.667,-4.776 10.667,-10.667 V 96.064 c 0,-5.891 -4.776,-10.667 -10.667,-10.667 h -21.333 v -32 c 0,-5.891 -4.776,-10.667 -10.667,-10.667 H 308.299 C 302.438,13.864 274.285,-4.785 245.419,1.076 224.431,5.338 208.027,21.741 203.765,42.73 h -33.067 c -5.891,0 -10.667,4.776 -10.667,10.667 v 32 h -21.333 c -5.891,0 -10.667,4.776 -10.667,10.667 v 42.667 c 0.001,5.891 4.777,10.666 10.668,10.666 z m 10.666,-42.666 H 298.698 V 85.397 H 181.365 V 64.064 h 32 c 5.891,0 10.667,-4.776 10.667,-10.667 0,-17.673 14.327,-32 32,-32 17.673,0 32,14.327 32,32 0,5.891 4.776,10.667 10.667,10.667 h 32 v 32 c 0,5.891 4.776,10.667 10.667,10.667 h 21.333 v 21.333 H 149.365 Z"
   style="fill:#4c5b66" />
	<path
   id="path14"
   d="m 245.365,42.731 h 21.333 v 21.333 h -21.333 z"
   style="fill:#4c5b66" />
	<path
   id="path16"
   d="m 437.365,64.064 h -42.667 v 21.333 h 42.667 V 490.73 H 74.699 V 85.397 h 42.667 V 64.064 H 74.699 c -11.782,0 -21.333,9.551 -21.333,21.333 V 490.73 c 0,11.782 9.551,21.333 21.333,21.333 h 362.667 c 11.782,0 21.333,-9.551 21.333,-21.333 V 85.397 c 0,-11.782 -9.552,-21.333 -21.334,-21.333 z"
   style="fill:#4c5b66" />
	<path
   id="path18"
   d="M 117.365,170.731 H 96.032 v 288 c 0,5.891 4.776,10.667 10.667,10.667 h 298.667 c 5.891,0 10.667,-4.776 10.667,-10.667 v -288 H 394.7 V 448.064 H 117.365 Z"
   style="fill:#4c5b66" />
	<path
   id="path20"
   d="m 266.699,170.731 h -21.333 c -11.782,0 -21.333,9.551 -21.333,21.333 v 32 h -32 c -11.782,0 -21.333,9.551 -21.333,21.333 v 21.333 c 0,11.782 9.551,21.333 21.333,21.333 h 32 v 32 c 0,11.782 9.551,21.333 21.333,21.333 h 21.333 c 11.782,0 21.333,-9.551 21.333,-21.333 v -32 h 32 c 11.782,0 21.333,-9.551 21.333,-21.333 v -21.333 c 0,-11.782 -9.551,-21.333 -21.333,-21.333 h -32 v -32 c 0,-11.782 -9.551,-21.333 -21.333,-21.333 z m 53.333,74.666 v 21.333 h -42.667 c -5.891,0 -10.667,4.776 -10.667,10.667 v 42.667 h -21.333 v -42.667 c 0,-5.891 -4.776,-10.667 -10.667,-10.667 h -42.667 v -21.333 h 42.667 c 5.891,0 10.667,-4.776 10.667,-10.667 v -42.667 h 21.333 v 42.667 c 0,5.891 4.776,10.667 10.667,10.667 z"
   style="fill:#4c5b66" />
	<path
   id="path22"
   d="m 149.365,362.731 h 21.333 v 21.333 h -21.333 z"
   style="fill:#4c5b66" />
	<path
   id="path24"
   d="m 192.032,362.731 h 21.333 v 21.333 h -21.333 z"
   style="fill:#4c5b66" />
	<path
   id="path26"
   d="m 234.699,362.731 h 128 v 21.333 h -128 z"
   style="fill:#4c5b66" />
	<path
   id="path28"
   d="M 149.365,405.397 H 362.698 V 426.73 H 149.365 Z"
   style="fill:#4c5b66" />
</g>
<g
   id="g32">
</g>
<g
   id="g34">
</g>
<g
   id="g36">
</g>
<g
   id="g38">
</g>
<g
   id="g40">
</g>
<g
   id="g42">
</g>
<g
   id="g44">
</g>
<g
   id="g46">
</g>
<g
   id="g48">
</g>
<g
   id="g50">
</g>
<g
   id="g52">
</g>
<g
   id="g54">
</g>
<g
   id="g56">
</g>
<g
   id="g58">
</g>
<g
   id="g60">
</g>
</svg>
