<?xml version="1.0" encoding="UTF-8" standalone="no"?>
<!-- Generator: Adobe Illustrator 18.1.1, SVG Export Plug-In . SVG Version: 6.00 Build 0)  -->

<svg
   xmlns:dc="http://purl.org/dc/elements/1.1/"
   xmlns:cc="http://creativecommons.org/ns#"
   xmlns:rdf="http://www.w3.org/1999/02/22-rdf-syntax-ns#"
   xmlns:svg="http://www.w3.org/2000/svg"
   xmlns="http://www.w3.org/2000/svg"
   xmlns:sodipodi="http://sodipodi.sourceforge.net/DTD/sodipodi-0.dtd"
   xmlns:inkscape="http://www.inkscape.org/namespaces/inkscape"
   version="1.1"
   id="Capa_1"
   x="0px"
   y="0px"
   viewBox="0 0 60.964 60.964"
   style="enable-background:new 0 0 60.964 60.964;"
   xml:space="preserve"
   width="512px"
   height="512px"
   sodipodi:docname="procedure.svg"
   inkscape:version="0.92.2 2405546, 2018-03-11"><metadata
   id="metadata45"><rdf:RDF><cc:Work
       rdf:about=""><dc:format>image/svg+xml</dc:format><dc:type
         rdf:resource="http://purl.org/dc/dcmitype/StillImage" /></cc:Work></rdf:RDF></metadata><defs
   id="defs43">
	

		
		
	</defs><sodipodi:namedview
   pagecolor="#ffffff"
   bordercolor="#666666"
   borderopacity="1"
   objecttolerance="10"
   gridtolerance="10"
   guidetolerance="10"
   inkscape:pageopacity="0"
   inkscape:pageshadow="2"
   inkscape:window-width="2485"
   inkscape:window-height="1399"
   id="namedview41"
   showgrid="false"
   inkscape:zoom="0.65186406"
   inkscape:cx="-233.11664"
   inkscape:cy="264.70795"
   inkscape:window-x="75"
   inkscape:window-y="0"
   inkscape:window-maximized="1"
   inkscape:current-layer="Capa_1" />

<g
   id="g10">
</g>
<g
   id="g12">
</g>
<g
   id="g14">
</g>
<g
   id="g16">
</g>
<g
   id="g18">
</g>
<g
   id="g20">
</g>
<g
   id="g22">
</g>
<g
   id="g24">
</g>
<g
   id="g26">
</g>
<g
   id="g28">
</g>
<g
   id="g30">
</g>
<g
   id="g32">
</g>
<g
   id="g34">
</g>
<g
   id="g36">
</g>
<g
   id="g38">
</g>
<g
   id="g856"
   transform="matrix(1.1934598,0,0,1.1934598,98.449407,5.6743574)"><path
     style="fill:#6a6c6c;fill-opacity:1;stroke-width:0.11907031"
     inkscape:connector-curvature="0"
     d="m -38.609594,5.9104208 c -0.98876,0 -1.844994,0.5687989 -2.264241,1.3957422 -0.04644,0.091684 -0.120618,0.2842209 -0.438059,0.2842209 h -11.51017 c -0.258025,0 -0.352091,-0.1156173 -0.404125,-0.170985 -0.645004,-0.6854878 -1.559583,-1.1140218 -2.572752,-1.1140218 h -0.03143 L -66.3525,7.1007667 c -0.32149,0.028577 -0.343875,-0.1301438 -0.36114,-0.2062297 -0.536769,-2.3578303 -2.648719,-4.1232858 -5.166699,-4.1232858 -2.922462,0 -5.300058,2.3775959 -5.300058,5.3000576 0,2.9224632 2.377596,5.3001802 5.300058,5.3001802 0.05358,0 33.175608,0 33.270626,0 1.400624,0 2.540127,-1.118785 2.540127,-2.51953 V 8.4506668 c 1.19e-4,-1.4007431 -1.139384,-2.540246 -2.540008,-2.540246 z"
     id="path2-3" /><path
     style="fill:#18bc9c;fill-opacity:1;stroke-width:0.11907031"
     inkscape:connector-curvature="0"
     d="M -35.666652,14.488484 H -77.58333 c -1.459088,0 -2.646219,1.187131 -2.646219,2.646219 v 3.624976 c 0,1.459088 1.187012,2.646219 2.646219,2.646219 0,0 10.295533,0 13.727377,0 0.260526,0 0.438536,0.16396 0.438536,0.16396 l 4.387265,3.98052 c 0,0 0.168246,0.193728 -0.02167,0.364832 -1.652338,1.487664 -6.245118,5.665484 -6.245118,5.665484 -0.290413,0.260169 -0.620238,0.191465 -0.793009,0.178963 -0.06573,-0.0048 -0.132049,-0.0073 -0.198966,-0.0073 -1.51005,0 -2.738617,1.228449 -2.738617,2.738618 0,1.510049 1.228567,2.738617 2.738617,2.738617 1.510049,0 2.738617,-1.228568 2.738617,-2.738617 0,-0.150624 -0.0824,-0.397933 0.204801,-0.66096 l 6.519576,-5.915055 c 0,0 0.190393,-0.192299 0.404005,0.0018 1.756764,1.59578 6.518028,5.913984 6.518028,5.913984 0.222304,0.212778 0.204206,0.509621 0.204206,0.660245 0,1.510049 1.228567,2.738617 2.738617,2.738617 1.510049,0 2.738617,-1.228568 2.738617,-2.738617 0,-1.510169 -1.228568,-2.738618 -2.738617,-2.738618 -0.242785,0 -0.626905,0.118118 -0.873738,-0.06382 l -6.389432,-5.797057 c 0,0 -0.191227,-0.159078 0.0013,-0.33816 1.114974,-1.037221 4.348924,-3.945871 4.348924,-3.945871 0,0 0.192417,-0.201586 0.519861,-0.201586 3.421842,0 13.687489,0 13.687489,0 1.459088,0 2.646219,-1.187131 2.646219,-2.646219 v -3.624976 c 0,-1.459207 -1.187012,-2.646219 -2.646219,-2.646219 z m -20.95828,11.14129 c -0.09418,0 -0.14598,-0.04894 -0.14598,-0.04894 l -2.190655,-1.987402 c 0,0 -0.106687,-0.187536 0.173604,-0.187536 1.176534,0 3.270623,0 4.314275,0 0.391503,0 0.180629,0.191584 0.180629,0.191584 l -2.183511,1.981092 c 1.19e-4,-1.19e-4 -0.04906,0.0512 -0.148362,0.0512 z"
     id="path4" /></g></svg>