<?xml version="1.0" encoding="UTF-8" standalone="no"?>
<!-- Generator: Adobe Illustrator 18.1.1, SVG Export Plug-In . SVG Version: 6.00 Build 0)  -->

<svg
   xmlns:dc="http://purl.org/dc/elements/1.1/"
   xmlns:cc="http://creativecommons.org/ns#"
   xmlns:rdf="http://www.w3.org/1999/02/22-rdf-syntax-ns#"
   xmlns:svg="http://www.w3.org/2000/svg"
   xmlns="http://www.w3.org/2000/svg"
   xmlns:sodipodi="http://sodipodi.sourceforge.net/DTD/sodipodi-0.dtd"
   xmlns:inkscape="http://www.inkscape.org/namespaces/inkscape"
   version="1.1"
   id="Capa_1"
   x="0px"
   y="0px"
   viewBox="0 0 60.964 60.964"
   style="enable-background:new 0 0 60.964 60.964;"
   xml:space="preserve"
   width="512px"
   height="512px"
   sodipodi:docname="procedure.svg"
   inkscape:version="0.92.2 2405546, 2018-03-11"><metadata
   id="metadata45"><rdf:RDF><cc:Work
       rdf:about=""><dc:format>image/svg+xml</dc:format><dc:type
         rdf:resource="http://purl.org/dc/dcmitype/StillImage" /></cc:Work></rdf:RDF></metadata><defs
   id="defs43">
	

		
		
	</defs><sodipodi:namedview
   pagecolor="#ffffff"
   bordercolor="#666666"
   borderopacity="1"
   objecttolerance="10"
   gridtolerance="10"
   guidetolerance="10"
   inkscape:pageopacity="0"
   inkscape:pageshadow="2"
   inkscape:window-width="2560"
   inkscape:window-height="1347"
   id="namedview41"
   showgrid="false"
   inkscape:zoom="0.65186406"
   inkscape:cx="380.46092"
   inkscape:cy="250.90139"
   inkscape:window-x="0"
   inkscape:window-y="0"
   inkscape:window-maximized="1"
   inkscape:current-layer="Capa_1" />

<g
   id="g10">
</g>
<g
   id="g12">
</g>
<g
   id="g14">
</g>
<g
   id="g16">
</g>
<g
   id="g18">
</g>
<g
   id="g20">
</g>
<g
   id="g22">
</g>
<g
   id="g24">
</g>
<g
   id="g26">
</g>
<g
   id="g28">
</g>
<g
   id="g30">
</g>
<g
   id="g32">
</g>
<g
   id="g34">
</g>
<g
   id="g36">
</g>
<g
   id="g38">
</g>
<path
   id="path2-3"
   d="m 9.3691445,12.728207 c 1.1800455,0 2.2019265,0.678839 2.7022805,1.665762 0.05542,0.109421 0.143953,0.339206 0.522806,0.339206 h 13.736925 c 0.307942,0 0.420206,-0.137984 0.482307,-0.204063 0.769786,-0.818102 1.861299,-1.329541 3.070476,-1.329541 h 0.03751 l 12.557738,0.949266 c 0.383686,0.03411 0.410401,-0.155321 0.431006,-0.246127 0.640613,-2.813976 3.16114,-4.9209757 6.166248,-4.9209757 3.487841,0 6.325407,2.8375647 6.325407,6.3254057 0,3.487842 -2.837566,6.325552 -6.325407,6.325552 -0.06395,0 -39.5937535,0 -39.7071545,0 -1.671588,0 -3.031539,-1.335225 -3.031539,-3.006958 v -2.865845 c -1.42e-4,-1.671731 1.359809,-3.031682 3.031397,-3.031682 z"
   inkscape:connector-curvature="0"
   style="fill:#2780e3;fill-opacity:1;stroke-width:0.14210562" /><path
   id="path4"
   d="M 5.8568615,22.965781 H 55.882732 c 1.741363,0 3.158156,1.416793 3.158156,3.158156 V 30.4502 c 0,1.741363 -1.416651,3.158156 -3.158156,3.158156 0,0 -12.287305,0 -16.383073,0 -0.310927,0 -0.523375,0.195679 -0.523375,0.195679 l -5.236025,4.750591 c 0,0 -0.200794,0.231207 0.02586,0.435412 1.971999,1.775468 7.453297,6.761528 7.453297,6.761528 0.346596,0.310501 0.740229,0.228506 0.946424,0.213585 0.07845,-0.0057 0.157595,-0.0087 0.237458,-0.0087 1.802184,0 3.26843,1.466104 3.26843,3.26843 0,1.802183 -1.466246,3.268429 -3.26843,3.268429 -1.802183,0 -3.268429,-1.466246 -3.268429,-3.268429 0,-0.179764 0.09834,-0.474917 -0.244422,-0.788829 l -7.780852,-7.05938 c 0,0 -0.227226,-0.229502 -0.482163,0.0021 -2.096628,1.904499 -7.779005,7.058102 -7.779005,7.058102 -0.265311,0.253942 -0.243711,0.608212 -0.243711,0.787976 0,1.802183 -1.466246,3.268429 -3.26843,3.268429 -1.802183,0 -3.268429,-1.466246 -3.268429,-3.268429 0,-1.802326 1.466246,-3.268431 3.268429,-3.268431 0.289754,0 0.748186,0.140969 1.042771,-0.07617 l 7.625531,-6.918555 c 0,0 0.228221,-0.189853 -0.0016,-0.40358 -1.330676,-1.237882 -5.190266,-4.709239 -5.190266,-4.709239 0,0 -0.229642,-0.240584 -0.620433,-0.240584 -4.083831,0 -16.3354675,0 -16.3354675,0 -1.741363,0 -3.158156,-1.416793 -3.158156,-3.158156 v -4.326263 c 0,-1.741505 1.416651,-3.158156 3.158156,-3.158156 z M 30.869726,36.262462 c 0.1124,0 0.174221,-0.05841 0.174221,-0.05841 l 2.614459,-2.371882 c 0,0 0.127327,-0.223817 -0.207189,-0.223817 -1.404146,0 -3.903358,0 -5.148914,0 -0.467243,0 -0.215574,0.228648 -0.215574,0.228648 l 2.605933,2.364354 c -1.42e-4,-1.42e-4 0.05855,0.0611 0.177064,0.0611 z"
   inkscape:connector-curvature="0"
   style="fill:#2780e3;fill-opacity:1;stroke-width:0.14210562" /></svg>