<?xml version="1.0" encoding="UTF-8" standalone="no"?>
<!-- Generator: Adobe Illustrator 18.1.1, SVG Export Plug-In . SVG Version: 6.00 Build 0)  -->

<svg
   xmlns:dc="http://purl.org/dc/elements/1.1/"
   xmlns:cc="http://creativecommons.org/ns#"
   xmlns:rdf="http://www.w3.org/1999/02/22-rdf-syntax-ns#"
   xmlns:svg="http://www.w3.org/2000/svg"
   xmlns="http://www.w3.org/2000/svg"
   xmlns:sodipodi="http://sodipodi.sourceforge.net/DTD/sodipodi-0.dtd"
   xmlns:inkscape="http://www.inkscape.org/namespaces/inkscape"
   version="1.1"
   id="Capa_1"
   x="0px"
   y="0px"
   viewBox="0 0 2.8576875 2.8576875"
   xml:space="preserve"
   width="24"
   height="24"
   sodipodi:docname="procedure.svg"
   inkscape:version="0.92.2 2405546, 2018-03-11"><metadata
   id="metadata45"><rdf:RDF><cc:Work
       rdf:about=""><dc:format>image/svg+xml</dc:format><dc:type
         rdf:resource="http://purl.org/dc/dcmitype/StillImage" /><dc:title></dc:title></cc:Work></rdf:RDF></metadata><defs
   id="defs43">
	

		
		
	</defs><sodipodi:namedview
   pagecolor="#ffffff"
   bordercolor="#666666"
   borderopacity="1"
   objecttolerance="10"
   gridtolerance="10"
   guidetolerance="10"
   inkscape:pageopacity="0"
   inkscape:pageshadow="2"
   inkscape:window-width="2560"
   inkscape:window-height="1347"
   id="namedview41"
   showgrid="false"
   inkscape:zoom="14.75"
   inkscape:cx="11.747768"
   inkscape:cy="-5.7329034"
   inkscape:window-x="0"
   inkscape:window-y="0"
   inkscape:window-maximized="1"
   inkscape:current-layer="Capa_1" />

<g
   id="g10"
   transform="translate(0,-58.106312)">
</g>
<g
   id="g12"
   transform="translate(0,-58.106312)">
</g>
<g
   id="g14"
   transform="translate(0,-58.106312)">
</g>
<g
   id="g16"
   transform="translate(0,-58.106312)">
</g>
<g
   id="g18"
   transform="translate(0,-58.106312)">
</g>
<g
   id="g20"
   transform="translate(0,-58.106312)">
</g>
<g
   id="g22"
   transform="translate(0,-58.106312)">
</g>
<g
   id="g24"
   transform="translate(0,-58.106312)">
</g>
<g
   id="g26"
   transform="translate(0,-58.106312)">
</g>
<g
   id="g28"
   transform="translate(0,-58.106312)">
</g>
<g
   id="g30"
   transform="translate(0,-58.106312)">
</g>
<g
   id="g32"
   transform="translate(0,-58.106312)">
</g>
<g
   id="g34"
   transform="translate(0,-58.106312)">
</g>
<g
   id="g36"
   transform="translate(0,-58.106312)">
</g>
<g
   id="g38"
   transform="translate(0,-58.106312)">
</g>
<g
   id="g833"
   transform="matrix(0.4022789,0,0,0.4022789,-0.97017096,4.6691172)"><path
     style="fill:#2780e3;fill-opacity:1;stroke-width:0.01623182"
     inkscape:connector-curvature="0"
     d="m 3.4605917,-10.155116 c 0.134789,0 0.2515119,0.07754 0.3086642,0.1902695 0.00633,0.012498 0.016443,0.038745 0.059717,0.038745 H 5.398054 c 0.035174,0 0.047997,-0.015761 0.055091,-0.023309 0.087928,-0.093443 0.2126043,-0.1518655 0.3507208,-0.1518655 h 0.00428 l 1.4343901,0.1084291 c 0.043826,0.0039 0.046877,-0.017742 0.049231,-0.028114 0.073173,-0.321422 0.3610768,-0.562092 0.7043311,-0.562092 0.3983938,0 0.7225108,0.324117 0.7225108,0.7225117 0,0.3983939 -0.324117,0.7225273 -0.7225108,0.7225273 -0.0073,0 -4.5225413,0 -4.5354943,0 -0.1909348,0 -0.3462733,-0.1525142 -0.3462733,-0.3434656 V -9.808827 c -1.63e-5,-0.1909512 0.1553223,-0.34629 0.3462571,-0.34629 z"
     id="path2-3" /><path
     style="fill:#2780e3;fill-opacity:1;stroke-width:0.01623182"
     inkscape:connector-curvature="0"
     d="m 3.059406,-8.9857432 h 5.7141353 c 0.1989048,0 0.360736,0.1618312 0.360736,0.3607359 v 0.4941614 c 0,0.1989047 -0.161815,0.3607359 -0.360736,0.3607359 0,0 -1.4035003,0 -1.8713337,0 -0.035515,0 -0.059782,0.022351 -0.059782,0.022351 l -0.5980777,0.5426296 c 0,0 -0.022935,0.026409 0.00295,0.049734 0.2252489,0.2028003 0.8513425,0.7723261 0.8513425,0.7723261 0.039589,0.035467 0.084552,0.026101 0.1081039,0.024396 0.00896,-6.511e-4 0.018001,-9.937e-4 0.027123,-9.937e-4 0.2058519,0 0.3733318,0.1674636 0.3733318,0.3733318 0,0.2058518 -0.1674799,0.3733317 -0.3733318,0.3733317 -0.2058519,0 -0.3733318,-0.1674799 -0.3733318,-0.3733317 0,-0.020533 0.011233,-0.054247 -0.027919,-0.090103 L 5.9438595,-6.882786 c 0,0 -0.025955,-0.026215 -0.055074,2.399e-4 -0.2394844,0.2175387 -0.888546,0.8062018 -0.888546,0.8062018 -0.030305,0.029006 -0.027838,0.069472 -0.027838,0.090005 0,0.2058519 -0.1674799,0.3733318 -0.3733318,0.3733318 -0.2058518,0 -0.3733318,-0.1674799 -0.3733318,-0.3733318 0,-0.2058681 0.16748,-0.3733319 0.3733318,-0.3733319 0.033097,0 0.08546,0.016102 0.1191091,-0.0087 l 0.8710156,-0.7902623 c 0,0 0.026068,-0.021686 -1.828e-4,-0.046098 C 5.4370218,-7.3461261 4.9961655,-7.742637 4.9961655,-7.742637 c 0,0 -0.02623,-0.02748 -0.070868,-0.02748 -0.4664698,0 -1.8658959,0 -1.8658959,0 -0.1989048,0 -0.360736,-0.1618312 -0.360736,-0.360736 v -0.4941613 c 0,-0.198921 0.161815,-0.360736 0.360736,-0.360736 z m 2.8570596,1.5187948 c 0.012839,0 0.0199,-0.00667 0.0199,-0.00667 l 0.298633,-0.2709249 c 0,0 0.014544,-0.025565 -0.023666,-0.025565 -0.1603866,0 -0.4458556,0 -0.5881275,0 -0.05337,0 -0.024624,0.026117 -0.024624,0.026117 l 0.2976591,0.270065 c -1.62e-5,-1.62e-5 0.00669,0.00698 0.020225,0.00698 z"
     id="path4" /></g></svg>