<svg id="_x33_0" enable-background="new 0 0 64 64" height="512" viewBox="0 0 64 64" width="512" xmlns="http://www.w3.org/2000/svg"><g><g><g><path d="m50 62h-48c0-2.76 1.12-5.26 2.93-7.07.33-.33.69-.64 1.07-.93 1.67-1.25 3.75-2 6-2h2 12 12 2c2.25 0 4.33.75 6 2 2.43 1.83 4 4.73 4 8z" fill="#b4dd7f"/></g><g><path d="m62 19v14c0 .55-.45 1-1 1h-4c-.55 0-1-.45-1-1v-1-12-1c0-.55.45-1 1-1h4c.55 0 1 .45 1 1z" fill="#aab2bd"/></g><g><path d="m56 20v12h-3c-.55 0-1-.45-1-1v-3-4-3c0-.55.45-1 1-1z" fill="#ccd1d9"/></g><g><path d="m52 24v4h-3c-.55 0-1-.45-1-1v-1-1c0-.55.45-1 1-1z" fill="#ccd1d9"/></g><g><path d="m26 2c-3.86 0-7.36 1.57-9.9 4.1-2.53 2.54-4.1 6.04-4.1 9.9v25.19c.27-.09.54-.16.82-.22l7.18-1.54c1.21-.26 2.13-1.23 2.34-2.44l.57-3.48c-1.52-.49-2.88-1.34-3.98-2.44-1.81-1.81-2.93-4.31-2.93-7.07v-6l.42-.07c3.63-.6 6.98-2.33 9.58-4.93 1.3 1.3 2.79 2.38 4.4 3.22 1.62.83 3.36 1.41 5.18 1.71l.42.07v6c0 .47-.03.92-.1 1.38v.01c.07.19.1.4.1.61 0 .56-.23 1.07-.61 1.42v.01h.01c-1.06 2.87-3.39 5.13-6.31 6.08l.57 3.48c.21 1.21 1.13 2.18 2.34 2.44l7.18 1.54c.28.06.55.13.82.22v-15.19-10c0-7.73-6.27-14-14-14z" fill="#fcd770"/></g><g><path d="m38 52h-12-12-2c-2.25 0-4.33.75-6 2v-4.6c0-.93.15-1.85.44-2.73.88-2.62 2.95-4.65 5.56-5.48.27-.09.54-.16.82-.22l7.18-1.54c1.21-.26 2.13-1.23 2.34-2.44l.57-3.48c.97.32 2.01.49 3.09.49s2.12-.17 3.09-.49l.57 3.48c.21 1.21 1.13 2.18 2.34 2.44l7.18 1.54c.28.06.55.13.82.22 2.61.83 4.68 2.86 5.56 5.48.29.88.44 1.8.44 2.73v4.6c-1.67-1.25-3.75-2-6-2z" fill="#f0d0b4"/></g><g><path d="m35.39 27.43h.01c-1.06 2.87-3.39 5.13-6.31 6.08-.97.32-2.01.49-3.09.49s-2.12-.17-3.09-.49c-1.52-.49-2.88-1.34-3.98-2.44-1.81-1.81-2.93-4.31-2.93-7.07v-6l.42-.07c3.63-.6 6.98-2.33 9.58-4.93 1.3 1.3 2.79 2.38 4.4 3.22 1.62.83 3.36 1.41 5.18 1.71l.42.07v6c0 .47-.03.92-.1 1.38-.26-.8-1.02-1.38-1.9-1.38-1.1 0-2 .9-2 2s.9 2 2 2c.54 0 1.03-.21 1.39-.57z" fill="#f0d0b4"/></g><g><path d="m35.9 25.39c.07.19.1.4.1.61 0 .56-.23 1.07-.61 1.42v.01c-.36.36-.85.57-1.39.57-1.1 0-2-.9-2-2s.9-2 2-2c.88 0 1.64.58 1.9 1.38z" fill="#ff826e"/></g></g><g><path d="m24.707 21.707-1.414-1.414-.293.292c-.535.535-1.465.535-2 0l-.293-.293-1.414 1.414.293.294c.646.645 1.503 1 2.414 1s1.769-.355 2.414-1z"/><path d="m32.707 21.707-1.414-1.414-.293.292c-.535.535-1.465.535-2 0l-.293-.293-1.414 1.414.293.294c.646.645 1.503 1 2.414 1s1.769-.355 2.414-1z"/><path d="m28 27.764c-.381.762-1.147 1.236-2 1.236s-1.619-.474-2-1.236l-.105-.211-1.789.895.105.21c.722 1.445 2.174 2.342 3.789 2.342s3.067-.897 3.789-2.342l.105-.211-1.789-.895z"/><path d="m9 57h8v2h-8z"/><path d="m19 57h4v2h-4z"/><path d="m27 55h14v2h-14z"/><path d="m61 17h-4c-1.103 0-2 .897-2 2h-2c-1.103 0-2 .897-2 2v2h-2c-1.103 0-2 .897-2 2h-6v-9c0-8.271-6.729-15-15-15s-15 6.729-15 15v24.506c-2.569 1.052-4.615 3.174-5.507 5.851-.327.982-.493 2.006-.493 3.042v4.122c-2.441 2.02-4 5.071-4 8.479v1h50v-1c0-3.408-1.559-6.459-4-8.479v-4.122c0-1.036-.166-2.06-.494-3.043-.891-2.676-2.937-4.798-5.506-5.851v-13.505h6c0 1.103.897 2 2 2h2v2c0 1.103.897 2 2 2h2c0 1.103.897 2 2 2h4c1.103 0 2-.897 2-2v-14c0-1.103-.897-2-2-2zm-35-14c7.168 0 13 5.832 13 13v9h-2.069c.03-.333.069-.664.069-1v-6.848l-1.256-.208c-3.443-.574-6.568-2.183-9.037-4.651l-.707-.707-.707.707c-2.469 2.468-5.594 4.077-9.037 4.651l-1.256.208v6.848c0 4.576 2.81 8.505 6.793 10.16l-.443 2.662c-.137.815-.746 1.455-1.555 1.627l-6.795 1.456v-23.905c0-7.168 5.832-13 13-13zm0 30c-4.963 0-9-4.038-9-9v-5.158c3.374-.639 6.46-2.171 9-4.463 2.54 2.292 5.626 3.824 9 4.463v4.342c-.314-.112-.648-.184-1-.184-1.654 0-3 1.346-3 3 0 1.479 1.077 2.703 2.487 2.948-1.644 2.475-4.434 4.052-7.487 4.052zm9-7c0 .551-.448 1-1 1s-1-.449-1-1 .448-1 1-1 1 .449 1 1zm13.944 35h-45.888c.499-4.494 4.319-8 8.944-8h28c4.625 0 8.445 3.506 8.944 8zm-4.336-14.012c.26.779.392 1.59.392 2.411v2.815c-1.502-.77-3.199-1.214-5-1.214h-1v-4h-2v4h-10v-2h-2v2h-10v-4h-2v4h-1c-1.801 0-3.498.444-5 1.214v-2.815c0-.821.132-1.632.391-2.411.85-2.547 3.009-4.479 5.636-5.042l7.188-1.541c1.615-.346 2.835-1.623 3.107-3.254l.398-2.392c.737.156 1.498.241 2.28.241.776 0 1.538-.089 2.279-.247l.4 2.399c.271 1.63 1.49 2.907 3.106 3.254l7.188 1.54c2.628.563 4.787 2.495 5.635 5.042zm-5.608-7.083-6.795-1.455c-.809-.173-1.418-.812-1.554-1.627l-.445-2.668c2.733-1.137 4.961-3.354 6.059-6.211.238-.277.425-.594.55-.944h2.185zm10-12.905v-2h2v2zm4 4v-10h2v10zm8 2h-4v-14h4z"/></g></g></svg>