<?xml version="1.0" encoding="UTF-8" standalone="no"?>
<!-- Created with Inkscape (http://www.inkscape.org/) -->

<svg
   xmlns:dc="http://purl.org/dc/elements/1.1/"
   xmlns:cc="http://creativecommons.org/ns#"
   xmlns:rdf="http://www.w3.org/1999/02/22-rdf-syntax-ns#"
   xmlns:svg="http://www.w3.org/2000/svg"
   xmlns="http://www.w3.org/2000/svg"
   xmlns:sodipodi="http://sodipodi.sourceforge.net/DTD/sodipodi-0.dtd"
   xmlns:inkscape="http://www.inkscape.org/namespaces/inkscape"
   width="24"
   height="24"
   viewBox="0 0 6.3499998 6.3499998"
   version="1.1"
   id="svg5783"
   inkscape:version="0.92.2 2405546, 2018-03-11"
   sodipodi:docname="report.svg">
  <defs
     id="defs5777" />
  <sodipodi:namedview
     id="base"
     pagecolor="#ffffff"
     bordercolor="#666666"
     borderopacity="1.0"
     inkscape:pageopacity="0.0"
     inkscape:pageshadow="2"
     inkscape:zoom="15.839192"
     inkscape:cx="17.059288"
     inkscape:cy="6.0920102"
     inkscape:document-units="mm"
     inkscape:current-layer="layer1"
     showgrid="false"
     inkscape:window-width="2560"
     inkscape:window-height="1347"
     inkscape:window-x="0"
     inkscape:window-y="0"
     inkscape:window-maximized="1"
     units="px" />
  <metadata
     id="metadata5780">
    <rdf:RDF>
      <cc:Work
         rdf:about="">
        <dc:format>image/svg+xml</dc:format>
        <dc:type
           rdf:resource="http://purl.org/dc/dcmitype/StillImage" />
        <dc:title></dc:title>
      </cc:Work>
    </rdf:RDF>
  </metadata>
  <g
     inkscape:label="Capa 1"
     inkscape:groupmode="layer"
     id="layer1"
     transform="translate(0,-290.65)">
    <g
       transform="matrix(0.06690746,0,0,0.06690746,-0.14750074,290.49628)"
       id="g842"
       style="fill:#2780e3;fill-opacity:1">
      <rect
         id="rect4"
         height="11.28"
         width="6"
         y="56.360001"
         x="34.880001"
         style="fill:#2780e3;fill-opacity:1" />
      <path
         inkscape:connector-curvature="0"
         id="path6-3"
         d="M 76,4.73 H 39 38.52 A 3,3 0 0 0 36.7,5.59 L 15.89,26.41 A 3,3 0 0 0 15,28.53 v 57.74 a 9,9 0 0 0 9,9 h 52 a 9,9 0 0 0 9,-9 V 13.73 a 9,9 0 0 0 -9,-9 z M 35.86,15 V 25.58 H 25.22 Z m 37.7,58.68 H 26.44 v -6 h 2.44 V 50.36 h 12 v -8 h 12 v -8 h 18.25 v 33.28 h 2.44 z"
         style="fill:#2780e3;fill-opacity:1" />
      <rect
         id="rect8"
         height="27.280001"
         width="6.25"
         y="40.360001"
         x="58.880001"
         style="fill:#2780e3;fill-opacity:1" />
      <rect
         id="rect10"
         height="19.280001"
         width="6"
         y="48.360001"
         x="46.880001"
         style="fill:#2780e3;fill-opacity:1" />
    </g>
  </g>
</svg>
