<svg id="_x33_0" enable-background="new 0 0 64 64" height="512" viewBox="0 0 64 64" width="512" xmlns="http://www.w3.org/2000/svg"><g><g><g><path d="m26.61 36.96.99.74c.12.09.26.16.4.21v6.09 6 6 6h-4v-30.26c0 1.02.24 2.02.69 2.91.45.9 1.1 1.69 1.92 2.31z" fill="#f0d0b4"/></g><g><path d="m40 31.74v30.26h-4v-6-6-6-6.09c.14-.05.28-.12.4-.21l.99-.74c1.64-1.24 2.61-3.17 2.61-5.22z" fill="#f0d0b4"/></g><g><path d="m47 13.1v.16c0 3.7-1.34 7.27-3.78 10.05-.03.04-.06.08-.1.12-.26.3-.51.61-.74.93-.65.91-1.18 1.9-1.57 2.94-.53 1.41-.81 2.91-.81 4.44 0 2.05-.97 3.98-2.61 5.22l-.99.74c-.12.09-.26.16-.4.21-.16.06-.33.09-.5.09-.83 0-1.5-.67-1.5-1.5v-12.75c0-2.34 1.17-4.53 3.12-5.83l4.14-2.76c1.09-.72 1.74-1.94 1.74-3.25 0-2.16-1.75-3.91-3.91-3.91h-.17c-.6 0-1.2.14-1.75.41l-1.38.7c-1.18.58-2.47.89-3.79.89s-2.61-.31-3.79-.89l-1.38-.7c-.55-.27-1.15-.41-1.75-.41h-.17c-1.08 0-2.06.44-2.77 1.14-.7.71-1.14 1.69-1.14 2.77 0 1.31.65 2.53 1.74 3.25l4.14 2.76c1.95 1.3 3.12 3.49 3.12 5.83v12.75c0 .83-.67 1.5-1.5 1.5-.17 0-.34-.03-.5-.09-.14-.05-.28-.12-.4-.21l-.99-.74c-.82-.62-1.47-1.41-1.92-2.31-.45-.89-.69-1.89-.69-2.91 0-2.66-.84-5.24-2.38-7.38-.23-.32-.48-.63-.74-.93-.04-.04-.07-.08-.1-.12-2.44-2.78-3.78-6.35-3.78-10.05v-.16c0-1.66.37-3.28 1.07-4.75.58-1.24 1.4-2.36 2.41-3.32.13-.12.26-.24.39-.35l.11-.09c2-1.71 4.54-2.64 7.17-2.62h7.7c2.63-.02 5.17.91 7.17 2.62l.11.09c.13.11.26.23.39.35 1.01.96 1.83 2.08 2.41 3.32.7 1.47 1.07 3.09 1.07 4.75z" fill="#ecc19c"/></g><g><path d="m39.09 8h-.17c-.6 0-1.2.14-1.75.41l-1.38.7c-1.18.58-2.47.89-3.79.89s-2.61-.31-3.79-.89l-1.38-.7c-.55-.27-1.15-.41-1.75-.41h-.17c-1.08 0-2.06.44-2.77 1.14-.7.71-1.14 1.69-1.14 2.77 0 1.31.65 2.53 1.74 3.25l4.14 2.76c1.95 1.3 3.12 3.49 3.12 5.83v12.75c0 .83-.67 1.5-1.5 1.5-.17 0-.34-.03-.5-.09v6.09 6 6 6h8v-6-6-6-6.09c-.16.06-.33.09-.5.09-.83 0-1.5-.67-1.5-1.5v-12.75c0-2.34 1.17-4.53 3.12-5.83l4.14-2.76c1.09-.72 1.74-1.94 1.74-3.25 0-2.16-1.75-3.91-3.91-3.91z" fill="#cf9e76"/></g><g><path d="m9.26 22.32-.06.08c-.39.52-.69 1.1-.89 1.7l-2.88-3.36c-2.21-2.58-3.43-5.87-3.43-9.27 0-5.22 4.25-9.47 9.47-9.47 1.29 0 2.54.26 3.73.77l5.28 2.26c-1.01.96-1.83 2.08-2.41 3.32l-4.45-1.91c-.68-.29-1.41-.44-2.15-.44-3.02 0-5.47 2.45-5.47 5.47 0 2.44.88 4.81 2.47 6.67l2.35 2.74v.01c-.6.37-1.13.85-1.56 1.43z" fill="#dfb28b"/></g><g><path d="m58.57 20.74-2.88 3.36c-.2-.6-.5-1.18-.89-1.7l-.06-.08c-.43-.58-.96-1.06-1.56-1.43v-.01l2.35-2.74c1.59-1.86 2.47-4.23 2.47-6.67 0-3.02-2.45-5.47-5.47-5.47-.74 0-1.47.15-2.15.44l-4.45 1.91c-.58-1.24-1.4-2.36-2.41-3.32l5.28-2.26c1.19-.51 2.44-.77 3.73-.77 5.22 0 9.47 4.25 9.47 9.47 0 3.4-1.22 6.69-3.43 9.27z" fill="#dfb28b"/></g><g><path d="m22 26.48c0 .96-.44 1.87-1.19 2.47l-1.47 1.18c-1.51 1.21-3.4 1.87-5.34 1.87-1.66 0-3.16-.67-4.24-1.76-1.09-1.08-1.76-2.58-1.76-4.24 0-.65.1-1.29.31-1.9.2-.6.5-1.18.89-1.7l.06-.08c.43-.58.96-1.06 1.56-1.43.91-.57 1.97-.89 3.08-.89 1.36 0 2.67.48 3.71 1.34l3.25 2.71c.18.15.34.32.48.5.42.55.66 1.23.66 1.93z" fill="#ef7385"/></g><g><path d="m42 26.48c0 .96.44 1.87 1.19 2.47l1.47 1.18c1.51 1.21 3.4 1.87 5.34 1.87 1.66 0 3.16-.67 4.24-1.76 1.09-1.08 1.76-2.58 1.76-4.24 0-.65-.1-1.29-.31-1.9-.2-.6-.5-1.18-.89-1.7l-.06-.08c-.43-.58-.96-1.06-1.56-1.43-.91-.57-1.97-.89-3.08-.89-1.36 0-2.67.48-3.71 1.34l-3.25 2.71c-.18.15-.34.32-.48.5-.42.55-.66 1.23-.66 1.93z" fill="#ef7385"/></g><g><circle cx="49" cy="26" fill="#ed5565" r="2"/></g><g><path d="m52 30c0-.69-.36-1.3-.89-1.66.28-.78 1.02-1.34 1.89-1.34 1.1 0 2 .9 2 2 0 .13-.01.24-.03.36v.01c-.22.31-.46.6-.73.87-1.04 1.05-2.46 1.7-4.04 1.75 1.01-.1 1.8-.96 1.8-1.99z" fill="#ed5565"/></g><g><path d="m49.8 31.99c-1.01-.1-1.8-.96-1.8-1.99 0-1.1.9-2 2-2 .41 0 .79.12 1.11.34.53.36.89.97.89 1.66 0 1.03-.79 1.89-1.8 1.99-.06.01-.13.01-.2.01s-.14 0-.2-.01z" fill="#ed5565"/></g></g><path d="m63 11.467c0-5.771-4.695-10.467-10.467-10.467-1.426 0-2.813.285-4.124.847l-4.702 2.015-.041-.035c-2.176-1.866-4.968-2.914-7.813-2.858h-7.701c-2.906-.025-5.646.992-7.82 2.858l-.04.035-4.702-2.015c-1.31-.562-2.697-.847-4.123-.847-5.772 0-10.467 4.696-10.467 10.467 0 3.64 1.305 7.165 3.672 9.926l2.547 2.972c-.13.536-.219 1.082-.219 1.635 0 3.86 3.141 7 7 7 2.16 0 4.279-.743 5.968-2.093l1.471-1.177c.453-.363.806-.814 1.068-1.311.319 1.07.493 2.186.493 3.321v31.26h18v-31.26c0-1.135.174-2.251.493-3.321.263.497.615.949 1.069 1.311l1.471 1.177c1.688 1.35 3.807 2.093 5.967 2.093 3.859 0 7-3.14 7-7 0-.553-.089-1.099-.219-1.635l2.546-2.972c2.368-2.761 3.673-6.286 3.673-9.926zm-56.81 8.625c-2.057-2.399-3.19-5.462-3.19-8.625 0-4.669 3.798-8.467 8.467-8.467 1.153 0 2.275.23 3.337.685l3.992 1.711c-.438.528-.835 1.084-1.175 1.674l-3.606-1.546c-.81-.348-1.667-.524-2.548-.524-3.566 0-6.467 2.901-6.467 6.467 0 2.685.962 5.286 2.709 7.323l1.668 1.947c-.335.298-.648.622-.92.986l-.058.078c-.119.158-.211.333-.315.5zm4.876-.459-1.838-2.144c-1.437-1.676-2.228-3.814-2.228-6.022 0-2.463 2.004-4.467 4.467-4.467.608 0 1.201.122 1.761.361l3.547 1.52c-.498 1.337-.776 2.761-.776 4.222v.158c0 2.363.523 4.673 1.492 6.784-1.074-.669-2.314-1.045-3.591-1.045-.988 0-1.952.227-2.834.633zm9.122 8.535-1.471 1.177c-1.333 1.067-3.009 1.655-4.717 1.655-2.757 0-5-2.243-5-5 0-1.075.355-2.141 1-3l.06-.08c.902-1.202 2.337-1.92 3.84-1.92 1.121 0 2.212.395 3.072 1.112l3.249 2.708c.496.412.779 1.017.779 1.66 0 .661-.296 1.276-.812 1.688zm4.812 8.658c.308.336.639.653 1.008.93l.992.744v22.5h-2zm2.438-19.736-4.143-2.762c-.811-.54-1.295-1.445-1.295-2.42 0-1.603 1.305-2.908 2.908-2.908h.169c.449 0 .899.106 1.301.307l1.386.693c2.617 1.309 5.855 1.309 8.473 0l1.386-.693c.4-.201.851-.307 1.3-.307h.169c1.603 0 2.908 1.305 2.908 2.908 0 .975-.484 1.879-1.295 2.42l-4.143 2.762c-2.23 1.487-3.562 3.975-3.562 6.656v12.754c0 1.207.86 2.217 2 2.449v4.051h-6v-4.051c1.14-.232 2-1.242 2-2.449v-12.754c0-2.681-1.332-5.169-3.562-6.656zm7.562 37.91h-6v-4h6zm0-6h-6v-4h6zm-6 8h6v4h-6zm10 4h-2v-22.499s.001 0 .001-.001l.99-.744c.37-.277.7-.594 1.009-.93zm0-29.26c0 1.729-.825 3.379-2.209 4.417l-.989.743c-.31.23-.802-.017-.802-.4v-12.754c0-2.01.999-3.876 2.672-4.992l4.143-2.762c1.368-.912 2.185-2.439 2.185-4.084 0-2.706-2.202-4.908-4.908-4.908h-.169c-.758 0-1.518.179-2.195.518l-1.386.693c-2.064 1.032-4.619 1.032-6.684 0l-1.386-.693c-.677-.339-1.437-.518-2.195-.518h-.169c-2.706 0-4.908 2.202-4.908 4.908 0 1.645.817 3.172 2.186 4.084l4.143 2.762c1.672 1.116 2.671 2.982 2.671 4.992v12.754c0 .383-.498.627-.8.4l-.992-.745c-1.383-1.036-2.208-2.687-2.208-4.415 0-3.298-1.196-6.482-3.373-8.971l-.099-.114c-2.276-2.601-3.529-5.937-3.529-9.393v-.158c.001-2.95 1.285-5.743 3.523-7.663l.113-.097c1.808-1.551 4.104-2.375 6.51-2.376h7.717c2.406.022 4.694.825 6.502 2.376l.113.097c2.238 1.92 3.522 4.713 3.523 7.663v.158c0 3.457-1.253 6.792-3.537 9.402l-.097.111c-2.17 2.483-3.366 5.666-3.366 8.965zm11.1-12.74c-1.277 0-2.517.377-3.592 1.047.97-2.113 1.493-4.422 1.493-6.785v-.159c0-1.462-.277-2.885-.776-4.222l3.547-1.52c.56-.239 1.153-.361 1.761-.361 2.463 0 4.467 2.004 4.467 4.467 0 2.208-.791 4.346-2.229 6.021l-1.837 2.144c-.881-.405-1.846-.632-2.834-.632zm-6.288 9.168c-.516-.412-.812-1.027-.812-1.688 0-.643.283-1.248.778-1.66l3.249-2.708c.861-.717 1.952-1.112 3.073-1.112 1.503 0 2.938.718 3.838 1.917l.062.083c.645.859 1 1.925 1 3 0 .247-.038.483-.073.72-.523-.443-1.19-.72-1.927-.72-.355 0-.697.069-1.019.185.004-.062.019-.122.019-.185 0-1.654-1.346-3-3-3s-3 1.346-3 3c0 1.065.562 1.997 1.401 2.529-.248.437-.401.934-.401 1.471 0 .125.022.244.037.365-.623-.266-1.221-.593-1.755-1.02zm5.188 1.832c0-.551.448-1 1-1s1 .449 1 1-.448 1-1 1-1-.449-1-1zm-1-4c0-.551.448-1 1-1s1 .449 1 1-.448 1-1 1-1-.449-1-1zm4.998 3.976c-.005-.664-.233-1.27-.604-1.765.171-.131.381-.211.606-.211.543 0 .981.436.995.975-.284.38-.619.715-.997 1.001zm2.917-7.675c-.104-.167-.196-.342-.315-.5l-.06-.081c-.272-.362-.584-.686-.917-.983l1.667-1.946c1.748-2.038 2.71-4.639 2.71-7.323 0-3.567-2.901-6.468-6.467-6.468-.881 0-1.738.176-2.548.523l-3.606 1.546c-.34-.59-.737-1.146-1.175-1.674l3.992-1.71c1.062-.455 2.184-.685 3.337-.685 4.669 0 8.467 3.798 8.467 8.467 0 3.163-1.133 6.226-3.191 8.625z"/></g></svg>