<?xml version="1.0" encoding="UTF-8" standalone="no"?>
<!-- Generator: Adobe Illustrator 16.0.0, SVG Export Plug-In . SVG Version: 6.00 Build 0)  -->

<svg
   xmlns:dc="http://purl.org/dc/elements/1.1/"
   xmlns:cc="http://creativecommons.org/ns#"
   xmlns:rdf="http://www.w3.org/1999/02/22-rdf-syntax-ns#"
   xmlns:svg="http://www.w3.org/2000/svg"
   xmlns="http://www.w3.org/2000/svg"
   xmlns:sodipodi="http://sodipodi.sourceforge.net/DTD/sodipodi-0.dtd"
   xmlns:inkscape="http://www.inkscape.org/namespaces/inkscape"
   version="1.1"
   id="Capa_1"
   x="0px"
   y="0px"
   width="24"
   height="24"
   viewBox="0 0 5.574375 5.574375"
   xml:space="preserve"
   sodipodi:docname="reproductive.svg"
   inkscape:version="0.92.2 2405546, 2018-03-11"><metadata
   id="metadata41"><rdf:RDF><cc:Work
       rdf:about=""><dc:format>image/svg+xml</dc:format><dc:type
         rdf:resource="http://purl.org/dc/dcmitype/StillImage" /><dc:title></dc:title></cc:Work></rdf:RDF></metadata><defs
   id="defs39">
	
</defs><sodipodi:namedview
   pagecolor="#ffffff"
   bordercolor="#666666"
   borderopacity="1"
   objecttolerance="10"
   gridtolerance="10"
   guidetolerance="10"
   inkscape:pageopacity="0"
   inkscape:pageshadow="2"
   inkscape:window-width="2560"
   inkscape:window-height="1347"
   id="namedview37"
   showgrid="false"
   inkscape:zoom="20.85965"
   inkscape:cx="21.836458"
   inkscape:cy="8.6881869"
   inkscape:window-x="0"
   inkscape:window-y="0"
   inkscape:window-maximized="1"
   inkscape:current-layer="Capa_1" />

<g
   id="g6"
   transform="translate(0,-113.34562)">
</g>
<g
   id="g8"
   transform="translate(0,-113.34562)">
</g>
<g
   id="g10"
   transform="translate(0,-113.34562)">
</g>
<g
   id="g12"
   transform="translate(0,-113.34562)">
</g>
<g
   id="g14"
   transform="translate(0,-113.34562)">
</g>
<g
   id="g16"
   transform="translate(0,-113.34562)">
</g>
<g
   id="g18"
   transform="translate(0,-113.34562)">
</g>
<g
   id="g20"
   transform="translate(0,-113.34562)">
</g>
<g
   id="g22"
   transform="translate(0,-113.34562)">
</g>
<g
   id="g24"
   transform="translate(0,-113.34562)">
</g>
<g
   id="g26"
   transform="translate(0,-113.34562)">
</g>
<g
   id="g28"
   transform="translate(0,-113.34562)">
</g>
<g
   id="g30"
   transform="translate(0,-113.34562)">
</g>
<g
   id="g32"
   transform="translate(0,-113.34562)">
</g>
<g
   id="g34"
   transform="translate(0,-113.34562)">
</g>
<g
   transform="matrix(0.05776825,0,0,0.05776825,0.18664439,0.2406576)"
   id="g834"
   style="fill:#2780e3;fill-opacity:1"><path
     inkscape:connector-curvature="0"
     id="path2-36"
     d="m 50.531,46.712 c 0.745,-1.469 1.858,-2.746 3.261,-3.68 0.48,-0.323 0.989,-0.582 1.512,-0.811 0.521,-3.98 1.096,-8.509 3.118,-13.813 4.636,-12.142 19.995,-10.714 22.239,-5.362 0.101,0.242 0.173,0.477 0.248,0.711 0.27,2.024 -0.445,2.742 -2.061,2.808 1.826,1.739 2.974,3.839 3.308,5.932 2.848,-2.714 6.417,-7.496 4.115,-12.665 C 81.431,8.979 68.818,13.529 61.755,11.03 58.178,9.764 53.562,7.467 49.977,6.37 46.746,5.377 44.343,5.524 44.343,5.524 c 0,0 -2.401,-0.146 -5.63,0.846 C 35.121,7.467 30.511,9.764 26.934,11.03 19.874,13.528 7.26,8.979 2.42,19.832 0.159,24.9 3.688,29.74 6.535,32.493 6.869,30.4 8.013,28.301 9.845,26.558 8.26,26.508 7.514,25.853 7.695,23.996 c 0.091,-0.31 0.199,-0.627 0.335,-0.95 2.243,-5.352 17.603,-6.779 22.235,5.362 4.638,12.142 1.665,20.205 7.855,26.968 v 8.728 h 4.568 V 55.297 36.852 c 0,0 0.104,-2.289 -3.958,-4.776 -4.063,-2.483 2.546,-13.609 -13.313,-15.722 0,0 11.165,1.161 18.926,1.161 7.765,0 18.925,-1.161 18.925,-1.161 -15.855,2.113 -9.247,13.239 -13.311,15.722 -4.06,2.487 -3.956,4.776 -3.956,4.776 v 14.737 c 0.236,-0.559 0.506,-1.104 0.847,-1.614 0.933,-1.403 2.215,-2.518 3.683,-3.263 z"
     style="fill:#2780e3;fill-opacity:1" /><path
     inkscape:connector-curvature="0"
     id="path4"
     d="m 13.079,27 c -3.722,2.42 -5.313,6.568 -3.557,9.28 1.757,2.713 6.201,2.947 9.924,0.532 3.724,-2.415 5.316,-6.574 3.557,-9.282 -1.76,-2.708 -6.198,-2.943 -9.924,-0.53 z"
     style="fill:#2780e3;fill-opacity:1" /><path
     inkscape:connector-curvature="0"
     id="path6"
     d="m 75.61,27 c -3.723,-2.413 -8.166,-2.178 -9.925,0.53 -1.758,2.708 -0.164,6.868 3.559,9.282 3.725,2.415 8.164,2.181 9.922,-0.532 1.76,-2.712 0.167,-6.86 -3.556,-9.28 z"
     style="fill:#2780e3;fill-opacity:1" /><path
     inkscape:connector-curvature="0"
     id="path8"
     d="M 88.199,59.885 C 87.916,58.467 87.07,57.232 85.882,56.447 86.169,55.05 85.891,53.578 85.088,52.378 84.289,51.18 83.033,50.358 81.634,50.089 81.362,48.692 80.541,47.435 79.341,46.632 78.149,45.838 76.662,45.55 75.271,45.838 74.489,44.65 73.25,43.804 71.833,43.521 70.4,43.236 68.937,43.551 67.77,44.345 66.6,43.551 65.149,43.236 63.706,43.521 c -1.415,0.283 -2.654,1.129 -3.439,2.317 -1.391,-0.288 -2.878,0 -4.07,0.796 -1.198,0.801 -2.02,2.055 -2.287,3.455 -1.4,0.267 -2.656,1.089 -3.459,2.289 -0.8,1.2 -1.08,2.672 -0.794,4.069 -1.188,0.787 -2.033,2.024 -2.316,3.44 -0.28,1.417 0.028,2.884 0.823,4.064 -0.795,1.179 -1.104,2.645 -0.823,4.062 0.283,1.415 1.127,2.655 2.316,3.438 -0.286,1.398 -0.006,2.871 0.794,4.071 0.804,1.201 2.059,2.02 3.459,2.291 0.268,1.398 1.089,2.654 2.289,3.456 1.19,0.795 2.673,1.081 4.068,0.795 0.785,1.19 2.024,2.033 3.439,2.313 0.349,0.07 0.7,0.105 1.048,0.105 1.084,0 2.133,-0.325 3.017,-0.927 1.168,0.797 2.639,1.108 4.063,0.821 1.416,-0.28 2.655,-1.123 3.438,-2.313 1.392,0.286 2.881,0 4.07,-0.797 1.2,-0.8 2.021,-2.056 2.289,-3.454 1.402,-0.27 2.656,-1.09 3.458,-2.291 0.803,-1.2 1.081,-2.673 0.794,-4.068 1.188,-0.785 2.034,-2.025 2.317,-3.44 0.281,-1.412 -0.026,-2.881 -0.826,-4.062 0.799,-1.18 1.106,-2.646 0.825,-4.066 z m -3.765,5.049 0.317,0.342 c 0.539,0.585 0.769,1.398 0.614,2.175 -0.152,0.778 -0.675,1.442 -1.397,1.773 l -0.43,0.194 c -0.684,0.317 -1.012,1.106 -0.75,1.816 l 0.163,0.441 c 0.275,0.745 0.176,1.585 -0.263,2.243 -0.442,0.659 -1.18,1.071 -1.969,1.101 l -0.472,0.017 c -0.757,0.029 -1.365,0.634 -1.392,1.391 l -0.017,0.472 c -0.033,0.792 -0.444,1.529 -1.103,1.97 -0.655,0.44 -1.511,0.536 -2.238,0.265 l -0.444,-0.165 c -0.707,-0.267 -1.501,0.062 -1.816,0.75 l -0.194,0.432 c -0.334,0.721 -0.995,1.243 -1.773,1.398 -0.789,0.152 -1.593,-0.081 -2.172,-0.614 L 68.75,80.616 C 68.199,80.1 67.343,80.1 66.79,80.612 l -0.351,0.323 c -0.58,0.535 -1.382,0.767 -2.174,0.614 -0.775,-0.155 -1.438,-0.678 -1.769,-1.398 l -0.197,-0.432 c -0.242,-0.524 -0.764,-0.842 -1.313,-0.842 -0.169,0 -0.339,0.029 -0.503,0.092 l -0.441,0.165 c -0.74,0.271 -1.588,0.174 -2.244,-0.263 -0.659,-0.442 -1.07,-1.18 -1.101,-1.972 L 56.679,76.427 C 56.65,75.67 56.043,75.066 55.288,75.036 L 54.82,75.023 C 54.027,74.99 53.29,74.578 52.848,73.919 52.407,73.261 52.309,72.421 52.583,71.677 l 0.165,-0.442 c 0.264,-0.71 -0.066,-1.499 -0.75,-1.816 l -0.432,-0.194 c -0.72,-0.331 -1.242,-0.995 -1.398,-1.771 -0.155,-0.778 0.077,-1.592 0.612,-2.173 l 0.32,-0.346 c 0.517,-0.551 0.517,-1.407 0.003,-1.963 l -0.319,-0.349 c -0.541,-0.582 -0.771,-1.397 -0.618,-2.173 0.155,-0.775 0.681,-1.438 1.4,-1.769 l 0.432,-0.2 c 0.684,-0.314 1.014,-1.104 0.75,-1.813 l -0.164,-0.442 c -0.275,-0.745 -0.178,-1.584 0.264,-2.242 0.441,-0.659 1.179,-1.071 1.968,-1.101 l 0.472,-0.018 c 0.755,-0.029 1.361,-0.634 1.391,-1.391 l 0.018,-0.472 c 0.03,-0.792 0.441,-1.53 1.101,-1.97 0.656,-0.437 1.501,-0.539 2.246,-0.264 l 0.443,0.164 c 0.71,0.264 1.495,-0.066 1.81,-0.751 l 0.199,-0.431 c 0.331,-0.72 0.993,-1.243 1.769,-1.4 0.788,-0.156 1.597,0.08 2.174,0.617 l 0.351,0.324 c 0.553,0.51 1.409,0.51 1.96,-0.005 l 0.348,-0.319 c 0.579,-0.537 1.396,-0.771 2.172,-0.617 0.778,0.157 1.439,0.681 1.773,1.402 l 0.197,0.429 c 0.313,0.685 1.106,1.015 1.81,0.751 l 0.441,-0.165 c 0.745,-0.273 1.59,-0.172 2.245,0.263 0.658,0.441 1.069,1.18 1.103,1.972 l 0.017,0.472 c 0.026,0.757 0.635,1.361 1.392,1.391 l 0.466,0.015 c 0.795,0.032 1.532,0.444 1.975,1.104 0.438,0.658 0.538,1.497 0.263,2.239 l -0.163,0.445 c -0.262,0.708 0.066,1.498 0.75,1.813 l 0.432,0.2 c 0.721,0.33 1.243,0.99 1.396,1.769 0.154,0.778 -0.075,1.591 -0.614,2.174 l -0.322,0.348 c -0.514,0.554 -0.512,1.411 0.003,1.962 z"
     style="fill:#2780e3;fill-opacity:1" /><path
     inkscape:connector-curvature="0"
     id="path10"
     d="m 67.77,50.619 c -7.365,0 -13.332,5.968 -13.332,13.333 0,7.362 5.967,13.332 13.332,13.332 7.362,0 13.331,-5.97 13.331,-13.332 0,-7.365 -5.969,-13.333 -13.331,-13.333 z m -5.602,11.438 c -10e-4,-2.078 1.686,-3.766 3.767,-3.766 2.08,0 3.767,1.688 3.767,3.766 l -3.767,3.769 c -2.081,-10e-4 -3.768,-1.685 -3.767,-3.769 z m 8.546,8.49 c -2.082,0 -3.768,-1.688 -3.768,-3.768 l 3.768,-3.768 c 2.08,0 3.769,1.686 3.769,3.768 -0.001,2.08 -1.689,3.768 -3.769,3.768 z"
     style="fill:#2780e3;fill-opacity:1" /></g></svg>