<?xml version="1.0" encoding="UTF-8" standalone="no"?>
<!-- Generator: Adobe Illustrator 16.0.0, SVG Export Plug-In . SVG Version: 6.00 Build 0)  -->

<svg
   xmlns:dc="http://purl.org/dc/elements/1.1/"
   xmlns:cc="http://creativecommons.org/ns#"
   xmlns:rdf="http://www.w3.org/1999/02/22-rdf-syntax-ns#"
   xmlns:svg="http://www.w3.org/2000/svg"
   xmlns="http://www.w3.org/2000/svg"
   xmlns:sodipodi="http://sodipodi.sourceforge.net/DTD/sodipodi-0.dtd"
   xmlns:inkscape="http://www.inkscape.org/namespaces/inkscape"
   version="1.1"
   id="Capa_1"
   x="0px"
   y="0px"
   width="512px"
   height="512px"
   viewBox="0 0 118.92 118.92"
   style="enable-background:new 0 0 118.92 118.92;"
   xml:space="preserve"
   sodipodi:docname="reproductive.svg"
   inkscape:version="0.92.2 2405546, 2018-03-11"><metadata
   id="metadata41"><rdf:RDF><cc:Work
       rdf:about=""><dc:format>image/svg+xml</dc:format><dc:type
         rdf:resource="http://purl.org/dc/dcmitype/StillImage" /></cc:Work></rdf:RDF></metadata><defs
   id="defs39">
	
</defs><sodipodi:namedview
   pagecolor="#ffffff"
   bordercolor="#666666"
   borderopacity="1"
   objecttolerance="10"
   gridtolerance="10"
   guidetolerance="10"
   inkscape:pageopacity="0"
   inkscape:pageshadow="2"
   inkscape:window-width="2485"
   inkscape:window-height="1399"
   id="namedview37"
   showgrid="false"
   inkscape:zoom="1.3037281"
   inkscape:cx="62.319971"
   inkscape:cy="203.83895"
   inkscape:window-x="75"
   inkscape:window-y="0"
   inkscape:window-maximized="1"
   inkscape:current-layer="Capa_1" />

<g
   id="g6">
</g>
<g
   id="g8">
</g>
<g
   id="g10">
</g>
<g
   id="g12">
</g>
<g
   id="g14">
</g>
<g
   id="g16">
</g>
<g
   id="g18">
</g>
<g
   id="g20">
</g>
<g
   id="g22">
</g>
<g
   id="g24">
</g>
<g
   id="g26">
</g>
<g
   id="g28">
</g>
<g
   id="g30">
</g>
<g
   id="g32">
</g>
<g
   id="g34">
</g>
<g
   id="g866"
   transform="matrix(0.90861507,0,0,0.90861507,5.8988972,5.7010022)"><path
     d="m 87.793,52.728 c -7.308,0 -13.555,4.187 -16.137,10.087 -3.16,-2.388 -7.239,-3.727 -12.19,-3.727 -4.956,0 -9.042,1.339 -12.202,3.738 -2.576,-5.912 -8.823,-10.099 -16.137,-10.099 -9.603,0 -17.415,7.207 -17.415,16.066 0,8.865 7.812,16.062 17.415,16.062 1.72,0 3.118,-1.388 3.118,-3.117 0,-0.195 -0.082,-0.365 -0.119,-0.561 0.375,-0.608 0.643,-1.266 0.643,-2.033 0,-2.211 -1.791,-3.994 -3.998,-3.994 -1.778,0 -3.243,1.168 -3.766,2.752 -4.135,-1.438 -7.07,-4.981 -7.07,-9.122 0,-5.419 5.018,-9.834 11.18,-9.834 6.159,0 11.18,4.415 11.18,9.834 0,0.062 0.031,0.134 0.037,0.177 -1.422,2.984 -2.238,6.504 -2.238,10.645 0,11.879 12.328,23.395 16.243,26.768 v 9.432 c 0,1.724 1.397,3.118 3.118,3.118 1.72,0 3.117,-1.395 3.117,-3.118 v -9.42 c 3.922,-3.373 16.24,-14.9 16.24,-26.779 0,-4.141 -0.822,-7.667 -2.235,-10.645 0.007,-0.061 0.037,-0.128 0.037,-0.177 0,-5.419 5.023,-9.834 11.18,-9.834 6.162,0 11.18,4.415 11.18,9.834 0,4.141 -2.936,7.667 -7.069,9.122 -0.524,-1.596 -1.974,-2.752 -3.751,-2.752 -2.211,0 -4.013,1.777 -4.013,3.994 0,0.768 0.268,1.425 0.639,2.033 -0.03,0.195 -0.115,0.365 -0.115,0.561 0,1.729 1.4,3.117 3.117,3.117 9.603,0 17.415,-7.197 17.415,-16.062 0.011,-8.853 -7.801,-16.066 -17.404,-16.066 z M 59.46,100.853 C 54.564,96.469 46.341,87.463 46.341,79.626 c 0,-11.824 7.14,-14.297 13.119,-14.297 5.979,0 13.122,2.466 13.122,14.297 0.001,7.801 -8.226,16.832 -13.122,21.227 z M 12.921,99.204 c 0.591,1.62 -0.244,3.409 -1.86,4.013 -0.359,0.128 -0.716,0.177 -1.072,0.177 -1.273,0 -2.469,-0.78 -2.935,-2.046 C 1.321,85.65 -1.708,72.539 11.517,46.682 26.481,17.442 14.622,5.897 14.111,5.422 12.863,4.262 12.765,2.292 13.923,1.038 c 1.142,-1.279 3.081,-1.388 4.354,-0.255 0.661,0.6 16.13,14.896 -1.196,48.737 -12.119,23.658 -9.519,35.033 -4.16,49.684 z m 98.943,2.143 c -0.463,1.266 -1.662,2.046 -2.935,2.046 -0.359,0 -0.713,-0.062 -1.072,-0.177 -1.619,-0.604 -2.454,-2.393 -1.863,-4.013 5.353,-14.65 7.952,-26.025 -4.159,-49.685 C 84.512,15.671 99.966,1.374 100.636,0.781 c 1.278,-1.133 3.252,-1.023 4.402,0.268 1.139,1.279 1.029,3.23 -0.231,4.384 -0.578,0.524 -12.343,12.09 2.588,41.248 13.243,25.858 10.198,38.968 4.469,54.666 z"
     id="path2"
     inkscape:connector-curvature="0"
     style="fill:#18bc9c" /><path
     sodipodi:nodetypes="scscsssscsscssscscssscscssscsscsscscsscc"
     d="m 87.793,52.728 c -7.308,0 -13.555,4.187 -16.137,10.087 -3.16,-2.388 -7.239,-3.727 -12.19,-3.727 -4.956,0 -9.042,1.339 -12.202,3.738 -2.576,-5.912 -8.823,-10.099 -16.137,-10.099 -9.603,0 -17.415,7.207 -17.415,16.066 0,8.865 7.812,16.062 17.415,16.062 1.72,0 3.118,-1.388 3.118,-3.117 0,-0.195 -0.082,-0.365 -0.119,-0.561 0.375,-0.608 0.643,-1.266 0.643,-2.033 0,-2.211 -1.791,-3.994 -3.998,-3.994 -1.778,0 -3.243002,1.168 -3.766002,2.752 C 22.87,76.464 19.935,72.921 19.935,68.78 c 0,-5.419 5.017998,-9.834 11.18,-9.834 6.159,0 11.18,4.415 11.18,9.834 0,0.062 0.031,0.134 0.037,0.177 -1.422,2.984 -2.238,6.504 -2.238,10.645 0,11.879 12.328,23.39499 16.243,26.76799 v 9.432 c 0,1.724 1.397,3.118 3.118,3.118 1.72,0 3.117,-1.395 3.117,-3.118 v -9.42 c 3.922,-3.373 16.24,-14.89999 16.24,-26.77899 0,-4.141 -0.822,-7.667 -2.235,-10.645 0.007,-0.061 0.037,-0.128 0.037,-0.177 0,-5.419 5.023,-9.834 11.18,-9.834 6.162,0 11.18,4.415 11.18,9.834 0,4.141 -2.936,7.667 -7.069,9.122 -0.524,-1.596 -1.974,-2.752 -3.751,-2.752 -2.211,0 -4.013,1.777 -4.013,3.994 0,0.768 0.268,1.425 0.639,2.033 -0.03,0.195 -0.115,0.365 -0.115,0.561 0,1.729 1.4,3.117 3.117,3.117 9.603,0 17.415,-7.197 17.415,-16.062 0.011,-8.853 -7.801,-16.066 -17.404,-16.066 z M 59.46,100.85299 C 54.564,96.469 46.341,87.463 46.341,79.626 c 0,-11.824 7.14,-14.297 13.119,-14.297 5.979,0 13.122,2.466 13.122,14.297 9.3e-4,7.801 -8.226,16.832 -13.122,21.22699 z"
     id="path2-3"
     inkscape:connector-curvature="0"
     style="fill:#6a6c6c;fill-opacity:1;stroke-width:1" /></g></svg>