<?xml version="1.0" encoding="UTF-8" standalone="no"?>
<svg
   xmlns:dc="http://purl.org/dc/elements/1.1/"
   xmlns:cc="http://creativecommons.org/ns#"
   xmlns:rdf="http://www.w3.org/1999/02/22-rdf-syntax-ns#"
   xmlns:svg="http://www.w3.org/2000/svg"
   xmlns="http://www.w3.org/2000/svg"
   xmlns:sodipodi="http://sodipodi.sourceforge.net/DTD/sodipodi-0.dtd"
   xmlns:inkscape="http://www.inkscape.org/namespaces/inkscape"
   inkscape:version="1.0 (4035a4fb49, 2020-05-01)"
   sodipodi:docname="reproductive.svg"
   version="1.1"
   width="24"
   viewBox="0 0 3 3"
   height="24"
   enable-background="new 0 0 64 64"
   id="_x33_0">
  <metadata
     id="metadata57">
    <rdf:RDF>
      <cc:Work
         rdf:about="">
        <dc:format>image/svg+xml</dc:format>
        <dc:type
           rdf:resource="http://purl.org/dc/dcmitype/StillImage" />
        <dc:title></dc:title>
      </cc:Work>
    </rdf:RDF>
  </metadata>
  <defs
     id="defs55" />
  <sodipodi:namedview
     inkscape:current-layer="_x33_0"
     inkscape:window-maximized="1"
     inkscape:window-y="0"
     inkscape:window-x="0"
     inkscape:cy="6.5609591"
     inkscape:cx="20.976587"
     inkscape:zoom="22.273864"
     showgrid="false"
     id="namedview53"
     inkscape:window-height="1417"
     inkscape:window-width="2560"
     inkscape:pageshadow="2"
     inkscape:pageopacity="0"
     guidetolerance="10"
     gridtolerance="10"
     objecttolerance="10"
     borderopacity="1"
     bordercolor="#666666"
     pagecolor="#ffffff" />
  <g
     transform="matrix(0.0483871,0,0,0.0483871,-0.0483871,-0.04678379)"
     id="g50">
    <g
       id="g46">
      <g
         id="g4">
        <path
           id="path2"
           fill="#f0d0b4"
           d="m 26.61,36.96 0.99,0.74 c 0.12,0.09 0.26,0.16 0.4,0.21 v 6.09 6 6 6 H 24 V 31.74 c 0,1.02 0.24,2.02 0.69,2.91 0.45,0.9 1.1,1.69 1.92,2.31 z" />
      </g>
      <g
         id="g8">
        <path
           id="path6"
           fill="#f0d0b4"
           d="M 40,31.74 V 62 h -4 v -6 -6 -6 -6.09 c 0.14,-0.05 0.28,-0.12 0.4,-0.21 l 0.99,-0.74 C 39.03,35.72 40,33.79 40,31.74 Z" />
      </g>
      <g
         id="g12">
        <path
           id="path10"
           fill="#ecc19c"
           d="m 47,13.1 v 0.16 c 0,3.7 -1.34,7.27 -3.78,10.05 -0.03,0.04 -0.06,0.08 -0.1,0.12 -0.26,0.3 -0.51,0.61 -0.74,0.93 -0.65,0.91 -1.18,1.9 -1.57,2.94 -0.53,1.41 -0.81,2.91 -0.81,4.44 0,2.05 -0.97,3.98 -2.61,5.22 L 36.4,37.7 C 36.28,37.79 36.14,37.86 36,37.91 35.84,37.97 35.67,38 35.5,38 34.67,38 34,37.33 34,36.5 V 23.75 c 0,-2.34 1.17,-4.53 3.12,-5.83 l 4.14,-2.76 C 42.35,14.44 43,13.22 43,11.91 43,9.75 41.25,8 39.09,8 h -0.17 c -0.6,0 -1.2,0.14 -1.75,0.41 l -1.38,0.7 C 34.61,9.69 33.32,10 32,10 30.68,10 29.39,9.69 28.21,9.11 L 26.83,8.41 C 26.28,8.14 25.68,8 25.08,8 H 24.91 C 23.83,8 22.85,8.44 22.14,9.14 21.44,9.85 21,10.83 21,11.91 c 0,1.31 0.65,2.53 1.74,3.25 l 4.14,2.76 c 1.95,1.3 3.12,3.49 3.12,5.83 V 36.5 C 30,37.33 29.33,38 28.5,38 28.33,38 28.16,37.97 28,37.91 27.86,37.86 27.72,37.79 27.6,37.7 L 26.61,36.96 C 25.79,36.34 25.14,35.55 24.69,34.65 24.24,33.76 24,32.76 24,31.74 24,29.08 23.16,26.5 21.62,24.36 21.39,24.04 21.14,23.73 20.88,23.43 20.84,23.39 20.81,23.35 20.78,23.31 18.34,20.53 17,16.96 17,13.26 V 13.1 c 0,-1.66 0.37,-3.28 1.07,-4.75 0.58,-1.24 1.4,-2.36 2.41,-3.32 0.13,-0.12 0.26,-0.24 0.39,-0.35 l 0.11,-0.09 c 2,-1.71 4.54,-2.64 7.17,-2.62 h 7.7 c 2.63,-0.02 5.17,0.91 7.17,2.62 l 0.11,0.09 c 0.13,0.11 0.26,0.23 0.39,0.35 1.01,0.96 1.83,2.08 2.41,3.32 0.7,1.47 1.07,3.09 1.07,4.75 z" />
      </g>
      <g
         id="g16">
        <path
           id="path14"
           fill="#cf9e76"
           d="m 39.09,8 h -0.17 c -0.6,0 -1.2,0.14 -1.75,0.41 l -1.38,0.7 C 34.61,9.69 33.32,10 32,10 30.68,10 29.39,9.69 28.21,9.11 L 26.83,8.41 C 26.28,8.14 25.68,8 25.08,8 H 24.91 C 23.83,8 22.85,8.44 22.14,9.14 21.44,9.85 21,10.83 21,11.91 c 0,1.31 0.65,2.53 1.74,3.25 l 4.14,2.76 c 1.95,1.3 3.12,3.49 3.12,5.83 V 36.5 C 30,37.33 29.33,38 28.5,38 28.33,38 28.16,37.97 28,37.91 v 6.09 6 6 6 h 8 V 56 50 44 37.91 C 35.84,37.97 35.67,38 35.5,38 34.67,38 34,37.33 34,36.5 V 23.75 c 0,-2.34 1.17,-4.53 3.12,-5.83 l 4.14,-2.76 C 42.35,14.44 43,13.22 43,11.91 43,9.75 41.25,8 39.09,8 Z" />
      </g>
      <g
         id="g20">
        <path
           id="path18"
           fill="#dfb28b"
           d="M 9.26,22.32 9.2,22.4 C 8.81,22.92 8.51,23.5 8.31,24.1 L 5.43,20.74 C 3.22,18.16 2,14.87 2,11.47 2,6.25 6.25,2 11.47,2 c 1.29,0 2.54,0.26 3.73,0.77 l 5.28,2.26 C 19.47,5.99 18.65,7.11 18.07,8.35 L 13.62,6.44 C 12.94,6.15 12.21,6 11.47,6 8.45,6 6,8.45 6,11.47 c 0,2.44 0.88,4.81 2.47,6.67 l 2.35,2.74 v 0.01 c -0.6,0.37 -1.13,0.85 -1.56,1.43 z" />
      </g>
      <g
         id="g24">
        <path
           id="path22"
           fill="#dfb28b"
           d="m 58.57,20.74 -2.88,3.36 c -0.2,-0.6 -0.5,-1.18 -0.89,-1.7 l -0.06,-0.08 c -0.43,-0.58 -0.96,-1.06 -1.56,-1.43 v -0.01 l 2.35,-2.74 C 57.12,16.28 58,13.91 58,11.47 58,8.45 55.55,6 52.53,6 51.79,6 51.06,6.15 50.38,6.44 L 45.93,8.35 C 45.35,7.11 44.53,5.99 43.52,5.03 L 48.8,2.77 C 49.99,2.26 51.24,2 52.53,2 57.75,2 62,6.25 62,11.47 c 0,3.4 -1.22,6.69 -3.43,9.27 z" />
      </g>
      <g
         id="g28">
        <path
           id="path26"
           fill="#ef7385"
           d="m 22,26.48 c 0,0.96 -0.44,1.87 -1.19,2.47 l -1.47,1.18 C 17.83,31.34 15.94,32 14,32 12.34,32 10.84,31.33 9.76,30.24 8.67,29.16 8,27.66 8,26 8,25.35 8.1,24.71 8.31,24.1 8.51,23.5 8.81,22.92 9.2,22.4 l 0.06,-0.08 c 0.43,-0.58 0.96,-1.06 1.56,-1.43 0.91,-0.57 1.97,-0.89 3.08,-0.89 1.36,0 2.67,0.48 3.71,1.34 l 3.25,2.71 c 0.18,0.15 0.34,0.32 0.48,0.5 0.42,0.55 0.66,1.23 0.66,1.93 z" />
      </g>
      <g
         id="g32">
        <path
           id="path30"
           fill="#ef7385"
           d="m 42,26.48 c 0,0.96 0.44,1.87 1.19,2.47 l 1.47,1.18 C 46.17,31.34 48.06,32 50,32 51.66,32 53.16,31.33 54.24,30.24 55.33,29.16 56,27.66 56,26 56,25.35 55.9,24.71 55.69,24.1 55.49,23.5 55.19,22.92 54.8,22.4 L 54.74,22.32 C 54.31,21.74 53.78,21.26 53.18,20.89 52.27,20.32 51.21,20 50.1,20 c -1.36,0 -2.67,0.48 -3.71,1.34 l -3.25,2.71 C 42.96,24.2 42.8,24.37 42.66,24.55 42.24,25.1 42,25.78 42,26.48 Z" />
      </g>
      <g
         id="g36">
        <circle
           id="circle34"
           r="2"
           fill="#ed5565"
           cy="26"
           cx="49" />
      </g>
      <g
         id="g40">
        <path
           id="path38"
           fill="#ed5565"
           d="M 52,30 C 52,29.31 51.64,28.7 51.11,28.34 51.39,27.56 52.13,27 53,27 c 1.1,0 2,0.9 2,2 0,0.13 -0.01,0.24 -0.03,0.36 v 0.01 c -0.22,0.31 -0.46,0.6 -0.73,0.87 -1.04,1.05 -2.46,1.7 -4.04,1.75 C 51.21,31.89 52,31.03 52,30 Z" />
      </g>
      <g
         id="g44">
        <path
           id="path42"
           fill="#ed5565"
           d="M 49.8,31.99 C 48.79,31.89 48,31.03 48,30 c 0,-1.1 0.9,-2 2,-2 0.41,0 0.79,0.12 1.11,0.34 C 51.64,28.7 52,29.31 52,30 52,31.03 51.21,31.89 50.2,31.99 50.14,32 50.07,32 50,32 c -0.07,0 -0.14,0 -0.2,-0.01 z" />
      </g>
    </g>
    <path
       id="path48"
       d="M 63,11.467 C 63,5.696 58.305,1 52.533,1 51.107,1 49.72,1.285 48.409,1.847 L 43.707,3.862 43.666,3.827 C 41.49,1.961 38.698,0.913 35.853,0.969 H 28.152 C 25.246,0.944 22.506,1.961 20.332,3.827 L 20.292,3.862 15.59,1.847 C 14.28,1.285 12.893,1 11.467,1 5.695,1 1,5.696 1,11.467 c 0,3.64 1.305,7.165 3.672,9.926 l 2.547,2.972 C 7.089,24.901 7,25.447 7,26 c 0,3.86 3.141,7 7,7 2.16,0 4.279,-0.743 5.968,-2.093 l 1.471,-1.177 c 0.453,-0.363 0.806,-0.814 1.068,-1.311 C 22.826,29.489 23,30.605 23,31.74 V 63 H 41 V 31.74 c 0,-1.135 0.174,-2.251 0.493,-3.321 0.263,0.497 0.615,0.949 1.069,1.311 l 1.471,1.177 C 45.721,32.257 47.84,33 50,33 c 3.859,0 7,-3.14 7,-7 0,-0.553 -0.089,-1.099 -0.219,-1.635 l 2.546,-2.972 C 61.695,18.632 63,15.107 63,11.467 Z M 6.19,20.092 C 4.133,17.693 3,14.63 3,11.467 3,6.798 6.798,3 11.467,3 c 1.153,0 2.275,0.23 3.337,0.685 l 3.992,1.711 C 18.358,5.924 17.961,6.48 17.621,7.07 L 14.015,5.524 C 13.205,5.176 12.348,5 11.467,5 7.901,5 5,7.901 5,11.467 c 0,2.685 0.962,5.286 2.709,7.323 l 1.668,1.947 c -0.335,0.298 -0.648,0.622 -0.92,0.986 l -0.058,0.078 c -0.119,0.158 -0.211,0.333 -0.315,0.5 z M 11.066,19.633 9.228,17.489 C 7.791,15.813 7,13.675 7,11.467 7,9.004 9.004,7 11.467,7 c 0.608,0 1.201,0.122 1.761,0.361 l 3.547,1.52 c -0.498,1.337 -0.776,2.761 -0.776,4.222 v 0.158 c 0,2.363 0.523,4.673 1.492,6.784 C 16.417,19.376 15.177,19 13.9,19 c -0.988,0 -1.952,0.227 -2.834,0.633 z m 9.122,8.535 -1.471,1.177 C 17.384,30.412 15.708,31 14,31 11.243,31 9,28.757 9,26 9,24.925 9.355,23.859 10,23 l 0.06,-0.08 C 10.962,21.718 12.397,21 13.9,21 c 1.121,0 2.212,0.395 3.072,1.112 l 3.249,2.708 c 0.496,0.412 0.779,1.017 0.779,1.66 0,0.661 -0.296,1.276 -0.812,1.688 z M 25,36.826 c 0.308,0.336 0.639,0.653 1.008,0.93 L 27,38.5 V 61 H 25 Z M 27.438,17.09 23.295,14.328 C 22.484,13.788 22,12.883 22,11.908 22,10.305 23.305,9 24.908,9 h 0.169 c 0.449,0 0.899,0.106 1.301,0.307 L 27.764,10 c 2.617,1.309 5.855,1.309 8.473,0 L 37.623,9.307 C 38.023,9.106 38.474,9 38.923,9 h 0.169 C 40.695,9 42,10.305 42,11.908 c 0,0.975 -0.484,1.879 -1.295,2.42 L 36.562,17.09 C 34.332,18.577 33,21.065 33,23.746 V 36.5 c 0,1.207 0.86,2.217 2,2.449 V 43 h -6 v -4.051 c 1.14,-0.232 2,-1.242 2,-2.449 V 23.746 C 31,21.065 29.668,18.577 27.438,17.09 Z M 35,55 h -6 v -4 h 6 z m 0,-6 h -6 v -4 h 6 z m -6,8 h 6 v 4 h -6 z m 10,4 H 37 V 38.501 c 0,0 10e-4,0 10e-4,-10e-4 l 0.99,-0.744 c 0.37,-0.277 0.7,-0.594 1.009,-0.93 z m 0,-29.26 c 0,1.729 -0.825,3.379 -2.209,4.417 L 35.802,36.9 C 35.492,37.13 35,36.883 35,36.5 V 23.746 c 0,-2.01 0.999,-3.876 2.672,-4.992 l 4.143,-2.762 C 43.183,15.08 44,13.553 44,11.908 44,9.202 41.798,7 39.092,7 h -0.169 c -0.758,0 -1.518,0.179 -2.195,0.518 l -1.386,0.693 c -2.064,1.032 -4.619,1.032 -6.684,0 L 27.272,7.518 C 26.595,7.179 25.835,7 25.077,7 H 24.908 C 22.202,7 20,9.202 20,11.908 c 0,1.645 0.817,3.172 2.186,4.084 l 4.143,2.762 C 28.001,19.87 29,21.736 29,23.746 V 36.5 c 0,0.383 -0.498,0.627 -0.8,0.4 L 27.208,36.155 C 25.825,35.119 25,33.468 25,31.74 25,28.442 23.804,25.258 21.627,22.769 L 21.528,22.655 C 19.252,20.054 17.999,16.718 17.999,13.262 V 13.104 C 18,10.154 19.284,7.361 21.522,5.441 l 0.113,-0.097 c 1.808,-1.551 4.104,-2.375 6.51,-2.376 h 7.717 c 2.406,0.022 4.694,0.825 6.502,2.376 l 0.113,0.097 c 2.238,1.92 3.522,4.713 3.523,7.663 v 0.158 c 0,3.457 -1.253,6.792 -3.537,9.402 l -0.097,0.111 C 40.196,25.258 39,28.441 39,31.74 Z M 50.1,19 c -1.277,0 -2.517,0.377 -3.592,1.047 0.97,-2.113 1.493,-4.422 1.493,-6.785 v -0.159 c 0,-1.462 -0.277,-2.885 -0.776,-4.222 l 3.547,-1.52 C 51.332,7.122 51.925,7 52.533,7 54.996,7 57,9.004 57,11.467 c 0,2.208 -0.791,4.346 -2.229,6.021 l -1.837,2.144 C 52.053,19.227 51.088,19 50.1,19 Z m -6.288,9.168 C 43.296,27.756 43,27.141 43,26.48 c 0,-0.643 0.283,-1.248 0.778,-1.66 l 3.249,-2.708 C 47.888,21.395 48.979,21 50.1,21 c 1.503,0 2.938,0.718 3.838,1.917 L 54,23 c 0.645,0.859 1,1.925 1,3 0,0.247 -0.038,0.483 -0.073,0.72 C 54.404,26.277 53.737,26 53,26 52.645,26 52.303,26.069 51.981,26.185 51.985,26.123 52,26.063 52,26 c 0,-1.654 -1.346,-3 -3,-3 -1.654,0 -3,1.346 -3,3 0,1.065 0.562,1.997 1.401,2.529 C 47.153,28.966 47,29.463 47,30 c 0,0.125 0.022,0.244 0.037,0.365 -0.623,-0.266 -1.221,-0.593 -1.755,-1.02 z M 49,30 c 0,-0.551 0.448,-1 1,-1 0.552,0 1,0.449 1,1 0,0.551 -0.448,1 -1,1 -0.552,0 -1,-0.449 -1,-1 z m -1,-4 c 0,-0.551 0.448,-1 1,-1 0.552,0 1,0.449 1,1 0,0.551 -0.448,1 -1,1 -0.552,0 -1,-0.449 -1,-1 z m 4.998,3.976 C 52.993,29.312 52.765,28.706 52.394,28.211 52.565,28.08 52.775,28 53,28 c 0.543,0 0.981,0.436 0.995,0.975 -0.284,0.38 -0.619,0.715 -0.997,1.001 z m 2.917,-7.675 C 55.811,22.134 55.719,21.959 55.6,21.801 L 55.54,21.72 C 55.268,21.358 54.956,21.034 54.623,20.737 L 56.29,18.791 C 58.038,16.753 59,14.152 59,11.468 59,7.901 56.099,5 52.533,5 51.652,5 50.795,5.176 49.985,5.523 L 46.379,7.069 C 46.039,6.479 45.642,5.923 45.204,5.395 l 3.992,-1.71 C 50.258,3.23 51.38,3 52.533,3 57.202,3 61,6.798 61,11.467 c 0,3.163 -1.133,6.226 -3.191,8.625 z" />
  </g>
</svg>
