<?xml version="1.0" encoding="UTF-8" standalone="no"?>
<!-- Created with Inkscape (http://www.inkscape.org/) -->

<svg
   xmlns:dc="http://purl.org/dc/elements/1.1/"
   xmlns:cc="http://creativecommons.org/ns#"
   xmlns:rdf="http://www.w3.org/1999/02/22-rdf-syntax-ns#"
   xmlns:svg="http://www.w3.org/2000/svg"
   xmlns="http://www.w3.org/2000/svg"
   xmlns:sodipodi="http://sodipodi.sourceforge.net/DTD/sodipodi-0.dtd"
   xmlns:inkscape="http://www.inkscape.org/namespaces/inkscape"
   width="100mm"
   height="100mm"
   viewBox="0 0 100 100"
   version="1.1"
   id="svg5783"
   inkscape:version="0.92.2 2405546, 2018-03-11"
   sodipodi:docname="rpe.svg">
  <defs
     id="defs5777" />
  <sodipodi:namedview
     id="base"
     pagecolor="#ffffff"
     bordercolor="#666666"
     borderopacity="1.0"
     inkscape:pageopacity="0.0"
     inkscape:pageshadow="2"
     inkscape:zoom="0.9899495"
     inkscape:cx="-321.34214"
     inkscape:cy="308.44969"
     inkscape:document-units="mm"
     inkscape:current-layer="layer1"
     showgrid="false"
     inkscape:window-width="2560"
     inkscape:window-height="1347"
     inkscape:window-x="0"
     inkscape:window-y="0"
     inkscape:window-maximized="1" />
  <metadata
     id="metadata5780">
    <rdf:RDF>
      <cc:Work
         rdf:about="">
        <dc:format>image/svg+xml</dc:format>
        <dc:type
           rdf:resource="http://purl.org/dc/dcmitype/StillImage" />
        <dc:title />
      </cc:Work>
    </rdf:RDF>
  </metadata>
  <g
     inkscape:label="Capa 1"
     inkscape:groupmode="layer"
     id="layer1"
     transform="translate(0,-197)">
    <g
       transform="matrix(1.9270114,0,0,1.9270114,3.0818424,201.34177)"
       id="g6"
       style="fill:#2780e3;fill-opacity:1">
      <path
         inkscape:connector-curvature="0"
         d="M 46.3,4.7 C 44.9,2.4 42.5,1.1 39.8,1.1 c -1.1,0 -2,0.9 -2,2 0,1.1 0.9,2 2,2 1.3,0 2.5,0.6 3.2,1.7 0.6,1 0.6,2.1 0.1,3 l -7,11.3 c 0,0 -0.1,0.1 -0.1,0.1 -0.6,1.2 -1.8,1.9 -3.3,1.9 -1.5,0 -2.7,-0.7 -3.3,-1.9 0,0 0,-0.1 -0.1,-0.1 L 22.3,9.8 C 21.8,8.8 21.8,7.7 22.4,6.7 23,5.6 24.2,5 25.6,5 c 1.1,0 2,-0.9 2,-2 0,-1.1 -0.9,-2 -2,-2 -2.7,0 -5.2,1.4 -6.6,3.6 -1.3,2.2 -1.4,4.8 -0.2,7 0,0 0,0.1 0.1,0.1 L 26.1,23 c 1,1.8 2.6,3 4.5,3.6 -0.7,6.8 -2.9,15.4 -6.3,16.3 -1,0.2 -3.7,-0.1 -8.4,-6.5 -0.9,0.9 -2,1.6 -3.3,2.2 4,5.6 7.7,8.3 11.1,8.3 0.5,0 1,-0.1 1.5,-0.2 C 32.1,45 34,32 34.5,26.8 c 2.1,-0.5 4,-1.8 5,-3.8 l 7,-11.3 c 0,0 0.1,-0.1 0.1,-0.1 1.1,-2.2 1,-4.8 -0.3,-6.9 z"
         id="path2"
         style="fill:#2780e3;fill-opacity:1" />
      <path
         inkscape:connector-curvature="0"
         d="m 15.6,28.2 c 0,-4.1 -3.4,-7.4 -7.5,-7.4 -4.1,0 -7.5,3.3 -7.5,7.4 0,4.1 3.4,7.4 7.5,7.4 4.1,0 7.5,-3.3 7.5,-7.4 z"
         id="path4"
         style="fill:#2780e3;fill-opacity:1" />
    </g>
  </g>
</svg>
