<svg id="_x33_0" enable-background="new 0 0 64 64" height="512" viewBox="0 0 64 64" width="512" xmlns="http://www.w3.org/2000/svg"><g><g><g><path d="m52 42c5.52 0 10 4.48 10 10s-4.48 10-10 10c-4.84 0-8.87-3.44-9.8-8h4.14c.83 2.33 3.05 4 5.66 4 3.31 0 6-2.69 6-6s-2.69-6-6-6c-2.61 0-4.83 1.67-5.66 4h-4.14c.93-4.56 4.96-8 9.8-8z" fill="#fcd770"/></g><g><path d="m52 51v2c0 .55-.45 1-1 1h-4.66-4.14-3.2c-.55 0-1-.45-1-1v-1-1c0-.55.45-1 1-1h3.2 4.14 4.66c.55 0 1 .45 1 1z" fill="#ffc729"/></g><g><path d="m41 23c.55 0 1 .45 1 1 0 9.39-7.61 17-17 17h-1v2c0 .55-.45 1-1 1h-1-1c-.55 0-1-.45-1-1v-2h-1c-4.7 0-8.94-1.9-12.02-4.98s-4.98-7.32-4.98-12.02c0-.55.45-1 1-1h1 1c.55 0 1 .45 1 1 0 7.18 5.82 13 13 13h6c3.59 0 6.84-1.46 9.19-3.81s3.81-5.6 3.81-9.19c0-.55.45-1 1-1h1z" fill="#ccd1d9"/></g><g><path d="m40 10v4h-4.83c.55-1.18.83-2.47.83-3.79v-.03c0-.74-.09-1.47-.27-2.18h2.27c1.1 0 2 .9 2 2z" fill="#ccd1d9"/></g><g><path d="m35.73 8c-.31-1.27-.89-2.46-1.72-3.48-.63-.8-1.43-1.42-2.33-1.86-.9-.43-1.88-.66-2.9-.66-1.78 0-3.49.71-4.74 1.96l-2.04 2.04-2.04-2.04c-1.25-1.25-2.96-1.96-4.74-1.96-1.02 0-2 .23-2.9.66-.9.44-1.7 1.06-2.33 1.86-.84 1.04-1.43 2.25-1.73 3.54-.17.69-.26 1.4-.26 2.12v.03c0 1.32.28 2.61.83 3.79.32.71.73 1.38 1.24 2 .19.23.39.46.61.68l11.32 11.32 11.32-11.32c.78-.78 1.41-1.69 1.85-2.68.55-1.18.83-2.47.83-3.79v-.03c0-.74-.09-1.47-.27-2.18z" fill="#ff826e"/></g><g><path d="m8 10.21c0 1.32.28 2.61.83 3.79h-.01-4.82v-4c0-1.1.9-2 2-2h2l.26.06c-.17.69-.26 1.4-.26 2.12z" fill="#ccd1d9"/></g></g><path d="m52 41c-4.934 0-9.255 3.319-10.58 8h-2.42c-1.103 0-2 .897-2 2h-14v-6c1.103 0 2-.897 2-2v-1c9.925 0 18-8.075 18-18 0-1.103-.897-2-2-2v-12c0-1.654-1.346-3-3-3h-1.523c-.374-1.121-.938-2.178-1.683-3.108-1.47-1.838-3.663-2.892-6.017-2.892-2.059 0-3.994.802-5.448 2.257l-1.329 1.329-1.329-1.329c-1.455-1.455-3.39-2.257-5.448-2.257-2.354 0-4.547 1.054-6.017 2.892-.744.929-1.308 1.984-1.681 3.108h-1.525c-1.654 0-3 1.346-3 3v12c-1.103 0-2 .897-2 2 0 9.925 8.075 18 18 18v1c0 1.103.897 2 2 2v6h-4c-3.309 0-6 2.691-6 6s2.691 6 6 6 6-2.691 6-6v-4h14c0 1.103.897 2 2 2h2.42c1.325 4.681 5.646 8 10.58 8 6.065 0 11-4.935 11-11s-4.935-11-11-11zm-14-32c.551 0 1 .448 1 1v3h-2.396c.257-.903.396-1.848.396-2.819 0-.396-.032-.79-.079-1.181zm-27.232-3.858c1.088-1.362 2.712-2.142 4.455-2.142 1.524 0 2.957.594 4.034 1.671l2.743 2.743 2.743-2.743c1.077-1.077 2.51-1.671 4.034-1.671 1.743 0 3.367.78 4.455 2.142 1.14 1.424 1.768 3.213 1.768 5.068 0 .968-.177 1.907-.498 2.79h-9.12l-2.197 4.394-3.1-9.3-2.762 6.906h-6.757c-1.012-1.385-1.566-3.049-1.566-4.819 0-1.826.628-3.615 1.768-5.039zm22.666 9.858c-.249.34-.517.669-.821.973l-10.613 10.613-9.586-9.586h6.263l1.237-3.094 2.9 8.7 3.804-7.606zm-27.434-6h1.081c-.048.4-.081.803-.081 1.21 0 .958.138 1.893.393 2.79h-2.393v-3c0-.552.449-1 1-1zm-1 6h3.197c.466.867 1.061 1.671 1.776 2.387l12.027 12.027 12.027-12.027c.715-.715 1.31-1.519 1.775-2.387h3.198v7c-1.103 0-2 .897-2 2 0 6.617-5.383 12-12 12h-6c-6.617 0-12-5.383-12-12 0-1.103-.897-2-2-2zm14 25c-8.822 0-16-7.178-16-16h2c0 7.72 6.28 14 14 14h6c7.72 0 14-6.28 14-14h2c0 8.822-7.178 16-16 16h-2v3h-2v-3zm2 17c0 2.206-1.794 4-4 4s-4-1.794-4-4 1.794-4 4-4h4zm18-6h12l.001 2h-12.001zm12-2h-2.998c.928-1.234 2.399-2 3.998-2 2.757 0 5 2.243 5 5s-2.243 5-5 5c-1.599 0-3.069-.766-3.998-2h2.998c1.103 0 2-.897 2-2v-2c0-1.103-.897-2-2-2zm1 12c-3.842 0-7.226-2.462-8.479-6h2.174c1.15 2.414 3.59 4 6.305 4 3.86 0 7-3.141 7-7s-3.14-7-7-7c-2.716 0-5.155 1.586-6.305 4h-2.174c1.253-3.538 4.637-6 8.479-6 4.962 0 9 4.037 9 9s-4.038 9-9 9z"/></g></svg>