<?xml version="1.0" encoding="UTF-8" standalone="no"?>
<svg
   xmlns:dc="http://purl.org/dc/elements/1.1/"
   xmlns:cc="http://creativecommons.org/ns#"
   xmlns:rdf="http://www.w3.org/1999/02/22-rdf-syntax-ns#"
   xmlns:svg="http://www.w3.org/2000/svg"
   xmlns="http://www.w3.org/2000/svg"
   xmlns:sodipodi="http://sodipodi.sourceforge.net/DTD/sodipodi-0.dtd"
   xmlns:inkscape="http://www.inkscape.org/namespaces/inkscape"
   inkscape:version="1.0 (4035a4fb49, 2020-05-01)"
   sodipodi:docname="sexuality.svg"
   version="1.1"
   width="24"
   viewBox="0 0 3 3"
   height="24"
   enable-background="new 0 0 64 64"
   id="_x33_0">
  <metadata
     id="metadata85">
    <rdf:RDF>
      <cc:Work
         rdf:about="">
        <dc:format>image/svg+xml</dc:format>
        <dc:type
           rdf:resource="http://purl.org/dc/dcmitype/StillImage" />
        <dc:title></dc:title>
      </cc:Work>
    </rdf:RDF>
  </metadata>
  <defs
     id="defs83" />
  <sodipodi:namedview
     inkscape:current-layer="_x33_0"
     inkscape:window-maximized="1"
     inkscape:window-y="0"
     inkscape:window-x="0"
     inkscape:cy="57.830247"
     inkscape:cx="80.291472"
     inkscape:zoom="7.875"
     showgrid="false"
     id="namedview81"
     inkscape:window-height="1417"
     inkscape:window-width="2560"
     inkscape:pageshadow="2"
     inkscape:pageopacity="0"
     guidetolerance="10"
     gridtolerance="10"
     objecttolerance="10"
     borderopacity="1"
     bordercolor="#666666"
     pagecolor="#ffffff" />
  <g
     transform="matrix(0.0483871,0,0,0.0483871,-0.0483871,-0.0483871)"
     id="g78">
    <g
       id="g74">
      <g
         id="g4">
        <path
           id="path2"
           fill="#b27946"
           d="M 18.18,10 H 18.17 16 c -2.21,0 -4,1.79 -4,4 v 1 H 11.33 C 9.49,15 8,16.49 8,18.33 8,19.38 8.49,20.37 9.33,21 L 12,23 v 7 L 7.89,27.12 C 6.04,25.83 4.57,24.13 3.56,22.19 2.55,20.25 2,18.06 2,15.81 2,8.18 8.18,2 15.81,2 H 23 c 1.38,0 2.63,0.56 3.54,1.46 C 27.44,4.37 28,5.62 28,7 28,8.95 26.89,10.63 25.26,11.46 24.58,11.8 23.81,12 23,12 h -2 c -0.83,0 -1.58,-0.34 -2.12,-0.88 z" />
      </g>
      <g
         id="g8">
        <path
           id="path6"
           fill="#656d78"
           d="M 38.6,12.11 37.98,14 H 35.54 C 33.58,14 32,12.42 32,10.46 32,9.53 32.37,8.63 33.04,7.96 L 34,7 V 6 c 0,-2.21 1.79,-4 4,-4 h 8 c 7.73,0 14,6.27 14,14 v 28.24 c -0.01,0 -0.02,0 -0.02,0 -0.25,-4.06 -2.44,-7.78 -5.92,-9.95 l -1.12,-0.7 C 52.36,33.22 52,32.58 52,31.89 V 26 l 0.01,-0.1 C 51.19,25.74 50.44,25.37 49.82,24.86 49.69,24.76 49.57,24.65 49.46,24.54 48.56,23.63 48,22.38 48,21 v -3 c 0,-2.21 -1.79,-4 -4,-4 h -2 c -1.43,0 -2.69,-0.75 -3.4,-1.89 z" />
      </g>
      <g
         id="g12">
        <path
           id="path10"
           fill="#f0d0b4"
           d="m 24,40 v 2 c -1.38,0 -2.72,0.21 -4,0.6 v 0.01 c -1.44,0.43 -2.8,1.11 -4,1.99 -1.59,1.13 -2.93,2.62 -3.92,4.37 L 10.94,51 9.45,48.36 C 8.7,47.02 7.6,45.92 6.32,45.17 6.21,45.11 6.11,45.05 6,45 L 4.02,44.24 c 0.25,-4.06 2.44,-7.78 5.92,-9.95 l 1.12,-0.7 C 11.64,33.22 12,32.58 12,31.89 V 30 23 L 9.33,21 C 8.49,20.37 8,19.38 8,18.33 8,16.49 9.49,15 11.33,15 H 12 v -1 c 0,-2.21 1.79,-4 4,-4 h 2.17 0.01 l 0.7,1.12 C 19.42,11.66 20.17,12 21,12 h 2 c 0.81,0 1.58,-0.2 2.26,-0.54 C 25.9,12.59 28,16.6 28,20 l -2,1 v 4 c 0,2.76 -2.24,5 -5,5 h -1 v 1.89 c 0,0.69 0.36,1.33 0.94,1.7 l 1.12,0.7 c 1.11,0.69 2.08,1.54 2.91,2.5 C 24.37,37.34 24,38.13 24,39 Z" />
      </g>
      <g
         id="g16">
        <path
           id="path14"
           fill="#f0d0b4"
           d="M 59.98,44.24 58,45 c -0.11,0.05 -0.21,0.11 -0.32,0.17 -1.28,0.75 -2.38,1.85 -3.13,3.19 L 53.06,51 51.92,48.97 C 50.93,47.22 49.59,45.73 48,44.6 46.8,43.72 45.44,43.04 44,42.61 V 42.6 C 42.72,42.21 41.38,42 40,42 v -2 -1 c 0,-0.83 -0.34,-1.58 -0.88,-2.12 -0.03,-0.03 -0.06,-0.06 -0.09,-0.09 0.82,-0.96 1.8,-1.81 2.91,-2.5 l 1.12,-0.7 C 43.64,33.22 44,32.58 44,31.89 V 29.5 l 2,-0.33 c 0.63,-0.11 1.17,-0.51 1.46,-1.08 L 48,27 49.82,24.86 c 0.62,0.51 1.37,0.88 2.19,1.04 L 52,26 v 5.89 c 0,0.69 0.36,1.33 0.94,1.7 l 1.12,0.7 c 3.48,2.17 5.67,5.89 5.92,9.95 z" />
      </g>
      <g
         id="g20">
        <path
           id="path18"
           fill="#f0d0b4"
           d="M 38.6,12.11 C 39.31,13.25 40.57,14 42,14 h 2 c 2.21,0 4,1.79 4,4 v 3 c 0,1.38 0.56,2.63 1.46,3.54 0.11,0.11 0.23,0.22 0.36,0.32 L 48,27 47.46,28.09 c -0.29,0.57 -0.83,0.97 -1.46,1.08 l -2,0.33 -2.77,0.46 C 41.08,29.99 40.92,30 40.77,30 39.24,30 38,28.76 38,27.23 V 21 l -2,-1 1.98,-6 z" />
      </g>
      <g
         id="g24">
        <path
           id="path22"
           fill="#ffc729"
           d="m 40,39 v 1 h -6 v -1 c 0,-1.66 1.34,-3 3,-3 0.79,0 1.5,0.3 2.03,0.79 l 0.09,0.09 C 39.66,37.42 40,38.17 40,39 Z" />
      </g>
      <g
         id="g28">
        <path
           id="path26"
           fill="#ffc729"
           d="m 30,39 v 1 h -6 v -1 c 0,-0.87 0.37,-1.66 0.97,-2.21 C 25.5,36.3 26.21,36 27,36 c 0.83,0 1.58,0.34 2.12,0.88 C 29.66,37.42 30,38.17 30,39 Z" />
      </g>
      <g
         id="g32">
        <path
           id="path30"
           fill="#fcd770"
           d="m 40,40 v 2 2 c 0,1.89 -0.66,3.63 -1.76,5 1.1,1.37 1.76,3.11 1.76,5 v 5 c 0,0.33 -0.05,0.65 -0.16,0.94 -0.14,0.45 -0.39,0.85 -0.72,1.18 C 38.58,61.66 37.83,62 37,62 35.34,62 34,60.66 34,59 V 54 C 34,53.45 33.78,52.95 33.41,52.59 33.05,52.22 32.55,52 32,52 c -1.1,0 -2,0.9 -2,2 v 5 c 0,0.83 -0.34,1.58 -0.88,2.12 C 28.58,61.66 27.83,62 27,62 25.67,62 24.55,61.14 24.16,59.94 24.05,59.65 24,59.33 24,59 v -5 c 0,-1.89 0.66,-3.63 1.76,-5 C 24.66,47.63 24,45.89 24,44 v -2 -2 h 6 v 4 c 0,1.1 0.9,2 2,2 0.55,0 1.05,-0.22 1.41,-0.59 C 33.78,45.05 34,44.55 34,44 v -4 z" />
      </g>
      <g
         id="g36">
        <path
           id="path34"
           fill="#fc6e51"
           d="M 4.02,44.24 6,45 V 57 C 4.79,57.65 3.41,58 2,58 V 44 c 0.69,0 1.37,0.08 2.02,0.24 z" />
      </g>
      <g
         id="g40">
        <path
           id="path38"
           fill="#fc6e51"
           d="M 16,44.6 V 57.4 C 14.41,56.27 13.07,54.78 12.08,53.03 L 10.94,51 12.08,48.97 C 13.07,47.22 14.41,45.73 16,44.6 Z" />
      </g>
      <g
         id="g44">
        <path
           id="path42"
           fill="#fc6e51"
           d="m 24,59 c 0,0.33 0.05,0.65 0.16,0.94 L 24,60 c -1.38,0 -2.72,-0.21 -4,-0.6 V 59.39 42.61 42.6 C 21.28,42.21 22.62,42 24,42 v 2 c 0,1.89 0.66,3.63 1.76,5 -1.1,1.37 -1.76,3.11 -1.76,5 z" />
      </g>
      <g
         id="g48">
        <path
           id="path46"
           fill="#fc6e51"
           d="m 48,44.6 v 12.8 c -1.2,0.88 -2.56,1.56 -4,1.99 V 42.61 c 1.44,0.43 2.8,1.11 4,1.99 z" />
      </g>
      <g
         id="g52">
        <path
           id="path50"
           fill="#fc6e51"
           d="M 58,45 V 57 C 56.58,56.25 55.37,55.09 54.55,53.64 L 53.06,51 54.55,48.36 C 55.3,47.02 56.4,45.92 57.68,45.17 57.79,45.11 57.89,45.05 58,45 Z" />
      </g>
      <g
         id="g56">
        <path
           id="path54"
           fill="#ff826e"
           d="M 10.94,51 9.45,53.64 C 8.63,55.09 7.42,56.25 6,57 V 45 c 0.11,0.05 0.21,0.11 0.32,0.17 1.28,0.75 2.38,1.85 3.13,3.19 z" />
      </g>
      <g
         id="g60">
        <path
           id="path58"
           fill="#ff826e"
           d="M 20,42.61 V 59.39 C 18.56,58.96 17.2,58.28 16,57.4 V 44.6 c 1.2,-0.88 2.56,-1.56 4,-1.99 z" />
      </g>
      <g
         id="g64">
        <path
           id="path62"
           fill="#ff826e"
           d="M 44,42.61 V 59.39 59.4 C 42.72,59.79 41.38,60 40,60 L 39.84,59.94 C 39.95,59.65 40,59.33 40,59 V 54 C 40,52.11 39.34,50.37 38.24,49 39.34,47.63 40,45.89 40,44 v -2 c 1.38,0 2.72,0.21 4,0.6 z" />
      </g>
      <g
         id="g68">
        <path
           id="path66"
           fill="#ff826e"
           d="M 51.92,48.97 53.06,51 51.92,53.03 C 50.93,54.78 49.59,56.27 48,57.4 V 44.6 c 1.59,1.13 2.93,2.62 3.92,4.37 z" />
      </g>
      <g
         id="g72">
        <path
           id="path70"
           fill="#ff826e"
           d="M 60,44.24 C 60.64,44.08 61.32,44 62,44 v 14 c -1.41,0 -2.79,-0.35 -4,-1 V 45 l 1.98,-0.76 z" />
      </g>
    </g>
    <path
       id="path76"
       d="m 62,43 c -0.337,0 -0.669,0.032 -1,0.067 V 16 C 61,7.729 54.271,1 46,1 H 38 C 35.243,1 33,3.243 33,6 V 6.585 L 32.328,7.257 C 31.472,8.114 31,9.252 31,10.464 31,12.965 33.034,15 35.535,15 h 1.058 l -1.813,5.508 2.22,1.11 v 5.611 c 0,2.08 1.691,3.771 3.771,3.771 0.207,0 0.413,-0.017 0.62,-0.051 L 43,30.68 v 1.211 c 0,0.347 -0.176,0.664 -0.471,0.848 l -1.124,0.703 c -0.924,0.578 -1.771,1.266 -2.53,2.046 C 38.302,35.18 37.667,35 37,35 c -2.206,0 -4,1.794 -4,4 v 5 c 0,0.267 -0.103,0.513 -0.306,0.712 C 32.513,44.898 32.267,45 32,45 31.448,45 31,44.551 31,44 V 39 C 31,37.933 30.584,36.929 29.827,36.173 29.071,35.417 28.066,35 27,35 c -0.681,0 -1.313,0.187 -1.874,0.488 -0.759,-0.779 -1.605,-1.467 -2.531,-2.046 L 21.47,32.739 C 21.176,32.555 21,32.239 21,31.891 v -0.896 h 0.001 c 1.601,0 3.106,-0.623 4.239,-1.755 C 26.375,28.107 27,26.599 27,24.995 v -3.377 l 2,-1 V 20 C 29,16.972 27.476,13.552 26.581,11.803 28.046,10.708 29,8.966 29,7 29,3.691 26.309,1 23,1 H 15.81 C 7.644,1 1,7.644 1,15.81 1,20.639 3.361,25.174 7.317,27.942 L 11,30.521 v 1.371 c 0,0.347 -0.176,0.664 -0.471,0.848 L 9.405,33.443 C 5.99,35.578 3.723,39.126 3.158,43.079 2.776,43.031 2.39,43 2,43 H 1 v 16 h 1 c 3.445,0 6.635,-1.865 8.322,-4.868 l 0.615,-1.093 0.27,0.478 C 13.728,58 18.428,60.826 23.548,60.984 24.24,62.183 25.52,63 27,63 28.066,63 29.071,62.583 29.827,61.827 30.584,61.071 31,60.067 31,59 v -5 c 0,-0.551 0.448,-1 1,-1 0.267,0 0.514,0.102 0.713,0.306 C 32.897,53.487 33,53.733 33,54 v 5 c 0,2.206 1.794,4 4,4 1.066,0 2.071,-0.417 2.827,-1.173 0.253,-0.253 0.453,-0.541 0.627,-0.842 5.119,-0.159 9.818,-2.984 12.339,-7.467 l 0.27,-0.478 0.614,1.093 C 55.365,57.135 58.555,59 62,59 h 1 V 43 Z M 35.535,13 C 34.138,13 33,11.862 33,10.464 33,9.786 33.264,9.15 33.742,8.672 L 35,7.415 V 6 c 0,-1.654 1.346,-3 3,-3 h 8 c 7.168,0 13,5.832 13,13 V 37.913 C 57.91,36.124 56.416,34.58 54.595,33.442 L 53.47,32.739 C 53.176,32.555 53,32.239 53,31.891 V 27 c 2.206,0 4,-1.794 4,-4 0,-2.206 -1.794,-4 -4,-4 v 2 c 1.103,0 2,0.897 2,2 0,1.103 -0.897,2 -2,2 -2.206,0 -4,-1.794 -4,-4 v -3 c 0,-2.757 -2.243,-5 -5,-5 h -2 c -1.654,0 -3,-1.346 -3,-3 0,-1.654 1.346,-3 3,-3 h 1 V 5 h -1 c -2.757,0 -5,2.243 -5,5 0,0.784 0.198,1.518 0.521,2.179 L 37.251,13 Z M 37,37 c 0.532,0 1.034,0.208 1.413,0.587 C 38.792,37.966 39,38.467 39,39 h -4 c 0,-1.103 0.897,-2 2,-2 z m -8.587,0.587 C 28.792,37.965 29,38.467 29,39 h -4 c 0,-1.103 0.897,-2 2,-2 0.532,0 1.034,0.208 1.413,0.587 z M 8.464,26.304 C 5.043,23.909 3,19.986 3,15.81 3,8.747 8.746,3 15.81,3 H 23 c 2.206,0 4,1.794 4,4 0,2.206 -1.794,4 -4,4 H 21 C 19.897,11 19,10.096 19,8.985 19,8.454 19.207,7.956 19.582,7.581 19.957,7.206 20.455,7 20.986,7 H 20.988 21 L 20.989,5 C 20.988,5 20.986,5 20.985,5 19.922,5 18.921,5.414 18.169,6.166 17.415,6.919 17,7.92 17,8.985 17,8.99 17.001,8.995 17.001,9 H 16 c -2.757,0 -5,2.243 -5,5 v 0.013 c -2.234,0.17 -4,2.043 -4,4.321 0,1.356 0.647,2.652 1.733,3.466 L 11,23.5 v 4.579 z M 3,45.066 c 0.697,0.093 1.366,0.294 2,0.569 V 56.364 C 4.366,56.64 3.697,56.84 3,56.933 Z m 5.579,8.086 C 8.161,53.896 7.622,54.548 7,55.098 v -8.196 c 0.622,0.55 1.161,1.202 1.58,1.946 L 9.79,51 Z m 2.359,-4.192 -0.614,-1.093 c -1.16,-2.063 -3.037,-3.57 -5.211,-4.323 0.438,-3.447 2.386,-6.552 5.353,-8.406 l 1.123,-0.703 C 12.473,33.884 13,32.933 13,31.892 V 22.5 L 9.934,20.2 C 9.349,19.762 9,19.064 9,18.333 9,17.047 10.047,16 11.333,16 H 13 v -2 c 0,-1.654 1.346,-3 3,-3 h 1.56 c 0.695,1.19 1.969,2 3.44,2 h 2 c 0.628,0 1.234,-0.098 1.803,-0.278 0.754,1.467 1.989,4.193 2.173,6.671 L 25,20.382 v 4.613 c 0,1.069 -0.417,2.075 -1.173,2.83 -0.756,0.754 -1.759,1.17 -2.829,1.17 -0.001,0 -0.003,0 -0.004,0 L 16.999,29 17.001,31 19,30.998 v 0.894 c 0,1.042 0.527,1.993 1.41,2.544 l 1.124,0.703 c 0.773,0.483 1.46,1.077 2.097,1.723 C 23.237,37.482 23,38.212 23,39 v 2.035 c -4.906,0.336 -9.362,3.125 -11.793,7.448 z M 19,44.033 v 13.934 c -0.698,-0.3 -1.367,-0.663 -2,-1.082 v -11.77 c 0.633,-0.419 1.302,-0.782 2,-1.082 z M 12.949,52.537 12.085,51 12.949,49.463 C 13.515,48.458 14.207,47.549 15,46.752 v 8.497 C 14.208,54.451 13.515,53.542 12.949,52.537 Z M 23,54 v 4.956 C 22.321,58.902 21.653,58.791 21,58.632 V 43.368 c 0.653,-0.16 1.321,-0.27 2,-0.324 V 44 c 0,1.778 0.536,3.526 1.521,5 C 23.536,50.474 23,52.222 23,54 Z M 37.46,49.626 C 38.468,50.881 39,52.394 39,54 v 5 c 0,0.533 -0.208,1.035 -0.587,1.413 C 38.034,60.791 37.532,61 37,61 35.897,61 35,60.103 35,59 V 54 C 35,53.189 34.684,52.434 34.127,51.892 33.566,51.317 32.812,51 32,51 c -1.654,0 -3,1.346 -3,3 v 5 c 0,0.533 -0.208,1.035 -0.587,1.413 C 28.034,60.791 27.532,61 27,61 25.897,61 25,60.103 25,59 v -5 c 0,-1.606 0.532,-3.119 1.54,-4.374 L 27.042,49 26.54,48.374 C 25.532,47.119 25,45.606 25,44 v -3 h 4 v 3 c 0,1.654 1.346,3 3,3 0.811,0 1.565,-0.317 2.107,-0.874 C 34.684,45.566 35,44.811 35,44 v -3 h 4 v 3 c 0,1.606 -0.532,3.119 -1.54,4.374 L 36.958,49 Z M 39.479,49 C 40.464,47.526 41,45.778 41,44 v -0.956 c 0.679,0.054 1.347,0.165 2,0.324 v 15.264 c -0.653,0.16 -1.321,0.27 -2,0.324 V 54 c 0,-1.778 -0.536,-3.526 -1.521,-5 z M 47,45.115 v 11.771 c -0.633,0.419 -1.302,0.782 -2,1.082 V 44.033 c 0.698,0.3 1.367,0.663 2,1.082 z m 4.051,7.422 C 50.485,53.542 49.793,54.451 49,55.248 v -8.497 c 0.792,0.798 1.485,1.706 2.051,2.711 L 51.915,51 Z m 2.012,-3.577 -0.27,-0.478 C 50.362,44.159 45.906,41.37 41,41.035 V 39 c 0,-0.771 -0.224,-1.505 -0.63,-2.14 0.637,-0.646 1.324,-1.24 2.095,-1.722 l 1.123,-0.703 C 44.473,33.884 45,32.933 45,31.892 v -1.544 l 1.16,-0.193 c 0.943,-0.158 1.762,-0.762 2.189,-1.617 l 0.545,-1.089 -1.789,-0.896 -0.545,1.09 c -0.143,0.285 -0.415,0.486 -0.729,0.539 l -4.767,0.794 C 39.987,29.149 39,28.303 39,27.229 v -6.848 l -1.78,-0.89 1.809,-5.494 C 39.862,14.619 40.883,15 42,15 h 2 c 1.654,0 3,1.346 3,3 v 3 c 0,2.607 1.673,4.824 4,5.65 v 5.242 c 0,1.042 0.527,1.993 1.41,2.544 l 1.124,0.703 c 2.967,1.854 4.916,4.959 5.353,8.406 -2.174,0.753 -4.05,2.26 -5.21,4.323 z M 55.42,53.152 54.21,51 55.421,48.848 C 55.839,48.103 56.378,47.452 57,46.902 v 8.196 c -0.622,-0.55 -1.161,-1.201 -1.58,-1.946 z M 61,56.934 C 60.303,56.841 59.634,56.64 59,56.365 v -10.73 c 0.634,-0.276 1.303,-0.476 2,-0.569 z" />
  </g>
</svg>
