<svg id="_x33_0" enable-background="new 0 0 64 64" height="512" viewBox="0 0 64 64" width="512" xmlns="http://www.w3.org/2000/svg"><g><g><g><path d="m18.18 10h-.01-2.17c-2.21 0-4 1.79-4 4v1h-.67c-1.84 0-3.33 1.49-3.33 3.33 0 1.05.49 2.04 1.33 2.67l2.67 2v7l-4.11-2.88c-1.85-1.29-3.32-2.99-4.33-4.93s-1.56-4.13-1.56-6.38c0-7.63 6.18-13.81 13.81-13.81h7.19c1.38 0 2.63.56 3.54 1.46.9.91 1.46 2.16 1.46 3.54 0 1.95-1.11 3.63-2.74 4.46-.68.34-1.45.54-2.26.54h-2c-.83 0-1.58-.34-2.12-.88z" fill="#b27946"/></g><g><path d="m38.6 12.11-.62 1.89h-2.44c-1.96 0-3.54-1.58-3.54-3.54 0-.93.37-1.83 1.04-2.5l.96-.96v-1c0-2.21 1.79-4 4-4h8c7.73 0 14 6.27 14 14v28.24c-.01 0-.02 0-.02 0-.25-4.06-2.44-7.78-5.92-9.95l-1.12-.7c-.58-.37-.94-1.01-.94-1.7v-5.89l.01-.1c-.82-.16-1.57-.53-2.19-1.04-.13-.1-.25-.21-.36-.32-.9-.91-1.46-2.16-1.46-3.54v-3c0-2.21-1.79-4-4-4h-2c-1.43 0-2.69-.75-3.4-1.89z" fill="#656d78"/></g><g><path d="m24 40v2c-1.38 0-2.72.21-4 .6v.01c-1.44.43-2.8 1.11-4 1.99-1.59 1.13-2.93 2.62-3.92 4.37l-1.14 2.03-1.49-2.64c-.75-1.34-1.85-2.44-3.13-3.19-.11-.06-.21-.12-.32-.17l-1.98-.76c.25-4.06 2.44-7.78 5.92-9.95l1.12-.7c.58-.37.94-1.01.94-1.7v-1.89-7l-2.67-2c-.84-.63-1.33-1.62-1.33-2.67 0-1.84 1.49-3.33 3.33-3.33h.67v-1c0-2.21 1.79-4 4-4h2.17.01l.7 1.12c.54.54 1.29.88 2.12.88h2c.81 0 1.58-.2 2.26-.54.64 1.13 2.74 5.14 2.74 8.54l-2 1v4c0 2.76-2.24 5-5 5h-1v1.89c0 .69.36 1.33.94 1.7l1.12.7c1.11.69 2.08 1.54 2.91 2.5-.6.55-.97 1.34-.97 2.21z" fill="#f0d0b4"/></g><g><path d="m59.98 44.24-1.98.76c-.11.05-.21.11-.32.17-1.28.75-2.38 1.85-3.13 3.19l-1.49 2.64-1.14-2.03c-.99-1.75-2.33-3.24-3.92-4.37-1.2-.88-2.56-1.56-4-1.99v-.01c-1.28-.39-2.62-.6-4-.6v-2-1c0-.83-.34-1.58-.88-2.12-.03-.03-.06-.06-.09-.09.82-.96 1.8-1.81 2.91-2.5l1.12-.7c.58-.37.94-1.01.94-1.7v-2.39l2-.33c.63-.11 1.17-.51 1.46-1.08l.54-1.09 1.82-2.14c.62.51 1.37.88 2.19 1.04l-.01.1v5.89c0 .69.36 1.33.94 1.7l1.12.7c3.48 2.17 5.67 5.89 5.92 9.95z" fill="#f0d0b4"/></g><g><path d="m38.6 12.11c.71 1.14 1.97 1.89 3.4 1.89h2c2.21 0 4 1.79 4 4v3c0 1.38.56 2.63 1.46 3.54.11.11.23.22.36.32l-1.82 2.14-.54 1.09c-.29.57-.83.97-1.46 1.08l-2 .33-2.77.46c-.15.03-.31.04-.46.04-1.53 0-2.77-1.24-2.77-2.77v-6.23l-2-1 1.98-6z" fill="#f0d0b4"/></g><g><path d="m40 39v1h-6v-1c0-1.66 1.34-3 3-3 .79 0 1.5.3 2.03.79l.09.09c.54.54.88 1.29.88 2.12z" fill="#ffc729"/></g><g><path d="m30 39v1h-6v-1c0-.87.37-1.66.97-2.21.53-.49 1.24-.79 2.03-.79.83 0 1.58.34 2.12.88s.88 1.29.88 2.12z" fill="#ffc729"/></g><g><path d="m40 40v2 2c0 1.89-.66 3.63-1.76 5 1.1 1.37 1.76 3.11 1.76 5v5c0 .33-.05.65-.16.94-.14.45-.39.85-.72 1.18-.54.54-1.29.88-2.12.88-1.66 0-3-1.34-3-3v-5c0-.55-.22-1.05-.59-1.41-.36-.37-.86-.59-1.41-.59-1.1 0-2 .9-2 2v5c0 .83-.34 1.58-.88 2.12s-1.29.88-2.12.88c-1.33 0-2.45-.86-2.84-2.06-.11-.29-.16-.61-.16-.94v-5c0-1.89.66-3.63 1.76-5-1.1-1.37-1.76-3.11-1.76-5v-2-2h6v4c0 1.1.9 2 2 2 .55 0 1.05-.22 1.41-.59.37-.36.59-.86.59-1.41v-4z" fill="#fcd770"/></g><g><path d="m4.02 44.24 1.98.76v12c-1.21.65-2.59 1-4 1v-14c.69 0 1.37.08 2.02.24z" fill="#fc6e51"/></g><g><path d="m16 44.6v12.8c-1.59-1.13-2.93-2.62-3.92-4.37l-1.14-2.03 1.14-2.03c.99-1.75 2.33-3.24 3.92-4.37z" fill="#fc6e51"/></g><g><path d="m24 59c0 .33.05.65.16.94l-.16.06c-1.38 0-2.72-.21-4-.6v-.01-16.78-.01c1.28-.39 2.62-.6 4-.6v2c0 1.89.66 3.63 1.76 5-1.1 1.37-1.76 3.11-1.76 5z" fill="#fc6e51"/></g><g><path d="m48 44.6v12.8c-1.2.88-2.56 1.56-4 1.99v-16.78c1.44.43 2.8 1.11 4 1.99z" fill="#fc6e51"/></g><g><path d="m58 45v12c-1.42-.75-2.63-1.91-3.45-3.36l-1.49-2.64 1.49-2.64c.75-1.34 1.85-2.44 3.13-3.19.11-.06.21-.12.32-.17z" fill="#fc6e51"/></g><g><path d="m10.94 51-1.49 2.64c-.82 1.45-2.03 2.61-3.45 3.36v-12c.11.05.21.11.32.17 1.28.75 2.38 1.85 3.13 3.19z" fill="#ff826e"/></g><g><path d="m20 42.61v16.78c-1.44-.43-2.8-1.11-4-1.99v-12.8c1.2-.88 2.56-1.56 4-1.99z" fill="#ff826e"/></g><g><path d="m44 42.61v16.78.01c-1.28.39-2.62.6-4 .6l-.16-.06c.11-.29.16-.61.16-.94v-5c0-1.89-.66-3.63-1.76-5 1.1-1.37 1.76-3.11 1.76-5v-2c1.38 0 2.72.21 4 .6z" fill="#ff826e"/></g><g><path d="m51.92 48.97 1.14 2.03-1.14 2.03c-.99 1.75-2.33 3.24-3.92 4.37v-12.8c1.59 1.13 2.93 2.62 3.92 4.37z" fill="#ff826e"/></g><g><path d="m60 44.24c.64-.16 1.32-.24 2-.24v14c-1.41 0-2.79-.35-4-1v-12l1.98-.76z" fill="#ff826e"/></g></g><path d="m62 43c-.337 0-.669.032-1 .067v-27.067c0-8.271-6.729-15-15-15h-8c-2.757 0-5 2.243-5 5v.585l-.672.672c-.856.857-1.328 1.995-1.328 3.207 0 2.501 2.034 4.536 4.535 4.536h1.058l-1.813 5.508 2.22 1.11v5.611c0 2.08 1.691 3.771 3.771 3.771.207 0 .413-.017.62-.051l1.609-.269v1.211c0 .347-.176.664-.471.848l-1.124.703c-.924.578-1.771 1.266-2.53 2.046-.573-.308-1.208-.488-1.875-.488-2.206 0-4 1.794-4 4v5c0 .267-.103.513-.306.712-.181.186-.427.288-.694.288-.552 0-1-.449-1-1v-5c0-1.067-.416-2.071-1.173-2.827-.756-.756-1.761-1.173-2.827-1.173-.681 0-1.313.187-1.874.488-.759-.779-1.605-1.467-2.531-2.046l-1.125-.703c-.294-.184-.47-.5-.47-.848v-.896h.001c1.601 0 3.106-.623 4.239-1.755 1.135-1.133 1.76-2.641 1.76-4.245v-3.377l2-1v-.618c0-3.028-1.524-6.448-2.419-8.197 1.465-1.095 2.419-2.837 2.419-4.803 0-3.309-2.691-6-6-6h-7.19c-8.166 0-14.81 6.644-14.81 14.81 0 4.829 2.361 9.364 6.317 12.132l3.683 2.579v1.371c0 .347-.176.664-.471.848l-1.124.703c-3.415 2.135-5.682 5.683-6.247 9.636-.382-.048-.768-.079-1.158-.079h-1v16h1c3.445 0 6.635-1.865 8.322-4.868l.615-1.093.27.478c2.521 4.483 7.221 7.309 12.341 7.467.692 1.199 1.972 2.016 3.452 2.016 1.066 0 2.071-.417 2.827-1.173.757-.756 1.173-1.76 1.173-2.827v-5c0-.551.448-1 1-1 .267 0 .514.102.713.306.184.181.287.427.287.694v5c0 2.206 1.794 4 4 4 1.066 0 2.071-.417 2.827-1.173.253-.253.453-.541.627-.842 5.119-.159 9.818-2.984 12.339-7.467l.27-.478.614 1.093c1.688 3.002 4.878 4.867 8.323 4.867h1v-16zm-26.465-30c-1.397 0-2.535-1.138-2.535-2.536 0-.678.264-1.314.742-1.792l1.258-1.257v-1.415c0-1.654 1.346-3 3-3h8c7.168 0 13 5.832 13 13v21.913c-1.09-1.789-2.584-3.333-4.405-4.471l-1.125-.703c-.294-.184-.47-.5-.47-.848v-4.891c2.206 0 4-1.794 4-4s-1.794-4-4-4v2c1.103 0 2 .897 2 2s-.897 2-2 2c-2.206 0-4-1.794-4-4v-3c0-2.757-2.243-5-5-5h-2c-1.654 0-3-1.346-3-3s1.346-3 3-3h1v-2h-1c-2.757 0-5 2.243-5 5 0 .784.198 1.518.521 2.179l-.27.821zm1.465 24c.532 0 1.034.208 1.413.587s.587.88.587 1.413h-4c0-1.103.897-2 2-2zm-8.587.587c.379.378.587.88.587 1.413h-4c0-1.103.897-2 2-2 .532 0 1.034.208 1.413.587zm-19.949-11.283c-3.421-2.395-5.464-6.318-5.464-10.494 0-7.063 5.746-12.81 12.81-12.81h7.19c2.206 0 4 1.794 4 4s-1.794 4-4 4h-2c-1.103 0-2-.904-2-2.015 0-.531.207-1.029.582-1.404s.873-.581 1.404-.581h.002.012l-.011-2c-.001 0-.003 0-.004 0-1.063 0-2.064.414-2.816 1.166-.754.753-1.169 1.754-1.169 2.819 0 .005.001.01.001.015h-1.001c-2.757 0-5 2.243-5 5v.013c-2.234.17-4 2.043-4 4.321 0 1.356.647 2.652 1.733 3.466l2.267 1.7v4.579zm-5.464 18.762c.697.093 1.366.294 2 .569v10.729c-.634.276-1.303.476-2 .569zm5.579 8.086c-.418.744-.957 1.396-1.579 1.946v-8.196c.622.55 1.161 1.202 1.58 1.946l1.21 2.152zm2.359-4.192-.614-1.093c-1.16-2.063-3.037-3.57-5.211-4.323.438-3.447 2.386-6.552 5.353-8.406l1.123-.703c.884-.551 1.411-1.502 1.411-2.543v-9.392l-3.066-2.3c-.585-.438-.934-1.136-.934-1.867 0-1.286 1.047-2.333 2.333-2.333h1.667v-2c0-1.654 1.346-3 3-3h1.56c.695 1.19 1.969 2 3.44 2h2c.628 0 1.234-.098 1.803-.278.754 1.467 1.989 4.193 2.173 6.671l-1.976.989v4.613c0 1.069-.417 2.075-1.173 2.83-.756.754-1.759 1.17-2.829 1.17-.001 0-.003 0-.004 0l-3.995.005.002 2 1.999-.002v.894c0 1.042.527 1.993 1.41 2.544l1.124.703c.773.483 1.46 1.077 2.097 1.723-.394.62-.631 1.35-.631 2.138v2.035c-4.906.336-9.362 3.125-11.793 7.448zm8.062-4.927v13.934c-.698-.3-1.367-.663-2-1.082v-11.77c.633-.419 1.302-.782 2-1.082zm-6.051 8.504-.864-1.537.864-1.537c.566-1.005 1.258-1.914 2.051-2.711v8.497c-.792-.798-1.485-1.707-2.051-2.712zm10.051 1.463v4.956c-.679-.054-1.347-.165-2-.324v-15.264c.653-.16 1.321-.27 2-.324v.956c0 1.778.536 3.526 1.521 5-.985 1.474-1.521 3.222-1.521 5zm14.46-4.374c1.008 1.255 1.54 2.768 1.54 4.374v5c0 .533-.208 1.035-.587 1.413s-.881.587-1.413.587c-1.103 0-2-.897-2-2v-5c0-.811-.316-1.566-.873-2.108-.561-.575-1.315-.892-2.127-.892-1.654 0-3 1.346-3 3v5c0 .533-.208 1.035-.587 1.413s-.881.587-1.413.587c-1.103 0-2-.897-2-2v-5c0-1.606.532-3.119 1.54-4.374l.502-.626-.502-.626c-1.008-1.255-1.54-2.768-1.54-4.374v-3h4v3c0 1.654 1.346 3 3 3 .811 0 1.565-.317 2.107-.874.577-.56.893-1.315.893-2.126v-3h4v3c0 1.606-.532 3.119-1.54 4.374l-.502.626zm2.019-.626c.985-1.474 1.521-3.222 1.521-5v-.956c.679.054 1.347.165 2 .324v15.264c-.653.16-1.321.27-2 .324v-4.956c0-1.778-.536-3.526-1.521-5zm7.521-3.885v11.771c-.633.419-1.302.782-2 1.082v-13.935c.698.3 1.367.663 2 1.082zm4.051 7.422c-.566 1.005-1.258 1.914-2.051 2.711v-8.497c.792.798 1.485 1.706 2.051 2.711l.864 1.538zm2.012-3.577-.27-.478c-2.431-4.323-6.887-7.112-11.793-7.447v-2.035c0-.771-.224-1.505-.63-2.14.637-.646 1.324-1.24 2.095-1.722l1.123-.703c.885-.551 1.412-1.502 1.412-2.543v-1.544l1.16-.193c.943-.158 1.762-.762 2.189-1.617l.545-1.089-1.789-.896-.545 1.09c-.143.285-.415.486-.729.539l-4.767.794c-1.077.173-2.064-.673-2.064-1.747v-6.848l-1.78-.89 1.809-5.494c.833.622 1.854 1.003 2.971 1.003h2c1.654 0 3 1.346 3 3v3c0 2.607 1.673 4.824 4 5.65v5.242c0 1.042.527 1.993 1.41 2.544l1.124.703c2.967 1.854 4.916 4.959 5.353 8.406-2.174.753-4.05 2.26-5.21 4.323zm2.357 4.192-1.21-2.152 1.211-2.152c.418-.745.957-1.396 1.579-1.946v8.196c-.622-.55-1.161-1.201-1.58-1.946zm5.58 3.782c-.697-.093-1.366-.294-2-.569v-10.73c.634-.276 1.303-.476 2-.569z"/></g></svg>