<?xml version="1.0" encoding="iso-8859-1"?>
<!-- Generator: Adobe Illustrator 19.0.0, SVG Export Plug-In . SVG Version: 6.00 Build 0)  -->
<svg version="1.1" id="Capa_1" xmlns="http://www.w3.org/2000/svg" xmlns:xlink="http://www.w3.org/1999/xlink" x="0px" y="0px"
	 viewBox="0 0 507.968 507.968" style="enable-background:new 0 0 507.968 507.968;" xml:space="preserve">
<path style="fill:#F9E0A6;" d="M493.984,493.636c0,0-80-136-240-136s-240,136-240,136H493.984z"/>
<g>
	<path style="fill:#EABD8C;" d="M253.984,357.636c-9.632,0-18.952,0.52-28,1.44c141.32,14.464,212,134.56,212,134.56h56
		C493.984,493.636,413.984,357.636,253.984,357.636z"/>
	<path style="fill:#EABD8C;" d="M189.984,229.636l-11.032,11.032c-3.184,3.184-4.968,7.496-4.968,12l0,0
		c0,9.368,7.6,16.968,16.968,16.968l0,0c4.504,0,8.816-1.784,12-4.968l27.032-27.032l8-8H189.984z"/>
</g>
<path style="fill:#F9E0A6;" d="M445.984,189.636h-24l-72-72l-32-24l-32,40l5.88,16c1.36,3.184,2.12,6.688,2.12,10.376l0,0
	c0,12.576-8.872,23.4-21.2,25.864l-18.8,3.76h-60c-11.048,0-20,8.952-20,20l0,0c0,11.048,8.952,20,20,20h84l88,40h80V189.636z"/>
<path style="fill:#48C397;" d="M245.984,189.636L382.672,52.948c4.24-4.24,6.624-10,6.624-16l0,0
	c0-12.496-10.128-22.624-22.624-22.624l0,0c-6,0-11.76,2.384-16,6.624L133.984,237.636l32,32l40-40L245.984,189.636z"/>
<path style="fill:#EABD8C;" d="M237.984,229.636l-11.032,11.032c-3.184,3.184-4.968,7.496-4.968,12l0,0
	c0,9.368,7.6,16.968,16.968,16.968l0,0c4.504,0,8.816-1.784,12-4.968l27.032-27.032l8-8H237.984z"/>
<path style="fill:#F9E0A6;" d="M170.744,201.348c-3.064,2.76-7.04,4.288-11.168,4.288h-0.904c-9.216,0-16.688-7.472-16.688-16.688
	l0,0c0-4.656,1.944-9.104,5.368-12.264l91.736-84.68c4.432-4.096,10.248-6.368,16.28-6.368h30.616L170.744,201.348z"/>
<rect x="445.984" y="165.636" style="fill:#48C397;" width="48" height="128"/>
<path style="fill:#F9E0A6;" d="M193.984,189.636c-11.048,0-20,8.952-20,20s8.952,20,20,20h52v-40H193.984z"/>
<path style="fill:#ECECEC;" d="M157.984,261.636l-112,112v-35.712c0-18.112,7.192-35.48,20-48.288l0,0
	c12.808-12.808,30.176-20,48.288-20h3.712l24-24L157.984,261.636z"/>
<rect x="130.689" y="250.32" transform="matrix(-0.7071 0.7071 -0.7071 -0.7071 427.4123 346.224)" style="fill:#B6C1CE;" width="22.624" height="22.624"/>
<rect x="421.984" y="189.636" style="fill:#EABD8C;" width="24" height="80"/>
<path d="M165.984,280.948l9.144-9.144c4.408,3.648,9.896,5.832,15.824,5.832c6.576,0,13.008-2.664,17.656-7.312l7.552-7.552
	c3.896,8.736,12.632,14.864,22.792,14.864c6.576,0,13.008-2.664,17.656-7.312l28.608-28.608l79.032,35.92h73.736v24h64v-144h-64v24
	h-12.688L355.64,111.98l-13.008-7.672l45.696-45.696c5.784-5.784,8.968-13.472,8.968-21.656c0-16.888-13.744-30.624-30.624-30.624
	c-8.176,0-15.872,3.184-21.656,8.968l-62.344,62.336h-27.304c-8.064,0-15.768,3.008-21.712,8.488l-91.736,84.68
	c-5.048,4.656-7.936,11.272-7.936,18.144c0,10.088,6.104,18.76,14.792,22.584l-26.104,26.104l8,8l-16,16h-0.408
	c-20.376,0-39.528,7.936-53.936,22.344s-22.344,33.56-22.344,53.936v55.032l120-120L165.984,280.948z M197.296,259.012
	c-2.792,2.792-7.28,3.064-10.672,1.296l22.672-22.672h9.376L197.296,259.012z M245.296,259.012
	c-1.672,1.664-3.984,2.624-6.344,2.624c-4.944,0-8.968-4.024-8.968-8.968c0-2.4,0.928-4.648,2.624-6.344l8.688-8.688h25.376
	L245.296,259.012z M453.984,173.636h32v112h-32v-8v-96V173.636z M345.088,124.052l73.584,73.584h19.312v64H367.72l-88-40h-85.736
	c-6.616,0-12-5.384-12-12s5.384-12,12-12h60l20.368-3.912c16.016-3.208,27.632-17.384,27.632-33.712
	c0-4.352-0.888-8.568-2.472-12.592l31.44-31.44L345.088,124.052z M285.896,161.036c-0.472,8.288-6.464,15.352-14.68,16.992
	l-2.888,0.576L285.896,161.036z M356.328,26.604c2.72-2.72,6.496-4.28,10.344-4.28c8.064,0,14.624,6.56,14.624,14.624
	c0,3.912-1.52,7.584-4.28,10.344L242.672,181.636h-41.376L356.328,26.604z M159.576,197.636h-0.896c-4.8,0-8.696-3.896-8.696-8.688
	c0-2.416,1.016-4.752,2.8-6.384l91.728-84.672c2.968-2.752,6.824-4.256,10.856-4.256h11.304L164.128,196.18
	C162.752,197.044,161.224,197.636,159.576,197.636z M166.816,216.116c2.44,10.224,10.464,18.248,20.688,20.688l-21.52,21.52
	l-20.688-20.688L166.816,216.116z M53.984,354.324v-16.408c0-16.104,6.272-31.232,17.656-42.624
	c11.392-11.384,26.52-17.656,42.624-17.656h7.032l20.688-20.688l4.688,4.688L53.984,354.324z"/>
<path d="M500.88,489.58c-0.824-1.4-84.2-139.944-246.896-139.944S7.912,488.18,7.088,489.58L0,501.636h507.968L500.88,489.58z
	 M29.088,485.636c23.856-32.608,99.512-120,224.896-120s201.04,87.392,224.896,120H29.088z"/>
<rect x="237.984" y="381.636" width="32" height="16"/>
<rect x="153.177" y="396.58" transform="matrix(-0.9397 0.3419 -0.3419 -0.9397 466.4858 726.9246)" width="31.999" height="15.991"/>
<rect x="78.531" y="439.666" transform="matrix(-0.766 0.6429 -0.6429 -0.766 454.7309 729.787)" width="32.001" height="15.993"/>
<rect x="405.415" y="431.64" transform="matrix(-0.6428 0.7661 -0.7661 -0.6428 1022.0598 418.6711)" width="15.993" height="32.002"/>
<rect x="330.809" y="388.548" transform="matrix(-0.342 0.9397 -0.9397 -0.342 834.8295 224.5283)" width="15.992" height="32"/>
<g>
</g>
<g>
</g>
<g>
</g>
<g>
</g>
<g>
</g>
<g>
</g>
<g>
</g>
<g>
</g>
<g>
</g>
<g>
</g>
<g>
</g>
<g>
</g>
<g>
</g>
<g>
</g>
<g>
</g>
</svg>
