<?xml version="1.0" encoding="UTF-8" standalone="no"?>
<svg
   xmlns:dc="http://purl.org/dc/elements/1.1/"
   xmlns:cc="http://creativecommons.org/ns#"
   xmlns:rdf="http://www.w3.org/1999/02/22-rdf-syntax-ns#"
   xmlns:svg="http://www.w3.org/2000/svg"
   xmlns="http://www.w3.org/2000/svg"
   xmlns:sodipodi="http://sodipodi.sourceforge.net/DTD/sodipodi-0.dtd"
   xmlns:inkscape="http://www.inkscape.org/namespaces/inkscape"
   inkscape:version="1.0 (4035a4fb49, 2020-05-01)"
   height="24"
   width="24"
   sodipodi:docname="surgery.svg"
   xml:space="preserve"
   viewBox="0 0 24.000001 24.000001"
   y="0px"
   x="0px"
   id="Capa_1"
   version="1.1"><metadata
   id="metadata77"><rdf:RDF><cc:Work
       rdf:about=""><dc:format>image/svg+xml</dc:format><dc:type
         rdf:resource="http://purl.org/dc/dcmitype/StillImage" /><dc:title></dc:title></cc:Work></rdf:RDF></metadata><defs
   id="defs75" /><sodipodi:namedview
   inkscape:current-layer="Capa_1"
   inkscape:window-maximized="1"
   inkscape:window-y="0"
   inkscape:window-x="0"
   inkscape:cy="23.898894"
   inkscape:cx="22.580073"
   inkscape:zoom="15.875016"
   showgrid="false"
   id="namedview73"
   inkscape:window-height="1417"
   inkscape:window-width="2560"
   inkscape:pageshadow="2"
   inkscape:pageopacity="0"
   guidetolerance="10"
   gridtolerance="10"
   objecttolerance="10"
   borderopacity="1"
   bordercolor="#666666"
   pagecolor="#ffffff" />
<path
   id="path2"
   d="m 23.339297,23.023687 c 0,0 -3.779766,-6.425602 -11.339297,-6.425602 -7.5595313,0 -11.33929696,6.425602 -11.33929696,6.425602 z"
   style="fill:#f9e0a6;stroke-width:0.0472471" />
<g
   transform="matrix(0.04724707,0,0,0.04724707,0,-0.29916845)"
   id="g8">
	<path
   id="path4"
   d="m 253.984,357.636 c -9.632,0 -18.952,0.52 -28,1.44 141.32,14.464 212,134.56 212,134.56 h 56 c 0,0 -80,-136 -240,-136 z"
   style="fill:#eabd8c" />
	<path
   id="path6"
   d="m 189.984,229.636 -11.032,11.032 c -3.184,3.184 -4.968,7.496 -4.968,12 v 0 c 0,9.368 7.6,16.968 16.968,16.968 v 0 c 4.504,0 8.816,-1.784 12,-4.968 l 27.032,-27.032 8,-8 z"
   style="fill:#eabd8c" />
</g>
<path
   id="path10"
   d="m 21.071438,8.660577 h -1.13393 L 16.535719,5.258788 15.023813,4.1248583 13.511906,6.0147411 13.789719,6.7706942 c 0.06426,0.1504347 0.100164,0.3159884 0.100164,0.4902356 v 0 c 0,0.5941792 -0.419176,1.1055815 -1.001638,1.2219983 L 12,8.660577 H 9.1651758 c -0.5219857,0 -0.9449415,0.4229558 -0.9449415,0.9449415 v 0 c 0,0.5219855 0.4229558,0.9449415 0.9449415,0.9449415 H 13.13393 l 4.157742,1.889883 h 3.779766 z"
   style="fill:#f9e0a6;stroke-width:0.0472471" />
<path
   id="path12"
   d="m 11.622023,8.660577 6.458108,-6.4581076 c 0.200328,-0.2003275 0.312965,-0.4724707 0.312965,-0.7559531 v 0 c 0,-0.59039938 -0.478519,-1.06891771 -1.068918,-1.06891771 v 0 c -0.283483,0 -0.555626,0.11263702 -0.755953,0.3129646 L 6.3303515,10.928436 7.8422578,12.440343 9.7321406,10.55046 Z"
   style="fill:#48c397;stroke-width:0.0472471" />
<path
   id="path14"
   d="m 11.244047,10.55046 -0.52123,0.52123 c -0.150434,0.150434 -0.234723,0.354164 -0.234723,0.566964 v 0 c 0,0.442611 0.359077,0.801689 0.801688,0.801689 v 0 c 0.212801,0 0.41653,-0.08429 0.566965,-0.234724 l 1.277183,-1.277183 0.377976,-0.377976 z"
   style="fill:#eabd8c;stroke-width:0.0472471" />
<path
   id="path16"
   d="M 8.0671538,9.2139347 C 7.9223888,9.3443367 7.7345345,9.4165302 7.5394986,9.4165302 h -0.042711 c -0.435429,0 -0.7884591,-0.3530301 -0.7884591,-0.7884591 v 0 c 0,-0.2199824 0.091848,-0.4301374 0.2536223,-0.5794381 L 11.296208,4.047751 C 11.505607,3.854227 11.780396,3.7468817 12.06539,3.7468817 h 1.446516 z"
   style="fill:#f9e0a6;stroke-width:0.0472471" />
<rect
   id="rect18"
   height="6.0476251"
   width="2.2678595"
   style="fill:#48c397;stroke-width:0.0472471"
   y="7.5266476"
   x="21.071438" />
<path
   id="path20"
   d="m 9.1651758,8.660577 c -0.5219857,0 -0.9449415,0.4229558 -0.9449415,0.9449415 0,0.5219855 0.4229558,0.9449415 0.9449415,0.9449415 H 11.622023 V 8.660577 Z"
   style="fill:#f9e0a6;stroke-width:0.0472471" />
<path
   id="path22"
   d="m 7.4642812,12.062366 -5.2916719,5.291672 v -1.687287 c 0,-0.855739 0.3398009,-1.676326 0.9449414,-2.281467 v 0 c 0.6051405,-0.60514 1.4257276,-0.944941 2.2814666,-0.944941 h 0.1753811 l 1.1339297,-1.13393 z"
   style="fill:#ececec;stroke-width:0.0472471" />
<rect
   id="rect24"
   height="1.0689075"
   width="1.0689075"
   style="fill:#b6c1ce;stroke-width:0.0472466"
   transform="rotate(135)"
   y="-13.807884"
   x="3.2506714" />
<rect
   id="rect26"
   height="3.7797656"
   width="1.1339297"
   style="fill:#eabd8c;stroke-width:0.0472471"
   y="8.6605768"
   x="19.937508" />
<path
   style="stroke-width:0.0472471"
   id="path28"
   d="M 7.8422578,12.974802 8.274285,12.542774 c 0.2082651,0.172358 0.467557,0.275545 0.7476376,0.275545 0.3106968,0 0.6145899,-0.125866 0.8341943,-0.34547 l 0.3568101,-0.35681 c 0.184074,0.41275 0.596825,0.70228 1.076855,0.70228 0.310697,0 0.61459,-0.125866 0.834194,-0.34547 l 1.351645,-1.351645 3.73403,1.697115 h 3.48381 v 1.13393 h 3.023813 V 7.1486708 H 20.693461 V 8.2826005 H 20.09399 L 16.802948,4.9915585 16.188358,4.629079 18.34736,2.4700769 C 18.620638,2.1967998 18.771072,1.8335643 18.771072,1.4468943 18.771072,0.64898576 18.121708,0 17.324178,0 16.937886,0 16.574272,0.15043467 16.300995,0.42371173 L 13.355424,3.3689051 H 12.06539 c -0.381,0 -0.744992,0.1421192 -1.025828,0.4010332 L 6.7053043,7.7708202 c -0.2385032,0.2199824 -0.3749528,0.532569 -0.3749528,0.8572509 0,0.4766284 0.2883961,0.886355 0.6988787,1.0670278 l -1.2333375,1.2333371 0.3779765,0.377977 -0.7559531,0.755953 h -0.019277 c -0.9627063,0 -1.8675822,0.374953 -2.548318,1.055689 -0.6807358,0.680735 -1.0556886,1.585611 -1.0556886,2.548318 v 2.6001 L 7.4642812,12.596825 Z M 9.3216581,11.93839 c -0.1319139,0.131914 -0.3439587,0.144765 -0.5042208,0.06123 l 1.0711856,-1.071186 h 0.4429881 z m 2.2678589,0 c -0.079,0.07862 -0.188232,0.123976 -0.299735,0.123976 -0.233589,0 -0.423712,-0.190122 -0.423712,-0.423712 0,-0.113393 0.04385,-0.219604 0.123977,-0.299735 l 0.410482,-0.410483 h 1.198942 z M 21.449414,7.9046239 H 22.96132 V 13.196296 H 21.449414 V 12.818319 8.2826005 Z m -5.145017,-2.3426987 3.476629,3.4766284 h 0.912435 V 12.062366 H 17.373693 L 13.215951,10.172483 H 9.1651758 c -0.3125867,0 -0.5669649,-0.2543779 -0.5669649,-0.5669645 0,-0.3125867 0.2543782,-0.5669649 0.5669649,-0.5669649 H 12 l 0.962328,-0.1848305 c 0.756709,-0.1515686 1.305531,-0.8213431 1.305531,-1.5927933 0,-0.2056192 -0.04195,-0.4048129 -0.116794,-0.5949351 l 1.485448,-1.4854479 z m -2.796648,1.7473856 c -0.0223,0.3915837 -0.305406,0.7253371 -0.693587,0.8028222 l -0.13645,0.027214 z m 3.327705,-6.35151818 c 0.128512,-0.12851204 0.306917,-0.20221747 0.488724,-0.20221747 0.381,0 0.690941,0.30994075 0.690941,0.69094115 0,0.1848306 -0.07181,0.3583218 -0.202217,0.4887237 L 11.465541,8.2826005 H 9.5106463 Z M 7.5394986,9.0385536 h -0.042333 c -0.226786,0 -0.4108606,-0.1840746 -0.4108606,-0.4104825 0,-0.114149 0.048003,-0.2245181 0.1322918,-0.3016253 L 11.552476,4.3259418 C 11.692705,4.1959179 11.87489,4.1248583 12.06539,4.1248583 h 0.534081 L 7.7545672,8.9697619 c -0.065012,0.040821 -0.1372055,0.068792 -0.2150686,0.068792 z M 7.8815673,9.9116795 C 7.9968502,10.394734 8.3759607,10.773844 8.8590147,10.889127 L 7.8422578,11.905884 6.8648104,10.928436 Z M 2.5505859,16.441603 v -0.77523 c 0,-0.760867 0.2963336,-1.475621 0.8341942,-2.013859 0.5382387,-0.537861 1.2529924,-0.834195 2.0138592,-0.834195 h 0.3322414 l 0.9774474,-0.977447 0.2214943,0.221494 z" />
<path
   style="stroke-width:0.0472471"
   id="path30"
   d="M 23.665113,22.832052 C 23.626181,22.765907 19.686909,16.220108 12,16.220108 c -7.6869094,0 -11.62618118,6.545799 -11.66511276,6.611944 L 0,23.401663 H 24 Z M 1.3743228,22.64571 C 2.5014489,21.105077 6.0759733,16.976061 12,16.976061 c 5.924027,0 9.498551,4.129016 10.625677,5.669649 z" />
<rect
   style="stroke-width:0.0472471"
   id="rect32"
   height="0.75595313"
   width="1.5119063"
   y="17.732014"
   x="11.244046" />
<rect
   style="stroke-width:0.0472455"
   id="rect34"
   height="0.7555021"
   width="1.5118074"
   transform="rotate(160.00661)"
   y="-20.793175"
   x="-1.8341728" />
<rect
   style="stroke-width:0.047249"
   id="rect36"
   height="0.7556513"
   width="1.5120112"
   transform="rotate(139.99343)"
   y="-19.220009"
   x="9.228056" />
<rect
   style="stroke-width:0.0472494"
   id="rect38"
   height="1.5120771"
   width="0.75566059"
   transform="rotate(129.9985)"
   y="-29.120108"
   x="3.0410893" />
<rect
   style="stroke-width:0.0472471"
   id="rect40"
   height="1.5119063"
   width="0.75557518"
   transform="rotate(109.99877)"
   y="-22.232788"
   x="11.827661" />
<g
   id="g42">
</g>
<g
   id="g44">
</g>
<g
   id="g46">
</g>
<g
   id="g48">
</g>
<g
   id="g50">
</g>
<g
   id="g52">
</g>
<g
   id="g54">
</g>
<g
   id="g56">
</g>
<g
   id="g58">
</g>
<g
   id="g60">
</g>
<g
   id="g62">
</g>
<g
   id="g64">
</g>
<g
   id="g66">
</g>
<g
   id="g68">
</g>
<g
   id="g70">
</g>
</svg>
