<?xml version="1.0" encoding="UTF-8" standalone="no"?>
<!-- Generator: Adobe Illustrator 19.0.0, SVG Export Plug-In . SVG Version: 6.00 Build 0)  -->

<svg
   xmlns:dc="http://purl.org/dc/elements/1.1/"
   xmlns:cc="http://creativecommons.org/ns#"
   xmlns:rdf="http://www.w3.org/1999/02/22-rdf-syntax-ns#"
   xmlns:svg="http://www.w3.org/2000/svg"
   xmlns="http://www.w3.org/2000/svg"
   xmlns:sodipodi="http://sodipodi.sourceforge.net/DTD/sodipodi-0.dtd"
   xmlns:inkscape="http://www.inkscape.org/namespaces/inkscape"
   version="1.1"
   id="Capa_1"
   x="0px"
   y="0px"
   viewBox="0 0 460 460"
   style="enable-background:new 0 0 460 460;"
   xml:space="preserve"
   sodipodi:docname="surgery.svg"
   inkscape:version="0.92.2 2405546, 2018-03-11"><metadata
   id="metadata45"><rdf:RDF><cc:Work
       rdf:about=""><dc:format>image/svg+xml</dc:format><dc:type
         rdf:resource="http://purl.org/dc/dcmitype/StillImage" /></cc:Work></rdf:RDF></metadata><defs
   id="defs43">
	
	
	
</defs><sodipodi:namedview
   pagecolor="#ffffff"
   bordercolor="#666666"
   borderopacity="1"
   objecttolerance="10"
   gridtolerance="10"
   guidetolerance="10"
   inkscape:pageopacity="0"
   inkscape:pageshadow="2"
   inkscape:window-width="2560"
   inkscape:window-height="1347"
   id="namedview41"
   showgrid="false"
   inkscape:zoom="0.5130435"
   inkscape:cx="-646.144"
   inkscape:cy="46.001834"
   inkscape:window-x="0"
   inkscape:window-y="0"
   inkscape:window-maximized="1"
   inkscape:current-layer="Capa_1" />

<g
   id="g10">
</g>
<g
   id="g12">
</g>
<g
   id="g14">
</g>
<g
   id="g16">
</g>
<g
   id="g18">
</g>
<g
   id="g20">
</g>
<g
   id="g22">
</g>
<g
   id="g24">
</g>
<g
   id="g26">
</g>
<g
   id="g28">
</g>
<g
   id="g30">
</g>
<g
   id="g32">
</g>
<g
   id="g34">
</g>
<g
   id="g36">
</g>
<g
   id="g38">
</g>
<g
   id="g851"
   transform="matrix(4.4336089,0,0,4.4336089,1897.9263,-2390.2559)"><path
     style="fill:#2780e3;fill-opacity:1"
     id="path2"
     d="m -385.38005,588.30971 0.541,0.54 -38.571,39.982 1.972,2.082 c 0.193,0.204 4.811,5 11.563,5.092 0.067,0 0.134,10e-4 0.202,10e-4 4.373,0 8.521,-1.932 12.331,-5.742 6.481,-6.48 7.542,-7.643 7.713,-7.845 l 1.128,-1.334 -1.967,-5.342 17.043,-15.482 0.596,0.596 8.695,-7.804 -13.285,-13.281 z m -12.116,25.712 2.114,5.743 c -1.023,1.051 -2.879,2.935 -6.203,6.258 -2.664,2.665 -5.408,3.979 -8.157,3.984 -1.99,-0.016 -3.737,-0.734 -5.028,-1.488 l 34.175,-35.426 2.922,2.922 z"
     inkscape:connector-curvature="0" /><path
     style="fill:#2780e3;fill-opacity:1"
     id="path4"
     d="m -331.59205,551.11571 -3.301,-3.3 c -1.699,-1.7 -3.96,-2.636 -6.364,-2.636 -2.405,0 -4.665,0.937 -6.364,2.639 l -26.132,28.023 0.444,-0.444 13.646,13.644 27.954,-25.085 0.118,-0.112 c 3.504,-3.509 3.505,-9.217 -10e-4,-12.729 z"
     inkscape:connector-curvature="0" /></g></svg>