<?xml version="1.0" encoding="UTF-8" standalone="no"?>
<!-- Generator: Adobe Illustrator 19.0.0, SVG Export Plug-In . SVG Version: 6.00 Build 0)  -->

<svg
   xmlns:dc="http://purl.org/dc/elements/1.1/"
   xmlns:cc="http://creativecommons.org/ns#"
   xmlns:rdf="http://www.w3.org/1999/02/22-rdf-syntax-ns#"
   xmlns:svg="http://www.w3.org/2000/svg"
   xmlns="http://www.w3.org/2000/svg"
   xmlns:sodipodi="http://sodipodi.sourceforge.net/DTD/sodipodi-0.dtd"
   xmlns:inkscape="http://www.inkscape.org/namespaces/inkscape"
   version="1.1"
   id="Capa_1"
   x="0px"
   y="0px"
   viewBox="0 0 460 460"
   style="enable-background:new 0 0 460 460;"
   xml:space="preserve"
   sodipodi:docname="forceps.svg"
   inkscape:version="0.92.2 2405546, 2018-03-11"><metadata
   id="metadata45"><rdf:RDF><cc:Work
       rdf:about=""><dc:format>image/svg+xml</dc:format><dc:type
         rdf:resource="http://purl.org/dc/dcmitype/StillImage" /></cc:Work></rdf:RDF></metadata><defs
   id="defs43">
	
	
	
</defs><sodipodi:namedview
   pagecolor="#ffffff"
   bordercolor="#666666"
   borderopacity="1"
   objecttolerance="10"
   gridtolerance="10"
   guidetolerance="10"
   inkscape:pageopacity="0"
   inkscape:pageshadow="2"
   inkscape:window-width="2485"
   inkscape:window-height="1399"
   id="namedview41"
   showgrid="false"
   inkscape:zoom="1.026087"
   inkscape:cx="20.130413"
   inkscape:cy="70.998585"
   inkscape:window-x="75"
   inkscape:window-y="0"
   inkscape:window-maximized="1"
   inkscape:current-layer="Capa_1" />
<g
   id="g858"
   transform="matrix(0.87076271,0,0,0.87076271,31.186441,32.161016)"><path
     style="fill:#6a6c6c;fill-opacity:1"
     d="m 365,270 c -38.432,0 -71.53,22.822 -86.49,55.652 L 253.057,281.541 230,321.474 l 52.728,91.322 c 0,0 0.006,-0.087 0.016,-0.242 C 299.178,440.919 329.859,460 365,460 c 52.467,0 95,-42.533 95,-95 0,-52.467 -42.533,-95 -95,-95 z m 0,150 c -30.327,0 -55,-24.673 -55,-55 0,-30.327 24.673,-55 55,-55 30.327,0 55,24.673 55,55 0,30.327 -24.673,55 -55,55 z"
     id="path2"
     inkscape:connector-curvature="0" /><path
     style="fill:#6a6c6c;fill-opacity:1"
     d="m 181.037,156.727 c 6.497,-1.217 12.904,-3.523 18.953,-7.015 28.698,-16.569 38.53,-53.264 21.962,-81.961 L 200.28,30.01 C 183.711,1.313 147.016,-8.52 118.318,8.048 89.621,24.617 79.788,61.313 96.357,90.01 L 206.943,281.541 230,241.582 Z m -28.368,-48.95 -21.672,-37.74 c -5.514,-9.55 -2.23,-21.806 7.321,-27.321 9.55,-5.514 21.807,-2.23 27.32,7.321 l 21.672,37.74 c 5.514,9.55 2.23,21.807 -7.32,27.32 -9.55,5.514 -21.807,2.23 -27.321,-7.32 z"
     id="path4"
     inkscape:connector-curvature="0" /><path
     style="fill:#18bc9c;fill-opacity:0.98431373"
     d="M 363.643,90.01 C 380.212,61.312 370.379,24.617 341.682,8.048 312.984,-8.52 276.289,1.313 259.72,30.01 l -21.672,37.74 c -16.569,28.698 -6.736,65.393 21.962,81.961 6.05,3.493 12.456,5.799 18.953,7.015 L 230,241.582 206.943,281.54 181.49,325.651 C 166.53,292.822 133.432,270 95,270 42.533,270 0,312.533 0,365 c 0,52.467 42.533,95 95,95 35.141,0 65.822,-19.081 82.256,-47.446 0.011,0.155 0.016,0.242 0.016,0.242 L 230,321.474 253.057,281.54 Z m -90.953,-2.233 21.672,-37.74 c 5.514,-9.55 17.77,-12.834 27.32,-7.321 9.55,5.514 12.834,17.77 7.321,27.321 l -21.672,37.74 c -5.514,9.55 -17.77,12.834 -27.321,7.32 -9.55,-5.513 -12.834,-17.77 -7.32,-27.32 z M 95,420 c -30.327,0 -55,-24.673 -55,-55 0,-30.327 24.673,-55 55,-55 30.327,0 55,24.673 55,55 0,30.327 -24.673,55 -55,55 z"
     id="path6"
     inkscape:connector-curvature="0" /></g>
<g
   id="g10">
</g>
<g
   id="g12">
</g>
<g
   id="g14">
</g>
<g
   id="g16">
</g>
<g
   id="g18">
</g>
<g
   id="g20">
</g>
<g
   id="g22">
</g>
<g
   id="g24">
</g>
<g
   id="g26">
</g>
<g
   id="g28">
</g>
<g
   id="g30">
</g>
<g
   id="g32">
</g>
<g
   id="g34">
</g>
<g
   id="g36">
</g>
<g
   id="g38">
</g>
</svg>