<?xml version="1.0" encoding="UTF-8" standalone="no"?>
<!-- Created with Inkscape (http://www.inkscape.org/) -->

<svg
   xmlns:dc="http://purl.org/dc/elements/1.1/"
   xmlns:cc="http://creativecommons.org/ns#"
   xmlns:rdf="http://www.w3.org/1999/02/22-rdf-syntax-ns#"
   xmlns:svg="http://www.w3.org/2000/svg"
   xmlns="http://www.w3.org/2000/svg"
   xmlns:sodipodi="http://sodipodi.sourceforge.net/DTD/sodipodi-0.dtd"
   xmlns:inkscape="http://www.inkscape.org/namespaces/inkscape"
   width="100mm"
   height="100mm"
   viewBox="0 0 100 100"
   version="1.1"
   id="svg5783"
   inkscape:version="0.92.2 2405546, 2018-03-11"
   sodipodi:docname="system_organ.svg">
  <defs
     id="defs5777" />
  <sodipodi:namedview
     id="base"
     pagecolor="#ffffff"
     bordercolor="#666666"
     borderopacity="1.0"
     inkscape:pageopacity="0.0"
     inkscape:pageshadow="2"
     inkscape:zoom="1.4"
     inkscape:cx="-157.31754"
     inkscape:cy="154.12178"
     inkscape:document-units="mm"
     inkscape:current-layer="layer1"
     showgrid="false"
     inkscape:window-width="2560"
     inkscape:window-height="1347"
     inkscape:window-x="0"
     inkscape:window-y="0"
     inkscape:window-maximized="1" />
  <metadata
     id="metadata5780">
    <rdf:RDF>
      <cc:Work
         rdf:about="">
        <dc:format>image/svg+xml</dc:format>
        <dc:type
           rdf:resource="http://purl.org/dc/dcmitype/StillImage" />
        <dc:title />
      </cc:Work>
    </rdf:RDF>
  </metadata>
  <g
     inkscape:label="Capa 1"
     inkscape:groupmode="layer"
     id="layer1"
     transform="translate(0,-197)">
    <g
       id="g836"
       transform="matrix(1.1168383,0,0,1.1168383,202.7399,-36.18998)">
      <path
         sodipodi:nodetypes="cccccccccccccc"
         d="m -167.06032,235.65642 c -9.64553,12.69589 -11.62681,34.10905 -12.08932,42.36866 -0.14726,2.14451 0.76818,4.28902 2.44379,5.66218 1.53957,1.21947 3.52085,1.68519 5.3549,1.37952 l 18.51968,-2.60383 c 10.85543,-1.68201 8.55887,-20.6498 8.86454,-28.14601 1.83565,-1.83566 3.98337,-4.58993 7.0417,-7.4962 0.77518,0.74431 3.49425,-0.90887 2.74947,-1.6836 l 0.16005,-16.21356 h -5.20926 l -0.30408,16.21356 c 0.30408,-0.30577 -1.98128,2.29816 -4.58512,5.20285 0.61135,-21.56844 -1.52996,-42.98481 -22.94635,-14.68357 v 0"
         style="fill:#2780e3;fill-opacity:1;fill-rule:evenodd;stroke:none;stroke-width:0.16003875"
         id="path74"
         inkscape:connector-curvature="0" />
      <path
         sodipodi:nodetypes="cccccccccc"
         d="m -136.92503,246.82074 c 3.21358,3.21194 5.80621,5.96785 7.79869,7.95552 0.30567,7.34098 -2.13811,26.00468 8.57008,27.68669 l 18.50848,2.60383 c 1.83403,0.30576 3.82494,-0.16015 5.35329,-1.37952 1.68682,-1.37316 2.60383,-3.51767 2.44538,-5.66218 -0.30395,-8.25961 -2.29654,-29.67277 -11.93249,-42.36866 -21.72204,-28.61013 -23.70332,-6.42713 -23.09197,15.29328 -2.455,-2.90306 -4.74196,-5.66055 -4.90199,-5.81256 l -1.37676,0.49079"
         style="fill:#2780e3;fill-opacity:1;fill-rule:evenodd;stroke:none;stroke-width:0.16003877"
         id="path74-3"
         inkscape:connector-curvature="0" />
    </g>
  </g>
</svg>
