<?xml version="1.0" encoding="UTF-8" standalone="no"?>
<svg
   xmlns:dc="http://purl.org/dc/elements/1.1/"
   xmlns:cc="http://creativecommons.org/ns#"
   xmlns:rdf="http://www.w3.org/1999/02/22-rdf-syntax-ns#"
   xmlns:svg="http://www.w3.org/2000/svg"
   xmlns="http://www.w3.org/2000/svg"
   xmlns:sodipodi="http://sodipodi.sourceforge.net/DTD/sodipodi-0.dtd"
   xmlns:inkscape="http://www.inkscape.org/namespaces/inkscape"
   inkscape:version="1.0 (4035a4fb49, 2020-05-01)"
   sodipodi:docname="system_organ.svg"
   id="svg22"
   version="1.1"
   width="24pt"
   viewBox="0 0 24 24"
   height="24pt">
  <metadata
     id="metadata28">
    <rdf:RDF>
      <cc:Work
         rdf:about="">
        <dc:format>image/svg+xml</dc:format>
        <dc:type
           rdf:resource="http://purl.org/dc/dcmitype/StillImage" />
        <dc:title></dc:title>
      </cc:Work>
    </rdf:RDF>
  </metadata>
  <defs
     id="defs26" />
  <sodipodi:namedview
     inkscape:current-layer="svg22"
     inkscape:window-maximized="1"
     inkscape:window-y="0"
     inkscape:window-x="0"
     inkscape:cy="7.7916743"
     inkscape:cx="7.9538316"
     inkscape:zoom="17.244281"
     showgrid="false"
     id="namedview24"
     inkscape:window-height="1417"
     inkscape:window-width="2560"
     inkscape:pageshadow="2"
     inkscape:pageopacity="0"
     guidetolerance="10"
     gridtolerance="10"
     objecttolerance="10"
     borderopacity="1"
     bordercolor="#666666"
     pagecolor="#ffffff" />
  <g
     transform="matrix(0.04502441,0,0,0.04502441,0.75398637,0.99132728)"
     id="g8"
     fill="#ecc19c">
    <path
       id="path2"
       d="m 232,168 -59.51953,54.96094 c -16.08203,-10.88282 -30.71875,-23.67969 -43.67969,-38 l 58.48047,-54.24219 z m 0,0" />
    <path
       id="path4"
       d="m 308.71875,130.71875 58.48047,54.24219 c -12.96094,14.32031 -27.59766,27.11718 -43.67969,38 L 264,168 Z m 0,0" />
    <path
       id="path6"
       d="M 280,104 308.71875,130.71875 264,168 H 232 L 187.28125,130.71875 216,104 Z m 0,0" />
  </g>
  <path
     style="stroke-width:0.0450244"
     id="path10"
     fill="#e6e9ed"
     d="m 10.47926,1.3515226 h 2.881562 V 2.7923038 H 10.47926 Z m 0,0" />
  <path
     style="stroke-width:0.0450244"
     id="path12"
     fill="#e6e9ed"
     d="m 10.47926,4.2330851 h 2.881562 V 5.6738664 H 10.47926 Z m 0,0" />
  <path
     style="stroke-width:0.0450244"
     id="path14"
     fill="#e6e9ed"
     d="m 10.47926,2.7923038 h 2.881562 V 4.2330851 H 10.47926 Z m 0,0" />
  <path
     style="stroke-width:0.0450244"
     id="path16"
     fill="#ef7385"
     d="m 19.484142,5.6738664 c -0.277357,0.7636562 -0.637553,1.4912578 -1.073375,2.1683827 -0.331351,0.5258711 -0.709662,1.0193808 -1.123851,1.476836 -0.583559,0.6447637 -1.242568,1.2209349 -1.966652,1.7109269 -0.31693,0.21967 -0.648281,0.421401 -0.990538,0.605016 l -0.212459,0.115375 c -0.335045,0.180098 -0.579865,0.486299 -0.688029,0.842801 -0.04679,0.133314 -0.06841,0.277357 -0.06841,0.425094 v 8.504162 c 0,0.796017 0.644763,1.440781 1.440781,1.440781 2.190016,0 4.171089,-0.886066 5.604661,-2.319636 1.43357,-1.433571 2.319636,-3.414645 2.319636,-5.604661 V 8.9156241 c 0,-1.7902481 -1.45151,-3.2417577 -3.241758,-3.2417577 z m 0,0" />
  <path
     style="stroke-width:0.0450244"
     id="path18"
     fill="#ef7385"
     d="M 10.410844,12.593204 C 10.30268,12.236702 10.057859,11.930501 9.7228144,11.750403 L 9.5103555,11.635028 C 9.1680996,11.451413 8.836748,11.249682 8.5198184,11.030012 7.7957343,10.54002 7.1367247,9.9638488 6.553166,9.3190851 6.1389766,8.8616299 5.7606661,8.3681202 5.4293145,7.8422491 4.9934922,7.1651242 4.633297,6.4375226 4.3559395,5.6738664 c -1.7902481,0 -3.2417578,1.4515096 -3.2417578,3.2417577 v 6.1233199 c 0,2.190016 0.8860664,4.17109 2.3196366,5.604661 1.4335704,1.43357 3.4146445,2.319636 5.6046602,2.319636 0.7960176,0 1.4407815,-0.644764 1.4407815,-1.440781 v -8.504162 c 0,-0.147737 -0.02163,-0.29178 -0.06842,-0.425094 z m 0,0" />
  <path
     style="stroke-width:0.0450244"
     id="path20"
     d="m 19.484142,5.313671 h -0.252558 l -0.086,0.2370817 c -0.43547,1.1978956 -1.079881,2.2936069 -1.887859,3.250024 L 13.721017,5.5168085 V 0.99132728 H 10.119064 V 5.5168085 L 6.5823616,8.8007767 C 5.7740326,7.8447114 5.1299725,6.7490001 4.6941502,5.5507527 L 4.6084983,5.313671 H 4.3559395 c -1.9861747,0 -3.60195313,1.6157785 -3.60195313,3.6019531 v 6.1233199 c 0,4.568395 3.71644883,8.284493 8.28449213,8.284493 0.9929995,0 1.8009765,-0.807978 1.8009765,-1.800977 v -8.504162 c 0,-0.663583 -0.362658,-1.271237 -0.9472714,-1.586056 L 9.6795488,11.318098 C 9.4832705,11.212572 9.2966654,11.092976 9.1086532,10.976019 L 11.340527,8.9156241 h 1.159027 l 2.231874,2.0600429 c -0.188011,0.116958 -0.374617,0.236202 -0.570543,0.341728 l -0.212988,0.114495 c -0.584613,0.31482 -0.947271,0.922473 -0.947271,1.586408 v 8.504162 c 0,0.992999 0.807977,1.800977 1.800977,1.800977 4.568043,0 8.284493,-3.716098 8.284493,-8.284493 V 8.9156241 c 0,-1.9861746 -1.615779,-3.6019531 -3.601954,-3.6019531 z m -6.483516,0 H 10.839455 V 4.5932804 h 2.161171 z m 0,-1.4407813 H 10.839455 V 3.1524991 h 2.161171 z m 0,-2.1611718 V 2.4321086 H 10.839455 V 1.7117179 Z M 10.62084,6.0340617 h 2.598753 l 0.891166,0.8273236 -1.600652,1.3338482 H 11.329975 L 9.7296736,6.8613853 Z M 9.5506312,12.066629 c 0.1952231,0.105175 0.3429594,0.267684 0.4412744,0.457104 L 7.4358908,15.39914 H 4.181294 L 2.4879539,13.028674 1.9015813,13.44726 3.8101944,16.11953 h 0.012307 l 1.1004601,1.37553 -1.0471694,0.785641 h -0.600439 v 0.720391 h 0.8403385 l 0.9606381,-0.720391 v 1.440782 H 5.7967208 V 17.433855 L 4.7453303,16.11953 h 2.4921716 v 3.00151 l 1.1526954,1.536986 0.5761719,-0.431954 -1.0084766,-1.344927 v -2.984978 l 2.1611714,-2.431319 v 8.057612 c 0,0.595694 -0.4848913,1.080585 -1.0805855,1.080585 -4.1710898,0 -7.5641015,-3.393363 -7.5641015,-7.564101 V 8.9156241 c 0,-1.5063832 1.1620168,-2.7464893 2.6362146,-2.8711858 C 4.3515425,6.6626447 4.64596,7.253766 4.985226,7.8141089 L 3.2753535,9.8658855 v 2.6516915 h 0.7203907 v -1.885221 l 1.0805859,0.648281 v 2.677721 H 5.7967208 V 10.872955 L 4.1816457,9.9040507 5.401526,8.4398779 C 6.4159823,9.889277 7.7536998,11.099132 9.3381722,11.952485 Z M 7.0700675,9.3312206 9.1972951,7.3559503 10.653553,8.5694989 8.4941404,10.562884 C 7.9819877,10.19284 7.5062414,9.7814647 7.0700675,9.3312206 Z M 13.186528,8.5691472 14.642787,7.3555984 16.770015,9.3308687 C 16.33384,9.7814647 15.858094,10.19284 15.345941,10.562357 Z m 9.179176,6.4697968 c 0,4.170738 -3.393011,7.564101 -7.564101,7.564101 -0.595694,0 -1.080586,-0.484891 -1.080586,-1.080585 v -8.057612 l 2.161172,2.431319 v 2.984978 l -1.008477,1.344576 0.576172,0.431953 1.152696,-1.536985 V 16.11953 h 2.492171 l -1.051391,1.314325 v 2.287628 h 0.720391 v -1.440782 l 0.960639,0.720391 h 0.840337 v -0.720391 h -0.600442 l -1.047521,-0.785641 1.100812,-1.37553 h 0.01228 l 1.908613,-2.67227 -0.586373,-0.418586 -1.693341,2.370466 h -3.254564 l -2.556015,-2.875759 c 0.09831,-0.189419 0.246051,-0.351929 0.440923,-0.456752 L 14.50191,11.952134 C 16.086382,11.09878 17.4241,9.8892773 18.438556,8.4395263 l 1.21988,1.4641728 -1.615076,0.9692559 v 3.085403 h 0.720391 v -2.677721 l 1.080586,-0.648281 v 1.885221 h 0.72039 V 9.8658855 L 18.854856,7.8137572 c 0.339617,-0.5605189 0.633683,-1.1514643 0.874634,-1.7696706 1.474198,0.1250482 2.636214,1.3651543 2.636214,2.8715375 z m 0,0" />
</svg>
