<?xml version="1.0" encoding="UTF-8" standalone="no"?>
<svg
   xmlns:dc="http://purl.org/dc/elements/1.1/"
   xmlns:cc="http://creativecommons.org/ns#"
   xmlns:rdf="http://www.w3.org/1999/02/22-rdf-syntax-ns#"
   xmlns:svg="http://www.w3.org/2000/svg"
   xmlns="http://www.w3.org/2000/svg"
   xmlns:sodipodi="http://sodipodi.sourceforge.net/DTD/sodipodi-0.dtd"
   xmlns:inkscape="http://www.inkscape.org/namespaces/inkscape"
   inkscape:version="1.0 (4035a4fb49, 2020-05-01)"
   sodipodi:docname="vaccine.svg"
   version="1.1"
   width="24"
   viewBox="0 0 3 3"
   height="24"
   enable-background="new 0 0 64 64"
   id="Layer_5">
  <metadata
     id="metadata61">
    <rdf:RDF>
      <cc:Work
         rdf:about="">
        <dc:format>image/svg+xml</dc:format>
        <dc:type
           rdf:resource="http://purl.org/dc/dcmitype/StillImage" />
        <dc:title></dc:title>
      </cc:Work>
    </rdf:RDF>
  </metadata>
  <defs
     id="defs59" />
  <sodipodi:namedview
     inkscape:current-layer="Layer_5"
     inkscape:window-maximized="1"
     inkscape:window-y="0"
     inkscape:window-x="0"
     inkscape:cy="20.361586"
     inkscape:cx="17.621508"
     inkscape:zoom="15.75"
     showgrid="false"
     id="namedview57"
     inkscape:window-height="1417"
     inkscape:window-width="2560"
     inkscape:pageshadow="2"
     inkscape:pageopacity="0"
     guidetolerance="10"
     gridtolerance="10"
     objecttolerance="10"
     borderopacity="1"
     bordercolor="#666666"
     pagecolor="#ffffff" />
  <g
     transform="matrix(0.04806614,0,0,0.04806614,-0.04806614,-0.04806614)"
     id="g54">
    <g
       id="g50">
      <g
         id="g4">
        <path
           id="path2"
           fill="#ccd1d9"
           d="m 24,4 v 2 c 0,1.1 -0.9,2 -2,2 H 21 11 10 C 8.9,8 8,7.1 8,6 V 4 C 8,2.9 8.9,2 10,2 h 12 c 1.1,0 2,0.9 2,2 z" />
      </g>
      <g
         id="g8">
        <path
           id="path6"
           fill="#a0d468"
           d="m 11,8 h 10 v 4 H 11 Z" />
      </g>
      <g
         id="g12">
        <path
           id="path10"
           fill="#a0d468"
           d="M 30,18 H 2 l 9,-6 h 10 z" />
      </g>
      <g
         id="g16">
        <path
           id="path14"
           fill="#b4dd7f"
           d="m 30,18 v 11 l -4,4 V 23 c 0,-0.55 -0.45,-1 -1,-1 H 7 c -0.55,0 -1,0.45 -1,1 v 18 c 0,0.55 0.45,1 1,1 h 12 v 4 H 6 C 3.79,46 2,44.21 2,42 V 18 Z" />
      </g>
      <g
         id="g20">
        <path
           id="path18"
           fill="#e6e9ed"
           d="m 26,33 -7,7 v 2 H 7 C 6.45,42 6,41.55 6,41 V 23 c 0,-0.55 0.45,-1 1,-1 h 18 c 0.55,0 1,0.45 1,1 z" />
      </g>
      <g
         id="g24">
        <path
           id="path22"
           fill="#fcd770"
           d="m 22,30 v 4 h -4 v 4 h -4 v -4 h -4 v -4 h 4 v -4 h 4 v 4 z" />
      </g>
      <g
         id="g28">
        <path
           id="path26"
           transform="matrix(0.707,-0.707,0.707,0.707,0.502,41.213)"
           fill="#e6e9ed"
           d="m 45.05,15.05 h 9.899 v 9.899 H 45.05 Z" />
      </g>
      <g
         id="g32">
        <path
           id="path30"
           fill="#ccd1d9"
           d="m 54,31 -3,3 -2,-2 -11,-11 -2,-2 3,-3 4,4 7,7 z" />
      </g>
      <g
         id="g36">
        <path
           id="path34"
           transform="matrix(0.707,-0.707,0.707,0.707,5.503,43.284)"
           fill="#ccd1d9"
           d="m 52.879,7.222 h 4.243 v 15.556 h -4.243 z" />
      </g>
      <g
         id="g40">
        <path
           id="path38"
           fill="#e6e9ed"
           d="M 22,51 17,56 15.5,54.5 14,53 19,48 Z" />
      </g>
      <g
         id="g44">
        <path
           id="path42"
           fill="#69d6f4"
           d="m 45,36 -3,3 -3,3 -3,3 -3,3 -3,3 -11,-11 7,-7 4,-4 8,-8 11,11 z" />
      </g>
      <g
         id="g48">
        <path
           id="path46"
           fill="#69d6f4"
           d="M 30,51 H 22 L 19,48 V 46 42 40 Z" />
      </g>
    </g>
    <path
       id="path52"
       d="M 59,23.414 63.414,19 51,6.586 46.586,11 l 2,2 -5.586,5.586 -4,-4 -4.414,4.414 2,2 L 31,26.586 v -9.121 l -9,-6 V 9 c 1.654,0 3,-1.346 3,-3 V 4 C 25,2.346 23.654,1 22,1 H 10 C 8.346,1 7,2.346 7,4 v 2 c 0,1.654 1.346,3 3,3 v 2.465 l -9,6 V 42 c 0,2.757 2.243,5 5,5 h 12 v 0.586 L 12.586,53 l 1.5,1.5 -6.793,6.793 1.414,1.414 6.793,-6.793 1.5,1.5 L 22.414,52 h 8 L 49,33.414 l 2,2 4.414,-4.414 -4,-4 L 57,21.414 Z M 51,9.414 60.586,19 59,20.586 49.414,11 Z M 20.697,13 l 6,4 H 5.303 l 6,-4 z M 9,6 V 4 C 9,3.448 9.449,3 10,3 h 12 c 0.551,0 1,0.448 1,1 v 2 c 0,0.552 -0.449,1 -1,1 H 10 C 9.449,7 9,6.552 9,6 Z m 11,3 v 2 H 12 V 9 Z M 6,45 C 4.346,45 3,43.654 3,42 V 19 h 26 v 9.586 l -2,2 V 23 c 0,-1.103 -0.897,-2 -2,-2 H 7 c -1.103,0 -2,0.897 -2,2 v 18 c 0,1.103 0.897,2 2,2 h 11 v 2 z m 14,2.586 V 42.414 L 27.586,50 h -5.172 z m -1,-9 V 35 h 3.586 z M 11,33 v -2 h 4 v -4 h 2 v 4 h 4 v 2 h -4 v 4 h -2 v -4 z m 8,-4 v -4 h -6 v 4 H 9 v 6 h 4 v 4 h 5.586 L 18,39.586 V 41 H 7 V 23 h 18 v 9.586 l -2,2 V 29 Z M 15.414,53 19,49.414 20.586,51 17,54.586 Z M 45,34.586 39.707,29.293 38.293,30.707 43.586,36 42,37.586 38.707,34.293 37.293,35.707 40.586,39 39,40.586 33.707,35.293 32.293,36.707 37.586,42 36,43.586 32.707,40.293 31.293,41.707 34.586,45 33,46.586 27.707,41.293 26.293,42.707 31.586,48 30,49.586 20.414,40 38,22.414 47.586,32 Z m 6,-2 L 37.414,19 39,17.414 52.586,31 Z m -1,-7 L 44.414,20 50,14.414 55.586,20 Z" />
  </g>
</svg>
