<svg id="Layer_5" enable-background="new 0 0 64 64" height="512" viewBox="0 0 64 64" width="512" xmlns="http://www.w3.org/2000/svg"><g><g><g><path d="m24 4v2c0 1.1-.9 2-2 2h-1-10-1c-1.1 0-2-.9-2-2v-2c0-1.1.9-2 2-2h12c1.1 0 2 .9 2 2z" fill="#ccd1d9"/></g><g><path d="m11 8h10v4h-10z" fill="#a0d468"/></g><g><path d="m30 18h-28l9-6h10z" fill="#a0d468"/></g><g><path d="m30 18v11l-4 4v-10c0-.55-.45-1-1-1h-18c-.55 0-1 .45-1 1v18c0 .55.45 1 1 1h12v4h-13c-2.21 0-4-1.79-4-4v-24z" fill="#b4dd7f"/></g><g><path d="m26 33-7 7v2h-12c-.55 0-1-.45-1-1v-18c0-.55.45-1 1-1h18c.55 0 1 .45 1 1z" fill="#e6e9ed"/></g><g><path d="m22 30v4h-4v4h-4v-4h-4v-4h4v-4h4v4z" fill="#fcd770"/></g><g><path d="m45.05 15.05h9.899v9.899h-9.899z" fill="#e6e9ed" transform="matrix(.707 -.707 .707 .707 .502 41.213)"/></g><g><path d="m54 31-3 3-2-2-11-11-2-2 3-3 4 4 7 7z" fill="#ccd1d9"/></g><g><path d="m52.879 7.222h4.243v15.556h-4.243z" fill="#ccd1d9" transform="matrix(.707 -.707 .707 .707 5.503 43.284)"/></g><g><path d="m22 51-5 5-1.5-1.5-1.5-1.5 5-5z" fill="#e6e9ed"/></g><g><path d="m45 36-3 3-3 3-3 3-3 3-3 3-11-11 7-7 4-4 8-8 11 11z" fill="#69d6f4"/></g><g><path d="m30 51h-8l-3-3v-2-4-2z" fill="#69d6f4"/></g></g><path d="m59 23.414 4.414-4.414-12.414-12.414-4.414 4.414 2 2-5.586 5.586-4-4-4.414 4.414 2 2-5.586 5.586v-9.121l-9-6v-2.465c1.654 0 3-1.346 3-3v-2c0-1.654-1.346-3-3-3h-12c-1.654 0-3 1.346-3 3v2c0 1.654 1.346 3 3 3v2.465l-9 6v24.535c0 2.757 2.243 5 5 5h12v.586l-5.414 5.414 1.5 1.5-6.793 6.793 1.414 1.414 6.793-6.793 1.5 1.5 5.414-5.414h8l18.586-18.586 2 2 4.414-4.414-4-4 5.586-5.586zm-8-14 9.586 9.586-1.586 1.586-9.586-9.586zm-30.303 3.586 6 4h-21.394l6-4zm-11.697-7v-2c0-.552.449-1 1-1h12c.551 0 1 .448 1 1v2c0 .552-.449 1-1 1h-12c-.551 0-1-.448-1-1zm11 3v2h-8v-2zm-14 36c-1.654 0-3-1.346-3-3v-23h26v9.586l-2 2v-7.586c0-1.103-.897-2-2-2h-18c-1.103 0-2 .897-2 2v18c0 1.103.897 2 2 2h11v2zm14 2.586v-5.172l7.586 7.586h-5.172zm-1-9v-3.586h3.586zm-8-5.586v-2h4v-4h2v4h4v2h-4v4h-2v-4zm8-4v-4h-6v4h-4v6h4v4h5.586l-.586.586v1.414h-11v-18h18v9.586l-2 2v-5.586zm-3.586 24 3.586-3.586 1.586 1.586-3.586 3.586zm29.586-18.414-5.293-5.293-1.414 1.414 5.293 5.293-1.586 1.586-3.293-3.293-1.414 1.414 3.293 3.293-1.586 1.586-5.293-5.293-1.414 1.414 5.293 5.293-1.586 1.586-3.293-3.293-1.414 1.414 3.293 3.293-1.586 1.586-5.293-5.293-1.414 1.414 5.293 5.293-1.586 1.586-9.586-9.586 17.586-17.586 9.586 9.586zm6-2-13.586-13.586 1.586-1.586 13.586 13.586zm-1-7-5.586-5.586 5.586-5.586 5.586 5.586z"/></g></svg>