<?xml version="1.0" encoding="UTF-8" standalone="no"?>
<svg
   xmlns:dc="http://purl.org/dc/elements/1.1/"
   xmlns:cc="http://creativecommons.org/ns#"
   xmlns:rdf="http://www.w3.org/1999/02/22-rdf-syntax-ns#"
   xmlns:svg="http://www.w3.org/2000/svg"
   xmlns="http://www.w3.org/2000/svg"
   xmlns:sodipodi="http://sodipodi.sourceforge.net/DTD/sodipodi-0.dtd"
   xmlns:inkscape="http://www.inkscape.org/namespaces/inkscape"
   inkscape:version="1.0 (4035a4fb49, 2020-05-01)"
   sodipodi:docname="vital_sign.svg"
   version="1.1"
   width="24"
   viewBox="0 0 3 3"
   height="24"
   enable-background="new 0 0 64 64"
   id="_x33_0">
  <metadata
     id="metadata79">
    <rdf:RDF>
      <cc:Work
         rdf:about="">
        <dc:format>image/svg+xml</dc:format>
        <dc:type
           rdf:resource="http://purl.org/dc/dcmitype/StillImage" />
        <dc:title></dc:title>
      </cc:Work>
    </rdf:RDF>
  </metadata>
  <defs
     id="defs77" />
  <sodipodi:namedview
     inkscape:current-layer="_x33_0"
     inkscape:window-maximized="1"
     inkscape:window-y="0"
     inkscape:window-x="0"
     inkscape:cy="20.076451"
     inkscape:cx="14.985978"
     inkscape:zoom="22.273864"
     showgrid="false"
     id="namedview75"
     inkscape:window-height="1417"
     inkscape:window-width="2560"
     inkscape:pageshadow="2"
     inkscape:pageopacity="0"
     guidetolerance="10"
     gridtolerance="10"
     objecttolerance="10"
     borderopacity="1"
     bordercolor="#666666"
     pagecolor="#ffffff" />
  <g
     transform="matrix(0.0483871,0,0,0.0483871,-0.0483871,-0.0483871)"
     id="g72">
    <g
       id="g54">
      <g
         id="g4">
        <path
           id="path2"
           fill="#fcd770"
           d="M 26.14,2.84 28,14 H 8 L 9.86,2.84 C 9.94,2.35 10.36,2 10.85,2 h 14.3 c 0.49,0 0.91,0.35 0.99,0.84 z" />
      </g>
      <g
         id="g8">
        <path
           id="path6"
           fill="#fcd770"
           d="M 28,50 26.14,61.16 C 26.06,61.65 25.64,62 25.15,62 H 10.85 C 10.36,62 9.94,61.65 9.86,61.16 L 8,50 Z" />
      </g>
      <g
         id="g12">
        <path
           id="path10"
           fill="#b4dd7f"
           d="m 6,36 v 6 H 3 C 2.45,42 2,41.55 2,41 v -4 c 0,-0.55 0.45,-1 1,-1 z" />
      </g>
      <g
         id="g16">
        <path
           id="path14"
           fill="#b4dd7f"
           d="M 2.76,19.81 C 2.31,19.92 2,20.32 2,20.78 v 10.44 c 0,0.46 0.31,0.86 0.76,0.97 L 6,33 V 19 Z" />
      </g>
      <g
         id="g20">
        <path
           id="path18"
           fill="#ccd1d9"
           d="m 30,38 v 10 c 0,1.1 -0.9,2 -2,2 H 8 C 6.9,50 6,49.1 6,48 v -6 -6 -3 -7 -7 -3 c 0,-1.1 0.9,-2 2,-2 h 20 c 1.1,0 2,0.9 2,2 v 10 6 z" />
      </g>
      <g
         id="g24">
        <path
           id="path22"
           fill="#e6e9ed"
           d="m 10,38 h 16 v 8 H 10 Z" />
      </g>
      <g
         id="g28">
        <path
           id="path26"
           fill="#69d6f4"
           d="m 26,30 v 8 H 10 V 28 h 3 l 2,5 3,-8 2,5 z" />
      </g>
      <g
         id="g32">
        <path
           id="path30"
           fill="#69d6f4"
           d="m 26,18 v 12 h -6 l -2,-5 -3,8 -2,-5 H 10 V 18 Z" />
      </g>
      <g
         id="g36">
        <path
           id="path34"
           fill="#aab2bd"
           d="M 53.29,56.29 C 53.75,56.75 54,57.36 54,58 c 0,0.64 -0.25,1.25 -0.71,1.71 l -1.23,1.23 C 51.38,61.62 50.46,62 49.5,62 48.54,62 47.62,61.62 46.94,60.94 L 37.06,51.06 C 36.38,50.38 36,49.46 36,48.5 c 0,-0.96 0.38,-1.88 1.06,-2.56 l 1.23,-1.23 C 38.75,44.25 39.36,44 40,44 c 0.64,0 1.25,0.25 1.71,0.71 l 2.58,2.58 c 0.39,0.39 0.39,1.03 0,1.42 L 43,50 l 5,5 1.29,-1.29 c 0.39,-0.39 1.03,-0.39 1.42,0 z" />
      </g>
      <g
         id="g40">
        <path
           id="path38"
           fill="#ff826e"
           d="m 62,33.28 v 0.47 C 62,37.03 59.47,39.9 56.18,40 52.79,40.1 50,37.38 50,34 c 0,-1.97 0.46,-3.92 1.34,-5.68 L 52,27 l 3,1 v -4 c 4.14,1.18 7,4.97 7,9.28 z" />
      </g>
      <g
         id="g44">
        <circle
           id="circle42"
           r="2"
           fill="#fc6e51"
           cy="34"
           cx="56" />
      </g>
      <g
         id="g48">
        <path
           id="path46"
           fill="#ff826e"
           d="M 56,8.14 C 56,8.78 55.91,9.4 55.72,10 H 50 L 48,7 45,12 43,8 h -6.99 c 0.02,-1.34 0.47,-2.64 1.27,-3.71 l 0.08,-0.1 C 38.39,2.81 40.01,2 41.73,2 43.19,2 44.58,2.58 45.6,3.6 L 46,4 46.4,3.6 C 47.42,2.58 48.81,2 50.27,2 c 1.72,0 3.34,0.81 4.37,2.19 l 0.08,0.1 C 55.55,5.4 56,6.75 56,8.14 Z" />
      </g>
      <g
         id="g52">
        <path
           id="path50"
           fill="#ff826e"
           d="m 50,10 h 5.72 c -0.33,1.11 -0.97,2.12 -1.85,2.91 L 46,20 38.13,12.91 C 36.77,11.7 36,9.96 36,8.14 36,8.09 36,8.05 36.01,8 H 43 l 2,4 3,-5 z" />
      </g>
    </g>
    <g
       id="g70">
      <path
         id="path56"
         d="M 9,47 H 27 V 17 H 9 Z m 2,-2 v -6 h 14 v 6 z m 0,-8 v -8 h 1.323 l 2.707,6.768 3,-8 L 19.323,31 H 25 v 6 z M 25,19 v 10 h -4.323 l -2.707,-6.768 -3,8 L 13.677,27 H 11 v -8 z" />
      <path
         id="path58"
         d="m 17,41 h 2 v 2 h -2 z" />
      <path
         id="path60"
         d="m 21,41 h 2 v 2 h -2 z" />
      <path
         id="path62"
         d="m 13,41 h 2 v 2 h -2 z" />
      <path
         id="path64"
         d="m 53,34 c 0,1.654 1.346,3 3,3 1.654,0 3,-1.346 3,-3 0,-1.654 -1.346,-3 -3,-3 -1.654,0 -3,1.346 -3,3 z m 4,0 c 0,0.552 -0.448,1 -1,1 -0.552,0 -1,-0.448 -1,-1 0,-0.552 0.448,-1 1,-1 0.552,0 1,0.448 1,1 z" />
      <path
         id="path66"
         d="M 55.274,23.038 54,22.675 v 3.938 l -2.507,-0.835 -1.046,2.092 c -0.496,0.992 -0.862,2.047 -1.105,3.131 H 31 v -4 h 14 c 1.103,0 2,-0.897 2,-2 v -4.554 l 7.543,-6.789 C 56.104,12.252 57,10.241 57,8.141 57,6.545 56.473,4.964 55.517,3.69 L 55.44,3.587 C 54.225,1.967 52.29,1 50.266,1 48.68,1 47.181,1.566 46,2.604 44.819,1.566 43.32,1 41.734,1 39.71,1 37.775,1.967 36.558,3.589 L 36.484,3.688 C 35.527,4.964 35,6.545 35,8.141 c 0,2.101 0.896,4.111 2.457,5.516 L 45,20.446 V 25 H 31 v -9 c 0,-1.349 -0.901,-2.48 -2.129,-2.856 L 27.126,2.67 C 26.963,1.702 26.134,1 25.153,1 H 10.847 C 9.867,1 9.037,1.702 8.874,2.672 L 7.129,13.144 C 5.901,13.52 5,14.651 5,16 v 2.22 L 2.516,18.841 C 1.623,19.063 1,19.861 1,20.781 v 10.438 c 0,0.92 0.623,1.718 1.516,1.94 L 5,33.78 V 35 H 3 c -1.103,0 -2,0.897 -2,2 v 4 c 0,1.103 0.897,2 2,2 h 2 v 5 c 0,1.349 0.901,2.48 2.129,2.856 L 8.874,61.33 C 9.037,62.298 9.866,63 10.847,63 h 14.307 c 0.98,0 1.81,-0.702 1.973,-1.672 L 28.872,50.856 C 30.099,50.48 31,49.349 31,48 v -9 h 14 v 4 h 2 v -4 c 0,-1.103 -0.897,-2 -2,-2 H 31 V 33 H 49.059 C 49.034,33.333 49,33.666 49,34 c 0,1.91 0.755,3.694 2.126,5.024 1.317,1.278 3.04,1.976 4.87,1.976 0.072,0 0.146,-10e-4 0.219,-0.003 C 59.956,40.884 63,37.633 63,33.748 V 33.28 C 63,28.55 59.823,24.338 55.274,23.038 Z M 38.159,4.788 C 38.999,3.668 40.336,3 41.734,3 c 1.194,0 2.316,0.465 3.16,1.309 L 46,5.414 47.105,4.309 C 47.949,3.465 49.071,3 50.266,3 c 1.398,0 2.735,0.668 3.574,1.786 l 0.076,0.103 C 54.615,5.819 55,6.975 55,8.141 55,8.431 54.969,8.717 54.924,9 H 50.536 L 47.956,5.131 45.08,9.924 43.618,7 h -6.48 C 37.303,6.239 37.616,5.511 38.085,4.887 Z M 37.076,9 h 5.305 l 2.538,5.076 3.125,-5.207 1.421,2.131 h 4.711 c -0.267,0.429 -0.589,0.826 -0.971,1.17 L 46,18.654 38.795,12.17 C 37.87,11.338 37.272,10.213 37.076,9 Z M 10.847,3 H 25.154 L 26.82,13 H 9.18 Z M 5,20.28 V 25 H 3 V 20.78 Z M 3,31.219 V 27 h 2 v 4.719 z M 3,41 v -4 h 2 v 4 z M 25.153,61 H 10.847 L 9.18,51 H 26.82 Z M 29,48 c 0,0.552 -0.448,1 -1,1 H 8 C 7.448,49 7,48.552 7,48 V 16 c 0,-0.552 0.448,-1 1,-1 h 20 c 0.552,0 1,0.448 1,1 z M 61,33.748 c 0,2.814 -2.174,5.169 -4.846,5.249 -1.362,0.048 -2.657,-0.459 -3.636,-1.408 C 51.539,36.639 51,35.364 51,34 c 0,-1.809 0.428,-3.62 1.236,-5.236 L 52.507,28.223 56,29.388 v -3.949 c 3,1.402 5,4.459 5,7.842 z" />
      <path
         id="path68"
         d="m 51.414,53 c -0.779,-0.779 -2.049,-0.779 -2.828,0 L 48,53.586 44.414,50 45,49.414 c 0.78,-0.779 0.78,-2.049 0,-2.828 L 42.414,44 c -1.289,-1.289 -3.539,-1.289 -4.828,0 l -1.232,1.232 C 35.493,46.093 35,47.283 35,48.5 c 0,1.217 0.493,2.407 1.354,3.268 l 9.879,9.879 c 0.86,0.86 2.05,1.353 3.267,1.353 1.217,0 2.407,-0.493 3.268,-1.354 L 54,60.414 c 0.645,-0.645 1,-1.502 1,-2.414 0,-0.912 -0.355,-1.77 -1,-2.414 z m 1.172,6 -1.232,1.232 c -0.977,0.975 -2.73,0.975 -3.707,0 L 37.768,50.353 C 37.28,49.865 37,49.19 37,48.5 c 0,-0.69 0.28,-1.365 0.768,-1.854 L 39,45.414 C 39.268,45.147 39.622,45 40,45 c 0.378,0 0.732,0.147 1,0.414 l 2.586,2.586 -2,2 6.414,6.414 2,-2 2.586,2.586 c 0.267,0.268 0.414,0.622 0.414,1 0,0.378 -0.147,0.732 -0.414,1 z" />
    </g>
  </g>
</svg>
