<svg id="_x33_0" enable-background="new 0 0 64 64" height="512" viewBox="0 0 64 64" width="512" xmlns="http://www.w3.org/2000/svg"><g><g><g><path d="m26.14 2.84 1.86 11.16h-20l1.86-11.16c.08-.49.5-.84.99-.84h14.3c.49 0 .91.35.99.84z" fill="#fcd770"/></g><g><path d="m28 50-1.86 11.16c-.08.49-.5.84-.99.84h-14.3c-.49 0-.91-.35-.99-.84l-1.86-11.16z" fill="#fcd770"/></g><g><path d="m6 36v6h-3c-.55 0-1-.45-1-1v-4c0-.55.45-1 1-1z" fill="#b4dd7f"/></g><g><path d="m2.76 19.81c-.45.11-.76.51-.76.97v10.44c0 .46.31.86.76.97l3.24.81v-14z" fill="#b4dd7f"/></g><g><path d="m30 38v10c0 1.1-.9 2-2 2h-20c-1.1 0-2-.9-2-2v-6-6-3-7-7-3c0-1.1.9-2 2-2h20c1.1 0 2 .9 2 2v10 6z" fill="#ccd1d9"/></g><g><path d="m10 38h16v8h-16z" fill="#e6e9ed"/></g><g><path d="m26 30v8h-16v-10h3l2 5 3-8 2 5z" fill="#69d6f4"/></g><g><path d="m26 18v12h-6l-2-5-3 8-2-5h-3v-10z" fill="#69d6f4"/></g><g><path d="m53.29 56.29c.46.46.71 1.07.71 1.71s-.25 1.25-.71 1.71l-1.23 1.23c-.68.68-1.6 1.06-2.56 1.06s-1.88-.38-2.56-1.06l-9.88-9.88c-.68-.68-1.06-1.6-1.06-2.56s.38-1.88 1.06-2.56l1.23-1.23c.46-.46 1.07-.71 1.71-.71s1.25.25 1.71.71l2.58 2.58c.39.39.39 1.03 0 1.42l-1.29 1.29 5 5 1.29-1.29c.39-.39 1.03-.39 1.42 0z" fill="#aab2bd"/></g><g><path d="m62 33.28v.47c0 3.28-2.53 6.15-5.82 6.25-3.39.1-6.18-2.62-6.18-6 0-1.97.46-3.92 1.34-5.68l.66-1.32 3 1v-4c4.14 1.18 7 4.97 7 9.28z" fill="#ff826e"/></g><g><circle cx="56" cy="34" fill="#fc6e51" r="2"/></g><g><path d="m56 8.14c0 .64-.09 1.26-.28 1.86h-5.72l-2-3-3 5-2-4h-6.99c.02-1.34.47-2.64 1.27-3.71l.08-.1c1.03-1.38 2.65-2.19 4.37-2.19 1.46 0 2.85.58 3.87 1.6l.4.4.4-.4c1.02-1.02 2.41-1.6 3.87-1.6 1.72 0 3.34.81 4.37 2.19l.08.1c.83 1.11 1.28 2.46 1.28 3.85z" fill="#ff826e"/></g><g><path d="m50 10h5.72c-.33 1.11-.97 2.12-1.85 2.91l-7.87 7.09-7.87-7.09c-1.36-1.21-2.13-2.95-2.13-4.77 0-.05 0-.09.01-.14h6.99l2 4 3-5z" fill="#ff826e"/></g></g><g><path d="m9 47h18v-30h-18zm2-2v-6h14v6zm0-8v-8h1.323l2.707 6.768 3-8 1.293 3.232h5.677v6zm14-18v10h-4.323l-2.707-6.768-3 8-1.293-3.232h-2.677v-8z"/><path d="m17 41h2v2h-2z"/><path d="m21 41h2v2h-2z"/><path d="m13 41h2v2h-2z"/><path d="m53 34c0 1.654 1.346 3 3 3s3-1.346 3-3-1.346-3-3-3-3 1.346-3 3zm4 0c0 .552-.448 1-1 1s-1-.448-1-1 .448-1 1-1 1 .448 1 1z"/><path d="m55.274 23.038-1.274-.363v3.938l-2.507-.835-1.046 2.092c-.496.992-.862 2.047-1.105 3.131h-18.342v-4h14c1.103 0 2-.897 2-2v-4.554l7.543-6.789c1.561-1.406 2.457-3.417 2.457-5.517 0-1.596-.527-3.177-1.483-4.451l-.077-.103c-1.215-1.62-3.15-2.587-5.174-2.587-1.586 0-3.085.566-4.266 1.604-1.181-1.038-2.68-1.604-4.266-1.604-2.024 0-3.959.967-5.176 2.589l-.074.099c-.957 1.276-1.484 2.857-1.484 4.453 0 2.101.896 4.111 2.457 5.516l7.543 6.789v4.554h-14v-9c0-1.349-.901-2.48-2.129-2.856l-1.745-10.474c-.163-.968-.992-1.67-1.973-1.67h-14.306c-.98 0-1.81.702-1.973 1.672l-1.745 10.472c-1.228.376-2.129 1.507-2.129 2.856v2.22l-2.484.621c-.893.222-1.516 1.02-1.516 1.94v10.438c0 .92.623 1.718 1.516 1.94l2.484.621v1.22h-2c-1.103 0-2 .897-2 2v4c0 1.103.897 2 2 2h2v5c0 1.349.901 2.48 2.129 2.856l1.745 10.474c.163.968.992 1.67 1.973 1.67h14.307c.98 0 1.81-.702 1.973-1.672l1.745-10.472c1.227-.376 2.128-1.507 2.128-2.856v-9h14v4h2v-4c0-1.103-.897-2-2-2h-14v-4h18.059c-.025.333-.059.666-.059 1 0 1.91.755 3.694 2.126 5.024 1.317 1.278 3.04 1.976 4.87 1.976.072 0 .146-.001.219-.003 3.741-.113 6.785-3.364 6.785-7.249v-.468c0-4.73-3.177-8.942-7.726-10.242zm-17.115-18.25c.84-1.12 2.177-1.788 3.575-1.788 1.194 0 2.316.465 3.16 1.309l1.106 1.105 1.105-1.105c.844-.844 1.966-1.309 3.161-1.309 1.398 0 2.735.668 3.574 1.786l.076.103c.699.93 1.084 2.086 1.084 3.252 0 .29-.031.576-.076.859h-4.388l-2.58-3.869-2.876 4.793-1.462-2.924h-6.48c.165-.761.478-1.489.947-2.113zm-1.083 4.212h5.305l2.538 5.076 3.125-5.207 1.421 2.131h4.711c-.267.429-.589.826-.971 1.17l-7.205 6.484-7.205-6.484c-.925-.832-1.523-1.957-1.719-3.17zm-26.229-6h14.307l1.666 10h-17.64zm-5.847 17.28v4.72h-2v-4.22zm-2 10.939v-4.219h2v4.719zm0 9.781v-4h2v4zm22.153 20h-14.306l-1.667-10h17.64zm3.847-13c0 .552-.448 1-1 1h-20c-.552 0-1-.448-1-1v-32c0-.552.448-1 1-1h20c.552 0 1 .448 1 1zm32-14.252c0 2.814-2.174 5.169-4.846 5.249-1.362.048-2.657-.459-3.636-1.408-.979-.95-1.518-2.225-1.518-3.589 0-1.809.428-3.62 1.236-5.236l.271-.541 3.493 1.165v-3.949c3 1.402 5 4.459 5 7.842z"/><path d="m51.414 53c-.779-.779-2.049-.779-2.828 0l-.586.586-3.586-3.586.586-.586c.78-.779.78-2.049 0-2.828l-2.586-2.586c-1.289-1.289-3.539-1.289-4.828 0l-1.232 1.232c-.861.861-1.354 2.051-1.354 3.268s.493 2.407 1.354 3.268l9.879 9.879c.86.86 2.05 1.353 3.267 1.353s2.407-.493 3.268-1.354l1.232-1.232c.645-.645 1-1.502 1-2.414s-.355-1.77-1-2.414zm1.172 6-1.232 1.232c-.977.975-2.73.975-3.707 0l-9.879-9.879c-.488-.488-.768-1.163-.768-1.853s.28-1.365.768-1.854l1.232-1.232c.268-.267.622-.414 1-.414s.732.147 1 .414l2.586 2.586-2 2 6.414 6.414 2-2 2.586 2.586c.267.268.414.622.414 1s-.147.732-.414 1z"/></g></g></svg>