<?xml version="1.0" encoding="UTF-8" standalone="no"?>
<!-- Created with Inkscape (http://www.inkscape.org/) -->

<svg
   xmlns:dc="http://purl.org/dc/elements/1.1/"
   xmlns:cc="http://creativecommons.org/ns#"
   xmlns:rdf="http://www.w3.org/1999/02/22-rdf-syntax-ns#"
   xmlns:svg="http://www.w3.org/2000/svg"
   xmlns="http://www.w3.org/2000/svg"
   xmlns:sodipodi="http://sodipodi.sourceforge.net/DTD/sodipodi-0.dtd"
   xmlns:inkscape="http://www.inkscape.org/namespaces/inkscape"
   width="100mm"
   height="100mm"
   viewBox="0 0 100 100"
   version="1.1"
   id="svg5783"
   inkscape:version="0.92.2 2405546, 2018-03-11"
   sodipodi:docname="vital_sign.svg">
  <defs
     id="defs5777" />
  <sodipodi:namedview
     id="base"
     pagecolor="#ffffff"
     bordercolor="#666666"
     borderopacity="1.0"
     inkscape:pageopacity="0.0"
     inkscape:pageshadow="2"
     inkscape:zoom="1.4"
     inkscape:cx="75.389477"
     inkscape:cy="239.84144"
     inkscape:document-units="mm"
     inkscape:current-layer="layer1"
     showgrid="false"
     inkscape:window-width="2560"
     inkscape:window-height="1347"
     inkscape:window-x="0"
     inkscape:window-y="0"
     inkscape:window-maximized="1" />
  <metadata
     id="metadata5780">
    <rdf:RDF>
      <cc:Work
         rdf:about="">
        <dc:format>image/svg+xml</dc:format>
        <dc:type
           rdf:resource="http://purl.org/dc/dcmitype/StillImage" />
        <dc:title />
      </cc:Work>
    </rdf:RDF>
  </metadata>
  <g
     inkscape:label="Capa 1"
     inkscape:groupmode="layer"
     id="layer1"
     transform="translate(0,-197)">
    <g
       transform="matrix(1.8141046,0,0,1.8141046,6.6782158,205.40276)"
       id="g8"
       style="fill:#2780e3;fill-opacity:1">
      <path
         inkscape:connector-curvature="0"
         d="m 14,25 1.7,-5.1 c 0.6,-1.9 2.2,-3.3 4.1,-3.8 0.5,-0.1 0.9,-0.2 1.4,-0.2 1.5,0 2.9,0.6 4,1.6 l 6.3,6 11.7,0.1 c 0.5,0 1,0.1 1.5,0.2 C 48.5,15.7 48.1,7.3 43.2,3.1 38.4,-1 30.7,0.4 24,6.3 17.3,0.4 9.6,-1 4.8,3.1 -0.4,7.5 -0.5,16.5 3.9,25 Z"
         id="path2"
         style="fill:#2780e3;fill-opacity:1" />
      <path
         inkscape:connector-curvature="0"
         d="m 25.2,33.5 -1.3,-1.3 -0.1,0.3 c -0.8,2.4 -3,4 -5.5,4 h -5.4 c 4.6,5 9.6,9.8 9.9,10.1 0.4,0.4 0.9,0.5 1.3,0.5 0.4,0 1,-0.2 1.3,-0.5 0.3,-0.3 6.2,-6 11.2,-11.5 h -7.4 c -1.6,0 -3,-0.5 -4,-1.6 z"
         id="path4"
         style="fill:#2780e3;fill-opacity:1" />
      <path
         inkscape:connector-curvature="0"
         d="M 43.2,27.5 30,27.4 22.6,20.3 c -0.5,-0.5 -1.2,-0.6 -1.8,-0.5 -0.6,0.2 -1.2,0.6 -1.4,1.3 l -2.5,7.7 H 2.7 c -1.1,0 -1.9,0.9 -1.9,1.9 0,1.1 0.9,1.9 1.9,1.9 h 15.5 c 0.8,0 1.6,-0.5 1.8,-1.3 l 2,-6.1 5.8,5.5 c 0.4,0.3 0.8,0.5 1.3,0.5 l 14,0.1 c 1.1,0 1.9,-0.9 1.9,-1.9 0.1,-1.1 -0.8,-1.9 -1.8,-1.9 z"
         id="path6"
         style="fill:#2780e3;fill-opacity:1" />
    </g>
  </g>
</svg>
