<?xml version="1.0" encoding="UTF-8" standalone="no"?>
<!-- Created with Inkscape (http://www.inkscape.org/) -->

<svg
   xmlns:dc="http://purl.org/dc/elements/1.1/"
   xmlns:cc="http://creativecommons.org/ns#"
   xmlns:rdf="http://www.w3.org/1999/02/22-rdf-syntax-ns#"
   xmlns:svg="http://www.w3.org/2000/svg"
   xmlns="http://www.w3.org/2000/svg"
   xmlns:sodipodi="http://sodipodi.sourceforge.net/DTD/sodipodi-0.dtd"
   xmlns:inkscape="http://www.inkscape.org/namespaces/inkscape"
   width="100mm"
   height="100mm"
   viewBox="0 0 100 100"
   version="1.1"
   id="svg5783"
   inkscape:version="0.92.2 2405546, 2018-03-11"
   sodipodi:docname="vital-signs.svg">
  <defs
     id="defs5777" />
  <sodipodi:namedview
     id="base"
     pagecolor="#ffffff"
     bordercolor="#666666"
     borderopacity="1.0"
     inkscape:pageopacity="0.0"
     inkscape:pageshadow="2"
     inkscape:zoom="0.7"
     inkscape:cx="-182.55711"
     inkscape:cy="237.78595"
     inkscape:document-units="mm"
     inkscape:current-layer="layer1"
     showgrid="false"
     inkscape:window-width="2485"
     inkscape:window-height="1399"
     inkscape:window-x="75"
     inkscape:window-y="0"
     inkscape:window-maximized="1" />
  <metadata
     id="metadata5780">
    <rdf:RDF>
      <cc:Work
         rdf:about="">
        <dc:format>image/svg+xml</dc:format>
        <dc:type
           rdf:resource="http://purl.org/dc/dcmitype/StillImage" />
        <dc:title />
      </cc:Work>
    </rdf:RDF>
  </metadata>
  <g
     inkscape:label="Capa 1"
     inkscape:groupmode="layer"
     id="layer1"
     transform="translate(0,-197)">
    <g
       id="g836"
       transform="matrix(3.6114915,0,0,3.6114915,182.66477,-515.25973)">
      <path
         d="m -31.637444,201.3574 v 0 c -1.482725,0 -2.832453,0.53904 -3.843867,1.41605 -1.04528,0.87665 -1.854905,0.87665 -2.866672,0 -1.011061,-0.84349 -2.359378,-1.38254 -3.843161,-1.38254 -2.293056,0 -4.283075,1.24778 -5.193947,3.06811 -0.572559,1.1804 -0.505178,3.30518 -0.100895,4.5526 0.134761,0.57291 0.438856,1.24777 0.775759,1.95545 0.06738,-0.0339 0.168627,-0.0339 0.236008,-0.0339 h 3.135489 l 1.68663,-3.20287 c 0.101248,-0.16898 0.269523,-0.26987 0.471664,-0.26987 0.202142,0.0335 0.336903,0.1344 0.439209,0.30374 l 3.640666,8.39611 1.011767,-2.52977 c 0.06738,-0.16828 0.270933,-0.26917 0.473075,-0.26917 h 6.373636 c 0.134408,0 0.269169,0.067 0.336902,0.13476 0.166864,-0.20249 0.33655,-0.43815 0.506589,-0.67381 0.471311,-0.57396 1.449564,-1.9565 1.853847,-3.17041 0.64135,-1.71944 0.64135,-2.96686 0.64135,-2.96686 0,-2.96757 -2.565047,-5.32765 -5.734049,-5.32765 v 0"
         style="fill:#6a6c6c;fill-opacity:1;fill-rule:evenodd;stroke:none;stroke-width:0.03527778"
         id="path236"
         inkscape:connector-curvature="0" />
      <path
         d="m -35.279169,214.27189 -1.34867,3.30447 c -0.06738,0.16898 -0.269522,0.30374 -0.472722,0.30374 v 0 c -0.202142,0 -0.370769,-0.13476 -0.437797,-0.30374 l -3.709458,-8.53087 -1.34867,2.52906 c -0.06738,0.16863 -0.235655,0.26952 -0.404283,0.26952 h -3.203928 c 0.03351,0.0674 0.06738,0.1009 0.101247,0.16828 l 0.843139,1.14688 c 0.236009,0.26917 0.471664,0.50588 0.708731,0.7754 2.865614,2.86632 4.855986,5.02426 6.068483,6.37364 0.877358,0.97755 2.293408,0.97755 3.170767,0 1.179336,-1.31516 3.033183,-3.33869 5.698419,-6.03638 h -5.665258"
         style="fill:#18bc9c;fill-opacity:0.98431373;fill-rule:evenodd;stroke:none;stroke-width:0.03527778"
         id="path238"
         inkscape:connector-curvature="0" />
      <path
         d="m -33.693786,206.54994 v 0 c 0.808567,0 1.449917,0.53939 1.449917,1.18039 0,0.20214 0.169333,0.3369 0.371827,0.3369 0.202142,0 0.403931,-0.13476 0.403931,-0.3369 0,-1.04528 -1.012825,-1.88877 -2.225675,-1.88877 -0.202142,0 -0.371828,0.13476 -0.371828,0.33761 0,0.20214 0.169686,0.37077 0.371828,0.37077 v 0"
         style="fill:#18bc9c;fill-opacity:0.98431373;fill-rule:evenodd;stroke:none;stroke-width:0.03527778"
         id="path240"
         inkscape:connector-curvature="0" />
      <path
         d="m -32.817839,205.36989 v 0 c 0.9779,0 1.786467,0.67381 1.786467,1.48343 0,0.23601 0.204611,0.43815 0.474133,0.43815 0.269522,0 0.50412,-0.20214 0.50412,-0.43815 0,-1.28128 -1.247423,-2.36043 -2.76472,-2.36043 -0.234597,0 -0.471664,0.20214 -0.471664,0.4385 0,0.27023 0.237067,0.4385 0.471664,0.4385 v 0"
         style="fill:#18bc9c;fill-opacity:0.98431373;fill-rule:evenodd;stroke:none;stroke-width:0.03527778"
         id="path242"
         inkscape:connector-curvature="0" />
      <path
         d="m -31.939775,204.08861 v 0 c 1.347611,0 2.49555,0.90981 2.49555,2.05669 0,0.33761 0.301978,0.64064 0.673806,0.64064 0.336902,0 0.673805,-0.30303 0.673805,-0.64064 0,-1.82104 -1.719086,-3.30447 -3.843161,-3.30447 -0.371828,0 -0.675922,0.26952 -0.675922,0.60643 0,0.37112 0.304094,0.64135 0.675922,0.64135 v 0"
         style="fill:#18bc9c;fill-opacity:0.98431373;fill-rule:evenodd;stroke:none;stroke-width:0.03527778"
         id="path244"
         inkscape:connector-curvature="0" />
    </g>
  </g>
</svg>
