<?xml version="1.0" encoding="UTF-8" standalone="no"?>
<!-- Generator: Adobe Illustrator 19.1.0, SVG Export Plug-In . SVG Version: 6.00 Build 0)  -->

<svg
   xmlns:dc="http://purl.org/dc/elements/1.1/"
   xmlns:cc="http://creativecommons.org/ns#"
   xmlns:rdf="http://www.w3.org/1999/02/22-rdf-syntax-ns#"
   xmlns:svg="http://www.w3.org/2000/svg"
   xmlns="http://www.w3.org/2000/svg"
   xmlns:sodipodi="http://sodipodi.sourceforge.net/DTD/sodipodi-0.dtd"
   xmlns:inkscape="http://www.inkscape.org/namespaces/inkscape"
   version="1.1"
   id="Capa_1"
   x="0px"
   y="0px"
   viewBox="0 0 488.9 488.9"
   style="enable-background:new 0 0 488.9 488.9;"
   xml:space="preserve"
   width="512px"
   height="512px"
   sodipodi:docname="wizard.svg"
   inkscape:version="0.92.2 2405546, 2018-03-11"><metadata
   id="metadata45"><rdf:RDF><cc:Work
       rdf:about=""><dc:format>image/svg+xml</dc:format><dc:type
         rdf:resource="http://purl.org/dc/dcmitype/StillImage" /></cc:Work></rdf:RDF></metadata><defs
   id="defs43" /><sodipodi:namedview
   pagecolor="#ffffff"
   bordercolor="#666666"
   borderopacity="1"
   objecttolerance="10"
   gridtolerance="10"
   guidetolerance="10"
   inkscape:pageopacity="0"
   inkscape:pageshadow="2"
   inkscape:window-width="2560"
   inkscape:window-height="1347"
   id="namedview41"
   showgrid="false"
   inkscape:zoom="0.92187498"
   inkscape:cx="67.665582"
   inkscape:cy="-4.6799385"
   inkscape:window-x="0"
   inkscape:window-y="0"
   inkscape:window-maximized="1"
   inkscape:current-layer="Capa_1" />

<g
   id="g10">
</g>
<g
   id="g12">
</g>
<g
   id="g14">
</g>
<g
   id="g16">
</g>
<g
   id="g18">
</g>
<g
   id="g20">
</g>
<g
   id="g22">
</g>
<g
   id="g24">
</g>
<g
   id="g26">
</g>
<g
   id="g28">
</g>
<g
   id="g30">
</g>
<g
   id="g32">
</g>
<g
   id="g34">
</g>
<g
   id="g36">
</g>
<g
   id="g38">
</g>
<path
   inkscape:connector-curvature="0"
   d="m 442.4349,206.48424 -35.44597,-3.82432 a 9.1896833,9.1896833 0 0 1 -7.76272,-6.56404 162.84576,162.84576 0 0 0 -11.41572,-26.99828 9.1896833,9.1896833 0 0 1 0.97034,-10.04585 l 22.37489,-27.74028 a 9.3038412,9.3038412 0 0 0 -0.62789,-12.38612 L 371.20056,79.655159 a 9.1896833,9.1896833 0 0 0 -12.21487,-0.684967 l -27.91153,22.374888 a 9.1896833,9.1896833 0 0 1 -10.04584,1.02742 159.47811,159.47811 0 0 0 -26.94121,-11.415725 9.2467626,9.2467626 0 0 1 -6.39283,-7.819796 l -3.82427,-35.445913 a 9.2467626,9.2467626 0 0 0 -9.18967,-8.276413 h -55.88011 a 9.3038412,9.3038412 0 0 0 -9.24677,8.276413 l -3.82432,35.445913 a 9.1896833,9.1896833 0 0 1 -6.56403,8.048077 155.71091,155.71091 0 0 0 -26.94121,11.415794 9.1896833,9.1896833 0 0 1 -10.04584,-1.02742 L 134.38069,79.198542 a 9.2467626,9.2467626 0 0 0 -12.38612,0.684912 L 82.724393,119.15369 a 9.3609198,9.3609198 0 0 0 -0.684967,12.38606 l 22.374934,27.74028 a 9.1326048,9.1326048 0 0 1 1.02736,10.04592 158.10823,158.10823 0 0 0 -11.415725,26.99821 9.1896833,9.1896833 0 0 1 -7.819795,6.33576 l -35.4459,3.82432 a 9.3038412,9.3038412 0 0 0 -8.276426,9.24677 v 55.8801 a 9.3038412,9.3038412 0 0 0 8.276426,9.18968 l 35.4459,3.82426 a 9.1896833,9.1896833 0 0 1 7.819795,6.33576 158.10823,158.10823 0 0 0 11.415725,26.99828 9.1326048,9.1326048 0 0 1 -1.02736,10.04585 l -22.374934,27.91153 a 9.2467626,9.2467626 0 0 0 0.684967,12.32899 l 39.498517,39.49851 a 9.2467626,9.2467626 0 0 0 12.38613,0.68497 l 27.79731,-22.37487 a 9.2467626,9.2467626 0 0 1 10.0459,-1.02743 155.71091,155.71091 0 0 0 26.71286,10.84499 9.1896833,9.1896833 0 0 1 6.33574,7.81979 l 3.82427,35.4459 a 9.3038412,9.3038412 0 0 0 9.24676,8.27643 h 55.88011 a 9.2467626,9.2467626 0 0 0 9.18974,-8.27643 l 3.82426,-35.4459 a 9.2467626,9.2467626 0 0 1 6.62112,-7.81979 159.47811,159.47811 0 0 0 26.94121,-11.41579 9.2467626,9.2467626 0 0 1 10.04584,1.02742 l 27.91153,22.83151 a 9.1896833,9.1896833 0 0 0 12.32904,-0.68491 l 39.55556,-39.49852 a 9.2467626,9.2467626 0 0 0 0.51346,-12.21487 l -22.37487,-27.79736 a 9.1896833,9.1896833 0 0 1 -0.97034,-10.04591 162.84576,162.84576 0 0 0 11.41578,-26.99823 9.1896833,9.1896833 0 0 1 7.76271,-6.33574 l 35.44591,-3.82427 a 9.2467626,9.2467626 0 0 0 8.27643,-9.18967 v -55.99428 a 9.3038412,9.3038412 0 0 0 -8.50471,-9.24677 z M 246.71171,327.37705 a 83.848731,83.848731 0 1 1 83.73456,-83.73456 83.848731,83.848731 0 0 1 -83.73456,83.73456 z"
   id="path4"
   style="fill:#2780e3;fill-opacity:1;stroke-width:5.70787764" /></svg>