<?xml version="1.0" encoding="UTF-8" standalone="no"?>
<!-- Generator: Adobe Illustrator 19.1.0, SVG Export Plug-In . SVG Version: 6.00 Build 0)  -->

<svg
   xmlns:dc="http://purl.org/dc/elements/1.1/"
   xmlns:cc="http://creativecommons.org/ns#"
   xmlns:rdf="http://www.w3.org/1999/02/22-rdf-syntax-ns#"
   xmlns:svg="http://www.w3.org/2000/svg"
   xmlns="http://www.w3.org/2000/svg"
   xmlns:sodipodi="http://sodipodi.sourceforge.net/DTD/sodipodi-0.dtd"
   xmlns:inkscape="http://www.inkscape.org/namespaces/inkscape"
   version="1.1"
   id="Capa_1"
   x="0px"
   y="0px"
   viewBox="0 0 22.917187 22.917187"
   xml:space="preserve"
   width="24"
   height="24"
   sodipodi:docname="wizard.svg"
   inkscape:version="0.92.2 2405546, 2018-03-11"><metadata
   id="metadata45"><rdf:RDF><cc:Work
       rdf:about=""><dc:format>image/svg+xml</dc:format><dc:type
         rdf:resource="http://purl.org/dc/dcmitype/StillImage" /><dc:title></dc:title></cc:Work></rdf:RDF></metadata><defs
   id="defs43" /><sodipodi:namedview
   pagecolor="#ffffff"
   bordercolor="#666666"
   borderopacity="1"
   objecttolerance="10"
   gridtolerance="10"
   guidetolerance="10"
   inkscape:pageopacity="0"
   inkscape:pageshadow="2"
   inkscape:window-width="2560"
   inkscape:window-height="1347"
   id="namedview41"
   showgrid="false"
   inkscape:zoom="14.75"
   inkscape:cx="18.287893"
   inkscape:cy="5.0791701"
   inkscape:window-x="0"
   inkscape:window-y="0"
   inkscape:window-maximized="1"
   inkscape:current-layer="Capa_1" />

<g
   id="g10"
   transform="translate(0,-465.98281)">
</g>
<g
   id="g12"
   transform="translate(0,-465.98281)">
</g>
<g
   id="g14"
   transform="translate(0,-465.98281)">
</g>
<g
   id="g16"
   transform="translate(0,-465.98281)">
</g>
<g
   id="g18"
   transform="translate(0,-465.98281)">
</g>
<g
   id="g20"
   transform="translate(0,-465.98281)">
</g>
<g
   id="g22"
   transform="translate(0,-465.98281)">
</g>
<g
   id="g24"
   transform="translate(0,-465.98281)">
</g>
<g
   id="g26"
   transform="translate(0,-465.98281)">
</g>
<g
   id="g28"
   transform="translate(0,-465.98281)">
</g>
<g
   id="g30"
   transform="translate(0,-465.98281)">
</g>
<g
   id="g32"
   transform="translate(0,-465.98281)">
</g>
<g
   id="g34"
   transform="translate(0,-465.98281)">
</g>
<g
   id="g36"
   transform="translate(0,-465.98281)">
</g>
<g
   id="g38"
   transform="translate(0,-465.98281)">
</g>
<path
   inkscape:connector-curvature="0"
   d="M 21.16465,9.4299745 19.413357,9.2298585 A 0.45403843,0.48086981 0 0 1 19.029822,8.8863813 8.0457869,8.5212526 0 0 0 18.4658,7.4736383 0.45403843,0.48086981 0 0 1 18.513746,6.947968 L 19.619231,5.4963984 A 0.45967868,0.48684336 0 0 0 19.588207,4.8482681 L 17.645153,2.7933716 A 0.45403843,0.48086981 0 0 0 17.041647,2.757529 l -1.379035,1.1708143 a 0.45403843,0.48086981 0 0 1 -0.496339,0.05376 7.8794,8.3450324 0 0 0 -1.331097,-0.5973531 0.45685856,0.4838566 0 0 1 -0.315853,-0.409187 L 13.330376,1.1207799 A 0.45685856,0.4838566 0 0 0 12.876339,0.68769875 H 10.115447 A 0.45967868,0.48684336 0 0 0 9.6585887,1.1207799 L 9.469639,2.9755634 A 0.45403843,0.48086981 0 0 1 9.1453275,3.3966964 7.6932726,8.147906 0 0 0 7.8142324,3.9940517 0.45403843,0.48086981 0 0 1 7.3178931,3.9402917 L 5.9444972,2.7694781 A 0.45685856,0.4838566 0 0 0 5.3325311,2.8053207 L 3.392293,4.8602194 A 0.46249877,0.48983013 0 0 0 3.358448,5.5083466 l 1.1054885,1.4515696 a 0.45121833,0.47788305 0 0 1 0.050757,0.525674 7.8117179,8.273351 0 0 0 -0.5640214,1.4127392 0.45403843,0.48086981 0 0 1 -0.386355,0.3315321 L 1.8130263,9.4299775 A 0.45967868,0.48684336 0 0 0 1.4041094,9.9138335 V 12.83788 a 0.45967868,0.48684336 0 0 0 0.4089169,0.48087 l 1.7512901,0.200112 a 0.45403843,0.48086981 0 0 1 0.386355,0.331532 7.8117179,8.273351 0 0 0 0.5640214,1.412743 0.45121833,0.47788305 0 0 1 -0.050757,0.52567 l -1.1054884,1.460532 a 0.45685856,0.4838566 0 0 0 0.033845,0.64514 l 1.9515199,2.066843 a 0.45685856,0.4838566 0 0 0 0.6119668,0.03584 l 1.3733922,-1.170813 a 0.45685856,0.4838566 0 0 1 0.4963423,-0.05376 7.6932726,8.147906 0 0 0 1.3198134,0.567488 0.45403843,0.48086981 0 0 1 0.313032,0.409187 l 0.1889482,1.854782 a 0.45967868,0.48684336 0 0 0 0.4568568,0.433082 h 2.760891 a 0.45685856,0.4838566 0 0 0 0.454042,-0.433082 l 0.188947,-1.854782 a 0.45685856,0.4838566 0 0 1 0.327132,-0.409187 7.8794,8.3450324 0 0 0 1.331096,-0.597356 0.45685856,0.4838566 0 0 1 0.496339,0.05376 l 1.379035,1.194708 a 0.45403843,0.48086981 0 0 0 0.609147,-0.03584 l 1.954336,-2.066844 a 0.45685856,0.4838566 0 0 0 0.02537,-0.639169 L 18.525015,15.79478 a 0.45403843,0.48086981 0 0 1 -0.04795,-0.525674 8.0457869,8.5212526 0 0 0 0.564025,-1.41274 0.45403843,0.48086981 0 0 1 0.383534,-0.331531 l 1.751292,-0.200113 a 0.45685856,0.4838566 0 0 0 0.408917,-0.480869 V 9.9138315 a 0.45967868,0.48684336 0 0 0 -0.420197,-0.483856 z m -9.670175,6.3259745 a 4.1427485,4.3875639 0 1 1 4.137107,-4.38159 4.1427485,4.3875639 0 0 1 -4.137107,4.38159 z"
   id="path4"
   style="fill:#2780e3;fill-opacity:1;stroke-width:0.29022455" /></svg>